%FSAX24Y24*%
%MOIN*%
G70*
G01*
G75*
G04 Layer_Color=8388736*
%ADD10C,0.0630*%
%ADD11R,0.0630X0.0709*%
G04:AMPARAMS|DCode=12|XSize=24mil|YSize=59.1mil|CornerRadius=0.6mil|HoleSize=0mil|Usage=FLASHONLY|Rotation=270.000|XOffset=0mil|YOffset=0mil|HoleType=Round|Shape=RoundedRectangle|*
%AMROUNDEDRECTD12*
21,1,0.0240,0.0579,0,0,270.0*
21,1,0.0228,0.0591,0,0,270.0*
1,1,0.0012,-0.0289,-0.0114*
1,1,0.0012,-0.0289,0.0114*
1,1,0.0012,0.0289,0.0114*
1,1,0.0012,0.0289,-0.0114*
%
%ADD12ROUNDEDRECTD12*%
G04:AMPARAMS|DCode=13|XSize=24mil|YSize=59.1mil|CornerRadius=0.6mil|HoleSize=0mil|Usage=FLASHONLY|Rotation=180.000|XOffset=0mil|YOffset=0mil|HoleType=Round|Shape=RoundedRectangle|*
%AMROUNDEDRECTD13*
21,1,0.0240,0.0579,0,0,180.0*
21,1,0.0228,0.0591,0,0,180.0*
1,1,0.0012,-0.0114,0.0289*
1,1,0.0012,0.0114,0.0289*
1,1,0.0012,0.0114,-0.0289*
1,1,0.0012,-0.0114,-0.0289*
%
%ADD13ROUNDEDRECTD13*%
%ADD14O,0.0217X0.0689*%
%ADD15O,0.0689X0.0217*%
%ADD16O,0.0787X0.0248*%
%ADD17O,0.0866X0.0236*%
%ADD18R,0.1417X0.0591*%
%ADD19R,0.1378X0.0669*%
%ADD20R,0.0669X0.0984*%
%ADD21R,0.0945X0.1024*%
%ADD22R,0.0591X0.0512*%
%ADD23R,0.0236X0.0453*%
%ADD24R,0.0709X0.0630*%
%ADD25O,0.0591X0.0236*%
%ADD26R,0.0512X0.0591*%
%ADD27R,0.1024X0.0945*%
%ADD28O,0.0236X0.0787*%
%ADD29R,0.1063X0.0630*%
%ADD30R,0.0472X0.1575*%
%ADD31C,0.0394*%
%ADD32C,0.0118*%
%ADD33C,0.0236*%
%ADD34C,0.0330*%
%ADD35C,0.0079*%
%ADD36C,0.0197*%
%ADD37C,0.0157*%
%ADD38R,0.0394X0.0394*%
%ADD39P,0.1114X4X270.0*%
%ADD40R,0.0945X0.0984*%
%ADD41C,0.1250*%
%ADD42O,0.0472X0.0984*%
%ADD43C,0.0600*%
%ADD44C,0.0700*%
%ADD45R,0.0700X0.0700*%
%ADD46C,0.0394*%
%ADD47C,0.1600*%
%ADD48R,0.0591X0.0591*%
%ADD49C,0.0591*%
%ADD50R,0.0500X0.0500*%
%ADD51C,0.0500*%
%ADD52C,0.0709*%
%ADD53C,0.0315*%
%ADD54C,0.0400*%
%ADD55R,0.6594X0.5118*%
%ADD56C,0.1650*%
%ADD57C,0.0636*%
%ADD58C,0.0597*%
G04:AMPARAMS|DCode=59|XSize=83.622mil|YSize=83.622mil|CornerRadius=0mil|HoleSize=0mil|Usage=FLASHONLY|Rotation=0.000|XOffset=0mil|YOffset=0mil|HoleType=Round|Shape=Relief|Width=10mil|Gap=10mil|Entries=4|*
%AMTHD59*
7,0,0,0.0836,0.0636,0.0100,45*
%
%ADD59THD59*%
G04:AMPARAMS|DCode=60|XSize=90mil|YSize=90mil|CornerRadius=0mil|HoleSize=0mil|Usage=FLASHONLY|Rotation=0.000|XOffset=0mil|YOffset=0mil|HoleType=Round|Shape=Relief|Width=10mil|Gap=10mil|Entries=4|*
%AMTHD60*
7,0,0,0.0900,0.0700,0.0100,45*
%
%ADD60THD60*%
%ADD61C,0.0754*%
G04:AMPARAMS|DCode=62|XSize=95.433mil|YSize=95.433mil|CornerRadius=0mil|HoleSize=0mil|Usage=FLASHONLY|Rotation=0.000|XOffset=0mil|YOffset=0mil|HoleType=Round|Shape=Relief|Width=10mil|Gap=10mil|Entries=4|*
%AMTHD62*
7,0,0,0.0954,0.0754,0.0100,45*
%
%ADD62THD62*%
G04:AMPARAMS|DCode=63|XSize=88mil|YSize=88mil|CornerRadius=0mil|HoleSize=0mil|Usage=FLASHONLY|Rotation=0.000|XOffset=0mil|YOffset=0mil|HoleType=Round|Shape=Relief|Width=10mil|Gap=10mil|Entries=4|*
%AMTHD63*
7,0,0,0.0880,0.0680,0.0100,45*
%
%ADD63THD63*%
%ADD64C,0.0680*%
%ADD65C,0.0872*%
%ADD66C,0.0518*%
G04:AMPARAMS|DCode=67|XSize=71.811mil|YSize=71.811mil|CornerRadius=0mil|HoleSize=0mil|Usage=FLASHONLY|Rotation=0.000|XOffset=0mil|YOffset=0mil|HoleType=Round|Shape=Relief|Width=10mil|Gap=10mil|Entries=4|*
%AMTHD67*
7,0,0,0.0718,0.0518,0.0100,45*
%
%ADD67THD67*%
%ADD68C,0.0787*%
%ADD69C,0.0295*%
%ADD70R,0.5118X0.3543*%
%ADD71R,1.4173X0.3543*%
%ADD72C,0.0098*%
%ADD73C,0.0050*%
%ADD74C,0.0080*%
%ADD75C,0.0039*%
%ADD76C,0.0059*%
%ADD77C,0.0100*%
%ADD78R,0.1715X0.0705*%
%ADD79R,0.0815X0.0830*%
%ADD80R,0.0910X0.0580*%
%ADD81R,0.0310X0.1160*%
%ADD82R,0.1673X0.1525*%
%ADD83R,0.4331X0.0320*%
%ADD84R,0.0810X0.0092*%
%ADD85R,0.0663X0.0165*%
%ADD86R,0.0744X0.0120*%
%ADD87R,0.0220X0.0200*%
%ADD88R,0.0040X0.0150*%
%ADD89R,0.0050X0.0230*%
%ADD90R,0.0040X0.0190*%
%ADD91R,0.0110X0.0200*%
%ADD92R,0.0070X0.0160*%
%ADD93R,0.0049X0.0126*%
%ADD94C,0.1417*%
%ADD95R,0.0710X0.0789*%
G04:AMPARAMS|DCode=96|XSize=32mil|YSize=67.1mil|CornerRadius=4.6mil|HoleSize=0mil|Usage=FLASHONLY|Rotation=270.000|XOffset=0mil|YOffset=0mil|HoleType=Round|Shape=RoundedRectangle|*
%AMROUNDEDRECTD96*
21,1,0.0320,0.0579,0,0,270.0*
21,1,0.0228,0.0671,0,0,270.0*
1,1,0.0092,-0.0289,-0.0114*
1,1,0.0092,-0.0289,0.0114*
1,1,0.0092,0.0289,0.0114*
1,1,0.0092,0.0289,-0.0114*
%
%ADD96ROUNDEDRECTD96*%
G04:AMPARAMS|DCode=97|XSize=32mil|YSize=67.1mil|CornerRadius=4.6mil|HoleSize=0mil|Usage=FLASHONLY|Rotation=180.000|XOffset=0mil|YOffset=0mil|HoleType=Round|Shape=RoundedRectangle|*
%AMROUNDEDRECTD97*
21,1,0.0320,0.0579,0,0,180.0*
21,1,0.0228,0.0671,0,0,180.0*
1,1,0.0092,-0.0114,0.0289*
1,1,0.0092,0.0114,0.0289*
1,1,0.0092,0.0114,-0.0289*
1,1,0.0092,-0.0114,-0.0289*
%
%ADD97ROUNDEDRECTD97*%
%ADD98O,0.0374X0.0846*%
%ADD99O,0.0846X0.0374*%
%ADD100O,0.0867X0.0328*%
%ADD101O,0.0946X0.0316*%
%ADD102R,0.1497X0.0671*%
%ADD103R,0.1458X0.0749*%
%ADD104R,0.0749X0.1064*%
%ADD105R,0.1025X0.1104*%
%ADD106R,0.0671X0.0592*%
%ADD107R,0.0316X0.0533*%
%ADD108R,0.0789X0.0710*%
%ADD109O,0.0671X0.0316*%
%ADD110R,0.0592X0.0671*%
%ADD111R,0.1104X0.1025*%
%ADD112O,0.0316X0.0867*%
%ADD113R,0.1143X0.0710*%
%ADD114R,0.0552X0.1655*%
%ADD115C,0.1329*%
%ADD116O,0.0552X0.1064*%
%ADD117C,0.0780*%
%ADD118R,0.0780X0.0780*%
%ADD119C,0.2387*%
%ADD120R,0.0671X0.0671*%
%ADD121C,0.0671*%
%ADD122R,0.0580X0.0580*%
%ADD123C,0.0580*%
%ADD124C,0.0945*%
%ADD125C,0.0789*%
%ADD126C,0.0335*%
D38*
X050377Y035245D02*
D03*
X049590Y035255D02*
D03*
X051523Y033970D02*
D03*
Y032395D02*
D03*
X048444D02*
D03*
X048442Y033970D02*
D03*
X094472Y035245D02*
D03*
X093684Y035255D02*
D03*
X095617Y033970D02*
D03*
Y032395D02*
D03*
X092539D02*
D03*
X092537Y033970D02*
D03*
X138566Y035245D02*
D03*
X137779Y035255D02*
D03*
X139712Y033970D02*
D03*
Y032395D02*
D03*
X136633D02*
D03*
X136631Y033970D02*
D03*
X050377Y060048D02*
D03*
X049590Y060058D02*
D03*
X051523Y058773D02*
D03*
Y057198D02*
D03*
X048444D02*
D03*
X048442Y058773D02*
D03*
X094472Y060048D02*
D03*
X093684Y060058D02*
D03*
X095617Y058773D02*
D03*
Y057198D02*
D03*
X092539D02*
D03*
X092537Y058773D02*
D03*
X138566Y060048D02*
D03*
X137779Y060058D02*
D03*
X139712Y058773D02*
D03*
Y057198D02*
D03*
X136633D02*
D03*
X136631Y058773D02*
D03*
X050377Y084852D02*
D03*
X049590Y084861D02*
D03*
X051523Y083576D02*
D03*
Y082001D02*
D03*
X048444D02*
D03*
X048442Y083576D02*
D03*
X094472Y084852D02*
D03*
X093684Y084861D02*
D03*
X095617Y083576D02*
D03*
Y082001D02*
D03*
X092539D02*
D03*
X092537Y083576D02*
D03*
X138566Y084852D02*
D03*
X137779Y084861D02*
D03*
X139712Y083576D02*
D03*
Y082001D02*
D03*
X136633D02*
D03*
X136631Y083576D02*
D03*
D46*
X050298Y039657D02*
D03*
X049826Y039237D02*
D03*
X049208Y039127D02*
D03*
X051230Y041458D02*
D03*
X048620Y039518D02*
D03*
X047818Y039357D02*
D03*
X094392Y039657D02*
D03*
X093920Y039237D02*
D03*
X093302Y039127D02*
D03*
X095324Y041458D02*
D03*
X092714Y039518D02*
D03*
X091912Y039357D02*
D03*
X138487Y039657D02*
D03*
X138015Y039237D02*
D03*
X137397Y039127D02*
D03*
X139419Y041458D02*
D03*
X136809Y039518D02*
D03*
X136007Y039357D02*
D03*
X050298Y064460D02*
D03*
X049826Y064040D02*
D03*
X049208Y063930D02*
D03*
X051230Y066261D02*
D03*
X048620Y064321D02*
D03*
X047818Y064160D02*
D03*
X094392Y064460D02*
D03*
X093920Y064040D02*
D03*
X093302Y063930D02*
D03*
X095324Y066261D02*
D03*
X092714Y064321D02*
D03*
X091912Y064160D02*
D03*
X138487Y064460D02*
D03*
X138015Y064040D02*
D03*
X137397Y063930D02*
D03*
X139419Y066261D02*
D03*
X136809Y064321D02*
D03*
X136007Y064160D02*
D03*
X050298Y089263D02*
D03*
X049826Y088843D02*
D03*
X049208Y088733D02*
D03*
X051230Y091064D02*
D03*
X048620Y089124D02*
D03*
X047818Y088963D02*
D03*
X094392Y089263D02*
D03*
X093920Y088843D02*
D03*
X093302Y088733D02*
D03*
X095324Y091064D02*
D03*
X092714Y089124D02*
D03*
X091912Y088963D02*
D03*
X138487Y089263D02*
D03*
X138015Y088843D02*
D03*
X137397Y088733D02*
D03*
X139419Y091064D02*
D03*
X136809Y089124D02*
D03*
X136007Y088963D02*
D03*
D64*
X026831Y045753D02*
D03*
Y046753D02*
D03*
Y047753D02*
D03*
Y048753D02*
D03*
Y049753D02*
D03*
Y050753D02*
D03*
Y051753D02*
D03*
Y052753D02*
D03*
X020831D02*
D03*
Y051753D02*
D03*
Y050753D02*
D03*
Y049753D02*
D03*
Y048753D02*
D03*
Y047753D02*
D03*
Y046753D02*
D03*
Y045753D02*
D03*
X013937Y052867D02*
D03*
Y051867D02*
D03*
Y050867D02*
D03*
Y049867D02*
D03*
Y048867D02*
D03*
Y047867D02*
D03*
Y046867D02*
D03*
Y045867D02*
D03*
Y044867D02*
D03*
X051537Y049195D02*
D03*
X050037Y047227D02*
D03*
X051537Y045258D02*
D03*
X070925Y045753D02*
D03*
Y046753D02*
D03*
Y047753D02*
D03*
Y048753D02*
D03*
Y049753D02*
D03*
Y050753D02*
D03*
Y051753D02*
D03*
Y052753D02*
D03*
X064925D02*
D03*
Y051753D02*
D03*
Y050753D02*
D03*
Y049753D02*
D03*
Y048753D02*
D03*
Y047753D02*
D03*
Y046753D02*
D03*
Y045753D02*
D03*
X058032Y052867D02*
D03*
Y051867D02*
D03*
Y050867D02*
D03*
Y049867D02*
D03*
Y048867D02*
D03*
Y047867D02*
D03*
Y046867D02*
D03*
Y045867D02*
D03*
Y044867D02*
D03*
X095632Y049195D02*
D03*
X094132Y047227D02*
D03*
X095632Y045258D02*
D03*
X115020Y045753D02*
D03*
Y046753D02*
D03*
Y047753D02*
D03*
Y048753D02*
D03*
Y049753D02*
D03*
Y050753D02*
D03*
Y051753D02*
D03*
Y052753D02*
D03*
X109020D02*
D03*
Y051753D02*
D03*
Y050753D02*
D03*
Y049753D02*
D03*
Y048753D02*
D03*
Y047753D02*
D03*
Y046753D02*
D03*
Y045753D02*
D03*
X102126Y052867D02*
D03*
Y051867D02*
D03*
Y050867D02*
D03*
Y049867D02*
D03*
Y048867D02*
D03*
Y047867D02*
D03*
Y046867D02*
D03*
Y045867D02*
D03*
Y044867D02*
D03*
X139726Y049195D02*
D03*
X138226Y047227D02*
D03*
X139726Y045258D02*
D03*
X026831Y070556D02*
D03*
Y071556D02*
D03*
Y072556D02*
D03*
Y073556D02*
D03*
Y074556D02*
D03*
Y075556D02*
D03*
Y076556D02*
D03*
Y077556D02*
D03*
X020831D02*
D03*
Y076556D02*
D03*
Y075556D02*
D03*
Y074556D02*
D03*
Y073556D02*
D03*
Y072556D02*
D03*
Y071556D02*
D03*
Y070556D02*
D03*
X013937Y077670D02*
D03*
Y076670D02*
D03*
Y075670D02*
D03*
Y074670D02*
D03*
Y073670D02*
D03*
Y072670D02*
D03*
Y071670D02*
D03*
Y070670D02*
D03*
Y069670D02*
D03*
X051537Y073998D02*
D03*
X050037Y072030D02*
D03*
X051537Y070061D02*
D03*
X070925Y070556D02*
D03*
Y071556D02*
D03*
Y072556D02*
D03*
Y073556D02*
D03*
Y074556D02*
D03*
Y075556D02*
D03*
Y076556D02*
D03*
Y077556D02*
D03*
X064925D02*
D03*
Y076556D02*
D03*
Y075556D02*
D03*
Y074556D02*
D03*
Y073556D02*
D03*
Y072556D02*
D03*
Y071556D02*
D03*
Y070556D02*
D03*
X058032Y077670D02*
D03*
Y076670D02*
D03*
Y075670D02*
D03*
Y074670D02*
D03*
Y073670D02*
D03*
Y072670D02*
D03*
Y071670D02*
D03*
Y070670D02*
D03*
Y069670D02*
D03*
X095632Y073998D02*
D03*
X094132Y072030D02*
D03*
X095632Y070061D02*
D03*
X115020Y070556D02*
D03*
Y071556D02*
D03*
Y072556D02*
D03*
Y073556D02*
D03*
Y074556D02*
D03*
Y075556D02*
D03*
Y076556D02*
D03*
Y077556D02*
D03*
X109020D02*
D03*
Y076556D02*
D03*
Y075556D02*
D03*
Y074556D02*
D03*
Y073556D02*
D03*
Y072556D02*
D03*
Y071556D02*
D03*
Y070556D02*
D03*
X102126Y077670D02*
D03*
Y076670D02*
D03*
Y075670D02*
D03*
Y074670D02*
D03*
Y073670D02*
D03*
Y072670D02*
D03*
Y071670D02*
D03*
Y070670D02*
D03*
Y069670D02*
D03*
X139726Y073998D02*
D03*
X138226Y072030D02*
D03*
X139726Y070061D02*
D03*
X026831Y095359D02*
D03*
Y096359D02*
D03*
Y097359D02*
D03*
Y098359D02*
D03*
Y099359D02*
D03*
Y100359D02*
D03*
Y101359D02*
D03*
Y102359D02*
D03*
X020831D02*
D03*
Y101359D02*
D03*
Y100359D02*
D03*
Y099359D02*
D03*
Y098359D02*
D03*
Y097359D02*
D03*
Y096359D02*
D03*
Y095359D02*
D03*
X013937Y102474D02*
D03*
Y101474D02*
D03*
Y100474D02*
D03*
Y099474D02*
D03*
Y098474D02*
D03*
Y097474D02*
D03*
Y096474D02*
D03*
Y095474D02*
D03*
Y094474D02*
D03*
X051537Y098802D02*
D03*
X050037Y096833D02*
D03*
X051537Y094865D02*
D03*
X070925Y095359D02*
D03*
Y096359D02*
D03*
Y097359D02*
D03*
Y098359D02*
D03*
Y099359D02*
D03*
Y100359D02*
D03*
Y101359D02*
D03*
Y102359D02*
D03*
X064925D02*
D03*
Y101359D02*
D03*
Y100359D02*
D03*
Y099359D02*
D03*
Y098359D02*
D03*
Y097359D02*
D03*
Y096359D02*
D03*
Y095359D02*
D03*
X058032Y102474D02*
D03*
Y101474D02*
D03*
Y100474D02*
D03*
Y099474D02*
D03*
Y098474D02*
D03*
Y097474D02*
D03*
Y096474D02*
D03*
Y095474D02*
D03*
Y094474D02*
D03*
X095632Y098802D02*
D03*
X094132Y096833D02*
D03*
X095632Y094865D02*
D03*
X115020Y095359D02*
D03*
Y096359D02*
D03*
Y097359D02*
D03*
Y098359D02*
D03*
Y099359D02*
D03*
Y100359D02*
D03*
Y101359D02*
D03*
Y102359D02*
D03*
X109020D02*
D03*
Y101359D02*
D03*
Y100359D02*
D03*
Y099359D02*
D03*
Y098359D02*
D03*
Y097359D02*
D03*
Y096359D02*
D03*
Y095359D02*
D03*
X102126Y102474D02*
D03*
Y101474D02*
D03*
Y100474D02*
D03*
Y099474D02*
D03*
Y098474D02*
D03*
Y097474D02*
D03*
Y096474D02*
D03*
Y095474D02*
D03*
Y094474D02*
D03*
X139726Y098802D02*
D03*
X138226Y096833D02*
D03*
X139726Y094865D02*
D03*
D94*
X135396Y029607D02*
D03*
X014923Y106773D02*
D03*
X135396D02*
D03*
X014923Y029607D02*
D03*
D95*
X022798Y044925D02*
D03*
X021696D02*
D03*
X066892D02*
D03*
X065790D02*
D03*
X110987D02*
D03*
X109885D02*
D03*
X022798Y069728D02*
D03*
X021696D02*
D03*
X066892D02*
D03*
X065790D02*
D03*
X110987D02*
D03*
X109885D02*
D03*
X022798Y094532D02*
D03*
X021696D02*
D03*
X066892D02*
D03*
X065790D02*
D03*
X110987D02*
D03*
X109885D02*
D03*
D96*
X048373Y034757D02*
D03*
Y035151D02*
D03*
Y035544D02*
D03*
Y035938D02*
D03*
Y036332D02*
D03*
Y036726D02*
D03*
Y037119D02*
D03*
Y037513D02*
D03*
X051602D02*
D03*
Y037119D02*
D03*
Y036726D02*
D03*
Y036332D02*
D03*
Y035938D02*
D03*
Y035544D02*
D03*
Y035151D02*
D03*
Y034757D02*
D03*
X092468D02*
D03*
Y035151D02*
D03*
Y035544D02*
D03*
Y035938D02*
D03*
Y036332D02*
D03*
Y036726D02*
D03*
Y037119D02*
D03*
Y037513D02*
D03*
X095696D02*
D03*
Y037119D02*
D03*
Y036726D02*
D03*
Y036332D02*
D03*
Y035938D02*
D03*
Y035544D02*
D03*
Y035151D02*
D03*
Y034757D02*
D03*
X136562D02*
D03*
Y035151D02*
D03*
Y035544D02*
D03*
Y035938D02*
D03*
Y036332D02*
D03*
Y036726D02*
D03*
Y037119D02*
D03*
Y037513D02*
D03*
X139791D02*
D03*
Y037119D02*
D03*
Y036726D02*
D03*
Y036332D02*
D03*
Y035938D02*
D03*
Y035544D02*
D03*
Y035151D02*
D03*
Y034757D02*
D03*
X048373Y059560D02*
D03*
Y059954D02*
D03*
Y060348D02*
D03*
Y060741D02*
D03*
Y061135D02*
D03*
Y061529D02*
D03*
Y061922D02*
D03*
Y062316D02*
D03*
X051602D02*
D03*
Y061922D02*
D03*
Y061529D02*
D03*
Y061135D02*
D03*
Y060741D02*
D03*
Y060348D02*
D03*
Y059954D02*
D03*
Y059560D02*
D03*
X092468D02*
D03*
Y059954D02*
D03*
Y060348D02*
D03*
Y060741D02*
D03*
Y061135D02*
D03*
Y061529D02*
D03*
Y061922D02*
D03*
Y062316D02*
D03*
X095696D02*
D03*
Y061922D02*
D03*
Y061529D02*
D03*
Y061135D02*
D03*
Y060741D02*
D03*
Y060348D02*
D03*
Y059954D02*
D03*
Y059560D02*
D03*
X136562D02*
D03*
Y059954D02*
D03*
Y060348D02*
D03*
Y060741D02*
D03*
Y061135D02*
D03*
Y061529D02*
D03*
Y061922D02*
D03*
Y062316D02*
D03*
X139791D02*
D03*
Y061922D02*
D03*
Y061529D02*
D03*
Y061135D02*
D03*
Y060741D02*
D03*
Y060348D02*
D03*
Y059954D02*
D03*
Y059560D02*
D03*
X048373Y084363D02*
D03*
Y084757D02*
D03*
Y085151D02*
D03*
Y085544D02*
D03*
Y085938D02*
D03*
Y086332D02*
D03*
Y086726D02*
D03*
Y087119D02*
D03*
X051602D02*
D03*
Y086726D02*
D03*
Y086332D02*
D03*
Y085938D02*
D03*
Y085544D02*
D03*
Y085151D02*
D03*
Y084757D02*
D03*
Y084363D02*
D03*
X092468D02*
D03*
Y084757D02*
D03*
Y085151D02*
D03*
Y085544D02*
D03*
Y085938D02*
D03*
Y086332D02*
D03*
Y086726D02*
D03*
Y087119D02*
D03*
X095696D02*
D03*
Y086726D02*
D03*
Y086332D02*
D03*
Y085938D02*
D03*
Y085544D02*
D03*
Y085151D02*
D03*
Y084757D02*
D03*
Y084363D02*
D03*
X136562D02*
D03*
Y084757D02*
D03*
Y085151D02*
D03*
Y085544D02*
D03*
Y085938D02*
D03*
Y086332D02*
D03*
Y086726D02*
D03*
Y087119D02*
D03*
X139791D02*
D03*
Y086726D02*
D03*
Y086332D02*
D03*
Y085938D02*
D03*
Y085544D02*
D03*
Y085151D02*
D03*
Y084757D02*
D03*
Y084363D02*
D03*
D97*
X048606Y038143D02*
D03*
X048999D02*
D03*
X049393D02*
D03*
X049787D02*
D03*
X050180D02*
D03*
X050574D02*
D03*
X050968D02*
D03*
X051361D02*
D03*
X092700D02*
D03*
X093094D02*
D03*
X093487D02*
D03*
X093881D02*
D03*
X094275D02*
D03*
X094669D02*
D03*
X095062D02*
D03*
X095456D02*
D03*
X136794D02*
D03*
X137188D02*
D03*
X137582D02*
D03*
X137976D02*
D03*
X138369D02*
D03*
X138763D02*
D03*
X139157D02*
D03*
X139550D02*
D03*
X048606Y062946D02*
D03*
X048999D02*
D03*
X049393D02*
D03*
X049787D02*
D03*
X050180D02*
D03*
X050574D02*
D03*
X050968D02*
D03*
X051361D02*
D03*
X092700D02*
D03*
X093094D02*
D03*
X093487D02*
D03*
X093881D02*
D03*
X094275D02*
D03*
X094669D02*
D03*
X095062D02*
D03*
X095456D02*
D03*
X136794D02*
D03*
X137188D02*
D03*
X137582D02*
D03*
X137976D02*
D03*
X138369D02*
D03*
X138763D02*
D03*
X139157D02*
D03*
X139550D02*
D03*
X048606Y087749D02*
D03*
X048999D02*
D03*
X049393D02*
D03*
X049787D02*
D03*
X050180D02*
D03*
X050574D02*
D03*
X050968D02*
D03*
X051361D02*
D03*
X092700D02*
D03*
X093094D02*
D03*
X093487D02*
D03*
X093881D02*
D03*
X094275D02*
D03*
X094669D02*
D03*
X095062D02*
D03*
X095456D02*
D03*
X136794D02*
D03*
X137188D02*
D03*
X137582D02*
D03*
X137976D02*
D03*
X138369D02*
D03*
X138763D02*
D03*
X139157D02*
D03*
X139550D02*
D03*
D98*
X044449Y045336D02*
D03*
X044764D02*
D03*
X045079D02*
D03*
X045394D02*
D03*
X045709D02*
D03*
X046024D02*
D03*
X046339D02*
D03*
X046654D02*
D03*
X046968D02*
D03*
X047283D02*
D03*
X047598D02*
D03*
Y040887D02*
D03*
X047283D02*
D03*
X046968D02*
D03*
X046654D02*
D03*
X046339D02*
D03*
X046024D02*
D03*
X045709D02*
D03*
X045394D02*
D03*
X045079D02*
D03*
X044764D02*
D03*
X044449D02*
D03*
X088543Y045336D02*
D03*
X088858D02*
D03*
X089173D02*
D03*
X089488D02*
D03*
X089803D02*
D03*
X090118D02*
D03*
X090433D02*
D03*
X090748D02*
D03*
X091063D02*
D03*
X091378D02*
D03*
X091693D02*
D03*
Y040887D02*
D03*
X091378D02*
D03*
X091063D02*
D03*
X090748D02*
D03*
X090433D02*
D03*
X090118D02*
D03*
X089803D02*
D03*
X089488D02*
D03*
X089173D02*
D03*
X088858D02*
D03*
X088543D02*
D03*
X132638Y045336D02*
D03*
X132953D02*
D03*
X133268D02*
D03*
X133583D02*
D03*
X133898D02*
D03*
X134213D02*
D03*
X134528D02*
D03*
X134843D02*
D03*
X135157D02*
D03*
X135472D02*
D03*
X135787D02*
D03*
Y040887D02*
D03*
X135472D02*
D03*
X135157D02*
D03*
X134843D02*
D03*
X134528D02*
D03*
X134213D02*
D03*
X133898D02*
D03*
X133583D02*
D03*
X133268D02*
D03*
X132953D02*
D03*
X132638D02*
D03*
X044449Y070139D02*
D03*
X044764D02*
D03*
X045079D02*
D03*
X045394D02*
D03*
X045709D02*
D03*
X046024D02*
D03*
X046339D02*
D03*
X046654D02*
D03*
X046968D02*
D03*
X047283D02*
D03*
X047598D02*
D03*
Y065690D02*
D03*
X047283D02*
D03*
X046968D02*
D03*
X046654D02*
D03*
X046339D02*
D03*
X046024D02*
D03*
X045709D02*
D03*
X045394D02*
D03*
X045079D02*
D03*
X044764D02*
D03*
X044449D02*
D03*
X088543Y070139D02*
D03*
X088858D02*
D03*
X089173D02*
D03*
X089488D02*
D03*
X089803D02*
D03*
X090118D02*
D03*
X090433D02*
D03*
X090748D02*
D03*
X091063D02*
D03*
X091378D02*
D03*
X091693D02*
D03*
Y065690D02*
D03*
X091378D02*
D03*
X091063D02*
D03*
X090748D02*
D03*
X090433D02*
D03*
X090118D02*
D03*
X089803D02*
D03*
X089488D02*
D03*
X089173D02*
D03*
X088858D02*
D03*
X088543D02*
D03*
X132638Y070139D02*
D03*
X132953D02*
D03*
X133268D02*
D03*
X133583D02*
D03*
X133898D02*
D03*
X134213D02*
D03*
X134528D02*
D03*
X134843D02*
D03*
X135157D02*
D03*
X135472D02*
D03*
X135787D02*
D03*
Y065690D02*
D03*
X135472D02*
D03*
X135157D02*
D03*
X134843D02*
D03*
X134528D02*
D03*
X134213D02*
D03*
X133898D02*
D03*
X133583D02*
D03*
X133268D02*
D03*
X132953D02*
D03*
X132638D02*
D03*
X044449Y094942D02*
D03*
X044764D02*
D03*
X045079D02*
D03*
X045394D02*
D03*
X045709D02*
D03*
X046024D02*
D03*
X046339D02*
D03*
X046654D02*
D03*
X046968D02*
D03*
X047283D02*
D03*
X047598D02*
D03*
Y090493D02*
D03*
X047283D02*
D03*
X046968D02*
D03*
X046654D02*
D03*
X046339D02*
D03*
X046024D02*
D03*
X045709D02*
D03*
X045394D02*
D03*
X045079D02*
D03*
X044764D02*
D03*
X044449D02*
D03*
X088543Y094942D02*
D03*
X088858D02*
D03*
X089173D02*
D03*
X089488D02*
D03*
X089803D02*
D03*
X090118D02*
D03*
X090433D02*
D03*
X090748D02*
D03*
X091063D02*
D03*
X091378D02*
D03*
X091693D02*
D03*
Y090493D02*
D03*
X091378D02*
D03*
X091063D02*
D03*
X090748D02*
D03*
X090433D02*
D03*
X090118D02*
D03*
X089803D02*
D03*
X089488D02*
D03*
X089173D02*
D03*
X088858D02*
D03*
X088543D02*
D03*
X132638Y094942D02*
D03*
X132953D02*
D03*
X133268D02*
D03*
X133583D02*
D03*
X133898D02*
D03*
X134213D02*
D03*
X134528D02*
D03*
X134843D02*
D03*
X135157D02*
D03*
X135472D02*
D03*
X135787D02*
D03*
Y090493D02*
D03*
X135472D02*
D03*
X135157D02*
D03*
X134843D02*
D03*
X134528D02*
D03*
X134213D02*
D03*
X133898D02*
D03*
X133583D02*
D03*
X133268D02*
D03*
X132953D02*
D03*
X132638D02*
D03*
D99*
X048248Y044686D02*
D03*
Y044371D02*
D03*
Y044056D02*
D03*
Y043741D02*
D03*
Y043426D02*
D03*
Y043111D02*
D03*
Y042796D02*
D03*
Y042481D02*
D03*
Y042167D02*
D03*
Y041852D02*
D03*
Y041537D02*
D03*
X043799D02*
D03*
Y041852D02*
D03*
Y042167D02*
D03*
Y042481D02*
D03*
Y042796D02*
D03*
Y043111D02*
D03*
Y043426D02*
D03*
Y043741D02*
D03*
Y044056D02*
D03*
Y044371D02*
D03*
Y044686D02*
D03*
X092343D02*
D03*
Y044371D02*
D03*
Y044056D02*
D03*
Y043741D02*
D03*
Y043426D02*
D03*
Y043111D02*
D03*
Y042796D02*
D03*
Y042481D02*
D03*
Y042167D02*
D03*
Y041852D02*
D03*
Y041537D02*
D03*
X087894D02*
D03*
Y041852D02*
D03*
Y042167D02*
D03*
Y042481D02*
D03*
Y042796D02*
D03*
Y043111D02*
D03*
Y043426D02*
D03*
Y043741D02*
D03*
Y044056D02*
D03*
Y044371D02*
D03*
Y044686D02*
D03*
X136437D02*
D03*
Y044371D02*
D03*
Y044056D02*
D03*
Y043741D02*
D03*
Y043426D02*
D03*
Y043111D02*
D03*
Y042796D02*
D03*
Y042481D02*
D03*
Y042167D02*
D03*
Y041852D02*
D03*
Y041537D02*
D03*
X131988D02*
D03*
Y041852D02*
D03*
Y042167D02*
D03*
Y042481D02*
D03*
Y042796D02*
D03*
Y043111D02*
D03*
Y043426D02*
D03*
Y043741D02*
D03*
Y044056D02*
D03*
Y044371D02*
D03*
Y044686D02*
D03*
X048248Y069489D02*
D03*
Y069174D02*
D03*
Y068859D02*
D03*
Y068544D02*
D03*
Y068230D02*
D03*
Y067915D02*
D03*
Y067600D02*
D03*
Y067285D02*
D03*
Y066970D02*
D03*
Y066655D02*
D03*
Y066340D02*
D03*
X043799D02*
D03*
Y066655D02*
D03*
Y066970D02*
D03*
Y067285D02*
D03*
Y067600D02*
D03*
Y067915D02*
D03*
Y068230D02*
D03*
Y068544D02*
D03*
Y068859D02*
D03*
Y069174D02*
D03*
Y069489D02*
D03*
X092343D02*
D03*
Y069174D02*
D03*
Y068859D02*
D03*
Y068544D02*
D03*
Y068230D02*
D03*
Y067915D02*
D03*
Y067600D02*
D03*
Y067285D02*
D03*
Y066970D02*
D03*
Y066655D02*
D03*
Y066340D02*
D03*
X087894D02*
D03*
Y066655D02*
D03*
Y066970D02*
D03*
Y067285D02*
D03*
Y067600D02*
D03*
Y067915D02*
D03*
Y068230D02*
D03*
Y068544D02*
D03*
Y068859D02*
D03*
Y069174D02*
D03*
Y069489D02*
D03*
X136437D02*
D03*
Y069174D02*
D03*
Y068859D02*
D03*
Y068544D02*
D03*
Y068230D02*
D03*
Y067915D02*
D03*
Y067600D02*
D03*
Y067285D02*
D03*
Y066970D02*
D03*
Y066655D02*
D03*
Y066340D02*
D03*
X131988D02*
D03*
Y066655D02*
D03*
Y066970D02*
D03*
Y067285D02*
D03*
Y067600D02*
D03*
Y067915D02*
D03*
Y068230D02*
D03*
Y068544D02*
D03*
Y068859D02*
D03*
Y069174D02*
D03*
Y069489D02*
D03*
X048248Y094293D02*
D03*
Y093978D02*
D03*
Y093663D02*
D03*
Y093348D02*
D03*
Y093033D02*
D03*
Y092718D02*
D03*
Y092403D02*
D03*
Y092088D02*
D03*
Y091773D02*
D03*
Y091458D02*
D03*
Y091143D02*
D03*
X043799D02*
D03*
Y091458D02*
D03*
Y091773D02*
D03*
Y092088D02*
D03*
Y092403D02*
D03*
Y092718D02*
D03*
Y093033D02*
D03*
Y093348D02*
D03*
Y093663D02*
D03*
Y093978D02*
D03*
Y094293D02*
D03*
X092343D02*
D03*
Y093978D02*
D03*
Y093663D02*
D03*
Y093348D02*
D03*
Y093033D02*
D03*
Y092718D02*
D03*
Y092403D02*
D03*
Y092088D02*
D03*
Y091773D02*
D03*
Y091458D02*
D03*
Y091143D02*
D03*
X087894D02*
D03*
Y091458D02*
D03*
Y091773D02*
D03*
Y092088D02*
D03*
Y092403D02*
D03*
Y092718D02*
D03*
Y093033D02*
D03*
Y093348D02*
D03*
Y093663D02*
D03*
Y093978D02*
D03*
Y094293D02*
D03*
X136437D02*
D03*
Y093978D02*
D03*
Y093663D02*
D03*
Y093348D02*
D03*
Y093033D02*
D03*
Y092718D02*
D03*
Y092403D02*
D03*
Y092088D02*
D03*
Y091773D02*
D03*
Y091458D02*
D03*
Y091143D02*
D03*
X131988D02*
D03*
Y091458D02*
D03*
Y091773D02*
D03*
Y092088D02*
D03*
Y092403D02*
D03*
Y092718D02*
D03*
Y093033D02*
D03*
Y093348D02*
D03*
Y093663D02*
D03*
Y093978D02*
D03*
Y094293D02*
D03*
D100*
X035522Y051488D02*
D03*
Y050988D02*
D03*
Y050488D02*
D03*
Y049988D02*
D03*
Y049488D02*
D03*
Y048988D02*
D03*
Y048488D02*
D03*
Y047988D02*
D03*
X038278Y051488D02*
D03*
Y050988D02*
D03*
Y050488D02*
D03*
Y049988D02*
D03*
Y049488D02*
D03*
Y048988D02*
D03*
Y048488D02*
D03*
Y047988D02*
D03*
X079617Y051488D02*
D03*
Y050988D02*
D03*
Y050488D02*
D03*
Y049988D02*
D03*
Y049488D02*
D03*
Y048988D02*
D03*
Y048488D02*
D03*
Y047988D02*
D03*
X082372Y051488D02*
D03*
Y050988D02*
D03*
Y050488D02*
D03*
Y049988D02*
D03*
Y049488D02*
D03*
Y048988D02*
D03*
Y048488D02*
D03*
Y047988D02*
D03*
X123711Y051488D02*
D03*
Y050988D02*
D03*
Y050488D02*
D03*
Y049988D02*
D03*
Y049488D02*
D03*
Y048988D02*
D03*
Y048488D02*
D03*
Y047988D02*
D03*
X126467Y051488D02*
D03*
Y050988D02*
D03*
Y050488D02*
D03*
Y049988D02*
D03*
Y049488D02*
D03*
Y048988D02*
D03*
Y048488D02*
D03*
Y047988D02*
D03*
X035522Y076291D02*
D03*
Y075791D02*
D03*
Y075291D02*
D03*
Y074791D02*
D03*
Y074291D02*
D03*
Y073791D02*
D03*
Y073291D02*
D03*
Y072791D02*
D03*
X038278Y076291D02*
D03*
Y075791D02*
D03*
Y075291D02*
D03*
Y074791D02*
D03*
Y074291D02*
D03*
Y073791D02*
D03*
Y073291D02*
D03*
Y072791D02*
D03*
X079617Y076291D02*
D03*
Y075791D02*
D03*
Y075291D02*
D03*
Y074791D02*
D03*
Y074291D02*
D03*
Y073791D02*
D03*
Y073291D02*
D03*
Y072791D02*
D03*
X082372Y076291D02*
D03*
Y075791D02*
D03*
Y075291D02*
D03*
Y074791D02*
D03*
Y074291D02*
D03*
Y073791D02*
D03*
Y073291D02*
D03*
Y072791D02*
D03*
X123711Y076291D02*
D03*
Y075791D02*
D03*
Y075291D02*
D03*
Y074791D02*
D03*
Y074291D02*
D03*
Y073791D02*
D03*
Y073291D02*
D03*
Y072791D02*
D03*
X126467Y076291D02*
D03*
Y075791D02*
D03*
Y075291D02*
D03*
Y074791D02*
D03*
Y074291D02*
D03*
Y073791D02*
D03*
Y073291D02*
D03*
Y072791D02*
D03*
X035522Y101094D02*
D03*
Y100594D02*
D03*
Y100094D02*
D03*
Y099594D02*
D03*
Y099094D02*
D03*
Y098594D02*
D03*
Y098094D02*
D03*
Y097594D02*
D03*
X038278Y101094D02*
D03*
Y100594D02*
D03*
Y100094D02*
D03*
Y099594D02*
D03*
Y099094D02*
D03*
Y098594D02*
D03*
Y098094D02*
D03*
Y097594D02*
D03*
X079617Y101094D02*
D03*
Y100594D02*
D03*
Y100094D02*
D03*
Y099594D02*
D03*
Y099094D02*
D03*
Y098594D02*
D03*
Y098094D02*
D03*
Y097594D02*
D03*
X082372Y101094D02*
D03*
Y100594D02*
D03*
Y100094D02*
D03*
Y099594D02*
D03*
Y099094D02*
D03*
Y098594D02*
D03*
Y098094D02*
D03*
Y097594D02*
D03*
X123711Y101094D02*
D03*
Y100594D02*
D03*
Y100094D02*
D03*
Y099594D02*
D03*
Y099094D02*
D03*
Y098594D02*
D03*
Y098094D02*
D03*
Y097594D02*
D03*
X126467Y101094D02*
D03*
Y100594D02*
D03*
Y100094D02*
D03*
Y099594D02*
D03*
Y099094D02*
D03*
Y098594D02*
D03*
Y098094D02*
D03*
Y097594D02*
D03*
D101*
X039505Y051488D02*
D03*
Y050988D02*
D03*
Y050488D02*
D03*
Y049988D02*
D03*
Y049488D02*
D03*
Y048988D02*
D03*
Y048488D02*
D03*
Y047988D02*
D03*
X041395Y051488D02*
D03*
Y050988D02*
D03*
Y050488D02*
D03*
Y049988D02*
D03*
Y049488D02*
D03*
Y048988D02*
D03*
Y048488D02*
D03*
Y047988D02*
D03*
X083600Y051488D02*
D03*
Y050988D02*
D03*
Y050488D02*
D03*
Y049988D02*
D03*
Y049488D02*
D03*
Y048988D02*
D03*
Y048488D02*
D03*
Y047988D02*
D03*
X085489Y051488D02*
D03*
Y050988D02*
D03*
Y050488D02*
D03*
Y049988D02*
D03*
Y049488D02*
D03*
Y048988D02*
D03*
Y048488D02*
D03*
Y047988D02*
D03*
X127694Y051488D02*
D03*
Y050988D02*
D03*
Y050488D02*
D03*
Y049988D02*
D03*
Y049488D02*
D03*
Y048988D02*
D03*
Y048488D02*
D03*
Y047988D02*
D03*
X129584Y051488D02*
D03*
Y050988D02*
D03*
Y050488D02*
D03*
Y049988D02*
D03*
Y049488D02*
D03*
Y048988D02*
D03*
Y048488D02*
D03*
Y047988D02*
D03*
X039505Y076291D02*
D03*
Y075791D02*
D03*
Y075291D02*
D03*
Y074791D02*
D03*
Y074291D02*
D03*
Y073791D02*
D03*
Y073291D02*
D03*
Y072791D02*
D03*
X041395Y076291D02*
D03*
Y075791D02*
D03*
Y075291D02*
D03*
Y074791D02*
D03*
Y074291D02*
D03*
Y073791D02*
D03*
Y073291D02*
D03*
Y072791D02*
D03*
X083600Y076291D02*
D03*
Y075791D02*
D03*
Y075291D02*
D03*
Y074791D02*
D03*
Y074291D02*
D03*
Y073791D02*
D03*
Y073291D02*
D03*
Y072791D02*
D03*
X085489Y076291D02*
D03*
Y075791D02*
D03*
Y075291D02*
D03*
Y074791D02*
D03*
Y074291D02*
D03*
Y073791D02*
D03*
Y073291D02*
D03*
Y072791D02*
D03*
X127694Y076291D02*
D03*
Y075791D02*
D03*
Y075291D02*
D03*
Y074791D02*
D03*
Y074291D02*
D03*
Y073791D02*
D03*
Y073291D02*
D03*
Y072791D02*
D03*
X129584Y076291D02*
D03*
Y075791D02*
D03*
Y075291D02*
D03*
Y074791D02*
D03*
Y074291D02*
D03*
Y073791D02*
D03*
Y073291D02*
D03*
Y072791D02*
D03*
X039505Y101094D02*
D03*
Y100594D02*
D03*
Y100094D02*
D03*
Y099594D02*
D03*
Y099094D02*
D03*
Y098594D02*
D03*
Y098094D02*
D03*
Y097594D02*
D03*
X041395Y101094D02*
D03*
Y100594D02*
D03*
Y100094D02*
D03*
Y099594D02*
D03*
Y099094D02*
D03*
Y098594D02*
D03*
Y098094D02*
D03*
Y097594D02*
D03*
X083600Y101094D02*
D03*
Y100594D02*
D03*
Y100094D02*
D03*
Y099594D02*
D03*
Y099094D02*
D03*
Y098594D02*
D03*
Y098094D02*
D03*
Y097594D02*
D03*
X085489Y101094D02*
D03*
Y100594D02*
D03*
Y100094D02*
D03*
Y099594D02*
D03*
Y099094D02*
D03*
Y098594D02*
D03*
Y098094D02*
D03*
Y097594D02*
D03*
X127694Y101094D02*
D03*
Y100594D02*
D03*
Y100094D02*
D03*
Y099594D02*
D03*
Y099094D02*
D03*
Y098594D02*
D03*
Y098094D02*
D03*
Y097594D02*
D03*
X129584Y101094D02*
D03*
Y100594D02*
D03*
Y100094D02*
D03*
Y099594D02*
D03*
Y099094D02*
D03*
Y098594D02*
D03*
Y098094D02*
D03*
Y097594D02*
D03*
D102*
X012067Y043584D02*
D03*
X056161D02*
D03*
X100256D02*
D03*
X012067Y068387D02*
D03*
X056161D02*
D03*
X100256D02*
D03*
X012067Y093190D02*
D03*
X056161D02*
D03*
X100256D02*
D03*
D103*
X012067Y040041D02*
D03*
X056161D02*
D03*
X100256D02*
D03*
X012067Y064844D02*
D03*
X056161D02*
D03*
X100256D02*
D03*
X012067Y089647D02*
D03*
X056161D02*
D03*
X100256D02*
D03*
D104*
X014921Y041025D02*
D03*
Y042600D02*
D03*
X059016Y041025D02*
D03*
Y042600D02*
D03*
X103110Y041025D02*
D03*
Y042600D02*
D03*
X014921Y065828D02*
D03*
Y067403D02*
D03*
X059016Y065828D02*
D03*
Y067403D02*
D03*
X103110Y065828D02*
D03*
Y067403D02*
D03*
X014921Y090631D02*
D03*
Y092206D02*
D03*
X059016Y090631D02*
D03*
Y092206D02*
D03*
X103110Y090631D02*
D03*
Y092206D02*
D03*
D105*
X014232Y038859D02*
D03*
Y036340D02*
D03*
X058327Y038859D02*
D03*
Y036340D02*
D03*
X102421Y038859D02*
D03*
Y036340D02*
D03*
X014232Y063663D02*
D03*
Y061143D02*
D03*
X058327Y063663D02*
D03*
Y061143D02*
D03*
X102421Y063663D02*
D03*
Y061143D02*
D03*
X014232Y088466D02*
D03*
Y085946D02*
D03*
X058327Y088466D02*
D03*
Y085946D02*
D03*
X102421Y088466D02*
D03*
Y085946D02*
D03*
D106*
X041496Y044056D02*
D03*
Y043308D02*
D03*
X025178Y050227D02*
D03*
Y049479D02*
D03*
X085591Y044056D02*
D03*
Y043308D02*
D03*
X069272Y050227D02*
D03*
Y049479D02*
D03*
X129685Y044056D02*
D03*
Y043308D02*
D03*
X113367Y050227D02*
D03*
Y049479D02*
D03*
X041496Y068859D02*
D03*
Y068111D02*
D03*
X025178Y075030D02*
D03*
Y074282D02*
D03*
X085591Y068859D02*
D03*
Y068111D02*
D03*
X069272Y075030D02*
D03*
Y074282D02*
D03*
X129685Y068859D02*
D03*
Y068111D02*
D03*
X113367Y075030D02*
D03*
Y074282D02*
D03*
X041496Y093663D02*
D03*
Y092915D02*
D03*
X025178Y099833D02*
D03*
Y099085D02*
D03*
X085591Y093663D02*
D03*
Y092915D02*
D03*
X069272Y099833D02*
D03*
Y099085D02*
D03*
X129685Y093663D02*
D03*
Y092915D02*
D03*
X113367Y099833D02*
D03*
Y099085D02*
D03*
D107*
X028722Y049933D02*
D03*
X029470D02*
D03*
X029096Y050819D02*
D03*
X031634Y048357D02*
D03*
X030886D02*
D03*
X031260Y047472D02*
D03*
X033799Y048357D02*
D03*
X033051D02*
D03*
X033425Y047472D02*
D03*
X033051Y049952D02*
D03*
X033799D02*
D03*
X033425Y050838D02*
D03*
X030886Y049952D02*
D03*
X031634D02*
D03*
X031260Y050838D02*
D03*
X029094Y047472D02*
D03*
X028720Y048357D02*
D03*
X029469D02*
D03*
X072817Y049933D02*
D03*
X073565D02*
D03*
X073191Y050819D02*
D03*
X075728Y048357D02*
D03*
X074980D02*
D03*
X075354Y047472D02*
D03*
X077894Y048357D02*
D03*
X077146D02*
D03*
X077520Y047472D02*
D03*
X077146Y049952D02*
D03*
X077894D02*
D03*
X077520Y050838D02*
D03*
X074980Y049952D02*
D03*
X075728D02*
D03*
X075354Y050838D02*
D03*
X073189Y047472D02*
D03*
X072815Y048357D02*
D03*
X073563D02*
D03*
X116911Y049933D02*
D03*
X117659D02*
D03*
X117285Y050819D02*
D03*
X119823Y048357D02*
D03*
X119075D02*
D03*
X119449Y047472D02*
D03*
X121988Y048357D02*
D03*
X121240D02*
D03*
X121614Y047472D02*
D03*
X121240Y049952D02*
D03*
X121988D02*
D03*
X121614Y050838D02*
D03*
X119075Y049952D02*
D03*
X119823D02*
D03*
X119449Y050838D02*
D03*
X117283Y047472D02*
D03*
X116909Y048357D02*
D03*
X117657D02*
D03*
X028722Y074737D02*
D03*
X029470D02*
D03*
X029096Y075622D02*
D03*
X031634Y073161D02*
D03*
X030886D02*
D03*
X031260Y072275D02*
D03*
X033799Y073161D02*
D03*
X033051D02*
D03*
X033425Y072275D02*
D03*
X033051Y074755D02*
D03*
X033799D02*
D03*
X033425Y075641D02*
D03*
X030886Y074755D02*
D03*
X031634D02*
D03*
X031260Y075641D02*
D03*
X029094Y072275D02*
D03*
X028720Y073161D02*
D03*
X029469D02*
D03*
X072817Y074737D02*
D03*
X073565D02*
D03*
X073191Y075622D02*
D03*
X075728Y073161D02*
D03*
X074980D02*
D03*
X075354Y072275D02*
D03*
X077894Y073161D02*
D03*
X077146D02*
D03*
X077520Y072275D02*
D03*
X077146Y074755D02*
D03*
X077894D02*
D03*
X077520Y075641D02*
D03*
X074980Y074755D02*
D03*
X075728D02*
D03*
X075354Y075641D02*
D03*
X073189Y072275D02*
D03*
X072815Y073161D02*
D03*
X073563D02*
D03*
X116911Y074737D02*
D03*
X117659D02*
D03*
X117285Y075622D02*
D03*
X119823Y073161D02*
D03*
X119075D02*
D03*
X119449Y072275D02*
D03*
X121988Y073161D02*
D03*
X121240D02*
D03*
X121614Y072275D02*
D03*
X121240Y074755D02*
D03*
X121988D02*
D03*
X121614Y075641D02*
D03*
X119075Y074755D02*
D03*
X119823D02*
D03*
X119449Y075641D02*
D03*
X117283Y072275D02*
D03*
X116909Y073161D02*
D03*
X117657D02*
D03*
X028722Y099540D02*
D03*
X029470D02*
D03*
X029096Y100426D02*
D03*
X031634Y097964D02*
D03*
X030886D02*
D03*
X031260Y097078D02*
D03*
X033799Y097964D02*
D03*
X033051D02*
D03*
X033425Y097078D02*
D03*
X033051Y099558D02*
D03*
X033799D02*
D03*
X033425Y100444D02*
D03*
X030886Y099558D02*
D03*
X031634D02*
D03*
X031260Y100444D02*
D03*
X029094Y097078D02*
D03*
X028720Y097964D02*
D03*
X029469D02*
D03*
X072817Y099540D02*
D03*
X073565D02*
D03*
X073191Y100426D02*
D03*
X075728Y097964D02*
D03*
X074980D02*
D03*
X075354Y097078D02*
D03*
X077894Y097964D02*
D03*
X077146D02*
D03*
X077520Y097078D02*
D03*
X077146Y099558D02*
D03*
X077894D02*
D03*
X077520Y100444D02*
D03*
X074980Y099558D02*
D03*
X075728D02*
D03*
X075354Y100444D02*
D03*
X073189Y097078D02*
D03*
X072815Y097964D02*
D03*
X073563D02*
D03*
X116911Y099540D02*
D03*
X117659D02*
D03*
X117285Y100426D02*
D03*
X119823Y097964D02*
D03*
X119075D02*
D03*
X119449Y097078D02*
D03*
X121988Y097964D02*
D03*
X121240D02*
D03*
X121614Y097078D02*
D03*
X121240Y099558D02*
D03*
X121988D02*
D03*
X121614Y100444D02*
D03*
X119075Y099558D02*
D03*
X119823D02*
D03*
X119449Y100444D02*
D03*
X117283Y097078D02*
D03*
X116909Y097964D02*
D03*
X117657D02*
D03*
D108*
X016693Y052107D02*
D03*
Y051005D02*
D03*
X022158Y049196D02*
D03*
Y050298D02*
D03*
X015610Y051005D02*
D03*
Y052107D02*
D03*
X023158Y049176D02*
D03*
Y050278D02*
D03*
X012441Y052796D02*
D03*
Y051694D02*
D03*
X024228Y049196D02*
D03*
Y050298D02*
D03*
X012318Y047908D02*
D03*
Y046806D02*
D03*
X046938Y038420D02*
D03*
Y037317D02*
D03*
X049000Y049387D02*
D03*
Y050489D02*
D03*
X042776Y043535D02*
D03*
Y042432D02*
D03*
X049656Y043781D02*
D03*
Y042678D02*
D03*
X060787Y052107D02*
D03*
Y051005D02*
D03*
X066252Y049196D02*
D03*
Y050298D02*
D03*
X059705Y051005D02*
D03*
Y052107D02*
D03*
X067252Y049176D02*
D03*
Y050278D02*
D03*
X056535Y052796D02*
D03*
Y051694D02*
D03*
X068322Y049196D02*
D03*
Y050298D02*
D03*
X056412Y047908D02*
D03*
Y046806D02*
D03*
X091032Y038420D02*
D03*
Y037317D02*
D03*
X093094Y049387D02*
D03*
Y050489D02*
D03*
X086870Y043535D02*
D03*
Y042432D02*
D03*
X093750Y043781D02*
D03*
Y042678D02*
D03*
X104882Y052107D02*
D03*
Y051005D02*
D03*
X110347Y049196D02*
D03*
Y050298D02*
D03*
X103799Y051005D02*
D03*
Y052107D02*
D03*
X111347Y049176D02*
D03*
Y050278D02*
D03*
X100630Y052796D02*
D03*
Y051694D02*
D03*
X112417Y049196D02*
D03*
Y050298D02*
D03*
X100507Y047908D02*
D03*
Y046806D02*
D03*
X135127Y038420D02*
D03*
Y037317D02*
D03*
X137189Y049387D02*
D03*
Y050489D02*
D03*
X130965Y043535D02*
D03*
Y042432D02*
D03*
X137844Y043781D02*
D03*
Y042678D02*
D03*
X016693Y076911D02*
D03*
Y075808D02*
D03*
X022158Y073999D02*
D03*
Y075101D02*
D03*
X015610Y075808D02*
D03*
Y076911D02*
D03*
X023158Y073979D02*
D03*
Y075081D02*
D03*
X012441Y077600D02*
D03*
Y076497D02*
D03*
X024228Y073999D02*
D03*
Y075101D02*
D03*
X012318Y072712D02*
D03*
Y071609D02*
D03*
X046938Y063223D02*
D03*
Y062120D02*
D03*
X049000Y074190D02*
D03*
Y075293D02*
D03*
X042776Y068338D02*
D03*
Y067235D02*
D03*
X049656Y068584D02*
D03*
Y067481D02*
D03*
X060787Y076911D02*
D03*
Y075808D02*
D03*
X066252Y073999D02*
D03*
Y075101D02*
D03*
X059705Y075808D02*
D03*
Y076911D02*
D03*
X067252Y073979D02*
D03*
Y075081D02*
D03*
X056535Y077600D02*
D03*
Y076497D02*
D03*
X068322Y073999D02*
D03*
Y075101D02*
D03*
X056412Y072712D02*
D03*
Y071609D02*
D03*
X091032Y063223D02*
D03*
Y062120D02*
D03*
X093094Y074190D02*
D03*
Y075293D02*
D03*
X086870Y068338D02*
D03*
Y067235D02*
D03*
X093750Y068584D02*
D03*
Y067481D02*
D03*
X104882Y076911D02*
D03*
Y075808D02*
D03*
X110347Y073999D02*
D03*
Y075101D02*
D03*
X103799Y075808D02*
D03*
Y076911D02*
D03*
X111347Y073979D02*
D03*
Y075081D02*
D03*
X100630Y077600D02*
D03*
Y076497D02*
D03*
X112417Y073999D02*
D03*
Y075101D02*
D03*
X100507Y072712D02*
D03*
Y071609D02*
D03*
X135127Y063223D02*
D03*
Y062120D02*
D03*
X137189Y074190D02*
D03*
Y075293D02*
D03*
X130965Y068338D02*
D03*
Y067235D02*
D03*
X137844Y068584D02*
D03*
Y067481D02*
D03*
X016693Y101714D02*
D03*
Y100611D02*
D03*
X022158Y098802D02*
D03*
Y099905D02*
D03*
X015610Y100611D02*
D03*
Y101714D02*
D03*
X023158Y098782D02*
D03*
Y099885D02*
D03*
X012441Y102403D02*
D03*
Y101300D02*
D03*
X024228Y098802D02*
D03*
Y099905D02*
D03*
X012318Y097515D02*
D03*
Y096412D02*
D03*
X046938Y088026D02*
D03*
Y086923D02*
D03*
X049000Y098993D02*
D03*
Y100096D02*
D03*
X042776Y093141D02*
D03*
Y092039D02*
D03*
X049656Y093387D02*
D03*
Y092285D02*
D03*
X060787Y101714D02*
D03*
Y100611D02*
D03*
X066252Y098802D02*
D03*
Y099905D02*
D03*
X059705Y100611D02*
D03*
Y101714D02*
D03*
X067252Y098782D02*
D03*
Y099885D02*
D03*
X056535Y102403D02*
D03*
Y101300D02*
D03*
X068322Y098802D02*
D03*
Y099905D02*
D03*
X056412Y097515D02*
D03*
Y096412D02*
D03*
X091032Y088026D02*
D03*
Y086923D02*
D03*
X093094Y098993D02*
D03*
Y100096D02*
D03*
X086870Y093141D02*
D03*
Y092039D02*
D03*
X093750Y093387D02*
D03*
Y092285D02*
D03*
X104882Y101714D02*
D03*
Y100611D02*
D03*
X110347Y098802D02*
D03*
Y099905D02*
D03*
X103799Y100611D02*
D03*
Y101714D02*
D03*
X111347Y098782D02*
D03*
Y099885D02*
D03*
X100630Y102403D02*
D03*
Y101300D02*
D03*
X112417Y098802D02*
D03*
Y099905D02*
D03*
X100507Y097515D02*
D03*
Y096412D02*
D03*
X135127Y088026D02*
D03*
Y086923D02*
D03*
X137189Y098993D02*
D03*
Y100096D02*
D03*
X130965Y093141D02*
D03*
Y092039D02*
D03*
X137844Y093387D02*
D03*
Y092285D02*
D03*
D109*
X043878Y051936D02*
D03*
Y051436D02*
D03*
Y050936D02*
D03*
Y050436D02*
D03*
Y049936D02*
D03*
Y049436D02*
D03*
Y048936D02*
D03*
Y048436D02*
D03*
Y047936D02*
D03*
Y047436D02*
D03*
X047776Y051936D02*
D03*
Y051436D02*
D03*
Y050936D02*
D03*
Y050436D02*
D03*
Y049936D02*
D03*
Y049436D02*
D03*
Y048936D02*
D03*
Y048436D02*
D03*
Y047936D02*
D03*
Y047436D02*
D03*
X087972Y051936D02*
D03*
Y051436D02*
D03*
Y050936D02*
D03*
Y050436D02*
D03*
Y049936D02*
D03*
Y049436D02*
D03*
Y048936D02*
D03*
Y048436D02*
D03*
Y047936D02*
D03*
Y047436D02*
D03*
X091870Y051936D02*
D03*
Y051436D02*
D03*
Y050936D02*
D03*
Y050436D02*
D03*
Y049936D02*
D03*
Y049436D02*
D03*
Y048936D02*
D03*
Y048436D02*
D03*
Y047936D02*
D03*
Y047436D02*
D03*
X132067Y051936D02*
D03*
Y051436D02*
D03*
Y050936D02*
D03*
Y050436D02*
D03*
Y049936D02*
D03*
Y049436D02*
D03*
Y048936D02*
D03*
Y048436D02*
D03*
Y047936D02*
D03*
Y047436D02*
D03*
X135965Y051936D02*
D03*
Y051436D02*
D03*
Y050936D02*
D03*
Y050436D02*
D03*
Y049936D02*
D03*
Y049436D02*
D03*
Y048936D02*
D03*
Y048436D02*
D03*
Y047936D02*
D03*
Y047436D02*
D03*
X043878Y076739D02*
D03*
Y076239D02*
D03*
Y075739D02*
D03*
Y075239D02*
D03*
Y074739D02*
D03*
Y074239D02*
D03*
Y073739D02*
D03*
Y073239D02*
D03*
Y072739D02*
D03*
Y072239D02*
D03*
X047776Y076739D02*
D03*
Y076239D02*
D03*
Y075739D02*
D03*
Y075239D02*
D03*
Y074739D02*
D03*
Y074239D02*
D03*
Y073739D02*
D03*
Y073239D02*
D03*
Y072739D02*
D03*
Y072239D02*
D03*
X087972Y076739D02*
D03*
Y076239D02*
D03*
Y075739D02*
D03*
Y075239D02*
D03*
Y074739D02*
D03*
Y074239D02*
D03*
Y073739D02*
D03*
Y073239D02*
D03*
Y072739D02*
D03*
Y072239D02*
D03*
X091870Y076739D02*
D03*
Y076239D02*
D03*
Y075739D02*
D03*
Y075239D02*
D03*
Y074739D02*
D03*
Y074239D02*
D03*
Y073739D02*
D03*
Y073239D02*
D03*
Y072739D02*
D03*
Y072239D02*
D03*
X132067Y076739D02*
D03*
Y076239D02*
D03*
Y075739D02*
D03*
Y075239D02*
D03*
Y074739D02*
D03*
Y074239D02*
D03*
Y073739D02*
D03*
Y073239D02*
D03*
Y072739D02*
D03*
Y072239D02*
D03*
X135965Y076739D02*
D03*
Y076239D02*
D03*
Y075739D02*
D03*
Y075239D02*
D03*
Y074739D02*
D03*
Y074239D02*
D03*
Y073739D02*
D03*
Y073239D02*
D03*
Y072739D02*
D03*
Y072239D02*
D03*
X043878Y101543D02*
D03*
Y101043D02*
D03*
Y100543D02*
D03*
Y100043D02*
D03*
Y099543D02*
D03*
Y099043D02*
D03*
Y098543D02*
D03*
Y098043D02*
D03*
Y097543D02*
D03*
Y097043D02*
D03*
X047776Y101543D02*
D03*
Y101043D02*
D03*
Y100543D02*
D03*
Y100043D02*
D03*
Y099543D02*
D03*
Y099043D02*
D03*
Y098543D02*
D03*
Y098043D02*
D03*
Y097543D02*
D03*
Y097043D02*
D03*
X087972Y101543D02*
D03*
Y101043D02*
D03*
Y100543D02*
D03*
Y100043D02*
D03*
Y099543D02*
D03*
Y099043D02*
D03*
Y098543D02*
D03*
Y098043D02*
D03*
Y097543D02*
D03*
Y097043D02*
D03*
X091870Y101543D02*
D03*
Y101043D02*
D03*
Y100543D02*
D03*
Y100043D02*
D03*
Y099543D02*
D03*
Y099043D02*
D03*
Y098543D02*
D03*
Y098043D02*
D03*
Y097543D02*
D03*
Y097043D02*
D03*
X132067Y101543D02*
D03*
Y101043D02*
D03*
Y100543D02*
D03*
Y100043D02*
D03*
Y099543D02*
D03*
Y099043D02*
D03*
Y098543D02*
D03*
Y098043D02*
D03*
Y097543D02*
D03*
Y097043D02*
D03*
X135965Y101543D02*
D03*
Y101043D02*
D03*
Y100543D02*
D03*
Y100043D02*
D03*
Y099543D02*
D03*
Y099043D02*
D03*
Y098543D02*
D03*
Y098043D02*
D03*
Y097543D02*
D03*
Y097043D02*
D03*
D110*
X046328Y039848D02*
D03*
X045580D02*
D03*
X090423D02*
D03*
X089674D02*
D03*
X134517D02*
D03*
X133769D02*
D03*
X046328Y064651D02*
D03*
X045580D02*
D03*
X090423D02*
D03*
X089674D02*
D03*
X134517D02*
D03*
X133769D02*
D03*
X046328Y089454D02*
D03*
X045580D02*
D03*
X090423D02*
D03*
X089674D02*
D03*
X134517D02*
D03*
X133769D02*
D03*
D111*
X016680Y044598D02*
D03*
X019200D02*
D03*
X060775D02*
D03*
X063294D02*
D03*
X104869D02*
D03*
X107389D02*
D03*
X016680Y069401D02*
D03*
X019200D02*
D03*
X060775D02*
D03*
X063294D02*
D03*
X104869D02*
D03*
X107389D02*
D03*
X016680Y094205D02*
D03*
X019200D02*
D03*
X060775D02*
D03*
X063294D02*
D03*
X104869D02*
D03*
X107389D02*
D03*
D112*
X018112Y042836D02*
D03*
X017612D02*
D03*
X017112D02*
D03*
X016612D02*
D03*
X018112Y040867D02*
D03*
X017612D02*
D03*
X017112D02*
D03*
X016612D02*
D03*
X062207Y042836D02*
D03*
X061707D02*
D03*
X061207D02*
D03*
X060707D02*
D03*
X062207Y040867D02*
D03*
X061707D02*
D03*
X061207D02*
D03*
X060707D02*
D03*
X106301Y042836D02*
D03*
X105801D02*
D03*
X105301D02*
D03*
X104801D02*
D03*
X106301Y040867D02*
D03*
X105801D02*
D03*
X105301D02*
D03*
X104801D02*
D03*
X018112Y067639D02*
D03*
X017612D02*
D03*
X017112D02*
D03*
X016612D02*
D03*
X018112Y065670D02*
D03*
X017612D02*
D03*
X017112D02*
D03*
X016612D02*
D03*
X062207Y067639D02*
D03*
X061707D02*
D03*
X061207D02*
D03*
X060707D02*
D03*
X062207Y065670D02*
D03*
X061707D02*
D03*
X061207D02*
D03*
X060707D02*
D03*
X106301Y067639D02*
D03*
X105801D02*
D03*
X105301D02*
D03*
X104801D02*
D03*
X106301Y065670D02*
D03*
X105801D02*
D03*
X105301D02*
D03*
X104801D02*
D03*
X018112Y092442D02*
D03*
X017612D02*
D03*
X017112D02*
D03*
X016612D02*
D03*
X018112Y090474D02*
D03*
X017612D02*
D03*
X017112D02*
D03*
X016612D02*
D03*
X062207Y092442D02*
D03*
X061707D02*
D03*
X061207D02*
D03*
X060707D02*
D03*
X062207Y090474D02*
D03*
X061707D02*
D03*
X061207D02*
D03*
X060707D02*
D03*
X106301Y092442D02*
D03*
X105801D02*
D03*
X105301D02*
D03*
X104801D02*
D03*
X106301Y090474D02*
D03*
X105801D02*
D03*
X105301D02*
D03*
X104801D02*
D03*
D113*
X012218Y048886D02*
D03*
Y049988D02*
D03*
X056312Y048886D02*
D03*
Y049988D02*
D03*
X100407Y048886D02*
D03*
Y049988D02*
D03*
X012218Y073689D02*
D03*
Y074791D02*
D03*
X056312Y073689D02*
D03*
Y074791D02*
D03*
X100407Y073689D02*
D03*
Y074791D02*
D03*
X012218Y098492D02*
D03*
Y099595D02*
D03*
X056312Y098492D02*
D03*
Y099595D02*
D03*
X100407Y098492D02*
D03*
Y099595D02*
D03*
D114*
X017550Y046474D02*
D03*
Y049663D02*
D03*
X061644Y046474D02*
D03*
Y049663D02*
D03*
X105739Y046474D02*
D03*
Y049663D02*
D03*
X017550Y071277D02*
D03*
Y074466D02*
D03*
X061644Y071277D02*
D03*
Y074466D02*
D03*
X105739Y071277D02*
D03*
Y074466D02*
D03*
X017550Y096080D02*
D03*
Y099269D02*
D03*
X061644Y096080D02*
D03*
Y099269D02*
D03*
X105739Y096080D02*
D03*
Y099269D02*
D03*
D115*
X010986Y106773D02*
D03*
X139333D02*
D03*
Y029607D02*
D03*
X010986D02*
D03*
D116*
X034004Y046104D02*
D03*
X033004D02*
D03*
X032004D02*
D03*
X031004D02*
D03*
X030004D02*
D03*
X029004D02*
D03*
X028004D02*
D03*
X034004Y052104D02*
D03*
X033004D02*
D03*
X032004D02*
D03*
X031004D02*
D03*
X030004D02*
D03*
X029004D02*
D03*
X028004D02*
D03*
X078098Y046104D02*
D03*
X077098D02*
D03*
X076098D02*
D03*
X075098D02*
D03*
X074098D02*
D03*
X073098D02*
D03*
X072098D02*
D03*
X078098Y052104D02*
D03*
X077098D02*
D03*
X076098D02*
D03*
X075098D02*
D03*
X074098D02*
D03*
X073098D02*
D03*
X072098D02*
D03*
X122193Y046104D02*
D03*
X121193D02*
D03*
X120193D02*
D03*
X119193D02*
D03*
X118193D02*
D03*
X117193D02*
D03*
X116193D02*
D03*
X122193Y052104D02*
D03*
X121193D02*
D03*
X120193D02*
D03*
X119193D02*
D03*
X118193D02*
D03*
X117193D02*
D03*
X116193D02*
D03*
X034004Y070907D02*
D03*
X033004D02*
D03*
X032004D02*
D03*
X031004D02*
D03*
X030004D02*
D03*
X029004D02*
D03*
X028004D02*
D03*
X034004Y076907D02*
D03*
X033004D02*
D03*
X032004D02*
D03*
X031004D02*
D03*
X030004D02*
D03*
X029004D02*
D03*
X028004D02*
D03*
X078098Y070907D02*
D03*
X077098D02*
D03*
X076098D02*
D03*
X075098D02*
D03*
X074098D02*
D03*
X073098D02*
D03*
X072098D02*
D03*
X078098Y076907D02*
D03*
X077098D02*
D03*
X076098D02*
D03*
X075098D02*
D03*
X074098D02*
D03*
X073098D02*
D03*
X072098D02*
D03*
X122193Y070907D02*
D03*
X121193D02*
D03*
X120193D02*
D03*
X119193D02*
D03*
X118193D02*
D03*
X117193D02*
D03*
X116193D02*
D03*
X122193Y076907D02*
D03*
X121193D02*
D03*
X120193D02*
D03*
X119193D02*
D03*
X118193D02*
D03*
X117193D02*
D03*
X116193D02*
D03*
X034004Y095710D02*
D03*
X033004D02*
D03*
X032004D02*
D03*
X031004D02*
D03*
X030004D02*
D03*
X029004D02*
D03*
X028004D02*
D03*
X034004Y101710D02*
D03*
X033004D02*
D03*
X032004D02*
D03*
X031004D02*
D03*
X030004D02*
D03*
X029004D02*
D03*
X028004D02*
D03*
X078098Y095710D02*
D03*
X077098D02*
D03*
X076098D02*
D03*
X075098D02*
D03*
X074098D02*
D03*
X073098D02*
D03*
X072098D02*
D03*
X078098Y101710D02*
D03*
X077098D02*
D03*
X076098D02*
D03*
X075098D02*
D03*
X074098D02*
D03*
X073098D02*
D03*
X072098D02*
D03*
X122193Y095710D02*
D03*
X121193D02*
D03*
X120193D02*
D03*
X119193D02*
D03*
X118193D02*
D03*
X117193D02*
D03*
X116193D02*
D03*
X122193Y101710D02*
D03*
X121193D02*
D03*
X120193D02*
D03*
X119193D02*
D03*
X118193D02*
D03*
X117193D02*
D03*
X116193D02*
D03*
D117*
X020799Y042501D02*
D03*
X021799D02*
D03*
X022799D02*
D03*
X023799D02*
D03*
X024799D02*
D03*
X025799D02*
D03*
X026799D02*
D03*
X027799D02*
D03*
X028799D02*
D03*
X030965D02*
D03*
X031965D02*
D03*
X032965D02*
D03*
X033965D02*
D03*
X034965D02*
D03*
X035965D02*
D03*
X036965D02*
D03*
X037965D02*
D03*
X038965D02*
D03*
X064894D02*
D03*
X065894D02*
D03*
X066894D02*
D03*
X067894D02*
D03*
X068894D02*
D03*
X069894D02*
D03*
X070894D02*
D03*
X071894D02*
D03*
X072894D02*
D03*
X075059D02*
D03*
X076059D02*
D03*
X077059D02*
D03*
X078059D02*
D03*
X079059D02*
D03*
X080059D02*
D03*
X081059D02*
D03*
X082059D02*
D03*
X083059D02*
D03*
X108988D02*
D03*
X109988D02*
D03*
X110988D02*
D03*
X111988D02*
D03*
X112988D02*
D03*
X113988D02*
D03*
X114988D02*
D03*
X115988D02*
D03*
X116988D02*
D03*
X119154D02*
D03*
X120154D02*
D03*
X121154D02*
D03*
X122154D02*
D03*
X123154D02*
D03*
X124154D02*
D03*
X125154D02*
D03*
X126154D02*
D03*
X127154D02*
D03*
X020799Y067304D02*
D03*
X021799D02*
D03*
X022799D02*
D03*
X023799D02*
D03*
X024799D02*
D03*
X025799D02*
D03*
X026799D02*
D03*
X027799D02*
D03*
X028799D02*
D03*
X030965D02*
D03*
X031965D02*
D03*
X032965D02*
D03*
X033965D02*
D03*
X034965D02*
D03*
X035965D02*
D03*
X036965D02*
D03*
X037965D02*
D03*
X038965D02*
D03*
X064894D02*
D03*
X065894D02*
D03*
X066894D02*
D03*
X067894D02*
D03*
X068894D02*
D03*
X069894D02*
D03*
X070894D02*
D03*
X071894D02*
D03*
X072894D02*
D03*
X075059D02*
D03*
X076059D02*
D03*
X077059D02*
D03*
X078059D02*
D03*
X079059D02*
D03*
X080059D02*
D03*
X081059D02*
D03*
X082059D02*
D03*
X083059D02*
D03*
X108988D02*
D03*
X109988D02*
D03*
X110988D02*
D03*
X111988D02*
D03*
X112988D02*
D03*
X113988D02*
D03*
X114988D02*
D03*
X115988D02*
D03*
X116988D02*
D03*
X119154D02*
D03*
X120154D02*
D03*
X121154D02*
D03*
X122154D02*
D03*
X123154D02*
D03*
X124154D02*
D03*
X125154D02*
D03*
X126154D02*
D03*
X127154D02*
D03*
X020799Y092107D02*
D03*
X021799D02*
D03*
X022799D02*
D03*
X023799D02*
D03*
X024799D02*
D03*
X025799D02*
D03*
X026799D02*
D03*
X027799D02*
D03*
X028799D02*
D03*
X030965D02*
D03*
X031965D02*
D03*
X032965D02*
D03*
X033965D02*
D03*
X034965D02*
D03*
X035965D02*
D03*
X036965D02*
D03*
X037965D02*
D03*
X038965D02*
D03*
X064894D02*
D03*
X065894D02*
D03*
X066894D02*
D03*
X067894D02*
D03*
X068894D02*
D03*
X069894D02*
D03*
X070894D02*
D03*
X071894D02*
D03*
X072894D02*
D03*
X075059D02*
D03*
X076059D02*
D03*
X077059D02*
D03*
X078059D02*
D03*
X079059D02*
D03*
X080059D02*
D03*
X081059D02*
D03*
X082059D02*
D03*
X083059D02*
D03*
X108988D02*
D03*
X109988D02*
D03*
X110988D02*
D03*
X111988D02*
D03*
X112988D02*
D03*
X113988D02*
D03*
X114988D02*
D03*
X115988D02*
D03*
X116988D02*
D03*
X119154D02*
D03*
X120154D02*
D03*
X121154D02*
D03*
X122154D02*
D03*
X123154D02*
D03*
X124154D02*
D03*
X125154D02*
D03*
X126154D02*
D03*
X127154D02*
D03*
D118*
X029799Y042501D02*
D03*
X039965D02*
D03*
X073894D02*
D03*
X084059D02*
D03*
X117988D02*
D03*
X128154D02*
D03*
X029799Y067304D02*
D03*
X039965D02*
D03*
X073894D02*
D03*
X084059D02*
D03*
X117988D02*
D03*
X128154D02*
D03*
X029799Y092107D02*
D03*
X039965D02*
D03*
X073894D02*
D03*
X084059D02*
D03*
X117988D02*
D03*
X128154D02*
D03*
D119*
X051500Y053438D02*
D03*
X010500D02*
D03*
Y045938D02*
D03*
X095594Y053438D02*
D03*
X054594D02*
D03*
Y045938D02*
D03*
X139689Y053438D02*
D03*
X098689D02*
D03*
Y045938D02*
D03*
X051500Y078241D02*
D03*
X010500D02*
D03*
Y070741D02*
D03*
X095594Y078241D02*
D03*
X054594D02*
D03*
Y070741D02*
D03*
X139689Y078241D02*
D03*
X098689D02*
D03*
Y070741D02*
D03*
X051500Y103044D02*
D03*
X010500D02*
D03*
Y095544D02*
D03*
X095594Y103044D02*
D03*
X054594D02*
D03*
Y095544D02*
D03*
X139689Y103044D02*
D03*
X098689D02*
D03*
Y095544D02*
D03*
D120*
X040488Y046267D02*
D03*
X084582D02*
D03*
X128677D02*
D03*
X040488Y071070D02*
D03*
X084582D02*
D03*
X128677D02*
D03*
X040488Y095873D02*
D03*
X084582D02*
D03*
X128677D02*
D03*
D121*
X039488Y046267D02*
D03*
X038488D02*
D03*
X037488D02*
D03*
X036488D02*
D03*
X035488D02*
D03*
X083582D02*
D03*
X082582D02*
D03*
X081582D02*
D03*
X080582D02*
D03*
X079582D02*
D03*
X127677D02*
D03*
X126677D02*
D03*
X125677D02*
D03*
X124677D02*
D03*
X123677D02*
D03*
X039488Y071070D02*
D03*
X038488D02*
D03*
X037488D02*
D03*
X036488D02*
D03*
X035488D02*
D03*
X083582D02*
D03*
X082582D02*
D03*
X081582D02*
D03*
X080582D02*
D03*
X079582D02*
D03*
X127677D02*
D03*
X126677D02*
D03*
X125677D02*
D03*
X124677D02*
D03*
X123677D02*
D03*
X039488Y095873D02*
D03*
X038488D02*
D03*
X037488D02*
D03*
X036488D02*
D03*
X035488D02*
D03*
X083582D02*
D03*
X082582D02*
D03*
X081582D02*
D03*
X080582D02*
D03*
X079582D02*
D03*
X127677D02*
D03*
X126677D02*
D03*
X125677D02*
D03*
X124677D02*
D03*
X123677D02*
D03*
D122*
X042628Y052317D02*
D03*
X019502Y051507D02*
D03*
X086722Y052317D02*
D03*
X063597Y051507D02*
D03*
X130817Y052317D02*
D03*
X107691Y051507D02*
D03*
X042628Y077120D02*
D03*
X019502Y076310D02*
D03*
X086722Y077120D02*
D03*
X063597Y076310D02*
D03*
X130817Y077120D02*
D03*
X107691Y076310D02*
D03*
X042628Y101923D02*
D03*
X019502Y101113D02*
D03*
X086722Y101923D02*
D03*
X063597Y101113D02*
D03*
X130817Y101923D02*
D03*
X107691Y101113D02*
D03*
D123*
X042628Y051317D02*
D03*
X019502Y052507D02*
D03*
X086722Y051317D02*
D03*
X063597Y052507D02*
D03*
X130817Y051317D02*
D03*
X107691Y052507D02*
D03*
X042628Y076120D02*
D03*
X019502Y077310D02*
D03*
X086722Y076120D02*
D03*
X063597Y077310D02*
D03*
X130817Y076120D02*
D03*
X107691Y077310D02*
D03*
X042628Y100923D02*
D03*
X019502Y102113D02*
D03*
X086722Y100923D02*
D03*
X063597Y102113D02*
D03*
X130817Y100923D02*
D03*
X107691Y102113D02*
D03*
D124*
X010688Y039103D02*
D03*
X012026Y034654D02*
D03*
X054782Y039103D02*
D03*
X056121Y034654D02*
D03*
X098877Y039103D02*
D03*
X100215Y034654D02*
D03*
X010688Y063906D02*
D03*
X012026Y059457D02*
D03*
X054782Y063906D02*
D03*
X056121Y059457D02*
D03*
X098877Y063906D02*
D03*
X100215Y059457D02*
D03*
X010688Y088709D02*
D03*
X012026Y084260D02*
D03*
X054782Y088709D02*
D03*
X056121Y084260D02*
D03*
X098877Y088709D02*
D03*
X100215Y084260D02*
D03*
D125*
X011160Y037882D02*
D03*
Y036898D02*
D03*
Y035914D02*
D03*
X055254Y037882D02*
D03*
Y036898D02*
D03*
Y035914D02*
D03*
X099349Y037882D02*
D03*
Y036898D02*
D03*
Y035914D02*
D03*
X011160Y062686D02*
D03*
Y061701D02*
D03*
Y060717D02*
D03*
X055254Y062686D02*
D03*
Y061701D02*
D03*
Y060717D02*
D03*
X099349Y062686D02*
D03*
Y061701D02*
D03*
Y060717D02*
D03*
X011160Y087489D02*
D03*
Y086504D02*
D03*
Y085520D02*
D03*
X055254Y087489D02*
D03*
Y086504D02*
D03*
Y085520D02*
D03*
X099349Y087489D02*
D03*
Y086504D02*
D03*
Y085520D02*
D03*
D126*
X016938Y053267D02*
D03*
X061032D02*
D03*
X105127D02*
D03*
X016938Y078070D02*
D03*
X061032D02*
D03*
X105127D02*
D03*
X016938Y102873D02*
D03*
X061032D02*
D03*
X105127D02*
D03*
M02*
