M48
;Layer_Color=9474304
;FILE_FORMAT=2:4
INCH
;TYPE=PLATED
T1F00S00C0.0118
T2F00S00C0.0197
T3F00S00C0.0236
T4F00S00C0.0280
T5F00S00C0.0300
T6F00S00C0.0354
T7F00S00C0.0472
T8F00S00C0.1250
%
T01
X012990Y036068
X013642Y037482
X014528
X014449Y039844
X015315Y039942
Y039253
X015945Y039647
X016024Y040474
X016530Y040098
X016280Y043008
X018189Y043899
X019618Y042357
X019134Y041497
X021324Y044108
X016299Y046832
X028799Y043782
X035570Y044028
X034828Y045887
X037460Y043288
X038850Y044352
X041025Y043387
X040897Y042561
X040886Y042078
X041820Y042728
X042520Y042088
X042913Y041802
X044401Y041655
X045149Y041616
X045868Y041724
X046596Y041379
X045120Y042708
X044864Y043299
X044569Y043781
X045002Y044687
X043830Y045189
X041694Y045277
X042760Y043888
X046094Y044106
X046567Y044214
X045947Y046547
X045160Y039828
X044734Y040070
X047008Y040041
X047818Y039357
X048620Y039518
X049208Y039127
X049826Y039237
X050190Y038988
X050568Y039267
X050298Y039657
X050783Y039971
X050520Y040878
X050050Y041308
X049260Y040918
X048681Y040739
X048800Y041628
X048978Y042758
X050364Y042678
X050276Y043682
X049760Y044968
X048189Y045356
X047640Y046153
X047146Y046192
X046930Y044519
X047295Y043565
X047010Y041980
X051230Y041458
X052030Y040778
X052050Y039978
X052485Y037513
X047668Y037677
X057736Y037482
X058622
X058543Y039844
X059409Y039942
Y039253
X060039Y039647
X060118Y040474
X060624Y040098
X060374Y043008
X062283Y043899
X060394Y046832
X052550Y043088
X057084Y036068
X063228Y041497
X063712Y042357
X065419Y044108
X072894Y043782
X079664Y044028
X078922Y045887
X081554Y043288
X082944Y044352
X085120Y043387
X084992Y042561
X084980Y042078
X085914Y042728
X086615Y042088
X087008Y041802
X088496Y041655
X089244Y041616
X089962Y041724
X090691Y041379
X091104Y041980
X091390Y043565
X091025Y044519
X090661Y044214
X090189Y044106
X089096Y044687
X088663Y043781
X088958Y043299
X089214Y042708
X089254Y039828
X088828Y040070
X091102Y040041
X091912Y039357
X092714Y039518
X093302Y039127
X093354Y040918
X092776Y040739
X092894Y041628
X093073Y042758
X092283Y045356
X091734Y046153
X091240Y046192
X090041Y046547
X087925Y045189
X085789Y045277
X086854Y043888
X091762Y037677
X093920Y039237
X094284Y038988
X094662Y039267
X094392Y039657
X094878Y039971
X094614Y040878
X094144Y041308
X095324Y041458
X096124Y040778
X096144Y039978
X096579Y037513
X101831Y037482
X102717
X102638Y039844
X103504Y039942
Y039253
X104134Y039647
X104213Y040474
X104719Y040098
X104469Y043008
X106378Y043899
X107807Y042357
X107323Y041497
X104488Y046832
X096644Y043088
X094459Y042678
X094370Y043682
X093854Y044968
X101179Y036068
X109513Y044108
X116988Y043782
X123759Y044028
X123017Y045887
X125649Y043288
X127039Y044352
X129214Y043387
X129086Y042561
X129075Y042078
X130009Y042728
X130709Y042088
X131102Y041802
X132590Y041655
X133338Y041616
X134057Y041724
X134785Y041379
X135199Y041980
X135484Y043565
X135119Y044519
X134756Y044214
X134283Y044106
X133191Y044687
X132758Y043781
X133053Y043299
X133309Y042708
X133349Y039828
X132923Y040070
X135197Y040041
X136007Y039357
X136809Y039518
X137397Y039127
X138015Y039237
X138379Y038988
X138757Y039267
X138487Y039657
X138972Y039971
X138709Y040878
X138239Y041308
X137449Y040918
X136870Y040739
X136989Y041628
X137167Y042758
X138553Y042678
X138465Y043682
X137949Y044968
X136378Y045356
X135829Y046153
X135335Y046192
X134136Y046547
X132019Y045189
X129883Y045277
X130949Y043888
X139419Y041458
X140219Y040778
X140239Y039978
X135857Y037677
X140674Y037513
X140739Y043088
X140674Y062316
X135857Y062480
X136339Y052438
X134409Y048216
X130939Y047888
Y048588
X130489Y048988
Y047588
X128097Y046947
X125239Y047738
X125339Y051438
X128739Y051488
X124829Y051138
X122739Y050338
X122649Y049068
X122389Y048538
X121239Y048788
X120945Y049972
X119459Y049118
X118129Y048188
X116909Y048879
X116239Y047828
X116193Y051014
X113367Y050737
X110347Y048287
X120599Y047948
X124528Y048080
X105739Y048083
X104096Y049687
X105127Y053267
X101181Y051852
X101179Y060871
X101831Y062285
X102717
X096579Y062316
X091762Y062480
X092244Y052438
X090315Y048216
X086844Y047888
Y048588
X086394Y048988
Y047588
X084002Y046947
X081144Y047738
X080433Y048080
X078294Y048538
X078554Y049068
X078644Y050338
X080734Y051138
X081244Y051438
X084644Y051488
X076850Y049972
X077144Y048788
X076504Y047948
X075364Y049118
X074034Y048188
X072815Y048879
X072144Y047828
X072098Y051014
X069272Y050737
X066252Y048287
X061644Y048083
X060002Y049687
X061032Y053267
X057087Y051852
X057084Y060871
X057736Y062285
X058622
X052485Y062316
X047668Y062480
X048150Y052438
X046220Y048216
X042750Y047888
Y048588
X042300Y048988
Y047588
X039908Y046947
X037050Y047738
X036339Y048080
X034200Y048538
X034460Y049068
X034550Y050338
X032756Y049972
X033050Y048788
X032410Y047948
X031270Y049118
X036640Y051138
X037150Y051438
X040550Y051488
X028004Y051014
X028720Y048879
X028050Y047828
X029940Y048188
X025178Y050737
X022158Y048287
X017550Y048083
X015907Y049687
X016938Y053267
X012992Y051852
X012990Y060871
X013642Y062285
X014528
X014449Y064647
X015315Y064745
Y064056
X012992Y076655
X015907Y074491
X016299Y071635
X017550Y072886
X022158Y073090
X021324Y068911
X018189Y068702
X016280Y067811
X016024Y065277
X016530Y064901
X015945Y064450
X019134Y066300
X019618Y067160
X028799Y068585
X028050Y072631
X028720Y073682
X029940Y072991
X028004Y075817
X025178Y075540
X016938Y078070
X031270Y073921
X033050Y073591
X034200Y073341
X034460Y073871
X034550Y075141
X032756Y074775
X032410Y072751
X036339Y072883
X037050Y072541
X039908Y071750
X042300Y072391
X042750Y072691
Y073391
X042300Y073791
X040550Y076291
X037150Y076241
X036640Y075941
X034828Y070690
X035570Y068831
X037460Y068091
X038850Y069155
X041025Y068191
X040897Y067364
X040886Y066881
X041820Y067531
X042520Y066891
X042913Y066606
X044401Y066458
X045149Y066419
X045868Y066527
X046596Y066183
X045120Y067511
X044864Y068102
X044569Y068584
X045002Y069490
X043830Y069992
X041694Y070080
X042760Y068691
X046094Y068909
X046567Y069017
X045947Y071350
X046220Y073019
X045160Y064631
X044734Y064873
X047008Y064844
X047818Y064160
X048620Y064321
X049208Y063930
X049826Y064040
X050190Y063791
X050568Y064070
X050298Y064460
X050783Y064775
X050520Y065681
X050050Y066111
X049260Y065721
X048681Y065543
X048800Y066431
X048978Y067561
X050364Y067481
X050276Y068485
X049760Y069771
X048189Y070159
X047640Y070957
X047146Y070995
X046930Y069322
X047295Y068368
X047010Y066783
X051230Y066261
X052030Y065581
X052050Y064781
X052550Y067891
X060374Y067811
X060118Y065277
X060624Y064901
X060039Y064450
X059409Y064745
Y064056
X058543Y064647
X062283Y068702
X060394Y071635
X061644Y072886
X060002Y074491
X061032Y078070
X057087Y076655
X048150Y077241
X066252Y073090
X065419Y068911
X063712Y067160
X063228Y066300
X072894Y068585
X072144Y072631
X072815Y073682
X074034Y072991
X075364Y073921
X077144Y073591
X076850Y074775
X076504Y072751
X072098Y075817
X069272Y075540
X078644Y075141
X078554Y073871
X078294Y073341
X080433Y072883
X081144Y072541
X084002Y071750
X086394Y072391
X086844Y072691
Y073391
X086394Y073791
X084644Y076291
X081244Y076241
X080734Y075941
X078922Y070690
X079664Y068831
X081554Y068091
X082944Y069155
X085120Y068191
X084992Y067364
X084980Y066881
X085914Y067531
X086615Y066891
X087008Y066606
X088496Y066458
X089244Y066419
X089962Y066527
X090691Y066183
X091104Y066783
X091390Y068368
X091025Y069322
X090661Y069017
X090189Y068909
X089096Y069490
X088663Y068584
X088958Y068102
X089214Y067511
X089254Y064631
X088828Y064873
X091102Y064844
X091912Y064160
X092714Y064321
X093302Y063930
X093354Y065721
X092776Y065543
X092894Y066431
X093073Y067561
X092283Y070159
X091734Y070957
X091240Y070995
X090041Y071350
X090315Y073019
X087925Y069992
X085789Y070080
X086854Y068691
X092244Y077241
X093854Y069771
X094370Y068485
X094459Y067481
X094144Y066111
X094614Y065681
X094878Y064775
X094392Y064460
X094662Y064070
X094284Y063791
X093920Y064040
X096144Y064781
X096124Y065581
X095324Y066261
X096644Y067891
X104469Y067811
X104213Y065277
X104719Y064901
X104134Y064450
X103504Y064745
Y064056
X102638Y064647
X107323Y066300
X107807Y067160
X106378Y068702
X104488Y071635
X105739Y072886
X104096Y074491
X105127Y078070
X101181Y076655
X110347Y073090
X109513Y068911
X116988Y068585
X116239Y072631
X116909Y073682
X118129Y072991
X119459Y073921
X121239Y073591
X122389Y073341
X122649Y073871
X122739Y075141
X120945Y074775
X120599Y072751
X124528Y072883
X124829Y075941
X123017Y070690
X123759Y068831
X116193Y075817
X113367Y075540
X125339Y076241
X128739Y076291
X130489Y073791
X130939Y073391
Y072691
X130489Y072391
X129883Y070080
X132019Y069992
X133191Y069490
X132758Y068584
X133053Y068102
X133309Y067511
X133338Y066419
X132590Y066458
X134057Y066527
X134785Y066183
X135199Y066783
X135484Y068368
X135119Y069322
X134756Y069017
X134283Y068909
X134136Y071350
X135335Y070995
X135829Y070957
X136378Y070159
X137949Y069771
X138465Y068485
X138553Y067481
X137167Y067561
X136989Y066431
X136870Y065543
X137449Y065721
X138239Y066111
X138709Y065681
X138972Y064775
X138487Y064460
X138757Y064070
X138379Y063791
X138015Y064040
X137397Y063930
X136809Y064321
X136007Y064160
X135197Y064844
X133349Y064631
X132923Y064873
X131102Y066606
X130709Y066891
X130009Y067531
X129086Y067364
X129075Y066881
X129214Y068191
X130949Y068691
X127039Y069155
X125649Y068091
X125239Y072541
X128097Y071750
X134409Y073019
X136339Y077241
X139419Y066261
X140219Y065581
X140239Y064781
X140739Y067891
X140674Y087119
X140739Y092694
X138553Y092285
X138465Y093289
X137167Y092364
X136989Y091234
X136870Y090346
X137449Y090524
X138239Y090914
X138709Y090484
X138972Y089578
X138487Y089263
X138757Y088873
X138379Y088594
X138015Y088843
X137397Y088733
X136809Y089124
X136007Y088963
X135197Y089647
X134785Y090986
X135199Y091586
X134057Y091330
X133338Y091222
X132590Y091261
X131102Y091409
X130709Y091694
X130009Y092334
X129086Y092167
X129075Y091684
X129214Y092994
X130949Y093494
X132758Y093387
X133053Y092905
X133309Y092315
X134283Y093712
X135484Y093171
X133349Y089434
X132923Y089676
X135857Y087283
X140239Y089584
X140219Y090384
X139419Y091064
X125649Y092894
X123759Y093634
X116988Y093388
X109513Y093714
X106378Y093505
X104469Y092614
X104213Y090080
X104719Y089704
X104134Y089253
X103504Y089548
Y088859
X102638Y089450
X102717Y087088
X101831
X101179Y085674
X096579Y087119
X096144Y089584
X096124Y090384
X095324Y091064
X094614Y090484
X094144Y090914
X094459Y092285
X094370Y093289
X096644Y092694
X094878Y089578
X094392Y089263
X094662Y088873
X094284Y088594
X093920Y088843
X107323Y091104
X107807Y091963
X093073Y092364
X092894Y091234
X092776Y090346
X093354Y090524
X093302Y088733
X092714Y089124
X091912Y088963
X091102Y089647
X090691Y090986
X091104Y091586
X089962Y091330
X089244Y091222
X088496Y091261
X087008Y091409
X086615Y091694
X085914Y092334
X084992Y092167
X084980Y091684
X085120Y092994
X086854Y093494
X088663Y093387
X088958Y092905
X089214Y092315
X090189Y093712
X091390Y093171
X089254Y089434
X088828Y089676
X091762Y087283
X081554Y092894
X079664Y093634
X072894Y093388
X065419Y093714
X063712Y091963
X063228Y091104
X062283Y093505
X060374Y092614
X060118Y090080
X060624Y089704
X060039Y089253
X059409Y089548
Y088859
X058543Y089450
X058622Y087088
X057736
X057084Y085674
X052485Y087119
X052050Y089584
X052030Y090384
X051230Y091064
X050520Y090484
X050050Y090914
X049260Y090524
X048681Y090346
X048800Y091234
X048978Y092364
X050364Y092285
X050276Y093289
X052550Y092694
X050783Y089578
X050298Y089263
X050568Y088873
X050190Y088594
X049826Y088843
X049208Y088733
X048620Y089124
X047818Y088963
X047008Y089647
X047010Y091586
X047295Y093171
X047668Y087283
X045160Y089434
X044734Y089676
X044401Y091261
X045149Y091222
X045868Y091330
X046596Y090986
X045120Y092315
X044864Y092905
X044569Y093387
X046094Y093712
X042760Y093494
X042520Y091694
X042913Y091409
X041820Y092334
X040897Y092167
X040886Y091684
X041025Y092994
X037460Y092894
X035570Y093634
X028799Y093388
X021324Y093714
X018189Y093505
X016280Y092614
X016024Y090080
X016530Y089704
X015945Y089253
X019134Y091104
X019618Y091963
X015315Y089548
Y088859
X014449Y089450
X014528Y087088
X013642
X012990Y085674
X012992Y101458
X015907Y099294
X016299Y096438
X017550Y097689
X022158Y097893
X025178Y100343
X028004Y100621
X028720Y098485
X028050Y097434
X029940Y097794
X016938Y102873
X031270Y098724
X033050Y098394
X034200Y098144
X034460Y098674
X034550Y099944
X032756Y099578
X032410Y097554
X036339Y097686
X037050Y097344
X039908Y096553
X042300Y097194
X042750Y097494
Y098194
X042300Y098594
X040550Y101094
X037150Y101044
X036640Y100744
X034828Y095493
X038850Y093958
X041694Y094884
X043830Y094795
X045002Y094293
X046567Y093821
X045947Y096153
X046220Y097823
X047146Y095798
X047640Y095760
X048189Y094962
X049760Y094574
X046930Y094125
X048150Y102044
X057087Y101458
X060002Y099294
X060394Y096438
X061644Y097689
X061032Y102873
X066252Y097893
X069272Y100343
X072098Y100621
X072815Y098485
X072144Y097434
X074034Y097794
X075364Y098724
X077144Y098394
X076850Y099578
X076504Y097554
X078294Y098144
X078554Y098674
X078644Y099944
X080734Y100744
X081244Y101044
X084644Y101094
X086394Y098594
X086844Y098194
Y097494
X086394Y097194
X085789Y094884
X087925Y094795
X089096Y094293
X090661Y093821
X091025Y094125
X091240Y095798
X091734Y095760
X092283Y094962
X090041Y096153
X090315Y097823
X092244Y102044
X084002Y096553
X081144Y097344
X080433Y097686
X078922Y095493
X082944Y093958
X093854Y094574
X104488Y096438
X105739Y097689
X104096Y099294
X105127Y102873
X101181Y101458
X110347Y097893
X113367Y100343
X116193Y100621
X116909Y098485
X116239Y097434
X118129Y097794
X119459Y098724
X121239Y098394
X122389Y098144
X122649Y098674
X122739Y099944
X120945Y099578
X120599Y097554
X124528Y097686
X124829Y100744
X123017Y095493
X125239Y097344
X128097Y096553
X130489Y097194
X130939Y097494
Y098194
X130489Y098594
X128739Y101094
X125339Y101044
X127039Y093958
X129883Y094884
X132019Y094795
X133191Y094293
X134756Y093821
X135119Y094125
X135335Y095798
X135829Y095760
X136378Y094962
X137949Y094574
X134136Y096153
X134409Y097823
X136339Y102044
T02
X014632Y044288
X015050Y044706
X015468Y044288
X015050Y043871
X026831Y045753
X059144Y044706
X058727Y044288
X059562
X059144Y043871
X070925Y045753
X103239Y044706
X102821Y044288
X103657
X103239Y043871
X115020Y045753
X015468Y069091
X015050Y069509
X014632Y069091
X015050Y068674
X026831Y070556
X059144Y069509
X058727Y069091
X059562
X059144Y068674
X070925Y070556
X103239Y069509
X102821Y069091
X103657
X103239Y068674
X115020Y070556
X103239Y093477
X059144
X015050
Y094312
X014632Y093894
X015468
X026831Y095359
X059144Y094312
X058727Y093894
X059562
X070925Y095359
X103239Y094312
X102821Y093894
X103657
X115020Y095359
T03
X020831Y045753
Y046753
X026831
X028004Y046104
X029004
X030004
X031004
X032004
X033004
X034004
X064925Y045753
Y046753
X070925
X072098Y046104
X073098
X074098
X075098
X076098
X077098
X078098
X109020Y045753
Y046753
X115020
X116193Y046104
X117193
X118193
X119193
X120193
X121193
X122193
Y052104
X121193
X120193
X119193
X118193
X117193
X116193
X115020Y051753
Y050753
Y049753
Y048753
Y047753
Y052753
X109020
Y051753
Y050753
Y049753
Y048753
Y047753
X078098Y052104
X077098
X076098
X075098
X074098
X073098
X072098
X070925Y051753
Y050753
Y049753
Y048753
Y047753
Y052753
X064925
Y051753
Y050753
Y049753
Y048753
Y047753
X034004Y052104
X033004
X032004
X031004
X030004
X029004
X028004
X026831Y051753
Y050753
Y049753
Y048753
Y047753
Y052753
X020831
Y051753
Y050753
Y049753
Y048753
Y047753
Y070556
Y071556
Y072556
Y073556
Y074556
Y075556
Y076556
Y077556
X026831
Y076556
Y075556
Y074556
Y073556
Y072556
Y071556
X028004Y070907
X029004
X030004
X031004
Y076907
X030004
X029004
X028004
X032004
X033004
X034004
Y070907
X033004
X032004
X064925Y070556
Y071556
Y072556
Y073556
Y074556
Y075556
Y076556
Y077556
X070925
Y076556
Y075556
Y074556
Y073556
Y072556
Y071556
X072098Y070907
X073098
X074098
X075098
X076098
X077098
X078098
Y076907
X077098
X076098
X075098
X074098
X073098
X072098
X109020Y076556
Y077556
Y075556
Y074556
Y073556
Y072556
Y071556
Y070556
X115020Y071556
Y072556
Y073556
Y074556
Y075556
Y076556
Y077556
X116193Y076907
X117193
X118193
X119193
X120193
X121193
X122193
Y070907
X121193
X120193
X119193
X118193
X117193
X116193
X031004Y095710
X030004
X029004
X028004
X026831Y096359
Y097359
Y098359
Y099359
Y100359
Y101359
Y102359
X028004Y101710
X029004
X030004
X031004
X020831Y101359
Y102359
Y100359
Y099359
Y098359
Y097359
Y096359
Y095359
X032004Y095710
X033004
X034004
Y101710
X033004
X032004
X064925Y101359
Y102359
Y100359
Y099359
Y098359
Y097359
Y096359
Y095359
X070925Y096359
Y097359
Y098359
Y099359
Y100359
Y101359
Y102359
X072098Y101710
X073098
X074098
X075098
X076098
X077098
X078098
Y095710
X077098
X076098
X075098
X074098
X073098
X072098
X109020Y095359
Y096359
Y097359
Y098359
Y099359
Y100359
Y101359
Y102359
X115020
Y101359
Y100359
Y099359
Y098359
Y097359
Y096359
X116193Y095710
X117193
X118193
X119193
X120193
X121193
X122193
Y101710
X121193
X120193
X119193
X118193
X117193
X116193
T04
X130817Y051317
Y052317
X107691Y052507
Y051507
X086722Y051317
Y052317
X063597Y052507
Y051507
X042628Y051317
Y052317
X019502Y052507
Y051507
Y076310
Y077310
X042628Y077120
Y076120
X063597Y076310
Y077310
X086722Y077120
Y076120
X107691Y076310
Y077310
X130817Y077120
Y076120
X019502Y101113
Y102113
X042628Y101923
Y100923
X063597Y101113
Y102113
X086722Y101923
Y100923
X107691Y101113
Y102113
X130817Y101923
Y100923
T05
X013937Y044867
Y045867
Y046867
X020799Y042501
X021799
X022799
X023799
X024799
X025799
X026799
X027799
X028799
X029799
X030965
X031965
X032965
X033965
X034965
X035965
X036965
X037965
X038965
X039965
X058032Y044867
Y045867
Y046867
X064894Y042501
X065894
X066894
X067894
X068894
X069894
X070894
X071894
X072894
X073894
X075059
X076059
X077059
X078059
X079059
X080059
X081059
X082059
X083059
X084059
X102126Y044867
Y045867
Y046867
X108988Y042501
X109988
X110988
X111988
X112988
X113988
X114988
X115988
X116988
X117988
X119154
X120154
X121154
X122154
X123154
X124154
X125154
X126154
X127154
X128154
X102126Y047867
Y048867
Y049867
Y050867
Y051867
Y052867
X058032
Y051867
Y050867
Y049867
Y048867
Y047867
X013937
Y048867
Y049867
Y050867
Y051867
Y052867
Y069670
Y070670
Y071670
Y072670
Y073670
Y074670
Y075670
Y076670
Y077670
X020799Y067304
X021799
X022799
X023799
X024799
X025799
X026799
X027799
X028799
X029799
X030965
X031965
X032965
X033965
X034965
X035965
X036965
X037965
X038965
X039965
X058032Y069670
Y070670
Y071670
Y072670
Y073670
Y074670
Y075670
Y076670
Y077670
X064894Y067304
X065894
X066894
X067894
X068894
X069894
X070894
X071894
X072894
X073894
X075059
X076059
X077059
X078059
X079059
X080059
X081059
X082059
X083059
X084059
X102126Y069670
Y070670
Y071670
Y072670
Y073670
Y074670
Y075670
Y076670
Y077670
X108988Y067304
X109988
X110988
X111988
X112988
X113988
X114988
X115988
X116988
X117988
X119154
X120154
X121154
X122154
X123154
X124154
X125154
X126154
X127154
X128154
Y092107
X127154
X126154
X125154
X124154
X123154
X122154
X121154
X120154
X119154
X117988
X116988
X115988
X114988
X113988
X112988
X111988
X110988
X109988
X108988
X084059
X083059
X082059
X081059
X080059
X079059
X078059
X077059
X076059
X075059
X073894
X072894
X071894
X070894
X069894
X068894
X067894
X066894
X065894
X064894
X039965
X038965
X037965
X036965
X035965
X034965
X033965
X032965
X031965
X030965
X029799
X028799
X027799
X026799
X025799
X024799
X023799
X022799
X021799
X020799
X013937Y094474
Y095474
Y096474
Y097474
Y098474
Y099474
Y100474
Y101474
Y102474
X058032
Y101474
Y100474
Y099474
Y098474
Y097474
Y096474
Y095474
Y094474
X102126
Y095474
Y096474
Y097474
Y098474
Y099474
Y100474
Y101474
Y102474
T06
X011160Y035914
Y036898
Y037882
X035488Y046267
X036488
X037488
X038488
X039488
X040488
X051537Y045258
X055254Y037882
Y036898
Y035914
X079582Y046267
X080582
X081582
X082582
X083582
X084582
X095632Y045258
X099349Y037882
Y036898
Y035914
X123677Y046267
X124677
X125677
X126677
X127677
X128677
X139726Y045258
X138226Y047227
X139726Y049195
X095632
X094132Y047227
X099349Y060717
Y061701
X055254
Y060717
X051537Y049195
X050037Y047227
X011160Y060717
Y061701
Y062686
X035488Y071070
X036488
X037488
X038488
X039488
X040488
X050037Y072030
X051537Y073998
Y070061
X055254Y062686
X079582Y071070
X080582
X081582
X082582
X083582
X084582
X094132Y072030
X095632Y073998
Y070061
X099349Y062686
X123677Y071070
X124677
X125677
X126677
X127677
X128677
X138226Y072030
X139726Y073998
Y070061
X099349Y085520
Y086504
Y087489
X055254
Y086504
Y085520
X011160
Y086504
Y087489
X035488Y095873
X036488
X037488
X038488
X039488
X040488
X050037Y096833
X051537Y098802
Y094865
X079582Y095873
X080582
X081582
X082582
X083582
X084582
X094132Y096833
X095632Y098802
Y094865
X123677Y095873
X124677
X125677
X126677
X127677
X128677
X138226Y096833
X139726Y098802
Y094865
T07
X012026Y034654
X010688Y039103
X054782
X056121Y034654
X100215
X098877Y039103
X100215Y059457
X056121
X012026
X010688Y063906
X054782
X098877
X100215Y084260
X098877Y088709
X054782
X056121Y084260
X012026
X010688Y088709
T08
X139333Y029607
X010986
X010500Y045938
X054594
X098689
X139689Y053438
X098689
X095594
X054594
X051500
X010500
Y070741
X054594
X098689
X139689Y078241
X098689
X095594
X054594
X051500
X010500
Y095544
Y103044
X010986Y106773
X051500Y103044
X054594
Y095544
X098689
Y103044
X095594
X139689
X139333Y106773
M30
