%FSAX24Y24*%
%MOIN*%
G70*
G01*
G75*
G04 Layer_Physical_Order=4*
G04 Layer_Color=16711680*
%ADD10C,0.0630*%
%ADD11R,0.0630X0.0709*%
G04:AMPARAMS|DCode=12|XSize=24mil|YSize=59.1mil|CornerRadius=0.6mil|HoleSize=0mil|Usage=FLASHONLY|Rotation=270.000|XOffset=0mil|YOffset=0mil|HoleType=Round|Shape=RoundedRectangle|*
%AMROUNDEDRECTD12*
21,1,0.0240,0.0579,0,0,270.0*
21,1,0.0228,0.0591,0,0,270.0*
1,1,0.0012,-0.0289,-0.0114*
1,1,0.0012,-0.0289,0.0114*
1,1,0.0012,0.0289,0.0114*
1,1,0.0012,0.0289,-0.0114*
%
%ADD12ROUNDEDRECTD12*%
G04:AMPARAMS|DCode=13|XSize=24mil|YSize=59.1mil|CornerRadius=0.6mil|HoleSize=0mil|Usage=FLASHONLY|Rotation=180.000|XOffset=0mil|YOffset=0mil|HoleType=Round|Shape=RoundedRectangle|*
%AMROUNDEDRECTD13*
21,1,0.0240,0.0579,0,0,180.0*
21,1,0.0228,0.0591,0,0,180.0*
1,1,0.0012,-0.0114,0.0289*
1,1,0.0012,0.0114,0.0289*
1,1,0.0012,0.0114,-0.0289*
1,1,0.0012,-0.0114,-0.0289*
%
%ADD13ROUNDEDRECTD13*%
%ADD14O,0.0217X0.0689*%
%ADD15O,0.0689X0.0217*%
%ADD16O,0.0787X0.0248*%
%ADD17O,0.0866X0.0236*%
%ADD18R,0.1417X0.0591*%
%ADD19R,0.1378X0.0669*%
%ADD20R,0.0669X0.0984*%
%ADD21R,0.0945X0.1024*%
%ADD22R,0.0591X0.0512*%
%ADD23R,0.0236X0.0453*%
%ADD24R,0.0709X0.0630*%
%ADD25O,0.0591X0.0236*%
%ADD26R,0.0512X0.0591*%
%ADD27R,0.1024X0.0945*%
%ADD28O,0.0236X0.0787*%
%ADD29R,0.1063X0.0630*%
%ADD30R,0.0472X0.1575*%
%ADD31C,0.0394*%
%ADD32C,0.0118*%
%ADD33C,0.0236*%
%ADD34C,0.0330*%
%ADD35C,0.0079*%
%ADD36C,0.0197*%
%ADD37C,0.0157*%
%ADD38R,0.0394X0.0394*%
%ADD39P,0.1114X4X270.0*%
%ADD40R,0.0945X0.0984*%
%ADD41C,0.1250*%
%ADD42O,0.0472X0.0984*%
%ADD43C,0.0600*%
%ADD44C,0.0700*%
%ADD45R,0.0700X0.0700*%
%ADD46C,0.0394*%
%ADD47C,0.1600*%
%ADD48R,0.0591X0.0591*%
%ADD49C,0.0591*%
%ADD50R,0.0500X0.0500*%
%ADD51C,0.0500*%
%ADD52C,0.0709*%
%ADD53C,0.0315*%
%ADD54C,0.0400*%
%ADD55R,0.6594X0.5118*%
%ADD56C,0.1650*%
%ADD57C,0.0636*%
%ADD58C,0.0597*%
G04:AMPARAMS|DCode=59|XSize=83.622mil|YSize=83.622mil|CornerRadius=0mil|HoleSize=0mil|Usage=FLASHONLY|Rotation=0.000|XOffset=0mil|YOffset=0mil|HoleType=Round|Shape=Relief|Width=10mil|Gap=10mil|Entries=4|*
%AMTHD59*
7,0,0,0.0836,0.0636,0.0100,45*
%
%ADD59THD59*%
G04:AMPARAMS|DCode=60|XSize=90mil|YSize=90mil|CornerRadius=0mil|HoleSize=0mil|Usage=FLASHONLY|Rotation=0.000|XOffset=0mil|YOffset=0mil|HoleType=Round|Shape=Relief|Width=10mil|Gap=10mil|Entries=4|*
%AMTHD60*
7,0,0,0.0900,0.0700,0.0100,45*
%
%ADD60THD60*%
%ADD61C,0.0754*%
G04:AMPARAMS|DCode=62|XSize=95.433mil|YSize=95.433mil|CornerRadius=0mil|HoleSize=0mil|Usage=FLASHONLY|Rotation=0.000|XOffset=0mil|YOffset=0mil|HoleType=Round|Shape=Relief|Width=10mil|Gap=10mil|Entries=4|*
%AMTHD62*
7,0,0,0.0954,0.0754,0.0100,45*
%
%ADD62THD62*%
G04:AMPARAMS|DCode=63|XSize=88mil|YSize=88mil|CornerRadius=0mil|HoleSize=0mil|Usage=FLASHONLY|Rotation=0.000|XOffset=0mil|YOffset=0mil|HoleType=Round|Shape=Relief|Width=10mil|Gap=10mil|Entries=4|*
%AMTHD63*
7,0,0,0.0880,0.0680,0.0100,45*
%
%ADD63THD63*%
%ADD64C,0.0680*%
%ADD65C,0.0872*%
%ADD66C,0.0518*%
G04:AMPARAMS|DCode=67|XSize=71.811mil|YSize=71.811mil|CornerRadius=0mil|HoleSize=0mil|Usage=FLASHONLY|Rotation=0.000|XOffset=0mil|YOffset=0mil|HoleType=Round|Shape=Relief|Width=10mil|Gap=10mil|Entries=4|*
%AMTHD67*
7,0,0,0.0718,0.0518,0.0100,45*
%
%ADD67THD67*%
%ADD68C,0.0787*%
%ADD69C,0.0295*%
G36*
X017991Y041176D02*
X014946Y038131D01*
X014911Y038079D01*
X014909Y038068D01*
X014898Y038017D01*
X014898Y038017D01*
Y037331D01*
X014143Y036576D01*
X012913D01*
X012050Y037838D01*
Y039653D01*
X012085Y039688D01*
X013622Y039686D01*
X014252Y040316D01*
Y042206D01*
X016811D01*
Y043544D01*
X017991D01*
Y041176D01*
D02*
G37*
G36*
X020118Y042718D02*
Y041913D01*
X019948D01*
X019871Y041903D01*
X019799Y041873D01*
X019737Y041826D01*
X019214Y041303D01*
X019137D01*
X019060Y041293D01*
X019039Y041284D01*
X018988Y041263D01*
X018926Y041216D01*
X018836Y041126D01*
X018440D01*
X018363Y041116D01*
X018354Y041112D01*
X018334Y041125D01*
X018312Y041178D01*
Y043544D01*
X019213D01*
X020118Y042718D01*
D02*
G37*
G36*
X052750Y044188D02*
X051250D01*
Y044895D01*
X051295Y044917D01*
X051327Y044893D01*
X051428Y044851D01*
X051537Y044837D01*
X051647Y044851D01*
X051748Y044893D01*
X051836Y044960D01*
X051903Y045047D01*
X051945Y045149D01*
X051959Y045258D01*
X051945Y045367D01*
X051903Y045469D01*
X051836Y045556D01*
X051748Y045623D01*
X051647Y045666D01*
X051537Y045680D01*
X051522Y045711D01*
X051750Y045938D01*
Y048831D01*
X051836Y048897D01*
X051903Y048984D01*
X051945Y049086D01*
X051959Y049195D01*
X051945Y049304D01*
X051903Y049406D01*
X051836Y049493D01*
X051750Y049559D01*
Y050788D01*
X048750Y053688D01*
X012850D01*
X010750Y050988D01*
Y048368D01*
X010850Y048058D01*
X010950Y047908D01*
X011120Y047718D01*
X011350Y047568D01*
X011950Y047008D01*
X012230Y046478D01*
X012250Y045938D01*
X013346Y044233D01*
X013220Y043958D01*
X012089Y044188D01*
X010477D01*
X010384Y044160D01*
X010245Y044086D01*
X010123Y043986D01*
X010023Y043864D01*
X009949Y043725D01*
X009903Y043574D01*
X009898Y043519D01*
Y034457D01*
X009246D01*
X009250Y044188D01*
Y054688D01*
X052750D01*
Y044188D01*
D02*
G37*
%LPC*%
G36*
X013642Y037799D02*
X013560Y037788D01*
X013483Y037757D01*
X013417Y037706D01*
X013367Y037640D01*
X013335Y037564D01*
X013324Y037482D01*
X013335Y037399D01*
X013367Y037323D01*
X013417Y037257D01*
X013483Y037206D01*
X013560Y037175D01*
X013642Y037164D01*
X013724Y037175D01*
X013801Y037206D01*
X013866Y037257D01*
X013917Y037323D01*
X013949Y037399D01*
X013959Y037482D01*
X013949Y037564D01*
X013917Y037640D01*
X013866Y037706D01*
X013801Y037757D01*
X013724Y037788D01*
X013642Y037799D01*
D02*
G37*
G36*
X014528D02*
X014445Y037788D01*
X014369Y037757D01*
X014303Y037706D01*
X014252Y037640D01*
X014221Y037564D01*
X014210Y037482D01*
X014221Y037399D01*
X014252Y037323D01*
X014303Y037257D01*
X014369Y037206D01*
X014445Y037175D01*
X014528Y037164D01*
X014610Y037175D01*
X014686Y037206D01*
X014752Y037257D01*
X014803Y037323D01*
X014834Y037399D01*
X014845Y037482D01*
X014834Y037564D01*
X014803Y037640D01*
X014752Y037706D01*
X014686Y037757D01*
X014610Y037788D01*
X014528Y037799D01*
D02*
G37*
%LPD*%
G36*
X062085Y041176D02*
X059040Y038131D01*
X059005Y038079D01*
X059003Y038068D01*
X058993Y038017D01*
X058993Y038017D01*
Y037331D01*
X058237Y036576D01*
X057008D01*
X056144Y037838D01*
Y039653D01*
X056180Y039688D01*
X057717Y039686D01*
X058346Y040316D01*
Y042206D01*
X060906D01*
Y043544D01*
X062085D01*
Y041176D01*
D02*
G37*
G36*
X064213Y042718D02*
Y041913D01*
X064042D01*
X063965Y041903D01*
X063894Y041873D01*
X063832Y041826D01*
X063309Y041303D01*
X063231D01*
X063154Y041293D01*
X063133Y041284D01*
X063083Y041263D01*
X063021Y041216D01*
X062931Y041126D01*
X062534D01*
X062457Y041116D01*
X062448Y041112D01*
X062429Y041125D01*
X062407Y041178D01*
Y043544D01*
X063307D01*
X064213Y042718D01*
D02*
G37*
G36*
X096844Y044188D02*
X095344D01*
Y044895D01*
X095389Y044917D01*
X095421Y044893D01*
X095523Y044851D01*
X095632Y044837D01*
X095741Y044851D01*
X095843Y044893D01*
X095930Y044960D01*
X095997Y045047D01*
X096039Y045149D01*
X096054Y045258D01*
X096039Y045367D01*
X095997Y045469D01*
X095930Y045556D01*
X095843Y045623D01*
X095741Y045666D01*
X095632Y045680D01*
X095617Y045711D01*
X095844Y045938D01*
Y048831D01*
X095930Y048897D01*
X095997Y048984D01*
X096039Y049086D01*
X096054Y049195D01*
X096039Y049304D01*
X095997Y049406D01*
X095930Y049493D01*
X095844Y049559D01*
Y050788D01*
X092844Y053688D01*
X056944D01*
X054844Y050988D01*
Y048368D01*
X054944Y048058D01*
X055044Y047908D01*
X055214Y047718D01*
X055444Y047568D01*
X056044Y047008D01*
X056324Y046478D01*
X056344Y045938D01*
X057441Y044233D01*
X057314Y043958D01*
X056184Y044188D01*
X054572D01*
X054478Y044160D01*
X054339Y044086D01*
X054218Y043986D01*
X054118Y043864D01*
X054043Y043725D01*
X053998Y043574D01*
X053992Y043519D01*
Y034457D01*
X053341D01*
X053344Y044188D01*
Y054688D01*
X096844D01*
Y044188D01*
D02*
G37*
%LPC*%
G36*
X057736Y037799D02*
X057654Y037788D01*
X057577Y037757D01*
X057512Y037706D01*
X057461Y037640D01*
X057429Y037564D01*
X057419Y037482D01*
X057429Y037399D01*
X057461Y037323D01*
X057512Y037257D01*
X057577Y037206D01*
X057654Y037175D01*
X057736Y037164D01*
X057818Y037175D01*
X057895Y037206D01*
X057961Y037257D01*
X058011Y037323D01*
X058043Y037399D01*
X058054Y037482D01*
X058043Y037564D01*
X058011Y037640D01*
X057961Y037706D01*
X057895Y037757D01*
X057818Y037788D01*
X057736Y037799D01*
D02*
G37*
G36*
X058622D02*
X058540Y037788D01*
X058463Y037757D01*
X058397Y037706D01*
X058347Y037640D01*
X058315Y037564D01*
X058304Y037482D01*
X058315Y037399D01*
X058347Y037323D01*
X058397Y037257D01*
X058463Y037206D01*
X058540Y037175D01*
X058622Y037164D01*
X058704Y037175D01*
X058781Y037206D01*
X058847Y037257D01*
X058897Y037323D01*
X058929Y037399D01*
X058940Y037482D01*
X058929Y037564D01*
X058897Y037640D01*
X058847Y037706D01*
X058781Y037757D01*
X058704Y037788D01*
X058622Y037799D01*
D02*
G37*
%LPD*%
G36*
X106180Y041176D02*
X103134Y038131D01*
X103100Y038079D01*
X103098Y038068D01*
X103087Y038017D01*
X103087Y038017D01*
Y037331D01*
X102332Y036576D01*
X101102D01*
X100239Y037838D01*
Y039653D01*
X100274Y039688D01*
X101811Y039686D01*
X102441Y040316D01*
Y042206D01*
X105000D01*
Y043544D01*
X106180D01*
Y041176D01*
D02*
G37*
G36*
X108307Y042718D02*
Y041913D01*
X108137D01*
X108060Y041903D01*
X107988Y041873D01*
X107926Y041826D01*
X107403Y041303D01*
X107326D01*
X107249Y041293D01*
X107228Y041284D01*
X107177Y041263D01*
X107115Y041216D01*
X107025Y041126D01*
X106629D01*
X106552Y041116D01*
X106543Y041112D01*
X106523Y041125D01*
X106501Y041178D01*
Y043544D01*
X107402D01*
X108307Y042718D01*
D02*
G37*
G36*
X140939Y044188D02*
X139439D01*
Y044895D01*
X139484Y044917D01*
X139516Y044893D01*
X139617Y044851D01*
X139726Y044837D01*
X139836Y044851D01*
X139937Y044893D01*
X140025Y044960D01*
X140092Y045047D01*
X140134Y045149D01*
X140148Y045258D01*
X140134Y045367D01*
X140092Y045469D01*
X140025Y045556D01*
X139937Y045623D01*
X139836Y045666D01*
X139726Y045680D01*
X139711Y045711D01*
X139939Y045938D01*
Y048831D01*
X140025Y048897D01*
X140092Y048984D01*
X140134Y049086D01*
X140148Y049195D01*
X140134Y049304D01*
X140092Y049406D01*
X140025Y049493D01*
X139939Y049559D01*
Y050788D01*
X136939Y053688D01*
X101039D01*
X098939Y050988D01*
Y048368D01*
X099039Y048058D01*
X099139Y047908D01*
X099309Y047718D01*
X099539Y047568D01*
X100139Y047008D01*
X100419Y046478D01*
X100439Y045938D01*
X101535Y044233D01*
X101409Y043958D01*
X100278Y044188D01*
X098666D01*
X098573Y044160D01*
X098434Y044086D01*
X098312Y043986D01*
X098212Y043864D01*
X098138Y043725D01*
X098092Y043574D01*
X098087Y043519D01*
Y034457D01*
X097435D01*
X097439Y044188D01*
Y054688D01*
X140939D01*
Y044188D01*
D02*
G37*
%LPC*%
G36*
X101831Y037799D02*
X101748Y037788D01*
X101672Y037757D01*
X101606Y037706D01*
X101556Y037640D01*
X101524Y037564D01*
X101513Y037482D01*
X101524Y037399D01*
X101556Y037323D01*
X101606Y037257D01*
X101672Y037206D01*
X101748Y037175D01*
X101831Y037164D01*
X101913Y037175D01*
X101990Y037206D01*
X102055Y037257D01*
X102106Y037323D01*
X102138Y037399D01*
X102148Y037482D01*
X102138Y037564D01*
X102106Y037640D01*
X102055Y037706D01*
X101990Y037757D01*
X101913Y037788D01*
X101831Y037799D01*
D02*
G37*
G36*
X102717D02*
X102634Y037788D01*
X102558Y037757D01*
X102492Y037706D01*
X102441Y037640D01*
X102410Y037564D01*
X102399Y037482D01*
X102410Y037399D01*
X102441Y037323D01*
X102492Y037257D01*
X102558Y037206D01*
X102634Y037175D01*
X102717Y037164D01*
X102799Y037175D01*
X102875Y037206D01*
X102941Y037257D01*
X102992Y037323D01*
X103023Y037399D01*
X103034Y037482D01*
X103023Y037564D01*
X102992Y037640D01*
X102941Y037706D01*
X102875Y037757D01*
X102799Y037788D01*
X102717Y037799D01*
D02*
G37*
%LPD*%
G36*
X017991Y065979D02*
X014946Y062934D01*
X014911Y062882D01*
X014909Y062872D01*
X014898Y062820D01*
X014898Y062820D01*
Y062135D01*
X014143Y061379D01*
X012913D01*
X012050Y062641D01*
Y064456D01*
X012085Y064491D01*
X013622Y064489D01*
X014252Y065119D01*
Y067009D01*
X016811D01*
Y068348D01*
X017991D01*
Y065979D01*
D02*
G37*
G36*
X020118Y067521D02*
Y066716D01*
X019948D01*
X019871Y066706D01*
X019799Y066676D01*
X019737Y066629D01*
X019214Y066106D01*
X019137D01*
X019060Y066096D01*
X019039Y066087D01*
X018988Y066066D01*
X018926Y066019D01*
X018836Y065929D01*
X018440D01*
X018363Y065919D01*
X018354Y065915D01*
X018334Y065928D01*
X018312Y065981D01*
Y068348D01*
X019213D01*
X020118Y067521D01*
D02*
G37*
G36*
X052750Y068991D02*
X051250D01*
Y069698D01*
X051295Y069721D01*
X051327Y069696D01*
X051428Y069654D01*
X051537Y069640D01*
X051647Y069654D01*
X051748Y069696D01*
X051836Y069763D01*
X051903Y069851D01*
X051945Y069952D01*
X051959Y070061D01*
X051945Y070171D01*
X051903Y070272D01*
X051836Y070360D01*
X051748Y070427D01*
X051647Y070469D01*
X051537Y070483D01*
X051522Y070514D01*
X051750Y070741D01*
Y073635D01*
X051836Y073700D01*
X051903Y073788D01*
X051945Y073889D01*
X051959Y073998D01*
X051945Y074108D01*
X051903Y074209D01*
X051836Y074297D01*
X051750Y074362D01*
Y075591D01*
X048750Y078491D01*
X012850D01*
X010750Y075791D01*
Y073171D01*
X010850Y072861D01*
X010950Y072711D01*
X011120Y072521D01*
X011350Y072371D01*
X011950Y071811D01*
X012230Y071281D01*
X012250Y070741D01*
X013346Y069037D01*
X013220Y068761D01*
X012089Y068991D01*
X010477D01*
X010384Y068963D01*
X010245Y068889D01*
X010123Y068789D01*
X010023Y068667D01*
X009949Y068528D01*
X009903Y068377D01*
X009898Y068322D01*
Y059260D01*
X009246D01*
X009250Y068991D01*
Y079491D01*
X052750D01*
Y068991D01*
D02*
G37*
%LPC*%
G36*
X013642Y062602D02*
X013560Y062592D01*
X013483Y062560D01*
X013417Y062509D01*
X013367Y062443D01*
X013335Y062367D01*
X013324Y062285D01*
X013335Y062202D01*
X013367Y062126D01*
X013417Y062060D01*
X013483Y062010D01*
X013560Y061978D01*
X013642Y061967D01*
X013724Y061978D01*
X013801Y062010D01*
X013866Y062060D01*
X013917Y062126D01*
X013949Y062202D01*
X013959Y062285D01*
X013949Y062367D01*
X013917Y062443D01*
X013866Y062509D01*
X013801Y062560D01*
X013724Y062592D01*
X013642Y062602D01*
D02*
G37*
G36*
X014528D02*
X014445Y062592D01*
X014369Y062560D01*
X014303Y062509D01*
X014252Y062443D01*
X014221Y062367D01*
X014210Y062285D01*
X014221Y062202D01*
X014252Y062126D01*
X014303Y062060D01*
X014369Y062010D01*
X014445Y061978D01*
X014528Y061967D01*
X014610Y061978D01*
X014686Y062010D01*
X014752Y062060D01*
X014803Y062126D01*
X014834Y062202D01*
X014845Y062285D01*
X014834Y062367D01*
X014803Y062443D01*
X014752Y062509D01*
X014686Y062560D01*
X014610Y062592D01*
X014528Y062602D01*
D02*
G37*
%LPD*%
G36*
X062085Y065979D02*
X059040Y062934D01*
X059005Y062882D01*
X059003Y062872D01*
X058993Y062820D01*
X058993Y062820D01*
Y062135D01*
X058237Y061379D01*
X057008D01*
X056144Y062641D01*
Y064456D01*
X056180Y064491D01*
X057717Y064489D01*
X058346Y065119D01*
Y067009D01*
X060906D01*
Y068348D01*
X062085D01*
Y065979D01*
D02*
G37*
G36*
X064213Y067521D02*
Y066716D01*
X064042D01*
X063965Y066706D01*
X063894Y066676D01*
X063832Y066629D01*
X063309Y066106D01*
X063231D01*
X063154Y066096D01*
X063133Y066087D01*
X063083Y066066D01*
X063021Y066019D01*
X062931Y065929D01*
X062534D01*
X062457Y065919D01*
X062448Y065915D01*
X062429Y065928D01*
X062407Y065981D01*
Y068348D01*
X063307D01*
X064213Y067521D01*
D02*
G37*
G36*
X096844Y068991D02*
X095344D01*
Y069698D01*
X095389Y069721D01*
X095421Y069696D01*
X095523Y069654D01*
X095632Y069640D01*
X095741Y069654D01*
X095843Y069696D01*
X095930Y069763D01*
X095997Y069851D01*
X096039Y069952D01*
X096054Y070061D01*
X096039Y070171D01*
X095997Y070272D01*
X095930Y070360D01*
X095843Y070427D01*
X095741Y070469D01*
X095632Y070483D01*
X095617Y070514D01*
X095844Y070741D01*
Y073635D01*
X095930Y073700D01*
X095997Y073788D01*
X096039Y073889D01*
X096054Y073998D01*
X096039Y074108D01*
X095997Y074209D01*
X095930Y074297D01*
X095844Y074362D01*
Y075591D01*
X092844Y078491D01*
X056944D01*
X054844Y075791D01*
Y073171D01*
X054944Y072861D01*
X055044Y072711D01*
X055214Y072521D01*
X055444Y072371D01*
X056044Y071811D01*
X056324Y071281D01*
X056344Y070741D01*
X057441Y069037D01*
X057314Y068761D01*
X056184Y068991D01*
X054572D01*
X054478Y068963D01*
X054339Y068889D01*
X054218Y068789D01*
X054118Y068667D01*
X054043Y068528D01*
X053998Y068377D01*
X053992Y068322D01*
Y059260D01*
X053341D01*
X053344Y068991D01*
Y079491D01*
X096844D01*
Y068991D01*
D02*
G37*
%LPC*%
G36*
X057736Y062602D02*
X057654Y062592D01*
X057577Y062560D01*
X057512Y062509D01*
X057461Y062443D01*
X057429Y062367D01*
X057419Y062285D01*
X057429Y062202D01*
X057461Y062126D01*
X057512Y062060D01*
X057577Y062010D01*
X057654Y061978D01*
X057736Y061967D01*
X057818Y061978D01*
X057895Y062010D01*
X057961Y062060D01*
X058011Y062126D01*
X058043Y062202D01*
X058054Y062285D01*
X058043Y062367D01*
X058011Y062443D01*
X057961Y062509D01*
X057895Y062560D01*
X057818Y062592D01*
X057736Y062602D01*
D02*
G37*
G36*
X058622D02*
X058540Y062592D01*
X058463Y062560D01*
X058397Y062509D01*
X058347Y062443D01*
X058315Y062367D01*
X058304Y062285D01*
X058315Y062202D01*
X058347Y062126D01*
X058397Y062060D01*
X058463Y062010D01*
X058540Y061978D01*
X058622Y061967D01*
X058704Y061978D01*
X058781Y062010D01*
X058847Y062060D01*
X058897Y062126D01*
X058929Y062202D01*
X058940Y062285D01*
X058929Y062367D01*
X058897Y062443D01*
X058847Y062509D01*
X058781Y062560D01*
X058704Y062592D01*
X058622Y062602D01*
D02*
G37*
%LPD*%
G36*
X106180Y065979D02*
X103134Y062934D01*
X103100Y062882D01*
X103098Y062872D01*
X103087Y062820D01*
X103087Y062820D01*
Y062135D01*
X102332Y061379D01*
X101102D01*
X100239Y062641D01*
Y064456D01*
X100274Y064491D01*
X101811Y064489D01*
X102441Y065119D01*
Y067009D01*
X105000D01*
Y068348D01*
X106180D01*
Y065979D01*
D02*
G37*
G36*
X108307Y067521D02*
Y066716D01*
X108137D01*
X108060Y066706D01*
X107988Y066676D01*
X107926Y066629D01*
X107403Y066106D01*
X107326D01*
X107249Y066096D01*
X107228Y066087D01*
X107177Y066066D01*
X107115Y066019D01*
X107025Y065929D01*
X106629D01*
X106552Y065919D01*
X106543Y065915D01*
X106523Y065928D01*
X106501Y065981D01*
Y068348D01*
X107402D01*
X108307Y067521D01*
D02*
G37*
G36*
X140939Y068991D02*
X139439D01*
Y069698D01*
X139484Y069721D01*
X139516Y069696D01*
X139617Y069654D01*
X139726Y069640D01*
X139836Y069654D01*
X139937Y069696D01*
X140025Y069763D01*
X140092Y069851D01*
X140134Y069952D01*
X140148Y070061D01*
X140134Y070171D01*
X140092Y070272D01*
X140025Y070360D01*
X139937Y070427D01*
X139836Y070469D01*
X139726Y070483D01*
X139711Y070514D01*
X139939Y070741D01*
Y073635D01*
X140025Y073700D01*
X140092Y073788D01*
X140134Y073889D01*
X140148Y073998D01*
X140134Y074108D01*
X140092Y074209D01*
X140025Y074297D01*
X139939Y074362D01*
Y075591D01*
X136939Y078491D01*
X101039D01*
X098939Y075791D01*
Y073171D01*
X099039Y072861D01*
X099139Y072711D01*
X099309Y072521D01*
X099539Y072371D01*
X100139Y071811D01*
X100419Y071281D01*
X100439Y070741D01*
X101535Y069037D01*
X101409Y068761D01*
X100278Y068991D01*
X098666D01*
X098573Y068963D01*
X098434Y068889D01*
X098312Y068789D01*
X098212Y068667D01*
X098138Y068528D01*
X098092Y068377D01*
X098087Y068322D01*
Y059260D01*
X097435D01*
X097439Y068991D01*
Y079491D01*
X140939D01*
Y068991D01*
D02*
G37*
%LPC*%
G36*
X101831Y062602D02*
X101748Y062592D01*
X101672Y062560D01*
X101606Y062509D01*
X101556Y062443D01*
X101524Y062367D01*
X101513Y062285D01*
X101524Y062202D01*
X101556Y062126D01*
X101606Y062060D01*
X101672Y062010D01*
X101748Y061978D01*
X101831Y061967D01*
X101913Y061978D01*
X101990Y062010D01*
X102055Y062060D01*
X102106Y062126D01*
X102138Y062202D01*
X102148Y062285D01*
X102138Y062367D01*
X102106Y062443D01*
X102055Y062509D01*
X101990Y062560D01*
X101913Y062592D01*
X101831Y062602D01*
D02*
G37*
G36*
X102717D02*
X102634Y062592D01*
X102558Y062560D01*
X102492Y062509D01*
X102441Y062443D01*
X102410Y062367D01*
X102399Y062285D01*
X102410Y062202D01*
X102441Y062126D01*
X102492Y062060D01*
X102558Y062010D01*
X102634Y061978D01*
X102717Y061967D01*
X102799Y061978D01*
X102875Y062010D01*
X102941Y062060D01*
X102992Y062126D01*
X103023Y062202D01*
X103034Y062285D01*
X103023Y062367D01*
X102992Y062443D01*
X102941Y062509D01*
X102875Y062560D01*
X102799Y062592D01*
X102717Y062602D01*
D02*
G37*
%LPD*%
G36*
X017991Y090783D02*
X014946Y087737D01*
X014911Y087685D01*
X014909Y087675D01*
X014898Y087624D01*
X014898Y087624D01*
Y086938D01*
X014143Y086182D01*
X012913D01*
X012050Y087444D01*
Y089259D01*
X012085Y089294D01*
X013622Y089293D01*
X014252Y089922D01*
Y091812D01*
X016811D01*
Y093151D01*
X017991D01*
Y090783D01*
D02*
G37*
G36*
X020118Y092324D02*
Y091519D01*
X019948D01*
X019871Y091509D01*
X019799Y091480D01*
X019737Y091432D01*
X019214Y090909D01*
X019137D01*
X019060Y090899D01*
X019039Y090890D01*
X018988Y090869D01*
X018926Y090822D01*
X018836Y090732D01*
X018440D01*
X018363Y090722D01*
X018354Y090718D01*
X018334Y090731D01*
X018312Y090784D01*
Y093151D01*
X019213D01*
X020118Y092324D01*
D02*
G37*
G36*
X052750Y093794D02*
X051250D01*
Y094502D01*
X051295Y094524D01*
X051327Y094499D01*
X051428Y094457D01*
X051537Y094443D01*
X051647Y094457D01*
X051748Y094499D01*
X051836Y094566D01*
X051903Y094654D01*
X051945Y094755D01*
X051959Y094865D01*
X051945Y094974D01*
X051903Y095075D01*
X051836Y095163D01*
X051748Y095230D01*
X051647Y095272D01*
X051537Y095286D01*
X051522Y095317D01*
X051750Y095544D01*
Y098438D01*
X051836Y098503D01*
X051903Y098591D01*
X051945Y098692D01*
X051959Y098802D01*
X051945Y098911D01*
X051903Y099012D01*
X051836Y099100D01*
X051750Y099165D01*
Y100394D01*
X048750Y103294D01*
X012850D01*
X010750Y100594D01*
Y097974D01*
X010850Y097664D01*
X010950Y097514D01*
X011120Y097324D01*
X011350Y097174D01*
X011950Y096614D01*
X012230Y096084D01*
X012250Y095544D01*
X013346Y093840D01*
X013220Y093564D01*
X012089Y093794D01*
X010477D01*
X010384Y093766D01*
X010245Y093692D01*
X010123Y093592D01*
X010023Y093470D01*
X009949Y093331D01*
X009903Y093180D01*
X009898Y093125D01*
Y084063D01*
X009246D01*
X009250Y093794D01*
Y104294D01*
X052750D01*
Y093794D01*
D02*
G37*
%LPC*%
G36*
X013642Y087405D02*
X013560Y087395D01*
X013483Y087363D01*
X013417Y087312D01*
X013367Y087247D01*
X013335Y087170D01*
X013324Y087088D01*
X013335Y087006D01*
X013367Y086929D01*
X013417Y086863D01*
X013483Y086813D01*
X013560Y086781D01*
X013642Y086770D01*
X013724Y086781D01*
X013801Y086813D01*
X013866Y086863D01*
X013917Y086929D01*
X013949Y087006D01*
X013959Y087088D01*
X013949Y087170D01*
X013917Y087247D01*
X013866Y087312D01*
X013801Y087363D01*
X013724Y087395D01*
X013642Y087405D01*
D02*
G37*
G36*
X014528D02*
X014445Y087395D01*
X014369Y087363D01*
X014303Y087312D01*
X014252Y087247D01*
X014221Y087170D01*
X014210Y087088D01*
X014221Y087006D01*
X014252Y086929D01*
X014303Y086863D01*
X014369Y086813D01*
X014445Y086781D01*
X014528Y086770D01*
X014610Y086781D01*
X014686Y086813D01*
X014752Y086863D01*
X014803Y086929D01*
X014834Y087006D01*
X014845Y087088D01*
X014834Y087170D01*
X014803Y087247D01*
X014752Y087312D01*
X014686Y087363D01*
X014610Y087395D01*
X014528Y087405D01*
D02*
G37*
%LPD*%
G36*
X062085Y090783D02*
X059040Y087737D01*
X059005Y087685D01*
X059003Y087675D01*
X058993Y087624D01*
X058993Y087624D01*
Y086938D01*
X058237Y086182D01*
X057008D01*
X056144Y087444D01*
Y089259D01*
X056180Y089294D01*
X057717Y089293D01*
X058346Y089922D01*
Y091812D01*
X060906D01*
Y093151D01*
X062085D01*
Y090783D01*
D02*
G37*
G36*
X064213Y092324D02*
Y091519D01*
X064042D01*
X063965Y091509D01*
X063894Y091480D01*
X063832Y091432D01*
X063309Y090909D01*
X063231D01*
X063154Y090899D01*
X063133Y090890D01*
X063083Y090869D01*
X063021Y090822D01*
X062931Y090732D01*
X062534D01*
X062457Y090722D01*
X062448Y090718D01*
X062429Y090731D01*
X062407Y090784D01*
Y093151D01*
X063307D01*
X064213Y092324D01*
D02*
G37*
G36*
X096844Y093794D02*
X095344D01*
Y094502D01*
X095389Y094524D01*
X095421Y094499D01*
X095523Y094457D01*
X095632Y094443D01*
X095741Y094457D01*
X095843Y094499D01*
X095930Y094566D01*
X095997Y094654D01*
X096039Y094755D01*
X096054Y094865D01*
X096039Y094974D01*
X095997Y095075D01*
X095930Y095163D01*
X095843Y095230D01*
X095741Y095272D01*
X095632Y095286D01*
X095617Y095317D01*
X095844Y095544D01*
Y098438D01*
X095930Y098503D01*
X095997Y098591D01*
X096039Y098692D01*
X096054Y098802D01*
X096039Y098911D01*
X095997Y099012D01*
X095930Y099100D01*
X095844Y099165D01*
Y100394D01*
X092844Y103294D01*
X056944D01*
X054844Y100594D01*
Y097974D01*
X054944Y097664D01*
X055044Y097514D01*
X055214Y097324D01*
X055444Y097174D01*
X056044Y096614D01*
X056324Y096084D01*
X056344Y095544D01*
X057441Y093840D01*
X057314Y093564D01*
X056184Y093794D01*
X054572D01*
X054478Y093766D01*
X054339Y093692D01*
X054218Y093592D01*
X054118Y093470D01*
X054043Y093331D01*
X053998Y093180D01*
X053992Y093125D01*
Y084063D01*
X053341D01*
X053344Y093794D01*
Y104294D01*
X096844D01*
Y093794D01*
D02*
G37*
%LPC*%
G36*
X057736Y087405D02*
X057654Y087395D01*
X057577Y087363D01*
X057512Y087312D01*
X057461Y087247D01*
X057429Y087170D01*
X057419Y087088D01*
X057429Y087006D01*
X057461Y086929D01*
X057512Y086863D01*
X057577Y086813D01*
X057654Y086781D01*
X057736Y086770D01*
X057818Y086781D01*
X057895Y086813D01*
X057961Y086863D01*
X058011Y086929D01*
X058043Y087006D01*
X058054Y087088D01*
X058043Y087170D01*
X058011Y087247D01*
X057961Y087312D01*
X057895Y087363D01*
X057818Y087395D01*
X057736Y087405D01*
D02*
G37*
G36*
X058622D02*
X058540Y087395D01*
X058463Y087363D01*
X058397Y087312D01*
X058347Y087247D01*
X058315Y087170D01*
X058304Y087088D01*
X058315Y087006D01*
X058347Y086929D01*
X058397Y086863D01*
X058463Y086813D01*
X058540Y086781D01*
X058622Y086770D01*
X058704Y086781D01*
X058781Y086813D01*
X058847Y086863D01*
X058897Y086929D01*
X058929Y087006D01*
X058940Y087088D01*
X058929Y087170D01*
X058897Y087247D01*
X058847Y087312D01*
X058781Y087363D01*
X058704Y087395D01*
X058622Y087405D01*
D02*
G37*
%LPD*%
G36*
X106180Y090783D02*
X103134Y087737D01*
X103100Y087685D01*
X103098Y087675D01*
X103087Y087624D01*
X103087Y087624D01*
Y086938D01*
X102332Y086182D01*
X101102D01*
X100239Y087444D01*
Y089259D01*
X100274Y089294D01*
X101811Y089293D01*
X102441Y089922D01*
Y091812D01*
X105000D01*
Y093151D01*
X106180D01*
Y090783D01*
D02*
G37*
G36*
X108307Y092324D02*
Y091519D01*
X108137D01*
X108060Y091509D01*
X107988Y091480D01*
X107926Y091432D01*
X107403Y090909D01*
X107326D01*
X107249Y090899D01*
X107228Y090890D01*
X107177Y090869D01*
X107115Y090822D01*
X107025Y090732D01*
X106629D01*
X106552Y090722D01*
X106543Y090718D01*
X106523Y090731D01*
X106501Y090784D01*
Y093151D01*
X107402D01*
X108307Y092324D01*
D02*
G37*
G36*
X140939Y093794D02*
X139439D01*
Y094502D01*
X139484Y094524D01*
X139516Y094499D01*
X139617Y094457D01*
X139726Y094443D01*
X139836Y094457D01*
X139937Y094499D01*
X140025Y094566D01*
X140092Y094654D01*
X140134Y094755D01*
X140148Y094865D01*
X140134Y094974D01*
X140092Y095075D01*
X140025Y095163D01*
X139937Y095230D01*
X139836Y095272D01*
X139726Y095286D01*
X139711Y095317D01*
X139939Y095544D01*
Y098438D01*
X140025Y098503D01*
X140092Y098591D01*
X140134Y098692D01*
X140148Y098802D01*
X140134Y098911D01*
X140092Y099012D01*
X140025Y099100D01*
X139939Y099165D01*
Y100394D01*
X136939Y103294D01*
X101039D01*
X098939Y100594D01*
Y097974D01*
X099039Y097664D01*
X099139Y097514D01*
X099309Y097324D01*
X099539Y097174D01*
X100139Y096614D01*
X100419Y096084D01*
X100439Y095544D01*
X101535Y093840D01*
X101409Y093564D01*
X100278Y093794D01*
X098666D01*
X098573Y093766D01*
X098434Y093692D01*
X098312Y093592D01*
X098212Y093470D01*
X098138Y093331D01*
X098092Y093180D01*
X098087Y093125D01*
Y084063D01*
X097435D01*
X097439Y093794D01*
Y104294D01*
X140939D01*
Y093794D01*
D02*
G37*
%LPC*%
G36*
X101831Y087405D02*
X101748Y087395D01*
X101672Y087363D01*
X101606Y087312D01*
X101556Y087247D01*
X101524Y087170D01*
X101513Y087088D01*
X101524Y087006D01*
X101556Y086929D01*
X101606Y086863D01*
X101672Y086813D01*
X101748Y086781D01*
X101831Y086770D01*
X101913Y086781D01*
X101990Y086813D01*
X102055Y086863D01*
X102106Y086929D01*
X102138Y087006D01*
X102148Y087088D01*
X102138Y087170D01*
X102106Y087247D01*
X102055Y087312D01*
X101990Y087363D01*
X101913Y087395D01*
X101831Y087405D01*
D02*
G37*
G36*
X102717D02*
X102634Y087395D01*
X102558Y087363D01*
X102492Y087312D01*
X102441Y087247D01*
X102410Y087170D01*
X102399Y087088D01*
X102410Y087006D01*
X102441Y086929D01*
X102492Y086863D01*
X102558Y086813D01*
X102634Y086781D01*
X102717Y086770D01*
X102799Y086781D01*
X102875Y086813D01*
X102941Y086863D01*
X102992Y086929D01*
X103023Y087006D01*
X103034Y087088D01*
X103023Y087170D01*
X102992Y087247D01*
X102941Y087312D01*
X102875Y087363D01*
X102799Y087395D01*
X102717Y087405D01*
D02*
G37*
%LPD*%
D31*
X021014Y042851D02*
X021467Y043304D01*
X020799Y042636D02*
X021014Y042851D01*
X018919Y044569D02*
X020799Y042689D01*
X015749Y044569D02*
X018919D01*
X015468Y044288D02*
X015749Y044569D01*
X020799Y042636D02*
Y042689D01*
X022799Y042501D02*
Y042636D01*
X022132Y043304D02*
X022799Y042636D01*
X021467Y043304D02*
X022132D01*
X020799Y042501D02*
Y042636D01*
X009548Y034654D02*
X012026D01*
X009538Y039103D02*
X010688D01*
X012610Y044388D02*
X012970Y044028D01*
X014392D01*
X014632Y044268D01*
X015050Y041788D02*
Y043851D01*
X011160Y035914D02*
X012800Y037554D01*
X015315Y039253D02*
Y039942D01*
X065109Y042851D02*
X065561Y043304D01*
X064894Y042636D02*
X065109Y042851D01*
X063014Y044569D02*
X064894Y042689D01*
X059843Y044569D02*
X063014D01*
X059562Y044288D02*
X059843Y044569D01*
X064894Y042636D02*
Y042689D01*
X066894Y042501D02*
Y042636D01*
X066226Y043304D02*
X066894Y042636D01*
X065561Y043304D02*
X066226D01*
X064894Y042501D02*
Y042636D01*
X053642Y034654D02*
X056121D01*
X053632Y039103D02*
X054782D01*
X056704Y044388D02*
X057064Y044028D01*
X058487D01*
X058727Y044268D01*
X059144Y041788D02*
Y043851D01*
X055254Y035914D02*
X056894Y037554D01*
X059409Y039253D02*
Y039942D01*
X109203Y042851D02*
X109656Y043304D01*
X108988Y042636D02*
X109203Y042851D01*
X107108Y044569D02*
X108988Y042689D01*
X103938Y044569D02*
X107108D01*
X103657Y044288D02*
X103938Y044569D01*
X108988Y042636D02*
Y042689D01*
X110988Y042501D02*
Y042636D01*
X110321Y043304D02*
X110988Y042636D01*
X109656Y043304D02*
X110321D01*
X108988Y042501D02*
Y042636D01*
X097737Y034654D02*
X100215D01*
X097727Y039103D02*
X098877D01*
X100799Y044388D02*
X101159Y044028D01*
X102581D01*
X102821Y044268D01*
X103239Y041788D02*
Y043851D01*
X099349Y035914D02*
X100989Y037554D01*
X103504Y039253D02*
Y039942D01*
X021014Y067654D02*
X021467Y068107D01*
X020799Y067440D02*
X021014Y067654D01*
X018919Y069372D02*
X020799Y067493D01*
X015749Y069372D02*
X018919D01*
X015468Y069091D02*
X015749Y069372D01*
X020799Y067440D02*
Y067493D01*
X022799Y067304D02*
Y067440D01*
X022132Y068107D02*
X022799Y067440D01*
X021467Y068107D02*
X022132D01*
X020799Y067304D02*
Y067440D01*
X009548Y059457D02*
X012026D01*
X009538Y063906D02*
X010688D01*
X012610Y069191D02*
X012970Y068831D01*
X014392D01*
X014632Y069071D01*
X015050Y066591D02*
Y068654D01*
X011160Y060717D02*
X012800Y062357D01*
X015315Y064056D02*
Y064745D01*
X065109Y067654D02*
X065561Y068107D01*
X064894Y067440D02*
X065109Y067654D01*
X063014Y069372D02*
X064894Y067493D01*
X059843Y069372D02*
X063014D01*
X059562Y069091D02*
X059843Y069372D01*
X064894Y067440D02*
Y067493D01*
X066894Y067304D02*
Y067440D01*
X066226Y068107D02*
X066894Y067440D01*
X065561Y068107D02*
X066226D01*
X064894Y067304D02*
Y067440D01*
X053642Y059457D02*
X056121D01*
X053632Y063906D02*
X054782D01*
X056704Y069191D02*
X057064Y068831D01*
X058487D01*
X058727Y069071D01*
X059144Y066591D02*
Y068654D01*
X055254Y060717D02*
X056894Y062357D01*
X059409Y064056D02*
Y064745D01*
X109203Y067654D02*
X109656Y068107D01*
X108988Y067440D02*
X109203Y067654D01*
X107108Y069372D02*
X108988Y067493D01*
X103938Y069372D02*
X107108D01*
X103657Y069091D02*
X103938Y069372D01*
X108988Y067440D02*
Y067493D01*
X110988Y067304D02*
Y067440D01*
X110321Y068107D02*
X110988Y067440D01*
X109656Y068107D02*
X110321D01*
X108988Y067304D02*
Y067440D01*
X097737Y059457D02*
X100215D01*
X097727Y063906D02*
X098877D01*
X100799Y069191D02*
X101159Y068831D01*
X102581D01*
X102821Y069071D01*
X103239Y066591D02*
Y068654D01*
X099349Y060717D02*
X100989Y062357D01*
X103504Y064056D02*
Y064745D01*
X021014Y092458D02*
X021467Y092910D01*
X020799Y092243D02*
X021014Y092458D01*
X018919Y094176D02*
X020799Y092296D01*
X015749Y094176D02*
X018919D01*
X015468Y093894D02*
X015749Y094176D01*
X020799Y092243D02*
Y092296D01*
X022799Y092107D02*
Y092243D01*
X022132Y092910D02*
X022799Y092243D01*
X021467Y092910D02*
X022132D01*
X020799Y092107D02*
Y092243D01*
X009548Y084260D02*
X012026D01*
X009538Y088709D02*
X010688D01*
X012610Y093994D02*
X012970Y093634D01*
X014392D01*
X014632Y093874D01*
X015050Y091394D02*
Y093457D01*
X011160Y085520D02*
X012800Y087160D01*
X015315Y088859D02*
Y089548D01*
X065109Y092458D02*
X065561Y092910D01*
X064894Y092243D02*
X065109Y092458D01*
X063014Y094176D02*
X064894Y092296D01*
X059843Y094176D02*
X063014D01*
X059562Y093894D02*
X059843Y094176D01*
X064894Y092243D02*
Y092296D01*
X066894Y092107D02*
Y092243D01*
X066226Y092910D02*
X066894Y092243D01*
X065561Y092910D02*
X066226D01*
X064894Y092107D02*
Y092243D01*
X053642Y084260D02*
X056121D01*
X053632Y088709D02*
X054782D01*
X056704Y093994D02*
X057064Y093634D01*
X058487D01*
X058727Y093874D01*
X059144Y091394D02*
Y093457D01*
X055254Y085520D02*
X056894Y087160D01*
X059409Y088859D02*
Y089548D01*
X109203Y092458D02*
X109656Y092910D01*
X108988Y092243D02*
X109203Y092458D01*
X107108Y094176D02*
X108988Y092296D01*
X103938Y094176D02*
X107108D01*
X103657Y093894D02*
X103938Y094176D01*
X108988Y092243D02*
Y092296D01*
X110988Y092107D02*
Y092243D01*
X110321Y092910D02*
X110988Y092243D01*
X109656Y092910D02*
X110321D01*
X108988Y092107D02*
Y092243D01*
X097737Y084260D02*
X100215D01*
X097727Y088709D02*
X098877D01*
X100799Y093994D02*
X101159Y093634D01*
X102581D01*
X102821Y093874D01*
X103239Y091394D02*
Y093457D01*
X099349Y085520D02*
X100989Y087160D01*
X103504Y088859D02*
Y089548D01*
D32*
X021324Y043446D02*
X021467Y043304D01*
X021324Y043446D02*
Y044108D01*
X021535Y042297D02*
Y042403D01*
X012992Y051812D02*
Y051852D01*
Y051812D02*
X013937Y050867D01*
X012980Y036078D02*
X012990Y036068D01*
X040590Y053270D02*
X042480Y051379D01*
X019931Y053270D02*
X040590D01*
X019502Y052841D02*
X019931Y053270D01*
X019502Y052507D02*
Y052841D01*
X065419Y043446D02*
X065561Y043304D01*
X065419Y043446D02*
Y044108D01*
X065630Y042297D02*
Y042403D01*
X057087Y051812D02*
Y051852D01*
Y051812D02*
X058032Y050867D01*
X057074Y036078D02*
X057084Y036068D01*
X084684Y053270D02*
X086575Y051379D01*
X064026Y053270D02*
X084684D01*
X063597Y052841D02*
X064026Y053270D01*
X063597Y052507D02*
Y052841D01*
X109513Y043446D02*
X109656Y043304D01*
X109513Y043446D02*
Y044108D01*
X109724Y042297D02*
Y042403D01*
X101181Y051812D02*
Y051852D01*
Y051812D02*
X102126Y050867D01*
X101169Y036078D02*
X101179Y036068D01*
X128779Y053270D02*
X130669Y051379D01*
X108120Y053270D02*
X128779D01*
X107691Y052841D02*
X108120Y053270D01*
X107691Y052507D02*
Y052841D01*
X021324Y068249D02*
X021467Y068107D01*
X021324Y068249D02*
Y068911D01*
X021535Y067100D02*
Y067206D01*
X012992Y076615D02*
Y076655D01*
Y076615D02*
X013937Y075670D01*
X012980Y060881D02*
X012990Y060871D01*
X040590Y078073D02*
X042480Y076182D01*
X019931Y078073D02*
X040590D01*
X019502Y077644D02*
X019931Y078073D01*
X019502Y077310D02*
Y077644D01*
X065419Y068249D02*
X065561Y068107D01*
X065419Y068249D02*
Y068911D01*
X065630Y067100D02*
Y067206D01*
X057087Y076615D02*
Y076655D01*
Y076615D02*
X058032Y075670D01*
X057074Y060881D02*
X057084Y060871D01*
X084684Y078073D02*
X086575Y076182D01*
X064026Y078073D02*
X084684D01*
X063597Y077644D02*
X064026Y078073D01*
X063597Y077310D02*
Y077644D01*
X109513Y068249D02*
X109656Y068107D01*
X109513Y068249D02*
Y068911D01*
X109724Y067100D02*
Y067206D01*
X101181Y076615D02*
Y076655D01*
Y076615D02*
X102126Y075670D01*
X101169Y060881D02*
X101179Y060871D01*
X128779Y078073D02*
X130669Y076182D01*
X108120Y078073D02*
X128779D01*
X107691Y077644D02*
X108120Y078073D01*
X107691Y077310D02*
Y077644D01*
X021324Y093052D02*
X021467Y092910D01*
X021324Y093052D02*
Y093714D01*
X021535Y091903D02*
Y092009D01*
X012992Y101419D02*
Y101458D01*
Y101419D02*
X013937Y100474D01*
X012980Y085684D02*
X012990Y085674D01*
X040590Y102876D02*
X042480Y100985D01*
X019931Y102876D02*
X040590D01*
X019502Y102447D02*
X019931Y102876D01*
X019502Y102113D02*
Y102447D01*
X065419Y093052D02*
X065561Y092910D01*
X065419Y093052D02*
Y093714D01*
X065630Y091903D02*
Y092009D01*
X057087Y101419D02*
Y101458D01*
Y101419D02*
X058032Y100474D01*
X057074Y085684D02*
X057084Y085674D01*
X084684Y102876D02*
X086575Y100985D01*
X064026Y102876D02*
X084684D01*
X063597Y102447D02*
X064026Y102876D01*
X063597Y102113D02*
Y102447D01*
X109513Y093052D02*
X109656Y092910D01*
X109513Y093052D02*
Y093714D01*
X109724Y091903D02*
Y092009D01*
X101181Y101419D02*
Y101458D01*
Y101419D02*
X102126Y100474D01*
X101169Y085684D02*
X101179Y085674D01*
X128779Y102876D02*
X130669Y100985D01*
X108120Y102876D02*
X128779D01*
X107691Y102447D02*
X108120Y102876D01*
X107691Y102113D02*
Y102447D01*
D33*
X013937Y048867D02*
X015087D01*
X015907Y049687D01*
X013937Y047867D02*
X013948D01*
X024626Y042501D02*
X024799D01*
X058032Y048867D02*
X059182D01*
X060002Y049687D01*
X058032Y047867D02*
X058042D01*
X068720Y042501D02*
X068894D01*
X102126Y048867D02*
X103276D01*
X104096Y049687D01*
X102126Y047867D02*
X102137D01*
X112815Y042501D02*
X112988D01*
X013937Y073670D02*
X015087D01*
X015907Y074491D01*
X013937Y072670D02*
X013948D01*
X024626Y067304D02*
X024799D01*
X058032Y073670D02*
X059182D01*
X060002Y074491D01*
X058032Y072670D02*
X058042D01*
X068720Y067304D02*
X068894D01*
X102126Y073670D02*
X103276D01*
X104096Y074491D01*
X102126Y072670D02*
X102137D01*
X112815Y067304D02*
X112988D01*
X013937Y098474D02*
X015087D01*
X015907Y099294D01*
X013937Y097474D02*
X013948D01*
X024626Y092107D02*
X024799D01*
X058032Y098474D02*
X059182D01*
X060002Y099294D01*
X058032Y097474D02*
X058042D01*
X068720Y092107D02*
X068894D01*
X102126Y098474D02*
X103276D01*
X104096Y099294D01*
X102126Y097474D02*
X102137D01*
X112815Y092107D02*
X112988D01*
D35*
X020904Y042961D02*
X021014Y042851D01*
X018152Y043861D02*
X018189Y043899D01*
X018152Y041110D02*
Y043861D01*
X015059Y038017D02*
X018152Y041110D01*
X046714Y042315D02*
X047030Y041998D01*
X024635Y046753D02*
X027951Y043438D01*
X020831Y046753D02*
X024635D01*
X029841Y045454D02*
X034394D01*
X029610Y047858D02*
X029940Y048188D01*
X029610Y045685D02*
Y047858D01*
Y045685D02*
X029841Y045454D01*
X034394D02*
X034828Y045887D01*
X030004Y046104D02*
X032164Y048263D01*
X032970D01*
X037006Y045749D02*
X043270D01*
X036488Y046267D02*
X037006Y045749D01*
X035570Y044028D02*
Y046185D01*
X035488Y046267D02*
X035570Y046185D01*
X042631Y046720D02*
X043601Y045750D01*
X046048Y046947D02*
X046555Y046440D01*
X040127Y046720D02*
X042631D01*
X039908Y046947D02*
X046048D01*
X035259Y046720D02*
X039675D01*
X040039Y046632D02*
X040127Y046720D01*
X039763Y046632D02*
X040039D01*
X039675Y046720D02*
X039763Y046632D01*
X034031Y047948D02*
X035259Y046720D01*
X035700Y043713D02*
X035985Y043998D01*
X028868Y043713D02*
X035700D01*
X028799Y043782D02*
X028868Y043713D01*
X013599Y035304D02*
X015413Y037118D01*
X011468Y035304D02*
X013599D01*
X010510Y035645D02*
Y037233D01*
X011429Y035264D02*
X011468Y035304D01*
X010510Y035645D02*
X010891Y035264D01*
X011429D01*
X013906Y036112D02*
X015059Y037265D01*
X013034Y036112D02*
X013906D01*
X012990Y036068D02*
X013034Y036112D01*
X050190Y039318D02*
X050570D01*
X048653Y039552D02*
X049956D01*
X050190Y039318D01*
X048620Y039518D02*
X048653Y039552D01*
X047524Y039833D02*
X049278D01*
X049141Y040030D02*
X049772Y040661D01*
X047443Y040030D02*
X049141D01*
X049004Y040228D02*
X049380Y040603D01*
X047195Y040228D02*
X049004D01*
X048812Y040424D02*
X049260Y040873D01*
X048495Y040424D02*
X048812D01*
X047138Y039726D02*
X047443Y040030D01*
X047204Y039513D02*
X047524Y039833D01*
X049826Y039237D02*
X049828Y039235D01*
X050297Y039657D02*
X050298D01*
X050296Y039656D02*
X050297Y039657D01*
X048403Y038772D02*
X049974D01*
X047818Y039357D02*
X048403Y038772D01*
X049974D02*
X050190Y038988D01*
X050205Y041009D02*
X050679Y041483D01*
X050205Y039747D02*
Y041009D01*
X050568Y039267D02*
Y039316D01*
X050570Y039318D01*
X049691Y041394D02*
Y044021D01*
X049655Y041359D02*
X049691Y041394D01*
X050205Y039747D02*
X050296Y039656D01*
X049655Y041247D02*
Y041359D01*
X019948Y041615D02*
X020913D01*
X019338Y041005D02*
X019948Y041615D01*
X015413Y037802D02*
X018440Y040828D01*
X018960D01*
X019137Y041005D02*
X019338D01*
X018960Y040828D02*
X019137Y041005D01*
X015059Y037265D02*
Y038017D01*
X044773Y040070D02*
Y040109D01*
X040793Y043043D02*
X043616D01*
X045043Y041616D01*
X037460Y043288D02*
X040548D01*
X043270Y045749D02*
X043830Y045189D01*
X043961Y044874D02*
X044286Y045199D01*
X042098Y044874D02*
X043961D01*
X044042Y044677D02*
X044367Y045002D01*
X039175Y044677D02*
X044042D01*
X041694Y045277D02*
X042098Y044874D01*
X043601Y045750D02*
X045266D01*
X046094Y044921D01*
X046056Y047273D02*
X046791Y046538D01*
X043045Y050618D02*
X047146Y046517D01*
X045906Y048036D02*
X047640Y046302D01*
X046791Y046045D02*
Y046538D01*
X047146Y046192D02*
Y046517D01*
X047640Y046153D02*
Y046302D01*
X046497Y048216D02*
X049016Y045698D01*
X047107Y048531D02*
X050760Y044878D01*
X045906Y048036D02*
Y048347D01*
X046090Y048531D02*
X047107D01*
X046220Y048216D02*
X046497D01*
X049016Y044696D02*
Y045698D01*
X050760Y044414D02*
Y044878D01*
X045947Y045503D02*
Y046547D01*
X040813Y043899D02*
X041237D01*
X040675Y043762D02*
X040813Y043899D01*
X040895Y043702D02*
X041156D01*
X040718Y043525D02*
X040895Y043702D01*
X040548Y043288D02*
X040793Y043043D01*
X041238Y043899D02*
X042325D01*
X041237Y043899D02*
X041238Y043899D01*
X045132Y045002D02*
X045317Y044817D01*
Y044160D02*
Y044817D01*
X045214Y045199D02*
X045779Y044633D01*
X044367Y045002D02*
X045132D01*
X044286Y045199D02*
X045214D01*
X045779Y043976D02*
Y044633D01*
X050679Y041483D02*
Y044049D01*
X049760Y044968D02*
X050679Y044049D01*
X049390Y040603D02*
X049575Y040788D01*
X049380Y040603D02*
X049390D01*
X039791Y052247D02*
X040550Y051488D01*
X039426Y052011D02*
X040819Y050618D01*
X035296Y052011D02*
X039426D01*
X035031Y052247D02*
X039791D01*
X032970Y048263D02*
X033775Y049068D01*
X034460D01*
X033632Y049420D02*
X034550Y050338D01*
X031413Y049420D02*
X033632D01*
X029819Y051014D02*
X031413Y049420D01*
X028004Y051014D02*
X029819D01*
X042381Y042728D02*
X042913Y042196D01*
X041820Y042728D02*
X042381D01*
X043472Y043520D02*
X044915Y042078D01*
X041338Y043520D02*
X043472D01*
X043155Y044203D02*
X044765Y042593D01*
X042630Y044203D02*
X043155D01*
X044765Y042562D02*
Y042593D01*
X045043Y041616D02*
X045149D01*
X042548Y044400D02*
X043950D01*
X042244Y044096D02*
X042548Y044400D01*
X042325Y043899D02*
X042630Y044203D01*
X040732Y044096D02*
X042244D01*
X040633Y043998D02*
X040732Y044096D01*
X041156Y043702D02*
X041338Y043520D01*
X043950Y044400D02*
X044569Y043781D01*
X045002Y043695D02*
Y044687D01*
X045317Y044160D02*
X045912Y043565D01*
X045779Y043976D02*
X045964Y043791D01*
X047076D01*
X026799Y042501D02*
X027307Y043009D01*
X042913Y041802D02*
Y042196D01*
X020913Y041615D02*
X021799Y042501D01*
X045030Y039513D02*
X047204D01*
X046822Y039726D02*
X047138D01*
X044734Y039809D02*
X045030Y039513D01*
X044734Y039809D02*
Y040070D01*
X047061Y044204D02*
X048189Y045332D01*
X046577Y044204D02*
X047061D01*
X048189Y045332D02*
Y045356D01*
X046567Y044214D02*
X046577Y044204D01*
X045912Y043565D02*
X047295D01*
X048800Y041628D02*
Y042212D01*
X047610Y043402D02*
X048800Y042212D01*
X047610Y043402D02*
Y043695D01*
X047076Y043791D02*
X047165Y043880D01*
X047426D01*
X047610Y043695D01*
X049454Y041169D02*
Y041836D01*
X048543Y042747D02*
X049454Y041836D01*
X048543Y042747D02*
Y045502D01*
X045654Y043043D02*
X047154D01*
X045002Y043695D02*
X045654Y043043D01*
X045556Y042807D02*
X047057D01*
X045064Y043299D02*
X045556Y042807D01*
X044864Y043299D02*
X045064D01*
X047817Y041603D02*
Y042380D01*
Y041603D02*
X048681Y040739D01*
X047154Y043043D02*
X047817Y042380D01*
X047621Y041299D02*
Y042243D01*
X047076Y042787D02*
X047621Y042243D01*
X046614Y039933D02*
Y041399D01*
X036596Y047273D02*
X046056D01*
X040819Y050618D02*
X043045D01*
X046555Y045948D02*
Y046440D01*
X050760Y044414D02*
X051270Y043904D01*
Y043438D02*
Y043904D01*
Y043438D02*
X051620Y043088D01*
X052550D01*
X045906Y048347D02*
X046090Y048531D01*
X051930Y040878D02*
X052030Y040778D01*
X050520Y040878D02*
X051930D01*
X052043Y039971D02*
X052050Y039978D01*
X050783Y039971D02*
X052043D01*
X049655Y041247D02*
X049772Y041130D01*
Y040661D02*
Y041130D01*
X049575Y040788D02*
Y041049D01*
X049454Y041169D02*
X049575Y041049D01*
X049969Y041227D02*
X050050Y041308D01*
X049260Y040873D02*
Y040918D01*
X048780Y042956D02*
X048978Y042758D01*
X046614Y039933D02*
X046822Y039726D01*
X047008Y040041D02*
X047195Y040228D01*
X047621Y041299D02*
X048495Y040424D01*
X049016Y044696D02*
X049691Y044021D01*
X046863Y041626D02*
X047156D01*
X046410Y042078D02*
X046863Y041626D01*
X010510Y037233D02*
X011160Y037882D01*
X042300Y047588D02*
Y048988D01*
X035305Y048564D02*
X036596Y047273D01*
X042750Y047888D02*
Y048588D01*
X037050Y047738D02*
X037100D01*
X037110Y047748D01*
X034200Y048538D02*
Y048552D01*
X034213Y048564D01*
X037110Y051398D02*
X037150Y051438D01*
X037110Y047748D02*
Y051398D01*
X032903Y049617D02*
X035296Y052011D01*
X032756Y049972D02*
X035031Y052247D01*
X046024Y042571D02*
X046043Y042551D01*
X045258Y042571D02*
X046024D01*
X046940Y042551D02*
X047364Y042127D01*
X047156Y041626D02*
X047364Y041833D01*
X044915Y042078D02*
X046410D01*
X045120Y042708D02*
X045258Y042571D01*
X046043Y042551D02*
X046940D01*
X047364Y041833D02*
Y042127D01*
X048042Y045710D02*
X048336D01*
X047895Y045563D02*
X048042Y045710D01*
X046940Y045563D02*
X047895D01*
X046555Y045948D02*
X046940Y045563D01*
X047944Y045946D02*
X048434D01*
X047797Y045799D02*
X047944Y045946D01*
X047038Y045799D02*
X047797D01*
X048780Y042956D02*
Y045600D01*
X048336Y045710D02*
X048543Y045502D01*
X045947Y045503D02*
X046930Y044519D01*
X046791Y046045D02*
X047038Y045799D01*
X048434Y045946D02*
X048780Y045600D01*
X034213Y048564D02*
X035305D01*
X044734Y040070D02*
X044773Y040109D01*
X045199Y042315D02*
X045213Y042330D01*
X045930D01*
X045945Y042315D01*
X046714D01*
X044194Y041448D02*
X044401Y041655D01*
X046596Y041381D02*
X046614Y041399D01*
X046596Y041379D02*
Y041381D01*
X041457Y042590D02*
X042599Y041448D01*
X040897Y042561D02*
Y042562D01*
X040925Y042590D01*
X041457D01*
X046094Y044106D02*
Y044921D01*
X047012Y041980D02*
X047030Y041998D01*
X047010Y041980D02*
X047012D01*
X047057Y042807D02*
X047076Y042787D01*
X046141D02*
X047076D01*
X042599Y041448D02*
X044194D01*
X041378Y042206D02*
X042372Y041212D01*
X040906Y042206D02*
X041378D01*
X042760Y043858D02*
Y043888D01*
X020831Y051753D02*
X023621D01*
X045356Y041212D02*
X045868Y041724D01*
X042372Y041212D02*
X045356D01*
X044765Y042562D02*
X045012Y042315D01*
X045199D01*
X036339Y048080D02*
X036640Y048381D01*
Y051138D01*
X030858Y051369D02*
X032609Y049617D01*
X032903D01*
X032410Y047948D02*
X034031D01*
X027857Y051369D02*
X030858D01*
X027739Y051250D02*
X027857Y051369D01*
X023621Y051753D02*
X024125Y051250D01*
X027739D01*
X049278Y039833D02*
X049969Y040524D01*
Y041227D01*
X027307Y043009D02*
X036735D01*
X038850Y044352D02*
X039175Y044677D01*
X035985Y043998D02*
X040633D01*
X036735Y043009D02*
X037330Y043603D01*
X037590D01*
X037668Y043525D01*
X040718D01*
X037137Y043800D02*
X038553D01*
X038591Y043762D01*
X040675D01*
X036774Y043438D02*
X037137Y043800D01*
X027951Y043438D02*
X036774D01*
X015413Y037118D02*
Y037802D01*
X027030Y049256D02*
X028050Y048237D01*
X025625Y050256D02*
X026625Y049256D01*
X020625Y050256D02*
X025625D01*
X026625Y049256D02*
X027030D01*
X028050Y047828D02*
Y048237D01*
X019394Y052338D02*
X019792D01*
X020110Y050771D02*
X020625Y050256D01*
X020110Y050771D02*
Y052020D01*
X019792Y052338D02*
X020110Y052020D01*
X064998Y042961D02*
X065109Y042851D01*
X062246Y043861D02*
X062283Y043899D01*
X062246Y041110D02*
Y043861D01*
X059154Y038017D02*
X062246Y041110D01*
X090808Y042315D02*
X091124Y041998D01*
X068730Y046753D02*
X072045Y043438D01*
X064925Y046753D02*
X068730D01*
X073935Y045454D02*
X078489D01*
X073705Y047858D02*
X074034Y048188D01*
X073705Y045685D02*
Y047858D01*
Y045685D02*
X073935Y045454D01*
X078489D02*
X078922Y045887D01*
X074098Y046104D02*
X076258Y048263D01*
X077065D01*
X081100Y045749D02*
X087364D01*
X080582Y046267D02*
X081100Y045749D01*
X079664Y044028D02*
Y046185D01*
X079582Y046267D02*
X079664Y046185D01*
X086726Y046720D02*
X087696Y045750D01*
X090142Y046947D02*
X090650Y046440D01*
X084222Y046720D02*
X086726D01*
X084002Y046947D02*
X090142D01*
X079354Y046720D02*
X083770D01*
X084134Y046632D02*
X084222Y046720D01*
X083857Y046632D02*
X084134D01*
X083770Y046720D02*
X083857Y046632D01*
X078125Y047948D02*
X079354Y046720D01*
X079795Y043713D02*
X080079Y043998D01*
X072962Y043713D02*
X079795D01*
X072894Y043782D02*
X072962Y043713D01*
X057693Y035304D02*
X059508Y037118D01*
X055563Y035304D02*
X057693D01*
X054605Y035645D02*
Y037233D01*
X055524Y035264D02*
X055563Y035304D01*
X054605Y035645D02*
X054985Y035264D01*
X055524D01*
X058000Y036112D02*
X059154Y037265D01*
X057128Y036112D02*
X058000D01*
X057084Y036068D02*
X057128Y036112D01*
X094284Y039318D02*
X094664D01*
X092748Y039552D02*
X094051D01*
X094284Y039318D01*
X092714Y039518D02*
X092748Y039552D01*
X091619Y039833D02*
X093373D01*
X093235Y040030D02*
X093866Y040661D01*
X091537Y040030D02*
X093235D01*
X093099Y040228D02*
X093475Y040603D01*
X091289Y040228D02*
X093099D01*
X092906Y040424D02*
X093354Y040873D01*
X092589Y040424D02*
X092906D01*
X091233Y039726D02*
X091537Y040030D01*
X091299Y039513D02*
X091619Y039833D01*
X093920Y039237D02*
X093922Y039235D01*
X094391Y039657D02*
X094392D01*
X094390Y039656D02*
X094391Y039657D01*
X092497Y038772D02*
X094069D01*
X091912Y039357D02*
X092497Y038772D01*
X094069D02*
X094284Y038988D01*
X094300Y041009D02*
X094774Y041483D01*
X094300Y039747D02*
Y041009D01*
X094662Y039267D02*
Y039316D01*
X094664Y039318D01*
X093785Y041394D02*
Y044021D01*
X093750Y041359D02*
X093785Y041394D01*
X094300Y039747D02*
X094390Y039656D01*
X093750Y041247D02*
Y041359D01*
X064042Y041615D02*
X065008D01*
X063432Y041005D02*
X064042Y041615D01*
X059508Y037802D02*
X062534Y040828D01*
X063054D01*
X063231Y041005D02*
X063432D01*
X063054Y040828D02*
X063231Y041005D01*
X059154Y037265D02*
Y038017D01*
X088868Y040070D02*
Y040109D01*
X084887Y043043D02*
X087710D01*
X089138Y041616D01*
X081554Y043288D02*
X084642D01*
X087364Y045749D02*
X087925Y045189D01*
X088055Y044874D02*
X088380Y045199D01*
X086193Y044874D02*
X088055D01*
X088137Y044677D02*
X088462Y045002D01*
X083269Y044677D02*
X088137D01*
X085789Y045277D02*
X086193Y044874D01*
X087696Y045750D02*
X089360D01*
X090189Y044921D01*
X090150Y047273D02*
X090886Y046538D01*
X087139Y050618D02*
X091240Y046517D01*
X090000Y048036D02*
X091734Y046302D01*
X090886Y046045D02*
Y046538D01*
X091240Y046192D02*
Y046517D01*
X091734Y046153D02*
Y046302D01*
X090592Y048216D02*
X093110Y045698D01*
X091201Y048531D02*
X094854Y044878D01*
X090000Y048036D02*
Y048347D01*
X090184Y048531D02*
X091201D01*
X090315Y048216D02*
X090592D01*
X093110Y044696D02*
Y045698D01*
X094854Y044414D02*
Y044878D01*
X090041Y045503D02*
Y046547D01*
X084908Y043899D02*
X085332D01*
X084770Y043762D02*
X084908Y043899D01*
X084989Y043702D02*
X085250D01*
X084812Y043525D02*
X084989Y043702D01*
X084642Y043288D02*
X084887Y043043D01*
X085332Y043899D02*
X086420D01*
X085332Y043899D02*
X085332Y043899D01*
X089227Y045002D02*
X089411Y044817D01*
Y044160D02*
Y044817D01*
X089308Y045199D02*
X089874Y044633D01*
X088462Y045002D02*
X089227D01*
X088380Y045199D02*
X089308D01*
X089874Y043976D02*
Y044633D01*
X094774Y041483D02*
Y044049D01*
X093854Y044968D02*
X094774Y044049D01*
X093485Y040603D02*
X093669Y040788D01*
X093475Y040603D02*
X093485D01*
X083886Y052247D02*
X084644Y051488D01*
X083521Y052011D02*
X084913Y050618D01*
X079390Y052011D02*
X083521D01*
X079126Y052247D02*
X083886D01*
X077065Y048263D02*
X077870Y049068D01*
X078554D01*
X077727Y049420D02*
X078644Y050338D01*
X075508Y049420D02*
X077727D01*
X073914Y051014D02*
X075508Y049420D01*
X072098Y051014D02*
X073914D01*
X086476Y042728D02*
X087008Y042196D01*
X085914Y042728D02*
X086476D01*
X087567Y043520D02*
X089009Y042078D01*
X085432Y043520D02*
X087567D01*
X087250Y044203D02*
X088860Y042593D01*
X086724Y044203D02*
X087250D01*
X088860Y042562D02*
Y042593D01*
X089138Y041616D02*
X089244D01*
X086642Y044400D02*
X088044D01*
X086339Y044096D02*
X086642Y044400D01*
X086420Y043899D02*
X086724Y044203D01*
X084826Y044096D02*
X086339D01*
X084728Y043998D02*
X084826Y044096D01*
X085250Y043702D02*
X085432Y043520D01*
X088044Y044400D02*
X088663Y043781D01*
X089096Y043695D02*
Y044687D01*
X089411Y044160D02*
X090006Y043565D01*
X089874Y043976D02*
X090058Y043791D01*
X091171D01*
X070894Y042501D02*
X071401Y043009D01*
X087008Y041802D02*
Y042196D01*
X065008Y041615D02*
X065894Y042501D01*
X089124Y039513D02*
X091299D01*
X090916Y039726D02*
X091233D01*
X088828Y039809D02*
X089124Y039513D01*
X088828Y039809D02*
Y040070D01*
X091155Y044204D02*
X092283Y045332D01*
X090672Y044204D02*
X091155D01*
X092283Y045332D02*
Y045356D01*
X090661Y044214D02*
X090672Y044204D01*
X090006Y043565D02*
X091390D01*
X092894Y041628D02*
Y042212D01*
X091705Y043402D02*
X092894Y042212D01*
X091705Y043402D02*
Y043695D01*
X091171Y043791D02*
X091259Y043880D01*
X091520D01*
X091705Y043695D01*
X093549Y041169D02*
Y041836D01*
X092638Y042747D02*
X093549Y041836D01*
X092638Y042747D02*
Y045502D01*
X089748Y043043D02*
X091249D01*
X089096Y043695D02*
X089748Y043043D01*
X089651Y042807D02*
X091151D01*
X089159Y043299D02*
X089651Y042807D01*
X088958Y043299D02*
X089159D01*
X091912Y041603D02*
Y042380D01*
Y041603D02*
X092776Y040739D01*
X091249Y043043D02*
X091912Y042380D01*
X091715Y041299D02*
Y042243D01*
X091171Y042787D02*
X091715Y042243D01*
X090709Y039933D02*
Y041399D01*
X080691Y047273D02*
X090150D01*
X084913Y050618D02*
X087139D01*
X090650Y045948D02*
Y046440D01*
X094854Y044414D02*
X095364Y043904D01*
Y043438D02*
Y043904D01*
Y043438D02*
X095714Y043088D01*
X096644D01*
X090000Y048347D02*
X090184Y048531D01*
X096024Y040878D02*
X096124Y040778D01*
X094614Y040878D02*
X096024D01*
X096138Y039971D02*
X096144Y039978D01*
X094878Y039971D02*
X096138D01*
X093750Y041247D02*
X093866Y041130D01*
Y040661D02*
Y041130D01*
X093669Y040788D02*
Y041049D01*
X093549Y041169D02*
X093669Y041049D01*
X094063Y041227D02*
X094144Y041308D01*
X093354Y040873D02*
Y040918D01*
X092874Y042956D02*
X093073Y042758D01*
X090709Y039933D02*
X090916Y039726D01*
X091102Y040041D02*
X091289Y040228D01*
X091715Y041299D02*
X092589Y040424D01*
X093110Y044696D02*
X093785Y044021D01*
X090957Y041626D02*
X091251D01*
X090505Y042078D02*
X090957Y041626D01*
X054605Y037233D02*
X055254Y037882D01*
X086394Y047588D02*
Y048988D01*
X079400Y048564D02*
X080691Y047273D01*
X086844Y047888D02*
Y048588D01*
X081144Y047738D02*
X081194D01*
X081204Y047748D01*
X078294Y048538D02*
Y048552D01*
X078307Y048564D01*
X081204Y051398D02*
X081244Y051438D01*
X081204Y047748D02*
Y051398D01*
X076997Y049617D02*
X079390Y052011D01*
X076850Y049972D02*
X079126Y052247D01*
X090118Y042571D02*
X090138Y042551D01*
X089352Y042571D02*
X090118D01*
X091034Y042551D02*
X091459Y042127D01*
X091251Y041626D02*
X091459Y041833D01*
X089009Y042078D02*
X090505D01*
X089214Y042708D02*
X089352Y042571D01*
X090138Y042551D02*
X091034D01*
X091459Y041833D02*
Y042127D01*
X092137Y045710D02*
X092430D01*
X091990Y045563D02*
X092137Y045710D01*
X091034Y045563D02*
X091990D01*
X090650Y045948D02*
X091034Y045563D01*
X092039Y045946D02*
X092528D01*
X091892Y045799D02*
X092039Y045946D01*
X091132Y045799D02*
X091892D01*
X092874Y042956D02*
Y045600D01*
X092430Y045710D02*
X092638Y045502D01*
X090041Y045503D02*
X091025Y044519D01*
X090886Y046045D02*
X091132Y045799D01*
X092528Y045946D02*
X092874Y045600D01*
X078307Y048564D02*
X079400D01*
X088828Y040070D02*
X088868Y040109D01*
X089293Y042315D02*
X089308Y042330D01*
X090025D01*
X090040Y042315D01*
X090808D01*
X088289Y041448D02*
X088496Y041655D01*
X090691Y041381D02*
X090709Y041399D01*
X090691Y041379D02*
Y041381D01*
X085552Y042590D02*
X086694Y041448D01*
X084992Y042561D02*
Y042562D01*
X085020Y042590D01*
X085552D01*
X090189Y044106D02*
Y044921D01*
X091106Y041980D02*
X091124Y041998D01*
X091104Y041980D02*
X091106D01*
X091151Y042807D02*
X091171Y042787D01*
X090236D02*
X091171D01*
X086694Y041448D02*
X088289D01*
X085472Y042206D02*
X086467Y041212D01*
X085000Y042206D02*
X085472D01*
X086854Y043858D02*
Y043888D01*
X064925Y051753D02*
X067716D01*
X089450Y041212D02*
X089962Y041724D01*
X086467Y041212D02*
X089450D01*
X088860Y042562D02*
X089107Y042315D01*
X089293D01*
X080433Y048080D02*
X080734Y048381D01*
Y051138D01*
X074952Y051369D02*
X076704Y049617D01*
X076997D01*
X076504Y047948D02*
X078125D01*
X071952Y051369D02*
X074952D01*
X071833Y051250D02*
X071952Y051369D01*
X067716Y051753D02*
X068219Y051250D01*
X071833D01*
X093373Y039833D02*
X094063Y040524D01*
Y041227D01*
X071401Y043009D02*
X080830D01*
X082944Y044352D02*
X083269Y044677D01*
X080079Y043998D02*
X084728D01*
X080830Y043009D02*
X081424Y043603D01*
X081685D01*
X081763Y043525D01*
X084812D01*
X081231Y043800D02*
X082648D01*
X082686Y043762D01*
X084770D01*
X080869Y043438D02*
X081231Y043800D01*
X072045Y043438D02*
X080869D01*
X059508Y037118D02*
Y037802D01*
X071125Y049256D02*
X072144Y048237D01*
X069719Y050256D02*
X070719Y049256D01*
X064719Y050256D02*
X069719D01*
X070719Y049256D02*
X071125D01*
X072144Y047828D02*
Y048237D01*
X063489Y052338D02*
X063887D01*
X064205Y050771D02*
X064719Y050256D01*
X064205Y050771D02*
Y052020D01*
X063887Y052338D02*
X064205Y052020D01*
X109093Y042961D02*
X109203Y042851D01*
X106341Y043861D02*
X106378Y043899D01*
X106341Y041110D02*
Y043861D01*
X103248Y038017D02*
X106341Y041110D01*
X134902Y042315D02*
X135219Y041998D01*
X112824Y046753D02*
X116140Y043438D01*
X109020Y046753D02*
X112824D01*
X118030Y045454D02*
X122583D01*
X117799Y047858D02*
X118129Y048188D01*
X117799Y045685D02*
Y047858D01*
Y045685D02*
X118030Y045454D01*
X122583D02*
X123017Y045887D01*
X118193Y046104D02*
X120353Y048263D01*
X121159D01*
X125195Y045749D02*
X131459D01*
X124677Y046267D02*
X125195Y045749D01*
X123759Y044028D02*
Y046185D01*
X123677Y046267D02*
X123759Y046185D01*
X130820Y046720D02*
X131790Y045750D01*
X134237Y046947D02*
X134744Y046440D01*
X128316Y046720D02*
X130820D01*
X128097Y046947D02*
X134237D01*
X123448Y046720D02*
X127864D01*
X128228Y046632D02*
X128316Y046720D01*
X127952Y046632D02*
X128228D01*
X127864Y046720D02*
X127952Y046632D01*
X122220Y047948D02*
X123448Y046720D01*
X123889Y043713D02*
X124174Y043998D01*
X117057Y043713D02*
X123889D01*
X116988Y043782D02*
X117057Y043713D01*
X101788Y035304D02*
X103602Y037118D01*
X099657Y035304D02*
X101788D01*
X098699Y035645D02*
Y037233D01*
X099618Y035264D02*
X099657Y035304D01*
X098699Y035645D02*
X099080Y035264D01*
X099618D01*
X102095Y036112D02*
X103248Y037265D01*
X101223Y036112D02*
X102095D01*
X101179Y036068D02*
X101223Y036112D01*
X138379Y039318D02*
X138759D01*
X136842Y039552D02*
X138145D01*
X138379Y039318D01*
X136809Y039518D02*
X136842Y039552D01*
X135713Y039833D02*
X137467D01*
X137330Y040030D02*
X137961Y040661D01*
X135632Y040030D02*
X137330D01*
X137193Y040228D02*
X137569Y040603D01*
X135384Y040228D02*
X137193D01*
X137001Y040424D02*
X137449Y040873D01*
X136684Y040424D02*
X137001D01*
X135327Y039726D02*
X135632Y040030D01*
X135393Y039513D02*
X135713Y039833D01*
X138015Y039237D02*
X138017Y039235D01*
X138485Y039657D02*
X138487D01*
X138485Y039656D02*
X138485Y039657D01*
X136592Y038772D02*
X138163D01*
X136007Y039357D02*
X136592Y038772D01*
X138163D02*
X138379Y038988D01*
X138394Y041009D02*
X138868Y041483D01*
X138394Y039747D02*
Y041009D01*
X138757Y039267D02*
Y039316D01*
X138759Y039318D01*
X137880Y041394D02*
Y044021D01*
X137844Y041359D02*
X137880Y041394D01*
X138394Y039747D02*
X138485Y039656D01*
X137844Y041247D02*
Y041359D01*
X108137Y041615D02*
X109102D01*
X107527Y041005D02*
X108137Y041615D01*
X103602Y037802D02*
X106629Y040828D01*
X107149D01*
X107326Y041005D02*
X107527D01*
X107149Y040828D02*
X107326Y041005D01*
X103248Y037265D02*
Y038017D01*
X132962Y040070D02*
Y040109D01*
X128982Y043043D02*
X131805D01*
X133232Y041616D01*
X125649Y043288D02*
X128737D01*
X131459Y045749D02*
X132019Y045189D01*
X132150Y044874D02*
X132475Y045199D01*
X130287Y044874D02*
X132150D01*
X132231Y044677D02*
X132556Y045002D01*
X127364Y044677D02*
X132231D01*
X129883Y045277D02*
X130287Y044874D01*
X131790Y045750D02*
X133455D01*
X134283Y044921D01*
X134245Y047273D02*
X134980Y046538D01*
X131234Y050618D02*
X135335Y046517D01*
X134094Y048036D02*
X135829Y046302D01*
X134980Y046045D02*
Y046538D01*
X135335Y046192D02*
Y046517D01*
X135829Y046153D02*
Y046302D01*
X134686Y048216D02*
X137205Y045698D01*
X135296Y048531D02*
X138949Y044878D01*
X134094Y048036D02*
Y048347D01*
X134279Y048531D02*
X135296D01*
X134409Y048216D02*
X134686D01*
X137205Y044696D02*
Y045698D01*
X138949Y044414D02*
Y044878D01*
X134136Y045503D02*
Y046547D01*
X129002Y043899D02*
X129426D01*
X128864Y043762D02*
X129002Y043899D01*
X129084Y043702D02*
X129345D01*
X128907Y043525D02*
X129084Y043702D01*
X128737Y043288D02*
X128982Y043043D01*
X129427Y043899D02*
X130514D01*
X129426Y043899D02*
X129427Y043899D01*
X133321Y045002D02*
X133506Y044817D01*
Y044160D02*
Y044817D01*
X133403Y045199D02*
X133968Y044633D01*
X132556Y045002D02*
X133321D01*
X132475Y045199D02*
X133403D01*
X133968Y043976D02*
Y044633D01*
X138868Y041483D02*
Y044049D01*
X137949Y044968D02*
X138868Y044049D01*
X137579Y040603D02*
X137764Y040788D01*
X137569Y040603D02*
X137579D01*
X127980Y052247D02*
X128739Y051488D01*
X127615Y052011D02*
X129008Y050618D01*
X123485Y052011D02*
X127615D01*
X123220Y052247D02*
X127980D01*
X121159Y048263D02*
X121964Y049068D01*
X122649D01*
X121821Y049420D02*
X122739Y050338D01*
X119602Y049420D02*
X121821D01*
X118008Y051014D02*
X119602Y049420D01*
X116193Y051014D02*
X118008D01*
X130570Y042728D02*
X131102Y042196D01*
X130009Y042728D02*
X130570D01*
X131661Y043520D02*
X133103Y042078D01*
X129527Y043520D02*
X131661D01*
X131344Y044203D02*
X132954Y042593D01*
X130819Y044203D02*
X131344D01*
X132954Y042562D02*
Y042593D01*
X133232Y041616D02*
X133338D01*
X130737Y044400D02*
X132139D01*
X130433Y044096D02*
X130737Y044400D01*
X130514Y043899D02*
X130819Y044203D01*
X128921Y044096D02*
X130433D01*
X128822Y043998D02*
X128921Y044096D01*
X129345Y043702D02*
X129527Y043520D01*
X132139Y044400D02*
X132758Y043781D01*
X133191Y043695D02*
Y044687D01*
X133506Y044160D02*
X134101Y043565D01*
X133968Y043976D02*
X134153Y043791D01*
X135265D01*
X114988Y042501D02*
X115496Y043009D01*
X131102Y041802D02*
Y042196D01*
X109102Y041615D02*
X109988Y042501D01*
X133219Y039513D02*
X135393D01*
X135011Y039726D02*
X135327D01*
X132923Y039809D02*
X133219Y039513D01*
X132923Y039809D02*
Y040070D01*
X135250Y044204D02*
X136378Y045332D01*
X134766Y044204D02*
X135250D01*
X136378Y045332D02*
Y045356D01*
X134756Y044214D02*
X134766Y044204D01*
X134101Y043565D02*
X135484D01*
X136989Y041628D02*
Y042212D01*
X135799Y043402D02*
X136989Y042212D01*
X135799Y043402D02*
Y043695D01*
X135265Y043791D02*
X135354Y043880D01*
X135615D01*
X135799Y043695D01*
X137643Y041169D02*
Y041836D01*
X136732Y042747D02*
X137643Y041836D01*
X136732Y042747D02*
Y045502D01*
X133843Y043043D02*
X135343D01*
X133191Y043695D02*
X133843Y043043D01*
X133745Y042807D02*
X135246D01*
X133253Y043299D02*
X133745Y042807D01*
X133053Y043299D02*
X133253D01*
X136006Y041603D02*
Y042380D01*
Y041603D02*
X136870Y040739D01*
X135343Y043043D02*
X136006Y042380D01*
X135810Y041299D02*
Y042243D01*
X135265Y042787D02*
X135810Y042243D01*
X134803Y039933D02*
Y041399D01*
X124785Y047273D02*
X134245D01*
X129008Y050618D02*
X131234D01*
X134744Y045948D02*
Y046440D01*
X138949Y044414D02*
X139459Y043904D01*
Y043438D02*
Y043904D01*
Y043438D02*
X139809Y043088D01*
X140739D01*
X134094Y048347D02*
X134279Y048531D01*
X140119Y040878D02*
X140219Y040778D01*
X138709Y040878D02*
X140119D01*
X140232Y039971D02*
X140239Y039978D01*
X138972Y039971D02*
X140232D01*
X137844Y041247D02*
X137961Y041130D01*
Y040661D02*
Y041130D01*
X137764Y040788D02*
Y041049D01*
X137643Y041169D02*
X137764Y041049D01*
X138158Y041227D02*
X138239Y041308D01*
X137449Y040873D02*
Y040918D01*
X136969Y042956D02*
X137167Y042758D01*
X134803Y039933D02*
X135011Y039726D01*
X135197Y040041D02*
X135384Y040228D01*
X135810Y041299D02*
X136684Y040424D01*
X137205Y044696D02*
X137880Y044021D01*
X135052Y041626D02*
X135345D01*
X134599Y042078D02*
X135052Y041626D01*
X098699Y037233D02*
X099349Y037882D01*
X130489Y047588D02*
Y048988D01*
X123494Y048564D02*
X124785Y047273D01*
X130939Y047888D02*
Y048588D01*
X125239Y047738D02*
X125289D01*
X125299Y047748D01*
X122389Y048538D02*
Y048552D01*
X122402Y048564D01*
X125299Y051398D02*
X125339Y051438D01*
X125299Y047748D02*
Y051398D01*
X121092Y049617D02*
X123485Y052011D01*
X120945Y049972D02*
X123220Y052247D01*
X134212Y042571D02*
X134232Y042551D01*
X133447Y042571D02*
X134212D01*
X135129Y042551D02*
X135553Y042127D01*
X135345Y041626D02*
X135553Y041833D01*
X133103Y042078D02*
X134599D01*
X133309Y042708D02*
X133447Y042571D01*
X134232Y042551D02*
X135129D01*
X135553Y041833D02*
Y042127D01*
X136231Y045710D02*
X136525D01*
X136084Y045563D02*
X136231Y045710D01*
X135129Y045563D02*
X136084D01*
X134744Y045948D02*
X135129Y045563D01*
X136133Y045946D02*
X136623D01*
X135986Y045799D02*
X136133Y045946D01*
X135227Y045799D02*
X135986D01*
X136969Y042956D02*
Y045600D01*
X136525Y045710D02*
X136732Y045502D01*
X134136Y045503D02*
X135119Y044519D01*
X134980Y046045D02*
X135227Y045799D01*
X136623Y045946D02*
X136969Y045600D01*
X122402Y048564D02*
X123494D01*
X132923Y040070D02*
X132962Y040109D01*
X133387Y042315D02*
X133402Y042330D01*
X134119D01*
X134134Y042315D01*
X134902D01*
X132383Y041448D02*
X132590Y041655D01*
X134785Y041381D02*
X134803Y041399D01*
X134785Y041379D02*
Y041381D01*
X129646Y042590D02*
X130788Y041448D01*
X129086Y042561D02*
Y042562D01*
X129114Y042590D01*
X129646D01*
X134283Y044106D02*
Y044921D01*
X135201Y041980D02*
X135219Y041998D01*
X135199Y041980D02*
X135201D01*
X135246Y042807D02*
X135265Y042787D01*
X134330D02*
X135265D01*
X130788Y041448D02*
X132383D01*
X129567Y042206D02*
X130561Y041212D01*
X129094Y042206D02*
X129567D01*
X130949Y043858D02*
Y043888D01*
X109020Y051753D02*
X111810D01*
X133545Y041212D02*
X134057Y041724D01*
X130561Y041212D02*
X133545D01*
X132954Y042562D02*
X133201Y042315D01*
X133387D01*
X124528Y048080D02*
X124829Y048381D01*
Y051138D01*
X119047Y051369D02*
X120798Y049617D01*
X121092D01*
X120599Y047948D02*
X122220D01*
X116046Y051369D02*
X119047D01*
X115928Y051250D02*
X116046Y051369D01*
X111810Y051753D02*
X112314Y051250D01*
X115928D01*
X137467Y039833D02*
X138158Y040524D01*
Y041227D01*
X115496Y043009D02*
X124924D01*
X127039Y044352D02*
X127364Y044677D01*
X124174Y043998D02*
X128822D01*
X124924Y043009D02*
X125519Y043603D01*
X125779D01*
X125857Y043525D01*
X128907D01*
X125326Y043800D02*
X126742D01*
X126780Y043762D01*
X128864D01*
X124963Y043438D02*
X125326Y043800D01*
X116140Y043438D02*
X124963D01*
X103602Y037118D02*
Y037802D01*
X115219Y049256D02*
X116239Y048237D01*
X113814Y050256D02*
X114814Y049256D01*
X108814Y050256D02*
X113814D01*
X114814Y049256D02*
X115219D01*
X116239Y047828D02*
Y048237D01*
X107583Y052338D02*
X107981D01*
X108299Y050771D02*
X108814Y050256D01*
X108299Y050771D02*
Y052020D01*
X107981Y052338D02*
X108299Y052020D01*
X020904Y067764D02*
X021014Y067654D01*
X018152Y068665D02*
X018189Y068702D01*
X018152Y065913D02*
Y068665D01*
X015059Y062820D02*
X018152Y065913D01*
X046714Y067118D02*
X047030Y066801D01*
X024635Y071556D02*
X027951Y068241D01*
X020831Y071556D02*
X024635D01*
X029841Y070257D02*
X034394D01*
X029610Y072662D02*
X029940Y072991D01*
X029610Y070488D02*
Y072662D01*
Y070488D02*
X029841Y070257D01*
X034394D02*
X034828Y070690D01*
X030004Y070907D02*
X032164Y073066D01*
X032970D01*
X037006Y070552D02*
X043270D01*
X036488Y071070D02*
X037006Y070552D01*
X035570Y068831D02*
Y070988D01*
X035488Y071070D02*
X035570Y070988D01*
X042631Y071523D02*
X043601Y070553D01*
X046048Y071750D02*
X046555Y071243D01*
X040127Y071523D02*
X042631D01*
X039908Y071750D02*
X046048D01*
X035259Y071523D02*
X039675D01*
X040039Y071435D02*
X040127Y071523D01*
X039763Y071435D02*
X040039D01*
X039675Y071523D02*
X039763Y071435D01*
X034031Y072751D02*
X035259Y071523D01*
X035700Y068516D02*
X035985Y068801D01*
X028868Y068516D02*
X035700D01*
X028799Y068585D02*
X028868Y068516D01*
X013599Y060107D02*
X015413Y061921D01*
X011468Y060107D02*
X013599D01*
X010510Y060448D02*
Y062036D01*
X011429Y060067D02*
X011468Y060107D01*
X010510Y060448D02*
X010891Y060067D01*
X011429D01*
X013906Y060915D02*
X015059Y062068D01*
X013034Y060915D02*
X013906D01*
X012990Y060871D02*
X013034Y060915D01*
X050190Y064121D02*
X050570D01*
X048653Y064355D02*
X049956D01*
X050190Y064121D01*
X048620Y064321D02*
X048653Y064355D01*
X047524Y064636D02*
X049278D01*
X049141Y064833D02*
X049772Y065464D01*
X047443Y064833D02*
X049141D01*
X049004Y065031D02*
X049380Y065406D01*
X047195Y065031D02*
X049004D01*
X048812Y065228D02*
X049260Y065676D01*
X048495Y065228D02*
X048812D01*
X047138Y064529D02*
X047443Y064833D01*
X047204Y064316D02*
X047524Y064636D01*
X049826Y064040D02*
X049828Y064038D01*
X050297Y064460D02*
X050298D01*
X050296Y064460D02*
X050297Y064460D01*
X048403Y063575D02*
X049974D01*
X047818Y064160D02*
X048403Y063575D01*
X049974D02*
X050190Y063791D01*
X050205Y065812D02*
X050679Y066286D01*
X050205Y064550D02*
Y065812D01*
X050568Y064070D02*
Y064119D01*
X050570Y064121D01*
X049691Y066197D02*
Y068824D01*
X049655Y066162D02*
X049691Y066197D01*
X050205Y064550D02*
X050296Y064460D01*
X049655Y066050D02*
Y066162D01*
X019948Y066418D02*
X020913D01*
X019338Y065808D02*
X019948Y066418D01*
X015413Y062605D02*
X018440Y065631D01*
X018960D01*
X019137Y065808D02*
X019338D01*
X018960Y065631D02*
X019137Y065808D01*
X015059Y062068D02*
Y062820D01*
X044773Y064873D02*
Y064913D01*
X040793Y067846D02*
X043616D01*
X045043Y066419D01*
X037460Y068091D02*
X040548D01*
X043270Y070552D02*
X043830Y069992D01*
X043961Y069677D02*
X044286Y070002D01*
X042098Y069677D02*
X043961D01*
X044042Y069480D02*
X044367Y069805D01*
X039175Y069480D02*
X044042D01*
X041694Y070080D02*
X042098Y069677D01*
X043601Y070553D02*
X045266D01*
X046094Y069724D01*
X046056Y072076D02*
X046791Y071341D01*
X043045Y075421D02*
X047146Y071320D01*
X045906Y072839D02*
X047640Y071105D01*
X046791Y070849D02*
Y071341D01*
X047146Y070995D02*
Y071320D01*
X047640Y070957D02*
Y071105D01*
X046497Y073019D02*
X049016Y070501D01*
X047107Y073334D02*
X050760Y069681D01*
X045906Y072839D02*
Y073150D01*
X046090Y073334D02*
X047107D01*
X046220Y073019D02*
X046497D01*
X049016Y069499D02*
Y070501D01*
X050760Y069217D02*
Y069681D01*
X045947Y070306D02*
Y071350D01*
X040813Y068702D02*
X041237D01*
X040675Y068565D02*
X040813Y068702D01*
X040895Y068506D02*
X041156D01*
X040718Y068328D02*
X040895Y068506D01*
X040548Y068091D02*
X040793Y067846D01*
X041238Y068702D02*
X042325D01*
X041237Y068702D02*
X041238Y068702D01*
X045132Y069805D02*
X045317Y069620D01*
Y068963D02*
Y069620D01*
X045214Y070002D02*
X045779Y069436D01*
X044367Y069805D02*
X045132D01*
X044286Y070002D02*
X045214D01*
X045779Y068779D02*
Y069436D01*
X050679Y066286D02*
Y068852D01*
X049760Y069771D02*
X050679Y068852D01*
X049390Y065406D02*
X049575Y065591D01*
X049380Y065406D02*
X049390D01*
X039791Y077050D02*
X040550Y076291D01*
X039426Y076814D02*
X040819Y075421D01*
X035296Y076814D02*
X039426D01*
X035031Y077050D02*
X039791D01*
X032970Y073066D02*
X033775Y073871D01*
X034460D01*
X033632Y074224D02*
X034550Y075141D01*
X031413Y074224D02*
X033632D01*
X029819Y075817D02*
X031413Y074224D01*
X028004Y075817D02*
X029819D01*
X042381Y067531D02*
X042913Y066999D01*
X041820Y067531D02*
X042381D01*
X043472Y068324D02*
X044915Y066882D01*
X041338Y068324D02*
X043472D01*
X043155Y069006D02*
X044765Y067396D01*
X042630Y069006D02*
X043155D01*
X044765Y067365D02*
Y067396D01*
X045043Y066419D02*
X045149D01*
X042548Y069203D02*
X043950D01*
X042244Y068899D02*
X042548Y069203D01*
X042325Y068702D02*
X042630Y069006D01*
X040732Y068899D02*
X042244D01*
X040633Y068801D02*
X040732Y068899D01*
X041156Y068506D02*
X041338Y068324D01*
X043950Y069203D02*
X044569Y068584D01*
X045002Y068498D02*
Y069490D01*
X045317Y068963D02*
X045912Y068368D01*
X045779Y068779D02*
X045964Y068594D01*
X047076D01*
X026799Y067304D02*
X027307Y067812D01*
X042913Y066606D02*
Y066999D01*
X020913Y066418D02*
X021799Y067304D01*
X045030Y064316D02*
X047204D01*
X046822Y064529D02*
X047138D01*
X044734Y064612D02*
X045030Y064316D01*
X044734Y064612D02*
Y064873D01*
X047061Y069007D02*
X048189Y070135D01*
X046577Y069007D02*
X047061D01*
X048189Y070135D02*
Y070159D01*
X046567Y069017D02*
X046577Y069007D01*
X045912Y068368D02*
X047295D01*
X048800Y066431D02*
Y067015D01*
X047610Y068205D02*
X048800Y067015D01*
X047610Y068205D02*
Y068498D01*
X047076Y068594D02*
X047165Y068683D01*
X047426D01*
X047610Y068498D01*
X049454Y065972D02*
Y066639D01*
X048543Y067550D02*
X049454Y066639D01*
X048543Y067550D02*
Y070305D01*
X045654Y067846D02*
X047154D01*
X045002Y068498D02*
X045654Y067846D01*
X045556Y067610D02*
X047057D01*
X045064Y068102D02*
X045556Y067610D01*
X044864Y068102D02*
X045064D01*
X047817Y066406D02*
Y067183D01*
Y066406D02*
X048681Y065543D01*
X047154Y067846D02*
X047817Y067183D01*
X047621Y066102D02*
Y067046D01*
X047076Y067590D02*
X047621Y067046D01*
X046614Y064736D02*
Y066202D01*
X036596Y072076D02*
X046056D01*
X040819Y075421D02*
X043045D01*
X046555Y070751D02*
Y071243D01*
X050760Y069217D02*
X051270Y068707D01*
Y068241D02*
Y068707D01*
Y068241D02*
X051620Y067891D01*
X052550D01*
X045906Y073150D02*
X046090Y073334D01*
X051930Y065681D02*
X052030Y065581D01*
X050520Y065681D02*
X051930D01*
X052043Y064775D02*
X052050Y064781D01*
X050783Y064775D02*
X052043D01*
X049655Y066050D02*
X049772Y065933D01*
Y065464D02*
Y065933D01*
X049575Y065591D02*
Y065852D01*
X049454Y065972D02*
X049575Y065852D01*
X049969Y066030D02*
X050050Y066111D01*
X049260Y065676D02*
Y065721D01*
X048780Y067759D02*
X048978Y067561D01*
X046614Y064736D02*
X046822Y064529D01*
X047008Y064844D02*
X047195Y065031D01*
X047621Y066102D02*
X048495Y065228D01*
X049016Y069499D02*
X049691Y068824D01*
X046863Y066429D02*
X047156D01*
X046410Y066882D02*
X046863Y066429D01*
X010510Y062036D02*
X011160Y062686D01*
X042300Y072391D02*
Y073791D01*
X035305Y073367D02*
X036596Y072076D01*
X042750Y072691D02*
Y073391D01*
X037050Y072541D02*
X037100D01*
X037110Y072551D01*
X034200Y073341D02*
Y073355D01*
X034213Y073367D01*
X037110Y076201D02*
X037150Y076241D01*
X037110Y072551D02*
Y076201D01*
X032903Y074420D02*
X035296Y076814D01*
X032756Y074775D02*
X035031Y077050D01*
X046024Y067374D02*
X046043Y067354D01*
X045258Y067374D02*
X046024D01*
X046940Y067354D02*
X047364Y066930D01*
X047156Y066429D02*
X047364Y066636D01*
X044915Y066882D02*
X046410D01*
X045120Y067511D02*
X045258Y067374D01*
X046043Y067354D02*
X046940D01*
X047364Y066636D02*
Y066930D01*
X048042Y070513D02*
X048336D01*
X047895Y070366D02*
X048042Y070513D01*
X046940Y070366D02*
X047895D01*
X046555Y070751D02*
X046940Y070366D01*
X047944Y070749D02*
X048434D01*
X047797Y070602D02*
X047944Y070749D01*
X047038Y070602D02*
X047797D01*
X048780Y067759D02*
Y070403D01*
X048336Y070513D02*
X048543Y070305D01*
X045947Y070306D02*
X046930Y069322D01*
X046791Y070849D02*
X047038Y070602D01*
X048434Y070749D02*
X048780Y070403D01*
X034213Y073367D02*
X035305D01*
X044734Y064873D02*
X044773Y064913D01*
X045199Y067118D02*
X045213Y067133D01*
X045930D01*
X045945Y067118D01*
X046714D01*
X044194Y066251D02*
X044401Y066458D01*
X046596Y066184D02*
X046614Y066202D01*
X046596Y066183D02*
Y066184D01*
X041457Y067393D02*
X042599Y066251D01*
X040897Y067364D02*
Y067365D01*
X040925Y067393D01*
X041457D01*
X046094Y068909D02*
Y069724D01*
X047012Y066783D02*
X047030Y066801D01*
X047010Y066783D02*
X047012D01*
X047057Y067610D02*
X047076Y067590D01*
X046141D02*
X047076D01*
X042599Y066251D02*
X044194D01*
X041378Y067009D02*
X042372Y066015D01*
X040906Y067009D02*
X041378D01*
X042760Y068661D02*
Y068691D01*
X020831Y076556D02*
X023621D01*
X045356Y066015D02*
X045868Y066527D01*
X042372Y066015D02*
X045356D01*
X044765Y067365D02*
X045012Y067118D01*
X045199D01*
X036339Y072883D02*
X036640Y073184D01*
Y075941D01*
X030858Y076172D02*
X032609Y074420D01*
X032903D01*
X032410Y072751D02*
X034031D01*
X027857Y076172D02*
X030858D01*
X027739Y076053D02*
X027857Y076172D01*
X023621Y076556D02*
X024125Y076053D01*
X027739D01*
X049278Y064636D02*
X049969Y065327D01*
Y066030D01*
X027307Y067812D02*
X036735D01*
X038850Y069155D02*
X039175Y069480D01*
X035985Y068801D02*
X040633D01*
X036735Y067812D02*
X037330Y068406D01*
X037590D01*
X037668Y068328D01*
X040718D01*
X037137Y068603D02*
X038553D01*
X038591Y068565D01*
X040675D01*
X036774Y068241D02*
X037137Y068603D01*
X027951Y068241D02*
X036774D01*
X015413Y061921D02*
Y062605D01*
X027030Y074059D02*
X028050Y073040D01*
X025625Y075059D02*
X026625Y074059D01*
X020625Y075059D02*
X025625D01*
X026625Y074059D02*
X027030D01*
X028050Y072631D02*
Y073040D01*
X019394Y077141D02*
X019792D01*
X020110Y075574D02*
X020625Y075059D01*
X020110Y075574D02*
Y076823D01*
X019792Y077141D02*
X020110Y076823D01*
X064998Y067764D02*
X065109Y067654D01*
X062246Y068665D02*
X062283Y068702D01*
X062246Y065913D02*
Y068665D01*
X059154Y062820D02*
X062246Y065913D01*
X090808Y067118D02*
X091124Y066801D01*
X068730Y071556D02*
X072045Y068241D01*
X064925Y071556D02*
X068730D01*
X073935Y070257D02*
X078489D01*
X073705Y072662D02*
X074034Y072991D01*
X073705Y070488D02*
Y072662D01*
Y070488D02*
X073935Y070257D01*
X078489D02*
X078922Y070690D01*
X074098Y070907D02*
X076258Y073066D01*
X077065D01*
X081100Y070552D02*
X087364D01*
X080582Y071070D02*
X081100Y070552D01*
X079664Y068831D02*
Y070988D01*
X079582Y071070D02*
X079664Y070988D01*
X086726Y071523D02*
X087696Y070553D01*
X090142Y071750D02*
X090650Y071243D01*
X084222Y071523D02*
X086726D01*
X084002Y071750D02*
X090142D01*
X079354Y071523D02*
X083770D01*
X084134Y071435D02*
X084222Y071523D01*
X083857Y071435D02*
X084134D01*
X083770Y071523D02*
X083857Y071435D01*
X078125Y072751D02*
X079354Y071523D01*
X079795Y068516D02*
X080079Y068801D01*
X072962Y068516D02*
X079795D01*
X072894Y068585D02*
X072962Y068516D01*
X057693Y060107D02*
X059508Y061921D01*
X055563Y060107D02*
X057693D01*
X054605Y060448D02*
Y062036D01*
X055524Y060067D02*
X055563Y060107D01*
X054605Y060448D02*
X054985Y060067D01*
X055524D01*
X058000Y060915D02*
X059154Y062068D01*
X057128Y060915D02*
X058000D01*
X057084Y060871D02*
X057128Y060915D01*
X094284Y064121D02*
X094664D01*
X092748Y064355D02*
X094051D01*
X094284Y064121D01*
X092714Y064321D02*
X092748Y064355D01*
X091619Y064636D02*
X093373D01*
X093235Y064833D02*
X093866Y065464D01*
X091537Y064833D02*
X093235D01*
X093099Y065031D02*
X093475Y065406D01*
X091289Y065031D02*
X093099D01*
X092906Y065228D02*
X093354Y065676D01*
X092589Y065228D02*
X092906D01*
X091233Y064529D02*
X091537Y064833D01*
X091299Y064316D02*
X091619Y064636D01*
X093920Y064040D02*
X093922Y064038D01*
X094391Y064460D02*
X094392D01*
X094390Y064460D02*
X094391Y064460D01*
X092497Y063575D02*
X094069D01*
X091912Y064160D02*
X092497Y063575D01*
X094069D02*
X094284Y063791D01*
X094300Y065812D02*
X094774Y066286D01*
X094300Y064550D02*
Y065812D01*
X094662Y064070D02*
Y064119D01*
X094664Y064121D01*
X093785Y066197D02*
Y068824D01*
X093750Y066162D02*
X093785Y066197D01*
X094300Y064550D02*
X094390Y064460D01*
X093750Y066050D02*
Y066162D01*
X064042Y066418D02*
X065008D01*
X063432Y065808D02*
X064042Y066418D01*
X059508Y062605D02*
X062534Y065631D01*
X063054D01*
X063231Y065808D02*
X063432D01*
X063054Y065631D02*
X063231Y065808D01*
X059154Y062068D02*
Y062820D01*
X088868Y064873D02*
Y064913D01*
X084887Y067846D02*
X087710D01*
X089138Y066419D01*
X081554Y068091D02*
X084642D01*
X087364Y070552D02*
X087925Y069992D01*
X088055Y069677D02*
X088380Y070002D01*
X086193Y069677D02*
X088055D01*
X088137Y069480D02*
X088462Y069805D01*
X083269Y069480D02*
X088137D01*
X085789Y070080D02*
X086193Y069677D01*
X087696Y070553D02*
X089360D01*
X090189Y069724D01*
X090150Y072076D02*
X090886Y071341D01*
X087139Y075421D02*
X091240Y071320D01*
X090000Y072839D02*
X091734Y071105D01*
X090886Y070849D02*
Y071341D01*
X091240Y070995D02*
Y071320D01*
X091734Y070957D02*
Y071105D01*
X090592Y073019D02*
X093110Y070501D01*
X091201Y073334D02*
X094854Y069681D01*
X090000Y072839D02*
Y073150D01*
X090184Y073334D02*
X091201D01*
X090315Y073019D02*
X090592D01*
X093110Y069499D02*
Y070501D01*
X094854Y069217D02*
Y069681D01*
X090041Y070306D02*
Y071350D01*
X084908Y068702D02*
X085332D01*
X084770Y068565D02*
X084908Y068702D01*
X084989Y068506D02*
X085250D01*
X084812Y068328D02*
X084989Y068506D01*
X084642Y068091D02*
X084887Y067846D01*
X085332Y068702D02*
X086420D01*
X085332Y068702D02*
X085332Y068702D01*
X089227Y069805D02*
X089411Y069620D01*
Y068963D02*
Y069620D01*
X089308Y070002D02*
X089874Y069436D01*
X088462Y069805D02*
X089227D01*
X088380Y070002D02*
X089308D01*
X089874Y068779D02*
Y069436D01*
X094774Y066286D02*
Y068852D01*
X093854Y069771D02*
X094774Y068852D01*
X093485Y065406D02*
X093669Y065591D01*
X093475Y065406D02*
X093485D01*
X083886Y077050D02*
X084644Y076291D01*
X083521Y076814D02*
X084913Y075421D01*
X079390Y076814D02*
X083521D01*
X079126Y077050D02*
X083886D01*
X077065Y073066D02*
X077870Y073871D01*
X078554D01*
X077727Y074224D02*
X078644Y075141D01*
X075508Y074224D02*
X077727D01*
X073914Y075817D02*
X075508Y074224D01*
X072098Y075817D02*
X073914D01*
X086476Y067531D02*
X087008Y066999D01*
X085914Y067531D02*
X086476D01*
X087567Y068324D02*
X089009Y066882D01*
X085432Y068324D02*
X087567D01*
X087250Y069006D02*
X088860Y067396D01*
X086724Y069006D02*
X087250D01*
X088860Y067365D02*
Y067396D01*
X089138Y066419D02*
X089244D01*
X086642Y069203D02*
X088044D01*
X086339Y068899D02*
X086642Y069203D01*
X086420Y068702D02*
X086724Y069006D01*
X084826Y068899D02*
X086339D01*
X084728Y068801D02*
X084826Y068899D01*
X085250Y068506D02*
X085432Y068324D01*
X088044Y069203D02*
X088663Y068584D01*
X089096Y068498D02*
Y069490D01*
X089411Y068963D02*
X090006Y068368D01*
X089874Y068779D02*
X090058Y068594D01*
X091171D01*
X070894Y067304D02*
X071401Y067812D01*
X087008Y066606D02*
Y066999D01*
X065008Y066418D02*
X065894Y067304D01*
X089124Y064316D02*
X091299D01*
X090916Y064529D02*
X091233D01*
X088828Y064612D02*
X089124Y064316D01*
X088828Y064612D02*
Y064873D01*
X091155Y069007D02*
X092283Y070135D01*
X090672Y069007D02*
X091155D01*
X092283Y070135D02*
Y070159D01*
X090661Y069017D02*
X090672Y069007D01*
X090006Y068368D02*
X091390D01*
X092894Y066431D02*
Y067015D01*
X091705Y068205D02*
X092894Y067015D01*
X091705Y068205D02*
Y068498D01*
X091171Y068594D02*
X091259Y068683D01*
X091520D01*
X091705Y068498D01*
X093549Y065972D02*
Y066639D01*
X092638Y067550D02*
X093549Y066639D01*
X092638Y067550D02*
Y070305D01*
X089748Y067846D02*
X091249D01*
X089096Y068498D02*
X089748Y067846D01*
X089651Y067610D02*
X091151D01*
X089159Y068102D02*
X089651Y067610D01*
X088958Y068102D02*
X089159D01*
X091912Y066406D02*
Y067183D01*
Y066406D02*
X092776Y065543D01*
X091249Y067846D02*
X091912Y067183D01*
X091715Y066102D02*
Y067046D01*
X091171Y067590D02*
X091715Y067046D01*
X090709Y064736D02*
Y066202D01*
X080691Y072076D02*
X090150D01*
X084913Y075421D02*
X087139D01*
X090650Y070751D02*
Y071243D01*
X094854Y069217D02*
X095364Y068707D01*
Y068241D02*
Y068707D01*
Y068241D02*
X095714Y067891D01*
X096644D01*
X090000Y073150D02*
X090184Y073334D01*
X096024Y065681D02*
X096124Y065581D01*
X094614Y065681D02*
X096024D01*
X096138Y064775D02*
X096144Y064781D01*
X094878Y064775D02*
X096138D01*
X093750Y066050D02*
X093866Y065933D01*
Y065464D02*
Y065933D01*
X093669Y065591D02*
Y065852D01*
X093549Y065972D02*
X093669Y065852D01*
X094063Y066030D02*
X094144Y066111D01*
X093354Y065676D02*
Y065721D01*
X092874Y067759D02*
X093073Y067561D01*
X090709Y064736D02*
X090916Y064529D01*
X091102Y064844D02*
X091289Y065031D01*
X091715Y066102D02*
X092589Y065228D01*
X093110Y069499D02*
X093785Y068824D01*
X090957Y066429D02*
X091251D01*
X090505Y066882D02*
X090957Y066429D01*
X054605Y062036D02*
X055254Y062686D01*
X086394Y072391D02*
Y073791D01*
X079400Y073367D02*
X080691Y072076D01*
X086844Y072691D02*
Y073391D01*
X081144Y072541D02*
X081194D01*
X081204Y072551D01*
X078294Y073341D02*
Y073355D01*
X078307Y073367D01*
X081204Y076201D02*
X081244Y076241D01*
X081204Y072551D02*
Y076201D01*
X076997Y074420D02*
X079390Y076814D01*
X076850Y074775D02*
X079126Y077050D01*
X090118Y067374D02*
X090138Y067354D01*
X089352Y067374D02*
X090118D01*
X091034Y067354D02*
X091459Y066930D01*
X091251Y066429D02*
X091459Y066636D01*
X089009Y066882D02*
X090505D01*
X089214Y067511D02*
X089352Y067374D01*
X090138Y067354D02*
X091034D01*
X091459Y066636D02*
Y066930D01*
X092137Y070513D02*
X092430D01*
X091990Y070366D02*
X092137Y070513D01*
X091034Y070366D02*
X091990D01*
X090650Y070751D02*
X091034Y070366D01*
X092039Y070749D02*
X092528D01*
X091892Y070602D02*
X092039Y070749D01*
X091132Y070602D02*
X091892D01*
X092874Y067759D02*
Y070403D01*
X092430Y070513D02*
X092638Y070305D01*
X090041Y070306D02*
X091025Y069322D01*
X090886Y070849D02*
X091132Y070602D01*
X092528Y070749D02*
X092874Y070403D01*
X078307Y073367D02*
X079400D01*
X088828Y064873D02*
X088868Y064913D01*
X089293Y067118D02*
X089308Y067133D01*
X090025D01*
X090040Y067118D01*
X090808D01*
X088289Y066251D02*
X088496Y066458D01*
X090691Y066184D02*
X090709Y066202D01*
X090691Y066183D02*
Y066184D01*
X085552Y067393D02*
X086694Y066251D01*
X084992Y067364D02*
Y067365D01*
X085020Y067393D01*
X085552D01*
X090189Y068909D02*
Y069724D01*
X091106Y066783D02*
X091124Y066801D01*
X091104Y066783D02*
X091106D01*
X091151Y067610D02*
X091171Y067590D01*
X090236D02*
X091171D01*
X086694Y066251D02*
X088289D01*
X085472Y067009D02*
X086467Y066015D01*
X085000Y067009D02*
X085472D01*
X086854Y068661D02*
Y068691D01*
X064925Y076556D02*
X067716D01*
X089450Y066015D02*
X089962Y066527D01*
X086467Y066015D02*
X089450D01*
X088860Y067365D02*
X089107Y067118D01*
X089293D01*
X080433Y072883D02*
X080734Y073184D01*
Y075941D01*
X074952Y076172D02*
X076704Y074420D01*
X076997D01*
X076504Y072751D02*
X078125D01*
X071952Y076172D02*
X074952D01*
X071833Y076053D02*
X071952Y076172D01*
X067716Y076556D02*
X068219Y076053D01*
X071833D01*
X093373Y064636D02*
X094063Y065327D01*
Y066030D01*
X071401Y067812D02*
X080830D01*
X082944Y069155D02*
X083269Y069480D01*
X080079Y068801D02*
X084728D01*
X080830Y067812D02*
X081424Y068406D01*
X081685D01*
X081763Y068328D01*
X084812D01*
X081231Y068603D02*
X082648D01*
X082686Y068565D01*
X084770D01*
X080869Y068241D02*
X081231Y068603D01*
X072045Y068241D02*
X080869D01*
X059508Y061921D02*
Y062605D01*
X071125Y074059D02*
X072144Y073040D01*
X069719Y075059D02*
X070719Y074059D01*
X064719Y075059D02*
X069719D01*
X070719Y074059D02*
X071125D01*
X072144Y072631D02*
Y073040D01*
X063489Y077141D02*
X063887D01*
X064205Y075574D02*
X064719Y075059D01*
X064205Y075574D02*
Y076823D01*
X063887Y077141D02*
X064205Y076823D01*
X109093Y067764D02*
X109203Y067654D01*
X106341Y068665D02*
X106378Y068702D01*
X106341Y065913D02*
Y068665D01*
X103248Y062820D02*
X106341Y065913D01*
X134902Y067118D02*
X135219Y066801D01*
X112824Y071556D02*
X116140Y068241D01*
X109020Y071556D02*
X112824D01*
X118030Y070257D02*
X122583D01*
X117799Y072662D02*
X118129Y072991D01*
X117799Y070488D02*
Y072662D01*
Y070488D02*
X118030Y070257D01*
X122583D02*
X123017Y070690D01*
X118193Y070907D02*
X120353Y073066D01*
X121159D01*
X125195Y070552D02*
X131459D01*
X124677Y071070D02*
X125195Y070552D01*
X123759Y068831D02*
Y070988D01*
X123677Y071070D02*
X123759Y070988D01*
X130820Y071523D02*
X131790Y070553D01*
X134237Y071750D02*
X134744Y071243D01*
X128316Y071523D02*
X130820D01*
X128097Y071750D02*
X134237D01*
X123448Y071523D02*
X127864D01*
X128228Y071435D02*
X128316Y071523D01*
X127952Y071435D02*
X128228D01*
X127864Y071523D02*
X127952Y071435D01*
X122220Y072751D02*
X123448Y071523D01*
X123889Y068516D02*
X124174Y068801D01*
X117057Y068516D02*
X123889D01*
X116988Y068585D02*
X117057Y068516D01*
X101788Y060107D02*
X103602Y061921D01*
X099657Y060107D02*
X101788D01*
X098699Y060448D02*
Y062036D01*
X099618Y060067D02*
X099657Y060107D01*
X098699Y060448D02*
X099080Y060067D01*
X099618D01*
X102095Y060915D02*
X103248Y062068D01*
X101223Y060915D02*
X102095D01*
X101179Y060871D02*
X101223Y060915D01*
X138379Y064121D02*
X138759D01*
X136842Y064355D02*
X138145D01*
X138379Y064121D01*
X136809Y064321D02*
X136842Y064355D01*
X135713Y064636D02*
X137467D01*
X137330Y064833D02*
X137961Y065464D01*
X135632Y064833D02*
X137330D01*
X137193Y065031D02*
X137569Y065406D01*
X135384Y065031D02*
X137193D01*
X137001Y065228D02*
X137449Y065676D01*
X136684Y065228D02*
X137001D01*
X135327Y064529D02*
X135632Y064833D01*
X135393Y064316D02*
X135713Y064636D01*
X138015Y064040D02*
X138017Y064038D01*
X138485Y064460D02*
X138487D01*
X138485Y064460D02*
X138485Y064460D01*
X136592Y063575D02*
X138163D01*
X136007Y064160D02*
X136592Y063575D01*
X138163D02*
X138379Y063791D01*
X138394Y065812D02*
X138868Y066286D01*
X138394Y064550D02*
Y065812D01*
X138757Y064070D02*
Y064119D01*
X138759Y064121D01*
X137880Y066197D02*
Y068824D01*
X137844Y066162D02*
X137880Y066197D01*
X138394Y064550D02*
X138485Y064460D01*
X137844Y066050D02*
Y066162D01*
X108137Y066418D02*
X109102D01*
X107527Y065808D02*
X108137Y066418D01*
X103602Y062605D02*
X106629Y065631D01*
X107149D01*
X107326Y065808D02*
X107527D01*
X107149Y065631D02*
X107326Y065808D01*
X103248Y062068D02*
Y062820D01*
X132962Y064873D02*
Y064913D01*
X128982Y067846D02*
X131805D01*
X133232Y066419D01*
X125649Y068091D02*
X128737D01*
X131459Y070552D02*
X132019Y069992D01*
X132150Y069677D02*
X132475Y070002D01*
X130287Y069677D02*
X132150D01*
X132231Y069480D02*
X132556Y069805D01*
X127364Y069480D02*
X132231D01*
X129883Y070080D02*
X130287Y069677D01*
X131790Y070553D02*
X133455D01*
X134283Y069724D01*
X134245Y072076D02*
X134980Y071341D01*
X131234Y075421D02*
X135335Y071320D01*
X134094Y072839D02*
X135829Y071105D01*
X134980Y070849D02*
Y071341D01*
X135335Y070995D02*
Y071320D01*
X135829Y070957D02*
Y071105D01*
X134686Y073019D02*
X137205Y070501D01*
X135296Y073334D02*
X138949Y069681D01*
X134094Y072839D02*
Y073150D01*
X134279Y073334D02*
X135296D01*
X134409Y073019D02*
X134686D01*
X137205Y069499D02*
Y070501D01*
X138949Y069217D02*
Y069681D01*
X134136Y070306D02*
Y071350D01*
X129002Y068702D02*
X129426D01*
X128864Y068565D02*
X129002Y068702D01*
X129084Y068506D02*
X129345D01*
X128907Y068328D02*
X129084Y068506D01*
X128737Y068091D02*
X128982Y067846D01*
X129427Y068702D02*
X130514D01*
X129426Y068702D02*
X129427Y068702D01*
X133321Y069805D02*
X133506Y069620D01*
Y068963D02*
Y069620D01*
X133403Y070002D02*
X133968Y069436D01*
X132556Y069805D02*
X133321D01*
X132475Y070002D02*
X133403D01*
X133968Y068779D02*
Y069436D01*
X138868Y066286D02*
Y068852D01*
X137949Y069771D02*
X138868Y068852D01*
X137579Y065406D02*
X137764Y065591D01*
X137569Y065406D02*
X137579D01*
X127980Y077050D02*
X128739Y076291D01*
X127615Y076814D02*
X129008Y075421D01*
X123485Y076814D02*
X127615D01*
X123220Y077050D02*
X127980D01*
X121159Y073066D02*
X121964Y073871D01*
X122649D01*
X121821Y074224D02*
X122739Y075141D01*
X119602Y074224D02*
X121821D01*
X118008Y075817D02*
X119602Y074224D01*
X116193Y075817D02*
X118008D01*
X130570Y067531D02*
X131102Y066999D01*
X130009Y067531D02*
X130570D01*
X131661Y068324D02*
X133103Y066882D01*
X129527Y068324D02*
X131661D01*
X131344Y069006D02*
X132954Y067396D01*
X130819Y069006D02*
X131344D01*
X132954Y067365D02*
Y067396D01*
X133232Y066419D02*
X133338D01*
X130737Y069203D02*
X132139D01*
X130433Y068899D02*
X130737Y069203D01*
X130514Y068702D02*
X130819Y069006D01*
X128921Y068899D02*
X130433D01*
X128822Y068801D02*
X128921Y068899D01*
X129345Y068506D02*
X129527Y068324D01*
X132139Y069203D02*
X132758Y068584D01*
X133191Y068498D02*
Y069490D01*
X133506Y068963D02*
X134101Y068368D01*
X133968Y068779D02*
X134153Y068594D01*
X135265D01*
X114988Y067304D02*
X115496Y067812D01*
X131102Y066606D02*
Y066999D01*
X109102Y066418D02*
X109988Y067304D01*
X133219Y064316D02*
X135393D01*
X135011Y064529D02*
X135327D01*
X132923Y064612D02*
X133219Y064316D01*
X132923Y064612D02*
Y064873D01*
X135250Y069007D02*
X136378Y070135D01*
X134766Y069007D02*
X135250D01*
X136378Y070135D02*
Y070159D01*
X134756Y069017D02*
X134766Y069007D01*
X134101Y068368D02*
X135484D01*
X136989Y066431D02*
Y067015D01*
X135799Y068205D02*
X136989Y067015D01*
X135799Y068205D02*
Y068498D01*
X135265Y068594D02*
X135354Y068683D01*
X135615D01*
X135799Y068498D01*
X137643Y065972D02*
Y066639D01*
X136732Y067550D02*
X137643Y066639D01*
X136732Y067550D02*
Y070305D01*
X133843Y067846D02*
X135343D01*
X133191Y068498D02*
X133843Y067846D01*
X133745Y067610D02*
X135246D01*
X133253Y068102D02*
X133745Y067610D01*
X133053Y068102D02*
X133253D01*
X136006Y066406D02*
Y067183D01*
Y066406D02*
X136870Y065543D01*
X135343Y067846D02*
X136006Y067183D01*
X135810Y066102D02*
Y067046D01*
X135265Y067590D02*
X135810Y067046D01*
X134803Y064736D02*
Y066202D01*
X124785Y072076D02*
X134245D01*
X129008Y075421D02*
X131234D01*
X134744Y070751D02*
Y071243D01*
X138949Y069217D02*
X139459Y068707D01*
Y068241D02*
Y068707D01*
Y068241D02*
X139809Y067891D01*
X140739D01*
X134094Y073150D02*
X134279Y073334D01*
X140119Y065681D02*
X140219Y065581D01*
X138709Y065681D02*
X140119D01*
X140232Y064775D02*
X140239Y064781D01*
X138972Y064775D02*
X140232D01*
X137844Y066050D02*
X137961Y065933D01*
Y065464D02*
Y065933D01*
X137764Y065591D02*
Y065852D01*
X137643Y065972D02*
X137764Y065852D01*
X138158Y066030D02*
X138239Y066111D01*
X137449Y065676D02*
Y065721D01*
X136969Y067759D02*
X137167Y067561D01*
X134803Y064736D02*
X135011Y064529D01*
X135197Y064844D02*
X135384Y065031D01*
X135810Y066102D02*
X136684Y065228D01*
X137205Y069499D02*
X137880Y068824D01*
X135052Y066429D02*
X135345D01*
X134599Y066882D02*
X135052Y066429D01*
X098699Y062036D02*
X099349Y062686D01*
X130489Y072391D02*
Y073791D01*
X123494Y073367D02*
X124785Y072076D01*
X130939Y072691D02*
Y073391D01*
X125239Y072541D02*
X125289D01*
X125299Y072551D01*
X122389Y073341D02*
Y073355D01*
X122402Y073367D01*
X125299Y076201D02*
X125339Y076241D01*
X125299Y072551D02*
Y076201D01*
X121092Y074420D02*
X123485Y076814D01*
X120945Y074775D02*
X123220Y077050D01*
X134212Y067374D02*
X134232Y067354D01*
X133447Y067374D02*
X134212D01*
X135129Y067354D02*
X135553Y066930D01*
X135345Y066429D02*
X135553Y066636D01*
X133103Y066882D02*
X134599D01*
X133309Y067511D02*
X133447Y067374D01*
X134232Y067354D02*
X135129D01*
X135553Y066636D02*
Y066930D01*
X136231Y070513D02*
X136525D01*
X136084Y070366D02*
X136231Y070513D01*
X135129Y070366D02*
X136084D01*
X134744Y070751D02*
X135129Y070366D01*
X136133Y070749D02*
X136623D01*
X135986Y070602D02*
X136133Y070749D01*
X135227Y070602D02*
X135986D01*
X136969Y067759D02*
Y070403D01*
X136525Y070513D02*
X136732Y070305D01*
X134136Y070306D02*
X135119Y069322D01*
X134980Y070849D02*
X135227Y070602D01*
X136623Y070749D02*
X136969Y070403D01*
X122402Y073367D02*
X123494D01*
X132923Y064873D02*
X132962Y064913D01*
X133387Y067118D02*
X133402Y067133D01*
X134119D01*
X134134Y067118D01*
X134902D01*
X132383Y066251D02*
X132590Y066458D01*
X134785Y066184D02*
X134803Y066202D01*
X134785Y066183D02*
Y066184D01*
X129646Y067393D02*
X130788Y066251D01*
X129086Y067364D02*
Y067365D01*
X129114Y067393D01*
X129646D01*
X134283Y068909D02*
Y069724D01*
X135201Y066783D02*
X135219Y066801D01*
X135199Y066783D02*
X135201D01*
X135246Y067610D02*
X135265Y067590D01*
X134330D02*
X135265D01*
X130788Y066251D02*
X132383D01*
X129567Y067009D02*
X130561Y066015D01*
X129094Y067009D02*
X129567D01*
X130949Y068661D02*
Y068691D01*
X109020Y076556D02*
X111810D01*
X133545Y066015D02*
X134057Y066527D01*
X130561Y066015D02*
X133545D01*
X132954Y067365D02*
X133201Y067118D01*
X133387D01*
X124528Y072883D02*
X124829Y073184D01*
Y075941D01*
X119047Y076172D02*
X120798Y074420D01*
X121092D01*
X120599Y072751D02*
X122220D01*
X116046Y076172D02*
X119047D01*
X115928Y076053D02*
X116046Y076172D01*
X111810Y076556D02*
X112314Y076053D01*
X115928D01*
X137467Y064636D02*
X138158Y065327D01*
Y066030D01*
X115496Y067812D02*
X124924D01*
X127039Y069155D02*
X127364Y069480D01*
X124174Y068801D02*
X128822D01*
X124924Y067812D02*
X125519Y068406D01*
X125779D01*
X125857Y068328D01*
X128907D01*
X125326Y068603D02*
X126742D01*
X126780Y068565D01*
X128864D01*
X124963Y068241D02*
X125326Y068603D01*
X116140Y068241D02*
X124963D01*
X103602Y061921D02*
Y062605D01*
X115219Y074059D02*
X116239Y073040D01*
X113814Y075059D02*
X114814Y074059D01*
X108814Y075059D02*
X113814D01*
X114814Y074059D02*
X115219D01*
X116239Y072631D02*
Y073040D01*
X107583Y077141D02*
X107981D01*
X108299Y075574D02*
X108814Y075059D01*
X108299Y075574D02*
Y076823D01*
X107981Y077141D02*
X108299Y076823D01*
X020904Y092568D02*
X021014Y092458D01*
X018152Y093468D02*
X018189Y093505D01*
X018152Y090716D02*
Y093468D01*
X015059Y087624D02*
X018152Y090716D01*
X046714Y091921D02*
X047030Y091604D01*
X024635Y096359D02*
X027951Y093044D01*
X020831Y096359D02*
X024635D01*
X029841Y095060D02*
X034394D01*
X029610Y097465D02*
X029940Y097794D01*
X029610Y095291D02*
Y097465D01*
Y095291D02*
X029841Y095060D01*
X034394D02*
X034828Y095493D01*
X030004Y095710D02*
X032164Y097869D01*
X032970D01*
X037006Y095356D02*
X043270D01*
X036488Y095873D02*
X037006Y095356D01*
X035570Y093634D02*
Y095791D01*
X035488Y095873D02*
X035570Y095791D01*
X042631Y096326D02*
X043601Y095356D01*
X046048Y096553D02*
X046555Y096046D01*
X040127Y096326D02*
X042631D01*
X039908Y096553D02*
X046048D01*
X035259Y096326D02*
X039675D01*
X040039Y096238D02*
X040127Y096326D01*
X039763Y096238D02*
X040039D01*
X039675Y096326D02*
X039763Y096238D01*
X034031Y097554D02*
X035259Y096326D01*
X035700Y093320D02*
X035985Y093604D01*
X028868Y093320D02*
X035700D01*
X028799Y093388D02*
X028868Y093320D01*
X013599Y084910D02*
X015413Y086724D01*
X011468Y084910D02*
X013599D01*
X010510Y085251D02*
Y086839D01*
X011429Y084871D02*
X011468Y084910D01*
X010510Y085251D02*
X010891Y084871D01*
X011429D01*
X013906Y085718D02*
X015059Y086871D01*
X013034Y085718D02*
X013906D01*
X012990Y085674D02*
X013034Y085718D01*
X050190Y088924D02*
X050570D01*
X048653Y089158D02*
X049956D01*
X050190Y088924D01*
X048620Y089124D02*
X048653Y089158D01*
X047524Y089439D02*
X049278D01*
X049141Y089636D02*
X049772Y090267D01*
X047443Y089636D02*
X049141D01*
X049004Y089834D02*
X049380Y090210D01*
X047195Y089834D02*
X049004D01*
X048812Y090031D02*
X049260Y090479D01*
X048495Y090031D02*
X048812D01*
X047138Y089332D02*
X047443Y089636D01*
X047204Y089120D02*
X047524Y089439D01*
X049826Y088843D02*
X049828Y088841D01*
X050297Y089263D02*
X050298D01*
X050296Y089263D02*
X050297Y089263D01*
X048403Y088378D02*
X049974D01*
X047818Y088963D02*
X048403Y088378D01*
X049974D02*
X050190Y088594D01*
X050205Y090615D02*
X050679Y091089D01*
X050205Y089354D02*
Y090615D01*
X050568Y088873D02*
Y088922D01*
X050570Y088924D01*
X049691Y091000D02*
Y093627D01*
X049655Y090965D02*
X049691Y091000D01*
X050205Y089354D02*
X050296Y089263D01*
X049655Y090853D02*
Y090965D01*
X019948Y091222D02*
X020913D01*
X019338Y090611D02*
X019948Y091222D01*
X015413Y087408D02*
X018440Y090434D01*
X018960D01*
X019137Y090611D02*
X019338D01*
X018960Y090434D02*
X019137Y090611D01*
X015059Y086871D02*
Y087624D01*
X044773Y089676D02*
Y089716D01*
X040793Y092649D02*
X043616D01*
X045043Y091222D01*
X037460Y092894D02*
X040548D01*
X043270Y095356D02*
X043830Y094795D01*
X043961Y094480D02*
X044286Y094805D01*
X042098Y094480D02*
X043961D01*
X044042Y094283D02*
X044367Y094608D01*
X039175Y094283D02*
X044042D01*
X041694Y094884D02*
X042098Y094480D01*
X043601Y095356D02*
X045266D01*
X046094Y094528D01*
X046056Y096880D02*
X046791Y096144D01*
X043045Y100224D02*
X047146Y096124D01*
X045906Y097642D02*
X047640Y095908D01*
X046791Y095652D02*
Y096144D01*
X047146Y095798D02*
Y096124D01*
X047640Y095760D02*
Y095908D01*
X046497Y097823D02*
X049016Y095304D01*
X047107Y098138D02*
X050760Y094484D01*
X045906Y097642D02*
Y097953D01*
X046090Y098138D02*
X047107D01*
X046220Y097823D02*
X046497D01*
X049016Y094302D02*
Y095304D01*
X050760Y094020D02*
Y094484D01*
X045947Y095109D02*
Y096153D01*
X040813Y093506D02*
X041237D01*
X040675Y093368D02*
X040813Y093506D01*
X040895Y093309D02*
X041156D01*
X040718Y093132D02*
X040895Y093309D01*
X040548Y092894D02*
X040793Y092649D01*
X041238Y093505D02*
X042325D01*
X041237Y093506D02*
X041238Y093505D01*
X045132Y094608D02*
X045317Y094424D01*
Y093766D02*
Y094424D01*
X045214Y094805D02*
X045779Y094239D01*
X044367Y094608D02*
X045132D01*
X044286Y094805D02*
X045214D01*
X045779Y093582D02*
Y094239D01*
X050679Y091089D02*
Y093655D01*
X049760Y094574D02*
X050679Y093655D01*
X049390Y090210D02*
X049575Y090394D01*
X049380Y090210D02*
X049390D01*
X039791Y101853D02*
X040550Y101094D01*
X039426Y101617D02*
X040819Y100224D01*
X035296Y101617D02*
X039426D01*
X035031Y101853D02*
X039791D01*
X032970Y097869D02*
X033775Y098674D01*
X034460D01*
X033632Y099027D02*
X034550Y099944D01*
X031413Y099027D02*
X033632D01*
X029819Y100621D02*
X031413Y099027D01*
X028004Y100621D02*
X029819D01*
X042381Y092334D02*
X042913Y091802D01*
X041820Y092334D02*
X042381D01*
X043472Y093127D02*
X044915Y091685D01*
X041338Y093127D02*
X043472D01*
X043155Y093809D02*
X044765Y092199D01*
X042630Y093809D02*
X043155D01*
X044765Y092168D02*
Y092199D01*
X045043Y091222D02*
X045149D01*
X042548Y094006D02*
X043950D01*
X042244Y093702D02*
X042548Y094006D01*
X042325Y093505D02*
X042630Y093809D01*
X040732Y093702D02*
X042244D01*
X040633Y093604D02*
X040732Y093702D01*
X041156Y093309D02*
X041338Y093127D01*
X043950Y094006D02*
X044569Y093387D01*
X045002Y093302D02*
Y094293D01*
X045317Y093766D02*
X045912Y093171D01*
X045779Y093582D02*
X045964Y093397D01*
X047076D01*
X026799Y092107D02*
X027307Y092615D01*
X042913Y091409D02*
Y091802D01*
X020913Y091222D02*
X021799Y092107D01*
X045030Y089120D02*
X047204D01*
X046822Y089332D02*
X047138D01*
X044734Y089415D02*
X045030Y089120D01*
X044734Y089415D02*
Y089676D01*
X047061Y093810D02*
X048189Y094938D01*
X046577Y093810D02*
X047061D01*
X048189Y094938D02*
Y094962D01*
X046567Y093821D02*
X046577Y093810D01*
X045912Y093171D02*
X047295D01*
X048800Y091234D02*
Y091818D01*
X047610Y093008D02*
X048800Y091818D01*
X047610Y093008D02*
Y093301D01*
X047076Y093397D02*
X047165Y093486D01*
X047426D01*
X047610Y093301D01*
X049454Y090776D02*
Y091442D01*
X048543Y092353D02*
X049454Y091442D01*
X048543Y092353D02*
Y095109D01*
X045654Y092649D02*
X047154D01*
X045002Y093302D02*
X045654Y092649D01*
X045556Y092413D02*
X047057D01*
X045064Y092905D02*
X045556Y092413D01*
X044864Y092905D02*
X045064D01*
X047817Y091209D02*
Y091986D01*
Y091209D02*
X048681Y090346D01*
X047154Y092649D02*
X047817Y091986D01*
X047621Y090905D02*
Y091849D01*
X047076Y092393D02*
X047621Y091849D01*
X046614Y089539D02*
Y091005D01*
X036596Y096880D02*
X046056D01*
X040819Y100224D02*
X043045D01*
X046555Y095554D02*
Y096046D01*
X050760Y094020D02*
X051270Y093510D01*
Y093044D02*
Y093510D01*
Y093044D02*
X051620Y092694D01*
X052550D01*
X045906Y097953D02*
X046090Y098138D01*
X051930Y090484D02*
X052030Y090384D01*
X050520Y090484D02*
X051930D01*
X052043Y089578D02*
X052050Y089584D01*
X050783Y089578D02*
X052043D01*
X049655Y090853D02*
X049772Y090736D01*
Y090267D02*
Y090736D01*
X049575Y090394D02*
Y090655D01*
X049454Y090776D02*
X049575Y090655D01*
X049969Y090833D02*
X050050Y090914D01*
X049260Y090479D02*
Y090524D01*
X048780Y092563D02*
X048978Y092364D01*
X046614Y089539D02*
X046822Y089332D01*
X047008Y089647D02*
X047195Y089834D01*
X047621Y090905D02*
X048495Y090031D01*
X049016Y094302D02*
X049691Y093627D01*
X046863Y091232D02*
X047156D01*
X046410Y091685D02*
X046863Y091232D01*
X010510Y086839D02*
X011160Y087489D01*
X042300Y097194D02*
Y098594D01*
X035305Y098170D02*
X036596Y096880D01*
X042750Y097494D02*
Y098194D01*
X037050Y097344D02*
X037100D01*
X037110Y097354D01*
X034200Y098144D02*
Y098158D01*
X034213Y098170D01*
X037110Y101004D02*
X037150Y101044D01*
X037110Y097354D02*
Y101004D01*
X032903Y099224D02*
X035296Y101617D01*
X032756Y099578D02*
X035031Y101853D01*
X046024Y092177D02*
X046043Y092157D01*
X045258Y092177D02*
X046024D01*
X046940Y092157D02*
X047364Y091733D01*
X047156Y091232D02*
X047364Y091439D01*
X044915Y091685D02*
X046410D01*
X045120Y092315D02*
X045258Y092177D01*
X046043Y092157D02*
X046940D01*
X047364Y091439D02*
Y091733D01*
X048042Y095316D02*
X048336D01*
X047895Y095169D02*
X048042Y095316D01*
X046940Y095169D02*
X047895D01*
X046555Y095554D02*
X046940Y095169D01*
X047944Y095552D02*
X048434D01*
X047797Y095405D02*
X047944Y095552D01*
X047038Y095405D02*
X047797D01*
X048780Y092563D02*
Y095206D01*
X048336Y095316D02*
X048543Y095109D01*
X045947Y095109D02*
X046930Y094125D01*
X046791Y095652D02*
X047038Y095405D01*
X048434Y095552D02*
X048780Y095206D01*
X034213Y098170D02*
X035305D01*
X044734Y089676D02*
X044773Y089716D01*
X045199Y091921D02*
X045213Y091936D01*
X045930D01*
X045945Y091921D01*
X046714D01*
X044194Y091054D02*
X044401Y091261D01*
X046596Y090987D02*
X046614Y091005D01*
X046596Y090986D02*
Y090987D01*
X041457Y092196D02*
X042599Y091054D01*
X040897Y092167D02*
Y092168D01*
X040925Y092196D01*
X041457D01*
X046094Y093712D02*
Y094528D01*
X047012Y091586D02*
X047030Y091604D01*
X047010Y091586D02*
X047012D01*
X047057Y092413D02*
X047076Y092393D01*
X046141D02*
X047076D01*
X042599Y091054D02*
X044194D01*
X041378Y091812D02*
X042372Y090818D01*
X040906Y091812D02*
X041378D01*
X042760Y093464D02*
Y093494D01*
X020831Y101359D02*
X023621D01*
X045356Y090818D02*
X045868Y091330D01*
X042372Y090818D02*
X045356D01*
X044765Y092168D02*
X045012Y091921D01*
X045199D01*
X036339Y097686D02*
X036640Y097987D01*
Y100744D01*
X030858Y100975D02*
X032609Y099224D01*
X032903D01*
X032410Y097554D02*
X034031D01*
X027857Y100975D02*
X030858D01*
X027739Y100856D02*
X027857Y100975D01*
X023621Y101359D02*
X024125Y100856D01*
X027739D01*
X049278Y089439D02*
X049969Y090130D01*
Y090833D01*
X027307Y092615D02*
X036735D01*
X038850Y093958D02*
X039175Y094283D01*
X035985Y093604D02*
X040633D01*
X036735Y092615D02*
X037330Y093209D01*
X037590D01*
X037668Y093132D01*
X040718D01*
X037137Y093406D02*
X038553D01*
X038591Y093368D01*
X040675D01*
X036774Y093044D02*
X037137Y093406D01*
X027951Y093044D02*
X036774D01*
X015413Y086724D02*
Y087408D01*
X027030Y098863D02*
X028050Y097843D01*
X025625Y099863D02*
X026625Y098863D01*
X020625Y099863D02*
X025625D01*
X026625Y098863D02*
X027030D01*
X028050Y097434D02*
Y097843D01*
X019394Y101944D02*
X019792D01*
X020110Y100377D02*
X020625Y099863D01*
X020110Y100377D02*
Y101626D01*
X019792Y101944D02*
X020110Y101626D01*
X064998Y092568D02*
X065109Y092458D01*
X062246Y093468D02*
X062283Y093505D01*
X062246Y090716D02*
Y093468D01*
X059154Y087624D02*
X062246Y090716D01*
X090808Y091921D02*
X091124Y091604D01*
X068730Y096359D02*
X072045Y093044D01*
X064925Y096359D02*
X068730D01*
X073935Y095060D02*
X078489D01*
X073705Y097465D02*
X074034Y097794D01*
X073705Y095291D02*
Y097465D01*
Y095291D02*
X073935Y095060D01*
X078489D02*
X078922Y095493D01*
X074098Y095710D02*
X076258Y097869D01*
X077065D01*
X081100Y095356D02*
X087364D01*
X080582Y095873D02*
X081100Y095356D01*
X079664Y093634D02*
Y095791D01*
X079582Y095873D02*
X079664Y095791D01*
X086726Y096326D02*
X087696Y095356D01*
X090142Y096553D02*
X090650Y096046D01*
X084222Y096326D02*
X086726D01*
X084002Y096553D02*
X090142D01*
X079354Y096326D02*
X083770D01*
X084134Y096238D02*
X084222Y096326D01*
X083857Y096238D02*
X084134D01*
X083770Y096326D02*
X083857Y096238D01*
X078125Y097554D02*
X079354Y096326D01*
X079795Y093320D02*
X080079Y093604D01*
X072962Y093320D02*
X079795D01*
X072894Y093388D02*
X072962Y093320D01*
X057693Y084910D02*
X059508Y086724D01*
X055563Y084910D02*
X057693D01*
X054605Y085251D02*
Y086839D01*
X055524Y084871D02*
X055563Y084910D01*
X054605Y085251D02*
X054985Y084871D01*
X055524D01*
X058000Y085718D02*
X059154Y086871D01*
X057128Y085718D02*
X058000D01*
X057084Y085674D02*
X057128Y085718D01*
X094284Y088924D02*
X094664D01*
X092748Y089158D02*
X094051D01*
X094284Y088924D01*
X092714Y089124D02*
X092748Y089158D01*
X091619Y089439D02*
X093373D01*
X093235Y089636D02*
X093866Y090267D01*
X091537Y089636D02*
X093235D01*
X093099Y089834D02*
X093475Y090210D01*
X091289Y089834D02*
X093099D01*
X092906Y090031D02*
X093354Y090479D01*
X092589Y090031D02*
X092906D01*
X091233Y089332D02*
X091537Y089636D01*
X091299Y089120D02*
X091619Y089439D01*
X093920Y088843D02*
X093922Y088841D01*
X094391Y089263D02*
X094392D01*
X094390Y089263D02*
X094391Y089263D01*
X092497Y088378D02*
X094069D01*
X091912Y088963D02*
X092497Y088378D01*
X094069D02*
X094284Y088594D01*
X094300Y090615D02*
X094774Y091089D01*
X094300Y089354D02*
Y090615D01*
X094662Y088873D02*
Y088922D01*
X094664Y088924D01*
X093785Y091000D02*
Y093627D01*
X093750Y090965D02*
X093785Y091000D01*
X094300Y089354D02*
X094390Y089263D01*
X093750Y090853D02*
Y090965D01*
X064042Y091222D02*
X065008D01*
X063432Y090611D02*
X064042Y091222D01*
X059508Y087408D02*
X062534Y090434D01*
X063054D01*
X063231Y090611D02*
X063432D01*
X063054Y090434D02*
X063231Y090611D01*
X059154Y086871D02*
Y087624D01*
X088868Y089676D02*
Y089716D01*
X084887Y092649D02*
X087710D01*
X089138Y091222D01*
X081554Y092894D02*
X084642D01*
X087364Y095356D02*
X087925Y094795D01*
X088055Y094480D02*
X088380Y094805D01*
X086193Y094480D02*
X088055D01*
X088137Y094283D02*
X088462Y094608D01*
X083269Y094283D02*
X088137D01*
X085789Y094884D02*
X086193Y094480D01*
X087696Y095356D02*
X089360D01*
X090189Y094528D01*
X090150Y096880D02*
X090886Y096144D01*
X087139Y100224D02*
X091240Y096124D01*
X090000Y097642D02*
X091734Y095908D01*
X090886Y095652D02*
Y096144D01*
X091240Y095798D02*
Y096124D01*
X091734Y095760D02*
Y095908D01*
X090592Y097823D02*
X093110Y095304D01*
X091201Y098138D02*
X094854Y094484D01*
X090000Y097642D02*
Y097953D01*
X090184Y098138D02*
X091201D01*
X090315Y097823D02*
X090592D01*
X093110Y094302D02*
Y095304D01*
X094854Y094020D02*
Y094484D01*
X090041Y095109D02*
Y096153D01*
X084908Y093506D02*
X085332D01*
X084770Y093368D02*
X084908Y093506D01*
X084989Y093309D02*
X085250D01*
X084812Y093132D02*
X084989Y093309D01*
X084642Y092894D02*
X084887Y092649D01*
X085332Y093505D02*
X086420D01*
X085332Y093506D02*
X085332Y093505D01*
X089227Y094608D02*
X089411Y094424D01*
Y093766D02*
Y094424D01*
X089308Y094805D02*
X089874Y094239D01*
X088462Y094608D02*
X089227D01*
X088380Y094805D02*
X089308D01*
X089874Y093582D02*
Y094239D01*
X094774Y091089D02*
Y093655D01*
X093854Y094574D02*
X094774Y093655D01*
X093485Y090210D02*
X093669Y090394D01*
X093475Y090210D02*
X093485D01*
X083886Y101853D02*
X084644Y101094D01*
X083521Y101617D02*
X084913Y100224D01*
X079390Y101617D02*
X083521D01*
X079126Y101853D02*
X083886D01*
X077065Y097869D02*
X077870Y098674D01*
X078554D01*
X077727Y099027D02*
X078644Y099944D01*
X075508Y099027D02*
X077727D01*
X073914Y100621D02*
X075508Y099027D01*
X072098Y100621D02*
X073914D01*
X086476Y092334D02*
X087008Y091802D01*
X085914Y092334D02*
X086476D01*
X087567Y093127D02*
X089009Y091685D01*
X085432Y093127D02*
X087567D01*
X087250Y093809D02*
X088860Y092199D01*
X086724Y093809D02*
X087250D01*
X088860Y092168D02*
Y092199D01*
X089138Y091222D02*
X089244D01*
X086642Y094006D02*
X088044D01*
X086339Y093702D02*
X086642Y094006D01*
X086420Y093505D02*
X086724Y093809D01*
X084826Y093702D02*
X086339D01*
X084728Y093604D02*
X084826Y093702D01*
X085250Y093309D02*
X085432Y093127D01*
X088044Y094006D02*
X088663Y093387D01*
X089096Y093302D02*
Y094293D01*
X089411Y093766D02*
X090006Y093171D01*
X089874Y093582D02*
X090058Y093397D01*
X091171D01*
X070894Y092107D02*
X071401Y092615D01*
X087008Y091409D02*
Y091802D01*
X065008Y091222D02*
X065894Y092107D01*
X089124Y089120D02*
X091299D01*
X090916Y089332D02*
X091233D01*
X088828Y089415D02*
X089124Y089120D01*
X088828Y089415D02*
Y089676D01*
X091155Y093810D02*
X092283Y094938D01*
X090672Y093810D02*
X091155D01*
X092283Y094938D02*
Y094962D01*
X090661Y093821D02*
X090672Y093810D01*
X090006Y093171D02*
X091390D01*
X092894Y091234D02*
Y091818D01*
X091705Y093008D02*
X092894Y091818D01*
X091705Y093008D02*
Y093301D01*
X091171Y093397D02*
X091259Y093486D01*
X091520D01*
X091705Y093301D01*
X093549Y090776D02*
Y091442D01*
X092638Y092353D02*
X093549Y091442D01*
X092638Y092353D02*
Y095109D01*
X089748Y092649D02*
X091249D01*
X089096Y093302D02*
X089748Y092649D01*
X089651Y092413D02*
X091151D01*
X089159Y092905D02*
X089651Y092413D01*
X088958Y092905D02*
X089159D01*
X091912Y091209D02*
Y091986D01*
Y091209D02*
X092776Y090346D01*
X091249Y092649D02*
X091912Y091986D01*
X091715Y090905D02*
Y091849D01*
X091171Y092393D02*
X091715Y091849D01*
X090709Y089539D02*
Y091005D01*
X080691Y096880D02*
X090150D01*
X084913Y100224D02*
X087139D01*
X090650Y095554D02*
Y096046D01*
X094854Y094020D02*
X095364Y093510D01*
Y093044D02*
Y093510D01*
Y093044D02*
X095714Y092694D01*
X096644D01*
X090000Y097953D02*
X090184Y098138D01*
X096024Y090484D02*
X096124Y090384D01*
X094614Y090484D02*
X096024D01*
X096138Y089578D02*
X096144Y089584D01*
X094878Y089578D02*
X096138D01*
X093750Y090853D02*
X093866Y090736D01*
Y090267D02*
Y090736D01*
X093669Y090394D02*
Y090655D01*
X093549Y090776D02*
X093669Y090655D01*
X094063Y090833D02*
X094144Y090914D01*
X093354Y090479D02*
Y090524D01*
X092874Y092563D02*
X093073Y092364D01*
X090709Y089539D02*
X090916Y089332D01*
X091102Y089647D02*
X091289Y089834D01*
X091715Y090905D02*
X092589Y090031D01*
X093110Y094302D02*
X093785Y093627D01*
X090957Y091232D02*
X091251D01*
X090505Y091685D02*
X090957Y091232D01*
X054605Y086839D02*
X055254Y087489D01*
X086394Y097194D02*
Y098594D01*
X079400Y098170D02*
X080691Y096880D01*
X086844Y097494D02*
Y098194D01*
X081144Y097344D02*
X081194D01*
X081204Y097354D01*
X078294Y098144D02*
Y098158D01*
X078307Y098170D01*
X081204Y101004D02*
X081244Y101044D01*
X081204Y097354D02*
Y101004D01*
X076997Y099224D02*
X079390Y101617D01*
X076850Y099578D02*
X079126Y101853D01*
X090118Y092177D02*
X090138Y092157D01*
X089352Y092177D02*
X090118D01*
X091034Y092157D02*
X091459Y091733D01*
X091251Y091232D02*
X091459Y091439D01*
X089009Y091685D02*
X090505D01*
X089214Y092315D02*
X089352Y092177D01*
X090138Y092157D02*
X091034D01*
X091459Y091439D02*
Y091733D01*
X092137Y095316D02*
X092430D01*
X091990Y095169D02*
X092137Y095316D01*
X091034Y095169D02*
X091990D01*
X090650Y095554D02*
X091034Y095169D01*
X092039Y095552D02*
X092528D01*
X091892Y095405D02*
X092039Y095552D01*
X091132Y095405D02*
X091892D01*
X092874Y092563D02*
Y095206D01*
X092430Y095316D02*
X092638Y095109D01*
X090041Y095109D02*
X091025Y094125D01*
X090886Y095652D02*
X091132Y095405D01*
X092528Y095552D02*
X092874Y095206D01*
X078307Y098170D02*
X079400D01*
X088828Y089676D02*
X088868Y089716D01*
X089293Y091921D02*
X089308Y091936D01*
X090025D01*
X090040Y091921D01*
X090808D01*
X088289Y091054D02*
X088496Y091261D01*
X090691Y090987D02*
X090709Y091005D01*
X090691Y090986D02*
Y090987D01*
X085552Y092196D02*
X086694Y091054D01*
X084992Y092167D02*
Y092168D01*
X085020Y092196D01*
X085552D01*
X090189Y093712D02*
Y094528D01*
X091106Y091586D02*
X091124Y091604D01*
X091104Y091586D02*
X091106D01*
X091151Y092413D02*
X091171Y092393D01*
X090236D02*
X091171D01*
X086694Y091054D02*
X088289D01*
X085472Y091812D02*
X086467Y090818D01*
X085000Y091812D02*
X085472D01*
X086854Y093464D02*
Y093494D01*
X064925Y101359D02*
X067716D01*
X089450Y090818D02*
X089962Y091330D01*
X086467Y090818D02*
X089450D01*
X088860Y092168D02*
X089107Y091921D01*
X089293D01*
X080433Y097686D02*
X080734Y097987D01*
Y100744D01*
X074952Y100975D02*
X076704Y099224D01*
X076997D01*
X076504Y097554D02*
X078125D01*
X071952Y100975D02*
X074952D01*
X071833Y100856D02*
X071952Y100975D01*
X067716Y101359D02*
X068219Y100856D01*
X071833D01*
X093373Y089439D02*
X094063Y090130D01*
Y090833D01*
X071401Y092615D02*
X080830D01*
X082944Y093958D02*
X083269Y094283D01*
X080079Y093604D02*
X084728D01*
X080830Y092615D02*
X081424Y093209D01*
X081685D01*
X081763Y093132D01*
X084812D01*
X081231Y093406D02*
X082648D01*
X082686Y093368D01*
X084770D01*
X080869Y093044D02*
X081231Y093406D01*
X072045Y093044D02*
X080869D01*
X059508Y086724D02*
Y087408D01*
X071125Y098863D02*
X072144Y097843D01*
X069719Y099863D02*
X070719Y098863D01*
X064719Y099863D02*
X069719D01*
X070719Y098863D02*
X071125D01*
X072144Y097434D02*
Y097843D01*
X063489Y101944D02*
X063887D01*
X064205Y100377D02*
X064719Y099863D01*
X064205Y100377D02*
Y101626D01*
X063887Y101944D02*
X064205Y101626D01*
X109093Y092568D02*
X109203Y092458D01*
X106341Y093468D02*
X106378Y093505D01*
X106341Y090716D02*
Y093468D01*
X103248Y087624D02*
X106341Y090716D01*
X134902Y091921D02*
X135219Y091604D01*
X112824Y096359D02*
X116140Y093044D01*
X109020Y096359D02*
X112824D01*
X118030Y095060D02*
X122583D01*
X117799Y097465D02*
X118129Y097794D01*
X117799Y095291D02*
Y097465D01*
Y095291D02*
X118030Y095060D01*
X122583D02*
X123017Y095493D01*
X118193Y095710D02*
X120353Y097869D01*
X121159D01*
X125195Y095356D02*
X131459D01*
X124677Y095873D02*
X125195Y095356D01*
X123759Y093634D02*
Y095791D01*
X123677Y095873D02*
X123759Y095791D01*
X130820Y096326D02*
X131790Y095356D01*
X134237Y096553D02*
X134744Y096046D01*
X128316Y096326D02*
X130820D01*
X128097Y096553D02*
X134237D01*
X123448Y096326D02*
X127864D01*
X128228Y096238D02*
X128316Y096326D01*
X127952Y096238D02*
X128228D01*
X127864Y096326D02*
X127952Y096238D01*
X122220Y097554D02*
X123448Y096326D01*
X123889Y093320D02*
X124174Y093604D01*
X117057Y093320D02*
X123889D01*
X116988Y093388D02*
X117057Y093320D01*
X101788Y084910D02*
X103602Y086724D01*
X099657Y084910D02*
X101788D01*
X098699Y085251D02*
Y086839D01*
X099618Y084871D02*
X099657Y084910D01*
X098699Y085251D02*
X099080Y084871D01*
X099618D01*
X102095Y085718D02*
X103248Y086871D01*
X101223Y085718D02*
X102095D01*
X101179Y085674D02*
X101223Y085718D01*
X138379Y088924D02*
X138759D01*
X136842Y089158D02*
X138145D01*
X138379Y088924D01*
X136809Y089124D02*
X136842Y089158D01*
X135713Y089439D02*
X137467D01*
X137330Y089636D02*
X137961Y090267D01*
X135632Y089636D02*
X137330D01*
X137193Y089834D02*
X137569Y090210D01*
X135384Y089834D02*
X137193D01*
X137001Y090031D02*
X137449Y090479D01*
X136684Y090031D02*
X137001D01*
X135327Y089332D02*
X135632Y089636D01*
X135393Y089120D02*
X135713Y089439D01*
X138015Y088843D02*
X138017Y088841D01*
X138485Y089263D02*
X138487D01*
X138485Y089263D02*
X138485Y089263D01*
X136592Y088378D02*
X138163D01*
X136007Y088963D02*
X136592Y088378D01*
X138163D02*
X138379Y088594D01*
X138394Y090615D02*
X138868Y091089D01*
X138394Y089354D02*
Y090615D01*
X138757Y088873D02*
Y088922D01*
X138759Y088924D01*
X137880Y091000D02*
Y093627D01*
X137844Y090965D02*
X137880Y091000D01*
X138394Y089354D02*
X138485Y089263D01*
X137844Y090853D02*
Y090965D01*
X108137Y091222D02*
X109102D01*
X107527Y090611D02*
X108137Y091222D01*
X103602Y087408D02*
X106629Y090434D01*
X107149D01*
X107326Y090611D02*
X107527D01*
X107149Y090434D02*
X107326Y090611D01*
X103248Y086871D02*
Y087624D01*
X132962Y089676D02*
Y089716D01*
X128982Y092649D02*
X131805D01*
X133232Y091222D01*
X125649Y092894D02*
X128737D01*
X131459Y095356D02*
X132019Y094795D01*
X132150Y094480D02*
X132475Y094805D01*
X130287Y094480D02*
X132150D01*
X132231Y094283D02*
X132556Y094608D01*
X127364Y094283D02*
X132231D01*
X129883Y094884D02*
X130287Y094480D01*
X131790Y095356D02*
X133455D01*
X134283Y094528D01*
X134245Y096880D02*
X134980Y096144D01*
X131234Y100224D02*
X135335Y096124D01*
X134094Y097642D02*
X135829Y095908D01*
X134980Y095652D02*
Y096144D01*
X135335Y095798D02*
Y096124D01*
X135829Y095760D02*
Y095908D01*
X134686Y097823D02*
X137205Y095304D01*
X135296Y098138D02*
X138949Y094484D01*
X134094Y097642D02*
Y097953D01*
X134279Y098138D02*
X135296D01*
X134409Y097823D02*
X134686D01*
X137205Y094302D02*
Y095304D01*
X138949Y094020D02*
Y094484D01*
X134136Y095109D02*
Y096153D01*
X129002Y093506D02*
X129426D01*
X128864Y093368D02*
X129002Y093506D01*
X129084Y093309D02*
X129345D01*
X128907Y093132D02*
X129084Y093309D01*
X128737Y092894D02*
X128982Y092649D01*
X129427Y093505D02*
X130514D01*
X129426Y093506D02*
X129427Y093505D01*
X133321Y094608D02*
X133506Y094424D01*
Y093766D02*
Y094424D01*
X133403Y094805D02*
X133968Y094239D01*
X132556Y094608D02*
X133321D01*
X132475Y094805D02*
X133403D01*
X133968Y093582D02*
Y094239D01*
X138868Y091089D02*
Y093655D01*
X137949Y094574D02*
X138868Y093655D01*
X137579Y090210D02*
X137764Y090394D01*
X137569Y090210D02*
X137579D01*
X127980Y101853D02*
X128739Y101094D01*
X127615Y101617D02*
X129008Y100224D01*
X123485Y101617D02*
X127615D01*
X123220Y101853D02*
X127980D01*
X121159Y097869D02*
X121964Y098674D01*
X122649D01*
X121821Y099027D02*
X122739Y099944D01*
X119602Y099027D02*
X121821D01*
X118008Y100621D02*
X119602Y099027D01*
X116193Y100621D02*
X118008D01*
X130570Y092334D02*
X131102Y091802D01*
X130009Y092334D02*
X130570D01*
X131661Y093127D02*
X133103Y091685D01*
X129527Y093127D02*
X131661D01*
X131344Y093809D02*
X132954Y092199D01*
X130819Y093809D02*
X131344D01*
X132954Y092168D02*
Y092199D01*
X133232Y091222D02*
X133338D01*
X130737Y094006D02*
X132139D01*
X130433Y093702D02*
X130737Y094006D01*
X130514Y093505D02*
X130819Y093809D01*
X128921Y093702D02*
X130433D01*
X128822Y093604D02*
X128921Y093702D01*
X129345Y093309D02*
X129527Y093127D01*
X132139Y094006D02*
X132758Y093387D01*
X133191Y093302D02*
Y094293D01*
X133506Y093766D02*
X134101Y093171D01*
X133968Y093582D02*
X134153Y093397D01*
X135265D01*
X114988Y092107D02*
X115496Y092615D01*
X131102Y091409D02*
Y091802D01*
X109102Y091222D02*
X109988Y092107D01*
X133219Y089120D02*
X135393D01*
X135011Y089332D02*
X135327D01*
X132923Y089415D02*
X133219Y089120D01*
X132923Y089415D02*
Y089676D01*
X135250Y093810D02*
X136378Y094938D01*
X134766Y093810D02*
X135250D01*
X136378Y094938D02*
Y094962D01*
X134756Y093821D02*
X134766Y093810D01*
X134101Y093171D02*
X135484D01*
X136989Y091234D02*
Y091818D01*
X135799Y093008D02*
X136989Y091818D01*
X135799Y093008D02*
Y093301D01*
X135265Y093397D02*
X135354Y093486D01*
X135615D01*
X135799Y093301D01*
X137643Y090776D02*
Y091442D01*
X136732Y092353D02*
X137643Y091442D01*
X136732Y092353D02*
Y095109D01*
X133843Y092649D02*
X135343D01*
X133191Y093302D02*
X133843Y092649D01*
X133745Y092413D02*
X135246D01*
X133253Y092905D02*
X133745Y092413D01*
X133053Y092905D02*
X133253D01*
X136006Y091209D02*
Y091986D01*
Y091209D02*
X136870Y090346D01*
X135343Y092649D02*
X136006Y091986D01*
X135810Y090905D02*
Y091849D01*
X135265Y092393D02*
X135810Y091849D01*
X134803Y089539D02*
Y091005D01*
X124785Y096880D02*
X134245D01*
X129008Y100224D02*
X131234D01*
X134744Y095554D02*
Y096046D01*
X138949Y094020D02*
X139459Y093510D01*
Y093044D02*
Y093510D01*
Y093044D02*
X139809Y092694D01*
X140739D01*
X134094Y097953D02*
X134279Y098138D01*
X140119Y090484D02*
X140219Y090384D01*
X138709Y090484D02*
X140119D01*
X140232Y089578D02*
X140239Y089584D01*
X138972Y089578D02*
X140232D01*
X137844Y090853D02*
X137961Y090736D01*
Y090267D02*
Y090736D01*
X137764Y090394D02*
Y090655D01*
X137643Y090776D02*
X137764Y090655D01*
X138158Y090833D02*
X138239Y090914D01*
X137449Y090479D02*
Y090524D01*
X136969Y092563D02*
X137167Y092364D01*
X134803Y089539D02*
X135011Y089332D01*
X135197Y089647D02*
X135384Y089834D01*
X135810Y090905D02*
X136684Y090031D01*
X137205Y094302D02*
X137880Y093627D01*
X135052Y091232D02*
X135345D01*
X134599Y091685D02*
X135052Y091232D01*
X098699Y086839D02*
X099349Y087489D01*
X130489Y097194D02*
Y098594D01*
X123494Y098170D02*
X124785Y096880D01*
X130939Y097494D02*
Y098194D01*
X125239Y097344D02*
X125289D01*
X125299Y097354D01*
X122389Y098144D02*
Y098158D01*
X122402Y098170D01*
X125299Y101004D02*
X125339Y101044D01*
X125299Y097354D02*
Y101004D01*
X121092Y099224D02*
X123485Y101617D01*
X120945Y099578D02*
X123220Y101853D01*
X134212Y092177D02*
X134232Y092157D01*
X133447Y092177D02*
X134212D01*
X135129Y092157D02*
X135553Y091733D01*
X135345Y091232D02*
X135553Y091439D01*
X133103Y091685D02*
X134599D01*
X133309Y092315D02*
X133447Y092177D01*
X134232Y092157D02*
X135129D01*
X135553Y091439D02*
Y091733D01*
X136231Y095316D02*
X136525D01*
X136084Y095169D02*
X136231Y095316D01*
X135129Y095169D02*
X136084D01*
X134744Y095554D02*
X135129Y095169D01*
X136133Y095552D02*
X136623D01*
X135986Y095405D02*
X136133Y095552D01*
X135227Y095405D02*
X135986D01*
X136969Y092563D02*
Y095206D01*
X136525Y095316D02*
X136732Y095109D01*
X134136Y095109D02*
X135119Y094125D01*
X134980Y095652D02*
X135227Y095405D01*
X136623Y095552D02*
X136969Y095206D01*
X122402Y098170D02*
X123494D01*
X132923Y089676D02*
X132962Y089716D01*
X133387Y091921D02*
X133402Y091936D01*
X134119D01*
X134134Y091921D01*
X134902D01*
X132383Y091054D02*
X132590Y091261D01*
X134785Y090987D02*
X134803Y091005D01*
X134785Y090986D02*
Y090987D01*
X129646Y092196D02*
X130788Y091054D01*
X129086Y092167D02*
Y092168D01*
X129114Y092196D01*
X129646D01*
X134283Y093712D02*
Y094528D01*
X135201Y091586D02*
X135219Y091604D01*
X135199Y091586D02*
X135201D01*
X135246Y092413D02*
X135265Y092393D01*
X134330D02*
X135265D01*
X130788Y091054D02*
X132383D01*
X129567Y091812D02*
X130561Y090818D01*
X129094Y091812D02*
X129567D01*
X130949Y093464D02*
Y093494D01*
X109020Y101359D02*
X111810D01*
X133545Y090818D02*
X134057Y091330D01*
X130561Y090818D02*
X133545D01*
X132954Y092168D02*
X133201Y091921D01*
X133387D01*
X124528Y097686D02*
X124829Y097987D01*
Y100744D01*
X119047Y100975D02*
X120798Y099224D01*
X121092D01*
X120599Y097554D02*
X122220D01*
X116046Y100975D02*
X119047D01*
X115928Y100856D02*
X116046Y100975D01*
X111810Y101359D02*
X112314Y100856D01*
X115928D01*
X137467Y089439D02*
X138158Y090130D01*
Y090833D01*
X115496Y092615D02*
X124924D01*
X127039Y093958D02*
X127364Y094283D01*
X124174Y093604D02*
X128822D01*
X124924Y092615D02*
X125519Y093209D01*
X125779D01*
X125857Y093132D01*
X128907D01*
X125326Y093406D02*
X126742D01*
X126780Y093368D01*
X128864D01*
X124963Y093044D02*
X125326Y093406D01*
X116140Y093044D02*
X124963D01*
X103602Y086724D02*
Y087408D01*
X115219Y098863D02*
X116239Y097843D01*
X113814Y099863D02*
X114814Y098863D01*
X108814Y099863D02*
X113814D01*
X114814Y098863D02*
X115219D01*
X116239Y097434D02*
Y097843D01*
X107583Y101944D02*
X107981D01*
X108299Y100377D02*
X108814Y099863D01*
X108299Y100377D02*
Y101626D01*
X107981Y101944D02*
X108299Y101626D01*
D36*
X016299Y046832D02*
X017550Y048083D01*
X060394Y046832D02*
X061644Y048083D01*
X104488Y046832D02*
X105739Y048083D01*
X016299Y071635D02*
X017550Y072886D01*
X060394Y071635D02*
X061644Y072886D01*
X104488Y071635D02*
X105739Y072886D01*
X016299Y096438D02*
X017550Y097689D01*
X060394Y096438D02*
X061644Y097689D01*
X104488Y096438D02*
X105739Y097689D01*
D39*
X015050Y044288D02*
D03*
X059144D02*
D03*
X103239D02*
D03*
X015050Y069091D02*
D03*
X059144D02*
D03*
X103239D02*
D03*
X015050Y093894D02*
D03*
X059144D02*
D03*
X103239D02*
D03*
D41*
X010986Y106773D02*
D03*
X139333D02*
D03*
Y029607D02*
D03*
X010986D02*
D03*
D42*
X034004Y046104D02*
D03*
X033004D02*
D03*
X032004D02*
D03*
X031004D02*
D03*
X030004D02*
D03*
X029004D02*
D03*
X028004D02*
D03*
X034004Y052104D02*
D03*
X033004D02*
D03*
X032004D02*
D03*
X031004D02*
D03*
X030004D02*
D03*
X029004D02*
D03*
X028004D02*
D03*
X078098Y046104D02*
D03*
X077098D02*
D03*
X076098D02*
D03*
X075098D02*
D03*
X074098D02*
D03*
X073098D02*
D03*
X072098D02*
D03*
X078098Y052104D02*
D03*
X077098D02*
D03*
X076098D02*
D03*
X075098D02*
D03*
X074098D02*
D03*
X073098D02*
D03*
X072098D02*
D03*
X122193Y046104D02*
D03*
X121193D02*
D03*
X120193D02*
D03*
X119193D02*
D03*
X118193D02*
D03*
X117193D02*
D03*
X116193D02*
D03*
X122193Y052104D02*
D03*
X121193D02*
D03*
X120193D02*
D03*
X119193D02*
D03*
X118193D02*
D03*
X117193D02*
D03*
X116193D02*
D03*
X034004Y070907D02*
D03*
X033004D02*
D03*
X032004D02*
D03*
X031004D02*
D03*
X030004D02*
D03*
X029004D02*
D03*
X028004D02*
D03*
X034004Y076907D02*
D03*
X033004D02*
D03*
X032004D02*
D03*
X031004D02*
D03*
X030004D02*
D03*
X029004D02*
D03*
X028004D02*
D03*
X078098Y070907D02*
D03*
X077098D02*
D03*
X076098D02*
D03*
X075098D02*
D03*
X074098D02*
D03*
X073098D02*
D03*
X072098D02*
D03*
X078098Y076907D02*
D03*
X077098D02*
D03*
X076098D02*
D03*
X075098D02*
D03*
X074098D02*
D03*
X073098D02*
D03*
X072098D02*
D03*
X122193Y070907D02*
D03*
X121193D02*
D03*
X120193D02*
D03*
X119193D02*
D03*
X118193D02*
D03*
X117193D02*
D03*
X116193D02*
D03*
X122193Y076907D02*
D03*
X121193D02*
D03*
X120193D02*
D03*
X119193D02*
D03*
X118193D02*
D03*
X117193D02*
D03*
X116193D02*
D03*
X034004Y095710D02*
D03*
X033004D02*
D03*
X032004D02*
D03*
X031004D02*
D03*
X030004D02*
D03*
X029004D02*
D03*
X028004D02*
D03*
X034004Y101710D02*
D03*
X033004D02*
D03*
X032004D02*
D03*
X031004D02*
D03*
X030004D02*
D03*
X029004D02*
D03*
X028004D02*
D03*
X078098Y095710D02*
D03*
X077098D02*
D03*
X076098D02*
D03*
X075098D02*
D03*
X074098D02*
D03*
X073098D02*
D03*
X072098D02*
D03*
X078098Y101710D02*
D03*
X077098D02*
D03*
X076098D02*
D03*
X075098D02*
D03*
X074098D02*
D03*
X073098D02*
D03*
X072098D02*
D03*
X122193Y095710D02*
D03*
X121193D02*
D03*
X120193D02*
D03*
X119193D02*
D03*
X118193D02*
D03*
X117193D02*
D03*
X116193D02*
D03*
X122193Y101710D02*
D03*
X121193D02*
D03*
X120193D02*
D03*
X119193D02*
D03*
X118193D02*
D03*
X117193D02*
D03*
X116193D02*
D03*
D43*
X026831Y045753D02*
D03*
Y046753D02*
D03*
Y047753D02*
D03*
Y048753D02*
D03*
Y049753D02*
D03*
Y050753D02*
D03*
Y051753D02*
D03*
Y052753D02*
D03*
X020831D02*
D03*
Y051753D02*
D03*
Y050753D02*
D03*
Y049753D02*
D03*
Y048753D02*
D03*
Y047753D02*
D03*
Y046753D02*
D03*
Y045753D02*
D03*
X013937Y052867D02*
D03*
Y051867D02*
D03*
Y050867D02*
D03*
Y049867D02*
D03*
Y048867D02*
D03*
Y047867D02*
D03*
Y046867D02*
D03*
Y045867D02*
D03*
Y044867D02*
D03*
X051537Y049195D02*
D03*
X050037Y047227D02*
D03*
X051537Y045258D02*
D03*
X070925Y045753D02*
D03*
Y046753D02*
D03*
Y047753D02*
D03*
Y048753D02*
D03*
Y049753D02*
D03*
Y050753D02*
D03*
Y051753D02*
D03*
Y052753D02*
D03*
X064925D02*
D03*
Y051753D02*
D03*
Y050753D02*
D03*
Y049753D02*
D03*
Y048753D02*
D03*
Y047753D02*
D03*
Y046753D02*
D03*
Y045753D02*
D03*
X058032Y052867D02*
D03*
Y051867D02*
D03*
Y050867D02*
D03*
Y049867D02*
D03*
Y048867D02*
D03*
Y047867D02*
D03*
Y046867D02*
D03*
Y045867D02*
D03*
Y044867D02*
D03*
X095632Y049195D02*
D03*
X094132Y047227D02*
D03*
X095632Y045258D02*
D03*
X115020Y045753D02*
D03*
Y046753D02*
D03*
Y047753D02*
D03*
Y048753D02*
D03*
Y049753D02*
D03*
Y050753D02*
D03*
Y051753D02*
D03*
Y052753D02*
D03*
X109020D02*
D03*
Y051753D02*
D03*
Y050753D02*
D03*
Y049753D02*
D03*
Y048753D02*
D03*
Y047753D02*
D03*
Y046753D02*
D03*
Y045753D02*
D03*
X102126Y052867D02*
D03*
Y051867D02*
D03*
Y050867D02*
D03*
Y049867D02*
D03*
Y048867D02*
D03*
Y047867D02*
D03*
Y046867D02*
D03*
Y045867D02*
D03*
Y044867D02*
D03*
X139726Y049195D02*
D03*
X138226Y047227D02*
D03*
X139726Y045258D02*
D03*
X026831Y070556D02*
D03*
Y071556D02*
D03*
Y072556D02*
D03*
Y073556D02*
D03*
Y074556D02*
D03*
Y075556D02*
D03*
Y076556D02*
D03*
Y077556D02*
D03*
X020831D02*
D03*
Y076556D02*
D03*
Y075556D02*
D03*
Y074556D02*
D03*
Y073556D02*
D03*
Y072556D02*
D03*
Y071556D02*
D03*
Y070556D02*
D03*
X013937Y077670D02*
D03*
Y076670D02*
D03*
Y075670D02*
D03*
Y074670D02*
D03*
Y073670D02*
D03*
Y072670D02*
D03*
Y071670D02*
D03*
Y070670D02*
D03*
Y069670D02*
D03*
X051537Y073998D02*
D03*
X050037Y072030D02*
D03*
X051537Y070061D02*
D03*
X070925Y070556D02*
D03*
Y071556D02*
D03*
Y072556D02*
D03*
Y073556D02*
D03*
Y074556D02*
D03*
Y075556D02*
D03*
Y076556D02*
D03*
Y077556D02*
D03*
X064925D02*
D03*
Y076556D02*
D03*
Y075556D02*
D03*
Y074556D02*
D03*
Y073556D02*
D03*
Y072556D02*
D03*
Y071556D02*
D03*
Y070556D02*
D03*
X058032Y077670D02*
D03*
Y076670D02*
D03*
Y075670D02*
D03*
Y074670D02*
D03*
Y073670D02*
D03*
Y072670D02*
D03*
Y071670D02*
D03*
Y070670D02*
D03*
Y069670D02*
D03*
X095632Y073998D02*
D03*
X094132Y072030D02*
D03*
X095632Y070061D02*
D03*
X115020Y070556D02*
D03*
Y071556D02*
D03*
Y072556D02*
D03*
Y073556D02*
D03*
Y074556D02*
D03*
Y075556D02*
D03*
Y076556D02*
D03*
Y077556D02*
D03*
X109020D02*
D03*
Y076556D02*
D03*
Y075556D02*
D03*
Y074556D02*
D03*
Y073556D02*
D03*
Y072556D02*
D03*
Y071556D02*
D03*
Y070556D02*
D03*
X102126Y077670D02*
D03*
Y076670D02*
D03*
Y075670D02*
D03*
Y074670D02*
D03*
Y073670D02*
D03*
Y072670D02*
D03*
Y071670D02*
D03*
Y070670D02*
D03*
Y069670D02*
D03*
X139726Y073998D02*
D03*
X138226Y072030D02*
D03*
X139726Y070061D02*
D03*
X026831Y095359D02*
D03*
Y096359D02*
D03*
Y097359D02*
D03*
Y098359D02*
D03*
Y099359D02*
D03*
Y100359D02*
D03*
Y101359D02*
D03*
Y102359D02*
D03*
X020831D02*
D03*
Y101359D02*
D03*
Y100359D02*
D03*
Y099359D02*
D03*
Y098359D02*
D03*
Y097359D02*
D03*
Y096359D02*
D03*
Y095359D02*
D03*
X013937Y102474D02*
D03*
Y101474D02*
D03*
Y100474D02*
D03*
Y099474D02*
D03*
Y098474D02*
D03*
Y097474D02*
D03*
Y096474D02*
D03*
Y095474D02*
D03*
Y094474D02*
D03*
X051537Y098802D02*
D03*
X050037Y096833D02*
D03*
X051537Y094865D02*
D03*
X070925Y095359D02*
D03*
Y096359D02*
D03*
Y097359D02*
D03*
Y098359D02*
D03*
Y099359D02*
D03*
Y100359D02*
D03*
Y101359D02*
D03*
Y102359D02*
D03*
X064925D02*
D03*
Y101359D02*
D03*
Y100359D02*
D03*
Y099359D02*
D03*
Y098359D02*
D03*
Y097359D02*
D03*
Y096359D02*
D03*
Y095359D02*
D03*
X058032Y102474D02*
D03*
Y101474D02*
D03*
Y100474D02*
D03*
Y099474D02*
D03*
Y098474D02*
D03*
Y097474D02*
D03*
Y096474D02*
D03*
Y095474D02*
D03*
Y094474D02*
D03*
X095632Y098802D02*
D03*
X094132Y096833D02*
D03*
X095632Y094865D02*
D03*
X115020Y095359D02*
D03*
Y096359D02*
D03*
Y097359D02*
D03*
Y098359D02*
D03*
Y099359D02*
D03*
Y100359D02*
D03*
Y101359D02*
D03*
Y102359D02*
D03*
X109020D02*
D03*
Y101359D02*
D03*
Y100359D02*
D03*
Y099359D02*
D03*
Y098359D02*
D03*
Y097359D02*
D03*
Y096359D02*
D03*
Y095359D02*
D03*
X102126Y102474D02*
D03*
Y101474D02*
D03*
Y100474D02*
D03*
Y099474D02*
D03*
Y098474D02*
D03*
Y097474D02*
D03*
Y096474D02*
D03*
Y095474D02*
D03*
Y094474D02*
D03*
X139726Y098802D02*
D03*
X138226Y096833D02*
D03*
X139726Y094865D02*
D03*
D44*
X020799Y042501D02*
D03*
X021799D02*
D03*
X022799D02*
D03*
X023799D02*
D03*
X024799D02*
D03*
X025799D02*
D03*
X026799D02*
D03*
X027799D02*
D03*
X028799D02*
D03*
X030965D02*
D03*
X031965D02*
D03*
X032965D02*
D03*
X033965D02*
D03*
X034965D02*
D03*
X035965D02*
D03*
X036965D02*
D03*
X037965D02*
D03*
X038965D02*
D03*
X064894D02*
D03*
X065894D02*
D03*
X066894D02*
D03*
X067894D02*
D03*
X068894D02*
D03*
X069894D02*
D03*
X070894D02*
D03*
X071894D02*
D03*
X072894D02*
D03*
X075059D02*
D03*
X076059D02*
D03*
X077059D02*
D03*
X078059D02*
D03*
X079059D02*
D03*
X080059D02*
D03*
X081059D02*
D03*
X082059D02*
D03*
X083059D02*
D03*
X108988D02*
D03*
X109988D02*
D03*
X110988D02*
D03*
X111988D02*
D03*
X112988D02*
D03*
X113988D02*
D03*
X114988D02*
D03*
X115988D02*
D03*
X116988D02*
D03*
X119154D02*
D03*
X120154D02*
D03*
X121154D02*
D03*
X122154D02*
D03*
X123154D02*
D03*
X124154D02*
D03*
X125154D02*
D03*
X126154D02*
D03*
X127154D02*
D03*
X020799Y067304D02*
D03*
X021799D02*
D03*
X022799D02*
D03*
X023799D02*
D03*
X024799D02*
D03*
X025799D02*
D03*
X026799D02*
D03*
X027799D02*
D03*
X028799D02*
D03*
X030965D02*
D03*
X031965D02*
D03*
X032965D02*
D03*
X033965D02*
D03*
X034965D02*
D03*
X035965D02*
D03*
X036965D02*
D03*
X037965D02*
D03*
X038965D02*
D03*
X064894D02*
D03*
X065894D02*
D03*
X066894D02*
D03*
X067894D02*
D03*
X068894D02*
D03*
X069894D02*
D03*
X070894D02*
D03*
X071894D02*
D03*
X072894D02*
D03*
X075059D02*
D03*
X076059D02*
D03*
X077059D02*
D03*
X078059D02*
D03*
X079059D02*
D03*
X080059D02*
D03*
X081059D02*
D03*
X082059D02*
D03*
X083059D02*
D03*
X108988D02*
D03*
X109988D02*
D03*
X110988D02*
D03*
X111988D02*
D03*
X112988D02*
D03*
X113988D02*
D03*
X114988D02*
D03*
X115988D02*
D03*
X116988D02*
D03*
X119154D02*
D03*
X120154D02*
D03*
X121154D02*
D03*
X122154D02*
D03*
X123154D02*
D03*
X124154D02*
D03*
X125154D02*
D03*
X126154D02*
D03*
X127154D02*
D03*
X020799Y092107D02*
D03*
X021799D02*
D03*
X022799D02*
D03*
X023799D02*
D03*
X024799D02*
D03*
X025799D02*
D03*
X026799D02*
D03*
X027799D02*
D03*
X028799D02*
D03*
X030965D02*
D03*
X031965D02*
D03*
X032965D02*
D03*
X033965D02*
D03*
X034965D02*
D03*
X035965D02*
D03*
X036965D02*
D03*
X037965D02*
D03*
X038965D02*
D03*
X064894D02*
D03*
X065894D02*
D03*
X066894D02*
D03*
X067894D02*
D03*
X068894D02*
D03*
X069894D02*
D03*
X070894D02*
D03*
X071894D02*
D03*
X072894D02*
D03*
X075059D02*
D03*
X076059D02*
D03*
X077059D02*
D03*
X078059D02*
D03*
X079059D02*
D03*
X080059D02*
D03*
X081059D02*
D03*
X082059D02*
D03*
X083059D02*
D03*
X108988D02*
D03*
X109988D02*
D03*
X110988D02*
D03*
X111988D02*
D03*
X112988D02*
D03*
X113988D02*
D03*
X114988D02*
D03*
X115988D02*
D03*
X116988D02*
D03*
X119154D02*
D03*
X120154D02*
D03*
X121154D02*
D03*
X122154D02*
D03*
X123154D02*
D03*
X124154D02*
D03*
X125154D02*
D03*
X126154D02*
D03*
X127154D02*
D03*
D45*
X029799Y042501D02*
D03*
X039965D02*
D03*
X073894D02*
D03*
X084059D02*
D03*
X117988D02*
D03*
X128154D02*
D03*
X029799Y067304D02*
D03*
X039965D02*
D03*
X073894D02*
D03*
X084059D02*
D03*
X117988D02*
D03*
X128154D02*
D03*
X029799Y092107D02*
D03*
X039965D02*
D03*
X073894D02*
D03*
X084059D02*
D03*
X117988D02*
D03*
X128154D02*
D03*
D46*
X015050Y044706D02*
D03*
X014632Y044288D02*
D03*
X015468D02*
D03*
X015050Y043871D02*
D03*
X059144Y044706D02*
D03*
X058727Y044288D02*
D03*
X059562D02*
D03*
X059144Y043871D02*
D03*
X103239Y044706D02*
D03*
X102821Y044288D02*
D03*
X103657D02*
D03*
X103239Y043871D02*
D03*
X015050Y069509D02*
D03*
X014632Y069091D02*
D03*
X015468D02*
D03*
X015050Y068674D02*
D03*
X059144Y069509D02*
D03*
X058727Y069091D02*
D03*
X059562D02*
D03*
X059144Y068674D02*
D03*
X103239Y069509D02*
D03*
X102821Y069091D02*
D03*
X103657D02*
D03*
X103239Y068674D02*
D03*
X015050Y094312D02*
D03*
X014632Y093894D02*
D03*
X015468D02*
D03*
X015050Y093477D02*
D03*
X059144Y094312D02*
D03*
X058727Y093894D02*
D03*
X059562D02*
D03*
X059144Y093477D02*
D03*
X103239Y094312D02*
D03*
X102821Y093894D02*
D03*
X103657D02*
D03*
X103239Y093477D02*
D03*
D47*
X051500Y053438D02*
D03*
X010500D02*
D03*
Y045938D02*
D03*
X095594Y053438D02*
D03*
X054594D02*
D03*
Y045938D02*
D03*
X139689Y053438D02*
D03*
X098689D02*
D03*
Y045938D02*
D03*
X051500Y078241D02*
D03*
X010500D02*
D03*
Y070741D02*
D03*
X095594Y078241D02*
D03*
X054594D02*
D03*
Y070741D02*
D03*
X139689Y078241D02*
D03*
X098689D02*
D03*
Y070741D02*
D03*
X051500Y103044D02*
D03*
X010500D02*
D03*
Y095544D02*
D03*
X095594Y103044D02*
D03*
X054594D02*
D03*
Y095544D02*
D03*
X139689Y103044D02*
D03*
X098689D02*
D03*
Y095544D02*
D03*
D48*
X040488Y046267D02*
D03*
X084582D02*
D03*
X128677D02*
D03*
X040488Y071070D02*
D03*
X084582D02*
D03*
X128677D02*
D03*
X040488Y095873D02*
D03*
X084582D02*
D03*
X128677D02*
D03*
D49*
X039488Y046267D02*
D03*
X038488D02*
D03*
X037488D02*
D03*
X036488D02*
D03*
X035488D02*
D03*
X083582D02*
D03*
X082582D02*
D03*
X081582D02*
D03*
X080582D02*
D03*
X079582D02*
D03*
X127677D02*
D03*
X126677D02*
D03*
X125677D02*
D03*
X124677D02*
D03*
X123677D02*
D03*
X039488Y071070D02*
D03*
X038488D02*
D03*
X037488D02*
D03*
X036488D02*
D03*
X035488D02*
D03*
X083582D02*
D03*
X082582D02*
D03*
X081582D02*
D03*
X080582D02*
D03*
X079582D02*
D03*
X127677D02*
D03*
X126677D02*
D03*
X125677D02*
D03*
X124677D02*
D03*
X123677D02*
D03*
X039488Y095873D02*
D03*
X038488D02*
D03*
X037488D02*
D03*
X036488D02*
D03*
X035488D02*
D03*
X083582D02*
D03*
X082582D02*
D03*
X081582D02*
D03*
X080582D02*
D03*
X079582D02*
D03*
X127677D02*
D03*
X126677D02*
D03*
X125677D02*
D03*
X124677D02*
D03*
X123677D02*
D03*
D50*
X042628Y052317D02*
D03*
X019502Y051507D02*
D03*
X086722Y052317D02*
D03*
X063597Y051507D02*
D03*
X130817Y052317D02*
D03*
X107691Y051507D02*
D03*
X042628Y077120D02*
D03*
X019502Y076310D02*
D03*
X086722Y077120D02*
D03*
X063597Y076310D02*
D03*
X130817Y077120D02*
D03*
X107691Y076310D02*
D03*
X042628Y101923D02*
D03*
X019502Y101113D02*
D03*
X086722Y101923D02*
D03*
X063597Y101113D02*
D03*
X130817Y101923D02*
D03*
X107691Y101113D02*
D03*
D51*
X042628Y051317D02*
D03*
X019502Y052507D02*
D03*
X086722Y051317D02*
D03*
X063597Y052507D02*
D03*
X130817Y051317D02*
D03*
X107691Y052507D02*
D03*
X042628Y076120D02*
D03*
X019502Y077310D02*
D03*
X086722Y076120D02*
D03*
X063597Y077310D02*
D03*
X130817Y076120D02*
D03*
X107691Y077310D02*
D03*
X042628Y100923D02*
D03*
X019502Y102113D02*
D03*
X086722Y100923D02*
D03*
X063597Y102113D02*
D03*
X130817Y100923D02*
D03*
X107691Y102113D02*
D03*
D52*
X010688Y039103D02*
D03*
X012026Y034654D02*
D03*
X011160Y037882D02*
D03*
Y036898D02*
D03*
Y035914D02*
D03*
X054782Y039103D02*
D03*
X056121Y034654D02*
D03*
X055254Y037882D02*
D03*
Y036898D02*
D03*
Y035914D02*
D03*
X098877Y039103D02*
D03*
X100215Y034654D02*
D03*
X099349Y037882D02*
D03*
Y036898D02*
D03*
Y035914D02*
D03*
X010688Y063906D02*
D03*
X012026Y059457D02*
D03*
X011160Y062686D02*
D03*
Y061701D02*
D03*
Y060717D02*
D03*
X054782Y063906D02*
D03*
X056121Y059457D02*
D03*
X055254Y062686D02*
D03*
Y061701D02*
D03*
Y060717D02*
D03*
X098877Y063906D02*
D03*
X100215Y059457D02*
D03*
X099349Y062686D02*
D03*
Y061701D02*
D03*
Y060717D02*
D03*
X010688Y088709D02*
D03*
X012026Y084260D02*
D03*
X011160Y087489D02*
D03*
Y086504D02*
D03*
Y085520D02*
D03*
X054782Y088709D02*
D03*
X056121Y084260D02*
D03*
X055254Y087489D02*
D03*
Y086504D02*
D03*
Y085520D02*
D03*
X098877Y088709D02*
D03*
X100215Y084260D02*
D03*
X099349Y087489D02*
D03*
Y086504D02*
D03*
Y085520D02*
D03*
D53*
X021324Y044108D02*
D03*
X028720Y048879D02*
D03*
X034828Y045887D02*
D03*
X039908Y046947D02*
D03*
X016299Y046832D02*
D03*
X017550Y048083D02*
D03*
X050190Y038988D02*
D03*
X050298Y039657D02*
D03*
X049826Y039237D02*
D03*
X050568Y039267D02*
D03*
X050783Y039971D02*
D03*
X050520Y040878D02*
D03*
X050050Y041308D02*
D03*
X049208Y039127D02*
D03*
X016938Y053267D02*
D03*
X019618Y042357D02*
D03*
X019134Y041497D02*
D03*
X016280Y043008D02*
D03*
X025178Y050737D02*
D03*
X022158Y048287D02*
D03*
X040897Y042561D02*
D03*
X041820Y042728D02*
D03*
X040886Y042078D02*
D03*
X037460Y043288D02*
D03*
X045947Y046547D02*
D03*
X045002Y044687D02*
D03*
X050276Y043682D02*
D03*
X050364Y042678D02*
D03*
X049260Y040918D02*
D03*
X041025Y043387D02*
D03*
X042750Y048588D02*
D03*
X042913Y041802D02*
D03*
X051230Y041458D02*
D03*
X048620Y039518D02*
D03*
X048681Y040739D02*
D03*
X048800Y041628D02*
D03*
X049760Y044968D02*
D03*
X052050Y039978D02*
D03*
X048978Y042758D02*
D03*
X047818Y039357D02*
D03*
X047008Y040041D02*
D03*
X047010Y041980D02*
D03*
X052030Y040778D02*
D03*
X052485Y037513D02*
D03*
X012990Y036068D02*
D03*
X040550Y051488D02*
D03*
X042300Y048988D02*
D03*
Y047588D02*
D03*
X042750Y047888D02*
D03*
X037050Y047738D02*
D03*
X034200Y048538D02*
D03*
X032410Y047948D02*
D03*
X034550Y050338D02*
D03*
X028004Y051014D02*
D03*
X048150Y052438D02*
D03*
X047295Y043565D02*
D03*
X046567Y044214D02*
D03*
X046930Y044519D02*
D03*
X047640Y046153D02*
D03*
X048189Y045356D02*
D03*
X045120Y042708D02*
D03*
X045868Y041724D02*
D03*
X045149Y041616D02*
D03*
X044401Y041655D02*
D03*
X046596Y041379D02*
D03*
X044734Y040070D02*
D03*
X045160Y039828D02*
D03*
X042520Y042088D02*
D03*
X047146Y046192D02*
D03*
X046220Y048216D02*
D03*
X043830Y045189D02*
D03*
X046094Y044106D02*
D03*
X042760Y043888D02*
D03*
X044569Y043781D02*
D03*
X044864Y043299D02*
D03*
X041694Y045277D02*
D03*
X052550Y043088D02*
D03*
X037150Y051438D02*
D03*
X035570Y044028D02*
D03*
X014528Y037482D02*
D03*
X013642D02*
D03*
X015315Y039942D02*
D03*
X012992Y051852D02*
D03*
X015315Y039253D02*
D03*
X014449Y039844D02*
D03*
X016024Y040474D02*
D03*
X031270Y049118D02*
D03*
X036339Y048080D02*
D03*
X036640Y051138D02*
D03*
X032756Y049972D02*
D03*
X033050Y048788D02*
D03*
X029940Y048188D02*
D03*
X034460Y049068D02*
D03*
X016530Y040098D02*
D03*
X015945Y039647D02*
D03*
X047668Y037677D02*
D03*
X028799Y043782D02*
D03*
X038850Y044352D02*
D03*
X018189Y043899D02*
D03*
X015907Y049687D02*
D03*
X028050Y047828D02*
D03*
X065419Y044108D02*
D03*
X072815Y048879D02*
D03*
X078922Y045887D02*
D03*
X084002Y046947D02*
D03*
X060394Y046832D02*
D03*
X061644Y048083D02*
D03*
X094284Y038988D02*
D03*
X094392Y039657D02*
D03*
X093920Y039237D02*
D03*
X094662Y039267D02*
D03*
X094878Y039971D02*
D03*
X094614Y040878D02*
D03*
X094144Y041308D02*
D03*
X093302Y039127D02*
D03*
X061032Y053267D02*
D03*
X063712Y042357D02*
D03*
X063228Y041497D02*
D03*
X060374Y043008D02*
D03*
X069272Y050737D02*
D03*
X066252Y048287D02*
D03*
X084992Y042561D02*
D03*
X085914Y042728D02*
D03*
X084980Y042078D02*
D03*
X081554Y043288D02*
D03*
X090041Y046547D02*
D03*
X089096Y044687D02*
D03*
X094370Y043682D02*
D03*
X094459Y042678D02*
D03*
X093354Y040918D02*
D03*
X085120Y043387D02*
D03*
X086844Y048588D02*
D03*
X087008Y041802D02*
D03*
X095324Y041458D02*
D03*
X092714Y039518D02*
D03*
X092776Y040739D02*
D03*
X092894Y041628D02*
D03*
X093854Y044968D02*
D03*
X096144Y039978D02*
D03*
X093073Y042758D02*
D03*
X091912Y039357D02*
D03*
X091102Y040041D02*
D03*
X091104Y041980D02*
D03*
X096124Y040778D02*
D03*
X096579Y037513D02*
D03*
X057084Y036068D02*
D03*
X084644Y051488D02*
D03*
X086394Y048988D02*
D03*
Y047588D02*
D03*
X086844Y047888D02*
D03*
X081144Y047738D02*
D03*
X078294Y048538D02*
D03*
X076504Y047948D02*
D03*
X078644Y050338D02*
D03*
X072098Y051014D02*
D03*
X092244Y052438D02*
D03*
X091390Y043565D02*
D03*
X090661Y044214D02*
D03*
X091025Y044519D02*
D03*
X091734Y046153D02*
D03*
X092283Y045356D02*
D03*
X089214Y042708D02*
D03*
X089962Y041724D02*
D03*
X089244Y041616D02*
D03*
X088496Y041655D02*
D03*
X090691Y041379D02*
D03*
X088828Y040070D02*
D03*
X089254Y039828D02*
D03*
X086615Y042088D02*
D03*
X091240Y046192D02*
D03*
X090315Y048216D02*
D03*
X087925Y045189D02*
D03*
X090189Y044106D02*
D03*
X086854Y043888D02*
D03*
X088663Y043781D02*
D03*
X088958Y043299D02*
D03*
X085789Y045277D02*
D03*
X096644Y043088D02*
D03*
X081244Y051438D02*
D03*
X079664Y044028D02*
D03*
X058622Y037482D02*
D03*
X057736D02*
D03*
X059409Y039942D02*
D03*
X057087Y051852D02*
D03*
X059409Y039253D02*
D03*
X058543Y039844D02*
D03*
X060118Y040474D02*
D03*
X075364Y049118D02*
D03*
X080433Y048080D02*
D03*
X080734Y051138D02*
D03*
X076850Y049972D02*
D03*
X077144Y048788D02*
D03*
X074034Y048188D02*
D03*
X078554Y049068D02*
D03*
X060624Y040098D02*
D03*
X060039Y039647D02*
D03*
X091762Y037677D02*
D03*
X072894Y043782D02*
D03*
X082944Y044352D02*
D03*
X062283Y043899D02*
D03*
X060002Y049687D02*
D03*
X072144Y047828D02*
D03*
X109513Y044108D02*
D03*
X116909Y048879D02*
D03*
X123017Y045887D02*
D03*
X128097Y046947D02*
D03*
X104488Y046832D02*
D03*
X105739Y048083D02*
D03*
X138379Y038988D02*
D03*
X138487Y039657D02*
D03*
X138015Y039237D02*
D03*
X138757Y039267D02*
D03*
X138972Y039971D02*
D03*
X138709Y040878D02*
D03*
X138239Y041308D02*
D03*
X137397Y039127D02*
D03*
X105127Y053267D02*
D03*
X107807Y042357D02*
D03*
X107323Y041497D02*
D03*
X104469Y043008D02*
D03*
X113367Y050737D02*
D03*
X110347Y048287D02*
D03*
X129086Y042561D02*
D03*
X130009Y042728D02*
D03*
X129075Y042078D02*
D03*
X125649Y043288D02*
D03*
X134136Y046547D02*
D03*
X133191Y044687D02*
D03*
X138465Y043682D02*
D03*
X138553Y042678D02*
D03*
X137449Y040918D02*
D03*
X129214Y043387D02*
D03*
X130939Y048588D02*
D03*
X131102Y041802D02*
D03*
X139419Y041458D02*
D03*
X136809Y039518D02*
D03*
X136870Y040739D02*
D03*
X136989Y041628D02*
D03*
X137949Y044968D02*
D03*
X140239Y039978D02*
D03*
X137167Y042758D02*
D03*
X136007Y039357D02*
D03*
X135197Y040041D02*
D03*
X135199Y041980D02*
D03*
X140219Y040778D02*
D03*
X140674Y037513D02*
D03*
X101179Y036068D02*
D03*
X128739Y051488D02*
D03*
X130489Y048988D02*
D03*
Y047588D02*
D03*
X130939Y047888D02*
D03*
X125239Y047738D02*
D03*
X122389Y048538D02*
D03*
X120599Y047948D02*
D03*
X122739Y050338D02*
D03*
X116193Y051014D02*
D03*
X136339Y052438D02*
D03*
X135484Y043565D02*
D03*
X134756Y044214D02*
D03*
X135119Y044519D02*
D03*
X135829Y046153D02*
D03*
X136378Y045356D02*
D03*
X133309Y042708D02*
D03*
X134057Y041724D02*
D03*
X133338Y041616D02*
D03*
X132590Y041655D02*
D03*
X134785Y041379D02*
D03*
X132923Y040070D02*
D03*
X133349Y039828D02*
D03*
X130709Y042088D02*
D03*
X135335Y046192D02*
D03*
X134409Y048216D02*
D03*
X132019Y045189D02*
D03*
X134283Y044106D02*
D03*
X130949Y043888D02*
D03*
X132758Y043781D02*
D03*
X133053Y043299D02*
D03*
X129883Y045277D02*
D03*
X140739Y043088D02*
D03*
X125339Y051438D02*
D03*
X123759Y044028D02*
D03*
X102717Y037482D02*
D03*
X101831D02*
D03*
X103504Y039942D02*
D03*
X101181Y051852D02*
D03*
X103504Y039253D02*
D03*
X102638Y039844D02*
D03*
X104213Y040474D02*
D03*
X119459Y049118D02*
D03*
X124528Y048080D02*
D03*
X124829Y051138D02*
D03*
X120945Y049972D02*
D03*
X121239Y048788D02*
D03*
X118129Y048188D02*
D03*
X122649Y049068D02*
D03*
X104719Y040098D02*
D03*
X104134Y039647D02*
D03*
X135857Y037677D02*
D03*
X116988Y043782D02*
D03*
X127039Y044352D02*
D03*
X106378Y043899D02*
D03*
X104096Y049687D02*
D03*
X116239Y047828D02*
D03*
X021324Y068911D02*
D03*
X028720Y073682D02*
D03*
X034828Y070690D02*
D03*
X039908Y071750D02*
D03*
X016299Y071635D02*
D03*
X017550Y072886D02*
D03*
X050190Y063791D02*
D03*
X050298Y064460D02*
D03*
X049826Y064040D02*
D03*
X050568Y064070D02*
D03*
X050783Y064775D02*
D03*
X050520Y065681D02*
D03*
X050050Y066111D02*
D03*
X049208Y063930D02*
D03*
X016938Y078070D02*
D03*
X019618Y067160D02*
D03*
X019134Y066300D02*
D03*
X016280Y067811D02*
D03*
X025178Y075540D02*
D03*
X022158Y073090D02*
D03*
X040897Y067364D02*
D03*
X041820Y067531D02*
D03*
X040886Y066881D02*
D03*
X037460Y068091D02*
D03*
X045947Y071350D02*
D03*
X045002Y069490D02*
D03*
X050276Y068485D02*
D03*
X050364Y067481D02*
D03*
X049260Y065721D02*
D03*
X041025Y068191D02*
D03*
X042750Y073391D02*
D03*
X042913Y066606D02*
D03*
X051230Y066261D02*
D03*
X048620Y064321D02*
D03*
X048681Y065543D02*
D03*
X048800Y066431D02*
D03*
X049760Y069771D02*
D03*
X052050Y064781D02*
D03*
X048978Y067561D02*
D03*
X047818Y064160D02*
D03*
X047008Y064844D02*
D03*
X047010Y066783D02*
D03*
X052030Y065581D02*
D03*
X052485Y062316D02*
D03*
X012990Y060871D02*
D03*
X040550Y076291D02*
D03*
X042300Y073791D02*
D03*
Y072391D02*
D03*
X042750Y072691D02*
D03*
X037050Y072541D02*
D03*
X034200Y073341D02*
D03*
X032410Y072751D02*
D03*
X034550Y075141D02*
D03*
X028004Y075817D02*
D03*
X048150Y077241D02*
D03*
X047295Y068368D02*
D03*
X046567Y069017D02*
D03*
X046930Y069322D02*
D03*
X047640Y070957D02*
D03*
X048189Y070159D02*
D03*
X045120Y067511D02*
D03*
X045868Y066527D02*
D03*
X045149Y066419D02*
D03*
X044401Y066458D02*
D03*
X046596Y066183D02*
D03*
X044734Y064873D02*
D03*
X045160Y064631D02*
D03*
X042520Y066891D02*
D03*
X047146Y070995D02*
D03*
X046220Y073019D02*
D03*
X043830Y069992D02*
D03*
X046094Y068909D02*
D03*
X042760Y068691D02*
D03*
X044569Y068584D02*
D03*
X044864Y068102D02*
D03*
X041694Y070080D02*
D03*
X052550Y067891D02*
D03*
X037150Y076241D02*
D03*
X035570Y068831D02*
D03*
X014528Y062285D02*
D03*
X013642D02*
D03*
X015315Y064745D02*
D03*
X012992Y076655D02*
D03*
X015315Y064056D02*
D03*
X014449Y064647D02*
D03*
X016024Y065277D02*
D03*
X031270Y073921D02*
D03*
X036339Y072883D02*
D03*
X036640Y075941D02*
D03*
X032756Y074775D02*
D03*
X033050Y073591D02*
D03*
X029940Y072991D02*
D03*
X034460Y073871D02*
D03*
X016530Y064901D02*
D03*
X015945Y064450D02*
D03*
X047668Y062480D02*
D03*
X028799Y068585D02*
D03*
X038850Y069155D02*
D03*
X018189Y068702D02*
D03*
X015907Y074491D02*
D03*
X028050Y072631D02*
D03*
X065419Y068911D02*
D03*
X072815Y073682D02*
D03*
X078922Y070690D02*
D03*
X084002Y071750D02*
D03*
X060394Y071635D02*
D03*
X061644Y072886D02*
D03*
X094284Y063791D02*
D03*
X094392Y064460D02*
D03*
X093920Y064040D02*
D03*
X094662Y064070D02*
D03*
X094878Y064775D02*
D03*
X094614Y065681D02*
D03*
X094144Y066111D02*
D03*
X093302Y063930D02*
D03*
X061032Y078070D02*
D03*
X063712Y067160D02*
D03*
X063228Y066300D02*
D03*
X060374Y067811D02*
D03*
X069272Y075540D02*
D03*
X066252Y073090D02*
D03*
X084992Y067364D02*
D03*
X085914Y067531D02*
D03*
X084980Y066881D02*
D03*
X081554Y068091D02*
D03*
X090041Y071350D02*
D03*
X089096Y069490D02*
D03*
X094370Y068485D02*
D03*
X094459Y067481D02*
D03*
X093354Y065721D02*
D03*
X085120Y068191D02*
D03*
X086844Y073391D02*
D03*
X087008Y066606D02*
D03*
X095324Y066261D02*
D03*
X092714Y064321D02*
D03*
X092776Y065543D02*
D03*
X092894Y066431D02*
D03*
X093854Y069771D02*
D03*
X096144Y064781D02*
D03*
X093073Y067561D02*
D03*
X091912Y064160D02*
D03*
X091102Y064844D02*
D03*
X091104Y066783D02*
D03*
X096124Y065581D02*
D03*
X096579Y062316D02*
D03*
X057084Y060871D02*
D03*
X084644Y076291D02*
D03*
X086394Y073791D02*
D03*
Y072391D02*
D03*
X086844Y072691D02*
D03*
X081144Y072541D02*
D03*
X078294Y073341D02*
D03*
X076504Y072751D02*
D03*
X078644Y075141D02*
D03*
X072098Y075817D02*
D03*
X092244Y077241D02*
D03*
X091390Y068368D02*
D03*
X090661Y069017D02*
D03*
X091025Y069322D02*
D03*
X091734Y070957D02*
D03*
X092283Y070159D02*
D03*
X089214Y067511D02*
D03*
X089962Y066527D02*
D03*
X089244Y066419D02*
D03*
X088496Y066458D02*
D03*
X090691Y066183D02*
D03*
X088828Y064873D02*
D03*
X089254Y064631D02*
D03*
X086615Y066891D02*
D03*
X091240Y070995D02*
D03*
X090315Y073019D02*
D03*
X087925Y069992D02*
D03*
X090189Y068909D02*
D03*
X086854Y068691D02*
D03*
X088663Y068584D02*
D03*
X088958Y068102D02*
D03*
X085789Y070080D02*
D03*
X096644Y067891D02*
D03*
X081244Y076241D02*
D03*
X079664Y068831D02*
D03*
X058622Y062285D02*
D03*
X057736D02*
D03*
X059409Y064745D02*
D03*
X057087Y076655D02*
D03*
X059409Y064056D02*
D03*
X058543Y064647D02*
D03*
X060118Y065277D02*
D03*
X075364Y073921D02*
D03*
X080433Y072883D02*
D03*
X080734Y075941D02*
D03*
X076850Y074775D02*
D03*
X077144Y073591D02*
D03*
X074034Y072991D02*
D03*
X078554Y073871D02*
D03*
X060624Y064901D02*
D03*
X060039Y064450D02*
D03*
X091762Y062480D02*
D03*
X072894Y068585D02*
D03*
X082944Y069155D02*
D03*
X062283Y068702D02*
D03*
X060002Y074491D02*
D03*
X072144Y072631D02*
D03*
X109513Y068911D02*
D03*
X116909Y073682D02*
D03*
X123017Y070690D02*
D03*
X128097Y071750D02*
D03*
X104488Y071635D02*
D03*
X105739Y072886D02*
D03*
X138379Y063791D02*
D03*
X138487Y064460D02*
D03*
X138015Y064040D02*
D03*
X138757Y064070D02*
D03*
X138972Y064775D02*
D03*
X138709Y065681D02*
D03*
X138239Y066111D02*
D03*
X137397Y063930D02*
D03*
X105127Y078070D02*
D03*
X107807Y067160D02*
D03*
X107323Y066300D02*
D03*
X104469Y067811D02*
D03*
X113367Y075540D02*
D03*
X110347Y073090D02*
D03*
X129086Y067364D02*
D03*
X130009Y067531D02*
D03*
X129075Y066881D02*
D03*
X125649Y068091D02*
D03*
X134136Y071350D02*
D03*
X133191Y069490D02*
D03*
X138465Y068485D02*
D03*
X138553Y067481D02*
D03*
X137449Y065721D02*
D03*
X129214Y068191D02*
D03*
X130939Y073391D02*
D03*
X131102Y066606D02*
D03*
X139419Y066261D02*
D03*
X136809Y064321D02*
D03*
X136870Y065543D02*
D03*
X136989Y066431D02*
D03*
X137949Y069771D02*
D03*
X140239Y064781D02*
D03*
X137167Y067561D02*
D03*
X136007Y064160D02*
D03*
X135197Y064844D02*
D03*
X135199Y066783D02*
D03*
X140219Y065581D02*
D03*
X140674Y062316D02*
D03*
X101179Y060871D02*
D03*
X128739Y076291D02*
D03*
X130489Y073791D02*
D03*
Y072391D02*
D03*
X130939Y072691D02*
D03*
X125239Y072541D02*
D03*
X122389Y073341D02*
D03*
X120599Y072751D02*
D03*
X122739Y075141D02*
D03*
X116193Y075817D02*
D03*
X136339Y077241D02*
D03*
X135484Y068368D02*
D03*
X134756Y069017D02*
D03*
X135119Y069322D02*
D03*
X135829Y070957D02*
D03*
X136378Y070159D02*
D03*
X133309Y067511D02*
D03*
X134057Y066527D02*
D03*
X133338Y066419D02*
D03*
X132590Y066458D02*
D03*
X134785Y066183D02*
D03*
X132923Y064873D02*
D03*
X133349Y064631D02*
D03*
X130709Y066891D02*
D03*
X135335Y070995D02*
D03*
X134409Y073019D02*
D03*
X132019Y069992D02*
D03*
X134283Y068909D02*
D03*
X130949Y068691D02*
D03*
X132758Y068584D02*
D03*
X133053Y068102D02*
D03*
X129883Y070080D02*
D03*
X140739Y067891D02*
D03*
X125339Y076241D02*
D03*
X123759Y068831D02*
D03*
X102717Y062285D02*
D03*
X101831D02*
D03*
X103504Y064745D02*
D03*
X101181Y076655D02*
D03*
X103504Y064056D02*
D03*
X102638Y064647D02*
D03*
X104213Y065277D02*
D03*
X119459Y073921D02*
D03*
X124528Y072883D02*
D03*
X124829Y075941D02*
D03*
X120945Y074775D02*
D03*
X121239Y073591D02*
D03*
X118129Y072991D02*
D03*
X122649Y073871D02*
D03*
X104719Y064901D02*
D03*
X104134Y064450D02*
D03*
X135857Y062480D02*
D03*
X116988Y068585D02*
D03*
X127039Y069155D02*
D03*
X106378Y068702D02*
D03*
X104096Y074491D02*
D03*
X116239Y072631D02*
D03*
X021324Y093714D02*
D03*
X028720Y098485D02*
D03*
X034828Y095493D02*
D03*
X039908Y096553D02*
D03*
X016299Y096438D02*
D03*
X017550Y097689D02*
D03*
X050190Y088594D02*
D03*
X050298Y089263D02*
D03*
X049826Y088843D02*
D03*
X050568Y088873D02*
D03*
X050783Y089578D02*
D03*
X050520Y090484D02*
D03*
X050050Y090914D02*
D03*
X049208Y088733D02*
D03*
X016938Y102873D02*
D03*
X019618Y091963D02*
D03*
X019134Y091104D02*
D03*
X016280Y092614D02*
D03*
X025178Y100343D02*
D03*
X022158Y097893D02*
D03*
X040897Y092167D02*
D03*
X041820Y092334D02*
D03*
X040886Y091684D02*
D03*
X037460Y092894D02*
D03*
X045947Y096153D02*
D03*
X045002Y094293D02*
D03*
X050276Y093289D02*
D03*
X050364Y092285D02*
D03*
X049260Y090524D02*
D03*
X041025Y092994D02*
D03*
X042750Y098194D02*
D03*
X042913Y091409D02*
D03*
X051230Y091064D02*
D03*
X048620Y089124D02*
D03*
X048681Y090346D02*
D03*
X048800Y091234D02*
D03*
X049760Y094574D02*
D03*
X052050Y089584D02*
D03*
X048978Y092364D02*
D03*
X047818Y088963D02*
D03*
X047008Y089647D02*
D03*
X047010Y091586D02*
D03*
X052030Y090384D02*
D03*
X052485Y087119D02*
D03*
X012990Y085674D02*
D03*
X040550Y101094D02*
D03*
X042300Y098594D02*
D03*
Y097194D02*
D03*
X042750Y097494D02*
D03*
X037050Y097344D02*
D03*
X034200Y098144D02*
D03*
X032410Y097554D02*
D03*
X034550Y099944D02*
D03*
X028004Y100621D02*
D03*
X048150Y102044D02*
D03*
X047295Y093171D02*
D03*
X046567Y093821D02*
D03*
X046930Y094125D02*
D03*
X047640Y095760D02*
D03*
X048189Y094962D02*
D03*
X045120Y092315D02*
D03*
X045868Y091330D02*
D03*
X045149Y091222D02*
D03*
X044401Y091261D02*
D03*
X046596Y090986D02*
D03*
X044734Y089676D02*
D03*
X045160Y089434D02*
D03*
X042520Y091694D02*
D03*
X047146Y095798D02*
D03*
X046220Y097823D02*
D03*
X043830Y094795D02*
D03*
X046094Y093712D02*
D03*
X042760Y093494D02*
D03*
X044569Y093387D02*
D03*
X044864Y092905D02*
D03*
X041694Y094884D02*
D03*
X052550Y092694D02*
D03*
X037150Y101044D02*
D03*
X035570Y093634D02*
D03*
X014528Y087088D02*
D03*
X013642D02*
D03*
X015315Y089548D02*
D03*
X012992Y101458D02*
D03*
X015315Y088859D02*
D03*
X014449Y089450D02*
D03*
X016024Y090080D02*
D03*
X031270Y098724D02*
D03*
X036339Y097686D02*
D03*
X036640Y100744D02*
D03*
X032756Y099578D02*
D03*
X033050Y098394D02*
D03*
X029940Y097794D02*
D03*
X034460Y098674D02*
D03*
X016530Y089704D02*
D03*
X015945Y089253D02*
D03*
X047668Y087283D02*
D03*
X028799Y093388D02*
D03*
X038850Y093958D02*
D03*
X018189Y093505D02*
D03*
X015907Y099294D02*
D03*
X028050Y097434D02*
D03*
X065419Y093714D02*
D03*
X072815Y098485D02*
D03*
X078922Y095493D02*
D03*
X084002Y096553D02*
D03*
X060394Y096438D02*
D03*
X061644Y097689D02*
D03*
X094284Y088594D02*
D03*
X094392Y089263D02*
D03*
X093920Y088843D02*
D03*
X094662Y088873D02*
D03*
X094878Y089578D02*
D03*
X094614Y090484D02*
D03*
X094144Y090914D02*
D03*
X093302Y088733D02*
D03*
X061032Y102873D02*
D03*
X063712Y091963D02*
D03*
X063228Y091104D02*
D03*
X060374Y092614D02*
D03*
X069272Y100343D02*
D03*
X066252Y097893D02*
D03*
X084992Y092167D02*
D03*
X085914Y092334D02*
D03*
X084980Y091684D02*
D03*
X081554Y092894D02*
D03*
X090041Y096153D02*
D03*
X089096Y094293D02*
D03*
X094370Y093289D02*
D03*
X094459Y092285D02*
D03*
X093354Y090524D02*
D03*
X085120Y092994D02*
D03*
X086844Y098194D02*
D03*
X087008Y091409D02*
D03*
X095324Y091064D02*
D03*
X092714Y089124D02*
D03*
X092776Y090346D02*
D03*
X092894Y091234D02*
D03*
X093854Y094574D02*
D03*
X096144Y089584D02*
D03*
X093073Y092364D02*
D03*
X091912Y088963D02*
D03*
X091102Y089647D02*
D03*
X091104Y091586D02*
D03*
X096124Y090384D02*
D03*
X096579Y087119D02*
D03*
X057084Y085674D02*
D03*
X084644Y101094D02*
D03*
X086394Y098594D02*
D03*
Y097194D02*
D03*
X086844Y097494D02*
D03*
X081144Y097344D02*
D03*
X078294Y098144D02*
D03*
X076504Y097554D02*
D03*
X078644Y099944D02*
D03*
X072098Y100621D02*
D03*
X092244Y102044D02*
D03*
X091390Y093171D02*
D03*
X090661Y093821D02*
D03*
X091025Y094125D02*
D03*
X091734Y095760D02*
D03*
X092283Y094962D02*
D03*
X089214Y092315D02*
D03*
X089962Y091330D02*
D03*
X089244Y091222D02*
D03*
X088496Y091261D02*
D03*
X090691Y090986D02*
D03*
X088828Y089676D02*
D03*
X089254Y089434D02*
D03*
X086615Y091694D02*
D03*
X091240Y095798D02*
D03*
X090315Y097823D02*
D03*
X087925Y094795D02*
D03*
X090189Y093712D02*
D03*
X086854Y093494D02*
D03*
X088663Y093387D02*
D03*
X088958Y092905D02*
D03*
X085789Y094884D02*
D03*
X096644Y092694D02*
D03*
X081244Y101044D02*
D03*
X079664Y093634D02*
D03*
X058622Y087088D02*
D03*
X057736D02*
D03*
X059409Y089548D02*
D03*
X057087Y101458D02*
D03*
X059409Y088859D02*
D03*
X058543Y089450D02*
D03*
X060118Y090080D02*
D03*
X075364Y098724D02*
D03*
X080433Y097686D02*
D03*
X080734Y100744D02*
D03*
X076850Y099578D02*
D03*
X077144Y098394D02*
D03*
X074034Y097794D02*
D03*
X078554Y098674D02*
D03*
X060624Y089704D02*
D03*
X060039Y089253D02*
D03*
X091762Y087283D02*
D03*
X072894Y093388D02*
D03*
X082944Y093958D02*
D03*
X062283Y093505D02*
D03*
X060002Y099294D02*
D03*
X072144Y097434D02*
D03*
X109513Y093714D02*
D03*
X116909Y098485D02*
D03*
X123017Y095493D02*
D03*
X128097Y096553D02*
D03*
X104488Y096438D02*
D03*
X105739Y097689D02*
D03*
X138379Y088594D02*
D03*
X138487Y089263D02*
D03*
X138015Y088843D02*
D03*
X138757Y088873D02*
D03*
X138972Y089578D02*
D03*
X138709Y090484D02*
D03*
X138239Y090914D02*
D03*
X137397Y088733D02*
D03*
X105127Y102873D02*
D03*
X107807Y091963D02*
D03*
X107323Y091104D02*
D03*
X104469Y092614D02*
D03*
X113367Y100343D02*
D03*
X110347Y097893D02*
D03*
X129086Y092167D02*
D03*
X130009Y092334D02*
D03*
X129075Y091684D02*
D03*
X125649Y092894D02*
D03*
X134136Y096153D02*
D03*
X133191Y094293D02*
D03*
X138465Y093289D02*
D03*
X138553Y092285D02*
D03*
X137449Y090524D02*
D03*
X129214Y092994D02*
D03*
X130939Y098194D02*
D03*
X131102Y091409D02*
D03*
X139419Y091064D02*
D03*
X136809Y089124D02*
D03*
X136870Y090346D02*
D03*
X136989Y091234D02*
D03*
X137949Y094574D02*
D03*
X140239Y089584D02*
D03*
X137167Y092364D02*
D03*
X136007Y088963D02*
D03*
X135197Y089647D02*
D03*
X135199Y091586D02*
D03*
X140219Y090384D02*
D03*
X140674Y087119D02*
D03*
X101179Y085674D02*
D03*
X128739Y101094D02*
D03*
X130489Y098594D02*
D03*
Y097194D02*
D03*
X130939Y097494D02*
D03*
X125239Y097344D02*
D03*
X122389Y098144D02*
D03*
X120599Y097554D02*
D03*
X122739Y099944D02*
D03*
X116193Y100621D02*
D03*
X136339Y102044D02*
D03*
X135484Y093171D02*
D03*
X134756Y093821D02*
D03*
X135119Y094125D02*
D03*
X135829Y095760D02*
D03*
X136378Y094962D02*
D03*
X133309Y092315D02*
D03*
X134057Y091330D02*
D03*
X133338Y091222D02*
D03*
X132590Y091261D02*
D03*
X134785Y090986D02*
D03*
X132923Y089676D02*
D03*
X133349Y089434D02*
D03*
X130709Y091694D02*
D03*
X135335Y095798D02*
D03*
X134409Y097823D02*
D03*
X132019Y094795D02*
D03*
X134283Y093712D02*
D03*
X130949Y093494D02*
D03*
X132758Y093387D02*
D03*
X133053Y092905D02*
D03*
X129883Y094884D02*
D03*
X140739Y092694D02*
D03*
X125339Y101044D02*
D03*
X123759Y093634D02*
D03*
X102717Y087088D02*
D03*
X101831D02*
D03*
X103504Y089548D02*
D03*
X101181Y101458D02*
D03*
X103504Y088859D02*
D03*
X102638Y089450D02*
D03*
X104213Y090080D02*
D03*
X119459Y098724D02*
D03*
X124528Y097686D02*
D03*
X124829Y100744D02*
D03*
X120945Y099578D02*
D03*
X121239Y098394D02*
D03*
X118129Y097794D02*
D03*
X122649Y098674D02*
D03*
X104719Y089704D02*
D03*
X104134Y089253D02*
D03*
X135857Y087283D02*
D03*
X116988Y093388D02*
D03*
X127039Y093958D02*
D03*
X106378Y093505D02*
D03*
X104096Y099294D02*
D03*
X116239Y097434D02*
D03*
D69*
X023138Y045162D02*
X025799Y042501D01*
X020509Y045162D02*
X023138D01*
X020507Y045160D02*
X020509Y045162D01*
X021164Y044656D02*
X021166Y044658D01*
X020591Y044656D02*
X021164D01*
X020590Y044658D02*
X020591Y044656D01*
X020035Y045160D02*
X020507D01*
X021166Y044658D02*
X022708D01*
X019737D02*
X020590D01*
X022708D02*
X024799Y042567D01*
X019207Y045187D02*
X019737Y044658D01*
X015545Y045187D02*
X019207D01*
X014865Y045867D02*
X015545Y045187D01*
X013937Y045867D02*
X014865D01*
X015797Y046007D02*
X019188D01*
X013937Y047867D02*
X015797Y046007D01*
X019188D02*
X020035Y045160D01*
X024799Y042501D02*
Y042567D01*
X067233Y045162D02*
X069894Y042501D01*
X064604Y045162D02*
X067233D01*
X064602Y045160D02*
X064604Y045162D01*
X065258Y044656D02*
X065260Y044658D01*
X064686Y044656D02*
X065258D01*
X064684Y044658D02*
X064686Y044656D01*
X064130Y045160D02*
X064602D01*
X065260Y044658D02*
X066803D01*
X063832D02*
X064684D01*
X066803D02*
X068894Y042567D01*
X063302Y045187D02*
X063832Y044658D01*
X059640Y045187D02*
X063302D01*
X058960Y045867D02*
X059640Y045187D01*
X058032Y045867D02*
X058960D01*
X059892Y046007D02*
X063282D01*
X058032Y047867D02*
X059892Y046007D01*
X063282D02*
X064130Y045160D01*
X068894Y042501D02*
Y042567D01*
X111327Y045162D02*
X113988Y042501D01*
X108698Y045162D02*
X111327D01*
X108696Y045160D02*
X108698Y045162D01*
X109353Y044656D02*
X109355Y044658D01*
X108780Y044656D02*
X109353D01*
X108779Y044658D02*
X108780Y044656D01*
X108224Y045160D02*
X108696D01*
X109355Y044658D02*
X110897D01*
X107926D02*
X108779D01*
X110897D02*
X112988Y042567D01*
X107396Y045187D02*
X107926Y044658D01*
X103734Y045187D02*
X107396D01*
X103054Y045867D02*
X103734Y045187D01*
X102126Y045867D02*
X103054D01*
X103986Y046007D02*
X107377D01*
X102126Y047867D02*
X103986Y046007D01*
X107377D02*
X108224Y045160D01*
X112988Y042501D02*
Y042567D01*
X023138Y069965D02*
X025799Y067304D01*
X020509Y069965D02*
X023138D01*
X020507Y069963D02*
X020509Y069965D01*
X021164Y069459D02*
X021166Y069461D01*
X020591Y069459D02*
X021164D01*
X020590Y069461D02*
X020591Y069459D01*
X020035Y069963D02*
X020507D01*
X021166Y069461D02*
X022708D01*
X019737D02*
X020590D01*
X022708D02*
X024799Y067370D01*
X019207Y069991D02*
X019737Y069461D01*
X015545Y069991D02*
X019207D01*
X014865Y070670D02*
X015545Y069991D01*
X013937Y070670D02*
X014865D01*
X015797Y070810D02*
X019188D01*
X013937Y072670D02*
X015797Y070810D01*
X019188D02*
X020035Y069963D01*
X024799Y067304D02*
Y067370D01*
X067233Y069965D02*
X069894Y067304D01*
X064604Y069965D02*
X067233D01*
X064602Y069963D02*
X064604Y069965D01*
X065258Y069459D02*
X065260Y069461D01*
X064686Y069459D02*
X065258D01*
X064684Y069461D02*
X064686Y069459D01*
X064130Y069963D02*
X064602D01*
X065260Y069461D02*
X066803D01*
X063832D02*
X064684D01*
X066803D02*
X068894Y067370D01*
X063302Y069991D02*
X063832Y069461D01*
X059640Y069991D02*
X063302D01*
X058960Y070670D02*
X059640Y069991D01*
X058032Y070670D02*
X058960D01*
X059892Y070810D02*
X063282D01*
X058032Y072670D02*
X059892Y070810D01*
X063282D02*
X064130Y069963D01*
X068894Y067304D02*
Y067370D01*
X111327Y069965D02*
X113988Y067304D01*
X108698Y069965D02*
X111327D01*
X108696Y069963D02*
X108698Y069965D01*
X109353Y069459D02*
X109355Y069461D01*
X108780Y069459D02*
X109353D01*
X108779Y069461D02*
X108780Y069459D01*
X108224Y069963D02*
X108696D01*
X109355Y069461D02*
X110897D01*
X107926D02*
X108779D01*
X110897D02*
X112988Y067370D01*
X107396Y069991D02*
X107926Y069461D01*
X103734Y069991D02*
X107396D01*
X103054Y070670D02*
X103734Y069991D01*
X102126Y070670D02*
X103054D01*
X103986Y070810D02*
X107377D01*
X102126Y072670D02*
X103986Y070810D01*
X107377D02*
X108224Y069963D01*
X112988Y067304D02*
Y067370D01*
X023138Y094768D02*
X025799Y092107D01*
X020509Y094768D02*
X023138D01*
X020507Y094766D02*
X020509Y094768D01*
X021164Y094263D02*
X021166Y094264D01*
X020591Y094263D02*
X021164D01*
X020590Y094264D02*
X020591Y094263D01*
X020035Y094766D02*
X020507D01*
X021166Y094264D02*
X022708D01*
X019737D02*
X020590D01*
X022708D02*
X024799Y092173D01*
X019207Y094794D02*
X019737Y094264D01*
X015545Y094794D02*
X019207D01*
X014865Y095474D02*
X015545Y094794D01*
X013937Y095474D02*
X014865D01*
X015797Y095613D02*
X019188D01*
X013937Y097474D02*
X015797Y095613D01*
X019188D02*
X020035Y094766D01*
X024799Y092107D02*
Y092173D01*
X067233Y094768D02*
X069894Y092107D01*
X064604Y094768D02*
X067233D01*
X064602Y094766D02*
X064604Y094768D01*
X065258Y094263D02*
X065260Y094264D01*
X064686Y094263D02*
X065258D01*
X064684Y094264D02*
X064686Y094263D01*
X064130Y094766D02*
X064602D01*
X065260Y094264D02*
X066803D01*
X063832D02*
X064684D01*
X066803D02*
X068894Y092173D01*
X063302Y094794D02*
X063832Y094264D01*
X059640Y094794D02*
X063302D01*
X058960Y095474D02*
X059640Y094794D01*
X058032Y095474D02*
X058960D01*
X059892Y095613D02*
X063282D01*
X058032Y097474D02*
X059892Y095613D01*
X063282D02*
X064130Y094766D01*
X068894Y092107D02*
Y092173D01*
X111327Y094768D02*
X113988Y092107D01*
X108698Y094768D02*
X111327D01*
X108696Y094766D02*
X108698Y094768D01*
X109353Y094263D02*
X109355Y094264D01*
X108780Y094263D02*
X109353D01*
X108779Y094264D02*
X108780Y094263D01*
X108224Y094766D02*
X108696D01*
X109355Y094264D02*
X110897D01*
X107926D02*
X108779D01*
X110897D02*
X112988Y092173D01*
X107396Y094794D02*
X107926Y094264D01*
X103734Y094794D02*
X107396D01*
X103054Y095474D02*
X103734Y094794D01*
X102126Y095474D02*
X103054D01*
X103986Y095613D02*
X107377D01*
X102126Y097474D02*
X103986Y095613D01*
X107377D02*
X108224Y094766D01*
X112988Y092107D02*
Y092173D01*
M02*
