%FSAX24Y24*%
%MOIN*%
G70*
G01*
G75*
G04 Layer_Color=8388736*
%ADD10C,0.0630*%
%ADD11R,3.0070X0.2530*%
G04:AMPARAMS|DCode=12|XSize=24mil|YSize=59.1mil|CornerRadius=0.6mil|HoleSize=0mil|Usage=FLASHONLY|Rotation=270.000|XOffset=0mil|YOffset=0mil|HoleType=Round|Shape=RoundedRectangle|*
%AMROUNDEDRECTD12*
21,1,0.0240,0.0579,0,0,270.0*
21,1,0.0228,0.0591,0,0,270.0*
1,1,0.0012,-0.0289,-0.0114*
1,1,0.0012,-0.0289,0.0114*
1,1,0.0012,0.0289,0.0114*
1,1,0.0012,0.0289,-0.0114*
%
%ADD12ROUNDEDRECTD12*%
G04:AMPARAMS|DCode=13|XSize=24mil|YSize=59.1mil|CornerRadius=0.6mil|HoleSize=0mil|Usage=FLASHONLY|Rotation=180.000|XOffset=0mil|YOffset=0mil|HoleType=Round|Shape=RoundedRectangle|*
%AMROUNDEDRECTD13*
21,1,0.0240,0.0579,0,0,180.0*
21,1,0.0228,0.0591,0,0,180.0*
1,1,0.0012,-0.0114,0.0289*
1,1,0.0012,0.0114,0.0289*
1,1,0.0012,0.0114,-0.0289*
1,1,0.0012,-0.0114,-0.0289*
%
%ADD13ROUNDEDRECTD13*%
%ADD14R,0.0669X0.0984*%
%ADD15R,0.0512X0.0591*%
%ADD16R,0.0512X0.0236*%
%ADD17R,0.0709X0.0630*%
%ADD18R,0.0472X0.1575*%
G04:AMPARAMS|DCode=19|XSize=70.9mil|YSize=63mil|CornerRadius=0mil|HoleSize=0mil|Usage=FLASHONLY|Rotation=315.000|XOffset=0mil|YOffset=0mil|HoleType=Round|Shape=Rectangle|*
%AMROTATEDRECTD19*
4,1,4,-0.0473,0.0028,-0.0028,0.0473,0.0473,-0.0028,0.0028,-0.0473,-0.0473,0.0028,0.0*
%
%ADD19ROTATEDRECTD19*%

G04:AMPARAMS|DCode=20|XSize=70.9mil|YSize=63mil|CornerRadius=0mil|HoleSize=0mil|Usage=FLASHONLY|Rotation=45.000|XOffset=0mil|YOffset=0mil|HoleType=Round|Shape=Rectangle|*
%AMROTATEDRECTD20*
4,1,4,-0.0028,-0.0473,-0.0473,-0.0028,0.0028,0.0473,0.0473,0.0028,-0.0028,-0.0473,0.0*
%
%ADD20ROTATEDRECTD20*%

%ADD21O,0.0236X0.0866*%
%ADD22O,0.0866X0.0236*%
%ADD23R,0.0630X0.1063*%
%ADD24R,0.1063X0.0630*%
%ADD25R,0.0630X0.0709*%
%ADD26O,0.0669X0.0138*%
%ADD27O,0.0138X0.0669*%
%ADD28O,0.0236X0.0787*%
%ADD29R,0.1378X0.0669*%
%ADD30R,0.1417X0.0591*%
%ADD31R,0.1024X0.0945*%
%ADD32R,0.0945X0.1024*%
%ADD33R,0.0984X0.0669*%
G04:AMPARAMS|DCode=34|XSize=21.7mil|YSize=68.9mil|CornerRadius=0mil|HoleSize=0mil|Usage=FLASHONLY|Rotation=135.000|XOffset=0mil|YOffset=0mil|HoleType=Round|Shape=Round|*
%AMOVALD34*
21,1,0.0472,0.0217,0.0000,0.0000,225.0*
1,1,0.0217,0.0167,0.0167*
1,1,0.0217,-0.0167,-0.0167*
%
%ADD34OVALD34*%

G04:AMPARAMS|DCode=35|XSize=21.7mil|YSize=68.9mil|CornerRadius=0mil|HoleSize=0mil|Usage=FLASHONLY|Rotation=225.000|XOffset=0mil|YOffset=0mil|HoleType=Round|Shape=Round|*
%AMOVALD35*
21,1,0.0472,0.0217,0.0000,0.0000,315.0*
1,1,0.0217,-0.0167,0.0167*
1,1,0.0217,0.0167,-0.0167*
%
%ADD35OVALD35*%

%ADD36O,0.0236X0.0591*%
%ADD37R,0.0591X0.0512*%
%ADD38R,0.0551X0.1280*%
%ADD39C,0.0079*%
%ADD40C,0.0197*%
%ADD41C,0.0400*%
%ADD42C,0.0394*%
%ADD43C,0.0118*%
%ADD44C,0.0100*%
%ADD45C,0.0330*%
%ADD46R,0.0394X0.0394*%
%ADD47P,0.1114X4X270.0*%
%ADD48R,0.1000X0.0900*%
%ADD49C,0.1250*%
%ADD50C,0.1300*%
%ADD51C,0.0600*%
%ADD52C,0.0700*%
%ADD53C,0.0800*%
%ADD54R,0.0700X0.0700*%
%ADD55C,0.0709*%
%ADD56C,0.0394*%
%ADD57C,0.2500*%
%ADD58R,0.0492X0.0492*%
%ADD59C,0.0492*%
%ADD60R,0.0591X0.0591*%
%ADD61C,0.0591*%
%ADD62C,0.0472*%
%ADD63C,0.0315*%
%ADD64C,0.0984*%
%ADD65C,0.0600*%
%ADD66R,15.7490X0.1250*%
%ADD67C,0.1850*%
%ADD68R,0.9650X0.5150*%
%ADD69C,0.1650*%
%ADD70C,0.1500*%
%ADD71C,0.1400*%
%ADD72C,0.0640*%
%ADD73C,0.0610*%
G04:AMPARAMS|DCode=74|XSize=84mil|YSize=84mil|CornerRadius=0mil|HoleSize=0mil|Usage=FLASHONLY|Rotation=0.000|XOffset=0mil|YOffset=0mil|HoleType=Round|Shape=Relief|Width=10mil|Gap=10mil|Entries=4|*
%AMTHD74*
7,0,0,0.0840,0.0640,0.0100,45*
%
%ADD74THD74*%
%ADD75C,0.0770*%
%ADD76C,0.0750*%
G04:AMPARAMS|DCode=77|XSize=100mil|YSize=100mil|CornerRadius=0mil|HoleSize=0mil|Usage=FLASHONLY|Rotation=0.000|XOffset=0mil|YOffset=0mil|HoleType=Round|Shape=Relief|Width=10mil|Gap=10mil|Entries=4|*
%AMTHD77*
7,0,0,0.1000,0.0800,0.0100,45*
%
%ADD77THD77*%
G04:AMPARAMS|DCode=78|XSize=95mil|YSize=95mil|CornerRadius=0mil|HoleSize=0mil|Usage=FLASHONLY|Rotation=0.000|XOffset=0mil|YOffset=0mil|HoleType=Round|Shape=Relief|Width=10mil|Gap=10mil|Entries=4|*
%AMTHD78*
7,0,0,0.0950,0.0750,0.0100,45*
%
%ADD78THD78*%
G04:AMPARAMS|DCode=79|XSize=90mil|YSize=90mil|CornerRadius=0mil|HoleSize=0mil|Usage=FLASHONLY|Rotation=0.000|XOffset=0mil|YOffset=0mil|HoleType=Round|Shape=Relief|Width=10mil|Gap=10mil|Entries=4|*
%AMTHD79*
7,0,0,0.0900,0.0700,0.0100,45*
%
%ADD79THD79*%
%ADD80C,0.0872*%
%ADD81C,0.0754*%
%ADD82C,0.0597*%
%ADD83C,0.1685*%
%ADD84C,0.0695*%
G04:AMPARAMS|DCode=85|XSize=95.433mil|YSize=95.433mil|CornerRadius=0mil|HoleSize=0mil|Usage=FLASHONLY|Rotation=0.000|XOffset=0mil|YOffset=0mil|HoleType=Round|Shape=Relief|Width=10mil|Gap=10mil|Entries=4|*
%AMTHD85*
7,0,0,0.0954,0.0754,0.0100,45*
%
%ADD85THD85*%
%ADD86C,0.0650*%
%ADD87C,0.0518*%
%ADD88C,0.1100*%
G04:AMPARAMS|DCode=89|XSize=71.811mil|YSize=71.811mil|CornerRadius=0mil|HoleSize=0mil|Usage=FLASHONLY|Rotation=0.000|XOffset=0mil|YOffset=0mil|HoleType=Round|Shape=Relief|Width=10mil|Gap=10mil|Entries=4|*
%AMTHD89*
7,0,0,0.0718,0.0518,0.0100,45*
%
%ADD89THD89*%
%ADD90C,0.0787*%
%ADD91C,0.1250*%
G04:AMPARAMS|DCode=92|XSize=89.528mil|YSize=89.528mil|CornerRadius=0mil|HoleSize=0mil|Usage=FLASHONLY|Rotation=0.000|XOffset=0mil|YOffset=0mil|HoleType=Round|Shape=Relief|Width=10mil|Gap=10mil|Entries=4|*
%AMTHD92*
7,0,0,0.0895,0.0695,0.0100,45*
%
%ADD92THD92*%
%ADD93C,0.0750*%
%ADD94C,0.0295*%
%ADD95R,0.5118X0.3543*%
%ADD96R,0.0230X0.2510*%
%ADD97C,0.0050*%
%ADD98C,0.0098*%
%ADD99C,0.1181*%
%ADD100C,0.0236*%
%ADD101C,0.0039*%
%ADD102C,0.0080*%
%ADD103R,0.1715X0.0705*%
%ADD104R,0.0815X0.0830*%
%ADD105R,0.0910X0.0580*%
%ADD106R,0.0310X0.1160*%
%ADD107R,0.1673X0.1525*%
%ADD108R,0.4331X0.0320*%
%ADD109C,0.1417*%
G04:AMPARAMS|DCode=110|XSize=32mil|YSize=67.1mil|CornerRadius=4.6mil|HoleSize=0mil|Usage=FLASHONLY|Rotation=270.000|XOffset=0mil|YOffset=0mil|HoleType=Round|Shape=RoundedRectangle|*
%AMROUNDEDRECTD110*
21,1,0.0320,0.0579,0,0,270.0*
21,1,0.0228,0.0671,0,0,270.0*
1,1,0.0092,-0.0289,-0.0114*
1,1,0.0092,-0.0289,0.0114*
1,1,0.0092,0.0289,0.0114*
1,1,0.0092,0.0289,-0.0114*
%
%ADD110ROUNDEDRECTD110*%
G04:AMPARAMS|DCode=111|XSize=32mil|YSize=67.1mil|CornerRadius=4.6mil|HoleSize=0mil|Usage=FLASHONLY|Rotation=180.000|XOffset=0mil|YOffset=0mil|HoleType=Round|Shape=RoundedRectangle|*
%AMROUNDEDRECTD111*
21,1,0.0320,0.0579,0,0,180.0*
21,1,0.0228,0.0671,0,0,180.0*
1,1,0.0092,-0.0114,0.0289*
1,1,0.0092,0.0114,0.0289*
1,1,0.0092,0.0114,-0.0289*
1,1,0.0092,-0.0114,-0.0289*
%
%ADD111ROUNDEDRECTD111*%
%ADD112R,0.0749X0.1064*%
%ADD113R,0.0592X0.0671*%
%ADD114R,0.0592X0.0316*%
%ADD115R,0.0789X0.0710*%
%ADD116R,0.0552X0.1655*%
G04:AMPARAMS|DCode=117|XSize=78.9mil|YSize=71mil|CornerRadius=0mil|HoleSize=0mil|Usage=FLASHONLY|Rotation=315.000|XOffset=0mil|YOffset=0mil|HoleType=Round|Shape=Rectangle|*
%AMROTATEDRECTD117*
4,1,4,-0.0530,0.0028,-0.0028,0.0530,0.0530,-0.0028,0.0028,-0.0530,-0.0530,0.0028,0.0*
%
%ADD117ROTATEDRECTD117*%

G04:AMPARAMS|DCode=118|XSize=78.9mil|YSize=71mil|CornerRadius=0mil|HoleSize=0mil|Usage=FLASHONLY|Rotation=45.000|XOffset=0mil|YOffset=0mil|HoleType=Round|Shape=Rectangle|*
%AMROTATEDRECTD118*
4,1,4,-0.0028,-0.0530,-0.0530,-0.0028,0.0028,0.0530,0.0530,0.0028,-0.0028,-0.0530,0.0*
%
%ADD118ROTATEDRECTD118*%

%ADD119O,0.0316X0.0946*%
%ADD120O,0.0946X0.0316*%
%ADD121R,0.0710X0.1143*%
%ADD122R,0.1143X0.0710*%
%ADD123R,0.0710X0.0789*%
%ADD124O,0.0689X0.0158*%
%ADD125O,0.0158X0.0689*%
%ADD126O,0.0316X0.0867*%
%ADD127R,0.1458X0.0749*%
%ADD128R,0.1497X0.0671*%
%ADD129R,0.1104X0.1025*%
%ADD130R,0.1025X0.1104*%
%ADD131R,0.1064X0.0749*%
G04:AMPARAMS|DCode=132|XSize=37.4mil|YSize=84.6mil|CornerRadius=0mil|HoleSize=0mil|Usage=FLASHONLY|Rotation=135.000|XOffset=0mil|YOffset=0mil|HoleType=Round|Shape=Round|*
%AMOVALD132*
21,1,0.0472,0.0374,0.0000,0.0000,225.0*
1,1,0.0374,0.0167,0.0167*
1,1,0.0374,-0.0167,-0.0167*
%
%ADD132OVALD132*%

G04:AMPARAMS|DCode=133|XSize=37.4mil|YSize=84.6mil|CornerRadius=0mil|HoleSize=0mil|Usage=FLASHONLY|Rotation=225.000|XOffset=0mil|YOffset=0mil|HoleType=Round|Shape=Round|*
%AMOVALD133*
21,1,0.0472,0.0374,0.0000,0.0000,315.0*
1,1,0.0374,-0.0167,0.0167*
1,1,0.0374,0.0167,-0.0167*
%
%ADD133OVALD133*%

%ADD134O,0.0316X0.0671*%
%ADD135R,0.0671X0.0592*%
%ADD136R,0.0631X0.1360*%
%ADD137C,0.1750*%
%ADD138C,0.1380*%
%ADD139C,0.0680*%
%ADD140C,0.0780*%
%ADD141C,0.0880*%
%ADD142R,0.0780X0.0780*%
%ADD143C,0.0945*%
%ADD144C,0.0789*%
%ADD145C,0.2580*%
%ADD146C,0.2736*%
%ADD147R,0.0572X0.0572*%
%ADD148C,0.0572*%
%ADD149R,0.0671X0.0671*%
%ADD150C,0.0671*%
%ADD151C,0.0080*%
%ADD152C,0.0552*%
%ADD153C,0.0415*%
%ADD154C,0.1084*%
D11*
X038555Y012686D02*
D03*
D46*
X058899Y018716D02*
D03*
X058111Y018725D02*
D03*
X060044Y017440D02*
D03*
Y015865D02*
D03*
X056966D02*
D03*
X056964Y017440D02*
D03*
X111399Y018716D02*
D03*
X110611Y018725D02*
D03*
X112544Y017440D02*
D03*
Y015865D02*
D03*
X109466D02*
D03*
X109464Y017440D02*
D03*
X163899Y018716D02*
D03*
X163111Y018725D02*
D03*
X165044Y017440D02*
D03*
Y015865D02*
D03*
X161966D02*
D03*
X161964Y017440D02*
D03*
X058899Y059966D02*
D03*
X058111Y059975D02*
D03*
X060044Y058690D02*
D03*
Y057115D02*
D03*
X056966D02*
D03*
X056964Y058690D02*
D03*
X111399Y059966D02*
D03*
X110611Y059975D02*
D03*
X112544Y058690D02*
D03*
Y057115D02*
D03*
X109466D02*
D03*
X109464Y058690D02*
D03*
X163899Y059966D02*
D03*
X163111Y059975D02*
D03*
X165044Y058690D02*
D03*
Y057115D02*
D03*
X161966D02*
D03*
X161964Y058690D02*
D03*
D109*
X145540Y028371D02*
D03*
X093040D02*
D03*
X040540D02*
D03*
X145540Y068371D02*
D03*
X093040D02*
D03*
X040540D02*
D03*
X016446Y012840D02*
D03*
Y098027D02*
D03*
X162135D02*
D03*
Y012840D02*
D03*
D110*
X056895Y018227D02*
D03*
Y018621D02*
D03*
Y019015D02*
D03*
Y019408D02*
D03*
Y019802D02*
D03*
Y020196D02*
D03*
Y020590D02*
D03*
Y020983D02*
D03*
X060123D02*
D03*
Y020590D02*
D03*
Y020196D02*
D03*
Y019802D02*
D03*
Y019408D02*
D03*
Y019015D02*
D03*
Y018621D02*
D03*
Y018227D02*
D03*
X109395D02*
D03*
Y018621D02*
D03*
Y019015D02*
D03*
Y019408D02*
D03*
Y019802D02*
D03*
Y020196D02*
D03*
Y020590D02*
D03*
Y020983D02*
D03*
X112623D02*
D03*
Y020590D02*
D03*
Y020196D02*
D03*
Y019802D02*
D03*
Y019408D02*
D03*
Y019015D02*
D03*
Y018621D02*
D03*
Y018227D02*
D03*
X161895D02*
D03*
Y018621D02*
D03*
Y019015D02*
D03*
Y019408D02*
D03*
Y019802D02*
D03*
Y020196D02*
D03*
Y020590D02*
D03*
Y020983D02*
D03*
X165123D02*
D03*
Y020590D02*
D03*
Y020196D02*
D03*
Y019802D02*
D03*
Y019408D02*
D03*
Y019015D02*
D03*
Y018621D02*
D03*
Y018227D02*
D03*
X056895Y059477D02*
D03*
Y059871D02*
D03*
Y060265D02*
D03*
Y060658D02*
D03*
Y061052D02*
D03*
Y061446D02*
D03*
Y061840D02*
D03*
Y062233D02*
D03*
X060123D02*
D03*
Y061840D02*
D03*
Y061446D02*
D03*
Y061052D02*
D03*
Y060658D02*
D03*
Y060265D02*
D03*
Y059871D02*
D03*
Y059477D02*
D03*
X109395D02*
D03*
Y059871D02*
D03*
Y060265D02*
D03*
Y060658D02*
D03*
Y061052D02*
D03*
Y061446D02*
D03*
Y061840D02*
D03*
Y062233D02*
D03*
X112623D02*
D03*
Y061840D02*
D03*
Y061446D02*
D03*
Y061052D02*
D03*
Y060658D02*
D03*
Y060265D02*
D03*
Y059871D02*
D03*
Y059477D02*
D03*
X161895D02*
D03*
Y059871D02*
D03*
Y060265D02*
D03*
Y060658D02*
D03*
Y061052D02*
D03*
Y061446D02*
D03*
Y061840D02*
D03*
Y062233D02*
D03*
X165123D02*
D03*
Y061840D02*
D03*
Y061446D02*
D03*
Y061052D02*
D03*
Y060658D02*
D03*
Y060265D02*
D03*
Y059871D02*
D03*
Y059477D02*
D03*
D111*
X057127Y021613D02*
D03*
X057521D02*
D03*
X057914D02*
D03*
X058308D02*
D03*
X058702D02*
D03*
X059095D02*
D03*
X059489D02*
D03*
X059883D02*
D03*
X109627D02*
D03*
X110021D02*
D03*
X110414D02*
D03*
X110808D02*
D03*
X111202D02*
D03*
X111595D02*
D03*
X111989D02*
D03*
X112383D02*
D03*
X162127D02*
D03*
X162521D02*
D03*
X162914D02*
D03*
X163308D02*
D03*
X163702D02*
D03*
X164095D02*
D03*
X164489D02*
D03*
X164883D02*
D03*
X057127Y062863D02*
D03*
X057521D02*
D03*
X057914D02*
D03*
X058308D02*
D03*
X058702D02*
D03*
X059095D02*
D03*
X059489D02*
D03*
X059883D02*
D03*
X109627D02*
D03*
X110021D02*
D03*
X110414D02*
D03*
X110808D02*
D03*
X111202D02*
D03*
X111595D02*
D03*
X111989D02*
D03*
X112383D02*
D03*
X162127D02*
D03*
X162521D02*
D03*
X162914D02*
D03*
X163308D02*
D03*
X163702D02*
D03*
X164095D02*
D03*
X164489D02*
D03*
X164883D02*
D03*
D112*
X033190Y035751D02*
D03*
Y037325D02*
D03*
X085690Y035751D02*
D03*
Y037325D02*
D03*
X138190Y035751D02*
D03*
Y037325D02*
D03*
X033190Y077001D02*
D03*
Y078575D02*
D03*
X085690Y077001D02*
D03*
Y078575D02*
D03*
X138190Y077001D02*
D03*
Y078575D02*
D03*
D113*
X039804Y039318D02*
D03*
X039056D02*
D03*
X050096Y035018D02*
D03*
X050844D02*
D03*
X092304Y039318D02*
D03*
X091556D02*
D03*
X102596Y035018D02*
D03*
X103344D02*
D03*
X144804Y039318D02*
D03*
X144056D02*
D03*
X155096Y035018D02*
D03*
X155844D02*
D03*
X039804Y080568D02*
D03*
X039056D02*
D03*
X050096Y076268D02*
D03*
X050844D02*
D03*
X092304Y080568D02*
D03*
X091556D02*
D03*
X102596Y076268D02*
D03*
X103344D02*
D03*
X144804Y080568D02*
D03*
X144056D02*
D03*
X155096Y076268D02*
D03*
X155844D02*
D03*
D114*
X038197Y039374D02*
D03*
Y040122D02*
D03*
X037370Y039748D02*
D03*
X090697Y039374D02*
D03*
Y040122D02*
D03*
X089870Y039748D02*
D03*
X143197Y039374D02*
D03*
Y040122D02*
D03*
X142370Y039748D02*
D03*
X038197Y080624D02*
D03*
Y081372D02*
D03*
X037370Y080998D02*
D03*
X090697Y080624D02*
D03*
Y081372D02*
D03*
X089870Y080998D02*
D03*
X143197Y080624D02*
D03*
Y081372D02*
D03*
X142370Y080998D02*
D03*
D115*
X018960Y032757D02*
D03*
Y033859D02*
D03*
X055290Y021869D02*
D03*
Y020767D02*
D03*
X019530Y038149D02*
D03*
Y037047D02*
D03*
X020850Y036587D02*
D03*
Y038089D02*
D03*
X014556Y026088D02*
D03*
Y027190D02*
D03*
X021290Y023607D02*
D03*
Y024709D02*
D03*
X020140Y025957D02*
D03*
Y027059D02*
D03*
X016958Y028401D02*
D03*
Y029503D02*
D03*
X021140Y027059D02*
D03*
Y025957D02*
D03*
X015806Y027200D02*
D03*
Y026097D02*
D03*
X021180Y028447D02*
D03*
Y029549D02*
D03*
X071460Y032757D02*
D03*
Y033859D02*
D03*
X107790Y021869D02*
D03*
Y020767D02*
D03*
X072030Y038149D02*
D03*
Y037047D02*
D03*
X073350Y036587D02*
D03*
Y038089D02*
D03*
X067056Y026088D02*
D03*
Y027190D02*
D03*
X073790Y023607D02*
D03*
Y024709D02*
D03*
X072640Y025957D02*
D03*
Y027059D02*
D03*
X069458Y028401D02*
D03*
Y029503D02*
D03*
X073640Y027059D02*
D03*
Y025957D02*
D03*
X068306Y027200D02*
D03*
Y026097D02*
D03*
X073680Y028447D02*
D03*
Y029549D02*
D03*
X123960Y032757D02*
D03*
Y033859D02*
D03*
X160290Y021869D02*
D03*
Y020767D02*
D03*
X124530Y038149D02*
D03*
Y037047D02*
D03*
X125850Y036587D02*
D03*
Y038089D02*
D03*
X119556Y026088D02*
D03*
Y027190D02*
D03*
X126290Y023607D02*
D03*
Y024709D02*
D03*
X125140Y025957D02*
D03*
Y027059D02*
D03*
X121958Y028401D02*
D03*
Y029503D02*
D03*
X126140Y027059D02*
D03*
Y025957D02*
D03*
X120806Y027200D02*
D03*
Y026097D02*
D03*
X126180Y028447D02*
D03*
Y029549D02*
D03*
X018960Y074007D02*
D03*
Y075109D02*
D03*
X055290Y063119D02*
D03*
Y062017D02*
D03*
X019530Y079399D02*
D03*
Y078297D02*
D03*
X020850Y077837D02*
D03*
Y079339D02*
D03*
X014556Y067338D02*
D03*
Y068440D02*
D03*
X021290Y064857D02*
D03*
Y065959D02*
D03*
X020140Y067207D02*
D03*
Y068309D02*
D03*
X016958Y069651D02*
D03*
Y070753D02*
D03*
X021140Y068309D02*
D03*
Y067207D02*
D03*
X015806Y068450D02*
D03*
Y067347D02*
D03*
X021180Y069697D02*
D03*
Y070799D02*
D03*
X071460Y074007D02*
D03*
Y075109D02*
D03*
X107790Y063119D02*
D03*
Y062017D02*
D03*
X072030Y079399D02*
D03*
Y078297D02*
D03*
X073350Y077837D02*
D03*
Y079339D02*
D03*
X067056Y067338D02*
D03*
Y068440D02*
D03*
X073790Y064857D02*
D03*
Y065959D02*
D03*
X072640Y067207D02*
D03*
Y068309D02*
D03*
X069458Y069651D02*
D03*
Y070753D02*
D03*
X073640Y068309D02*
D03*
Y067207D02*
D03*
X068306Y068450D02*
D03*
Y067347D02*
D03*
X073680Y069697D02*
D03*
Y070799D02*
D03*
X123960Y074007D02*
D03*
Y075109D02*
D03*
X160290Y063119D02*
D03*
Y062017D02*
D03*
X124530Y079399D02*
D03*
Y078297D02*
D03*
X125850Y077837D02*
D03*
Y079339D02*
D03*
X119556Y067338D02*
D03*
Y068440D02*
D03*
X126290Y064857D02*
D03*
Y065959D02*
D03*
X125140Y067207D02*
D03*
Y068309D02*
D03*
X121958Y069651D02*
D03*
Y070753D02*
D03*
X126140Y068309D02*
D03*
Y067207D02*
D03*
X120806Y068450D02*
D03*
Y067347D02*
D03*
X126180Y069697D02*
D03*
Y070799D02*
D03*
D116*
X027340Y033074D02*
D03*
Y036263D02*
D03*
X079840Y033074D02*
D03*
Y036263D02*
D03*
X132340Y033074D02*
D03*
Y036263D02*
D03*
X027340Y074324D02*
D03*
Y077513D02*
D03*
X079840Y074324D02*
D03*
Y077513D02*
D03*
X132340Y074324D02*
D03*
Y077513D02*
D03*
D117*
X061011Y024008D02*
D03*
X061790Y024788D02*
D03*
X113511Y024008D02*
D03*
X114290Y024788D02*
D03*
X166011Y024008D02*
D03*
X166790Y024788D02*
D03*
X061011Y065258D02*
D03*
X061790Y066038D02*
D03*
X113511Y065258D02*
D03*
X114290Y066038D02*
D03*
X166011Y065258D02*
D03*
X166790Y066038D02*
D03*
D118*
X055900Y029418D02*
D03*
X055121Y030198D02*
D03*
X108400Y029418D02*
D03*
X107621Y030198D02*
D03*
X160900Y029418D02*
D03*
X160121Y030198D02*
D03*
X055900Y070668D02*
D03*
X055121Y071448D02*
D03*
X108400Y070668D02*
D03*
X107621Y071448D02*
D03*
X160900Y070668D02*
D03*
X160121Y071448D02*
D03*
D119*
X027300Y052178D02*
D03*
X026800D02*
D03*
X026300D02*
D03*
X025800D02*
D03*
X025300D02*
D03*
X024800D02*
D03*
X024300D02*
D03*
X023800D02*
D03*
X027300Y050288D02*
D03*
X026800D02*
D03*
X026300D02*
D03*
X025800D02*
D03*
X025300D02*
D03*
X024800D02*
D03*
X024300D02*
D03*
X023800D02*
D03*
X033100Y053003D02*
D03*
X032600D02*
D03*
X032100D02*
D03*
X031600D02*
D03*
X031100D02*
D03*
X030600D02*
D03*
X030100D02*
D03*
X029600D02*
D03*
X033100Y051113D02*
D03*
X032600D02*
D03*
X032100D02*
D03*
X031600D02*
D03*
X031100D02*
D03*
X030600D02*
D03*
X030100D02*
D03*
X029600D02*
D03*
X043090Y052643D02*
D03*
X042590D02*
D03*
X042090D02*
D03*
X041590D02*
D03*
X041090D02*
D03*
X040590D02*
D03*
X040090D02*
D03*
X039590D02*
D03*
X043090Y050753D02*
D03*
X042590D02*
D03*
X042090D02*
D03*
X041590D02*
D03*
X041090D02*
D03*
X040590D02*
D03*
X040090D02*
D03*
X039590D02*
D03*
X049170Y051523D02*
D03*
X048670D02*
D03*
X048170D02*
D03*
X047670D02*
D03*
X047170D02*
D03*
X046670D02*
D03*
X046170D02*
D03*
X045670D02*
D03*
X049170Y049633D02*
D03*
X048670D02*
D03*
X048170D02*
D03*
X047670D02*
D03*
X047170D02*
D03*
X046670D02*
D03*
X046170D02*
D03*
X045670D02*
D03*
X079800Y052178D02*
D03*
X079300D02*
D03*
X078800D02*
D03*
X078300D02*
D03*
X077800D02*
D03*
X077300D02*
D03*
X076800D02*
D03*
X076300D02*
D03*
X079800Y050288D02*
D03*
X079300D02*
D03*
X078800D02*
D03*
X078300D02*
D03*
X077800D02*
D03*
X077300D02*
D03*
X076800D02*
D03*
X076300D02*
D03*
X085600Y053003D02*
D03*
X085100D02*
D03*
X084600D02*
D03*
X084100D02*
D03*
X083600D02*
D03*
X083100D02*
D03*
X082600D02*
D03*
X082100D02*
D03*
X085600Y051113D02*
D03*
X085100D02*
D03*
X084600D02*
D03*
X084100D02*
D03*
X083600D02*
D03*
X083100D02*
D03*
X082600D02*
D03*
X082100D02*
D03*
X095590Y052643D02*
D03*
X095090D02*
D03*
X094590D02*
D03*
X094090D02*
D03*
X093590D02*
D03*
X093090D02*
D03*
X092590D02*
D03*
X092090D02*
D03*
X095590Y050753D02*
D03*
X095090D02*
D03*
X094590D02*
D03*
X094090D02*
D03*
X093590D02*
D03*
X093090D02*
D03*
X092590D02*
D03*
X092090D02*
D03*
X101670Y051523D02*
D03*
X101170D02*
D03*
X100670D02*
D03*
X100170D02*
D03*
X099670D02*
D03*
X099170D02*
D03*
X098670D02*
D03*
X098170D02*
D03*
X101670Y049633D02*
D03*
X101170D02*
D03*
X100670D02*
D03*
X100170D02*
D03*
X099670D02*
D03*
X099170D02*
D03*
X098670D02*
D03*
X098170D02*
D03*
X132300Y052178D02*
D03*
X131800D02*
D03*
X131300D02*
D03*
X130800D02*
D03*
X130300D02*
D03*
X129800D02*
D03*
X129300D02*
D03*
X128800D02*
D03*
X132300Y050288D02*
D03*
X131800D02*
D03*
X131300D02*
D03*
X130800D02*
D03*
X130300D02*
D03*
X129800D02*
D03*
X129300D02*
D03*
X128800D02*
D03*
X138100Y053003D02*
D03*
X137600D02*
D03*
X137100D02*
D03*
X136600D02*
D03*
X136100D02*
D03*
X135600D02*
D03*
X135100D02*
D03*
X134600D02*
D03*
X138100Y051113D02*
D03*
X137600D02*
D03*
X137100D02*
D03*
X136600D02*
D03*
X136100D02*
D03*
X135600D02*
D03*
X135100D02*
D03*
X134600D02*
D03*
X148090Y052643D02*
D03*
X147590D02*
D03*
X147090D02*
D03*
X146590D02*
D03*
X146090D02*
D03*
X145590D02*
D03*
X145090D02*
D03*
X144590D02*
D03*
X148090Y050753D02*
D03*
X147590D02*
D03*
X147090D02*
D03*
X146590D02*
D03*
X146090D02*
D03*
X145590D02*
D03*
X145090D02*
D03*
X144590D02*
D03*
X154170Y051523D02*
D03*
X153670D02*
D03*
X153170D02*
D03*
X152670D02*
D03*
X152170D02*
D03*
X151670D02*
D03*
X151170D02*
D03*
X150670D02*
D03*
X154170Y049633D02*
D03*
X153670D02*
D03*
X153170D02*
D03*
X152670D02*
D03*
X152170D02*
D03*
X151670D02*
D03*
X151170D02*
D03*
X150670D02*
D03*
X027300Y093428D02*
D03*
X026800D02*
D03*
X026300D02*
D03*
X025800D02*
D03*
X025300D02*
D03*
X024800D02*
D03*
X024300D02*
D03*
X023800D02*
D03*
X027300Y091538D02*
D03*
X026800D02*
D03*
X026300D02*
D03*
X025800D02*
D03*
X025300D02*
D03*
X024800D02*
D03*
X024300D02*
D03*
X023800D02*
D03*
X033100Y094253D02*
D03*
X032600D02*
D03*
X032100D02*
D03*
X031600D02*
D03*
X031100D02*
D03*
X030600D02*
D03*
X030100D02*
D03*
X029600D02*
D03*
X033100Y092363D02*
D03*
X032600D02*
D03*
X032100D02*
D03*
X031600D02*
D03*
X031100D02*
D03*
X030600D02*
D03*
X030100D02*
D03*
X029600D02*
D03*
X043090Y093893D02*
D03*
X042590D02*
D03*
X042090D02*
D03*
X041590D02*
D03*
X041090D02*
D03*
X040590D02*
D03*
X040090D02*
D03*
X039590D02*
D03*
X043090Y092003D02*
D03*
X042590D02*
D03*
X042090D02*
D03*
X041590D02*
D03*
X041090D02*
D03*
X040590D02*
D03*
X040090D02*
D03*
X039590D02*
D03*
X049170Y092773D02*
D03*
X048670D02*
D03*
X048170D02*
D03*
X047670D02*
D03*
X047170D02*
D03*
X046670D02*
D03*
X046170D02*
D03*
X045670D02*
D03*
X049170Y090883D02*
D03*
X048670D02*
D03*
X048170D02*
D03*
X047670D02*
D03*
X047170D02*
D03*
X046670D02*
D03*
X046170D02*
D03*
X045670D02*
D03*
X079800Y093428D02*
D03*
X079300D02*
D03*
X078800D02*
D03*
X078300D02*
D03*
X077800D02*
D03*
X077300D02*
D03*
X076800D02*
D03*
X076300D02*
D03*
X079800Y091538D02*
D03*
X079300D02*
D03*
X078800D02*
D03*
X078300D02*
D03*
X077800D02*
D03*
X077300D02*
D03*
X076800D02*
D03*
X076300D02*
D03*
X085600Y094253D02*
D03*
X085100D02*
D03*
X084600D02*
D03*
X084100D02*
D03*
X083600D02*
D03*
X083100D02*
D03*
X082600D02*
D03*
X082100D02*
D03*
X085600Y092363D02*
D03*
X085100D02*
D03*
X084600D02*
D03*
X084100D02*
D03*
X083600D02*
D03*
X083100D02*
D03*
X082600D02*
D03*
X082100D02*
D03*
X095590Y093893D02*
D03*
X095090D02*
D03*
X094590D02*
D03*
X094090D02*
D03*
X093590D02*
D03*
X093090D02*
D03*
X092590D02*
D03*
X092090D02*
D03*
X095590Y092003D02*
D03*
X095090D02*
D03*
X094590D02*
D03*
X094090D02*
D03*
X093590D02*
D03*
X093090D02*
D03*
X092590D02*
D03*
X092090D02*
D03*
X101670Y092773D02*
D03*
X101170D02*
D03*
X100670D02*
D03*
X100170D02*
D03*
X099670D02*
D03*
X099170D02*
D03*
X098670D02*
D03*
X098170D02*
D03*
X101670Y090883D02*
D03*
X101170D02*
D03*
X100670D02*
D03*
X100170D02*
D03*
X099670D02*
D03*
X099170D02*
D03*
X098670D02*
D03*
X098170D02*
D03*
X132300Y093428D02*
D03*
X131800D02*
D03*
X131300D02*
D03*
X130800D02*
D03*
X130300D02*
D03*
X129800D02*
D03*
X129300D02*
D03*
X128800D02*
D03*
X132300Y091538D02*
D03*
X131800D02*
D03*
X131300D02*
D03*
X130800D02*
D03*
X130300D02*
D03*
X129800D02*
D03*
X129300D02*
D03*
X128800D02*
D03*
X138100Y094253D02*
D03*
X137600D02*
D03*
X137100D02*
D03*
X136600D02*
D03*
X136100D02*
D03*
X135600D02*
D03*
X135100D02*
D03*
X134600D02*
D03*
X138100Y092363D02*
D03*
X137600D02*
D03*
X137100D02*
D03*
X136600D02*
D03*
X136100D02*
D03*
X135600D02*
D03*
X135100D02*
D03*
X134600D02*
D03*
X148090Y093893D02*
D03*
X147590D02*
D03*
X147090D02*
D03*
X146590D02*
D03*
X146090D02*
D03*
X145590D02*
D03*
X145090D02*
D03*
X144590D02*
D03*
X148090Y092003D02*
D03*
X147590D02*
D03*
X147090D02*
D03*
X146590D02*
D03*
X146090D02*
D03*
X145590D02*
D03*
X145090D02*
D03*
X144590D02*
D03*
X154170Y092773D02*
D03*
X153670D02*
D03*
X153170D02*
D03*
X152670D02*
D03*
X152170D02*
D03*
X151670D02*
D03*
X151170D02*
D03*
X150670D02*
D03*
X154170Y090883D02*
D03*
X153670D02*
D03*
X153170D02*
D03*
X152670D02*
D03*
X152170D02*
D03*
X151670D02*
D03*
X151170D02*
D03*
X150670D02*
D03*
D120*
X058635Y047308D02*
D03*
Y047808D02*
D03*
Y048308D02*
D03*
Y048808D02*
D03*
Y049308D02*
D03*
Y049808D02*
D03*
Y050308D02*
D03*
Y050808D02*
D03*
X056745Y047308D02*
D03*
Y047808D02*
D03*
Y048308D02*
D03*
Y048808D02*
D03*
Y049308D02*
D03*
Y049808D02*
D03*
Y050308D02*
D03*
Y050808D02*
D03*
X014305Y048938D02*
D03*
Y048438D02*
D03*
Y047938D02*
D03*
Y047438D02*
D03*
Y046938D02*
D03*
Y046438D02*
D03*
Y045938D02*
D03*
Y045438D02*
D03*
X016195Y048938D02*
D03*
Y048438D02*
D03*
Y047938D02*
D03*
Y047438D02*
D03*
Y046938D02*
D03*
Y046438D02*
D03*
Y045938D02*
D03*
Y045438D02*
D03*
X111135Y047308D02*
D03*
Y047808D02*
D03*
Y048308D02*
D03*
Y048808D02*
D03*
Y049308D02*
D03*
Y049808D02*
D03*
Y050308D02*
D03*
Y050808D02*
D03*
X109245Y047308D02*
D03*
Y047808D02*
D03*
Y048308D02*
D03*
Y048808D02*
D03*
Y049308D02*
D03*
Y049808D02*
D03*
Y050308D02*
D03*
Y050808D02*
D03*
X066805Y048938D02*
D03*
Y048438D02*
D03*
Y047938D02*
D03*
Y047438D02*
D03*
Y046938D02*
D03*
Y046438D02*
D03*
Y045938D02*
D03*
Y045438D02*
D03*
X068695Y048938D02*
D03*
Y048438D02*
D03*
Y047938D02*
D03*
Y047438D02*
D03*
Y046938D02*
D03*
Y046438D02*
D03*
Y045938D02*
D03*
Y045438D02*
D03*
X163635Y047308D02*
D03*
Y047808D02*
D03*
Y048308D02*
D03*
Y048808D02*
D03*
Y049308D02*
D03*
Y049808D02*
D03*
Y050308D02*
D03*
Y050808D02*
D03*
X161745Y047308D02*
D03*
Y047808D02*
D03*
Y048308D02*
D03*
Y048808D02*
D03*
Y049308D02*
D03*
Y049808D02*
D03*
Y050308D02*
D03*
Y050808D02*
D03*
X119305Y048938D02*
D03*
Y048438D02*
D03*
Y047938D02*
D03*
Y047438D02*
D03*
Y046938D02*
D03*
Y046438D02*
D03*
Y045938D02*
D03*
Y045438D02*
D03*
X121195Y048938D02*
D03*
Y048438D02*
D03*
Y047938D02*
D03*
Y047438D02*
D03*
Y046938D02*
D03*
Y046438D02*
D03*
Y045938D02*
D03*
Y045438D02*
D03*
X058635Y088558D02*
D03*
Y089058D02*
D03*
Y089558D02*
D03*
Y090058D02*
D03*
Y090558D02*
D03*
Y091058D02*
D03*
Y091558D02*
D03*
Y092058D02*
D03*
X056745Y088558D02*
D03*
Y089058D02*
D03*
Y089558D02*
D03*
Y090058D02*
D03*
Y090558D02*
D03*
Y091058D02*
D03*
Y091558D02*
D03*
Y092058D02*
D03*
X014305Y090188D02*
D03*
Y089688D02*
D03*
Y089188D02*
D03*
Y088688D02*
D03*
Y088188D02*
D03*
Y087688D02*
D03*
Y087188D02*
D03*
Y086688D02*
D03*
X016195Y090188D02*
D03*
Y089688D02*
D03*
Y089188D02*
D03*
Y088688D02*
D03*
Y088188D02*
D03*
Y087688D02*
D03*
Y087188D02*
D03*
Y086688D02*
D03*
X111135Y088558D02*
D03*
Y089058D02*
D03*
Y089558D02*
D03*
Y090058D02*
D03*
Y090558D02*
D03*
Y091058D02*
D03*
Y091558D02*
D03*
Y092058D02*
D03*
X109245Y088558D02*
D03*
Y089058D02*
D03*
Y089558D02*
D03*
Y090058D02*
D03*
Y090558D02*
D03*
Y091058D02*
D03*
Y091558D02*
D03*
Y092058D02*
D03*
X066805Y090188D02*
D03*
Y089688D02*
D03*
Y089188D02*
D03*
Y088688D02*
D03*
Y088188D02*
D03*
Y087688D02*
D03*
Y087188D02*
D03*
Y086688D02*
D03*
X068695Y090188D02*
D03*
Y089688D02*
D03*
Y089188D02*
D03*
Y088688D02*
D03*
Y088188D02*
D03*
Y087688D02*
D03*
Y087188D02*
D03*
Y086688D02*
D03*
X163635Y088558D02*
D03*
Y089058D02*
D03*
Y089558D02*
D03*
Y090058D02*
D03*
Y090558D02*
D03*
Y091058D02*
D03*
Y091558D02*
D03*
Y092058D02*
D03*
X161745Y088558D02*
D03*
Y089058D02*
D03*
Y089558D02*
D03*
Y090058D02*
D03*
Y090558D02*
D03*
Y091058D02*
D03*
Y091558D02*
D03*
Y092058D02*
D03*
X119305Y090188D02*
D03*
Y089688D02*
D03*
Y089188D02*
D03*
Y088688D02*
D03*
Y088188D02*
D03*
Y087688D02*
D03*
Y087188D02*
D03*
Y086688D02*
D03*
X121195Y090188D02*
D03*
Y089688D02*
D03*
Y089188D02*
D03*
Y088688D02*
D03*
Y088188D02*
D03*
Y087688D02*
D03*
Y087188D02*
D03*
Y086688D02*
D03*
D121*
X036258Y045218D02*
D03*
X037360D02*
D03*
X036359Y050158D02*
D03*
X037461D02*
D03*
X029802Y040212D02*
D03*
X030904D02*
D03*
X041499Y040368D02*
D03*
X042601D02*
D03*
X050379Y040498D02*
D03*
X051481D02*
D03*
X088758Y045218D02*
D03*
X089860D02*
D03*
X088859Y050158D02*
D03*
X089961D02*
D03*
X082302Y040212D02*
D03*
X083404D02*
D03*
X093999Y040368D02*
D03*
X095101D02*
D03*
X102879Y040498D02*
D03*
X103982D02*
D03*
X141258Y045218D02*
D03*
X142360D02*
D03*
X141359Y050158D02*
D03*
X142461D02*
D03*
X134802Y040212D02*
D03*
X135904D02*
D03*
X146499Y040368D02*
D03*
X147601D02*
D03*
X155379Y040498D02*
D03*
X156482D02*
D03*
X036258Y086468D02*
D03*
X037360D02*
D03*
X036359Y091408D02*
D03*
X037461D02*
D03*
X029802Y081462D02*
D03*
X030904D02*
D03*
X041499Y081618D02*
D03*
X042601D02*
D03*
X050379Y081748D02*
D03*
X051481D02*
D03*
X088758Y086468D02*
D03*
X089860D02*
D03*
X088859Y091408D02*
D03*
X089961D02*
D03*
X082302Y081462D02*
D03*
X083404D02*
D03*
X093999Y081618D02*
D03*
X095101D02*
D03*
X102879Y081748D02*
D03*
X103982D02*
D03*
X141258Y086468D02*
D03*
X142360D02*
D03*
X141359Y091408D02*
D03*
X142461D02*
D03*
X134802Y081462D02*
D03*
X135904D02*
D03*
X146499Y081618D02*
D03*
X147601D02*
D03*
X155379Y081748D02*
D03*
X156482D02*
D03*
D122*
X019660Y040879D02*
D03*
Y039777D02*
D03*
X020140Y023557D02*
D03*
Y024659D02*
D03*
X072160Y040879D02*
D03*
Y039777D02*
D03*
X072640Y023557D02*
D03*
Y024659D02*
D03*
X124660Y040879D02*
D03*
Y039777D02*
D03*
X125140Y023557D02*
D03*
Y024659D02*
D03*
X019660Y082129D02*
D03*
Y081027D02*
D03*
X020140Y064807D02*
D03*
Y065909D02*
D03*
X072160Y082129D02*
D03*
Y081027D02*
D03*
X072640Y064807D02*
D03*
Y065909D02*
D03*
X124660Y082129D02*
D03*
Y081027D02*
D03*
X125140Y064807D02*
D03*
Y065909D02*
D03*
D123*
X023750Y039898D02*
D03*
X022648D02*
D03*
X054160Y039888D02*
D03*
X053058D02*
D03*
X031662Y035568D02*
D03*
X030559D02*
D03*
X076250Y039898D02*
D03*
X075148D02*
D03*
X106660Y039888D02*
D03*
X105558D02*
D03*
X084162Y035568D02*
D03*
X083059D02*
D03*
X128750Y039898D02*
D03*
X127648D02*
D03*
X159160Y039888D02*
D03*
X158058D02*
D03*
X136662Y035568D02*
D03*
X135559D02*
D03*
X023750Y081148D02*
D03*
X022648D02*
D03*
X054160Y081138D02*
D03*
X053058D02*
D03*
X031662Y076818D02*
D03*
X030559D02*
D03*
X076250Y081148D02*
D03*
X075148D02*
D03*
X106660Y081138D02*
D03*
X105558D02*
D03*
X084162Y076818D02*
D03*
X083059D02*
D03*
X128750Y081148D02*
D03*
X127648D02*
D03*
X159160Y081138D02*
D03*
X158058D02*
D03*
X136662Y076818D02*
D03*
X135559D02*
D03*
D124*
X016932Y041922D02*
D03*
Y042178D02*
D03*
Y042434D02*
D03*
Y042690D02*
D03*
Y042946D02*
D03*
Y043202D02*
D03*
Y043458D02*
D03*
Y043714D02*
D03*
X014688Y041922D02*
D03*
Y042178D02*
D03*
Y042434D02*
D03*
Y042690D02*
D03*
Y042946D02*
D03*
Y043202D02*
D03*
Y043458D02*
D03*
Y043714D02*
D03*
X069432Y041922D02*
D03*
Y042178D02*
D03*
Y042434D02*
D03*
Y042690D02*
D03*
Y042946D02*
D03*
Y043202D02*
D03*
Y043458D02*
D03*
Y043714D02*
D03*
X067188Y041922D02*
D03*
Y042178D02*
D03*
Y042434D02*
D03*
Y042690D02*
D03*
Y042946D02*
D03*
Y043202D02*
D03*
Y043458D02*
D03*
Y043714D02*
D03*
X121932Y041922D02*
D03*
Y042178D02*
D03*
Y042434D02*
D03*
Y042690D02*
D03*
Y042946D02*
D03*
Y043202D02*
D03*
Y043458D02*
D03*
Y043714D02*
D03*
X119688Y041922D02*
D03*
Y042178D02*
D03*
Y042434D02*
D03*
Y042690D02*
D03*
Y042946D02*
D03*
Y043202D02*
D03*
Y043458D02*
D03*
Y043714D02*
D03*
X016932Y083172D02*
D03*
Y083428D02*
D03*
Y083684D02*
D03*
Y083940D02*
D03*
Y084196D02*
D03*
Y084452D02*
D03*
Y084708D02*
D03*
Y084964D02*
D03*
X014688Y083172D02*
D03*
Y083428D02*
D03*
Y083684D02*
D03*
Y083940D02*
D03*
Y084196D02*
D03*
Y084452D02*
D03*
Y084708D02*
D03*
Y084964D02*
D03*
X069432Y083172D02*
D03*
Y083428D02*
D03*
Y083684D02*
D03*
Y083940D02*
D03*
Y084196D02*
D03*
Y084452D02*
D03*
Y084708D02*
D03*
Y084964D02*
D03*
X067188Y083172D02*
D03*
Y083428D02*
D03*
Y083684D02*
D03*
Y083940D02*
D03*
Y084196D02*
D03*
Y084452D02*
D03*
Y084708D02*
D03*
Y084964D02*
D03*
X121932Y083172D02*
D03*
Y083428D02*
D03*
Y083684D02*
D03*
Y083940D02*
D03*
Y084196D02*
D03*
Y084452D02*
D03*
Y084708D02*
D03*
Y084964D02*
D03*
X119688Y083172D02*
D03*
Y083428D02*
D03*
Y083684D02*
D03*
Y083940D02*
D03*
Y084196D02*
D03*
Y084452D02*
D03*
Y084708D02*
D03*
Y084964D02*
D03*
D125*
X025090Y039094D02*
D03*
X025346D02*
D03*
X025602D02*
D03*
X025858D02*
D03*
X026114D02*
D03*
X026370D02*
D03*
X026626D02*
D03*
X026882D02*
D03*
X025090Y041338D02*
D03*
X025346D02*
D03*
X025602D02*
D03*
X025858D02*
D03*
X026114D02*
D03*
X026370D02*
D03*
X026626D02*
D03*
X026882D02*
D03*
X033765Y038976D02*
D03*
X034021D02*
D03*
X034276D02*
D03*
X034532D02*
D03*
X034788D02*
D03*
X035044D02*
D03*
X035300D02*
D03*
X035556D02*
D03*
X033765Y041220D02*
D03*
X034021D02*
D03*
X034276D02*
D03*
X034532D02*
D03*
X034788D02*
D03*
X035044D02*
D03*
X035300D02*
D03*
X035556D02*
D03*
X046375Y038706D02*
D03*
X046631D02*
D03*
X046886D02*
D03*
X047142D02*
D03*
X047398D02*
D03*
X047654D02*
D03*
X047910D02*
D03*
X048166D02*
D03*
X046375Y040950D02*
D03*
X046631D02*
D03*
X046886D02*
D03*
X047142D02*
D03*
X047398D02*
D03*
X047654D02*
D03*
X047910D02*
D03*
X048166D02*
D03*
X057627Y041156D02*
D03*
X057883D02*
D03*
X058139D02*
D03*
X058395D02*
D03*
X058651D02*
D03*
X058906D02*
D03*
X059162D02*
D03*
X059418D02*
D03*
X057627Y043401D02*
D03*
X057883D02*
D03*
X058139D02*
D03*
X058395D02*
D03*
X058651D02*
D03*
X058906D02*
D03*
X059162D02*
D03*
X059418D02*
D03*
X077590Y039094D02*
D03*
X077846D02*
D03*
X078102D02*
D03*
X078358D02*
D03*
X078614D02*
D03*
X078870D02*
D03*
X079126D02*
D03*
X079382D02*
D03*
X077590Y041338D02*
D03*
X077846D02*
D03*
X078102D02*
D03*
X078358D02*
D03*
X078614D02*
D03*
X078870D02*
D03*
X079126D02*
D03*
X079382D02*
D03*
X086265Y038976D02*
D03*
X086521D02*
D03*
X086776D02*
D03*
X087032D02*
D03*
X087288D02*
D03*
X087544D02*
D03*
X087800D02*
D03*
X088056D02*
D03*
X086265Y041220D02*
D03*
X086521D02*
D03*
X086776D02*
D03*
X087032D02*
D03*
X087288D02*
D03*
X087544D02*
D03*
X087800D02*
D03*
X088056D02*
D03*
X098875Y038706D02*
D03*
X099131D02*
D03*
X099386D02*
D03*
X099642D02*
D03*
X099898D02*
D03*
X100154D02*
D03*
X100410D02*
D03*
X100666D02*
D03*
X098875Y040950D02*
D03*
X099131D02*
D03*
X099386D02*
D03*
X099642D02*
D03*
X099898D02*
D03*
X100154D02*
D03*
X100410D02*
D03*
X100666D02*
D03*
X110127Y041156D02*
D03*
X110383D02*
D03*
X110639D02*
D03*
X110895D02*
D03*
X111151D02*
D03*
X111406D02*
D03*
X111662D02*
D03*
X111918D02*
D03*
X110127Y043401D02*
D03*
X110383D02*
D03*
X110639D02*
D03*
X110895D02*
D03*
X111151D02*
D03*
X111406D02*
D03*
X111662D02*
D03*
X111918D02*
D03*
X130090Y039094D02*
D03*
X130346D02*
D03*
X130602D02*
D03*
X130858D02*
D03*
X131114D02*
D03*
X131370D02*
D03*
X131626D02*
D03*
X131882D02*
D03*
X130090Y041338D02*
D03*
X130346D02*
D03*
X130602D02*
D03*
X130858D02*
D03*
X131114D02*
D03*
X131370D02*
D03*
X131626D02*
D03*
X131882D02*
D03*
X138765Y038976D02*
D03*
X139021D02*
D03*
X139276D02*
D03*
X139532D02*
D03*
X139788D02*
D03*
X140044D02*
D03*
X140300D02*
D03*
X140556D02*
D03*
X138765Y041220D02*
D03*
X139021D02*
D03*
X139276D02*
D03*
X139532D02*
D03*
X139788D02*
D03*
X140044D02*
D03*
X140300D02*
D03*
X140556D02*
D03*
X151375Y038706D02*
D03*
X151631D02*
D03*
X151886D02*
D03*
X152142D02*
D03*
X152398D02*
D03*
X152654D02*
D03*
X152910D02*
D03*
X153166D02*
D03*
X151375Y040950D02*
D03*
X151631D02*
D03*
X151886D02*
D03*
X152142D02*
D03*
X152398D02*
D03*
X152654D02*
D03*
X152910D02*
D03*
X153166D02*
D03*
X162627Y041156D02*
D03*
X162883D02*
D03*
X163139D02*
D03*
X163395D02*
D03*
X163651D02*
D03*
X163906D02*
D03*
X164162D02*
D03*
X164418D02*
D03*
X162627Y043401D02*
D03*
X162883D02*
D03*
X163139D02*
D03*
X163395D02*
D03*
X163651D02*
D03*
X163906D02*
D03*
X164162D02*
D03*
X164418D02*
D03*
X025090Y080344D02*
D03*
X025346D02*
D03*
X025602D02*
D03*
X025858D02*
D03*
X026114D02*
D03*
X026370D02*
D03*
X026626D02*
D03*
X026882D02*
D03*
X025090Y082588D02*
D03*
X025346D02*
D03*
X025602D02*
D03*
X025858D02*
D03*
X026114D02*
D03*
X026370D02*
D03*
X026626D02*
D03*
X026882D02*
D03*
X033765Y080226D02*
D03*
X034021D02*
D03*
X034276D02*
D03*
X034532D02*
D03*
X034788D02*
D03*
X035044D02*
D03*
X035300D02*
D03*
X035556D02*
D03*
X033765Y082470D02*
D03*
X034021D02*
D03*
X034276D02*
D03*
X034532D02*
D03*
X034788D02*
D03*
X035044D02*
D03*
X035300D02*
D03*
X035556D02*
D03*
X046375Y079956D02*
D03*
X046631D02*
D03*
X046886D02*
D03*
X047142D02*
D03*
X047398D02*
D03*
X047654D02*
D03*
X047910D02*
D03*
X048166D02*
D03*
X046375Y082200D02*
D03*
X046631D02*
D03*
X046886D02*
D03*
X047142D02*
D03*
X047398D02*
D03*
X047654D02*
D03*
X047910D02*
D03*
X048166D02*
D03*
X057627Y082406D02*
D03*
X057883D02*
D03*
X058139D02*
D03*
X058395D02*
D03*
X058651D02*
D03*
X058906D02*
D03*
X059162D02*
D03*
X059418D02*
D03*
X057627Y084651D02*
D03*
X057883D02*
D03*
X058139D02*
D03*
X058395D02*
D03*
X058651D02*
D03*
X058906D02*
D03*
X059162D02*
D03*
X059418D02*
D03*
X077590Y080344D02*
D03*
X077846D02*
D03*
X078102D02*
D03*
X078358D02*
D03*
X078614D02*
D03*
X078870D02*
D03*
X079126D02*
D03*
X079382D02*
D03*
X077590Y082588D02*
D03*
X077846D02*
D03*
X078102D02*
D03*
X078358D02*
D03*
X078614D02*
D03*
X078870D02*
D03*
X079126D02*
D03*
X079382D02*
D03*
X086265Y080226D02*
D03*
X086521D02*
D03*
X086776D02*
D03*
X087032D02*
D03*
X087288D02*
D03*
X087544D02*
D03*
X087800D02*
D03*
X088056D02*
D03*
X086265Y082470D02*
D03*
X086521D02*
D03*
X086776D02*
D03*
X087032D02*
D03*
X087288D02*
D03*
X087544D02*
D03*
X087800D02*
D03*
X088056D02*
D03*
X098875Y079956D02*
D03*
X099131D02*
D03*
X099386D02*
D03*
X099642D02*
D03*
X099898D02*
D03*
X100154D02*
D03*
X100410D02*
D03*
X100666D02*
D03*
X098875Y082200D02*
D03*
X099131D02*
D03*
X099386D02*
D03*
X099642D02*
D03*
X099898D02*
D03*
X100154D02*
D03*
X100410D02*
D03*
X100666D02*
D03*
X110127Y082406D02*
D03*
X110383D02*
D03*
X110639D02*
D03*
X110895D02*
D03*
X111151D02*
D03*
X111406D02*
D03*
X111662D02*
D03*
X111918D02*
D03*
X110127Y084651D02*
D03*
X110383D02*
D03*
X110639D02*
D03*
X110895D02*
D03*
X111151D02*
D03*
X111406D02*
D03*
X111662D02*
D03*
X111918D02*
D03*
X130090Y080344D02*
D03*
X130346D02*
D03*
X130602D02*
D03*
X130858D02*
D03*
X131114D02*
D03*
X131370D02*
D03*
X131626D02*
D03*
X131882D02*
D03*
X130090Y082588D02*
D03*
X130346D02*
D03*
X130602D02*
D03*
X130858D02*
D03*
X131114D02*
D03*
X131370D02*
D03*
X131626D02*
D03*
X131882D02*
D03*
X138765Y080226D02*
D03*
X139021D02*
D03*
X139276D02*
D03*
X139532D02*
D03*
X139788D02*
D03*
X140044D02*
D03*
X140300D02*
D03*
X140556D02*
D03*
X138765Y082470D02*
D03*
X139021D02*
D03*
X139276D02*
D03*
X139532D02*
D03*
X139788D02*
D03*
X140044D02*
D03*
X140300D02*
D03*
X140556D02*
D03*
X151375Y079956D02*
D03*
X151631D02*
D03*
X151886D02*
D03*
X152142D02*
D03*
X152398D02*
D03*
X152654D02*
D03*
X152910D02*
D03*
X153166D02*
D03*
X151375Y082200D02*
D03*
X151631D02*
D03*
X151886D02*
D03*
X152142D02*
D03*
X152398D02*
D03*
X152654D02*
D03*
X152910D02*
D03*
X153166D02*
D03*
X162627Y082406D02*
D03*
X162883D02*
D03*
X163139D02*
D03*
X163395D02*
D03*
X163651D02*
D03*
X163906D02*
D03*
X164162D02*
D03*
X164418D02*
D03*
X162627Y084651D02*
D03*
X162883D02*
D03*
X163139D02*
D03*
X163395D02*
D03*
X163651D02*
D03*
X163906D02*
D03*
X164162D02*
D03*
X164418D02*
D03*
D126*
X018564Y021104D02*
D03*
X018064D02*
D03*
X017564D02*
D03*
X017064D02*
D03*
X018564Y019136D02*
D03*
X018064D02*
D03*
X017564D02*
D03*
X017064D02*
D03*
X071064Y021104D02*
D03*
X070564D02*
D03*
X070064D02*
D03*
X069564D02*
D03*
X071064Y019136D02*
D03*
X070564D02*
D03*
X070064D02*
D03*
X069564D02*
D03*
X123564Y021104D02*
D03*
X123064D02*
D03*
X122564D02*
D03*
X122064D02*
D03*
X123564Y019136D02*
D03*
X123064D02*
D03*
X122564D02*
D03*
X122064D02*
D03*
X018564Y062354D02*
D03*
X018064D02*
D03*
X017564D02*
D03*
X017064D02*
D03*
X018564Y060386D02*
D03*
X018064D02*
D03*
X017564D02*
D03*
X017064D02*
D03*
X071064Y062354D02*
D03*
X070564D02*
D03*
X070064D02*
D03*
X069564D02*
D03*
X071064Y060386D02*
D03*
X070564D02*
D03*
X070064D02*
D03*
X069564D02*
D03*
X123564Y062354D02*
D03*
X123064D02*
D03*
X122564D02*
D03*
X122064D02*
D03*
X123564Y060386D02*
D03*
X123064D02*
D03*
X122564D02*
D03*
X122064D02*
D03*
D127*
X022229Y019940D02*
D03*
X074729D02*
D03*
X127229D02*
D03*
X022229Y061190D02*
D03*
X074729D02*
D03*
X127229D02*
D03*
D128*
X022229Y016396D02*
D03*
X074729D02*
D03*
X127229D02*
D03*
X022229Y057646D02*
D03*
X074729D02*
D03*
X127229D02*
D03*
D129*
X018562Y017098D02*
D03*
X016042D02*
D03*
X071062D02*
D03*
X068542D02*
D03*
X123562D02*
D03*
X121042D02*
D03*
X018562Y058348D02*
D03*
X016042D02*
D03*
X071062D02*
D03*
X068542D02*
D03*
X123562D02*
D03*
X121042D02*
D03*
D130*
X015284Y019313D02*
D03*
Y021832D02*
D03*
X067784Y019313D02*
D03*
Y021832D02*
D03*
X120284Y019313D02*
D03*
Y021832D02*
D03*
X015284Y060563D02*
D03*
Y063082D02*
D03*
X067784Y060563D02*
D03*
Y063082D02*
D03*
X120284Y060563D02*
D03*
Y063082D02*
D03*
D131*
X019802Y021901D02*
D03*
X021376D02*
D03*
X072302D02*
D03*
X073876D02*
D03*
X124802D02*
D03*
X126376D02*
D03*
X019802Y063151D02*
D03*
X021376D02*
D03*
X072302D02*
D03*
X073876D02*
D03*
X124802D02*
D03*
X126376D02*
D03*
D132*
X058211Y024102D02*
D03*
X057988Y024324D02*
D03*
X057766Y024547D02*
D03*
X057543Y024770D02*
D03*
X057320Y024992D02*
D03*
X057097Y025215D02*
D03*
X056875Y025438D02*
D03*
X056652Y025661D02*
D03*
X056429Y025883D02*
D03*
X056207Y026106D02*
D03*
X055984Y026329D02*
D03*
X059130Y029474D02*
D03*
X059352Y029252D02*
D03*
X059575Y029029D02*
D03*
X059798Y028806D02*
D03*
X060020Y028584D02*
D03*
X060243Y028361D02*
D03*
X060466Y028138D02*
D03*
X060689Y027915D02*
D03*
X060911Y027693D02*
D03*
X061134Y027470D02*
D03*
X061357Y027247D02*
D03*
X110711Y024102D02*
D03*
X110488Y024324D02*
D03*
X110266Y024547D02*
D03*
X110043Y024770D02*
D03*
X109820Y024992D02*
D03*
X109597Y025215D02*
D03*
X109375Y025438D02*
D03*
X109152Y025661D02*
D03*
X108929Y025883D02*
D03*
X108707Y026106D02*
D03*
X108484Y026329D02*
D03*
X111630Y029474D02*
D03*
X111852Y029252D02*
D03*
X112075Y029029D02*
D03*
X112298Y028806D02*
D03*
X112521Y028584D02*
D03*
X112743Y028361D02*
D03*
X112966Y028138D02*
D03*
X113189Y027915D02*
D03*
X113411Y027693D02*
D03*
X113634Y027470D02*
D03*
X113857Y027247D02*
D03*
X163211Y024102D02*
D03*
X162988Y024324D02*
D03*
X162766Y024547D02*
D03*
X162543Y024770D02*
D03*
X162320Y024992D02*
D03*
X162097Y025215D02*
D03*
X161875Y025438D02*
D03*
X161652Y025661D02*
D03*
X161429Y025883D02*
D03*
X161207Y026106D02*
D03*
X160984Y026329D02*
D03*
X164130Y029474D02*
D03*
X164352Y029252D02*
D03*
X164575Y029029D02*
D03*
X164798Y028806D02*
D03*
X165021Y028584D02*
D03*
X165243Y028361D02*
D03*
X165466Y028138D02*
D03*
X165689Y027915D02*
D03*
X165911Y027693D02*
D03*
X166134Y027470D02*
D03*
X166357Y027247D02*
D03*
X058211Y065352D02*
D03*
X057988Y065574D02*
D03*
X057766Y065797D02*
D03*
X057543Y066020D02*
D03*
X057320Y066242D02*
D03*
X057097Y066465D02*
D03*
X056875Y066688D02*
D03*
X056652Y066911D02*
D03*
X056429Y067133D02*
D03*
X056207Y067356D02*
D03*
X055984Y067579D02*
D03*
X059130Y070724D02*
D03*
X059352Y070502D02*
D03*
X059575Y070279D02*
D03*
X059798Y070056D02*
D03*
X060020Y069834D02*
D03*
X060243Y069611D02*
D03*
X060466Y069388D02*
D03*
X060689Y069166D02*
D03*
X060911Y068943D02*
D03*
X061134Y068720D02*
D03*
X061357Y068497D02*
D03*
X110711Y065352D02*
D03*
X110488Y065574D02*
D03*
X110266Y065797D02*
D03*
X110043Y066020D02*
D03*
X109820Y066242D02*
D03*
X109597Y066465D02*
D03*
X109375Y066688D02*
D03*
X109152Y066911D02*
D03*
X108929Y067133D02*
D03*
X108707Y067356D02*
D03*
X108484Y067579D02*
D03*
X111630Y070724D02*
D03*
X111852Y070502D02*
D03*
X112075Y070279D02*
D03*
X112298Y070056D02*
D03*
X112521Y069834D02*
D03*
X112743Y069611D02*
D03*
X112966Y069388D02*
D03*
X113189Y069166D02*
D03*
X113411Y068943D02*
D03*
X113634Y068720D02*
D03*
X113857Y068497D02*
D03*
X163211Y065352D02*
D03*
X162988Y065574D02*
D03*
X162766Y065797D02*
D03*
X162543Y066020D02*
D03*
X162320Y066242D02*
D03*
X162097Y066465D02*
D03*
X161875Y066688D02*
D03*
X161652Y066911D02*
D03*
X161429Y067133D02*
D03*
X161207Y067356D02*
D03*
X160984Y067579D02*
D03*
X164130Y070724D02*
D03*
X164352Y070502D02*
D03*
X164575Y070279D02*
D03*
X164798Y070056D02*
D03*
X165021Y069834D02*
D03*
X165243Y069611D02*
D03*
X165466Y069388D02*
D03*
X165689Y069166D02*
D03*
X165911Y068943D02*
D03*
X166134Y068720D02*
D03*
X166357Y068497D02*
D03*
D133*
X055984Y027247D02*
D03*
X056207Y027470D02*
D03*
X056429Y027693D02*
D03*
X056652Y027915D02*
D03*
X056875Y028138D02*
D03*
X057097Y028361D02*
D03*
X057320Y028584D02*
D03*
X057543Y028806D02*
D03*
X057766Y029029D02*
D03*
X057988Y029252D02*
D03*
X058211Y029474D02*
D03*
X061357Y026329D02*
D03*
X061134Y026106D02*
D03*
X060911Y025883D02*
D03*
X060689Y025661D02*
D03*
X060466Y025438D02*
D03*
X060243Y025215D02*
D03*
X060020Y024992D02*
D03*
X059798Y024770D02*
D03*
X059575Y024547D02*
D03*
X059352Y024324D02*
D03*
X059130Y024102D02*
D03*
X108484Y027247D02*
D03*
X108707Y027470D02*
D03*
X108929Y027693D02*
D03*
X109152Y027915D02*
D03*
X109375Y028138D02*
D03*
X109597Y028361D02*
D03*
X109820Y028584D02*
D03*
X110043Y028806D02*
D03*
X110266Y029029D02*
D03*
X110488Y029252D02*
D03*
X110711Y029474D02*
D03*
X113857Y026329D02*
D03*
X113634Y026106D02*
D03*
X113411Y025883D02*
D03*
X113189Y025661D02*
D03*
X112966Y025438D02*
D03*
X112743Y025215D02*
D03*
X112521Y024992D02*
D03*
X112298Y024770D02*
D03*
X112075Y024547D02*
D03*
X111852Y024324D02*
D03*
X111630Y024102D02*
D03*
X160984Y027247D02*
D03*
X161207Y027470D02*
D03*
X161429Y027693D02*
D03*
X161652Y027915D02*
D03*
X161875Y028138D02*
D03*
X162097Y028361D02*
D03*
X162320Y028584D02*
D03*
X162543Y028806D02*
D03*
X162766Y029029D02*
D03*
X162988Y029252D02*
D03*
X163211Y029474D02*
D03*
X166357Y026329D02*
D03*
X166134Y026106D02*
D03*
X165911Y025883D02*
D03*
X165689Y025661D02*
D03*
X165466Y025438D02*
D03*
X165243Y025215D02*
D03*
X165021Y024992D02*
D03*
X164798Y024770D02*
D03*
X164575Y024547D02*
D03*
X164352Y024324D02*
D03*
X164130Y024102D02*
D03*
X055984Y068497D02*
D03*
X056207Y068720D02*
D03*
X056429Y068943D02*
D03*
X056652Y069166D02*
D03*
X056875Y069388D02*
D03*
X057097Y069611D02*
D03*
X057320Y069834D02*
D03*
X057543Y070056D02*
D03*
X057766Y070279D02*
D03*
X057988Y070502D02*
D03*
X058211Y070724D02*
D03*
X061357Y067579D02*
D03*
X061134Y067356D02*
D03*
X060911Y067133D02*
D03*
X060689Y066911D02*
D03*
X060466Y066688D02*
D03*
X060243Y066465D02*
D03*
X060020Y066242D02*
D03*
X059798Y066020D02*
D03*
X059575Y065797D02*
D03*
X059352Y065574D02*
D03*
X059130Y065352D02*
D03*
X108484Y068497D02*
D03*
X108707Y068720D02*
D03*
X108929Y068943D02*
D03*
X109152Y069166D02*
D03*
X109375Y069388D02*
D03*
X109597Y069611D02*
D03*
X109820Y069834D02*
D03*
X110043Y070056D02*
D03*
X110266Y070279D02*
D03*
X110488Y070502D02*
D03*
X110711Y070724D02*
D03*
X113857Y067579D02*
D03*
X113634Y067356D02*
D03*
X113411Y067133D02*
D03*
X113189Y066911D02*
D03*
X112966Y066688D02*
D03*
X112743Y066465D02*
D03*
X112521Y066242D02*
D03*
X112298Y066020D02*
D03*
X112075Y065797D02*
D03*
X111852Y065574D02*
D03*
X111630Y065352D02*
D03*
X160984Y068497D02*
D03*
X161207Y068720D02*
D03*
X161429Y068943D02*
D03*
X161652Y069166D02*
D03*
X161875Y069388D02*
D03*
X162097Y069611D02*
D03*
X162320Y069834D02*
D03*
X162543Y070056D02*
D03*
X162766Y070279D02*
D03*
X162988Y070502D02*
D03*
X163211Y070724D02*
D03*
X166357Y067579D02*
D03*
X166134Y067356D02*
D03*
X165911Y067133D02*
D03*
X165689Y066911D02*
D03*
X165466Y066688D02*
D03*
X165243Y066465D02*
D03*
X165021Y066242D02*
D03*
X164798Y066020D02*
D03*
X164575Y065797D02*
D03*
X164352Y065574D02*
D03*
X164130Y065352D02*
D03*
D134*
X052850Y034449D02*
D03*
X053350D02*
D03*
X053850D02*
D03*
X054350D02*
D03*
X054850D02*
D03*
X055350D02*
D03*
X055850D02*
D03*
X056350D02*
D03*
X056850D02*
D03*
X057350D02*
D03*
X052850Y038347D02*
D03*
X053350D02*
D03*
X053850D02*
D03*
X054350D02*
D03*
X054850D02*
D03*
X055350D02*
D03*
X055850D02*
D03*
X056350D02*
D03*
X056850D02*
D03*
X057350D02*
D03*
X105350Y034449D02*
D03*
X105850D02*
D03*
X106350D02*
D03*
X106850D02*
D03*
X107350D02*
D03*
X107850D02*
D03*
X108350D02*
D03*
X108850D02*
D03*
X109350D02*
D03*
X109850D02*
D03*
X105350Y038347D02*
D03*
X105850D02*
D03*
X106350D02*
D03*
X106850D02*
D03*
X107350D02*
D03*
X107850D02*
D03*
X108350D02*
D03*
X108850D02*
D03*
X109350D02*
D03*
X109850D02*
D03*
X157850Y034449D02*
D03*
X158350D02*
D03*
X158850D02*
D03*
X159350D02*
D03*
X159850D02*
D03*
X160350D02*
D03*
X160850D02*
D03*
X161350D02*
D03*
X161850D02*
D03*
X162350D02*
D03*
X157850Y038347D02*
D03*
X158350D02*
D03*
X158850D02*
D03*
X159350D02*
D03*
X159850D02*
D03*
X160350D02*
D03*
X160850D02*
D03*
X161350D02*
D03*
X161850D02*
D03*
X162350D02*
D03*
X052850Y075699D02*
D03*
X053350D02*
D03*
X053850D02*
D03*
X054350D02*
D03*
X054850D02*
D03*
X055350D02*
D03*
X055850D02*
D03*
X056350D02*
D03*
X056850D02*
D03*
X057350D02*
D03*
X052850Y079597D02*
D03*
X053350D02*
D03*
X053850D02*
D03*
X054350D02*
D03*
X054850D02*
D03*
X055350D02*
D03*
X055850D02*
D03*
X056350D02*
D03*
X056850D02*
D03*
X057350D02*
D03*
X105350Y075699D02*
D03*
X105850D02*
D03*
X106350D02*
D03*
X106850D02*
D03*
X107350D02*
D03*
X107850D02*
D03*
X108350D02*
D03*
X108850D02*
D03*
X109350D02*
D03*
X109850D02*
D03*
X105350Y079597D02*
D03*
X105850D02*
D03*
X106350D02*
D03*
X106850D02*
D03*
X107350D02*
D03*
X107850D02*
D03*
X108350D02*
D03*
X108850D02*
D03*
X109350D02*
D03*
X109850D02*
D03*
X157850Y075699D02*
D03*
X158350D02*
D03*
X158850D02*
D03*
X159350D02*
D03*
X159850D02*
D03*
X160350D02*
D03*
X160850D02*
D03*
X161350D02*
D03*
X161850D02*
D03*
X162350D02*
D03*
X157850Y079597D02*
D03*
X158350D02*
D03*
X158850D02*
D03*
X159350D02*
D03*
X159850D02*
D03*
X160350D02*
D03*
X160850D02*
D03*
X161350D02*
D03*
X161850D02*
D03*
X162350D02*
D03*
D135*
X060130Y030824D02*
D03*
Y031572D02*
D03*
X016938Y026462D02*
D03*
Y027210D02*
D03*
X112630Y030824D02*
D03*
Y031572D02*
D03*
X069438Y026462D02*
D03*
Y027210D02*
D03*
X165130Y030824D02*
D03*
Y031572D02*
D03*
X121938Y026462D02*
D03*
Y027210D02*
D03*
X060130Y072074D02*
D03*
Y072822D02*
D03*
X016938Y067712D02*
D03*
Y068460D02*
D03*
X112630Y072074D02*
D03*
Y072822D02*
D03*
X069438Y067712D02*
D03*
Y068460D02*
D03*
X165130Y072074D02*
D03*
Y072822D02*
D03*
X121938Y067712D02*
D03*
Y068460D02*
D03*
D136*
X029379Y037498D02*
D03*
X031702D02*
D03*
X081879D02*
D03*
X084202D02*
D03*
X134379D02*
D03*
X136702D02*
D03*
X029379Y078748D02*
D03*
X031702D02*
D03*
X081879D02*
D03*
X084202D02*
D03*
X134379D02*
D03*
X136702D02*
D03*
D137*
X012509Y098027D02*
D03*
X166072D02*
D03*
Y012840D02*
D03*
X012509D02*
D03*
D138*
X050286Y048708D02*
D03*
X049597Y047330D02*
D03*
Y045558D02*
D03*
Y043786D02*
D03*
X050286Y042408D02*
D03*
X051860Y042015D02*
D03*
Y049101D02*
D03*
X053435Y048708D02*
D03*
X054124Y047330D02*
D03*
Y045558D02*
D03*
Y043786D02*
D03*
X053435Y042408D02*
D03*
X044615D02*
D03*
X045304Y043786D02*
D03*
Y045558D02*
D03*
Y047330D02*
D03*
X044615Y048708D02*
D03*
X043040Y049101D02*
D03*
Y042015D02*
D03*
X041466Y042408D02*
D03*
X040777Y043786D02*
D03*
Y045558D02*
D03*
Y047330D02*
D03*
X041466Y048708D02*
D03*
X028966Y048716D02*
D03*
X028277Y047338D02*
D03*
Y045566D02*
D03*
Y043794D02*
D03*
X028966Y042416D02*
D03*
X030540Y042023D02*
D03*
Y049109D02*
D03*
X032115Y048716D02*
D03*
X032804Y047338D02*
D03*
Y045566D02*
D03*
Y043794D02*
D03*
X032115Y042416D02*
D03*
X023295Y042408D02*
D03*
X023984Y043786D02*
D03*
Y045558D02*
D03*
Y047330D02*
D03*
X023295Y048708D02*
D03*
X021720Y049101D02*
D03*
Y042015D02*
D03*
X020146Y042408D02*
D03*
X019457Y043786D02*
D03*
Y045558D02*
D03*
Y047330D02*
D03*
X020146Y048708D02*
D03*
X102786D02*
D03*
X102097Y047330D02*
D03*
Y045558D02*
D03*
Y043786D02*
D03*
X102786Y042408D02*
D03*
X104360Y042015D02*
D03*
Y049101D02*
D03*
X105935Y048708D02*
D03*
X106624Y047330D02*
D03*
Y045558D02*
D03*
Y043786D02*
D03*
X105935Y042408D02*
D03*
X097115D02*
D03*
X097804Y043786D02*
D03*
Y045558D02*
D03*
Y047330D02*
D03*
X097115Y048708D02*
D03*
X095540Y049101D02*
D03*
Y042015D02*
D03*
X093966Y042408D02*
D03*
X093277Y043786D02*
D03*
Y045558D02*
D03*
Y047330D02*
D03*
X093966Y048708D02*
D03*
X081466Y048716D02*
D03*
X080777Y047338D02*
D03*
Y045566D02*
D03*
Y043794D02*
D03*
X081466Y042416D02*
D03*
X083040Y042023D02*
D03*
Y049109D02*
D03*
X084615Y048716D02*
D03*
X085304Y047338D02*
D03*
Y045566D02*
D03*
Y043794D02*
D03*
X084615Y042416D02*
D03*
X075795Y042408D02*
D03*
X076484Y043786D02*
D03*
Y045558D02*
D03*
Y047330D02*
D03*
X075795Y048708D02*
D03*
X074220Y049101D02*
D03*
Y042015D02*
D03*
X072646Y042408D02*
D03*
X071957Y043786D02*
D03*
Y045558D02*
D03*
Y047330D02*
D03*
X072646Y048708D02*
D03*
X155286D02*
D03*
X154597Y047330D02*
D03*
Y045558D02*
D03*
Y043786D02*
D03*
X155286Y042408D02*
D03*
X156860Y042015D02*
D03*
Y049101D02*
D03*
X158435Y048708D02*
D03*
X159124Y047330D02*
D03*
Y045558D02*
D03*
Y043786D02*
D03*
X158435Y042408D02*
D03*
X149615D02*
D03*
X150304Y043786D02*
D03*
Y045558D02*
D03*
Y047330D02*
D03*
X149615Y048708D02*
D03*
X148040Y049101D02*
D03*
Y042015D02*
D03*
X146466Y042408D02*
D03*
X145777Y043786D02*
D03*
Y045558D02*
D03*
Y047330D02*
D03*
X146466Y048708D02*
D03*
X133966Y048716D02*
D03*
X133277Y047338D02*
D03*
Y045566D02*
D03*
Y043794D02*
D03*
X133966Y042416D02*
D03*
X135540Y042023D02*
D03*
Y049109D02*
D03*
X137115Y048716D02*
D03*
X137804Y047338D02*
D03*
Y045566D02*
D03*
Y043794D02*
D03*
X137115Y042416D02*
D03*
X128295Y042408D02*
D03*
X128984Y043786D02*
D03*
Y045558D02*
D03*
Y047330D02*
D03*
X128295Y048708D02*
D03*
X126720Y049101D02*
D03*
Y042015D02*
D03*
X125146Y042408D02*
D03*
X124457Y043786D02*
D03*
Y045558D02*
D03*
Y047330D02*
D03*
X125146Y048708D02*
D03*
X050286Y089958D02*
D03*
X049597Y088580D02*
D03*
Y086808D02*
D03*
Y085036D02*
D03*
X050286Y083658D02*
D03*
X051860Y083265D02*
D03*
Y090351D02*
D03*
X053435Y089958D02*
D03*
X054124Y088580D02*
D03*
Y086808D02*
D03*
Y085036D02*
D03*
X053435Y083658D02*
D03*
X044615D02*
D03*
X045304Y085036D02*
D03*
Y086808D02*
D03*
Y088580D02*
D03*
X044615Y089958D02*
D03*
X043040Y090351D02*
D03*
Y083265D02*
D03*
X041466Y083658D02*
D03*
X040777Y085036D02*
D03*
Y086808D02*
D03*
Y088580D02*
D03*
X041466Y089958D02*
D03*
X028966Y089966D02*
D03*
X028277Y088588D02*
D03*
Y086816D02*
D03*
Y085044D02*
D03*
X028966Y083666D02*
D03*
X030540Y083273D02*
D03*
Y090359D02*
D03*
X032115Y089966D02*
D03*
X032804Y088588D02*
D03*
Y086816D02*
D03*
Y085044D02*
D03*
X032115Y083666D02*
D03*
X023295Y083658D02*
D03*
X023984Y085036D02*
D03*
Y086808D02*
D03*
Y088580D02*
D03*
X023295Y089958D02*
D03*
X021720Y090351D02*
D03*
Y083265D02*
D03*
X020146Y083658D02*
D03*
X019457Y085036D02*
D03*
Y086808D02*
D03*
Y088580D02*
D03*
X020146Y089958D02*
D03*
X102786D02*
D03*
X102097Y088580D02*
D03*
Y086808D02*
D03*
Y085036D02*
D03*
X102786Y083658D02*
D03*
X104360Y083265D02*
D03*
Y090351D02*
D03*
X105935Y089958D02*
D03*
X106624Y088580D02*
D03*
Y086808D02*
D03*
Y085036D02*
D03*
X105935Y083658D02*
D03*
X097115D02*
D03*
X097804Y085036D02*
D03*
Y086808D02*
D03*
Y088580D02*
D03*
X097115Y089958D02*
D03*
X095540Y090351D02*
D03*
Y083265D02*
D03*
X093966Y083658D02*
D03*
X093277Y085036D02*
D03*
Y086808D02*
D03*
Y088580D02*
D03*
X093966Y089958D02*
D03*
X081466Y089966D02*
D03*
X080777Y088588D02*
D03*
Y086816D02*
D03*
Y085044D02*
D03*
X081466Y083666D02*
D03*
X083040Y083273D02*
D03*
Y090359D02*
D03*
X084615Y089966D02*
D03*
X085304Y088588D02*
D03*
Y086816D02*
D03*
Y085044D02*
D03*
X084615Y083666D02*
D03*
X075795Y083658D02*
D03*
X076484Y085036D02*
D03*
Y086808D02*
D03*
Y088580D02*
D03*
X075795Y089958D02*
D03*
X074220Y090351D02*
D03*
Y083265D02*
D03*
X072646Y083658D02*
D03*
X071957Y085036D02*
D03*
Y086808D02*
D03*
Y088580D02*
D03*
X072646Y089958D02*
D03*
X155286D02*
D03*
X154597Y088580D02*
D03*
Y086808D02*
D03*
Y085036D02*
D03*
X155286Y083658D02*
D03*
X156860Y083265D02*
D03*
Y090351D02*
D03*
X158435Y089958D02*
D03*
X159124Y088580D02*
D03*
Y086808D02*
D03*
Y085036D02*
D03*
X158435Y083658D02*
D03*
X149615D02*
D03*
X150304Y085036D02*
D03*
Y086808D02*
D03*
Y088580D02*
D03*
X149615Y089958D02*
D03*
X148040Y090351D02*
D03*
Y083265D02*
D03*
X146466Y083658D02*
D03*
X145777Y085036D02*
D03*
Y086808D02*
D03*
Y088580D02*
D03*
X146466Y089958D02*
D03*
X133966Y089966D02*
D03*
X133277Y088588D02*
D03*
Y086816D02*
D03*
Y085044D02*
D03*
X133966Y083666D02*
D03*
X135540Y083273D02*
D03*
Y090359D02*
D03*
X137115Y089966D02*
D03*
X137804Y088588D02*
D03*
Y086816D02*
D03*
Y085044D02*
D03*
X137115Y083666D02*
D03*
X128295Y083658D02*
D03*
X128984Y085036D02*
D03*
Y086808D02*
D03*
Y088580D02*
D03*
X128295Y089958D02*
D03*
X126720Y090351D02*
D03*
Y083265D02*
D03*
X125146Y083658D02*
D03*
X124457Y085036D02*
D03*
Y086808D02*
D03*
Y088580D02*
D03*
X125146Y089958D02*
D03*
D139*
X012790Y023808D02*
D03*
Y024808D02*
D03*
Y025808D02*
D03*
Y026808D02*
D03*
Y027808D02*
D03*
Y028808D02*
D03*
Y029808D02*
D03*
Y030808D02*
D03*
X018790D02*
D03*
Y029808D02*
D03*
Y028808D02*
D03*
Y027808D02*
D03*
Y026808D02*
D03*
Y025808D02*
D03*
Y024808D02*
D03*
Y023808D02*
D03*
X023306Y029981D02*
D03*
Y028981D02*
D03*
Y027981D02*
D03*
Y026981D02*
D03*
Y025981D02*
D03*
Y024981D02*
D03*
Y023981D02*
D03*
Y022981D02*
D03*
Y021981D02*
D03*
X046959Y035608D02*
D03*
X044990Y037108D02*
D03*
X043022Y035608D02*
D03*
X065290Y023808D02*
D03*
Y024808D02*
D03*
Y025808D02*
D03*
Y026808D02*
D03*
Y027808D02*
D03*
Y028808D02*
D03*
Y029808D02*
D03*
Y030808D02*
D03*
X071290D02*
D03*
Y029808D02*
D03*
Y028808D02*
D03*
Y027808D02*
D03*
Y026808D02*
D03*
Y025808D02*
D03*
Y024808D02*
D03*
Y023808D02*
D03*
X075806Y029981D02*
D03*
Y028981D02*
D03*
Y027981D02*
D03*
Y026981D02*
D03*
Y025981D02*
D03*
Y024981D02*
D03*
Y023981D02*
D03*
Y022981D02*
D03*
Y021981D02*
D03*
X099459Y035608D02*
D03*
X097490Y037108D02*
D03*
X095522Y035608D02*
D03*
X117790Y023808D02*
D03*
Y024808D02*
D03*
Y025808D02*
D03*
Y026808D02*
D03*
Y027808D02*
D03*
Y028808D02*
D03*
Y029808D02*
D03*
Y030808D02*
D03*
X123790D02*
D03*
Y029808D02*
D03*
Y028808D02*
D03*
Y027808D02*
D03*
Y026808D02*
D03*
Y025808D02*
D03*
Y024808D02*
D03*
Y023808D02*
D03*
X128306Y029981D02*
D03*
Y028981D02*
D03*
Y027981D02*
D03*
Y026981D02*
D03*
Y025981D02*
D03*
Y024981D02*
D03*
Y023981D02*
D03*
Y022981D02*
D03*
Y021981D02*
D03*
X151959Y035608D02*
D03*
X149990Y037108D02*
D03*
X148022Y035608D02*
D03*
X012790Y065058D02*
D03*
Y066058D02*
D03*
Y067058D02*
D03*
Y068058D02*
D03*
Y069058D02*
D03*
Y070058D02*
D03*
Y071058D02*
D03*
Y072058D02*
D03*
X018790D02*
D03*
Y071058D02*
D03*
Y070058D02*
D03*
Y069058D02*
D03*
Y068058D02*
D03*
Y067058D02*
D03*
Y066058D02*
D03*
Y065058D02*
D03*
X023306Y071231D02*
D03*
Y070231D02*
D03*
Y069231D02*
D03*
Y068231D02*
D03*
Y067231D02*
D03*
Y066231D02*
D03*
Y065231D02*
D03*
Y064231D02*
D03*
Y063231D02*
D03*
X046959Y076858D02*
D03*
X044990Y078358D02*
D03*
X043022Y076858D02*
D03*
X065290Y065058D02*
D03*
Y066058D02*
D03*
Y067058D02*
D03*
Y068058D02*
D03*
Y069058D02*
D03*
Y070058D02*
D03*
Y071058D02*
D03*
Y072058D02*
D03*
X071290D02*
D03*
Y071058D02*
D03*
Y070058D02*
D03*
Y069058D02*
D03*
Y068058D02*
D03*
Y067058D02*
D03*
Y066058D02*
D03*
Y065058D02*
D03*
X075806Y071231D02*
D03*
Y070231D02*
D03*
Y069231D02*
D03*
Y068231D02*
D03*
Y067231D02*
D03*
Y066231D02*
D03*
Y065231D02*
D03*
Y064231D02*
D03*
Y063231D02*
D03*
X099459Y076858D02*
D03*
X097490Y078358D02*
D03*
X095522Y076858D02*
D03*
X117790Y065058D02*
D03*
Y066058D02*
D03*
Y067058D02*
D03*
Y068058D02*
D03*
Y069058D02*
D03*
Y070058D02*
D03*
Y071058D02*
D03*
Y072058D02*
D03*
X123790D02*
D03*
Y071058D02*
D03*
Y070058D02*
D03*
Y069058D02*
D03*
Y068058D02*
D03*
Y067058D02*
D03*
Y066058D02*
D03*
Y065058D02*
D03*
X128306Y071231D02*
D03*
Y070231D02*
D03*
Y069231D02*
D03*
Y068231D02*
D03*
Y067231D02*
D03*
Y066231D02*
D03*
Y065231D02*
D03*
Y064231D02*
D03*
Y063231D02*
D03*
X151959Y076858D02*
D03*
X149990Y078358D02*
D03*
X148022Y076858D02*
D03*
D140*
X022903Y037930D02*
D03*
X023903D02*
D03*
Y036930D02*
D03*
X038330Y032808D02*
D03*
X037330D02*
D03*
X036330D02*
D03*
X035330D02*
D03*
X034330D02*
D03*
X033330D02*
D03*
X032330D02*
D03*
X031330D02*
D03*
X030330D02*
D03*
X040410D02*
D03*
X041410D02*
D03*
X042410D02*
D03*
X043410D02*
D03*
X044410D02*
D03*
X045410D02*
D03*
X046410D02*
D03*
X047410D02*
D03*
X048410D02*
D03*
X075403Y037930D02*
D03*
X076403D02*
D03*
Y036930D02*
D03*
X090830Y032808D02*
D03*
X089830D02*
D03*
X088830D02*
D03*
X087830D02*
D03*
X086830D02*
D03*
X085830D02*
D03*
X084830D02*
D03*
X083830D02*
D03*
X082830D02*
D03*
X092910D02*
D03*
X093910D02*
D03*
X094910D02*
D03*
X095910D02*
D03*
X096910D02*
D03*
X097910D02*
D03*
X098910D02*
D03*
X099910D02*
D03*
X100910D02*
D03*
X127903Y037930D02*
D03*
X128903D02*
D03*
Y036930D02*
D03*
X143330Y032808D02*
D03*
X142330D02*
D03*
X141330D02*
D03*
X140330D02*
D03*
X139330D02*
D03*
X138330D02*
D03*
X137330D02*
D03*
X136330D02*
D03*
X135330D02*
D03*
X145410D02*
D03*
X146410D02*
D03*
X147410D02*
D03*
X148410D02*
D03*
X149410D02*
D03*
X150410D02*
D03*
X151410D02*
D03*
X152410D02*
D03*
X153410D02*
D03*
X022903Y079180D02*
D03*
X023903D02*
D03*
Y078180D02*
D03*
X038330Y074058D02*
D03*
X037330D02*
D03*
X036330D02*
D03*
X035330D02*
D03*
X034330D02*
D03*
X033330D02*
D03*
X032330D02*
D03*
X031330D02*
D03*
X030330D02*
D03*
X040410D02*
D03*
X041410D02*
D03*
X042410D02*
D03*
X043410D02*
D03*
X044410D02*
D03*
X045410D02*
D03*
X046410D02*
D03*
X047410D02*
D03*
X048410D02*
D03*
X075403Y079180D02*
D03*
X076403D02*
D03*
Y078180D02*
D03*
X090830Y074058D02*
D03*
X089830D02*
D03*
X088830D02*
D03*
X087830D02*
D03*
X086830D02*
D03*
X085830D02*
D03*
X084830D02*
D03*
X083830D02*
D03*
X082830D02*
D03*
X092910D02*
D03*
X093910D02*
D03*
X094910D02*
D03*
X095910D02*
D03*
X096910D02*
D03*
X097910D02*
D03*
X098910D02*
D03*
X099910D02*
D03*
X100910D02*
D03*
X127903Y079180D02*
D03*
X128903D02*
D03*
Y078180D02*
D03*
X143330Y074058D02*
D03*
X142330D02*
D03*
X141330D02*
D03*
X140330D02*
D03*
X139330D02*
D03*
X138330D02*
D03*
X137330D02*
D03*
X136330D02*
D03*
X135330D02*
D03*
X145410D02*
D03*
X146410D02*
D03*
X147410D02*
D03*
X148410D02*
D03*
X149410D02*
D03*
X150410D02*
D03*
X151410D02*
D03*
X152410D02*
D03*
X153410D02*
D03*
D141*
X022903Y036930D02*
D03*
Y035930D02*
D03*
Y034930D02*
D03*
Y033930D02*
D03*
Y032930D02*
D03*
X023887Y035930D02*
D03*
X023903Y034930D02*
D03*
Y033930D02*
D03*
Y032930D02*
D03*
X075403Y036930D02*
D03*
Y035930D02*
D03*
Y034930D02*
D03*
Y033930D02*
D03*
Y032930D02*
D03*
X076387Y035930D02*
D03*
X076403Y034930D02*
D03*
Y033930D02*
D03*
Y032930D02*
D03*
X127903Y036930D02*
D03*
Y035930D02*
D03*
Y034930D02*
D03*
Y033930D02*
D03*
Y032930D02*
D03*
X128887Y035930D02*
D03*
X128903Y034930D02*
D03*
Y033930D02*
D03*
Y032930D02*
D03*
X022903Y078180D02*
D03*
Y077180D02*
D03*
Y076180D02*
D03*
Y075180D02*
D03*
Y074180D02*
D03*
X023887Y077180D02*
D03*
X023903Y076180D02*
D03*
Y075180D02*
D03*
Y074180D02*
D03*
X075403Y078180D02*
D03*
Y077180D02*
D03*
Y076180D02*
D03*
Y075180D02*
D03*
Y074180D02*
D03*
X076387Y077180D02*
D03*
X076403Y076180D02*
D03*
Y075180D02*
D03*
Y074180D02*
D03*
X127903Y078180D02*
D03*
Y077180D02*
D03*
Y076180D02*
D03*
Y075180D02*
D03*
Y074180D02*
D03*
X128887Y077180D02*
D03*
X128903Y076180D02*
D03*
Y075180D02*
D03*
Y074180D02*
D03*
D142*
X039330Y032808D02*
D03*
X049410D02*
D03*
X091830D02*
D03*
X101910D02*
D03*
X144330D02*
D03*
X154410D02*
D03*
X039330Y074058D02*
D03*
X049410D02*
D03*
X091830D02*
D03*
X101910D02*
D03*
X144330D02*
D03*
X154410D02*
D03*
D143*
X011940Y020648D02*
D03*
X013279Y016199D02*
D03*
X064440Y020648D02*
D03*
X065779Y016199D02*
D03*
X116940Y020648D02*
D03*
X118279Y016199D02*
D03*
X011940Y061898D02*
D03*
X013279Y057449D02*
D03*
X064440Y061898D02*
D03*
X065779Y057449D02*
D03*
X116940Y061898D02*
D03*
X118279Y057449D02*
D03*
D144*
X012413Y019428D02*
D03*
Y018443D02*
D03*
Y017459D02*
D03*
X064913Y019428D02*
D03*
Y018443D02*
D03*
Y017459D02*
D03*
X117413Y019428D02*
D03*
Y018443D02*
D03*
Y017459D02*
D03*
X012413Y060678D02*
D03*
Y059693D02*
D03*
Y058709D02*
D03*
X064913Y060678D02*
D03*
Y059693D02*
D03*
Y058709D02*
D03*
X117413Y060678D02*
D03*
Y059693D02*
D03*
Y058709D02*
D03*
D145*
X058040Y032308D02*
D03*
X015540Y033308D02*
D03*
X110540Y032308D02*
D03*
X068040Y033308D02*
D03*
X163040Y032308D02*
D03*
X120540Y033308D02*
D03*
X058040Y073558D02*
D03*
X015540Y074558D02*
D03*
X110540Y073558D02*
D03*
X068040Y074558D02*
D03*
X163040Y073558D02*
D03*
X120540Y074558D02*
D03*
D146*
X012103Y040746D02*
D03*
Y053246D02*
D03*
X061478Y053246D02*
D03*
Y040746D02*
D03*
X036790Y053246D02*
D03*
X064603Y040746D02*
D03*
Y053246D02*
D03*
X113978Y053246D02*
D03*
Y040746D02*
D03*
X089290Y053246D02*
D03*
X117103Y040746D02*
D03*
Y053246D02*
D03*
X166478Y053246D02*
D03*
Y040746D02*
D03*
X141790Y053246D02*
D03*
X012103Y081996D02*
D03*
Y094496D02*
D03*
X061478Y094496D02*
D03*
Y081996D02*
D03*
X036790Y094496D02*
D03*
X064603Y081996D02*
D03*
Y094496D02*
D03*
X113978Y094496D02*
D03*
Y081996D02*
D03*
X089290Y094496D02*
D03*
X117103Y081996D02*
D03*
Y094496D02*
D03*
X166478Y094496D02*
D03*
Y081996D02*
D03*
X141790Y094496D02*
D03*
D147*
X021721Y045172D02*
D03*
X030540Y045162D02*
D03*
X043040Y045164D02*
D03*
X051860D02*
D03*
X074221Y045172D02*
D03*
X083040Y045162D02*
D03*
X095540Y045164D02*
D03*
X104360D02*
D03*
X126721Y045172D02*
D03*
X135540Y045162D02*
D03*
X148040Y045164D02*
D03*
X156860D02*
D03*
X021721Y086422D02*
D03*
X030540Y086412D02*
D03*
X043040Y086414D02*
D03*
X051860D02*
D03*
X074221Y086422D02*
D03*
X083040Y086412D02*
D03*
X095540Y086414D02*
D03*
X104360D02*
D03*
X126721Y086422D02*
D03*
X135540Y086412D02*
D03*
X148040Y086414D02*
D03*
X156860D02*
D03*
D148*
X021721Y045960D02*
D03*
X030540Y045950D02*
D03*
X043040Y045952D02*
D03*
X051860D02*
D03*
X074221Y045960D02*
D03*
X083040Y045950D02*
D03*
X095540Y045952D02*
D03*
X104360D02*
D03*
X126721Y045960D02*
D03*
X135540Y045950D02*
D03*
X148040Y045952D02*
D03*
X156860D02*
D03*
X021721Y087210D02*
D03*
X030540Y087200D02*
D03*
X043040Y087202D02*
D03*
X051860D02*
D03*
X074221Y087210D02*
D03*
X083040Y087200D02*
D03*
X095540Y087202D02*
D03*
X104360D02*
D03*
X126721Y087210D02*
D03*
X135540Y087200D02*
D03*
X148040Y087202D02*
D03*
X156860D02*
D03*
D149*
X061250Y030418D02*
D03*
X113750D02*
D03*
X166250D02*
D03*
X061250Y071668D02*
D03*
X113750D02*
D03*
X166250D02*
D03*
D150*
X061250Y031418D02*
D03*
Y032418D02*
D03*
Y033418D02*
D03*
Y034418D02*
D03*
Y035418D02*
D03*
X113750Y031418D02*
D03*
Y032418D02*
D03*
Y033418D02*
D03*
Y034418D02*
D03*
Y035418D02*
D03*
X166250Y031418D02*
D03*
Y032418D02*
D03*
Y033418D02*
D03*
Y034418D02*
D03*
Y035418D02*
D03*
X061250Y072668D02*
D03*
Y073668D02*
D03*
Y074668D02*
D03*
Y075668D02*
D03*
Y076668D02*
D03*
X113750Y072668D02*
D03*
Y073668D02*
D03*
Y074668D02*
D03*
Y075668D02*
D03*
Y076668D02*
D03*
X166250Y072668D02*
D03*
Y073668D02*
D03*
Y074668D02*
D03*
Y075668D02*
D03*
Y076668D02*
D03*
D151*
X036790Y048058D02*
D03*
Y043058D02*
D03*
X089290Y048058D02*
D03*
Y043058D02*
D03*
X141790Y048058D02*
D03*
Y043058D02*
D03*
X036790Y089308D02*
D03*
Y084308D02*
D03*
X089290Y089308D02*
D03*
Y084308D02*
D03*
X141790Y089308D02*
D03*
Y084308D02*
D03*
D152*
X036790Y047025D02*
D03*
Y049092D02*
D03*
Y044092D02*
D03*
Y042025D02*
D03*
X089290Y047025D02*
D03*
Y049092D02*
D03*
Y044092D02*
D03*
Y042025D02*
D03*
X141790Y047025D02*
D03*
Y049092D02*
D03*
Y044092D02*
D03*
Y042025D02*
D03*
X036790Y088275D02*
D03*
Y090342D02*
D03*
Y085342D02*
D03*
Y083275D02*
D03*
X089290Y088275D02*
D03*
Y090342D02*
D03*
Y085342D02*
D03*
Y083275D02*
D03*
X141790Y088275D02*
D03*
Y090342D02*
D03*
Y085342D02*
D03*
Y083275D02*
D03*
D153*
X057912Y023420D02*
D03*
X058306Y022958D02*
D03*
X058719Y022542D02*
D03*
X059881Y022790D02*
D03*
X059489Y023149D02*
D03*
X059095Y022903D02*
D03*
X110412Y023420D02*
D03*
X110806Y022958D02*
D03*
X111219Y022542D02*
D03*
X112381Y022790D02*
D03*
X111989Y023149D02*
D03*
X111595Y022903D02*
D03*
X162912Y023420D02*
D03*
X163306Y022958D02*
D03*
X163719Y022542D02*
D03*
X164881Y022790D02*
D03*
X164489Y023149D02*
D03*
X164095Y022903D02*
D03*
X057912Y064670D02*
D03*
X058306Y064208D02*
D03*
X058719Y063792D02*
D03*
X059881Y064040D02*
D03*
X059489Y064399D02*
D03*
X059095Y064153D02*
D03*
X110412Y064670D02*
D03*
X110806Y064208D02*
D03*
X111219Y063792D02*
D03*
X112381Y064040D02*
D03*
X111989Y064399D02*
D03*
X111595Y064153D02*
D03*
X162912Y064670D02*
D03*
X163306Y064208D02*
D03*
X163719Y063792D02*
D03*
X164881Y064040D02*
D03*
X164489Y064399D02*
D03*
X164095Y064153D02*
D03*
D154*
X036040Y036308D02*
D03*
X038040D02*
D03*
X088540D02*
D03*
X090540D02*
D03*
X141040D02*
D03*
X143040D02*
D03*
X036040Y077558D02*
D03*
X038040D02*
D03*
X088540D02*
D03*
X090540D02*
D03*
X141040D02*
D03*
X143040D02*
D03*
M02*
