%FSAX24Y24*%
%MOIN*%
G70*
G01*
G75*
G04 Layer_Physical_Order=4*
G04 Layer_Color=16711680*
%ADD10C,0.0630*%
%ADD11R,3.0070X0.2530*%
G04:AMPARAMS|DCode=12|XSize=24mil|YSize=59.1mil|CornerRadius=0.6mil|HoleSize=0mil|Usage=FLASHONLY|Rotation=270.000|XOffset=0mil|YOffset=0mil|HoleType=Round|Shape=RoundedRectangle|*
%AMROUNDEDRECTD12*
21,1,0.0240,0.0579,0,0,270.0*
21,1,0.0228,0.0591,0,0,270.0*
1,1,0.0012,-0.0289,-0.0114*
1,1,0.0012,-0.0289,0.0114*
1,1,0.0012,0.0289,0.0114*
1,1,0.0012,0.0289,-0.0114*
%
%ADD12ROUNDEDRECTD12*%
G04:AMPARAMS|DCode=13|XSize=24mil|YSize=59.1mil|CornerRadius=0.6mil|HoleSize=0mil|Usage=FLASHONLY|Rotation=180.000|XOffset=0mil|YOffset=0mil|HoleType=Round|Shape=RoundedRectangle|*
%AMROUNDEDRECTD13*
21,1,0.0240,0.0579,0,0,180.0*
21,1,0.0228,0.0591,0,0,180.0*
1,1,0.0012,-0.0114,0.0289*
1,1,0.0012,0.0114,0.0289*
1,1,0.0012,0.0114,-0.0289*
1,1,0.0012,-0.0114,-0.0289*
%
%ADD13ROUNDEDRECTD13*%
%ADD14R,0.0669X0.0984*%
%ADD15R,0.0512X0.0591*%
%ADD16R,0.0512X0.0236*%
%ADD17R,0.0709X0.0630*%
%ADD18R,0.0472X0.1575*%
G04:AMPARAMS|DCode=19|XSize=70.9mil|YSize=63mil|CornerRadius=0mil|HoleSize=0mil|Usage=FLASHONLY|Rotation=315.000|XOffset=0mil|YOffset=0mil|HoleType=Round|Shape=Rectangle|*
%AMROTATEDRECTD19*
4,1,4,-0.0473,0.0028,-0.0028,0.0473,0.0473,-0.0028,0.0028,-0.0473,-0.0473,0.0028,0.0*
%
%ADD19ROTATEDRECTD19*%

G04:AMPARAMS|DCode=20|XSize=70.9mil|YSize=63mil|CornerRadius=0mil|HoleSize=0mil|Usage=FLASHONLY|Rotation=45.000|XOffset=0mil|YOffset=0mil|HoleType=Round|Shape=Rectangle|*
%AMROTATEDRECTD20*
4,1,4,-0.0028,-0.0473,-0.0473,-0.0028,0.0028,0.0473,0.0473,0.0028,-0.0028,-0.0473,0.0*
%
%ADD20ROTATEDRECTD20*%

%ADD21O,0.0236X0.0866*%
%ADD22O,0.0866X0.0236*%
%ADD23R,0.0630X0.1063*%
%ADD24R,0.1063X0.0630*%
%ADD25R,0.0630X0.0709*%
%ADD26O,0.0669X0.0138*%
%ADD27O,0.0138X0.0669*%
%ADD28O,0.0236X0.0787*%
%ADD29R,0.1378X0.0669*%
%ADD30R,0.1417X0.0591*%
%ADD31R,0.1024X0.0945*%
%ADD32R,0.0945X0.1024*%
%ADD33R,0.0984X0.0669*%
G04:AMPARAMS|DCode=34|XSize=21.7mil|YSize=68.9mil|CornerRadius=0mil|HoleSize=0mil|Usage=FLASHONLY|Rotation=135.000|XOffset=0mil|YOffset=0mil|HoleType=Round|Shape=Round|*
%AMOVALD34*
21,1,0.0472,0.0217,0.0000,0.0000,225.0*
1,1,0.0217,0.0167,0.0167*
1,1,0.0217,-0.0167,-0.0167*
%
%ADD34OVALD34*%

G04:AMPARAMS|DCode=35|XSize=21.7mil|YSize=68.9mil|CornerRadius=0mil|HoleSize=0mil|Usage=FLASHONLY|Rotation=225.000|XOffset=0mil|YOffset=0mil|HoleType=Round|Shape=Round|*
%AMOVALD35*
21,1,0.0472,0.0217,0.0000,0.0000,315.0*
1,1,0.0217,-0.0167,0.0167*
1,1,0.0217,0.0167,-0.0167*
%
%ADD35OVALD35*%

%ADD36O,0.0236X0.0591*%
%ADD37R,0.0591X0.0512*%
%ADD38R,0.0551X0.1280*%
%ADD39C,0.0079*%
%ADD40C,0.0197*%
%ADD41C,0.0400*%
%ADD42C,0.0394*%
%ADD43C,0.0118*%
%ADD44C,0.0100*%
%ADD45C,0.0330*%
%ADD46R,0.0394X0.0394*%
%ADD47P,0.1114X4X270.0*%
%ADD48R,0.1000X0.0900*%
%ADD49C,0.1250*%
%ADD50C,0.1300*%
%ADD51C,0.0600*%
%ADD52C,0.0700*%
%ADD53C,0.0800*%
%ADD54R,0.0700X0.0700*%
%ADD55C,0.0709*%
%ADD56C,0.0394*%
%ADD57C,0.2500*%
%ADD58R,0.0492X0.0492*%
%ADD59C,0.0492*%
%ADD60R,0.0591X0.0591*%
%ADD61C,0.0591*%
%ADD62C,0.0472*%
%ADD63C,0.0315*%
%ADD64C,0.0984*%
%ADD65C,0.0600*%
%ADD66R,15.7490X0.1250*%
%ADD67C,0.1850*%
%ADD68R,0.9650X0.5150*%
%ADD69C,0.1650*%
%ADD70C,0.1500*%
%ADD71C,0.1400*%
%ADD72C,0.0640*%
%ADD73C,0.0610*%
G04:AMPARAMS|DCode=74|XSize=84mil|YSize=84mil|CornerRadius=0mil|HoleSize=0mil|Usage=FLASHONLY|Rotation=0.000|XOffset=0mil|YOffset=0mil|HoleType=Round|Shape=Relief|Width=10mil|Gap=10mil|Entries=4|*
%AMTHD74*
7,0,0,0.0840,0.0640,0.0100,45*
%
%ADD74THD74*%
%ADD75C,0.0770*%
%ADD76C,0.0750*%
G04:AMPARAMS|DCode=77|XSize=100mil|YSize=100mil|CornerRadius=0mil|HoleSize=0mil|Usage=FLASHONLY|Rotation=0.000|XOffset=0mil|YOffset=0mil|HoleType=Round|Shape=Relief|Width=10mil|Gap=10mil|Entries=4|*
%AMTHD77*
7,0,0,0.1000,0.0800,0.0100,45*
%
%ADD77THD77*%
G04:AMPARAMS|DCode=78|XSize=95mil|YSize=95mil|CornerRadius=0mil|HoleSize=0mil|Usage=FLASHONLY|Rotation=0.000|XOffset=0mil|YOffset=0mil|HoleType=Round|Shape=Relief|Width=10mil|Gap=10mil|Entries=4|*
%AMTHD78*
7,0,0,0.0950,0.0750,0.0100,45*
%
%ADD78THD78*%
G04:AMPARAMS|DCode=79|XSize=90mil|YSize=90mil|CornerRadius=0mil|HoleSize=0mil|Usage=FLASHONLY|Rotation=0.000|XOffset=0mil|YOffset=0mil|HoleType=Round|Shape=Relief|Width=10mil|Gap=10mil|Entries=4|*
%AMTHD79*
7,0,0,0.0900,0.0700,0.0100,45*
%
%ADD79THD79*%
%ADD80C,0.0872*%
%ADD81C,0.0754*%
%ADD82C,0.0597*%
%ADD83C,0.1685*%
%ADD84C,0.0695*%
G04:AMPARAMS|DCode=85|XSize=95.433mil|YSize=95.433mil|CornerRadius=0mil|HoleSize=0mil|Usage=FLASHONLY|Rotation=0.000|XOffset=0mil|YOffset=0mil|HoleType=Round|Shape=Relief|Width=10mil|Gap=10mil|Entries=4|*
%AMTHD85*
7,0,0,0.0954,0.0754,0.0100,45*
%
%ADD85THD85*%
%ADD86C,0.0650*%
%ADD87C,0.0518*%
%ADD88C,0.1100*%
G04:AMPARAMS|DCode=89|XSize=71.811mil|YSize=71.811mil|CornerRadius=0mil|HoleSize=0mil|Usage=FLASHONLY|Rotation=0.000|XOffset=0mil|YOffset=0mil|HoleType=Round|Shape=Relief|Width=10mil|Gap=10mil|Entries=4|*
%AMTHD89*
7,0,0,0.0718,0.0518,0.0100,45*
%
%ADD89THD89*%
%ADD90C,0.0787*%
%ADD91C,0.1250*%
G04:AMPARAMS|DCode=92|XSize=89.528mil|YSize=89.528mil|CornerRadius=0mil|HoleSize=0mil|Usage=FLASHONLY|Rotation=0.000|XOffset=0mil|YOffset=0mil|HoleType=Round|Shape=Relief|Width=10mil|Gap=10mil|Entries=4|*
%AMTHD92*
7,0,0,0.0895,0.0695,0.0100,45*
%
%ADD92THD92*%
%ADD93C,0.0750*%
%ADD94C,0.0295*%
G36*
X017716Y023105D02*
X020390Y023108D01*
Y021608D01*
X018590Y019912D01*
Y018858D01*
X014140D01*
X013890Y019108D01*
Y022858D01*
X013897Y024621D01*
X017716Y024631D01*
Y023105D01*
D02*
G37*
G36*
X023208Y032143D02*
Y031639D01*
X021790D01*
X021152Y031398D01*
X021111Y031427D01*
Y037223D01*
Y037328D01*
X023208D01*
Y032143D01*
D02*
G37*
G36*
X062790Y038558D02*
X061790D01*
X060040Y040308D01*
Y041058D01*
X061790Y042808D01*
Y051058D01*
X058890Y053958D01*
X038890D01*
X036940Y052008D01*
X036640D01*
X034580Y054068D01*
X014800D01*
X012790Y052058D01*
Y041558D01*
X013040Y041308D01*
Y040058D01*
X012790Y039808D01*
Y032308D01*
X011790Y031058D01*
Y017058D01*
X012290Y016558D01*
X013040D01*
X013790Y015808D01*
X024040D01*
X024540Y016308D01*
Y026058D01*
X025290D01*
Y015058D01*
X010790D01*
Y054558D01*
X062790D01*
Y038558D01*
D02*
G37*
G36*
X070216Y023105D02*
X072890Y023108D01*
Y021608D01*
X071090Y019912D01*
Y018858D01*
X066640D01*
X066390Y019108D01*
Y022858D01*
X066397Y024621D01*
X070216Y024631D01*
Y023105D01*
D02*
G37*
G36*
X075708Y032143D02*
Y031639D01*
X074290D01*
X073652Y031398D01*
X073611Y031427D01*
Y037223D01*
Y037328D01*
X075708D01*
Y032143D01*
D02*
G37*
G36*
X115290Y038558D02*
X114290D01*
X112540Y040308D01*
Y041058D01*
X114290Y042808D01*
Y051058D01*
X111390Y053958D01*
X091390D01*
X089440Y052008D01*
X089140D01*
X087080Y054068D01*
X067300D01*
X065290Y052058D01*
Y041558D01*
X065540Y041308D01*
Y040058D01*
X065290Y039808D01*
Y032308D01*
X064290Y031058D01*
Y017058D01*
X064790Y016558D01*
X065540D01*
X066290Y015808D01*
X076540D01*
X077040Y016308D01*
Y026058D01*
X077790D01*
Y015058D01*
X063290D01*
Y054558D01*
X115290D01*
Y038558D01*
D02*
G37*
G36*
X122716Y023105D02*
X125390Y023108D01*
Y021608D01*
X123590Y019912D01*
Y018858D01*
X119140D01*
X118890Y019108D01*
Y022858D01*
X118897Y024621D01*
X122716Y024631D01*
Y023105D01*
D02*
G37*
G36*
X128208Y032143D02*
Y031639D01*
X126790D01*
X126152Y031398D01*
X126111Y031427D01*
Y037223D01*
Y037328D01*
X128208D01*
Y032143D01*
D02*
G37*
G36*
X167790Y038558D02*
X166790D01*
X165040Y040308D01*
Y041058D01*
X166790Y042808D01*
Y051058D01*
X163890Y053958D01*
X143890D01*
X141940Y052008D01*
X141640D01*
X139580Y054068D01*
X119800D01*
X117790Y052058D01*
Y041558D01*
X118040Y041308D01*
Y040058D01*
X117790Y039808D01*
Y032308D01*
X116790Y031058D01*
Y017058D01*
X117290Y016558D01*
X118040D01*
X118790Y015808D01*
X129040D01*
X129540Y016308D01*
Y026058D01*
X130290D01*
Y015058D01*
X115790D01*
Y054558D01*
X167790D01*
Y038558D01*
D02*
G37*
G36*
X017716Y064355D02*
X020390Y064358D01*
Y062858D01*
X018590Y061162D01*
Y060108D01*
X014140D01*
X013890Y060358D01*
Y064108D01*
X013897Y065871D01*
X017716Y065881D01*
Y064355D01*
D02*
G37*
G36*
X023208Y073393D02*
Y072889D01*
X021790D01*
X021152Y072648D01*
X021111Y072677D01*
Y078473D01*
Y078578D01*
X023208D01*
Y073393D01*
D02*
G37*
G36*
X062790Y079808D02*
X061790D01*
X060040Y081558D01*
Y082308D01*
X061790Y084058D01*
Y092308D01*
X058890Y095208D01*
X038890D01*
X036940Y093258D01*
X036640D01*
X034580Y095318D01*
X014800D01*
X012790Y093308D01*
Y082808D01*
X013040Y082558D01*
Y081308D01*
X012790Y081058D01*
Y073558D01*
X011790Y072308D01*
Y058308D01*
X012290Y057808D01*
X013040D01*
X013790Y057058D01*
X024040D01*
X024540Y057558D01*
Y067308D01*
X025290D01*
Y056308D01*
X010790D01*
Y095808D01*
X062790D01*
Y079808D01*
D02*
G37*
G36*
X070216Y064355D02*
X072890Y064358D01*
Y062858D01*
X071090Y061162D01*
Y060108D01*
X066640D01*
X066390Y060358D01*
Y064108D01*
X066397Y065871D01*
X070216Y065881D01*
Y064355D01*
D02*
G37*
G36*
X075708Y073393D02*
Y072889D01*
X074290D01*
X073652Y072648D01*
X073611Y072677D01*
Y078473D01*
Y078578D01*
X075708D01*
Y073393D01*
D02*
G37*
G36*
X115290Y079808D02*
X114290D01*
X112540Y081558D01*
Y082308D01*
X114290Y084058D01*
Y092308D01*
X111390Y095208D01*
X091390D01*
X089440Y093258D01*
X089140D01*
X087080Y095318D01*
X067300D01*
X065290Y093308D01*
Y082808D01*
X065540Y082558D01*
Y081308D01*
X065290Y081058D01*
Y073558D01*
X064290Y072308D01*
Y058308D01*
X064790Y057808D01*
X065540D01*
X066290Y057058D01*
X076540D01*
X077040Y057558D01*
Y067308D01*
X077790D01*
Y056308D01*
X063290D01*
Y095808D01*
X115290D01*
Y079808D01*
D02*
G37*
G36*
X122716Y064355D02*
X125390Y064358D01*
Y062858D01*
X123590Y061162D01*
Y060108D01*
X119140D01*
X118890Y060358D01*
Y064108D01*
X118897Y065871D01*
X122716Y065881D01*
Y064355D01*
D02*
G37*
G36*
X128208Y073393D02*
Y072889D01*
X126790D01*
X126152Y072648D01*
X126111Y072677D01*
Y078473D01*
Y078578D01*
X128208D01*
Y073393D01*
D02*
G37*
G36*
X167790Y079808D02*
X166790D01*
X165040Y081558D01*
Y082308D01*
X166790Y084058D01*
Y092308D01*
X163890Y095208D01*
X143890D01*
X141940Y093258D01*
X141640D01*
X139580Y095318D01*
X119800D01*
X117790Y093308D01*
Y082808D01*
X118040Y082558D01*
Y081308D01*
X117790Y081058D01*
Y073558D01*
X116790Y072308D01*
Y058308D01*
X117290Y057808D01*
X118040D01*
X118790Y057058D01*
X129040D01*
X129540Y057558D01*
Y067308D01*
X130290D01*
Y056308D01*
X115790D01*
Y095808D01*
X167790D01*
Y079808D01*
D02*
G37*
D39*
X059280Y022190D02*
X059881Y022790D01*
X057943Y022190D02*
X059280D01*
X057283Y022849D02*
X057943Y022190D01*
X056130Y024002D02*
X057283Y022849D01*
X057565Y022958D02*
X058306D01*
X056520Y024002D02*
X057565Y022958D01*
X057538Y023420D02*
X057912D01*
X056830Y024128D02*
X057538Y023420D01*
X056520Y024002D02*
Y027048D01*
X056830Y024128D02*
Y027268D01*
X033870Y034678D02*
X039080D01*
X033580Y034968D02*
X033870Y034678D01*
X033570Y034968D02*
X033580D01*
X039080Y034678D02*
X039440Y035038D01*
X027100Y037807D02*
X034104D01*
X027165Y037965D02*
X034170D01*
X027230Y038122D02*
X034235D01*
X027296Y038280D02*
X034300D01*
X027361Y038437D02*
X034532D01*
X034104Y037807D02*
X034223Y037689D01*
X034170Y037965D02*
X034288Y037847D01*
X034235Y038122D02*
X034353Y038004D01*
X034300Y038280D02*
X034418Y038162D01*
X028790Y039838D02*
X035934D01*
X035321Y037946D02*
X039313D01*
X035033Y038103D02*
X039378D01*
X034968Y038261D02*
X039443D01*
X034903Y038418D02*
X042047D01*
X035314Y037938D02*
X035321Y037946D01*
X039313D02*
X040135Y037123D01*
X034777Y037847D02*
X035033Y038103D01*
X039378D02*
X040293Y037188D01*
X034712Y038004D02*
X034968Y038261D01*
X039443D02*
X040450Y037253D01*
X034647Y038162D02*
X034903Y038418D01*
X042047D02*
X042317Y038148D01*
X026420Y038708D02*
X026718Y038410D01*
X027165D01*
X026111Y037945D02*
X026470D01*
X026555Y038253D02*
X027100D01*
X026176Y038102D02*
X026404D01*
X035091Y037938D02*
X035314D01*
X034842Y037689D02*
X035091Y037938D01*
X034223Y037689D02*
X034842D01*
X034288Y037847D02*
X034777D01*
X034353Y038004D02*
X034712D01*
X034418Y038162D02*
X034647D01*
X026969Y037938D02*
X027100Y037807D01*
X026685Y037938D02*
X026969D01*
X027035Y038096D02*
X027165Y037965D01*
X026620Y038096D02*
X027035D01*
X027100Y038253D02*
X027230Y038122D01*
X027165Y038410D02*
X027296Y038280D01*
X026535Y037787D02*
X026685Y037938D01*
X026046Y037787D02*
X026535D01*
X026470Y037945D02*
X026620Y038096D01*
X026404Y038102D02*
X026555Y038253D01*
X037450Y033928D02*
X045952D01*
X036330Y032808D02*
X037450Y033928D01*
X024205Y041023D02*
X025368D01*
X023680Y040498D02*
X024205Y041023D01*
X025368D02*
X026258Y040133D01*
X023746Y040341D02*
X024271Y040866D01*
X025303D01*
X025990Y040178D01*
X023811Y040183D02*
X024336Y040708D01*
X025230D01*
X025600Y040338D01*
X059570Y029758D02*
X059780Y029968D01*
X059250Y029758D02*
X059570D01*
X059011Y029997D02*
X059250Y029758D01*
X058967Y029997D02*
X059011D01*
X059780Y029968D02*
Y030238D01*
X059300Y030718D02*
X059780Y030238D01*
X057120Y030718D02*
X059300D01*
X059391Y030147D02*
X059407D01*
X059030Y030508D02*
X059391Y030147D01*
X057088Y030508D02*
X059030D01*
X053039Y034558D02*
X057088Y030508D01*
X058277Y030298D02*
X059034Y029541D01*
X057970Y030298D02*
X058277D01*
X057760Y030088D02*
X057970Y030298D01*
X039866Y046444D02*
X042548D01*
X039460Y046038D02*
X039866Y046444D01*
X039460Y039838D02*
Y046038D01*
Y039838D02*
X046871D01*
X040898Y037536D02*
X040902D01*
X040610Y037248D02*
X040898Y037536D01*
X040610Y035400D02*
Y037248D01*
X026150Y038708D02*
X026420D01*
X025150Y039708D02*
X026150Y038708D01*
X017950Y039708D02*
X025150D01*
X025073Y039551D02*
X026015Y038609D01*
X025857Y038199D02*
Y038544D01*
X025008Y039393D02*
X025857Y038544D01*
X020115Y039393D02*
X025008D01*
X025700Y038133D02*
Y038479D01*
X024943Y039236D02*
X025700Y038479D01*
X021448Y039236D02*
X024943D01*
X019217Y037005D02*
X021448Y039236D01*
X017840Y037118D02*
X020115Y039393D01*
X013387Y044271D02*
X017950Y039708D01*
X049076Y046444D02*
X051368D01*
X048711Y046078D02*
X049076Y046444D01*
X048711Y042525D02*
Y046078D01*
X030079Y053698D02*
X030098Y053717D01*
X028820Y053698D02*
X030079D01*
X028843Y053410D02*
X030207D01*
X026800Y051368D02*
X028843Y053410D01*
X026800Y042918D02*
Y051368D01*
X028956Y053184D02*
X030570D01*
X027050Y051278D02*
X028956Y053184D01*
X027300Y052568D02*
Y053379D01*
X026161Y051429D02*
X027300Y052568D01*
X026161Y042791D02*
Y051429D01*
X048410Y032758D02*
X048828Y032340D01*
X048410Y032758D02*
Y032808D01*
X048828Y032340D02*
X049809D01*
X026447Y035737D02*
X028558Y033627D01*
X026015Y038264D02*
Y038609D01*
X016875Y018033D02*
X017607D01*
X016265Y018644D02*
X016875Y018033D01*
X015136Y018644D02*
X016265D01*
X015131Y018638D02*
X015136Y018644D01*
X013245Y018638D02*
X015131D01*
X012540Y019342D02*
X013245Y018638D01*
X012806Y018092D02*
X016320D01*
X022390Y051358D02*
X024216Y053184D01*
X020280Y051358D02*
X022390D01*
X017056Y048134D02*
X020280Y051358D01*
X017056Y046532D02*
Y048134D01*
X024216Y053184D02*
X025275D01*
X022177Y050908D02*
X022952Y050133D01*
X025700Y038133D02*
X026046Y037787D01*
X025857Y038199D02*
X026111Y037945D01*
X026015Y038264D02*
X026176Y038102D01*
X013387Y044271D02*
Y044387D01*
X018947Y040333D02*
X019255Y040026D01*
X018945Y040333D02*
X018947D01*
X017180Y045682D02*
X017214Y045715D01*
X018390Y042207D02*
X018408Y042224D01*
X018132Y042338D02*
X018160Y042310D01*
Y041343D02*
Y042310D01*
X017457Y041821D02*
Y043202D01*
X047383Y039326D02*
X048157D01*
X026391Y039838D02*
X028790D01*
X026258Y039971D02*
X026391Y039838D01*
X047142Y037867D02*
X048742Y039467D01*
X053123Y034715D02*
X057120Y030718D01*
X058660Y027298D02*
Y028948D01*
X058310Y026948D02*
X058660Y027298D01*
X058485Y027653D02*
Y028888D01*
X057829Y026997D02*
X058485Y027653D01*
X058328Y027792D02*
Y028823D01*
X057974Y027438D02*
X058328Y027792D01*
X060402Y026047D02*
Y029679D01*
X060410Y029687D01*
Y034466D01*
X059087Y035789D02*
X060410Y034466D01*
X060238Y026511D02*
Y029738D01*
X060253Y029752D01*
Y034401D01*
X057640Y037013D02*
X060253Y034401D01*
X059661Y029383D02*
X060095Y029818D01*
Y034336D01*
X056314Y038117D02*
X060095Y034336D01*
X059596Y029541D02*
X059938Y029883D01*
Y034271D01*
X057500Y036708D02*
X059938Y034271D01*
X057711Y026607D02*
X059867D01*
X057750Y025898D02*
X060252D01*
X059034Y029541D02*
X059596D01*
X057760Y029848D02*
Y030088D01*
Y029848D02*
X058660Y028948D01*
X057470Y026848D02*
X057711Y026607D01*
X057470Y026848D02*
Y027568D01*
X057700Y027798D01*
X057930D01*
X058170Y028038D01*
Y028748D01*
X057283Y025735D02*
Y028035D01*
X056218Y028342D02*
X057126Y027435D01*
Y025319D02*
Y027435D01*
X058120Y026311D02*
X060037D01*
X060252Y025898D02*
X060402Y026047D01*
X060037Y026311D02*
X060238Y026511D01*
X053540Y036708D02*
X057500D01*
X057438Y025007D02*
X061050D01*
X061540Y025498D01*
X053200Y032118D02*
X057283Y028035D01*
X053160Y031928D02*
X055933Y029155D01*
X053203Y032338D02*
X057364Y028177D01*
X057827D01*
X017840Y032381D02*
Y037118D01*
X015267Y029808D02*
X017840Y032381D01*
X058702Y029383D02*
X059661D01*
X058147Y029937D02*
X058702Y029383D01*
X052973Y034400D02*
X058485Y028888D01*
X053186Y033966D02*
X058328Y028823D01*
X052833Y034086D02*
X058170Y028748D01*
X057570Y025448D02*
X058990D01*
X057283Y025735D02*
X057570Y025448D01*
X057126Y025319D02*
X057438Y025007D01*
X056830Y027268D02*
X056850Y027288D01*
X058990Y025448D02*
X059160Y025618D01*
X052281Y031768D02*
X055706Y028342D01*
X039810Y031768D02*
X052281D01*
X055697Y024837D02*
Y028129D01*
X055706Y028342D02*
X056218D01*
X055933Y028731D02*
Y029155D01*
X042290Y031928D02*
X053160D01*
X047438Y032118D02*
X053200D01*
X049811Y032338D02*
X053203D01*
X055820Y028618D02*
X055933Y028731D01*
X041410Y032808D02*
X042290Y031928D01*
X039330Y032248D02*
X039810Y031768D01*
X039330Y032248D02*
Y032808D01*
X046942Y032614D02*
X047438Y032118D01*
X049809Y032340D02*
X049811Y032338D01*
X052905Y034243D02*
X053183Y033966D01*
X049467Y038117D02*
X056314D01*
X059087Y035789D02*
Y040317D01*
X057640Y037013D02*
Y038944D01*
X057117Y039467D02*
X057640Y038944D01*
X053183Y033966D02*
X053186D01*
X051128Y035628D02*
X053187Y037687D01*
X045060Y035628D02*
X051128D01*
X058050Y023948D02*
X059095Y022903D01*
X057640Y023948D02*
X058050D01*
X048742Y039467D02*
X057117D01*
X042960Y035628D02*
X045060D01*
X024465Y040333D02*
X024480Y040318D01*
X019217Y024235D02*
Y037005D01*
X026258Y039971D02*
Y040133D01*
X025600Y040178D02*
Y040338D01*
X025990Y039808D02*
Y040178D01*
X027656Y041712D02*
X028790Y040578D01*
Y039838D02*
Y040578D01*
X046871Y039838D02*
X046871Y039838D01*
X047383Y039326D01*
X037612Y042650D02*
Y043646D01*
X036987Y042025D02*
X037612Y042650D01*
X036790Y042025D02*
X036987D01*
X037280Y043978D02*
X037612Y043646D01*
X037280Y043978D02*
Y046535D01*
X036790Y047025D02*
X037280Y046535D01*
X033838Y041983D02*
Y050371D01*
X033568Y050641D02*
X033838Y050371D01*
X029305Y050641D02*
X033568D01*
X028936Y051010D02*
X029305Y050641D01*
X028936Y051010D02*
Y052494D01*
X029290Y051156D02*
X029389Y051058D01*
X012790Y029808D02*
X015267D01*
X017882Y042627D02*
X017892Y042638D01*
X057829Y026997D02*
X057829D01*
X057880Y027438D02*
X057974D01*
X026447Y035711D02*
Y035737D01*
X017949Y042978D02*
X017950D01*
X017737Y042627D02*
X017882D01*
X042570Y053458D02*
Y053576D01*
X018790Y023808D02*
X019217Y024235D01*
X025857Y042221D02*
X025905D01*
X042570Y053576D02*
X042600D01*
X017056Y046432D02*
Y047111D01*
X025857Y042221D02*
X025905D01*
X042570Y053576D02*
X042600D01*
X030207Y053410D02*
X030571Y053775D01*
X041041Y053516D02*
X041101Y053576D01*
X056130Y024002D02*
Y025188D01*
X058415Y024224D02*
X059489Y023149D01*
X057336Y024224D02*
X058415D01*
X057280Y024168D02*
X057336Y024224D01*
X046650Y041878D02*
Y049918D01*
X043110Y053458D02*
X046650Y049918D01*
X043090Y053458D02*
X043110D01*
X046950Y042188D02*
Y050138D01*
X046170Y050918D02*
X046950Y050138D01*
X046170Y050918D02*
Y052488D01*
X046670Y050868D02*
Y052488D01*
X047700Y042178D02*
Y050388D01*
X047170Y050918D02*
X047700Y050388D01*
X047170Y050918D02*
Y052658D01*
X047660Y050958D02*
Y052658D01*
X047985Y041804D02*
Y042402D01*
X040097Y052843D02*
Y053458D01*
X038145Y050891D02*
X040097Y052843D01*
X047985Y041804D02*
X048000Y041788D01*
X042600Y053458D02*
X046240Y049818D01*
Y042048D02*
Y049818D01*
X047910Y039680D02*
Y039738D01*
X035500Y042476D02*
X035501Y042475D01*
X035860Y041850D02*
X035964Y041747D01*
X041101Y053507D02*
Y053576D01*
X034231Y042633D02*
Y050349D01*
X030570Y053184D02*
X031101Y053716D01*
X025886Y042677D02*
Y051590D01*
X025235Y042190D02*
Y052023D01*
X025886Y051590D02*
X026820Y052525D01*
X025235Y052023D02*
X025796Y052584D01*
X013660Y045448D02*
X013670Y045438D01*
X026584Y040153D02*
X027401Y040969D01*
X027391Y045933D02*
X027910Y046452D01*
X031604Y053717D02*
Y053754D01*
X030600Y053717D02*
Y053745D01*
X030571Y053775D02*
X030600Y053745D01*
X027910Y046452D02*
X030038D01*
X026300Y052527D02*
Y053294D01*
X025886Y042677D02*
X025904Y042658D01*
Y042269D02*
Y042658D01*
X025858Y042174D02*
X025905Y042221D01*
X025796Y052584D02*
Y052918D01*
X025857Y042221D02*
X025904Y042269D01*
X026820Y052525D02*
Y053027D01*
X051368Y046444D02*
X051860Y045952D01*
X042548Y046444D02*
X043040Y045952D01*
X017943Y046444D02*
X021237D01*
X017214Y045715D02*
X017943Y046444D01*
X021237D02*
X021721Y045960D01*
X030038Y046452D02*
X030540Y045950D01*
X012540Y018358D02*
X012806Y018092D01*
X040902Y037536D02*
X041244Y037878D01*
X035284Y040113D02*
X035491D01*
X037866Y042488D01*
X038220Y047628D02*
X038830Y047018D01*
Y043028D02*
Y047018D01*
X036113Y050891D02*
X038145D01*
X034231Y050349D02*
X034625Y050743D01*
X025990Y039808D02*
X027361Y038437D01*
X042317Y038148D02*
X045950D01*
X052218Y031608D02*
X055697Y028129D01*
X028558Y033627D02*
X030173D01*
X030836Y032965D01*
Y031964D02*
Y032965D01*
Y031964D02*
X031191Y031608D01*
X052218D01*
X034835Y038740D02*
X046269D01*
X034532Y038437D02*
X034835Y038740D01*
X046269D02*
X047142Y037867D01*
X040135Y035593D02*
Y037123D01*
X040450Y035463D02*
Y037253D01*
X040293Y035528D02*
Y037188D01*
X040130Y034873D02*
X040760Y034243D01*
X040130Y034873D02*
Y035588D01*
X040135Y035593D01*
X040288Y035523D02*
X040293Y035528D01*
X040288Y034938D02*
Y035523D01*
Y034938D02*
X040825Y034400D01*
X040445Y035003D02*
X040890Y034558D01*
X040445Y035003D02*
Y035458D01*
X040450Y035463D01*
X040603Y035068D02*
Y035392D01*
Y035068D02*
X040956Y034715D01*
X040603Y035392D02*
X040610Y035400D01*
X046942Y032614D02*
Y032938D01*
X040956Y034715D02*
X053123D01*
X040890Y034558D02*
X053039D01*
X040825Y034400D02*
X052973D01*
X040760Y034243D02*
X052905D01*
X045952Y033928D02*
X046942Y032938D01*
X017180Y044290D02*
Y045682D01*
Y044290D02*
X018808Y042662D01*
X019255Y040026D02*
X023876D01*
X024183Y040333D01*
X024465D01*
X019320Y040183D02*
X023811D01*
X019385Y040341D02*
X023746D01*
X017457Y041821D02*
X018945Y040333D01*
X018160Y041343D02*
X019320Y040183D01*
X018390Y041335D02*
Y042207D01*
X017892Y042638D02*
X018222D01*
X018408Y042452D01*
Y042224D02*
Y042452D01*
X018808Y041140D02*
Y042662D01*
X019450Y040498D02*
X023680D01*
X018390Y041335D02*
X019385Y040341D01*
X018808Y041140D02*
X019450Y040498D01*
X036160Y039611D02*
X037017D01*
X035934Y039838D02*
X036160Y039611D01*
X037017D02*
X037243Y039838D01*
X046871D01*
X016662Y045438D02*
Y045812D01*
X016920Y046069D01*
X017156D01*
X017784Y046698D01*
Y048154D01*
X020538Y050908D01*
X022177D01*
X025580Y042889D02*
X025609Y042859D01*
X025580Y042889D02*
Y051806D01*
X026300Y052527D01*
X027656Y041712D02*
Y043162D01*
X027391Y043427D02*
X027656Y043162D01*
X027391Y043427D02*
Y045933D01*
X027233Y043273D02*
Y051121D01*
Y043273D02*
X027401Y043105D01*
Y040969D02*
Y043105D01*
X027076Y042347D02*
X027095Y042328D01*
X027050Y043141D02*
Y051278D01*
Y043141D02*
X027076Y043115D01*
Y042347D02*
Y043115D01*
X031267Y052818D02*
X032164Y053716D01*
X028936Y052494D02*
X029260Y052818D01*
X031267D01*
X027233Y051121D02*
X029109Y052997D01*
X030847D01*
X031604Y053754D01*
X035220Y043128D02*
Y049538D01*
X035068Y042426D02*
Y042976D01*
X035220Y043128D01*
X047981Y042406D02*
X047985Y042402D01*
X047981Y042406D02*
Y050637D01*
X047660Y050958D02*
X047981Y050637D01*
X048257Y042202D02*
X048260Y042198D01*
X048170Y050958D02*
Y052628D01*
Y050958D02*
X048257Y050871D01*
Y042202D02*
Y050871D01*
X048493Y052461D02*
X048690Y052658D01*
X026456Y042260D02*
X026485Y042289D01*
Y051363D01*
X028820Y053698D01*
X047312Y041886D02*
X047380Y041818D01*
X047312Y041886D02*
Y050226D01*
X046670Y050868D02*
X047312Y050226D01*
X048493Y042446D02*
Y052461D01*
X048887Y040055D02*
Y042348D01*
X048157Y039326D02*
X048887Y040055D01*
X048711Y042525D02*
X048887Y042348D01*
X047910Y039738D02*
X048651Y040478D01*
Y042288D01*
X048493Y042446D02*
X048651Y042288D01*
X035215Y051265D02*
X035444Y051036D01*
X029389Y051058D02*
X034271D01*
X034477Y051265D01*
X035215D01*
X035500Y042476D02*
Y049348D01*
X035860Y041850D02*
Y049188D01*
X034910Y043428D02*
X034930Y043408D01*
X034910Y043428D02*
Y049688D01*
X036113Y050891D01*
X034517Y042347D02*
X034595Y042426D01*
Y050035D01*
X034813Y050253D01*
X041640Y053339D02*
Y053458D01*
X041101Y053174D02*
Y053458D01*
X040580Y052998D02*
Y053458D01*
X035220Y049538D02*
X036327Y050645D01*
X038227D01*
X040580Y052998D01*
X035500Y049348D02*
X036511Y050359D01*
X038286D01*
X041101Y053174D01*
X035860Y049188D02*
X036707Y050034D01*
X038336D01*
X041640Y053339D01*
X037866Y042488D02*
Y049142D01*
X042103Y053379D01*
Y053458D01*
X045950Y038148D02*
X046525Y037574D01*
X048924D01*
X049467Y038117D01*
X013500Y030677D02*
Y035111D01*
X017940Y039551D01*
X025073D01*
X013133Y030310D02*
X013500Y030677D01*
X012292Y030074D02*
X012529Y030310D01*
X013133D01*
X012487Y024808D02*
X012790D01*
X012292Y025002D02*
Y030074D01*
Y025002D02*
X012487Y024808D01*
X036630Y040168D02*
Y040678D01*
X036870Y040918D01*
X035836Y032505D02*
X036091Y032249D01*
X037771D01*
X038330Y032808D01*
X035836Y032505D02*
Y033125D01*
X036796Y034086D01*
X052833D01*
X111780Y022190D02*
X112381Y022790D01*
X110443Y022190D02*
X111780D01*
X109783Y022849D02*
X110443Y022190D01*
X108630Y024002D02*
X109783Y022849D01*
X110065Y022958D02*
X110806D01*
X109020Y024002D02*
X110065Y022958D01*
X110038Y023420D02*
X110412D01*
X109330Y024128D02*
X110038Y023420D01*
X109020Y024002D02*
Y027048D01*
X109330Y024128D02*
Y027268D01*
X086370Y034678D02*
X091580D01*
X086080Y034968D02*
X086370Y034678D01*
X086070Y034968D02*
X086080D01*
X091580Y034678D02*
X091940Y035038D01*
X079600Y037807D02*
X086604D01*
X079665Y037965D02*
X086670D01*
X079730Y038122D02*
X086735D01*
X079796Y038280D02*
X086800D01*
X079861Y038437D02*
X087032D01*
X086604Y037807D02*
X086723Y037689D01*
X086670Y037965D02*
X086788Y037847D01*
X086735Y038122D02*
X086853Y038004D01*
X086800Y038280D02*
X086918Y038162D01*
X081290Y039838D02*
X088434D01*
X087821Y037946D02*
X091813D01*
X087533Y038103D02*
X091878D01*
X087468Y038261D02*
X091943D01*
X087403Y038418D02*
X094547D01*
X087814Y037938D02*
X087821Y037946D01*
X091813D02*
X092635Y037123D01*
X087277Y037847D02*
X087533Y038103D01*
X091878D02*
X092793Y037188D01*
X087212Y038004D02*
X087468Y038261D01*
X091943D02*
X092950Y037253D01*
X087147Y038162D02*
X087403Y038418D01*
X094547D02*
X094817Y038148D01*
X078920Y038708D02*
X079218Y038410D01*
X079665D01*
X078611Y037945D02*
X078970D01*
X079055Y038253D02*
X079600D01*
X078676Y038102D02*
X078904D01*
X087591Y037938D02*
X087814D01*
X087342Y037689D02*
X087591Y037938D01*
X086723Y037689D02*
X087342D01*
X086788Y037847D02*
X087277D01*
X086853Y038004D02*
X087212D01*
X086918Y038162D02*
X087147D01*
X079469Y037938D02*
X079600Y037807D01*
X079185Y037938D02*
X079469D01*
X079535Y038096D02*
X079665Y037965D01*
X079120Y038096D02*
X079535D01*
X079600Y038253D02*
X079730Y038122D01*
X079665Y038410D02*
X079796Y038280D01*
X079035Y037787D02*
X079185Y037938D01*
X078546Y037787D02*
X079035D01*
X078970Y037945D02*
X079120Y038096D01*
X078904Y038102D02*
X079055Y038253D01*
X089950Y033928D02*
X098452D01*
X088830Y032808D02*
X089950Y033928D01*
X076705Y041023D02*
X077868D01*
X076180Y040498D02*
X076705Y041023D01*
X077868D02*
X078758Y040133D01*
X076246Y040341D02*
X076771Y040866D01*
X077803D01*
X078490Y040178D01*
X076311Y040183D02*
X076836Y040708D01*
X077730D01*
X078100Y040338D01*
X112070Y029758D02*
X112280Y029968D01*
X111750Y029758D02*
X112070D01*
X111511Y029997D02*
X111750Y029758D01*
X111467Y029997D02*
X111511D01*
X112280Y029968D02*
Y030238D01*
X111800Y030718D02*
X112280Y030238D01*
X109620Y030718D02*
X111800D01*
X111891Y030147D02*
X111907D01*
X111530Y030508D02*
X111891Y030147D01*
X109588Y030508D02*
X111530D01*
X105539Y034558D02*
X109588Y030508D01*
X110777Y030298D02*
X111534Y029541D01*
X110470Y030298D02*
X110777D01*
X110260Y030088D02*
X110470Y030298D01*
X092366Y046444D02*
X095048D01*
X091960Y046038D02*
X092366Y046444D01*
X091960Y039838D02*
Y046038D01*
Y039838D02*
X099371D01*
X093398Y037536D02*
X093402D01*
X093110Y037248D02*
X093398Y037536D01*
X093110Y035400D02*
Y037248D01*
X078650Y038708D02*
X078920D01*
X077650Y039708D02*
X078650Y038708D01*
X070450Y039708D02*
X077650D01*
X077573Y039551D02*
X078515Y038609D01*
X078357Y038199D02*
Y038544D01*
X077508Y039393D02*
X078357Y038544D01*
X072615Y039393D02*
X077508D01*
X078200Y038133D02*
Y038479D01*
X077443Y039236D02*
X078200Y038479D01*
X073948Y039236D02*
X077443D01*
X071717Y037005D02*
X073948Y039236D01*
X070340Y037118D02*
X072615Y039393D01*
X065887Y044271D02*
X070450Y039708D01*
X101576Y046444D02*
X103868D01*
X101211Y046078D02*
X101576Y046444D01*
X101211Y042525D02*
Y046078D01*
X082579Y053698D02*
X082598Y053717D01*
X081320Y053698D02*
X082579D01*
X081343Y053410D02*
X082707D01*
X079300Y051368D02*
X081343Y053410D01*
X079300Y042918D02*
Y051368D01*
X081456Y053184D02*
X083070D01*
X079550Y051278D02*
X081456Y053184D01*
X079800Y052568D02*
Y053379D01*
X078661Y051429D02*
X079800Y052568D01*
X078661Y042791D02*
Y051429D01*
X100910Y032758D02*
X101328Y032340D01*
X100910Y032758D02*
Y032808D01*
X101328Y032340D02*
X102309D01*
X078947Y035737D02*
X081058Y033627D01*
X078515Y038264D02*
Y038609D01*
X069375Y018033D02*
X070107D01*
X068765Y018644D02*
X069375Y018033D01*
X067636Y018644D02*
X068765D01*
X067631Y018638D02*
X067636Y018644D01*
X065745Y018638D02*
X067631D01*
X065040Y019342D02*
X065745Y018638D01*
X065306Y018092D02*
X068820D01*
X074890Y051358D02*
X076716Y053184D01*
X072780Y051358D02*
X074890D01*
X069556Y048134D02*
X072780Y051358D01*
X069556Y046532D02*
Y048134D01*
X076716Y053184D02*
X077775D01*
X074677Y050908D02*
X075452Y050133D01*
X078200Y038133D02*
X078546Y037787D01*
X078357Y038199D02*
X078611Y037945D01*
X078515Y038264D02*
X078676Y038102D01*
X065887Y044271D02*
Y044387D01*
X071447Y040333D02*
X071755Y040026D01*
X071445Y040333D02*
X071447D01*
X069680Y045682D02*
X069714Y045715D01*
X070890Y042207D02*
X070908Y042224D01*
X070632Y042338D02*
X070660Y042310D01*
Y041343D02*
Y042310D01*
X069957Y041821D02*
Y043202D01*
X099883Y039326D02*
X100657D01*
X078891Y039838D02*
X081290D01*
X078758Y039971D02*
X078891Y039838D01*
X099642Y037867D02*
X101242Y039467D01*
X105623Y034715D02*
X109620Y030718D01*
X111160Y027298D02*
Y028948D01*
X110810Y026948D02*
X111160Y027298D01*
X110985Y027653D02*
Y028888D01*
X110329Y026997D02*
X110985Y027653D01*
X110828Y027792D02*
Y028823D01*
X110474Y027438D02*
X110828Y027792D01*
X112902Y026047D02*
Y029679D01*
X112910Y029687D01*
Y034466D01*
X111587Y035789D02*
X112910Y034466D01*
X112738Y026511D02*
Y029738D01*
X112753Y029752D01*
Y034401D01*
X110140Y037013D02*
X112753Y034401D01*
X112161Y029383D02*
X112595Y029818D01*
Y034336D01*
X108814Y038117D02*
X112595Y034336D01*
X112096Y029541D02*
X112438Y029883D01*
Y034271D01*
X110000Y036708D02*
X112438Y034271D01*
X110211Y026607D02*
X112367D01*
X110250Y025898D02*
X112752D01*
X111534Y029541D02*
X112096D01*
X110260Y029848D02*
Y030088D01*
Y029848D02*
X111160Y028948D01*
X109970Y026848D02*
X110211Y026607D01*
X109970Y026848D02*
Y027568D01*
X110200Y027798D01*
X110430D01*
X110670Y028038D01*
Y028748D01*
X109783Y025735D02*
Y028035D01*
X108718Y028342D02*
X109626Y027435D01*
Y025319D02*
Y027435D01*
X110620Y026311D02*
X112537D01*
X112752Y025898D02*
X112902Y026047D01*
X112537Y026311D02*
X112738Y026511D01*
X106040Y036708D02*
X110000D01*
X109938Y025007D02*
X113550D01*
X114040Y025498D01*
X105700Y032118D02*
X109783Y028035D01*
X105660Y031928D02*
X108433Y029155D01*
X105703Y032338D02*
X109864Y028177D01*
X110327D01*
X070340Y032381D02*
Y037118D01*
X067767Y029808D02*
X070340Y032381D01*
X111202Y029383D02*
X112161D01*
X110647Y029937D02*
X111202Y029383D01*
X105473Y034400D02*
X110985Y028888D01*
X105686Y033966D02*
X110828Y028823D01*
X105333Y034086D02*
X110670Y028748D01*
X110070Y025448D02*
X111490D01*
X109783Y025735D02*
X110070Y025448D01*
X109626Y025319D02*
X109938Y025007D01*
X109330Y027268D02*
X109350Y027288D01*
X111490Y025448D02*
X111660Y025618D01*
X104781Y031768D02*
X108206Y028342D01*
X092310Y031768D02*
X104781D01*
X108197Y024837D02*
Y028129D01*
X108206Y028342D02*
X108718D01*
X108433Y028731D02*
Y029155D01*
X094790Y031928D02*
X105660D01*
X099938Y032118D02*
X105700D01*
X102311Y032338D02*
X105703D01*
X108320Y028618D02*
X108433Y028731D01*
X093910Y032808D02*
X094790Y031928D01*
X091830Y032248D02*
X092310Y031768D01*
X091830Y032248D02*
Y032808D01*
X099442Y032614D02*
X099938Y032118D01*
X102309Y032340D02*
X102311Y032338D01*
X105405Y034243D02*
X105683Y033966D01*
X101967Y038117D02*
X108814D01*
X111587Y035789D02*
Y040317D01*
X110140Y037013D02*
Y038944D01*
X109617Y039467D02*
X110140Y038944D01*
X105683Y033966D02*
X105686D01*
X103628Y035628D02*
X105687Y037687D01*
X097560Y035628D02*
X103628D01*
X110550Y023948D02*
X111595Y022903D01*
X110140Y023948D02*
X110550D01*
X101242Y039467D02*
X109617D01*
X095460Y035628D02*
X097560D01*
X076965Y040333D02*
X076980Y040318D01*
X071717Y024235D02*
Y037005D01*
X078758Y039971D02*
Y040133D01*
X078100Y040178D02*
Y040338D01*
X078490Y039808D02*
Y040178D01*
X080156Y041712D02*
X081290Y040578D01*
Y039838D02*
Y040578D01*
X099371Y039838D02*
X099371Y039838D01*
X099883Y039326D01*
X090112Y042650D02*
Y043646D01*
X089487Y042025D02*
X090112Y042650D01*
X089290Y042025D02*
X089487D01*
X089780Y043978D02*
X090112Y043646D01*
X089780Y043978D02*
Y046535D01*
X089290Y047025D02*
X089780Y046535D01*
X086338Y041983D02*
Y050371D01*
X086068Y050641D02*
X086338Y050371D01*
X081805Y050641D02*
X086068D01*
X081436Y051010D02*
X081805Y050641D01*
X081436Y051010D02*
Y052494D01*
X081790Y051156D02*
X081889Y051058D01*
X065290Y029808D02*
X067767D01*
X070382Y042627D02*
X070392Y042638D01*
X110329Y026997D02*
X110329D01*
X110380Y027438D02*
X110474D01*
X078947Y035711D02*
Y035737D01*
X070449Y042978D02*
X070450D01*
X070237Y042627D02*
X070382D01*
X095070Y053458D02*
Y053576D01*
X071290Y023808D02*
X071717Y024235D01*
X078357Y042221D02*
X078405D01*
X095070Y053576D02*
X095100D01*
X069556Y046432D02*
Y047111D01*
X078357Y042221D02*
X078405D01*
X095070Y053576D02*
X095100D01*
X082707Y053410D02*
X083071Y053775D01*
X093541Y053516D02*
X093601Y053576D01*
X108630Y024002D02*
Y025188D01*
X110915Y024224D02*
X111989Y023149D01*
X109836Y024224D02*
X110915D01*
X109780Y024168D02*
X109836Y024224D01*
X099150Y041878D02*
Y049918D01*
X095610Y053458D02*
X099150Y049918D01*
X095590Y053458D02*
X095610D01*
X099450Y042188D02*
Y050138D01*
X098670Y050918D02*
X099450Y050138D01*
X098670Y050918D02*
Y052488D01*
X099170Y050868D02*
Y052488D01*
X100200Y042178D02*
Y050388D01*
X099670Y050918D02*
X100200Y050388D01*
X099670Y050918D02*
Y052658D01*
X100160Y050958D02*
Y052658D01*
X100485Y041804D02*
Y042402D01*
X092597Y052843D02*
Y053458D01*
X090645Y050891D02*
X092597Y052843D01*
X100485Y041804D02*
X100500Y041788D01*
X095100Y053458D02*
X098740Y049818D01*
Y042048D02*
Y049818D01*
X100410Y039680D02*
Y039738D01*
X088000Y042476D02*
X088001Y042475D01*
X088360Y041850D02*
X088464Y041747D01*
X093601Y053507D02*
Y053576D01*
X086731Y042633D02*
Y050349D01*
X083070Y053184D02*
X083601Y053716D01*
X078386Y042677D02*
Y051590D01*
X077735Y042190D02*
Y052023D01*
X078386Y051590D02*
X079320Y052525D01*
X077735Y052023D02*
X078296Y052584D01*
X066160Y045448D02*
X066170Y045438D01*
X079084Y040153D02*
X079901Y040969D01*
X079891Y045933D02*
X080410Y046452D01*
X084104Y053717D02*
Y053754D01*
X083100Y053717D02*
Y053745D01*
X083071Y053775D02*
X083100Y053745D01*
X080410Y046452D02*
X082538D01*
X078800Y052527D02*
Y053294D01*
X078386Y042677D02*
X078404Y042658D01*
Y042269D02*
Y042658D01*
X078358Y042174D02*
X078405Y042221D01*
X078296Y052584D02*
Y052918D01*
X078357Y042221D02*
X078404Y042269D01*
X079320Y052525D02*
Y053027D01*
X103868Y046444D02*
X104360Y045952D01*
X095048Y046444D02*
X095540Y045952D01*
X070443Y046444D02*
X073737D01*
X069714Y045715D02*
X070443Y046444D01*
X073737D02*
X074221Y045960D01*
X082538Y046452D02*
X083040Y045950D01*
X065040Y018358D02*
X065306Y018092D01*
X093402Y037536D02*
X093744Y037878D01*
X087784Y040113D02*
X087991D01*
X090366Y042488D01*
X090720Y047628D02*
X091330Y047018D01*
Y043028D02*
Y047018D01*
X088613Y050891D02*
X090645D01*
X086731Y050349D02*
X087125Y050743D01*
X078490Y039808D02*
X079861Y038437D01*
X094817Y038148D02*
X098450D01*
X104718Y031608D02*
X108197Y028129D01*
X081058Y033627D02*
X082673D01*
X083336Y032965D01*
Y031964D02*
Y032965D01*
Y031964D02*
X083691Y031608D01*
X104718D01*
X087335Y038740D02*
X098769D01*
X087032Y038437D02*
X087335Y038740D01*
X098769D02*
X099642Y037867D01*
X092635Y035593D02*
Y037123D01*
X092950Y035463D02*
Y037253D01*
X092793Y035528D02*
Y037188D01*
X092630Y034873D02*
X093260Y034243D01*
X092630Y034873D02*
Y035588D01*
X092635Y035593D01*
X092788Y035523D02*
X092793Y035528D01*
X092788Y034938D02*
Y035523D01*
Y034938D02*
X093325Y034400D01*
X092945Y035003D02*
X093390Y034558D01*
X092945Y035003D02*
Y035458D01*
X092950Y035463D01*
X093103Y035068D02*
Y035392D01*
Y035068D02*
X093456Y034715D01*
X093103Y035392D02*
X093110Y035400D01*
X099442Y032614D02*
Y032938D01*
X093456Y034715D02*
X105623D01*
X093390Y034558D02*
X105539D01*
X093325Y034400D02*
X105473D01*
X093260Y034243D02*
X105405D01*
X098452Y033928D02*
X099442Y032938D01*
X069680Y044290D02*
Y045682D01*
Y044290D02*
X071308Y042662D01*
X071755Y040026D02*
X076376D01*
X076683Y040333D01*
X076965D01*
X071820Y040183D02*
X076311D01*
X071885Y040341D02*
X076246D01*
X069957Y041821D02*
X071445Y040333D01*
X070660Y041343D02*
X071820Y040183D01*
X070890Y041335D02*
Y042207D01*
X070392Y042638D02*
X070722D01*
X070908Y042452D01*
Y042224D02*
Y042452D01*
X071308Y041140D02*
Y042662D01*
X071950Y040498D02*
X076180D01*
X070890Y041335D02*
X071885Y040341D01*
X071308Y041140D02*
X071950Y040498D01*
X088660Y039611D02*
X089517D01*
X088434Y039838D02*
X088660Y039611D01*
X089517D02*
X089743Y039838D01*
X099371D01*
X069162Y045438D02*
Y045812D01*
X069420Y046069D01*
X069656D01*
X070284Y046698D01*
Y048154D01*
X073038Y050908D01*
X074677D01*
X078080Y042889D02*
X078109Y042859D01*
X078080Y042889D02*
Y051806D01*
X078800Y052527D01*
X080156Y041712D02*
Y043162D01*
X079891Y043427D02*
X080156Y043162D01*
X079891Y043427D02*
Y045933D01*
X079733Y043273D02*
Y051121D01*
Y043273D02*
X079901Y043105D01*
Y040969D02*
Y043105D01*
X079576Y042347D02*
X079595Y042328D01*
X079550Y043141D02*
Y051278D01*
Y043141D02*
X079576Y043115D01*
Y042347D02*
Y043115D01*
X083767Y052818D02*
X084664Y053716D01*
X081436Y052494D02*
X081760Y052818D01*
X083767D01*
X079733Y051121D02*
X081609Y052997D01*
X083347D01*
X084104Y053754D01*
X087720Y043128D02*
Y049538D01*
X087568Y042426D02*
Y042976D01*
X087720Y043128D01*
X100481Y042406D02*
X100485Y042402D01*
X100481Y042406D02*
Y050637D01*
X100160Y050958D02*
X100481Y050637D01*
X100757Y042202D02*
X100760Y042198D01*
X100670Y050958D02*
Y052628D01*
Y050958D02*
X100757Y050871D01*
Y042202D02*
Y050871D01*
X100993Y052461D02*
X101190Y052658D01*
X078956Y042260D02*
X078985Y042289D01*
Y051363D01*
X081320Y053698D01*
X099812Y041886D02*
X099880Y041818D01*
X099812Y041886D02*
Y050226D01*
X099170Y050868D02*
X099812Y050226D01*
X100993Y042446D02*
Y052461D01*
X101387Y040055D02*
Y042348D01*
X100657Y039326D02*
X101387Y040055D01*
X101211Y042525D02*
X101387Y042348D01*
X100410Y039738D02*
X101151Y040478D01*
Y042288D01*
X100993Y042446D02*
X101151Y042288D01*
X087716Y051265D02*
X087944Y051036D01*
X081889Y051058D02*
X086771D01*
X086977Y051265D01*
X087716D01*
X088000Y042476D02*
Y049348D01*
X088360Y041850D02*
Y049188D01*
X087410Y043428D02*
X087430Y043408D01*
X087410Y043428D02*
Y049688D01*
X088613Y050891D01*
X087017Y042347D02*
X087095Y042426D01*
Y050035D01*
X087313Y050253D01*
X094140Y053339D02*
Y053458D01*
X093601Y053174D02*
Y053458D01*
X093080Y052998D02*
Y053458D01*
X087720Y049538D02*
X088827Y050645D01*
X090727D01*
X093080Y052998D01*
X088000Y049348D02*
X089011Y050359D01*
X090786D01*
X093601Y053174D01*
X088360Y049188D02*
X089207Y050034D01*
X090836D01*
X094140Y053339D01*
X090366Y042488D02*
Y049142D01*
X094603Y053379D01*
Y053458D01*
X098450Y038148D02*
X099025Y037574D01*
X101424D01*
X101967Y038117D01*
X066000Y030677D02*
Y035111D01*
X070440Y039551D01*
X077573D01*
X065633Y030310D02*
X066000Y030677D01*
X064792Y030074D02*
X065029Y030310D01*
X065633D01*
X064987Y024808D02*
X065290D01*
X064792Y025002D02*
Y030074D01*
Y025002D02*
X064987Y024808D01*
X089130Y040168D02*
Y040678D01*
X089370Y040918D01*
X088336Y032505D02*
X088591Y032249D01*
X090271D01*
X090830Y032808D01*
X088336Y032505D02*
Y033125D01*
X089296Y034086D01*
X105333D01*
X164280Y022190D02*
X164881Y022790D01*
X162943Y022190D02*
X164280D01*
X162283Y022849D02*
X162943Y022190D01*
X161130Y024002D02*
X162283Y022849D01*
X162565Y022958D02*
X163306D01*
X161520Y024002D02*
X162565Y022958D01*
X162538Y023420D02*
X162912D01*
X161830Y024128D02*
X162538Y023420D01*
X161520Y024002D02*
Y027048D01*
X161830Y024128D02*
Y027268D01*
X138870Y034678D02*
X144080D01*
X138580Y034968D02*
X138870Y034678D01*
X138570Y034968D02*
X138580D01*
X144080Y034678D02*
X144440Y035038D01*
X132100Y037807D02*
X139104D01*
X132165Y037965D02*
X139170D01*
X132230Y038122D02*
X139235D01*
X132296Y038280D02*
X139300D01*
X132361Y038437D02*
X139532D01*
X139104Y037807D02*
X139223Y037689D01*
X139170Y037965D02*
X139288Y037847D01*
X139235Y038122D02*
X139353Y038004D01*
X139300Y038280D02*
X139418Y038162D01*
X133790Y039838D02*
X140934D01*
X140321Y037946D02*
X144313D01*
X140033Y038103D02*
X144378D01*
X139968Y038261D02*
X144443D01*
X139903Y038418D02*
X147047D01*
X140314Y037938D02*
X140321Y037946D01*
X144313D02*
X145135Y037123D01*
X139777Y037847D02*
X140033Y038103D01*
X144378D02*
X145293Y037188D01*
X139712Y038004D02*
X139968Y038261D01*
X144443D02*
X145450Y037253D01*
X139647Y038162D02*
X139903Y038418D01*
X147047D02*
X147317Y038148D01*
X131420Y038708D02*
X131718Y038410D01*
X132165D01*
X131111Y037945D02*
X131470D01*
X131555Y038253D02*
X132100D01*
X131176Y038102D02*
X131404D01*
X140091Y037938D02*
X140314D01*
X139842Y037689D02*
X140091Y037938D01*
X139223Y037689D02*
X139842D01*
X139288Y037847D02*
X139777D01*
X139353Y038004D02*
X139712D01*
X139418Y038162D02*
X139647D01*
X131969Y037938D02*
X132100Y037807D01*
X131685Y037938D02*
X131969D01*
X132035Y038096D02*
X132165Y037965D01*
X131620Y038096D02*
X132035D01*
X132100Y038253D02*
X132230Y038122D01*
X132165Y038410D02*
X132296Y038280D01*
X131535Y037787D02*
X131685Y037938D01*
X131046Y037787D02*
X131535D01*
X131470Y037945D02*
X131620Y038096D01*
X131404Y038102D02*
X131555Y038253D01*
X142450Y033928D02*
X150952D01*
X141330Y032808D02*
X142450Y033928D01*
X129205Y041023D02*
X130368D01*
X128680Y040498D02*
X129205Y041023D01*
X130368D02*
X131258Y040133D01*
X128746Y040341D02*
X129270Y040866D01*
X130303D01*
X130990Y040178D01*
X128811Y040183D02*
X129336Y040708D01*
X130230D01*
X130600Y040338D01*
X164570Y029758D02*
X164780Y029968D01*
X164250Y029758D02*
X164570D01*
X164011Y029997D02*
X164250Y029758D01*
X163967Y029997D02*
X164011D01*
X164780Y029968D02*
Y030238D01*
X164300Y030718D02*
X164780Y030238D01*
X162120Y030718D02*
X164300D01*
X164391Y030147D02*
X164407D01*
X164030Y030508D02*
X164391Y030147D01*
X162088Y030508D02*
X164030D01*
X158039Y034558D02*
X162088Y030508D01*
X163277Y030298D02*
X164034Y029541D01*
X162970Y030298D02*
X163277D01*
X162760Y030088D02*
X162970Y030298D01*
X144866Y046444D02*
X147548D01*
X144460Y046038D02*
X144866Y046444D01*
X144460Y039838D02*
Y046038D01*
Y039838D02*
X151871D01*
X145898Y037536D02*
X145902D01*
X145610Y037248D02*
X145898Y037536D01*
X145610Y035400D02*
Y037248D01*
X131150Y038708D02*
X131420D01*
X130150Y039708D02*
X131150Y038708D01*
X122950Y039708D02*
X130150D01*
X130073Y039551D02*
X131015Y038609D01*
X130857Y038199D02*
Y038544D01*
X130008Y039393D02*
X130857Y038544D01*
X125115Y039393D02*
X130008D01*
X130700Y038133D02*
Y038479D01*
X129943Y039236D02*
X130700Y038479D01*
X126448Y039236D02*
X129943D01*
X124217Y037005D02*
X126448Y039236D01*
X122840Y037118D02*
X125115Y039393D01*
X118387Y044271D02*
X122950Y039708D01*
X154076Y046444D02*
X156368D01*
X153711Y046078D02*
X154076Y046444D01*
X153711Y042525D02*
Y046078D01*
X135079Y053698D02*
X135098Y053717D01*
X133820Y053698D02*
X135079D01*
X133843Y053410D02*
X135207D01*
X131800Y051368D02*
X133843Y053410D01*
X131800Y042918D02*
Y051368D01*
X133956Y053184D02*
X135570D01*
X132050Y051278D02*
X133956Y053184D01*
X132300Y052568D02*
Y053379D01*
X131161Y051429D02*
X132300Y052568D01*
X131161Y042791D02*
Y051429D01*
X153410Y032758D02*
X153828Y032340D01*
X153410Y032758D02*
Y032808D01*
X153828Y032340D02*
X154809D01*
X131447Y035737D02*
X133558Y033627D01*
X131015Y038264D02*
Y038609D01*
X121875Y018033D02*
X122607D01*
X121265Y018644D02*
X121875Y018033D01*
X120136Y018644D02*
X121265D01*
X120131Y018638D02*
X120136Y018644D01*
X118245Y018638D02*
X120131D01*
X117540Y019342D02*
X118245Y018638D01*
X117806Y018092D02*
X121320D01*
X127390Y051358D02*
X129216Y053184D01*
X125280Y051358D02*
X127390D01*
X122056Y048134D02*
X125280Y051358D01*
X122056Y046532D02*
Y048134D01*
X129216Y053184D02*
X130275D01*
X127177Y050908D02*
X127952Y050133D01*
X130700Y038133D02*
X131046Y037787D01*
X130857Y038199D02*
X131111Y037945D01*
X131015Y038264D02*
X131176Y038102D01*
X118387Y044271D02*
Y044387D01*
X123947Y040333D02*
X124255Y040026D01*
X123945Y040333D02*
X123947D01*
X122180Y045682D02*
X122214Y045715D01*
X123390Y042207D02*
X123408Y042224D01*
X123132Y042338D02*
X123160Y042310D01*
Y041343D02*
Y042310D01*
X122457Y041821D02*
Y043202D01*
X152383Y039326D02*
X153157D01*
X131391Y039838D02*
X133790D01*
X131258Y039971D02*
X131391Y039838D01*
X152142Y037867D02*
X153742Y039467D01*
X158123Y034715D02*
X162120Y030718D01*
X163660Y027298D02*
Y028948D01*
X163310Y026948D02*
X163660Y027298D01*
X163485Y027653D02*
Y028888D01*
X162829Y026997D02*
X163485Y027653D01*
X163328Y027792D02*
Y028823D01*
X162974Y027438D02*
X163328Y027792D01*
X165402Y026047D02*
Y029679D01*
X165410Y029687D01*
Y034466D01*
X164087Y035789D02*
X165410Y034466D01*
X165238Y026511D02*
Y029738D01*
X165253Y029752D01*
Y034401D01*
X162640Y037013D02*
X165253Y034401D01*
X164661Y029383D02*
X165095Y029818D01*
Y034336D01*
X161314Y038117D02*
X165095Y034336D01*
X164596Y029541D02*
X164938Y029883D01*
Y034271D01*
X162500Y036708D02*
X164938Y034271D01*
X162711Y026607D02*
X164867D01*
X162750Y025898D02*
X165252D01*
X164034Y029541D02*
X164596D01*
X162760Y029848D02*
Y030088D01*
Y029848D02*
X163660Y028948D01*
X162470Y026848D02*
X162711Y026607D01*
X162470Y026848D02*
Y027568D01*
X162700Y027798D01*
X162930D01*
X163170Y028038D01*
Y028748D01*
X162283Y025735D02*
Y028035D01*
X161218Y028342D02*
X162126Y027435D01*
Y025319D02*
Y027435D01*
X163120Y026311D02*
X165037D01*
X165252Y025898D02*
X165402Y026047D01*
X165037Y026311D02*
X165238Y026511D01*
X158540Y036708D02*
X162500D01*
X162438Y025007D02*
X166050D01*
X166540Y025498D01*
X158200Y032118D02*
X162283Y028035D01*
X158160Y031928D02*
X160933Y029155D01*
X158203Y032338D02*
X162364Y028177D01*
X162827D01*
X122840Y032381D02*
Y037118D01*
X120267Y029808D02*
X122840Y032381D01*
X163702Y029383D02*
X164661D01*
X163147Y029937D02*
X163702Y029383D01*
X157973Y034400D02*
X163485Y028888D01*
X158186Y033966D02*
X163328Y028823D01*
X157833Y034086D02*
X163170Y028748D01*
X162570Y025448D02*
X163990D01*
X162283Y025735D02*
X162570Y025448D01*
X162126Y025319D02*
X162438Y025007D01*
X161830Y027268D02*
X161850Y027288D01*
X163990Y025448D02*
X164160Y025618D01*
X157281Y031768D02*
X160706Y028342D01*
X144810Y031768D02*
X157281D01*
X160697Y024837D02*
Y028129D01*
X160706Y028342D02*
X161218D01*
X160933Y028731D02*
Y029155D01*
X147290Y031928D02*
X158160D01*
X152438Y032118D02*
X158200D01*
X154811Y032338D02*
X158203D01*
X160820Y028618D02*
X160933Y028731D01*
X146410Y032808D02*
X147290Y031928D01*
X144330Y032248D02*
X144810Y031768D01*
X144330Y032248D02*
Y032808D01*
X151942Y032614D02*
X152438Y032118D01*
X154809Y032340D02*
X154811Y032338D01*
X157905Y034243D02*
X158183Y033966D01*
X154467Y038117D02*
X161314D01*
X164087Y035789D02*
Y040317D01*
X162640Y037013D02*
Y038944D01*
X162117Y039467D02*
X162640Y038944D01*
X158183Y033966D02*
X158186D01*
X156128Y035628D02*
X158187Y037687D01*
X150060Y035628D02*
X156128D01*
X163050Y023948D02*
X164095Y022903D01*
X162640Y023948D02*
X163050D01*
X153742Y039467D02*
X162117D01*
X147960Y035628D02*
X150060D01*
X129465Y040333D02*
X129480Y040318D01*
X124217Y024235D02*
Y037005D01*
X131258Y039971D02*
Y040133D01*
X130600Y040178D02*
Y040338D01*
X130990Y039808D02*
Y040178D01*
X132656Y041712D02*
X133790Y040578D01*
Y039838D02*
Y040578D01*
X151871Y039838D02*
X151871Y039838D01*
X152383Y039326D01*
X142612Y042650D02*
Y043646D01*
X141987Y042025D02*
X142612Y042650D01*
X141790Y042025D02*
X141987D01*
X142280Y043978D02*
X142612Y043646D01*
X142280Y043978D02*
Y046535D01*
X141790Y047025D02*
X142280Y046535D01*
X138838Y041983D02*
Y050371D01*
X138568Y050641D02*
X138838Y050371D01*
X134305Y050641D02*
X138568D01*
X133936Y051010D02*
X134305Y050641D01*
X133936Y051010D02*
Y052494D01*
X134290Y051156D02*
X134389Y051058D01*
X117790Y029808D02*
X120267D01*
X122882Y042627D02*
X122892Y042638D01*
X162829Y026997D02*
X162829D01*
X162880Y027438D02*
X162974D01*
X131447Y035711D02*
Y035737D01*
X122949Y042978D02*
X122950D01*
X122737Y042627D02*
X122882D01*
X147570Y053458D02*
Y053576D01*
X123790Y023808D02*
X124217Y024235D01*
X130857Y042221D02*
X130905D01*
X147570Y053576D02*
X147600D01*
X122056Y046432D02*
Y047111D01*
X130857Y042221D02*
X130905D01*
X147570Y053576D02*
X147600D01*
X135207Y053410D02*
X135571Y053775D01*
X146041Y053516D02*
X146101Y053576D01*
X161130Y024002D02*
Y025188D01*
X163415Y024224D02*
X164489Y023149D01*
X162336Y024224D02*
X163415D01*
X162280Y024168D02*
X162336Y024224D01*
X151650Y041878D02*
Y049918D01*
X148110Y053458D02*
X151650Y049918D01*
X148090Y053458D02*
X148110D01*
X151950Y042188D02*
Y050138D01*
X151170Y050918D02*
X151950Y050138D01*
X151170Y050918D02*
Y052488D01*
X151670Y050868D02*
Y052488D01*
X152700Y042178D02*
Y050388D01*
X152170Y050918D02*
X152700Y050388D01*
X152170Y050918D02*
Y052658D01*
X152660Y050958D02*
Y052658D01*
X152985Y041804D02*
Y042402D01*
X145097Y052843D02*
Y053458D01*
X143145Y050891D02*
X145097Y052843D01*
X152985Y041804D02*
X153000Y041788D01*
X147600Y053458D02*
X151240Y049818D01*
Y042048D02*
Y049818D01*
X152910Y039680D02*
Y039738D01*
X140500Y042476D02*
X140501Y042475D01*
X140860Y041850D02*
X140964Y041747D01*
X146101Y053507D02*
Y053576D01*
X139231Y042633D02*
Y050349D01*
X135570Y053184D02*
X136101Y053716D01*
X130886Y042677D02*
Y051590D01*
X130235Y042190D02*
Y052023D01*
X130886Y051590D02*
X131820Y052525D01*
X130235Y052023D02*
X130796Y052584D01*
X118660Y045448D02*
X118670Y045438D01*
X131584Y040153D02*
X132401Y040969D01*
X132391Y045933D02*
X132910Y046452D01*
X136604Y053717D02*
Y053754D01*
X135600Y053717D02*
Y053745D01*
X135571Y053775D02*
X135600Y053745D01*
X132910Y046452D02*
X135038D01*
X131300Y052527D02*
Y053294D01*
X130886Y042677D02*
X130904Y042658D01*
Y042269D02*
Y042658D01*
X130858Y042174D02*
X130905Y042221D01*
X130796Y052584D02*
Y052918D01*
X130857Y042221D02*
X130904Y042269D01*
X131820Y052525D02*
Y053027D01*
X156368Y046444D02*
X156860Y045952D01*
X147548Y046444D02*
X148040Y045952D01*
X122943Y046444D02*
X126237D01*
X122214Y045715D02*
X122943Y046444D01*
X126237D02*
X126721Y045960D01*
X135038Y046452D02*
X135540Y045950D01*
X117540Y018358D02*
X117806Y018092D01*
X145902Y037536D02*
X146244Y037878D01*
X140284Y040113D02*
X140491D01*
X142866Y042488D01*
X143220Y047628D02*
X143830Y047018D01*
Y043028D02*
Y047018D01*
X141113Y050891D02*
X143145D01*
X139231Y050349D02*
X139625Y050743D01*
X130990Y039808D02*
X132361Y038437D01*
X147317Y038148D02*
X150950D01*
X157218Y031608D02*
X160697Y028129D01*
X133558Y033627D02*
X135173D01*
X135836Y032965D01*
Y031964D02*
Y032965D01*
Y031964D02*
X136191Y031608D01*
X157218D01*
X139835Y038740D02*
X151269D01*
X139532Y038437D02*
X139835Y038740D01*
X151269D02*
X152142Y037867D01*
X145135Y035593D02*
Y037123D01*
X145450Y035463D02*
Y037253D01*
X145293Y035528D02*
Y037188D01*
X145130Y034873D02*
X145760Y034243D01*
X145130Y034873D02*
Y035588D01*
X145135Y035593D01*
X145288Y035523D02*
X145293Y035528D01*
X145288Y034938D02*
Y035523D01*
Y034938D02*
X145825Y034400D01*
X145445Y035003D02*
X145890Y034558D01*
X145445Y035003D02*
Y035458D01*
X145450Y035463D01*
X145603Y035068D02*
Y035392D01*
Y035068D02*
X145956Y034715D01*
X145603Y035392D02*
X145610Y035400D01*
X151942Y032614D02*
Y032938D01*
X145956Y034715D02*
X158123D01*
X145890Y034558D02*
X158039D01*
X145825Y034400D02*
X157973D01*
X145760Y034243D02*
X157905D01*
X150952Y033928D02*
X151942Y032938D01*
X122180Y044290D02*
Y045682D01*
Y044290D02*
X123808Y042662D01*
X124255Y040026D02*
X128876D01*
X129183Y040333D01*
X129465D01*
X124320Y040183D02*
X128811D01*
X124385Y040341D02*
X128746D01*
X122457Y041821D02*
X123945Y040333D01*
X123160Y041343D02*
X124320Y040183D01*
X123390Y041335D02*
Y042207D01*
X122892Y042638D02*
X123222D01*
X123408Y042452D01*
Y042224D02*
Y042452D01*
X123808Y041140D02*
Y042662D01*
X124450Y040498D02*
X128680D01*
X123390Y041335D02*
X124385Y040341D01*
X123808Y041140D02*
X124450Y040498D01*
X141160Y039611D02*
X142017D01*
X140934Y039838D02*
X141160Y039611D01*
X142017D02*
X142243Y039838D01*
X151871D01*
X121662Y045438D02*
Y045812D01*
X121920Y046069D01*
X122156D01*
X122784Y046698D01*
Y048154D01*
X125538Y050908D01*
X127177D01*
X130580Y042889D02*
X130609Y042859D01*
X130580Y042889D02*
Y051806D01*
X131300Y052527D01*
X132656Y041712D02*
Y043162D01*
X132391Y043427D02*
X132656Y043162D01*
X132391Y043427D02*
Y045933D01*
X132233Y043273D02*
Y051121D01*
Y043273D02*
X132401Y043105D01*
Y040969D02*
Y043105D01*
X132076Y042347D02*
X132095Y042328D01*
X132050Y043141D02*
Y051278D01*
Y043141D02*
X132076Y043115D01*
Y042347D02*
Y043115D01*
X136267Y052818D02*
X137164Y053716D01*
X133936Y052494D02*
X134260Y052818D01*
X136267D01*
X132233Y051121D02*
X134109Y052997D01*
X135847D01*
X136604Y053754D01*
X140220Y043128D02*
Y049538D01*
X140068Y042426D02*
Y042976D01*
X140220Y043128D01*
X152981Y042406D02*
X152985Y042402D01*
X152981Y042406D02*
Y050637D01*
X152660Y050958D02*
X152981Y050637D01*
X153257Y042202D02*
X153260Y042198D01*
X153170Y050958D02*
Y052628D01*
Y050958D02*
X153257Y050871D01*
Y042202D02*
Y050871D01*
X153493Y052461D02*
X153690Y052658D01*
X131456Y042260D02*
X131485Y042289D01*
Y051363D01*
X133820Y053698D01*
X152312Y041886D02*
X152380Y041818D01*
X152312Y041886D02*
Y050226D01*
X151670Y050868D02*
X152312Y050226D01*
X153493Y042446D02*
Y052461D01*
X153887Y040055D02*
Y042348D01*
X153157Y039326D02*
X153887Y040055D01*
X153711Y042525D02*
X153887Y042348D01*
X152910Y039738D02*
X153651Y040478D01*
Y042288D01*
X153493Y042446D02*
X153651Y042288D01*
X140216Y051265D02*
X140444Y051036D01*
X134389Y051058D02*
X139271D01*
X139477Y051265D01*
X140216D01*
X140500Y042476D02*
Y049348D01*
X140860Y041850D02*
Y049188D01*
X139910Y043428D02*
X139930Y043408D01*
X139910Y043428D02*
Y049688D01*
X141113Y050891D01*
X139517Y042347D02*
X139595Y042426D01*
Y050035D01*
X139813Y050253D01*
X146640Y053339D02*
Y053458D01*
X146101Y053174D02*
Y053458D01*
X145580Y052998D02*
Y053458D01*
X140220Y049538D02*
X141327Y050645D01*
X143227D01*
X145580Y052998D01*
X140500Y049348D02*
X141511Y050359D01*
X143286D01*
X146101Y053174D01*
X140860Y049188D02*
X141707Y050034D01*
X143336D01*
X146640Y053339D01*
X142866Y042488D02*
Y049142D01*
X147103Y053379D01*
Y053458D01*
X150950Y038148D02*
X151525Y037574D01*
X153924D01*
X154467Y038117D01*
X118500Y030677D02*
Y035111D01*
X122940Y039551D01*
X130073D01*
X118133Y030310D02*
X118500Y030677D01*
X117292Y030074D02*
X117529Y030310D01*
X118133D01*
X117487Y024808D02*
X117790D01*
X117292Y025002D02*
Y030074D01*
Y025002D02*
X117487Y024808D01*
X141630Y040168D02*
Y040678D01*
X141870Y040918D01*
X140836Y032505D02*
X141091Y032249D01*
X142771D01*
X143330Y032808D01*
X140836Y032505D02*
Y033125D01*
X141796Y034086D01*
X157833D01*
X059280Y063440D02*
X059881Y064040D01*
X057943Y063440D02*
X059280D01*
X057283Y064099D02*
X057943Y063440D01*
X056130Y065252D02*
X057283Y064099D01*
X057565Y064208D02*
X058306D01*
X056520Y065252D02*
X057565Y064208D01*
X057538Y064670D02*
X057912D01*
X056830Y065378D02*
X057538Y064670D01*
X056520Y065252D02*
Y068298D01*
X056830Y065378D02*
Y068518D01*
X033870Y075928D02*
X039080D01*
X033580Y076218D02*
X033870Y075928D01*
X033570Y076218D02*
X033580D01*
X039080Y075928D02*
X039440Y076288D01*
X027100Y079057D02*
X034104D01*
X027165Y079215D02*
X034170D01*
X027230Y079372D02*
X034235D01*
X027296Y079530D02*
X034300D01*
X027361Y079687D02*
X034532D01*
X034104Y079057D02*
X034223Y078939D01*
X034170Y079215D02*
X034288Y079097D01*
X034235Y079372D02*
X034353Y079254D01*
X034300Y079530D02*
X034418Y079412D01*
X028790Y081088D02*
X035934D01*
X035321Y079196D02*
X039313D01*
X035033Y079353D02*
X039378D01*
X034968Y079511D02*
X039443D01*
X034903Y079668D02*
X042047D01*
X035314Y079188D02*
X035321Y079196D01*
X039313D02*
X040135Y078373D01*
X034777Y079097D02*
X035033Y079353D01*
X039378D02*
X040293Y078438D01*
X034712Y079254D02*
X034968Y079511D01*
X039443D02*
X040450Y078503D01*
X034647Y079412D02*
X034903Y079668D01*
X042047D02*
X042317Y079398D01*
X026420Y079958D02*
X026718Y079660D01*
X027165D01*
X026111Y079195D02*
X026470D01*
X026555Y079503D02*
X027100D01*
X026176Y079352D02*
X026404D01*
X035091Y079188D02*
X035314D01*
X034842Y078939D02*
X035091Y079188D01*
X034223Y078939D02*
X034842D01*
X034288Y079097D02*
X034777D01*
X034353Y079254D02*
X034712D01*
X034418Y079412D02*
X034647D01*
X026969Y079188D02*
X027100Y079057D01*
X026685Y079188D02*
X026969D01*
X027035Y079346D02*
X027165Y079215D01*
X026620Y079346D02*
X027035D01*
X027100Y079503D02*
X027230Y079372D01*
X027165Y079660D02*
X027296Y079530D01*
X026535Y079037D02*
X026685Y079188D01*
X026046Y079037D02*
X026535D01*
X026470Y079195D02*
X026620Y079346D01*
X026404Y079352D02*
X026555Y079503D01*
X037450Y075178D02*
X045952D01*
X036330Y074058D02*
X037450Y075178D01*
X024205Y082273D02*
X025368D01*
X023680Y081748D02*
X024205Y082273D01*
X025368D02*
X026258Y081383D01*
X023746Y081591D02*
X024271Y082116D01*
X025303D01*
X025990Y081428D01*
X023811Y081433D02*
X024336Y081958D01*
X025230D01*
X025600Y081588D01*
X059570Y071008D02*
X059780Y071218D01*
X059250Y071008D02*
X059570D01*
X059011Y071247D02*
X059250Y071008D01*
X058967Y071247D02*
X059011D01*
X059780Y071218D02*
Y071488D01*
X059300Y071968D02*
X059780Y071488D01*
X057120Y071968D02*
X059300D01*
X059391Y071397D02*
X059407D01*
X059030Y071758D02*
X059391Y071397D01*
X057088Y071758D02*
X059030D01*
X053039Y075808D02*
X057088Y071758D01*
X058277Y071548D02*
X059034Y070791D01*
X057970Y071548D02*
X058277D01*
X057760Y071338D02*
X057970Y071548D01*
X039866Y087694D02*
X042548D01*
X039460Y087288D02*
X039866Y087694D01*
X039460Y081088D02*
Y087288D01*
Y081088D02*
X046871D01*
X040898Y078786D02*
X040902D01*
X040610Y078498D02*
X040898Y078786D01*
X040610Y076650D02*
Y078498D01*
X026150Y079958D02*
X026420D01*
X025150Y080958D02*
X026150Y079958D01*
X017950Y080958D02*
X025150D01*
X025073Y080801D02*
X026015Y079859D01*
X025857Y079449D02*
Y079794D01*
X025008Y080643D02*
X025857Y079794D01*
X020115Y080643D02*
X025008D01*
X025700Y079383D02*
Y079729D01*
X024943Y080486D02*
X025700Y079729D01*
X021448Y080486D02*
X024943D01*
X019217Y078255D02*
X021448Y080486D01*
X017840Y078368D02*
X020115Y080643D01*
X013387Y085521D02*
X017950Y080958D01*
X049076Y087694D02*
X051368D01*
X048711Y087328D02*
X049076Y087694D01*
X048711Y083775D02*
Y087328D01*
X030079Y094948D02*
X030098Y094967D01*
X028820Y094948D02*
X030079D01*
X028843Y094660D02*
X030207D01*
X026800Y092618D02*
X028843Y094660D01*
X026800Y084168D02*
Y092618D01*
X028956Y094434D02*
X030570D01*
X027050Y092528D02*
X028956Y094434D01*
X027300Y093818D02*
Y094629D01*
X026161Y092679D02*
X027300Y093818D01*
X026161Y084041D02*
Y092679D01*
X048410Y074008D02*
X048828Y073590D01*
X048410Y074008D02*
Y074058D01*
X048828Y073590D02*
X049809D01*
X026447Y076987D02*
X028558Y074877D01*
X026015Y079514D02*
Y079859D01*
X016875Y059283D02*
X017607D01*
X016265Y059894D02*
X016875Y059283D01*
X015136Y059894D02*
X016265D01*
X015131Y059888D02*
X015136Y059894D01*
X013245Y059888D02*
X015131D01*
X012540Y060592D02*
X013245Y059888D01*
X012806Y059342D02*
X016320D01*
X022390Y092608D02*
X024216Y094434D01*
X020280Y092608D02*
X022390D01*
X017056Y089384D02*
X020280Y092608D01*
X017056Y087782D02*
Y089384D01*
X024216Y094434D02*
X025275D01*
X022177Y092158D02*
X022952Y091383D01*
X025700Y079383D02*
X026046Y079037D01*
X025857Y079449D02*
X026111Y079195D01*
X026015Y079514D02*
X026176Y079352D01*
X013387Y085521D02*
Y085637D01*
X018947Y081583D02*
X019255Y081276D01*
X018945Y081583D02*
X018947D01*
X017180Y086932D02*
X017214Y086965D01*
X018390Y083457D02*
X018408Y083474D01*
X018132Y083588D02*
X018160Y083560D01*
Y082593D02*
Y083560D01*
X017457Y083071D02*
Y084452D01*
X047383Y080576D02*
X048157D01*
X026391Y081088D02*
X028790D01*
X026258Y081221D02*
X026391Y081088D01*
X047142Y079117D02*
X048742Y080717D01*
X053123Y075965D02*
X057120Y071968D01*
X058660Y068548D02*
Y070198D01*
X058310Y068198D02*
X058660Y068548D01*
X058485Y068903D02*
Y070138D01*
X057829Y068247D02*
X058485Y068903D01*
X058328Y069042D02*
Y070073D01*
X057974Y068688D02*
X058328Y069042D01*
X060402Y067297D02*
Y070929D01*
X060410Y070937D01*
Y075716D01*
X059087Y077039D02*
X060410Y075716D01*
X060238Y067761D02*
Y070988D01*
X060253Y071002D01*
Y075651D01*
X057640Y078263D02*
X060253Y075651D01*
X059661Y070633D02*
X060095Y071068D01*
Y075586D01*
X056314Y079367D02*
X060095Y075586D01*
X059596Y070791D02*
X059938Y071133D01*
Y075521D01*
X057500Y077958D02*
X059938Y075521D01*
X057711Y067857D02*
X059867D01*
X057750Y067148D02*
X060252D01*
X059034Y070791D02*
X059596D01*
X057760Y071098D02*
Y071338D01*
Y071098D02*
X058660Y070198D01*
X057470Y068098D02*
X057711Y067857D01*
X057470Y068098D02*
Y068818D01*
X057700Y069048D01*
X057930D01*
X058170Y069288D01*
Y069998D01*
X057283Y066985D02*
Y069285D01*
X056218Y069592D02*
X057126Y068685D01*
Y066569D02*
Y068685D01*
X058120Y067561D02*
X060037D01*
X060252Y067148D02*
X060402Y067297D01*
X060037Y067561D02*
X060238Y067761D01*
X053540Y077958D02*
X057500D01*
X057438Y066257D02*
X061050D01*
X061540Y066748D01*
X053200Y073368D02*
X057283Y069285D01*
X053160Y073178D02*
X055933Y070405D01*
X053203Y073588D02*
X057364Y069427D01*
X057827D01*
X017840Y073631D02*
Y078368D01*
X015267Y071058D02*
X017840Y073631D01*
X058702Y070633D02*
X059661D01*
X058147Y071187D02*
X058702Y070633D01*
X052973Y075650D02*
X058485Y070138D01*
X053186Y075216D02*
X058328Y070073D01*
X052833Y075336D02*
X058170Y069998D01*
X057570Y066698D02*
X058990D01*
X057283Y066985D02*
X057570Y066698D01*
X057126Y066569D02*
X057438Y066257D01*
X056830Y068518D02*
X056850Y068538D01*
X058990Y066698D02*
X059160Y066868D01*
X052281Y073018D02*
X055706Y069592D01*
X039810Y073018D02*
X052281D01*
X055697Y066087D02*
Y069379D01*
X055706Y069592D02*
X056218D01*
X055933Y069981D02*
Y070405D01*
X042290Y073178D02*
X053160D01*
X047438Y073368D02*
X053200D01*
X049811Y073588D02*
X053203D01*
X055820Y069868D02*
X055933Y069981D01*
X041410Y074058D02*
X042290Y073178D01*
X039330Y073498D02*
X039810Y073018D01*
X039330Y073498D02*
Y074058D01*
X046942Y073864D02*
X047438Y073368D01*
X049809Y073590D02*
X049811Y073588D01*
X052905Y075493D02*
X053183Y075216D01*
X049467Y079367D02*
X056314D01*
X059087Y077039D02*
Y081567D01*
X057640Y078263D02*
Y080194D01*
X057117Y080717D02*
X057640Y080194D01*
X053183Y075216D02*
X053186D01*
X051128Y076878D02*
X053187Y078937D01*
X045060Y076878D02*
X051128D01*
X058050Y065198D02*
X059095Y064153D01*
X057640Y065198D02*
X058050D01*
X048742Y080717D02*
X057117D01*
X042960Y076878D02*
X045060D01*
X024465Y081583D02*
X024480Y081568D01*
X019217Y065485D02*
Y078255D01*
X026258Y081221D02*
Y081383D01*
X025600Y081428D02*
Y081588D01*
X025990Y081058D02*
Y081428D01*
X027656Y082962D02*
X028790Y081828D01*
Y081088D02*
Y081828D01*
X046871Y081088D02*
X046871Y081088D01*
X047383Y080576D01*
X037612Y083900D02*
Y084896D01*
X036987Y083275D02*
X037612Y083900D01*
X036790Y083275D02*
X036987D01*
X037280Y085228D02*
X037612Y084896D01*
X037280Y085228D02*
Y087785D01*
X036790Y088275D02*
X037280Y087785D01*
X033838Y083233D02*
Y091621D01*
X033568Y091891D02*
X033838Y091621D01*
X029305Y091891D02*
X033568D01*
X028936Y092260D02*
X029305Y091891D01*
X028936Y092260D02*
Y093744D01*
X029290Y092406D02*
X029389Y092308D01*
X012790Y071058D02*
X015267D01*
X017882Y083877D02*
X017892Y083888D01*
X057829Y068247D02*
X057829D01*
X057880Y068688D02*
X057974D01*
X026447Y076961D02*
Y076987D01*
X017949Y084228D02*
X017950D01*
X017737Y083877D02*
X017882D01*
X042570Y094708D02*
Y094826D01*
X018790Y065058D02*
X019217Y065485D01*
X025857Y083471D02*
X025905D01*
X042570Y094826D02*
X042600D01*
X017056Y087682D02*
Y088361D01*
X025857Y083471D02*
X025905D01*
X042570Y094826D02*
X042600D01*
X030207Y094660D02*
X030571Y095025D01*
X041041Y094766D02*
X041101Y094826D01*
X056130Y065252D02*
Y066438D01*
X058415Y065474D02*
X059489Y064399D01*
X057336Y065474D02*
X058415D01*
X057280Y065418D02*
X057336Y065474D01*
X046650Y083128D02*
Y091168D01*
X043110Y094708D02*
X046650Y091168D01*
X043090Y094708D02*
X043110D01*
X046950Y083438D02*
Y091388D01*
X046170Y092168D02*
X046950Y091388D01*
X046170Y092168D02*
Y093738D01*
X046670Y092118D02*
Y093738D01*
X047700Y083428D02*
Y091638D01*
X047170Y092168D02*
X047700Y091638D01*
X047170Y092168D02*
Y093908D01*
X047660Y092208D02*
Y093908D01*
X047985Y083054D02*
Y083652D01*
X040097Y094094D02*
Y094708D01*
X038145Y092141D02*
X040097Y094094D01*
X047985Y083054D02*
X048000Y083038D01*
X042600Y094708D02*
X046240Y091068D01*
Y083298D02*
Y091068D01*
X047910Y080930D02*
Y080988D01*
X035500Y083726D02*
X035501Y083725D01*
X035860Y083100D02*
X035964Y082997D01*
X041101Y094757D02*
Y094826D01*
X034231Y083883D02*
Y091599D01*
X030570Y094434D02*
X031101Y094966D01*
X025886Y083927D02*
Y092840D01*
X025235Y083440D02*
Y093273D01*
X025886Y092840D02*
X026820Y093775D01*
X025235Y093273D02*
X025796Y093834D01*
X013660Y086698D02*
X013670Y086688D01*
X026584Y081403D02*
X027401Y082219D01*
X027391Y087183D02*
X027910Y087702D01*
X031604Y094967D02*
Y095004D01*
X030600Y094967D02*
Y094995D01*
X030571Y095025D02*
X030600Y094995D01*
X027910Y087702D02*
X030038D01*
X026300Y093777D02*
Y094544D01*
X025886Y083927D02*
X025904Y083908D01*
Y083519D02*
Y083908D01*
X025858Y083424D02*
X025905Y083471D01*
X025796Y093834D02*
Y094168D01*
X025857Y083471D02*
X025904Y083519D01*
X026820Y093775D02*
Y094277D01*
X051368Y087694D02*
X051860Y087202D01*
X042548Y087694D02*
X043040Y087202D01*
X017943Y087694D02*
X021237D01*
X017214Y086965D02*
X017943Y087694D01*
X021237D02*
X021721Y087210D01*
X030038Y087702D02*
X030540Y087200D01*
X012540Y059608D02*
X012806Y059342D01*
X040902Y078786D02*
X041244Y079128D01*
X035284Y081363D02*
X035491D01*
X037866Y083738D01*
X038220Y088878D02*
X038830Y088268D01*
Y084278D02*
Y088268D01*
X036113Y092141D02*
X038145D01*
X034231Y091599D02*
X034625Y091993D01*
X025990Y081058D02*
X027361Y079687D01*
X042317Y079398D02*
X045950D01*
X052218Y072858D02*
X055697Y069379D01*
X028558Y074877D02*
X030173D01*
X030836Y074215D01*
Y073214D02*
Y074215D01*
Y073214D02*
X031191Y072858D01*
X052218D01*
X034835Y079990D02*
X046269D01*
X034532Y079687D02*
X034835Y079990D01*
X046269D02*
X047142Y079117D01*
X040135Y076843D02*
Y078373D01*
X040450Y076713D02*
Y078503D01*
X040293Y076778D02*
Y078438D01*
X040130Y076123D02*
X040760Y075493D01*
X040130Y076123D02*
Y076838D01*
X040135Y076843D01*
X040288Y076773D02*
X040293Y076778D01*
X040288Y076188D02*
Y076773D01*
Y076188D02*
X040825Y075650D01*
X040445Y076253D02*
X040890Y075808D01*
X040445Y076253D02*
Y076708D01*
X040450Y076713D01*
X040603Y076318D02*
Y076642D01*
Y076318D02*
X040956Y075965D01*
X040603Y076642D02*
X040610Y076650D01*
X046942Y073864D02*
Y074188D01*
X040956Y075965D02*
X053123D01*
X040890Y075808D02*
X053039D01*
X040825Y075650D02*
X052973D01*
X040760Y075493D02*
X052905D01*
X045952Y075178D02*
X046942Y074188D01*
X017180Y085540D02*
Y086932D01*
Y085540D02*
X018808Y083912D01*
X019255Y081276D02*
X023876D01*
X024183Y081583D01*
X024465D01*
X019320Y081433D02*
X023811D01*
X019385Y081591D02*
X023746D01*
X017457Y083071D02*
X018945Y081583D01*
X018160Y082593D02*
X019320Y081433D01*
X018390Y082585D02*
Y083457D01*
X017892Y083888D02*
X018222D01*
X018408Y083702D01*
Y083474D02*
Y083702D01*
X018808Y082390D02*
Y083912D01*
X019450Y081748D02*
X023680D01*
X018390Y082585D02*
X019385Y081591D01*
X018808Y082390D02*
X019450Y081748D01*
X036160Y080861D02*
X037017D01*
X035934Y081088D02*
X036160Y080861D01*
X037017D02*
X037243Y081088D01*
X046871D01*
X016662Y086688D02*
Y087062D01*
X016920Y087319D01*
X017156D01*
X017784Y087948D01*
Y089404D01*
X020538Y092158D01*
X022177D01*
X025580Y084139D02*
X025609Y084109D01*
X025580Y084139D02*
Y093056D01*
X026300Y093777D01*
X027656Y082962D02*
Y084412D01*
X027391Y084677D02*
X027656Y084412D01*
X027391Y084677D02*
Y087183D01*
X027233Y084523D02*
Y092371D01*
Y084523D02*
X027401Y084355D01*
Y082219D02*
Y084355D01*
X027076Y083597D02*
X027095Y083578D01*
X027050Y084391D02*
Y092528D01*
Y084391D02*
X027076Y084365D01*
Y083597D02*
Y084365D01*
X031267Y094068D02*
X032164Y094966D01*
X028936Y093744D02*
X029260Y094068D01*
X031267D01*
X027233Y092371D02*
X029109Y094247D01*
X030847D01*
X031604Y095004D01*
X035220Y084378D02*
Y090788D01*
X035068Y083676D02*
Y084226D01*
X035220Y084378D01*
X047981Y083656D02*
X047985Y083652D01*
X047981Y083656D02*
Y091887D01*
X047660Y092208D02*
X047981Y091887D01*
X048257Y083452D02*
X048260Y083448D01*
X048170Y092208D02*
Y093878D01*
Y092208D02*
X048257Y092121D01*
Y083452D02*
Y092121D01*
X048493Y093711D02*
X048690Y093908D01*
X026456Y083510D02*
X026485Y083539D01*
Y092613D01*
X028820Y094948D01*
X047312Y083136D02*
X047380Y083068D01*
X047312Y083136D02*
Y091476D01*
X046670Y092118D02*
X047312Y091476D01*
X048493Y083696D02*
Y093711D01*
X048887Y081305D02*
Y083598D01*
X048157Y080576D02*
X048887Y081305D01*
X048711Y083775D02*
X048887Y083598D01*
X047910Y080988D02*
X048651Y081728D01*
Y083538D01*
X048493Y083696D02*
X048651Y083538D01*
X035215Y092515D02*
X035444Y092286D01*
X029389Y092308D02*
X034271D01*
X034477Y092515D01*
X035215D01*
X035500Y083726D02*
Y090598D01*
X035860Y083100D02*
Y090438D01*
X034910Y084678D02*
X034930Y084658D01*
X034910Y084678D02*
Y090938D01*
X036113Y092141D01*
X034517Y083597D02*
X034595Y083676D01*
Y091285D01*
X034813Y091503D01*
X041640Y094589D02*
Y094708D01*
X041101Y094424D02*
Y094708D01*
X040580Y094248D02*
Y094708D01*
X035220Y090788D02*
X036327Y091895D01*
X038227D01*
X040580Y094248D01*
X035500Y090598D02*
X036511Y091609D01*
X038286D01*
X041101Y094424D01*
X035860Y090438D02*
X036707Y091284D01*
X038336D01*
X041640Y094589D01*
X037866Y083738D02*
Y090392D01*
X042103Y094629D01*
Y094708D01*
X045950Y079398D02*
X046525Y078824D01*
X048924D01*
X049467Y079367D01*
X013500Y071927D02*
Y076361D01*
X017940Y080801D01*
X025073D01*
X013133Y071560D02*
X013500Y071927D01*
X012292Y071324D02*
X012529Y071560D01*
X013133D01*
X012487Y066058D02*
X012790D01*
X012292Y066252D02*
Y071324D01*
Y066252D02*
X012487Y066058D01*
X036630Y081418D02*
Y081928D01*
X036870Y082168D01*
X035836Y073755D02*
X036091Y073499D01*
X037771D01*
X038330Y074058D01*
X035836Y073755D02*
Y074375D01*
X036796Y075336D01*
X052833D01*
X111780Y063440D02*
X112381Y064040D01*
X110443Y063440D02*
X111780D01*
X109783Y064099D02*
X110443Y063440D01*
X108630Y065252D02*
X109783Y064099D01*
X110065Y064208D02*
X110806D01*
X109020Y065252D02*
X110065Y064208D01*
X110038Y064670D02*
X110412D01*
X109330Y065378D02*
X110038Y064670D01*
X109020Y065252D02*
Y068298D01*
X109330Y065378D02*
Y068518D01*
X086370Y075928D02*
X091580D01*
X086080Y076218D02*
X086370Y075928D01*
X086070Y076218D02*
X086080D01*
X091580Y075928D02*
X091940Y076288D01*
X079600Y079057D02*
X086604D01*
X079665Y079215D02*
X086670D01*
X079730Y079372D02*
X086735D01*
X079796Y079530D02*
X086800D01*
X079861Y079687D02*
X087032D01*
X086604Y079057D02*
X086723Y078939D01*
X086670Y079215D02*
X086788Y079097D01*
X086735Y079372D02*
X086853Y079254D01*
X086800Y079530D02*
X086918Y079412D01*
X081290Y081088D02*
X088434D01*
X087821Y079196D02*
X091813D01*
X087533Y079353D02*
X091878D01*
X087468Y079511D02*
X091943D01*
X087403Y079668D02*
X094547D01*
X087814Y079188D02*
X087821Y079196D01*
X091813D02*
X092635Y078373D01*
X087277Y079097D02*
X087533Y079353D01*
X091878D02*
X092793Y078438D01*
X087212Y079254D02*
X087468Y079511D01*
X091943D02*
X092950Y078503D01*
X087147Y079412D02*
X087403Y079668D01*
X094547D02*
X094817Y079398D01*
X078920Y079958D02*
X079218Y079660D01*
X079665D01*
X078611Y079195D02*
X078970D01*
X079055Y079503D02*
X079600D01*
X078676Y079352D02*
X078904D01*
X087591Y079188D02*
X087814D01*
X087342Y078939D02*
X087591Y079188D01*
X086723Y078939D02*
X087342D01*
X086788Y079097D02*
X087277D01*
X086853Y079254D02*
X087212D01*
X086918Y079412D02*
X087147D01*
X079469Y079188D02*
X079600Y079057D01*
X079185Y079188D02*
X079469D01*
X079535Y079346D02*
X079665Y079215D01*
X079120Y079346D02*
X079535D01*
X079600Y079503D02*
X079730Y079372D01*
X079665Y079660D02*
X079796Y079530D01*
X079035Y079037D02*
X079185Y079188D01*
X078546Y079037D02*
X079035D01*
X078970Y079195D02*
X079120Y079346D01*
X078904Y079352D02*
X079055Y079503D01*
X089950Y075178D02*
X098452D01*
X088830Y074058D02*
X089950Y075178D01*
X076705Y082273D02*
X077868D01*
X076180Y081748D02*
X076705Y082273D01*
X077868D02*
X078758Y081383D01*
X076246Y081591D02*
X076771Y082116D01*
X077803D01*
X078490Y081428D01*
X076311Y081433D02*
X076836Y081958D01*
X077730D01*
X078100Y081588D01*
X112070Y071008D02*
X112280Y071218D01*
X111750Y071008D02*
X112070D01*
X111511Y071247D02*
X111750Y071008D01*
X111467Y071247D02*
X111511D01*
X112280Y071218D02*
Y071488D01*
X111800Y071968D02*
X112280Y071488D01*
X109620Y071968D02*
X111800D01*
X111891Y071397D02*
X111907D01*
X111530Y071758D02*
X111891Y071397D01*
X109588Y071758D02*
X111530D01*
X105539Y075808D02*
X109588Y071758D01*
X110777Y071548D02*
X111534Y070791D01*
X110470Y071548D02*
X110777D01*
X110260Y071338D02*
X110470Y071548D01*
X092366Y087694D02*
X095048D01*
X091960Y087288D02*
X092366Y087694D01*
X091960Y081088D02*
Y087288D01*
Y081088D02*
X099371D01*
X093398Y078786D02*
X093402D01*
X093110Y078498D02*
X093398Y078786D01*
X093110Y076650D02*
Y078498D01*
X078650Y079958D02*
X078920D01*
X077650Y080958D02*
X078650Y079958D01*
X070450Y080958D02*
X077650D01*
X077573Y080801D02*
X078515Y079859D01*
X078357Y079449D02*
Y079794D01*
X077508Y080643D02*
X078357Y079794D01*
X072615Y080643D02*
X077508D01*
X078200Y079383D02*
Y079729D01*
X077443Y080486D02*
X078200Y079729D01*
X073948Y080486D02*
X077443D01*
X071717Y078255D02*
X073948Y080486D01*
X070340Y078368D02*
X072615Y080643D01*
X065887Y085521D02*
X070450Y080958D01*
X101576Y087694D02*
X103868D01*
X101211Y087328D02*
X101576Y087694D01*
X101211Y083775D02*
Y087328D01*
X082579Y094948D02*
X082598Y094967D01*
X081320Y094948D02*
X082579D01*
X081343Y094660D02*
X082707D01*
X079300Y092618D02*
X081343Y094660D01*
X079300Y084168D02*
Y092618D01*
X081456Y094434D02*
X083070D01*
X079550Y092528D02*
X081456Y094434D01*
X079800Y093818D02*
Y094629D01*
X078661Y092679D02*
X079800Y093818D01*
X078661Y084041D02*
Y092679D01*
X100910Y074008D02*
X101328Y073590D01*
X100910Y074008D02*
Y074058D01*
X101328Y073590D02*
X102309D01*
X078947Y076987D02*
X081058Y074877D01*
X078515Y079514D02*
Y079859D01*
X069375Y059283D02*
X070107D01*
X068765Y059894D02*
X069375Y059283D01*
X067636Y059894D02*
X068765D01*
X067631Y059888D02*
X067636Y059894D01*
X065745Y059888D02*
X067631D01*
X065040Y060592D02*
X065745Y059888D01*
X065306Y059342D02*
X068820D01*
X074890Y092608D02*
X076716Y094434D01*
X072780Y092608D02*
X074890D01*
X069556Y089384D02*
X072780Y092608D01*
X069556Y087782D02*
Y089384D01*
X076716Y094434D02*
X077775D01*
X074677Y092158D02*
X075452Y091383D01*
X078200Y079383D02*
X078546Y079037D01*
X078357Y079449D02*
X078611Y079195D01*
X078515Y079514D02*
X078676Y079352D01*
X065887Y085521D02*
Y085637D01*
X071447Y081583D02*
X071755Y081276D01*
X071445Y081583D02*
X071447D01*
X069680Y086932D02*
X069714Y086965D01*
X070890Y083457D02*
X070908Y083474D01*
X070632Y083588D02*
X070660Y083560D01*
Y082593D02*
Y083560D01*
X069957Y083071D02*
Y084452D01*
X099883Y080576D02*
X100657D01*
X078891Y081088D02*
X081290D01*
X078758Y081221D02*
X078891Y081088D01*
X099642Y079117D02*
X101242Y080717D01*
X105623Y075965D02*
X109620Y071968D01*
X111160Y068548D02*
Y070198D01*
X110810Y068198D02*
X111160Y068548D01*
X110985Y068903D02*
Y070138D01*
X110329Y068247D02*
X110985Y068903D01*
X110828Y069042D02*
Y070073D01*
X110474Y068688D02*
X110828Y069042D01*
X112902Y067297D02*
Y070929D01*
X112910Y070937D01*
Y075716D01*
X111587Y077039D02*
X112910Y075716D01*
X112738Y067761D02*
Y070988D01*
X112753Y071002D01*
Y075651D01*
X110140Y078263D02*
X112753Y075651D01*
X112161Y070633D02*
X112595Y071068D01*
Y075586D01*
X108814Y079367D02*
X112595Y075586D01*
X112096Y070791D02*
X112438Y071133D01*
Y075521D01*
X110000Y077958D02*
X112438Y075521D01*
X110211Y067857D02*
X112367D01*
X110250Y067148D02*
X112752D01*
X111534Y070791D02*
X112096D01*
X110260Y071098D02*
Y071338D01*
Y071098D02*
X111160Y070198D01*
X109970Y068098D02*
X110211Y067857D01*
X109970Y068098D02*
Y068818D01*
X110200Y069048D01*
X110430D01*
X110670Y069288D01*
Y069998D01*
X109783Y066985D02*
Y069285D01*
X108718Y069592D02*
X109626Y068685D01*
Y066569D02*
Y068685D01*
X110620Y067561D02*
X112537D01*
X112752Y067148D02*
X112902Y067297D01*
X112537Y067561D02*
X112738Y067761D01*
X106040Y077958D02*
X110000D01*
X109938Y066257D02*
X113550D01*
X114040Y066748D01*
X105700Y073368D02*
X109783Y069285D01*
X105660Y073178D02*
X108433Y070405D01*
X105703Y073588D02*
X109864Y069427D01*
X110327D01*
X070340Y073631D02*
Y078368D01*
X067767Y071058D02*
X070340Y073631D01*
X111202Y070633D02*
X112161D01*
X110647Y071187D02*
X111202Y070633D01*
X105473Y075650D02*
X110985Y070138D01*
X105686Y075216D02*
X110828Y070073D01*
X105333Y075336D02*
X110670Y069998D01*
X110070Y066698D02*
X111490D01*
X109783Y066985D02*
X110070Y066698D01*
X109626Y066569D02*
X109938Y066257D01*
X109330Y068518D02*
X109350Y068538D01*
X111490Y066698D02*
X111660Y066868D01*
X104781Y073018D02*
X108206Y069592D01*
X092310Y073018D02*
X104781D01*
X108197Y066087D02*
Y069379D01*
X108206Y069592D02*
X108718D01*
X108433Y069981D02*
Y070405D01*
X094790Y073178D02*
X105660D01*
X099938Y073368D02*
X105700D01*
X102311Y073588D02*
X105703D01*
X108320Y069868D02*
X108433Y069981D01*
X093910Y074058D02*
X094790Y073178D01*
X091830Y073498D02*
X092310Y073018D01*
X091830Y073498D02*
Y074058D01*
X099442Y073864D02*
X099938Y073368D01*
X102309Y073590D02*
X102311Y073588D01*
X105405Y075493D02*
X105683Y075216D01*
X101967Y079367D02*
X108814D01*
X111587Y077039D02*
Y081567D01*
X110140Y078263D02*
Y080194D01*
X109617Y080717D02*
X110140Y080194D01*
X105683Y075216D02*
X105686D01*
X103628Y076878D02*
X105687Y078937D01*
X097560Y076878D02*
X103628D01*
X110550Y065198D02*
X111595Y064153D01*
X110140Y065198D02*
X110550D01*
X101242Y080717D02*
X109617D01*
X095460Y076878D02*
X097560D01*
X076965Y081583D02*
X076980Y081568D01*
X071717Y065485D02*
Y078255D01*
X078758Y081221D02*
Y081383D01*
X078100Y081428D02*
Y081588D01*
X078490Y081058D02*
Y081428D01*
X080156Y082962D02*
X081290Y081828D01*
Y081088D02*
Y081828D01*
X099371Y081088D02*
X099371Y081088D01*
X099883Y080576D01*
X090112Y083900D02*
Y084896D01*
X089487Y083275D02*
X090112Y083900D01*
X089290Y083275D02*
X089487D01*
X089780Y085228D02*
X090112Y084896D01*
X089780Y085228D02*
Y087785D01*
X089290Y088275D02*
X089780Y087785D01*
X086338Y083233D02*
Y091621D01*
X086068Y091891D02*
X086338Y091621D01*
X081805Y091891D02*
X086068D01*
X081436Y092260D02*
X081805Y091891D01*
X081436Y092260D02*
Y093744D01*
X081790Y092406D02*
X081889Y092308D01*
X065290Y071058D02*
X067767D01*
X070382Y083877D02*
X070392Y083888D01*
X110329Y068247D02*
X110329D01*
X110380Y068688D02*
X110474D01*
X078947Y076961D02*
Y076987D01*
X070449Y084228D02*
X070450D01*
X070237Y083877D02*
X070382D01*
X095070Y094708D02*
Y094826D01*
X071290Y065058D02*
X071717Y065485D01*
X078357Y083471D02*
X078405D01*
X095070Y094826D02*
X095100D01*
X069556Y087682D02*
Y088361D01*
X078357Y083471D02*
X078405D01*
X095070Y094826D02*
X095100D01*
X082707Y094660D02*
X083071Y095025D01*
X093541Y094766D02*
X093601Y094826D01*
X108630Y065252D02*
Y066438D01*
X110915Y065474D02*
X111989Y064399D01*
X109836Y065474D02*
X110915D01*
X109780Y065418D02*
X109836Y065474D01*
X099150Y083128D02*
Y091168D01*
X095610Y094708D02*
X099150Y091168D01*
X095590Y094708D02*
X095610D01*
X099450Y083438D02*
Y091388D01*
X098670Y092168D02*
X099450Y091388D01*
X098670Y092168D02*
Y093738D01*
X099170Y092118D02*
Y093738D01*
X100200Y083428D02*
Y091638D01*
X099670Y092168D02*
X100200Y091638D01*
X099670Y092168D02*
Y093908D01*
X100160Y092208D02*
Y093908D01*
X100485Y083054D02*
Y083652D01*
X092597Y094094D02*
Y094708D01*
X090645Y092141D02*
X092597Y094094D01*
X100485Y083054D02*
X100500Y083038D01*
X095100Y094708D02*
X098740Y091068D01*
Y083298D02*
Y091068D01*
X100410Y080930D02*
Y080988D01*
X088000Y083726D02*
X088001Y083725D01*
X088360Y083100D02*
X088464Y082997D01*
X093601Y094757D02*
Y094826D01*
X086731Y083883D02*
Y091599D01*
X083070Y094434D02*
X083601Y094966D01*
X078386Y083927D02*
Y092840D01*
X077735Y083440D02*
Y093273D01*
X078386Y092840D02*
X079320Y093775D01*
X077735Y093273D02*
X078296Y093834D01*
X066160Y086698D02*
X066170Y086688D01*
X079084Y081403D02*
X079901Y082219D01*
X079891Y087183D02*
X080410Y087702D01*
X084104Y094967D02*
Y095004D01*
X083100Y094967D02*
Y094995D01*
X083071Y095025D02*
X083100Y094995D01*
X080410Y087702D02*
X082538D01*
X078800Y093777D02*
Y094544D01*
X078386Y083927D02*
X078404Y083908D01*
Y083519D02*
Y083908D01*
X078358Y083424D02*
X078405Y083471D01*
X078296Y093834D02*
Y094168D01*
X078357Y083471D02*
X078404Y083519D01*
X079320Y093775D02*
Y094277D01*
X103868Y087694D02*
X104360Y087202D01*
X095048Y087694D02*
X095540Y087202D01*
X070443Y087694D02*
X073737D01*
X069714Y086965D02*
X070443Y087694D01*
X073737D02*
X074221Y087210D01*
X082538Y087702D02*
X083040Y087200D01*
X065040Y059608D02*
X065306Y059342D01*
X093402Y078786D02*
X093744Y079128D01*
X087784Y081363D02*
X087991D01*
X090366Y083738D01*
X090720Y088878D02*
X091330Y088268D01*
Y084278D02*
Y088268D01*
X088613Y092141D02*
X090645D01*
X086731Y091599D02*
X087125Y091993D01*
X078490Y081058D02*
X079861Y079687D01*
X094817Y079398D02*
X098450D01*
X104718Y072858D02*
X108197Y069379D01*
X081058Y074877D02*
X082673D01*
X083336Y074215D01*
Y073214D02*
Y074215D01*
Y073214D02*
X083691Y072858D01*
X104718D01*
X087335Y079990D02*
X098769D01*
X087032Y079687D02*
X087335Y079990D01*
X098769D02*
X099642Y079117D01*
X092635Y076843D02*
Y078373D01*
X092950Y076713D02*
Y078503D01*
X092793Y076778D02*
Y078438D01*
X092630Y076123D02*
X093260Y075493D01*
X092630Y076123D02*
Y076838D01*
X092635Y076843D01*
X092788Y076773D02*
X092793Y076778D01*
X092788Y076188D02*
Y076773D01*
Y076188D02*
X093325Y075650D01*
X092945Y076253D02*
X093390Y075808D01*
X092945Y076253D02*
Y076708D01*
X092950Y076713D01*
X093103Y076318D02*
Y076642D01*
Y076318D02*
X093456Y075965D01*
X093103Y076642D02*
X093110Y076650D01*
X099442Y073864D02*
Y074188D01*
X093456Y075965D02*
X105623D01*
X093390Y075808D02*
X105539D01*
X093325Y075650D02*
X105473D01*
X093260Y075493D02*
X105405D01*
X098452Y075178D02*
X099442Y074188D01*
X069680Y085540D02*
Y086932D01*
Y085540D02*
X071308Y083912D01*
X071755Y081276D02*
X076376D01*
X076683Y081583D01*
X076965D01*
X071820Y081433D02*
X076311D01*
X071885Y081591D02*
X076246D01*
X069957Y083071D02*
X071445Y081583D01*
X070660Y082593D02*
X071820Y081433D01*
X070890Y082585D02*
Y083457D01*
X070392Y083888D02*
X070722D01*
X070908Y083702D01*
Y083474D02*
Y083702D01*
X071308Y082390D02*
Y083912D01*
X071950Y081748D02*
X076180D01*
X070890Y082585D02*
X071885Y081591D01*
X071308Y082390D02*
X071950Y081748D01*
X088660Y080861D02*
X089517D01*
X088434Y081088D02*
X088660Y080861D01*
X089517D02*
X089743Y081088D01*
X099371D01*
X069162Y086688D02*
Y087062D01*
X069420Y087319D01*
X069656D01*
X070284Y087948D01*
Y089404D01*
X073038Y092158D01*
X074677D01*
X078080Y084139D02*
X078109Y084109D01*
X078080Y084139D02*
Y093056D01*
X078800Y093777D01*
X080156Y082962D02*
Y084412D01*
X079891Y084677D02*
X080156Y084412D01*
X079891Y084677D02*
Y087183D01*
X079733Y084523D02*
Y092371D01*
Y084523D02*
X079901Y084355D01*
Y082219D02*
Y084355D01*
X079576Y083597D02*
X079595Y083578D01*
X079550Y084391D02*
Y092528D01*
Y084391D02*
X079576Y084365D01*
Y083597D02*
Y084365D01*
X083767Y094068D02*
X084664Y094966D01*
X081436Y093744D02*
X081760Y094068D01*
X083767D01*
X079733Y092371D02*
X081609Y094247D01*
X083347D01*
X084104Y095004D01*
X087720Y084378D02*
Y090788D01*
X087568Y083676D02*
Y084226D01*
X087720Y084378D01*
X100481Y083656D02*
X100485Y083652D01*
X100481Y083656D02*
Y091887D01*
X100160Y092208D02*
X100481Y091887D01*
X100757Y083452D02*
X100760Y083448D01*
X100670Y092208D02*
Y093878D01*
Y092208D02*
X100757Y092121D01*
Y083452D02*
Y092121D01*
X100993Y093711D02*
X101190Y093908D01*
X078956Y083510D02*
X078985Y083539D01*
Y092613D01*
X081320Y094948D01*
X099812Y083136D02*
X099880Y083068D01*
X099812Y083136D02*
Y091476D01*
X099170Y092118D02*
X099812Y091476D01*
X100993Y083696D02*
Y093711D01*
X101387Y081305D02*
Y083598D01*
X100657Y080576D02*
X101387Y081305D01*
X101211Y083775D02*
X101387Y083598D01*
X100410Y080988D02*
X101151Y081728D01*
Y083538D01*
X100993Y083696D02*
X101151Y083538D01*
X087716Y092515D02*
X087944Y092286D01*
X081889Y092308D02*
X086771D01*
X086977Y092515D01*
X087716D01*
X088000Y083726D02*
Y090598D01*
X088360Y083100D02*
Y090438D01*
X087410Y084678D02*
X087430Y084658D01*
X087410Y084678D02*
Y090938D01*
X088613Y092141D01*
X087017Y083597D02*
X087095Y083676D01*
Y091285D01*
X087313Y091503D01*
X094140Y094589D02*
Y094708D01*
X093601Y094424D02*
Y094708D01*
X093080Y094248D02*
Y094708D01*
X087720Y090788D02*
X088827Y091895D01*
X090727D01*
X093080Y094248D01*
X088000Y090598D02*
X089011Y091609D01*
X090786D01*
X093601Y094424D01*
X088360Y090438D02*
X089207Y091284D01*
X090836D01*
X094140Y094589D01*
X090366Y083738D02*
Y090392D01*
X094603Y094629D01*
Y094708D01*
X098450Y079398D02*
X099025Y078824D01*
X101424D01*
X101967Y079367D01*
X066000Y071927D02*
Y076361D01*
X070440Y080801D01*
X077573D01*
X065633Y071560D02*
X066000Y071927D01*
X064792Y071324D02*
X065029Y071560D01*
X065633D01*
X064987Y066058D02*
X065290D01*
X064792Y066252D02*
Y071324D01*
Y066252D02*
X064987Y066058D01*
X089130Y081418D02*
Y081928D01*
X089370Y082168D01*
X088336Y073755D02*
X088591Y073499D01*
X090271D01*
X090830Y074058D01*
X088336Y073755D02*
Y074375D01*
X089296Y075336D01*
X105333D01*
X164280Y063440D02*
X164881Y064040D01*
X162943Y063440D02*
X164280D01*
X162283Y064099D02*
X162943Y063440D01*
X161130Y065252D02*
X162283Y064099D01*
X162565Y064208D02*
X163306D01*
X161520Y065252D02*
X162565Y064208D01*
X162538Y064670D02*
X162912D01*
X161830Y065378D02*
X162538Y064670D01*
X161520Y065252D02*
Y068298D01*
X161830Y065378D02*
Y068518D01*
X138870Y075928D02*
X144080D01*
X138580Y076218D02*
X138870Y075928D01*
X138570Y076218D02*
X138580D01*
X144080Y075928D02*
X144440Y076288D01*
X132100Y079057D02*
X139104D01*
X132165Y079215D02*
X139170D01*
X132230Y079372D02*
X139235D01*
X132296Y079530D02*
X139300D01*
X132361Y079687D02*
X139532D01*
X139104Y079057D02*
X139223Y078939D01*
X139170Y079215D02*
X139288Y079097D01*
X139235Y079372D02*
X139353Y079254D01*
X139300Y079530D02*
X139418Y079412D01*
X133790Y081088D02*
X140934D01*
X140321Y079196D02*
X144313D01*
X140033Y079353D02*
X144378D01*
X139968Y079511D02*
X144443D01*
X139903Y079668D02*
X147047D01*
X140314Y079188D02*
X140321Y079196D01*
X144313D02*
X145135Y078373D01*
X139777Y079097D02*
X140033Y079353D01*
X144378D02*
X145293Y078438D01*
X139712Y079254D02*
X139968Y079511D01*
X144443D02*
X145450Y078503D01*
X139647Y079412D02*
X139903Y079668D01*
X147047D02*
X147317Y079398D01*
X131420Y079958D02*
X131718Y079660D01*
X132165D01*
X131111Y079195D02*
X131470D01*
X131555Y079503D02*
X132100D01*
X131176Y079352D02*
X131404D01*
X140091Y079188D02*
X140314D01*
X139842Y078939D02*
X140091Y079188D01*
X139223Y078939D02*
X139842D01*
X139288Y079097D02*
X139777D01*
X139353Y079254D02*
X139712D01*
X139418Y079412D02*
X139647D01*
X131969Y079188D02*
X132100Y079057D01*
X131685Y079188D02*
X131969D01*
X132035Y079346D02*
X132165Y079215D01*
X131620Y079346D02*
X132035D01*
X132100Y079503D02*
X132230Y079372D01*
X132165Y079660D02*
X132296Y079530D01*
X131535Y079037D02*
X131685Y079188D01*
X131046Y079037D02*
X131535D01*
X131470Y079195D02*
X131620Y079346D01*
X131404Y079352D02*
X131555Y079503D01*
X142450Y075178D02*
X150952D01*
X141330Y074058D02*
X142450Y075178D01*
X129205Y082273D02*
X130368D01*
X128680Y081748D02*
X129205Y082273D01*
X130368D02*
X131258Y081383D01*
X128746Y081591D02*
X129270Y082116D01*
X130303D01*
X130990Y081428D01*
X128811Y081433D02*
X129336Y081958D01*
X130230D01*
X130600Y081588D01*
X164570Y071008D02*
X164780Y071218D01*
X164250Y071008D02*
X164570D01*
X164011Y071247D02*
X164250Y071008D01*
X163967Y071247D02*
X164011D01*
X164780Y071218D02*
Y071488D01*
X164300Y071968D02*
X164780Y071488D01*
X162120Y071968D02*
X164300D01*
X164391Y071397D02*
X164407D01*
X164030Y071758D02*
X164391Y071397D01*
X162088Y071758D02*
X164030D01*
X158039Y075808D02*
X162088Y071758D01*
X163277Y071548D02*
X164034Y070791D01*
X162970Y071548D02*
X163277D01*
X162760Y071338D02*
X162970Y071548D01*
X144866Y087694D02*
X147548D01*
X144460Y087288D02*
X144866Y087694D01*
X144460Y081088D02*
Y087288D01*
Y081088D02*
X151871D01*
X145898Y078786D02*
X145902D01*
X145610Y078498D02*
X145898Y078786D01*
X145610Y076650D02*
Y078498D01*
X131150Y079958D02*
X131420D01*
X130150Y080958D02*
X131150Y079958D01*
X122950Y080958D02*
X130150D01*
X130073Y080801D02*
X131015Y079859D01*
X130857Y079449D02*
Y079794D01*
X130008Y080643D02*
X130857Y079794D01*
X125115Y080643D02*
X130008D01*
X130700Y079383D02*
Y079729D01*
X129943Y080486D02*
X130700Y079729D01*
X126448Y080486D02*
X129943D01*
X124217Y078255D02*
X126448Y080486D01*
X122840Y078368D02*
X125115Y080643D01*
X118387Y085521D02*
X122950Y080958D01*
X154076Y087694D02*
X156368D01*
X153711Y087328D02*
X154076Y087694D01*
X153711Y083775D02*
Y087328D01*
X135079Y094948D02*
X135098Y094967D01*
X133820Y094948D02*
X135079D01*
X133843Y094660D02*
X135207D01*
X131800Y092618D02*
X133843Y094660D01*
X131800Y084168D02*
Y092618D01*
X133956Y094434D02*
X135570D01*
X132050Y092528D02*
X133956Y094434D01*
X132300Y093818D02*
Y094629D01*
X131161Y092679D02*
X132300Y093818D01*
X131161Y084041D02*
Y092679D01*
X153410Y074008D02*
X153828Y073590D01*
X153410Y074008D02*
Y074058D01*
X153828Y073590D02*
X154809D01*
X131447Y076987D02*
X133558Y074877D01*
X131015Y079514D02*
Y079859D01*
X121875Y059283D02*
X122607D01*
X121265Y059894D02*
X121875Y059283D01*
X120136Y059894D02*
X121265D01*
X120131Y059888D02*
X120136Y059894D01*
X118245Y059888D02*
X120131D01*
X117540Y060592D02*
X118245Y059888D01*
X117806Y059342D02*
X121320D01*
X127390Y092608D02*
X129216Y094434D01*
X125280Y092608D02*
X127390D01*
X122056Y089384D02*
X125280Y092608D01*
X122056Y087782D02*
Y089384D01*
X129216Y094434D02*
X130275D01*
X127177Y092158D02*
X127952Y091383D01*
X130700Y079383D02*
X131046Y079037D01*
X130857Y079449D02*
X131111Y079195D01*
X131015Y079514D02*
X131176Y079352D01*
X118387Y085521D02*
Y085637D01*
X123947Y081583D02*
X124255Y081276D01*
X123945Y081583D02*
X123947D01*
X122180Y086932D02*
X122214Y086965D01*
X123390Y083457D02*
X123408Y083474D01*
X123132Y083588D02*
X123160Y083560D01*
Y082593D02*
Y083560D01*
X122457Y083071D02*
Y084452D01*
X152383Y080576D02*
X153157D01*
X131391Y081088D02*
X133790D01*
X131258Y081221D02*
X131391Y081088D01*
X152142Y079117D02*
X153742Y080717D01*
X158123Y075965D02*
X162120Y071968D01*
X163660Y068548D02*
Y070198D01*
X163310Y068198D02*
X163660Y068548D01*
X163485Y068903D02*
Y070138D01*
X162829Y068247D02*
X163485Y068903D01*
X163328Y069042D02*
Y070073D01*
X162974Y068688D02*
X163328Y069042D01*
X165402Y067297D02*
Y070929D01*
X165410Y070937D01*
Y075716D01*
X164087Y077039D02*
X165410Y075716D01*
X165238Y067761D02*
Y070988D01*
X165253Y071002D01*
Y075651D01*
X162640Y078263D02*
X165253Y075651D01*
X164661Y070633D02*
X165095Y071068D01*
Y075586D01*
X161314Y079367D02*
X165095Y075586D01*
X164596Y070791D02*
X164938Y071133D01*
Y075521D01*
X162500Y077958D02*
X164938Y075521D01*
X162711Y067857D02*
X164867D01*
X162750Y067148D02*
X165252D01*
X164034Y070791D02*
X164596D01*
X162760Y071098D02*
Y071338D01*
Y071098D02*
X163660Y070198D01*
X162470Y068098D02*
X162711Y067857D01*
X162470Y068098D02*
Y068818D01*
X162700Y069048D01*
X162930D01*
X163170Y069288D01*
Y069998D01*
X162283Y066985D02*
Y069285D01*
X161218Y069592D02*
X162126Y068685D01*
Y066569D02*
Y068685D01*
X163120Y067561D02*
X165037D01*
X165252Y067148D02*
X165402Y067297D01*
X165037Y067561D02*
X165238Y067761D01*
X158540Y077958D02*
X162500D01*
X162438Y066257D02*
X166050D01*
X166540Y066748D01*
X158200Y073368D02*
X162283Y069285D01*
X158160Y073178D02*
X160933Y070405D01*
X158203Y073588D02*
X162364Y069427D01*
X162827D01*
X122840Y073631D02*
Y078368D01*
X120267Y071058D02*
X122840Y073631D01*
X163702Y070633D02*
X164661D01*
X163147Y071187D02*
X163702Y070633D01*
X157973Y075650D02*
X163485Y070138D01*
X158186Y075216D02*
X163328Y070073D01*
X157833Y075336D02*
X163170Y069998D01*
X162570Y066698D02*
X163990D01*
X162283Y066985D02*
X162570Y066698D01*
X162126Y066569D02*
X162438Y066257D01*
X161830Y068518D02*
X161850Y068538D01*
X163990Y066698D02*
X164160Y066868D01*
X157281Y073018D02*
X160706Y069592D01*
X144810Y073018D02*
X157281D01*
X160697Y066087D02*
Y069379D01*
X160706Y069592D02*
X161218D01*
X160933Y069981D02*
Y070405D01*
X147290Y073178D02*
X158160D01*
X152438Y073368D02*
X158200D01*
X154811Y073588D02*
X158203D01*
X160820Y069868D02*
X160933Y069981D01*
X146410Y074058D02*
X147290Y073178D01*
X144330Y073498D02*
X144810Y073018D01*
X144330Y073498D02*
Y074058D01*
X151942Y073864D02*
X152438Y073368D01*
X154809Y073590D02*
X154811Y073588D01*
X157905Y075493D02*
X158183Y075216D01*
X154467Y079367D02*
X161314D01*
X164087Y077039D02*
Y081567D01*
X162640Y078263D02*
Y080194D01*
X162117Y080717D02*
X162640Y080194D01*
X158183Y075216D02*
X158186D01*
X156128Y076878D02*
X158187Y078937D01*
X150060Y076878D02*
X156128D01*
X163050Y065198D02*
X164095Y064153D01*
X162640Y065198D02*
X163050D01*
X153742Y080717D02*
X162117D01*
X147960Y076878D02*
X150060D01*
X129465Y081583D02*
X129480Y081568D01*
X124217Y065485D02*
Y078255D01*
X131258Y081221D02*
Y081383D01*
X130600Y081428D02*
Y081588D01*
X130990Y081058D02*
Y081428D01*
X132656Y082962D02*
X133790Y081828D01*
Y081088D02*
Y081828D01*
X151871Y081088D02*
X151871Y081088D01*
X152383Y080576D01*
X142612Y083900D02*
Y084896D01*
X141987Y083275D02*
X142612Y083900D01*
X141790Y083275D02*
X141987D01*
X142280Y085228D02*
X142612Y084896D01*
X142280Y085228D02*
Y087785D01*
X141790Y088275D02*
X142280Y087785D01*
X138838Y083233D02*
Y091621D01*
X138568Y091891D02*
X138838Y091621D01*
X134305Y091891D02*
X138568D01*
X133936Y092260D02*
X134305Y091891D01*
X133936Y092260D02*
Y093744D01*
X134290Y092406D02*
X134389Y092308D01*
X117790Y071058D02*
X120267D01*
X122882Y083877D02*
X122892Y083888D01*
X162829Y068247D02*
X162829D01*
X162880Y068688D02*
X162974D01*
X131447Y076961D02*
Y076987D01*
X122949Y084228D02*
X122950D01*
X122737Y083877D02*
X122882D01*
X147570Y094708D02*
Y094826D01*
X123790Y065058D02*
X124217Y065485D01*
X130857Y083471D02*
X130905D01*
X147570Y094826D02*
X147600D01*
X122056Y087682D02*
Y088361D01*
X130857Y083471D02*
X130905D01*
X147570Y094826D02*
X147600D01*
X135207Y094660D02*
X135571Y095025D01*
X146041Y094766D02*
X146101Y094826D01*
X161130Y065252D02*
Y066438D01*
X163415Y065474D02*
X164489Y064399D01*
X162336Y065474D02*
X163415D01*
X162280Y065418D02*
X162336Y065474D01*
X151650Y083128D02*
Y091168D01*
X148110Y094708D02*
X151650Y091168D01*
X148090Y094708D02*
X148110D01*
X151950Y083438D02*
Y091388D01*
X151170Y092168D02*
X151950Y091388D01*
X151170Y092168D02*
Y093738D01*
X151670Y092118D02*
Y093738D01*
X152700Y083428D02*
Y091638D01*
X152170Y092168D02*
X152700Y091638D01*
X152170Y092168D02*
Y093908D01*
X152660Y092208D02*
Y093908D01*
X152985Y083054D02*
Y083652D01*
X145097Y094094D02*
Y094708D01*
X143145Y092141D02*
X145097Y094094D01*
X152985Y083054D02*
X153000Y083038D01*
X147600Y094708D02*
X151240Y091068D01*
Y083298D02*
Y091068D01*
X152910Y080930D02*
Y080988D01*
X140500Y083726D02*
X140501Y083725D01*
X140860Y083100D02*
X140964Y082997D01*
X146101Y094757D02*
Y094826D01*
X139231Y083883D02*
Y091599D01*
X135570Y094434D02*
X136101Y094966D01*
X130886Y083927D02*
Y092840D01*
X130235Y083440D02*
Y093273D01*
X130886Y092840D02*
X131820Y093775D01*
X130235Y093273D02*
X130796Y093834D01*
X118660Y086698D02*
X118670Y086688D01*
X131584Y081403D02*
X132401Y082219D01*
X132391Y087183D02*
X132910Y087702D01*
X136604Y094967D02*
Y095004D01*
X135600Y094967D02*
Y094995D01*
X135571Y095025D02*
X135600Y094995D01*
X132910Y087702D02*
X135038D01*
X131300Y093777D02*
Y094544D01*
X130886Y083927D02*
X130904Y083908D01*
Y083519D02*
Y083908D01*
X130858Y083424D02*
X130905Y083471D01*
X130796Y093834D02*
Y094168D01*
X130857Y083471D02*
X130904Y083519D01*
X131820Y093775D02*
Y094277D01*
X156368Y087694D02*
X156860Y087202D01*
X147548Y087694D02*
X148040Y087202D01*
X122943Y087694D02*
X126237D01*
X122214Y086965D02*
X122943Y087694D01*
X126237D02*
X126721Y087210D01*
X135038Y087702D02*
X135540Y087200D01*
X117540Y059608D02*
X117806Y059342D01*
X145902Y078786D02*
X146244Y079128D01*
X140284Y081363D02*
X140491D01*
X142866Y083738D01*
X143220Y088878D02*
X143830Y088268D01*
Y084278D02*
Y088268D01*
X141113Y092141D02*
X143145D01*
X139231Y091599D02*
X139625Y091993D01*
X130990Y081058D02*
X132361Y079687D01*
X147317Y079398D02*
X150950D01*
X157218Y072858D02*
X160697Y069379D01*
X133558Y074877D02*
X135173D01*
X135836Y074215D01*
Y073214D02*
Y074215D01*
Y073214D02*
X136191Y072858D01*
X157218D01*
X139835Y079990D02*
X151269D01*
X139532Y079687D02*
X139835Y079990D01*
X151269D02*
X152142Y079117D01*
X145135Y076843D02*
Y078373D01*
X145450Y076713D02*
Y078503D01*
X145293Y076778D02*
Y078438D01*
X145130Y076123D02*
X145760Y075493D01*
X145130Y076123D02*
Y076838D01*
X145135Y076843D01*
X145288Y076773D02*
X145293Y076778D01*
X145288Y076188D02*
Y076773D01*
Y076188D02*
X145825Y075650D01*
X145445Y076253D02*
X145890Y075808D01*
X145445Y076253D02*
Y076708D01*
X145450Y076713D01*
X145603Y076318D02*
Y076642D01*
Y076318D02*
X145956Y075965D01*
X145603Y076642D02*
X145610Y076650D01*
X151942Y073864D02*
Y074188D01*
X145956Y075965D02*
X158123D01*
X145890Y075808D02*
X158039D01*
X145825Y075650D02*
X157973D01*
X145760Y075493D02*
X157905D01*
X150952Y075178D02*
X151942Y074188D01*
X122180Y085540D02*
Y086932D01*
Y085540D02*
X123808Y083912D01*
X124255Y081276D02*
X128876D01*
X129183Y081583D01*
X129465D01*
X124320Y081433D02*
X128811D01*
X124385Y081591D02*
X128746D01*
X122457Y083071D02*
X123945Y081583D01*
X123160Y082593D02*
X124320Y081433D01*
X123390Y082585D02*
Y083457D01*
X122892Y083888D02*
X123222D01*
X123408Y083702D01*
Y083474D02*
Y083702D01*
X123808Y082390D02*
Y083912D01*
X124450Y081748D02*
X128680D01*
X123390Y082585D02*
X124385Y081591D01*
X123808Y082390D02*
X124450Y081748D01*
X141160Y080861D02*
X142017D01*
X140934Y081088D02*
X141160Y080861D01*
X142017D02*
X142243Y081088D01*
X151871D01*
X121662Y086688D02*
Y087062D01*
X121920Y087319D01*
X122156D01*
X122784Y087948D01*
Y089404D01*
X125538Y092158D01*
X127177D01*
X130580Y084139D02*
X130609Y084109D01*
X130580Y084139D02*
Y093056D01*
X131300Y093777D01*
X132656Y082962D02*
Y084412D01*
X132391Y084677D02*
X132656Y084412D01*
X132391Y084677D02*
Y087183D01*
X132233Y084523D02*
Y092371D01*
Y084523D02*
X132401Y084355D01*
Y082219D02*
Y084355D01*
X132076Y083597D02*
X132095Y083578D01*
X132050Y084391D02*
Y092528D01*
Y084391D02*
X132076Y084365D01*
Y083597D02*
Y084365D01*
X136267Y094068D02*
X137164Y094966D01*
X133936Y093744D02*
X134260Y094068D01*
X136267D01*
X132233Y092371D02*
X134109Y094247D01*
X135847D01*
X136604Y095004D01*
X140220Y084378D02*
Y090788D01*
X140068Y083676D02*
Y084226D01*
X140220Y084378D01*
X152981Y083656D02*
X152985Y083652D01*
X152981Y083656D02*
Y091887D01*
X152660Y092208D02*
X152981Y091887D01*
X153257Y083452D02*
X153260Y083448D01*
X153170Y092208D02*
Y093878D01*
Y092208D02*
X153257Y092121D01*
Y083452D02*
Y092121D01*
X153493Y093711D02*
X153690Y093908D01*
X131456Y083510D02*
X131485Y083539D01*
Y092613D01*
X133820Y094948D01*
X152312Y083136D02*
X152380Y083068D01*
X152312Y083136D02*
Y091476D01*
X151670Y092118D02*
X152312Y091476D01*
X153493Y083696D02*
Y093711D01*
X153887Y081305D02*
Y083598D01*
X153157Y080576D02*
X153887Y081305D01*
X153711Y083775D02*
X153887Y083598D01*
X152910Y080988D02*
X153651Y081728D01*
Y083538D01*
X153493Y083696D02*
X153651Y083538D01*
X140216Y092515D02*
X140444Y092286D01*
X134389Y092308D02*
X139271D01*
X139477Y092515D01*
X140216D01*
X140500Y083726D02*
Y090598D01*
X140860Y083100D02*
Y090438D01*
X139910Y084678D02*
X139930Y084658D01*
X139910Y084678D02*
Y090938D01*
X141113Y092141D01*
X139517Y083597D02*
X139595Y083676D01*
Y091285D01*
X139813Y091503D01*
X146640Y094589D02*
Y094708D01*
X146101Y094424D02*
Y094708D01*
X145580Y094248D02*
Y094708D01*
X140220Y090788D02*
X141327Y091895D01*
X143227D01*
X145580Y094248D01*
X140500Y090598D02*
X141511Y091609D01*
X143286D01*
X146101Y094424D01*
X140860Y090438D02*
X141707Y091284D01*
X143336D01*
X146640Y094589D01*
X142866Y083738D02*
Y090392D01*
X147103Y094629D01*
Y094708D01*
X150950Y079398D02*
X151525Y078824D01*
X153924D01*
X154467Y079367D01*
X118500Y071927D02*
Y076361D01*
X122940Y080801D01*
X130073D01*
X118133Y071560D02*
X118500Y071927D01*
X117292Y071324D02*
X117529Y071560D01*
X118133D01*
X117487Y066058D02*
X117790D01*
X117292Y066252D02*
Y071324D01*
Y066252D02*
X117487Y066058D01*
X141630Y081418D02*
Y081928D01*
X141870Y082168D01*
X140836Y073755D02*
X141091Y073499D01*
X142771D01*
X143330Y074058D01*
X140836Y073755D02*
Y074375D01*
X141796Y075336D01*
X157833D01*
D40*
X022903Y036930D02*
X023903D01*
X022903Y035930D02*
Y036930D01*
Y034930D02*
Y035930D01*
Y033930D02*
Y034930D01*
Y032930D02*
Y033930D01*
X035794Y051698D02*
X036040Y051452D01*
X033975Y051412D02*
X034260Y051698D01*
X035794D01*
X033916Y051412D02*
X033975D01*
X013670Y045438D02*
X020410Y052178D01*
X013700Y045438D02*
X015885Y043253D01*
X013670Y045438D02*
X013700D01*
X020410Y052178D02*
X022029D01*
X019723Y019562D02*
X021390Y021229D01*
X019723Y017721D02*
Y019562D01*
X019490Y017488D02*
X019723Y017721D01*
X021390Y021229D02*
Y021311D01*
X036040Y051452D02*
X038316D01*
X075403Y036930D02*
X076403D01*
X075403Y035930D02*
Y036930D01*
Y034930D02*
Y035930D01*
Y033930D02*
Y034930D01*
Y032930D02*
Y033930D01*
X088294Y051698D02*
X088540Y051452D01*
X086475Y051412D02*
X086760Y051698D01*
X088294D01*
X086416Y051412D02*
X086475D01*
X066170Y045438D02*
X072910Y052178D01*
X066200Y045438D02*
X068385Y043253D01*
X066170Y045438D02*
X066200D01*
X072910Y052178D02*
X074529D01*
X072223Y019562D02*
X073890Y021229D01*
X072223Y017721D02*
Y019562D01*
X071990Y017488D02*
X072223Y017721D01*
X073890Y021229D02*
Y021311D01*
X088540Y051452D02*
X090816D01*
X127903Y036930D02*
X128903D01*
X127903Y035930D02*
Y036930D01*
Y034930D02*
Y035930D01*
Y033930D02*
Y034930D01*
Y032930D02*
Y033930D01*
X140794Y051698D02*
X141040Y051452D01*
X138975Y051412D02*
X139260Y051698D01*
X140794D01*
X138916Y051412D02*
X138975D01*
X118670Y045438D02*
X125410Y052178D01*
X118700Y045438D02*
X120885Y043253D01*
X118670Y045438D02*
X118700D01*
X125410Y052178D02*
X127029D01*
X124723Y019562D02*
X126390Y021229D01*
X124723Y017721D02*
Y019562D01*
X124490Y017488D02*
X124723Y017721D01*
X126390Y021229D02*
Y021311D01*
X141040Y051452D02*
X143316D01*
X022903Y078180D02*
X023903D01*
X022903Y077180D02*
Y078180D01*
Y076180D02*
Y077180D01*
Y075180D02*
Y076180D01*
Y074180D02*
Y075180D01*
X035794Y092948D02*
X036040Y092702D01*
X033975Y092662D02*
X034260Y092948D01*
X035794D01*
X033916Y092662D02*
X033975D01*
X013670Y086688D02*
X020410Y093428D01*
X013700Y086688D02*
X015885Y084503D01*
X013670Y086688D02*
X013700D01*
X020410Y093428D02*
X022029D01*
X019723Y060812D02*
X021390Y062479D01*
X019723Y058971D02*
Y060812D01*
X019490Y058738D02*
X019723Y058971D01*
X021390Y062479D02*
Y062561D01*
X036040Y092702D02*
X038316D01*
X075403Y078180D02*
X076403D01*
X075403Y077180D02*
Y078180D01*
Y076180D02*
Y077180D01*
Y075180D02*
Y076180D01*
Y074180D02*
Y075180D01*
X088294Y092948D02*
X088540Y092702D01*
X086475Y092662D02*
X086760Y092948D01*
X088294D01*
X086416Y092662D02*
X086475D01*
X066170Y086688D02*
X072910Y093428D01*
X066200Y086688D02*
X068385Y084503D01*
X066170Y086688D02*
X066200D01*
X072910Y093428D02*
X074529D01*
X072223Y060812D02*
X073890Y062479D01*
X072223Y058971D02*
Y060812D01*
X071990Y058738D02*
X072223Y058971D01*
X073890Y062479D02*
Y062561D01*
X088540Y092702D02*
X090816D01*
X127903Y078180D02*
X128903D01*
X127903Y077180D02*
Y078180D01*
Y076180D02*
Y077180D01*
Y075180D02*
Y076180D01*
Y074180D02*
Y075180D01*
X140794Y092948D02*
X141040Y092702D01*
X138975Y092662D02*
X139260Y092948D01*
X140794D01*
X138916Y092662D02*
X138975D01*
X118670Y086688D02*
X125410Y093428D01*
X118700Y086688D02*
X120885Y084503D01*
X118670Y086688D02*
X118700D01*
X125410Y093428D02*
X127029D01*
X124723Y060812D02*
X126390Y062479D01*
X124723Y058971D02*
Y060812D01*
X124490Y058738D02*
X124723Y058971D01*
X126390Y062479D02*
Y062561D01*
X141040Y092702D02*
X143316D01*
D42*
X037080Y035348D02*
X038040Y036308D01*
X034150Y035348D02*
X037080D01*
X033748Y035751D02*
X034150Y035348D01*
X019830Y022658D02*
X019850Y022638D01*
X019960D01*
X021300Y023978D01*
Y027988D01*
X033110Y036308D02*
X036040D01*
X032330Y035528D02*
X033110Y036308D01*
X031000Y037328D02*
X033720D01*
X030550Y036878D02*
X031000Y037328D01*
X030550Y036188D02*
Y036878D01*
Y036188D02*
X031330Y035408D01*
Y032808D02*
Y035408D01*
X032330Y032808D02*
Y035528D01*
X031670Y036188D02*
X032330Y035528D01*
X021820Y031838D02*
X024910D01*
X021300Y031318D02*
X021820Y031838D01*
X024910D02*
X025230D01*
X024910D02*
Y032564D01*
X025740Y033394D01*
X025694Y031508D02*
X026223D01*
X025694D02*
X025694Y031508D01*
X025560D02*
X025694D01*
X025230Y031838D02*
X025560Y031508D01*
X025740Y033394D02*
Y036208D01*
X026505Y029994D02*
X026640Y030130D01*
Y031090D01*
Y031926D02*
X027523Y032808D01*
X030290D01*
X021307Y027981D02*
X023306D01*
X021300Y027988D02*
X021307Y027981D01*
X021300Y027988D02*
Y031318D01*
X089580Y035348D02*
X090540Y036308D01*
X086650Y035348D02*
X089580D01*
X086248Y035751D02*
X086650Y035348D01*
X072330Y022658D02*
X072350Y022638D01*
X072460D01*
X073800Y023978D01*
Y027988D01*
X085610Y036308D02*
X088540D01*
X084830Y035528D02*
X085610Y036308D01*
X083500Y037328D02*
X086220D01*
X083050Y036878D02*
X083500Y037328D01*
X083050Y036188D02*
Y036878D01*
Y036188D02*
X083830Y035408D01*
Y032808D02*
Y035408D01*
X084830Y032808D02*
Y035528D01*
X084170Y036188D02*
X084830Y035528D01*
X074320Y031838D02*
X077410D01*
X073800Y031318D02*
X074320Y031838D01*
X077410D02*
X077730D01*
X077410D02*
Y032564D01*
X078240Y033394D01*
X078194Y031508D02*
X078723D01*
X078194D02*
X078194Y031508D01*
X078060D02*
X078194D01*
X077730Y031838D02*
X078060Y031508D01*
X078240Y033394D02*
Y036208D01*
X079005Y029994D02*
X079140Y030130D01*
Y031090D01*
Y031926D02*
X080023Y032808D01*
X082790D01*
X073807Y027981D02*
X075806D01*
X073800Y027988D02*
X073807Y027981D01*
X073800Y027988D02*
Y031318D01*
X142080Y035348D02*
X143040Y036308D01*
X139150Y035348D02*
X142080D01*
X138748Y035751D02*
X139150Y035348D01*
X124830Y022658D02*
X124850Y022638D01*
X124960D01*
X126300Y023978D01*
Y027988D01*
X138110Y036308D02*
X141040D01*
X137330Y035528D02*
X138110Y036308D01*
X136000Y037328D02*
X138720D01*
X135550Y036878D02*
X136000Y037328D01*
X135550Y036188D02*
Y036878D01*
Y036188D02*
X136330Y035408D01*
Y032808D02*
Y035408D01*
X137330Y032808D02*
Y035528D01*
X136670Y036188D02*
X137330Y035528D01*
X126820Y031838D02*
X129910D01*
X126300Y031318D02*
X126820Y031838D01*
X129910D02*
X130230D01*
X129910D02*
Y032564D01*
X130740Y033394D01*
X130694Y031508D02*
X131223D01*
X130694D02*
X130694Y031508D01*
X130560D02*
X130694D01*
X130230Y031838D02*
X130560Y031508D01*
X130740Y033394D02*
Y036208D01*
X131505Y029994D02*
X131640Y030130D01*
Y031090D01*
Y031926D02*
X132523Y032808D01*
X135290D01*
X126307Y027981D02*
X128306D01*
X126300Y027988D02*
X126307Y027981D01*
X126300Y027988D02*
Y031318D01*
X037080Y076598D02*
X038040Y077558D01*
X034150Y076598D02*
X037080D01*
X033748Y077001D02*
X034150Y076598D01*
X019830Y063908D02*
X019850Y063888D01*
X019960D01*
X021300Y065228D01*
Y069238D01*
X033110Y077558D02*
X036040D01*
X032330Y076778D02*
X033110Y077558D01*
X031000Y078578D02*
X033720D01*
X030550Y078128D02*
X031000Y078578D01*
X030550Y077438D02*
Y078128D01*
Y077438D02*
X031330Y076658D01*
Y074058D02*
Y076658D01*
X032330Y074058D02*
Y076778D01*
X031670Y077438D02*
X032330Y076778D01*
X021820Y073088D02*
X024910D01*
X021300Y072568D02*
X021820Y073088D01*
X024910D02*
X025230D01*
X024910D02*
Y073814D01*
X025740Y074644D01*
X025694Y072758D02*
X026223D01*
X025694D02*
X025694Y072758D01*
X025560D02*
X025694D01*
X025230Y073088D02*
X025560Y072758D01*
X025740Y074644D02*
Y077458D01*
X026505Y071244D02*
X026640Y071380D01*
Y072340D01*
Y073176D02*
X027523Y074058D01*
X030290D01*
X021307Y069231D02*
X023306D01*
X021300Y069238D02*
X021307Y069231D01*
X021300Y069238D02*
Y072568D01*
X089580Y076598D02*
X090540Y077558D01*
X086650Y076598D02*
X089580D01*
X086248Y077001D02*
X086650Y076598D01*
X072330Y063908D02*
X072350Y063888D01*
X072460D01*
X073800Y065228D01*
Y069238D01*
X085610Y077558D02*
X088540D01*
X084830Y076778D02*
X085610Y077558D01*
X083500Y078578D02*
X086220D01*
X083050Y078128D02*
X083500Y078578D01*
X083050Y077438D02*
Y078128D01*
Y077438D02*
X083830Y076658D01*
Y074058D02*
Y076658D01*
X084830Y074058D02*
Y076778D01*
X084170Y077438D02*
X084830Y076778D01*
X074320Y073088D02*
X077410D01*
X073800Y072568D02*
X074320Y073088D01*
X077410D02*
X077730D01*
X077410D02*
Y073814D01*
X078240Y074644D01*
X078194Y072758D02*
X078723D01*
X078194D02*
X078194Y072758D01*
X078060D02*
X078194D01*
X077730Y073088D02*
X078060Y072758D01*
X078240Y074644D02*
Y077458D01*
X079005Y071244D02*
X079140Y071380D01*
Y072340D01*
Y073176D02*
X080023Y074058D01*
X082790D01*
X073807Y069231D02*
X075806D01*
X073800Y069238D02*
X073807Y069231D01*
X073800Y069238D02*
Y072568D01*
X142080Y076598D02*
X143040Y077558D01*
X139150Y076598D02*
X142080D01*
X138748Y077001D02*
X139150Y076598D01*
X124830Y063908D02*
X124850Y063888D01*
X124960D01*
X126300Y065228D01*
Y069238D01*
X138110Y077558D02*
X141040D01*
X137330Y076778D02*
X138110Y077558D01*
X136000Y078578D02*
X138720D01*
X135550Y078128D02*
X136000Y078578D01*
X135550Y077438D02*
Y078128D01*
Y077438D02*
X136330Y076658D01*
Y074058D02*
Y076658D01*
X137330Y074058D02*
Y076778D01*
X136670Y077438D02*
X137330Y076778D01*
X126820Y073088D02*
X129910D01*
X126300Y072568D02*
X126820Y073088D01*
X129910D02*
X130230D01*
X129910D02*
Y073814D01*
X130740Y074644D01*
X130694Y072758D02*
X131223D01*
X130694D02*
X130694Y072758D01*
X130560D02*
X130694D01*
X130230Y073088D02*
X130560Y072758D01*
X130740Y074644D02*
Y077458D01*
X131505Y071244D02*
X131640Y071380D01*
Y072340D01*
Y073176D02*
X132523Y074058D01*
X135290D01*
X126307Y069231D02*
X128306D01*
X126300Y069238D02*
X126307Y069231D01*
X126300Y069238D02*
Y072568D01*
D45*
X020934Y021952D02*
X021964Y022981D01*
X023306D01*
X019025Y019621D02*
X020934Y021530D01*
X019025Y018647D02*
Y019621D01*
X018411Y018033D02*
X019025Y018647D01*
X020934Y021530D02*
Y021952D01*
X017607Y018033D02*
X018411D01*
X073434Y021952D02*
X074464Y022981D01*
X075806D01*
X071525Y019621D02*
X073434Y021530D01*
X071525Y018647D02*
Y019621D01*
X070911Y018033D02*
X071525Y018647D01*
X073434Y021530D02*
Y021952D01*
X070107Y018033D02*
X070911D01*
X125934Y021952D02*
X126964Y022981D01*
X128306D01*
X124025Y019621D02*
X125934Y021530D01*
X124025Y018647D02*
Y019621D01*
X123411Y018033D02*
X124025Y018647D01*
X125934Y021530D02*
Y021952D01*
X122607Y018033D02*
X123411D01*
X020934Y063202D02*
X021964Y064231D01*
X023306D01*
X019025Y060871D02*
X020934Y062780D01*
X019025Y059897D02*
Y060871D01*
X018411Y059283D02*
X019025Y059897D01*
X020934Y062780D02*
Y063202D01*
X017607Y059283D02*
X018411D01*
X073434Y063202D02*
X074464Y064231D01*
X075806D01*
X071525Y060871D02*
X073434Y062780D01*
X071525Y059897D02*
Y060871D01*
X070911Y059283D02*
X071525Y059897D01*
X073434Y062780D02*
Y063202D01*
X070107Y059283D02*
X070911D01*
X125934Y063202D02*
X126964Y064231D01*
X128306D01*
X124025Y060871D02*
X125934Y062780D01*
X124025Y059897D02*
Y060871D01*
X123411Y059283D02*
X124025Y059897D01*
X125934Y062780D02*
Y063202D01*
X122607Y059283D02*
X123411D01*
D47*
X026640Y031508D02*
D03*
X079140D02*
D03*
X131640D02*
D03*
X026640Y072758D02*
D03*
X079140D02*
D03*
X131640D02*
D03*
D49*
X012509Y098027D02*
D03*
X166072D02*
D03*
Y012840D02*
D03*
X012509D02*
D03*
D50*
X050286Y048708D02*
D03*
X049597Y047330D02*
D03*
Y045558D02*
D03*
Y043786D02*
D03*
X050286Y042408D02*
D03*
X051860Y042015D02*
D03*
Y049101D02*
D03*
X053435Y048708D02*
D03*
X054124Y047330D02*
D03*
Y045558D02*
D03*
Y043786D02*
D03*
X053435Y042408D02*
D03*
X044615D02*
D03*
X045304Y043786D02*
D03*
Y045558D02*
D03*
Y047330D02*
D03*
X044615Y048708D02*
D03*
X043040Y049101D02*
D03*
Y042015D02*
D03*
X041466Y042408D02*
D03*
X040777Y043786D02*
D03*
Y045558D02*
D03*
Y047330D02*
D03*
X041466Y048708D02*
D03*
X028966Y048716D02*
D03*
X028277Y047338D02*
D03*
Y045566D02*
D03*
Y043794D02*
D03*
X028966Y042416D02*
D03*
X030540Y042023D02*
D03*
Y049109D02*
D03*
X032115Y048716D02*
D03*
X032804Y047338D02*
D03*
Y045566D02*
D03*
Y043794D02*
D03*
X032115Y042416D02*
D03*
X023295Y042408D02*
D03*
X023984Y043786D02*
D03*
Y045558D02*
D03*
Y047330D02*
D03*
X023295Y048708D02*
D03*
X021720Y049101D02*
D03*
Y042015D02*
D03*
X020146Y042408D02*
D03*
X019457Y043786D02*
D03*
Y045558D02*
D03*
Y047330D02*
D03*
X020146Y048708D02*
D03*
X102786D02*
D03*
X102097Y047330D02*
D03*
Y045558D02*
D03*
Y043786D02*
D03*
X102786Y042408D02*
D03*
X104360Y042015D02*
D03*
Y049101D02*
D03*
X105935Y048708D02*
D03*
X106624Y047330D02*
D03*
Y045558D02*
D03*
Y043786D02*
D03*
X105935Y042408D02*
D03*
X097115D02*
D03*
X097804Y043786D02*
D03*
Y045558D02*
D03*
Y047330D02*
D03*
X097115Y048708D02*
D03*
X095540Y049101D02*
D03*
Y042015D02*
D03*
X093966Y042408D02*
D03*
X093277Y043786D02*
D03*
Y045558D02*
D03*
Y047330D02*
D03*
X093966Y048708D02*
D03*
X081466Y048716D02*
D03*
X080777Y047338D02*
D03*
Y045566D02*
D03*
Y043794D02*
D03*
X081466Y042416D02*
D03*
X083040Y042023D02*
D03*
Y049109D02*
D03*
X084615Y048716D02*
D03*
X085304Y047338D02*
D03*
Y045566D02*
D03*
Y043794D02*
D03*
X084615Y042416D02*
D03*
X075795Y042408D02*
D03*
X076484Y043786D02*
D03*
Y045558D02*
D03*
Y047330D02*
D03*
X075795Y048708D02*
D03*
X074220Y049101D02*
D03*
Y042015D02*
D03*
X072646Y042408D02*
D03*
X071957Y043786D02*
D03*
Y045558D02*
D03*
Y047330D02*
D03*
X072646Y048708D02*
D03*
X155286D02*
D03*
X154597Y047330D02*
D03*
Y045558D02*
D03*
Y043786D02*
D03*
X155286Y042408D02*
D03*
X156860Y042015D02*
D03*
Y049101D02*
D03*
X158435Y048708D02*
D03*
X159124Y047330D02*
D03*
Y045558D02*
D03*
Y043786D02*
D03*
X158435Y042408D02*
D03*
X149615D02*
D03*
X150304Y043786D02*
D03*
Y045558D02*
D03*
Y047330D02*
D03*
X149615Y048708D02*
D03*
X148040Y049101D02*
D03*
Y042015D02*
D03*
X146466Y042408D02*
D03*
X145777Y043786D02*
D03*
Y045558D02*
D03*
Y047330D02*
D03*
X146466Y048708D02*
D03*
X133966Y048716D02*
D03*
X133277Y047338D02*
D03*
Y045566D02*
D03*
Y043794D02*
D03*
X133966Y042416D02*
D03*
X135540Y042023D02*
D03*
Y049109D02*
D03*
X137115Y048716D02*
D03*
X137804Y047338D02*
D03*
Y045566D02*
D03*
Y043794D02*
D03*
X137115Y042416D02*
D03*
X128295Y042408D02*
D03*
X128984Y043786D02*
D03*
Y045558D02*
D03*
Y047330D02*
D03*
X128295Y048708D02*
D03*
X126720Y049101D02*
D03*
Y042015D02*
D03*
X125146Y042408D02*
D03*
X124457Y043786D02*
D03*
Y045558D02*
D03*
Y047330D02*
D03*
X125146Y048708D02*
D03*
X050286Y089958D02*
D03*
X049597Y088580D02*
D03*
Y086808D02*
D03*
Y085036D02*
D03*
X050286Y083658D02*
D03*
X051860Y083265D02*
D03*
Y090351D02*
D03*
X053435Y089958D02*
D03*
X054124Y088580D02*
D03*
Y086808D02*
D03*
Y085036D02*
D03*
X053435Y083658D02*
D03*
X044615D02*
D03*
X045304Y085036D02*
D03*
Y086808D02*
D03*
Y088580D02*
D03*
X044615Y089958D02*
D03*
X043040Y090351D02*
D03*
Y083265D02*
D03*
X041466Y083658D02*
D03*
X040777Y085036D02*
D03*
Y086808D02*
D03*
Y088580D02*
D03*
X041466Y089958D02*
D03*
X028966Y089966D02*
D03*
X028277Y088588D02*
D03*
Y086816D02*
D03*
Y085044D02*
D03*
X028966Y083666D02*
D03*
X030540Y083273D02*
D03*
Y090359D02*
D03*
X032115Y089966D02*
D03*
X032804Y088588D02*
D03*
Y086816D02*
D03*
Y085044D02*
D03*
X032115Y083666D02*
D03*
X023295Y083658D02*
D03*
X023984Y085036D02*
D03*
Y086808D02*
D03*
Y088580D02*
D03*
X023295Y089958D02*
D03*
X021720Y090351D02*
D03*
Y083265D02*
D03*
X020146Y083658D02*
D03*
X019457Y085036D02*
D03*
Y086808D02*
D03*
Y088580D02*
D03*
X020146Y089958D02*
D03*
X102786D02*
D03*
X102097Y088580D02*
D03*
Y086808D02*
D03*
Y085036D02*
D03*
X102786Y083658D02*
D03*
X104360Y083265D02*
D03*
Y090351D02*
D03*
X105935Y089958D02*
D03*
X106624Y088580D02*
D03*
Y086808D02*
D03*
Y085036D02*
D03*
X105935Y083658D02*
D03*
X097115D02*
D03*
X097804Y085036D02*
D03*
Y086808D02*
D03*
Y088580D02*
D03*
X097115Y089958D02*
D03*
X095540Y090351D02*
D03*
Y083265D02*
D03*
X093966Y083658D02*
D03*
X093277Y085036D02*
D03*
Y086808D02*
D03*
Y088580D02*
D03*
X093966Y089958D02*
D03*
X081466Y089966D02*
D03*
X080777Y088588D02*
D03*
Y086816D02*
D03*
Y085044D02*
D03*
X081466Y083666D02*
D03*
X083040Y083273D02*
D03*
Y090359D02*
D03*
X084615Y089966D02*
D03*
X085304Y088588D02*
D03*
Y086816D02*
D03*
Y085044D02*
D03*
X084615Y083666D02*
D03*
X075795Y083658D02*
D03*
X076484Y085036D02*
D03*
Y086808D02*
D03*
Y088580D02*
D03*
X075795Y089958D02*
D03*
X074220Y090351D02*
D03*
Y083265D02*
D03*
X072646Y083658D02*
D03*
X071957Y085036D02*
D03*
Y086808D02*
D03*
Y088580D02*
D03*
X072646Y089958D02*
D03*
X155286D02*
D03*
X154597Y088580D02*
D03*
Y086808D02*
D03*
Y085036D02*
D03*
X155286Y083658D02*
D03*
X156860Y083265D02*
D03*
Y090351D02*
D03*
X158435Y089958D02*
D03*
X159124Y088580D02*
D03*
Y086808D02*
D03*
Y085036D02*
D03*
X158435Y083658D02*
D03*
X149615D02*
D03*
X150304Y085036D02*
D03*
Y086808D02*
D03*
Y088580D02*
D03*
X149615Y089958D02*
D03*
X148040Y090351D02*
D03*
Y083265D02*
D03*
X146466Y083658D02*
D03*
X145777Y085036D02*
D03*
Y086808D02*
D03*
Y088580D02*
D03*
X146466Y089958D02*
D03*
X133966Y089966D02*
D03*
X133277Y088588D02*
D03*
Y086816D02*
D03*
Y085044D02*
D03*
X133966Y083666D02*
D03*
X135540Y083273D02*
D03*
Y090359D02*
D03*
X137115Y089966D02*
D03*
X137804Y088588D02*
D03*
Y086816D02*
D03*
Y085044D02*
D03*
X137115Y083666D02*
D03*
X128295Y083658D02*
D03*
X128984Y085036D02*
D03*
Y086808D02*
D03*
Y088580D02*
D03*
X128295Y089958D02*
D03*
X126720Y090351D02*
D03*
Y083265D02*
D03*
X125146Y083658D02*
D03*
X124457Y085036D02*
D03*
Y086808D02*
D03*
Y088580D02*
D03*
X125146Y089958D02*
D03*
D51*
X012790Y023808D02*
D03*
Y024808D02*
D03*
Y025808D02*
D03*
Y026808D02*
D03*
Y027808D02*
D03*
Y028808D02*
D03*
Y029808D02*
D03*
Y030808D02*
D03*
X018790D02*
D03*
Y029808D02*
D03*
Y028808D02*
D03*
Y027808D02*
D03*
Y026808D02*
D03*
Y025808D02*
D03*
Y024808D02*
D03*
Y023808D02*
D03*
X023306Y029981D02*
D03*
Y028981D02*
D03*
Y027981D02*
D03*
Y026981D02*
D03*
Y025981D02*
D03*
Y024981D02*
D03*
Y023981D02*
D03*
Y022981D02*
D03*
Y021981D02*
D03*
X046959Y035608D02*
D03*
X044990Y037108D02*
D03*
X043022Y035608D02*
D03*
X065290Y023808D02*
D03*
Y024808D02*
D03*
Y025808D02*
D03*
Y026808D02*
D03*
Y027808D02*
D03*
Y028808D02*
D03*
Y029808D02*
D03*
Y030808D02*
D03*
X071290D02*
D03*
Y029808D02*
D03*
Y028808D02*
D03*
Y027808D02*
D03*
Y026808D02*
D03*
Y025808D02*
D03*
Y024808D02*
D03*
Y023808D02*
D03*
X075806Y029981D02*
D03*
Y028981D02*
D03*
Y027981D02*
D03*
Y026981D02*
D03*
Y025981D02*
D03*
Y024981D02*
D03*
Y023981D02*
D03*
Y022981D02*
D03*
Y021981D02*
D03*
X099459Y035608D02*
D03*
X097490Y037108D02*
D03*
X095522Y035608D02*
D03*
X117790Y023808D02*
D03*
Y024808D02*
D03*
Y025808D02*
D03*
Y026808D02*
D03*
Y027808D02*
D03*
Y028808D02*
D03*
Y029808D02*
D03*
Y030808D02*
D03*
X123790D02*
D03*
Y029808D02*
D03*
Y028808D02*
D03*
Y027808D02*
D03*
Y026808D02*
D03*
Y025808D02*
D03*
Y024808D02*
D03*
Y023808D02*
D03*
X128306Y029981D02*
D03*
Y028981D02*
D03*
Y027981D02*
D03*
Y026981D02*
D03*
Y025981D02*
D03*
Y024981D02*
D03*
Y023981D02*
D03*
Y022981D02*
D03*
Y021981D02*
D03*
X151959Y035608D02*
D03*
X149990Y037108D02*
D03*
X148022Y035608D02*
D03*
X012790Y065058D02*
D03*
Y066058D02*
D03*
Y067058D02*
D03*
Y068058D02*
D03*
Y069058D02*
D03*
Y070058D02*
D03*
Y071058D02*
D03*
Y072058D02*
D03*
X018790D02*
D03*
Y071058D02*
D03*
Y070058D02*
D03*
Y069058D02*
D03*
Y068058D02*
D03*
Y067058D02*
D03*
Y066058D02*
D03*
Y065058D02*
D03*
X023306Y071231D02*
D03*
Y070231D02*
D03*
Y069231D02*
D03*
Y068231D02*
D03*
Y067231D02*
D03*
Y066231D02*
D03*
Y065231D02*
D03*
Y064231D02*
D03*
Y063231D02*
D03*
X046959Y076858D02*
D03*
X044990Y078358D02*
D03*
X043022Y076858D02*
D03*
X065290Y065058D02*
D03*
Y066058D02*
D03*
Y067058D02*
D03*
Y068058D02*
D03*
Y069058D02*
D03*
Y070058D02*
D03*
Y071058D02*
D03*
Y072058D02*
D03*
X071290D02*
D03*
Y071058D02*
D03*
Y070058D02*
D03*
Y069058D02*
D03*
Y068058D02*
D03*
Y067058D02*
D03*
Y066058D02*
D03*
Y065058D02*
D03*
X075806Y071231D02*
D03*
Y070231D02*
D03*
Y069231D02*
D03*
Y068231D02*
D03*
Y067231D02*
D03*
Y066231D02*
D03*
Y065231D02*
D03*
Y064231D02*
D03*
Y063231D02*
D03*
X099459Y076858D02*
D03*
X097490Y078358D02*
D03*
X095522Y076858D02*
D03*
X117790Y065058D02*
D03*
Y066058D02*
D03*
Y067058D02*
D03*
Y068058D02*
D03*
Y069058D02*
D03*
Y070058D02*
D03*
Y071058D02*
D03*
Y072058D02*
D03*
X123790D02*
D03*
Y071058D02*
D03*
Y070058D02*
D03*
Y069058D02*
D03*
Y068058D02*
D03*
Y067058D02*
D03*
Y066058D02*
D03*
Y065058D02*
D03*
X128306Y071231D02*
D03*
Y070231D02*
D03*
Y069231D02*
D03*
Y068231D02*
D03*
Y067231D02*
D03*
Y066231D02*
D03*
Y065231D02*
D03*
Y064231D02*
D03*
Y063231D02*
D03*
X151959Y076858D02*
D03*
X149990Y078358D02*
D03*
X148022Y076858D02*
D03*
D52*
X022903Y037930D02*
D03*
X023903D02*
D03*
Y036930D02*
D03*
X038330Y032808D02*
D03*
X037330D02*
D03*
X036330D02*
D03*
X035330D02*
D03*
X034330D02*
D03*
X033330D02*
D03*
X032330D02*
D03*
X031330D02*
D03*
X030330D02*
D03*
X040410D02*
D03*
X041410D02*
D03*
X042410D02*
D03*
X043410D02*
D03*
X044410D02*
D03*
X045410D02*
D03*
X046410D02*
D03*
X047410D02*
D03*
X048410D02*
D03*
X075403Y037930D02*
D03*
X076403D02*
D03*
Y036930D02*
D03*
X090830Y032808D02*
D03*
X089830D02*
D03*
X088830D02*
D03*
X087830D02*
D03*
X086830D02*
D03*
X085830D02*
D03*
X084830D02*
D03*
X083830D02*
D03*
X082830D02*
D03*
X092910D02*
D03*
X093910D02*
D03*
X094910D02*
D03*
X095910D02*
D03*
X096910D02*
D03*
X097910D02*
D03*
X098910D02*
D03*
X099910D02*
D03*
X100910D02*
D03*
X127903Y037930D02*
D03*
X128903D02*
D03*
Y036930D02*
D03*
X143330Y032808D02*
D03*
X142330D02*
D03*
X141330D02*
D03*
X140330D02*
D03*
X139330D02*
D03*
X138330D02*
D03*
X137330D02*
D03*
X136330D02*
D03*
X135330D02*
D03*
X145410D02*
D03*
X146410D02*
D03*
X147410D02*
D03*
X148410D02*
D03*
X149410D02*
D03*
X150410D02*
D03*
X151410D02*
D03*
X152410D02*
D03*
X153410D02*
D03*
X022903Y079180D02*
D03*
X023903D02*
D03*
Y078180D02*
D03*
X038330Y074058D02*
D03*
X037330D02*
D03*
X036330D02*
D03*
X035330D02*
D03*
X034330D02*
D03*
X033330D02*
D03*
X032330D02*
D03*
X031330D02*
D03*
X030330D02*
D03*
X040410D02*
D03*
X041410D02*
D03*
X042410D02*
D03*
X043410D02*
D03*
X044410D02*
D03*
X045410D02*
D03*
X046410D02*
D03*
X047410D02*
D03*
X048410D02*
D03*
X075403Y079180D02*
D03*
X076403D02*
D03*
Y078180D02*
D03*
X090830Y074058D02*
D03*
X089830D02*
D03*
X088830D02*
D03*
X087830D02*
D03*
X086830D02*
D03*
X085830D02*
D03*
X084830D02*
D03*
X083830D02*
D03*
X082830D02*
D03*
X092910D02*
D03*
X093910D02*
D03*
X094910D02*
D03*
X095910D02*
D03*
X096910D02*
D03*
X097910D02*
D03*
X098910D02*
D03*
X099910D02*
D03*
X100910D02*
D03*
X127903Y079180D02*
D03*
X128903D02*
D03*
Y078180D02*
D03*
X143330Y074058D02*
D03*
X142330D02*
D03*
X141330D02*
D03*
X140330D02*
D03*
X139330D02*
D03*
X138330D02*
D03*
X137330D02*
D03*
X136330D02*
D03*
X135330D02*
D03*
X145410D02*
D03*
X146410D02*
D03*
X147410D02*
D03*
X148410D02*
D03*
X149410D02*
D03*
X150410D02*
D03*
X151410D02*
D03*
X152410D02*
D03*
X153410D02*
D03*
D53*
X022903Y036930D02*
D03*
Y035930D02*
D03*
Y034930D02*
D03*
Y033930D02*
D03*
Y032930D02*
D03*
X023887Y035930D02*
D03*
X023903Y034930D02*
D03*
Y033930D02*
D03*
Y032930D02*
D03*
X075403Y036930D02*
D03*
Y035930D02*
D03*
Y034930D02*
D03*
Y033930D02*
D03*
Y032930D02*
D03*
X076387Y035930D02*
D03*
X076403Y034930D02*
D03*
Y033930D02*
D03*
Y032930D02*
D03*
X127903Y036930D02*
D03*
Y035930D02*
D03*
Y034930D02*
D03*
Y033930D02*
D03*
Y032930D02*
D03*
X128887Y035930D02*
D03*
X128903Y034930D02*
D03*
Y033930D02*
D03*
Y032930D02*
D03*
X022903Y078180D02*
D03*
Y077180D02*
D03*
Y076180D02*
D03*
Y075180D02*
D03*
Y074180D02*
D03*
X023887Y077180D02*
D03*
X023903Y076180D02*
D03*
Y075180D02*
D03*
Y074180D02*
D03*
X075403Y078180D02*
D03*
Y077180D02*
D03*
Y076180D02*
D03*
Y075180D02*
D03*
Y074180D02*
D03*
X076387Y077180D02*
D03*
X076403Y076180D02*
D03*
Y075180D02*
D03*
Y074180D02*
D03*
X127903Y078180D02*
D03*
Y077180D02*
D03*
Y076180D02*
D03*
Y075180D02*
D03*
Y074180D02*
D03*
X128887Y077180D02*
D03*
X128903Y076180D02*
D03*
Y075180D02*
D03*
Y074180D02*
D03*
D54*
X039330Y032808D02*
D03*
X049410D02*
D03*
X091830D02*
D03*
X101910D02*
D03*
X144330D02*
D03*
X154410D02*
D03*
X039330Y074058D02*
D03*
X049410D02*
D03*
X091830D02*
D03*
X101910D02*
D03*
X144330D02*
D03*
X154410D02*
D03*
D55*
X011940Y020648D02*
D03*
X013279Y016199D02*
D03*
X012413Y019428D02*
D03*
Y018443D02*
D03*
Y017459D02*
D03*
X064440Y020648D02*
D03*
X065779Y016199D02*
D03*
X064913Y019428D02*
D03*
Y018443D02*
D03*
Y017459D02*
D03*
X116940Y020648D02*
D03*
X118279Y016199D02*
D03*
X117413Y019428D02*
D03*
Y018443D02*
D03*
Y017459D02*
D03*
X011940Y061898D02*
D03*
X013279Y057449D02*
D03*
X012413Y060678D02*
D03*
Y059693D02*
D03*
Y058709D02*
D03*
X064440Y061898D02*
D03*
X065779Y057449D02*
D03*
X064913Y060678D02*
D03*
Y059693D02*
D03*
Y058709D02*
D03*
X116940Y061898D02*
D03*
X118279Y057449D02*
D03*
X117413Y060678D02*
D03*
Y059693D02*
D03*
Y058709D02*
D03*
D56*
X026223Y031508D02*
D03*
X026640Y031926D02*
D03*
Y031090D02*
D03*
X027058Y031508D02*
D03*
X078723D02*
D03*
X079140Y031926D02*
D03*
Y031090D02*
D03*
X079558Y031508D02*
D03*
X131223D02*
D03*
X131640Y031926D02*
D03*
Y031090D02*
D03*
X132058Y031508D02*
D03*
X026223Y072758D02*
D03*
X026640Y073176D02*
D03*
Y072340D02*
D03*
X027058Y072758D02*
D03*
X078723D02*
D03*
X079140Y073176D02*
D03*
Y072340D02*
D03*
X079558Y072758D02*
D03*
X131223D02*
D03*
X131640Y073176D02*
D03*
Y072340D02*
D03*
X132058Y072758D02*
D03*
D57*
X058040Y032308D02*
D03*
X012103Y040746D02*
D03*
Y053246D02*
D03*
X061478Y053246D02*
D03*
Y040746D02*
D03*
X036790Y053246D02*
D03*
X015540Y033308D02*
D03*
X110540Y032308D02*
D03*
X064603Y040746D02*
D03*
Y053246D02*
D03*
X113978Y053246D02*
D03*
Y040746D02*
D03*
X089290Y053246D02*
D03*
X068040Y033308D02*
D03*
X163040Y032308D02*
D03*
X117103Y040746D02*
D03*
Y053246D02*
D03*
X166478Y053246D02*
D03*
Y040746D02*
D03*
X141790Y053246D02*
D03*
X120540Y033308D02*
D03*
X058040Y073558D02*
D03*
X012103Y081996D02*
D03*
Y094496D02*
D03*
X061478Y094496D02*
D03*
Y081996D02*
D03*
X036790Y094496D02*
D03*
X015540Y074558D02*
D03*
X110540Y073558D02*
D03*
X064603Y081996D02*
D03*
Y094496D02*
D03*
X113978Y094496D02*
D03*
Y081996D02*
D03*
X089290Y094496D02*
D03*
X068040Y074558D02*
D03*
X163040Y073558D02*
D03*
X117103Y081996D02*
D03*
Y094496D02*
D03*
X166478Y094496D02*
D03*
Y081996D02*
D03*
X141790Y094496D02*
D03*
X120540Y074558D02*
D03*
D58*
X021721Y045172D02*
D03*
X030540Y045162D02*
D03*
X043040Y045164D02*
D03*
X051860D02*
D03*
X074221Y045172D02*
D03*
X083040Y045162D02*
D03*
X095540Y045164D02*
D03*
X104360D02*
D03*
X126721Y045172D02*
D03*
X135540Y045162D02*
D03*
X148040Y045164D02*
D03*
X156860D02*
D03*
X021721Y086422D02*
D03*
X030540Y086412D02*
D03*
X043040Y086414D02*
D03*
X051860D02*
D03*
X074221Y086422D02*
D03*
X083040Y086412D02*
D03*
X095540Y086414D02*
D03*
X104360D02*
D03*
X126721Y086422D02*
D03*
X135540Y086412D02*
D03*
X148040Y086414D02*
D03*
X156860D02*
D03*
D59*
X021721Y045960D02*
D03*
X030540Y045950D02*
D03*
X043040Y045952D02*
D03*
X051860D02*
D03*
X074221Y045960D02*
D03*
X083040Y045950D02*
D03*
X095540Y045952D02*
D03*
X104360D02*
D03*
X126721Y045960D02*
D03*
X135540Y045950D02*
D03*
X148040Y045952D02*
D03*
X156860D02*
D03*
X021721Y087210D02*
D03*
X030540Y087200D02*
D03*
X043040Y087202D02*
D03*
X051860D02*
D03*
X074221Y087210D02*
D03*
X083040Y087200D02*
D03*
X095540Y087202D02*
D03*
X104360D02*
D03*
X126721Y087210D02*
D03*
X135540Y087200D02*
D03*
X148040Y087202D02*
D03*
X156860D02*
D03*
D60*
X061250Y030418D02*
D03*
X113750D02*
D03*
X166250D02*
D03*
X061250Y071668D02*
D03*
X113750D02*
D03*
X166250D02*
D03*
D61*
X061250Y031418D02*
D03*
Y032418D02*
D03*
Y033418D02*
D03*
Y034418D02*
D03*
Y035418D02*
D03*
X113750Y031418D02*
D03*
Y032418D02*
D03*
Y033418D02*
D03*
Y034418D02*
D03*
Y035418D02*
D03*
X166250Y031418D02*
D03*
Y032418D02*
D03*
Y033418D02*
D03*
Y034418D02*
D03*
Y035418D02*
D03*
X061250Y072668D02*
D03*
Y073668D02*
D03*
Y074668D02*
D03*
Y075668D02*
D03*
Y076668D02*
D03*
X113750Y072668D02*
D03*
Y073668D02*
D03*
Y074668D02*
D03*
Y075668D02*
D03*
Y076668D02*
D03*
X166250Y072668D02*
D03*
Y073668D02*
D03*
Y074668D02*
D03*
Y075668D02*
D03*
Y076668D02*
D03*
D62*
X036790Y047025D02*
D03*
Y049092D02*
D03*
Y044092D02*
D03*
Y042025D02*
D03*
X089290Y047025D02*
D03*
Y049092D02*
D03*
Y044092D02*
D03*
Y042025D02*
D03*
X141790Y047025D02*
D03*
Y049092D02*
D03*
Y044092D02*
D03*
Y042025D02*
D03*
X036790Y088275D02*
D03*
Y090342D02*
D03*
Y085342D02*
D03*
Y083275D02*
D03*
X089290Y088275D02*
D03*
Y090342D02*
D03*
Y085342D02*
D03*
Y083275D02*
D03*
X141790Y088275D02*
D03*
Y090342D02*
D03*
Y085342D02*
D03*
Y083275D02*
D03*
D63*
X057912Y023420D02*
D03*
X058306Y022958D02*
D03*
X058719Y022542D02*
D03*
X059881Y022790D02*
D03*
X033748Y035751D02*
D03*
X033720Y037328D02*
D03*
X033570Y034968D02*
D03*
X031670Y036188D02*
D03*
X030550D02*
D03*
X039440Y035038D02*
D03*
X016938Y024129D02*
D03*
X015944Y024149D02*
D03*
X015058D02*
D03*
X014379Y024168D02*
D03*
X023910Y030808D02*
D03*
X014251Y021501D02*
D03*
X016320Y018092D02*
D03*
X047910Y039680D02*
D03*
X058310Y026948D02*
D03*
X061540Y025498D02*
D03*
X059867Y026607D02*
D03*
X059160Y025618D02*
D03*
X058120Y026298D02*
D03*
X055820Y028618D02*
D03*
X058967Y029997D02*
D03*
X059407Y030147D02*
D03*
X038830Y043028D02*
D03*
X034813Y050253D02*
D03*
X052870Y039058D02*
D03*
X025990Y039808D02*
D03*
X025600Y040178D02*
D03*
X015885Y043253D02*
D03*
X024480Y040318D02*
D03*
X017737Y042627D02*
D03*
X057880Y027438D02*
D03*
X034532Y038437D02*
D03*
X055500Y029088D02*
D03*
X026290Y038378D02*
D03*
X053540Y036708D02*
D03*
X058147Y029937D02*
D03*
X057117Y039467D02*
D03*
X017354Y041334D02*
D03*
X034788Y039518D02*
D03*
X051710Y035168D02*
D03*
X058190Y039398D02*
D03*
X047547Y037227D02*
D03*
X057750Y025898D02*
D03*
X059087Y040317D02*
D03*
X017457Y043202D02*
D03*
X047142Y037867D02*
D03*
X026447Y035737D02*
D03*
X055697Y024837D02*
D03*
X053187Y037687D02*
D03*
X057827Y028177D02*
D03*
X057829Y026997D02*
D03*
X055530Y030828D02*
D03*
X056130Y025188D02*
D03*
X057640Y023948D02*
D03*
X057280Y024168D02*
D03*
X059489Y023149D02*
D03*
X059095Y022903D02*
D03*
X054672Y020767D02*
D03*
X062340Y024238D02*
D03*
X056850Y027288D02*
D03*
X056520Y027048D02*
D03*
X055290Y022698D02*
D03*
X013670Y045438D02*
D03*
X047700Y042178D02*
D03*
X048260Y042198D02*
D03*
X048690Y052658D02*
D03*
X059410Y041778D02*
D03*
X046631Y039278D02*
D03*
X034021Y039478D02*
D03*
X038220Y047628D02*
D03*
X047660Y052658D02*
D03*
X048000Y041788D02*
D03*
X047380Y041818D02*
D03*
X046950Y042188D02*
D03*
X046170Y052658D02*
D03*
X046650Y041878D02*
D03*
X047170Y052658D02*
D03*
X046670D02*
D03*
X043090Y053458D02*
D03*
X042570D02*
D03*
X046240Y042048D02*
D03*
X046008Y040950D02*
D03*
X034930Y043408D02*
D03*
X042103Y053458D02*
D03*
X041640D02*
D03*
X041101D02*
D03*
X035284Y040113D02*
D03*
X035964Y041747D02*
D03*
X035501Y042475D02*
D03*
X035068Y042426D02*
D03*
X040580Y053458D02*
D03*
X040097D02*
D03*
X035444Y051036D02*
D03*
X034517Y042347D02*
D03*
X034231Y042633D02*
D03*
X029290Y051156D02*
D03*
X032164Y053716D02*
D03*
X033838Y041983D02*
D03*
X025740Y036208D02*
D03*
X022029Y052178D02*
D03*
X031101Y053716D02*
D03*
X033380Y041220D02*
D03*
X027095Y042328D02*
D03*
X031604Y053717D02*
D03*
X030600D02*
D03*
X030098D02*
D03*
X026161Y042791D02*
D03*
X025858Y042174D02*
D03*
X025235Y042190D02*
D03*
X026800Y042918D02*
D03*
X026456Y042260D02*
D03*
X027300Y053379D02*
D03*
X026820Y053027D02*
D03*
X025609Y042859D02*
D03*
X026300Y053294D02*
D03*
X025796Y052918D02*
D03*
X057627Y044227D02*
D03*
X017214Y045715D02*
D03*
X038316Y051452D02*
D03*
X033916Y051412D02*
D03*
X022952Y050133D02*
D03*
X017056Y046532D02*
D03*
X016662Y045438D02*
D03*
X025275Y053184D02*
D03*
X061055Y020983D02*
D03*
X021390Y021311D02*
D03*
X015250Y018368D02*
D03*
X017607Y018033D02*
D03*
X014840Y020608D02*
D03*
X015240Y022608D02*
D03*
X015740Y020608D02*
D03*
X014140Y022508D02*
D03*
X017240Y022008D02*
D03*
X018340Y022108D02*
D03*
X019040Y022608D02*
D03*
X017640D02*
D03*
X016640D02*
D03*
X019490Y017488D02*
D03*
X041244Y037878D02*
D03*
X034625Y050743D02*
D03*
X036870Y040918D02*
D03*
X036630Y040168D02*
D03*
X024493Y041338D02*
D03*
X026584Y040153D02*
D03*
X018132Y042338D02*
D03*
X017950Y042978D02*
D03*
X048170Y052658D02*
D03*
X013387Y044387D02*
D03*
X110412Y023420D02*
D03*
X110806Y022958D02*
D03*
X111219Y022542D02*
D03*
X112381Y022790D02*
D03*
X086248Y035751D02*
D03*
X086220Y037328D02*
D03*
X086070Y034968D02*
D03*
X084170Y036188D02*
D03*
X083050D02*
D03*
X091940Y035038D02*
D03*
X069438Y024129D02*
D03*
X068444Y024149D02*
D03*
X067558D02*
D03*
X066879Y024168D02*
D03*
X076410Y030808D02*
D03*
X066751Y021501D02*
D03*
X068820Y018092D02*
D03*
X100410Y039680D02*
D03*
X110810Y026948D02*
D03*
X114040Y025498D02*
D03*
X112367Y026607D02*
D03*
X111660Y025618D02*
D03*
X110620Y026298D02*
D03*
X108320Y028618D02*
D03*
X111467Y029997D02*
D03*
X111907Y030147D02*
D03*
X091330Y043028D02*
D03*
X087313Y050253D02*
D03*
X105370Y039058D02*
D03*
X078490Y039808D02*
D03*
X078100Y040178D02*
D03*
X068385Y043253D02*
D03*
X076980Y040318D02*
D03*
X070237Y042627D02*
D03*
X110380Y027438D02*
D03*
X087032Y038437D02*
D03*
X108000Y029088D02*
D03*
X078790Y038378D02*
D03*
X106040Y036708D02*
D03*
X110647Y029937D02*
D03*
X109617Y039467D02*
D03*
X069854Y041334D02*
D03*
X087288Y039518D02*
D03*
X104210Y035168D02*
D03*
X110690Y039398D02*
D03*
X100047Y037227D02*
D03*
X110250Y025898D02*
D03*
X111587Y040317D02*
D03*
X069957Y043202D02*
D03*
X099642Y037867D02*
D03*
X078947Y035737D02*
D03*
X108197Y024837D02*
D03*
X105687Y037687D02*
D03*
X110327Y028177D02*
D03*
X110329Y026997D02*
D03*
X108030Y030828D02*
D03*
X108630Y025188D02*
D03*
X110140Y023948D02*
D03*
X109780Y024168D02*
D03*
X111989Y023149D02*
D03*
X111595Y022903D02*
D03*
X107171Y020767D02*
D03*
X114840Y024238D02*
D03*
X109350Y027288D02*
D03*
X109020Y027048D02*
D03*
X107790Y022698D02*
D03*
X066170Y045438D02*
D03*
X100200Y042178D02*
D03*
X100760Y042198D02*
D03*
X101190Y052658D02*
D03*
X111910Y041778D02*
D03*
X099131Y039278D02*
D03*
X086521Y039478D02*
D03*
X090720Y047628D02*
D03*
X100160Y052658D02*
D03*
X100500Y041788D02*
D03*
X099880Y041818D02*
D03*
X099450Y042188D02*
D03*
X098670Y052658D02*
D03*
X099150Y041878D02*
D03*
X099670Y052658D02*
D03*
X099170D02*
D03*
X095590Y053458D02*
D03*
X095070D02*
D03*
X098740Y042048D02*
D03*
X098508Y040950D02*
D03*
X087430Y043408D02*
D03*
X094603Y053458D02*
D03*
X094140D02*
D03*
X093601D02*
D03*
X087784Y040113D02*
D03*
X088464Y041747D02*
D03*
X088001Y042475D02*
D03*
X087568Y042426D02*
D03*
X093080Y053458D02*
D03*
X092597D02*
D03*
X087944Y051036D02*
D03*
X087017Y042347D02*
D03*
X086731Y042633D02*
D03*
X081790Y051156D02*
D03*
X084664Y053716D02*
D03*
X086338Y041983D02*
D03*
X078240Y036208D02*
D03*
X074529Y052178D02*
D03*
X083601Y053716D02*
D03*
X085880Y041220D02*
D03*
X079595Y042328D02*
D03*
X084104Y053717D02*
D03*
X083100D02*
D03*
X082598D02*
D03*
X078661Y042791D02*
D03*
X078358Y042174D02*
D03*
X077735Y042190D02*
D03*
X079300Y042918D02*
D03*
X078956Y042260D02*
D03*
X079800Y053379D02*
D03*
X079320Y053027D02*
D03*
X078109Y042859D02*
D03*
X078800Y053294D02*
D03*
X078296Y052918D02*
D03*
X110127Y044227D02*
D03*
X069714Y045715D02*
D03*
X090816Y051452D02*
D03*
X086416Y051412D02*
D03*
X075452Y050133D02*
D03*
X069556Y046532D02*
D03*
X069162Y045438D02*
D03*
X077775Y053184D02*
D03*
X113555Y020983D02*
D03*
X073890Y021311D02*
D03*
X067750Y018368D02*
D03*
X070107Y018033D02*
D03*
X067340Y020608D02*
D03*
X067740Y022608D02*
D03*
X068240Y020608D02*
D03*
X066640Y022508D02*
D03*
X069740Y022008D02*
D03*
X070840Y022108D02*
D03*
X071540Y022608D02*
D03*
X070140D02*
D03*
X069140D02*
D03*
X071990Y017488D02*
D03*
X093744Y037878D02*
D03*
X087125Y050743D02*
D03*
X089370Y040918D02*
D03*
X089130Y040168D02*
D03*
X076993Y041338D02*
D03*
X079084Y040153D02*
D03*
X070632Y042338D02*
D03*
X070450Y042978D02*
D03*
X100670Y052658D02*
D03*
X065887Y044387D02*
D03*
X162912Y023420D02*
D03*
X163306Y022958D02*
D03*
X163719Y022542D02*
D03*
X164881Y022790D02*
D03*
X138748Y035751D02*
D03*
X138720Y037328D02*
D03*
X138570Y034968D02*
D03*
X136670Y036188D02*
D03*
X135550D02*
D03*
X144440Y035038D02*
D03*
X121938Y024129D02*
D03*
X120944Y024149D02*
D03*
X120058D02*
D03*
X119379Y024168D02*
D03*
X128910Y030808D02*
D03*
X119251Y021501D02*
D03*
X121320Y018092D02*
D03*
X152910Y039680D02*
D03*
X163310Y026948D02*
D03*
X166540Y025498D02*
D03*
X164867Y026607D02*
D03*
X164160Y025618D02*
D03*
X163120Y026298D02*
D03*
X160820Y028618D02*
D03*
X163967Y029997D02*
D03*
X164407Y030147D02*
D03*
X143830Y043028D02*
D03*
X139813Y050253D02*
D03*
X157870Y039058D02*
D03*
X130990Y039808D02*
D03*
X130600Y040178D02*
D03*
X120885Y043253D02*
D03*
X129480Y040318D02*
D03*
X122737Y042627D02*
D03*
X162880Y027438D02*
D03*
X139532Y038437D02*
D03*
X160500Y029088D02*
D03*
X131290Y038378D02*
D03*
X158540Y036708D02*
D03*
X163147Y029937D02*
D03*
X162117Y039467D02*
D03*
X122354Y041334D02*
D03*
X139788Y039518D02*
D03*
X156710Y035168D02*
D03*
X163190Y039398D02*
D03*
X152547Y037227D02*
D03*
X162750Y025898D02*
D03*
X164087Y040317D02*
D03*
X122457Y043202D02*
D03*
X152142Y037867D02*
D03*
X131447Y035737D02*
D03*
X160697Y024837D02*
D03*
X158187Y037687D02*
D03*
X162827Y028177D02*
D03*
X162829Y026997D02*
D03*
X160530Y030828D02*
D03*
X161130Y025188D02*
D03*
X162640Y023948D02*
D03*
X162280Y024168D02*
D03*
X164489Y023149D02*
D03*
X164095Y022903D02*
D03*
X159671Y020767D02*
D03*
X167340Y024238D02*
D03*
X161850Y027288D02*
D03*
X161520Y027048D02*
D03*
X160290Y022698D02*
D03*
X118670Y045438D02*
D03*
X152700Y042178D02*
D03*
X153260Y042198D02*
D03*
X153690Y052658D02*
D03*
X164410Y041778D02*
D03*
X151631Y039278D02*
D03*
X139021Y039478D02*
D03*
X143220Y047628D02*
D03*
X152660Y052658D02*
D03*
X153000Y041788D02*
D03*
X152380Y041818D02*
D03*
X151950Y042188D02*
D03*
X151170Y052658D02*
D03*
X151650Y041878D02*
D03*
X152170Y052658D02*
D03*
X151670D02*
D03*
X148090Y053458D02*
D03*
X147570D02*
D03*
X151240Y042048D02*
D03*
X151008Y040950D02*
D03*
X139930Y043408D02*
D03*
X147103Y053458D02*
D03*
X146640D02*
D03*
X146101D02*
D03*
X140284Y040113D02*
D03*
X140964Y041747D02*
D03*
X140501Y042475D02*
D03*
X140068Y042426D02*
D03*
X145580Y053458D02*
D03*
X145097D02*
D03*
X140444Y051036D02*
D03*
X139517Y042347D02*
D03*
X139231Y042633D02*
D03*
X134290Y051156D02*
D03*
X137164Y053716D02*
D03*
X138838Y041983D02*
D03*
X130740Y036208D02*
D03*
X127029Y052178D02*
D03*
X136101Y053716D02*
D03*
X138380Y041220D02*
D03*
X132095Y042328D02*
D03*
X136604Y053717D02*
D03*
X135600D02*
D03*
X135098D02*
D03*
X131161Y042791D02*
D03*
X130858Y042174D02*
D03*
X130235Y042190D02*
D03*
X131800Y042918D02*
D03*
X131456Y042260D02*
D03*
X132300Y053379D02*
D03*
X131820Y053027D02*
D03*
X130609Y042859D02*
D03*
X131300Y053294D02*
D03*
X130796Y052918D02*
D03*
X162627Y044227D02*
D03*
X122214Y045715D02*
D03*
X143316Y051452D02*
D03*
X138916Y051412D02*
D03*
X127952Y050133D02*
D03*
X122056Y046532D02*
D03*
X121662Y045438D02*
D03*
X130275Y053184D02*
D03*
X166056Y020983D02*
D03*
X126390Y021311D02*
D03*
X120250Y018368D02*
D03*
X122607Y018033D02*
D03*
X119840Y020608D02*
D03*
X120240Y022608D02*
D03*
X120740Y020608D02*
D03*
X119140Y022508D02*
D03*
X122240Y022008D02*
D03*
X123340Y022108D02*
D03*
X124040Y022608D02*
D03*
X122640D02*
D03*
X121640D02*
D03*
X124490Y017488D02*
D03*
X146244Y037878D02*
D03*
X139625Y050743D02*
D03*
X141870Y040918D02*
D03*
X141630Y040168D02*
D03*
X129493Y041338D02*
D03*
X131584Y040153D02*
D03*
X123132Y042338D02*
D03*
X122950Y042978D02*
D03*
X153170Y052658D02*
D03*
X118387Y044387D02*
D03*
X057912Y064670D02*
D03*
X058306Y064208D02*
D03*
X058719Y063792D02*
D03*
X059881Y064040D02*
D03*
X033748Y077001D02*
D03*
X033720Y078578D02*
D03*
X033570Y076218D02*
D03*
X031670Y077438D02*
D03*
X030550D02*
D03*
X039440Y076288D02*
D03*
X016938Y065379D02*
D03*
X015944Y065399D02*
D03*
X015058D02*
D03*
X014379Y065418D02*
D03*
X023910Y072058D02*
D03*
X014251Y062751D02*
D03*
X016320Y059342D02*
D03*
X047910Y080930D02*
D03*
X058310Y068198D02*
D03*
X061540Y066748D02*
D03*
X059867Y067857D02*
D03*
X059160Y066868D02*
D03*
X058120Y067548D02*
D03*
X055820Y069868D02*
D03*
X058967Y071247D02*
D03*
X059407Y071397D02*
D03*
X038830Y084278D02*
D03*
X034813Y091503D02*
D03*
X052870Y080308D02*
D03*
X025990Y081058D02*
D03*
X025600Y081428D02*
D03*
X015885Y084503D02*
D03*
X024480Y081568D02*
D03*
X017737Y083877D02*
D03*
X057880Y068688D02*
D03*
X034532Y079687D02*
D03*
X055500Y070338D02*
D03*
X026290Y079628D02*
D03*
X053540Y077958D02*
D03*
X058147Y071187D02*
D03*
X057117Y080717D02*
D03*
X017354Y082584D02*
D03*
X034788Y080768D02*
D03*
X051710Y076418D02*
D03*
X058190Y080648D02*
D03*
X047547Y078477D02*
D03*
X057750Y067148D02*
D03*
X059087Y081567D02*
D03*
X017457Y084452D02*
D03*
X047142Y079117D02*
D03*
X026447Y076987D02*
D03*
X055697Y066087D02*
D03*
X053187Y078937D02*
D03*
X057827Y069427D02*
D03*
X057829Y068247D02*
D03*
X055530Y072078D02*
D03*
X056130Y066438D02*
D03*
X057640Y065198D02*
D03*
X057280Y065418D02*
D03*
X059489Y064399D02*
D03*
X059095Y064153D02*
D03*
X054672Y062017D02*
D03*
X062340Y065488D02*
D03*
X056850Y068538D02*
D03*
X056520Y068298D02*
D03*
X055290Y063948D02*
D03*
X013670Y086688D02*
D03*
X047700Y083428D02*
D03*
X048260Y083448D02*
D03*
X048690Y093908D02*
D03*
X059410Y083028D02*
D03*
X046631Y080528D02*
D03*
X034021Y080728D02*
D03*
X038220Y088878D02*
D03*
X047660Y093908D02*
D03*
X048000Y083038D02*
D03*
X047380Y083068D02*
D03*
X046950Y083438D02*
D03*
X046170Y093908D02*
D03*
X046650Y083128D02*
D03*
X047170Y093908D02*
D03*
X046670D02*
D03*
X043090Y094708D02*
D03*
X042570D02*
D03*
X046240Y083298D02*
D03*
X046008Y082200D02*
D03*
X034930Y084658D02*
D03*
X042103Y094708D02*
D03*
X041640D02*
D03*
X041101D02*
D03*
X035284Y081363D02*
D03*
X035964Y082997D02*
D03*
X035501Y083725D02*
D03*
X035068Y083676D02*
D03*
X040580Y094708D02*
D03*
X040097D02*
D03*
X035444Y092286D02*
D03*
X034517Y083597D02*
D03*
X034231Y083883D02*
D03*
X029290Y092406D02*
D03*
X032164Y094966D02*
D03*
X033838Y083233D02*
D03*
X025740Y077458D02*
D03*
X022029Y093428D02*
D03*
X031101Y094966D02*
D03*
X033380Y082470D02*
D03*
X027095Y083578D02*
D03*
X031604Y094967D02*
D03*
X030600D02*
D03*
X030098D02*
D03*
X026161Y084041D02*
D03*
X025858Y083424D02*
D03*
X025235Y083440D02*
D03*
X026800Y084168D02*
D03*
X026456Y083510D02*
D03*
X027300Y094629D02*
D03*
X026820Y094277D02*
D03*
X025609Y084109D02*
D03*
X026300Y094544D02*
D03*
X025796Y094168D02*
D03*
X057627Y085477D02*
D03*
X017214Y086965D02*
D03*
X038316Y092702D02*
D03*
X033916Y092662D02*
D03*
X022952Y091383D02*
D03*
X017056Y087782D02*
D03*
X016662Y086688D02*
D03*
X025275Y094434D02*
D03*
X061055Y062233D02*
D03*
X021390Y062561D02*
D03*
X015250Y059618D02*
D03*
X017607Y059283D02*
D03*
X014840Y061858D02*
D03*
X015240Y063858D02*
D03*
X015740Y061858D02*
D03*
X014140Y063758D02*
D03*
X017240Y063258D02*
D03*
X018340Y063358D02*
D03*
X019040Y063858D02*
D03*
X017640D02*
D03*
X016640D02*
D03*
X019490Y058738D02*
D03*
X041244Y079128D02*
D03*
X034625Y091993D02*
D03*
X036870Y082168D02*
D03*
X036630Y081418D02*
D03*
X024493Y082588D02*
D03*
X026584Y081403D02*
D03*
X018132Y083588D02*
D03*
X017950Y084228D02*
D03*
X048170Y093908D02*
D03*
X013387Y085637D02*
D03*
X110412Y064670D02*
D03*
X110806Y064208D02*
D03*
X111219Y063792D02*
D03*
X112381Y064040D02*
D03*
X086248Y077001D02*
D03*
X086220Y078578D02*
D03*
X086070Y076218D02*
D03*
X084170Y077438D02*
D03*
X083050D02*
D03*
X091940Y076288D02*
D03*
X069438Y065379D02*
D03*
X068444Y065399D02*
D03*
X067558D02*
D03*
X066879Y065418D02*
D03*
X076410Y072058D02*
D03*
X066751Y062751D02*
D03*
X068820Y059342D02*
D03*
X100410Y080930D02*
D03*
X110810Y068198D02*
D03*
X114040Y066748D02*
D03*
X112367Y067857D02*
D03*
X111660Y066868D02*
D03*
X110620Y067548D02*
D03*
X108320Y069868D02*
D03*
X111467Y071247D02*
D03*
X111907Y071397D02*
D03*
X091330Y084278D02*
D03*
X087313Y091503D02*
D03*
X105370Y080308D02*
D03*
X078490Y081058D02*
D03*
X078100Y081428D02*
D03*
X068385Y084503D02*
D03*
X076980Y081568D02*
D03*
X070237Y083877D02*
D03*
X110380Y068688D02*
D03*
X087032Y079687D02*
D03*
X108000Y070338D02*
D03*
X078790Y079628D02*
D03*
X106040Y077958D02*
D03*
X110647Y071187D02*
D03*
X109617Y080717D02*
D03*
X069854Y082584D02*
D03*
X087288Y080768D02*
D03*
X104210Y076418D02*
D03*
X110690Y080648D02*
D03*
X100047Y078477D02*
D03*
X110250Y067148D02*
D03*
X111587Y081567D02*
D03*
X069957Y084452D02*
D03*
X099642Y079117D02*
D03*
X078947Y076987D02*
D03*
X108197Y066087D02*
D03*
X105687Y078937D02*
D03*
X110327Y069427D02*
D03*
X110329Y068247D02*
D03*
X108030Y072078D02*
D03*
X108630Y066438D02*
D03*
X110140Y065198D02*
D03*
X109780Y065418D02*
D03*
X111989Y064399D02*
D03*
X111595Y064153D02*
D03*
X107171Y062017D02*
D03*
X114840Y065488D02*
D03*
X109350Y068538D02*
D03*
X109020Y068298D02*
D03*
X107790Y063948D02*
D03*
X066170Y086688D02*
D03*
X100200Y083428D02*
D03*
X100760Y083448D02*
D03*
X101190Y093908D02*
D03*
X111910Y083028D02*
D03*
X099131Y080528D02*
D03*
X086521Y080728D02*
D03*
X090720Y088878D02*
D03*
X100160Y093908D02*
D03*
X100500Y083038D02*
D03*
X099880Y083068D02*
D03*
X099450Y083438D02*
D03*
X098670Y093908D02*
D03*
X099150Y083128D02*
D03*
X099670Y093908D02*
D03*
X099170D02*
D03*
X095590Y094708D02*
D03*
X095070D02*
D03*
X098740Y083298D02*
D03*
X098508Y082200D02*
D03*
X087430Y084658D02*
D03*
X094603Y094708D02*
D03*
X094140D02*
D03*
X093601D02*
D03*
X087784Y081363D02*
D03*
X088464Y082997D02*
D03*
X088001Y083725D02*
D03*
X087568Y083676D02*
D03*
X093080Y094708D02*
D03*
X092597D02*
D03*
X087944Y092286D02*
D03*
X087017Y083597D02*
D03*
X086731Y083883D02*
D03*
X081790Y092406D02*
D03*
X084664Y094966D02*
D03*
X086338Y083233D02*
D03*
X078240Y077458D02*
D03*
X074529Y093428D02*
D03*
X083601Y094966D02*
D03*
X085880Y082470D02*
D03*
X079595Y083578D02*
D03*
X084104Y094967D02*
D03*
X083100D02*
D03*
X082598D02*
D03*
X078661Y084041D02*
D03*
X078358Y083424D02*
D03*
X077735Y083440D02*
D03*
X079300Y084168D02*
D03*
X078956Y083510D02*
D03*
X079800Y094629D02*
D03*
X079320Y094277D02*
D03*
X078109Y084109D02*
D03*
X078800Y094544D02*
D03*
X078296Y094168D02*
D03*
X110127Y085477D02*
D03*
X069714Y086965D02*
D03*
X090816Y092702D02*
D03*
X086416Y092662D02*
D03*
X075452Y091383D02*
D03*
X069556Y087782D02*
D03*
X069162Y086688D02*
D03*
X077775Y094434D02*
D03*
X113555Y062233D02*
D03*
X073890Y062561D02*
D03*
X067750Y059618D02*
D03*
X070107Y059283D02*
D03*
X067340Y061858D02*
D03*
X067740Y063858D02*
D03*
X068240Y061858D02*
D03*
X066640Y063758D02*
D03*
X069740Y063258D02*
D03*
X070840Y063358D02*
D03*
X071540Y063858D02*
D03*
X070140D02*
D03*
X069140D02*
D03*
X071990Y058738D02*
D03*
X093744Y079128D02*
D03*
X087125Y091993D02*
D03*
X089370Y082168D02*
D03*
X089130Y081418D02*
D03*
X076993Y082588D02*
D03*
X079084Y081403D02*
D03*
X070632Y083588D02*
D03*
X070450Y084228D02*
D03*
X100670Y093908D02*
D03*
X065887Y085637D02*
D03*
X162912Y064670D02*
D03*
X163306Y064208D02*
D03*
X163719Y063792D02*
D03*
X164881Y064040D02*
D03*
X138748Y077001D02*
D03*
X138720Y078578D02*
D03*
X138570Y076218D02*
D03*
X136670Y077438D02*
D03*
X135550D02*
D03*
X144440Y076288D02*
D03*
X121938Y065379D02*
D03*
X120944Y065399D02*
D03*
X120058D02*
D03*
X119379Y065418D02*
D03*
X128910Y072058D02*
D03*
X119251Y062751D02*
D03*
X121320Y059342D02*
D03*
X152910Y080930D02*
D03*
X163310Y068198D02*
D03*
X166540Y066748D02*
D03*
X164867Y067857D02*
D03*
X164160Y066868D02*
D03*
X163120Y067548D02*
D03*
X160820Y069868D02*
D03*
X163967Y071247D02*
D03*
X164407Y071397D02*
D03*
X143830Y084278D02*
D03*
X139813Y091503D02*
D03*
X157870Y080308D02*
D03*
X130990Y081058D02*
D03*
X130600Y081428D02*
D03*
X120885Y084503D02*
D03*
X129480Y081568D02*
D03*
X122737Y083877D02*
D03*
X162880Y068688D02*
D03*
X139532Y079687D02*
D03*
X160500Y070338D02*
D03*
X131290Y079628D02*
D03*
X158540Y077958D02*
D03*
X163147Y071187D02*
D03*
X162117Y080717D02*
D03*
X122354Y082584D02*
D03*
X139788Y080768D02*
D03*
X156710Y076418D02*
D03*
X163190Y080648D02*
D03*
X152547Y078477D02*
D03*
X162750Y067148D02*
D03*
X164087Y081567D02*
D03*
X122457Y084452D02*
D03*
X152142Y079117D02*
D03*
X131447Y076987D02*
D03*
X160697Y066087D02*
D03*
X158187Y078937D02*
D03*
X162827Y069427D02*
D03*
X162829Y068247D02*
D03*
X160530Y072078D02*
D03*
X161130Y066438D02*
D03*
X162640Y065198D02*
D03*
X162280Y065418D02*
D03*
X164489Y064399D02*
D03*
X164095Y064153D02*
D03*
X159671Y062017D02*
D03*
X167340Y065488D02*
D03*
X161850Y068538D02*
D03*
X161520Y068298D02*
D03*
X160290Y063948D02*
D03*
X118670Y086688D02*
D03*
X152700Y083428D02*
D03*
X153260Y083448D02*
D03*
X153690Y093908D02*
D03*
X164410Y083028D02*
D03*
X151631Y080528D02*
D03*
X139021Y080728D02*
D03*
X143220Y088878D02*
D03*
X152660Y093908D02*
D03*
X153000Y083038D02*
D03*
X152380Y083068D02*
D03*
X151950Y083438D02*
D03*
X151170Y093908D02*
D03*
X151650Y083128D02*
D03*
X152170Y093908D02*
D03*
X151670D02*
D03*
X148090Y094708D02*
D03*
X147570D02*
D03*
X151240Y083298D02*
D03*
X151008Y082200D02*
D03*
X139930Y084658D02*
D03*
X147103Y094708D02*
D03*
X146640D02*
D03*
X146101D02*
D03*
X140284Y081363D02*
D03*
X140964Y082997D02*
D03*
X140501Y083725D02*
D03*
X140068Y083676D02*
D03*
X145580Y094708D02*
D03*
X145097D02*
D03*
X140444Y092286D02*
D03*
X139517Y083597D02*
D03*
X139231Y083883D02*
D03*
X134290Y092406D02*
D03*
X137164Y094966D02*
D03*
X138838Y083233D02*
D03*
X130740Y077458D02*
D03*
X127029Y093428D02*
D03*
X136101Y094966D02*
D03*
X138380Y082470D02*
D03*
X132095Y083578D02*
D03*
X136604Y094967D02*
D03*
X135600D02*
D03*
X135098D02*
D03*
X131161Y084041D02*
D03*
X130858Y083424D02*
D03*
X130235Y083440D02*
D03*
X131800Y084168D02*
D03*
X131456Y083510D02*
D03*
X132300Y094629D02*
D03*
X131820Y094277D02*
D03*
X130609Y084109D02*
D03*
X131300Y094544D02*
D03*
X130796Y094168D02*
D03*
X162627Y085477D02*
D03*
X122214Y086965D02*
D03*
X143316Y092702D02*
D03*
X138916Y092662D02*
D03*
X127952Y091383D02*
D03*
X122056Y087782D02*
D03*
X121662Y086688D02*
D03*
X130275Y094434D02*
D03*
X166056Y062233D02*
D03*
X126390Y062561D02*
D03*
X120250Y059618D02*
D03*
X122607Y059283D02*
D03*
X119840Y061858D02*
D03*
X120240Y063858D02*
D03*
X120740Y061858D02*
D03*
X119140Y063758D02*
D03*
X122240Y063258D02*
D03*
X123340Y063358D02*
D03*
X124040Y063858D02*
D03*
X122640D02*
D03*
X121640D02*
D03*
X124490Y058738D02*
D03*
X146244Y079128D02*
D03*
X139625Y091993D02*
D03*
X141870Y082168D02*
D03*
X141630Y081418D02*
D03*
X129493Y082588D02*
D03*
X131584Y081403D02*
D03*
X123132Y083588D02*
D03*
X122950Y084228D02*
D03*
X153170Y093908D02*
D03*
X118387Y085637D02*
D03*
D64*
X036040Y036308D02*
D03*
X038040D02*
D03*
X088540D02*
D03*
X090540D02*
D03*
X141040D02*
D03*
X143040D02*
D03*
X036040Y077558D02*
D03*
X038040D02*
D03*
X088540D02*
D03*
X090540D02*
D03*
X141040D02*
D03*
X143040D02*
D03*
D93*
X026505Y029994D02*
G03*
X024915Y026058I004048J-003924D01*
G01*
X079005Y029994D02*
G03*
X077415Y026058I004048J-003924D01*
G01*
X131505Y029994D02*
G03*
X129915Y026058I004048J-003924D01*
G01*
X026505Y071244D02*
G03*
X024915Y067308I004048J-003924D01*
G01*
X079005Y071244D02*
G03*
X077415Y067308I004048J-003924D01*
G01*
X131505Y071244D02*
G03*
X129915Y067308I004048J-003924D01*
G01*
D94*
X023900Y027576D02*
Y030808D01*
X023306Y026981D02*
X023900Y027576D01*
X076400D02*
Y030808D01*
X075806Y026981D02*
X076400Y027576D01*
X128900D02*
Y030808D01*
X128306Y026981D02*
X128900Y027576D01*
X023900Y068826D02*
Y072058D01*
X023306Y068231D02*
X023900Y068826D01*
X076400D02*
Y072058D01*
X075806Y068231D02*
X076400Y068826D01*
X128900D02*
Y072058D01*
X128306Y068231D02*
X128900Y068826D01*
M02*
