M48
;Layer_Color=9474304
;FILE_FORMAT=2:4
INCH
;TYPE=PLATED
T1F00S00C0.0118
T2F00S00C0.0197
T3F00S00C0.0210
T4F00S00C0.0240
T5F00S00C0.0250
T6F00S00C0.0295
T7F00S00C0.0300
T8F00S00C0.0350
T9F00S00C0.0354
T10F00S00C0.0370
T11F00S00C0.0400
T12F00S00C0.0472
T13F00S00C0.0700
T14F00S00C0.1000
T15F00S00C0.1100
T16F00S00C0.1285
;TYPE=NON_PLATED
T17F00S00C0.1250
%
T01
X166056Y020983
X164881Y022790
X164489Y023149
X164095Y022903
X163719Y022542
X163306Y022958
X162912Y023420
X162640Y023948
X162280Y024168
X161130Y025188
X160697Y024837
X160290Y022698
X159671Y020767
X161520Y027048
X161850Y027288
X162880Y027438
X162829Y026997
X163310Y026948
X163120Y026298
X162750Y025898
X164160Y025618
X164867Y026607
X166540Y025498
X167340Y024238
X162827Y028177
X163147Y029937
X163967Y029997
X164407Y030147
X160530Y030828
X160500Y029088
X160820Y028618
X128910Y030808
X126390Y021311
X124040Y022608
X123340Y022108
X122240Y022008
X122640Y022608
X121640
X120240
X119140Y022508
X119251Y021501
X119840Y020608
X120740
X120250Y018368
X121320Y018092
X122607Y018033
X124490Y017488
X121938Y024129
X120944Y024149
X120058
X119379Y024168
X114840Y024238
X114040Y025498
X111660Y025618
X110250Y025898
X110620Y026298
X110810Y026948
X110329Y026997
X110380Y027438
X110327Y028177
X110647Y029937
X111467Y029997
X111907Y030147
X112367Y026607
X112381Y022790
X111989Y023149
X111595Y022903
X111219Y022542
X110806Y022958
X110412Y023420
X110140Y023948
X109780Y024168
X113555Y020983
X107171Y020767
X107790Y022698
X108197Y024837
X108630Y025188
X109020Y027048
X109350Y027288
X108320Y028618
X108000Y029088
X108030Y030828
X076410Y030808
X073890Y021311
X071540Y022608
X070840Y022108
X069740Y022008
X070140Y022608
X069140
X067740
X066640Y022508
X066751Y021501
X067340Y020608
X068240
X067750Y018368
X068820Y018092
X070107Y018033
X071990Y017488
X069438Y024129
X068444Y024149
X067558
X066879Y024168
X062340Y024238
X061540Y025498
X059160Y025618
X057750Y025898
X058120Y026298
X058310Y026948
X057829Y026997
X057880Y027438
X057827Y028177
X056850Y027288
X056520Y027048
X056130Y025188
X055697Y024837
X057280Y024168
X057640Y023948
X057912Y023420
X058306Y022958
X058719Y022542
X059095Y022903
X059489Y023149
X059881Y022790
X061055Y020983
X054672Y020767
X055290Y022698
X055820Y028618
X055500Y029088
X055530Y030828
X058147Y029937
X058967Y029997
X059407Y030147
X059867Y026607
X023910Y030808
X021390Y021311
X019040Y022608
X018340Y022108
X017240Y022008
X017640Y022608
X016640
X016938Y024129
X015944Y024149
X015740Y020608
X016320Y018092
X017607Y018033
X019490Y017488
X015250Y018368
X014840Y020608
X014251Y021501
X014140Y022508
X015240Y022608
X015058Y024149
X014379Y024168
X013387Y044387
X013670Y045438
X016662
X017214Y045715
X017056Y046532
X017457Y043202
X017950Y042978
X017737Y042627
X018132Y042338
X017354Y041334
X015885Y043253
X025609Y042859
X026161Y042791
X026800Y042918
X027095Y042328
X026456Y042260
X025858Y042174
X025235Y042190
X024493Y041338
X024480Y040318
X025600Y040178
X025990Y039808
X026584Y040153
X026290Y038378
X025740Y036208
X026447Y035737
X030550Y036188
X031670
X033748Y035751
X033570Y034968
X033720Y037328
X034532Y038437
X034788Y039518
X034021Y039478
X035284Y040113
X036630Y040168
X036870Y040918
X035964Y041747
X035501Y042475
X035068Y042426
X034517Y042347
X034231Y042633
X033838Y041983
X033380Y041220
X034930Y043408
X038830Y043028
X041244Y037878
X039440Y035038
X046631Y039278
X046008Y040950
X046240Y042048
X046650Y041878
X046950Y042188
X047700Y042178
X048260Y042198
X048000Y041788
X047380Y041818
X047910Y039680
X047142Y037867
X047547Y037227
X053187Y037687
X053540Y036708
X052870Y039058
X057117Y039467
X058190Y039398
X059087Y040317
X059410Y041778
X057627Y044227
X051710Y035168
X065887Y044387
X066170Y045438
X069162
X069714Y045715
X069556Y046532
X069957Y043202
X070450Y042978
X070237Y042627
X070632Y042338
X069854Y041334
X068385Y043253
X078109Y042859
X077735Y042190
X076993Y041338
X076980Y040318
X078100Y040178
X078490Y039808
X079084Y040153
X078790Y038378
X078240Y036208
X078947Y035737
X083050Y036188
X084170
X086248Y035751
X086070Y034968
X086220Y037328
X087032Y038437
X087288Y039518
X086521Y039478
X087784Y040113
X089130Y040168
X089370Y040918
X088464Y041747
X088001Y042475
X087568Y042426
X087017Y042347
X086731Y042633
X086338Y041983
X085880Y041220
X087430Y043408
X091330Y043028
X093744Y037878
X091940Y035038
X079595Y042328
X078956Y042260
X078358Y042174
X078661Y042791
X079300Y042918
X098740Y042048
X099150Y041878
X099450Y042188
X100200Y042178
X100760Y042198
X100500Y041788
X099880Y041818
X098508Y040950
X099131Y039278
X100410Y039680
X099642Y037867
X100047Y037227
X105687Y037687
X106040Y036708
X105370Y039058
X104210Y035168
X109617Y039467
X110690Y039398
X111587Y040317
X111910Y041778
X110127Y044227
X118387Y044387
X118670Y045438
X121662
X122214Y045715
X122056Y046532
X122457Y043202
X122950Y042978
X122737Y042627
X123132Y042338
X122354Y041334
X120885Y043253
X130609Y042859
X131161Y042791
X131800Y042918
X132095Y042328
X131456Y042260
X130858Y042174
X130235Y042190
X129493Y041338
X129480Y040318
X130600Y040178
X130990Y039808
X131584Y040153
X131290Y038378
X130740Y036208
X131447Y035737
X135550Y036188
X136670
X138748Y035751
X138570Y034968
X138720Y037328
X139532Y038437
X139788Y039518
X139021Y039478
X140284Y040113
X140068Y042426
X140501Y042475
X139517Y042347
X139231Y042633
X138838Y041983
X138380Y041220
X139930Y043408
X140964Y041747
X141870Y040918
X141630Y040168
X143830Y043028
X146244Y037878
X144440Y035038
X152547Y037227
X152142Y037867
X151631Y039278
X152910Y039680
X153000Y041788
X152380Y041818
X152700Y042178
X153260Y042198
X151950Y042188
X151650Y041878
X151240Y042048
X151008Y040950
X157870Y039058
X158187Y037687
X158540Y036708
X156710Y035168
X162117Y039467
X163190Y039398
X164087Y040317
X164410Y041778
X162627Y044227
X159671Y062017
X166056Y062233
X153690Y052658
X153170
X152660
X152170
X151670
X151170
X148090Y053458
X147570
X147103
X146640
X146101
X145580
X145097
X143316Y051452
X143220Y047628
X139813Y050253
X139625Y050743
X140444Y051036
X138916Y051412
X137164Y053716
X136604Y053717
X136101Y053716
X135600Y053717
X135098
X132300Y053379
X131820Y053027
X131300Y053294
X130796Y052918
X130275Y053184
X127029Y052178
X127952Y050133
X134290Y051156
X124490Y058738
X122607Y059283
X121320Y059342
X120250Y059618
X119840Y061858
X120740
X113555Y062233
X107171Y062017
X101190Y052658
X100670
X100160
X099670
X099170
X098670
X095590Y053458
X095070
X094603
X094140
X093601
X093080
X092597
X090816Y051452
X087944Y051036
X087125Y050743
X087313Y050253
X086416Y051412
X084664Y053716
X084104Y053717
X083601Y053716
X083100Y053717
X082598
X079800Y053379
X079320Y053027
X078800Y053294
X078296Y052918
X081790Y051156
X090720Y047628
X075452Y050133
X074529Y052178
X077775Y053184
X071990Y058738
X070107Y059283
X068820Y059342
X067750Y059618
X067340Y061858
X068240
X061055Y062233
X054672Y062017
X048690Y052658
X048170
X047660
X047170
X046670
X046170
X043090Y053458
X042570
X042103
X041640
X041101
X040580
X040097
X038316Y051452
X035444Y051036
X034625Y050743
X034813Y050253
X033916Y051412
X032164Y053716
X031604Y053717
X038220Y047628
X029290Y051156
X030098Y053717
X030600
X031101Y053716
X027300Y053379
X026820Y053027
X026300Y053294
X025796Y052918
X025275Y053184
X022029Y052178
X022952Y050133
X019490Y058738
X017607Y059283
X016320Y059342
X015740Y061858
X014840
X015250Y059618
X014251Y062751
X014140Y063758
X015240Y063858
X015058Y065399
X014379Y065418
X015944Y065399
X016938Y065379
X016640Y063858
X017640
X017240Y063258
X018340Y063358
X019040Y063858
X021390Y062561
X023910Y072058
X025740Y077458
X026447Y076987
X030550Y077438
X031670
X033748Y077001
X033570Y076218
X039440Y076288
X051710Y076418
X053540Y077958
X055530Y072078
X055500Y070338
X055820Y069868
X056520Y068298
X056850Y068538
X057880Y068688
X057829Y068247
X058310Y068198
X058120Y067548
X057750Y067148
X059160Y066868
X059867Y067857
X061540Y066748
X062340Y065488
X059881Y064040
X059489Y064399
X059095Y064153
X058719Y063792
X058306Y064208
X057912Y064670
X057640Y065198
X057280Y065418
X056130Y066438
X055697Y066087
X055290Y063948
X057827Y069427
X058147Y071187
X058967Y071247
X059407Y071397
X066879Y065418
X067558Y065399
X068444
X069438Y065379
X069140Y063858
X070140
X069740Y063258
X070840Y063358
X071540Y063858
X073890Y062561
X066751Y062751
X066640Y063758
X067740Y063858
X076410Y072058
X078240Y077458
X078947Y076987
X083050Y077438
X084170
X086248Y077001
X086070Y076218
X091940Y076288
X104210Y076418
X106040Y077958
X108030Y072078
X108000Y070338
X108320Y069868
X109020Y068298
X109350Y068538
X108630Y066438
X108197Y066087
X107790Y063948
X110806Y064208
X111219Y063792
X111595Y064153
X111989Y064399
X112381Y064040
X110412Y064670
X110140Y065198
X109780Y065418
X110250Y067148
X110620Y067548
X110810Y068198
X110329Y068247
X110380Y068688
X110327Y069427
X110647Y071187
X111467Y071247
X111907Y071397
X112367Y067857
X111660Y066868
X114040Y066748
X114840Y065488
X119379Y065418
X120058Y065399
X120944
X121938Y065379
X121640Y063858
X122640
X122240Y063258
X123340Y063358
X124040Y063858
X120240
X119140Y063758
X119251Y062751
X126390Y062561
X128910Y072058
X130740Y077458
X131447Y076987
X135550Y077438
X136670
X138748Y077001
X138570Y076218
X144440Y076288
X156710Y076418
X158540Y077958
X160530Y072078
X160500Y070338
X160820Y069868
X161520Y068298
X161850Y068538
X162880Y068688
X162829Y068247
X163310Y068198
X163120Y067548
X162750Y067148
X164160Y066868
X164867Y067857
X166540Y066748
X167340Y065488
X164881Y064040
X164489Y064399
X164095Y064153
X163719Y063792
X163306Y064208
X162912Y064670
X162640Y065198
X162280Y065418
X161130Y066438
X160697Y066087
X160290Y063948
X162827Y069427
X163147Y071187
X163967Y071247
X164407Y071397
X163190Y080648
X162117Y080717
X164087Y081567
X164410Y083028
X162627Y085477
X157870Y080308
X158187Y078937
X152547Y078477
X152142Y079117
X151631Y080528
X152910Y080930
X153000Y083038
X152380Y083068
X152700Y083428
X153260Y083448
X151950Y083438
X151650Y083128
X151240Y083298
X151008Y082200
X146244Y079128
X141630Y081418
X141870Y082168
X140964Y082997
X143830Y084278
X143220Y088878
X143316Y092702
X140444Y092286
X139625Y091993
X139813Y091503
X138916Y092662
X134290Y092406
X127952Y091383
X127029Y093428
X130609Y084109
X131161Y084041
X131800Y084168
X132095Y083578
X131456Y083510
X130858Y083424
X130235Y083440
X129493Y082588
X129480Y081568
X130600Y081428
X130990Y081058
X131584Y081403
X131290Y079628
X139532Y079687
X139788Y080768
X139021Y080728
X140284Y081363
X140068Y083676
X140501Y083725
X139517Y083597
X139231Y083883
X138838Y083233
X138380Y082470
X139930Y084658
X138720Y078578
X122354Y082584
X122737Y083877
X122950Y084228
X122457Y084452
X123132Y083588
X120885Y084503
X121662Y086688
X122214Y086965
X122056Y087782
X118670Y086688
X118387Y085637
X110127Y085477
X111910Y083028
X111587Y081567
X110690Y080648
X109617Y080717
X105370Y080308
X105687Y078937
X100047Y078477
X099642Y079117
X099131Y080528
X100410Y080930
X100500Y083038
X099880Y083068
X100200Y083428
X100760Y083448
X099450Y083438
X099150Y083128
X098740Y083298
X098508Y082200
X093744Y079128
X089130Y081418
X089370Y082168
X088464Y082997
X088001Y083725
X087568Y083676
X087017Y083597
X086731Y083883
X086338Y083233
X085880Y082470
X086521Y080728
X087288Y080768
X087784Y081363
X087032Y079687
X086220Y078578
X087430Y084658
X091330Y084278
X090720Y088878
X090816Y092702
X087944Y092286
X087125Y091993
X087313Y091503
X086416Y092662
X081790Y092406
X079300Y084168
X078661Y084041
X078956Y083510
X078358Y083424
X079595Y083578
X079084Y081403
X078490Y081058
X078790Y079628
X078100Y081428
X076980Y081568
X076993Y082588
X077735Y083440
X078109Y084109
X070450Y084228
X070237Y083877
X070632Y083588
X069957Y084452
X068385Y084503
X069162Y086688
X069714Y086965
X069556Y087782
X066170Y086688
X065887Y085637
X069854Y082584
X075452Y091383
X074529Y093428
X057627Y085477
X059410Y083028
X059087Y081567
X058190Y080648
X057117Y080717
X052870Y080308
X053187Y078937
X047547Y078477
X047142Y079117
X047910Y080930
X048000Y083038
X047380Y083068
X047700Y083428
X048260Y083448
X046950Y083438
X046650Y083128
X046240Y083298
X046008Y082200
X046631Y080528
X041244Y079128
X036630Y081418
X036870Y082168
X035964Y082997
X035501Y083725
X035068Y083676
X034517Y083597
X034231Y083883
X033838Y083233
X033380Y082470
X034021Y080728
X034788Y080768
X035284Y081363
X034532Y079687
X033720Y078578
X034930Y084658
X038830Y084278
X038220Y088878
X038316Y092702
X035444Y092286
X034625Y091993
X034813Y091503
X033916Y092662
X029290Y092406
X022952Y091383
X022029Y093428
X017056Y087782
X017214Y086965
X016662Y086688
X015885Y084503
X017457Y084452
X017950Y084228
X017737Y083877
X018132Y083588
X017354Y082584
X024493Y082588
X024480Y081568
X025600Y081428
X025990Y081058
X026584Y081403
X026290Y079628
X026456Y083510
X025858Y083424
X025235Y083440
X025609Y084109
X026161Y084041
X026800Y084168
X027095Y083578
X013387Y085637
X013670Y086688
X025275Y094434
X025796Y094168
X026300Y094544
X026820Y094277
X027300Y094629
X030098Y094967
X030600
X031101Y094966
X031604Y094967
X032164Y094966
X040097Y094708
X040580
X041101
X041640
X042103
X042570
X043090
X046170Y093908
X046670
X047170
X047660
X048170
X048690
X077775Y094434
X078296Y094168
X078800Y094544
X079320Y094277
X079800Y094629
X082598Y094967
X083100
X083601Y094966
X084104Y094967
X084664Y094966
X092597Y094708
X093080
X093601
X094140
X094603
X095070
X095590
X098670Y093908
X099170
X099670
X100160
X100670
X101190
X130275Y094434
X130796Y094168
X131300Y094544
X131820Y094277
X132300Y094629
X135098Y094967
X135600
X136101Y094966
X136604Y094967
X137164Y094966
X145097Y094708
X145580
X146101
X146640
X147103
X147570
X148090
X151170Y093908
X151670
X152170
X152660
X153170
X153690
T02
X131640Y031090
X079140
X026640
Y031926
X027058Y031508
X026223
X078723
X079140Y031926
X079558Y031508
X131223
X131640Y031926
X132058Y031508
X026640Y072340
Y073176
X027058Y072758
X026223
X078723
X079140Y073176
X079558Y072758
X079140Y072340
X131640
Y073176
X132058Y072758
X131223
T03
X117790Y030808
X065290
X012790
Y072058
X065290
X117790
T04
X117790Y023808
Y024808
Y025808
Y026808
Y027808
Y028808
Y029808
X123790
Y030808
Y028808
Y027808
Y026808
Y025808
Y024808
Y023808
X071290
Y024808
Y025808
Y026808
Y027808
Y028808
Y029808
Y030808
X065290Y029808
Y028808
Y027808
Y026808
Y025808
Y024808
Y023808
X018790
Y024808
Y025808
Y026808
Y027808
Y028808
Y029808
Y030808
X012790Y029808
Y028808
Y027808
Y026808
Y025808
Y024808
Y023808
Y065058
Y066058
Y067058
Y068058
Y069058
Y070058
Y071058
X018790
Y072058
Y070058
Y069058
Y068058
Y067058
Y066058
Y065058
X065290
Y066058
Y067058
Y068058
Y069058
Y070058
Y071058
X071290
Y072058
Y070058
Y069058
Y068058
Y067058
Y066058
Y065058
X117790
Y066058
Y067058
Y068058
Y069058
Y070058
Y071058
X123790
Y072058
Y070058
Y069058
Y068058
Y067058
Y066058
Y065058
T05
X036790Y042025
Y044092
X089290
Y042025
X141790
Y044092
Y047025
Y049092
X089290
Y047025
X036790
Y049092
X141790Y083275
Y085342
Y088275
Y090342
X089290
Y088275
Y085342
Y083275
X036790
Y085342
Y088275
Y090342
T06
X021721Y045172
Y045960
X030540Y045950
Y045162
X043040Y045164
Y045952
X051860
Y045164
X074221Y045172
Y045960
X083040Y045950
Y045162
X095540Y045164
Y045952
X104360
Y045164
X126721Y045172
Y045960
X135540Y045950
Y045162
X148040Y045164
Y045952
X156860
Y045164
Y086414
Y087202
X148040
Y086414
X135540Y086412
Y087200
X126721Y087210
Y086422
X104360Y086414
Y087202
X095540
Y086414
X083040Y086412
Y087200
X074221Y087210
Y086422
X051860Y086414
Y087202
X043040
Y086414
X030540Y086412
Y087200
X021721Y087210
Y086422
T07
X128306Y021981
Y022981
Y023981
Y024981
Y025981
Y026981
Y027981
Y028981
Y029981
X075806
Y028981
Y027981
Y026981
Y025981
Y024981
Y023981
Y022981
Y021981
X023306
Y022981
Y023981
Y024981
Y025981
Y026981
Y027981
Y028981
Y029981
Y063231
Y064231
Y065231
Y066231
Y067231
Y068231
Y069231
Y070231
Y071231
X075806
Y070231
Y069231
Y068231
Y067231
Y066231
Y065231
Y064231
Y063231
X128306
Y064231
Y065231
Y066231
Y067231
Y068231
Y069231
Y070231
Y071231
T08
X039330Y032808
X049410
X091830
X101910
X144330
X154410
X039330Y074058
X049410
X091830
X101910
X144330
X154410
T09
X166250Y030418
X113750
X117413Y019428
Y018443
Y017459
X064913
Y018443
Y019428
X061250Y030418
X012413Y019428
Y018443
Y017459
X043022Y035608
X044990Y037108
X046959Y035608
X061250Y035418
Y034418
Y033418
Y032418
Y031418
X095522Y035608
X097490Y037108
X099459Y035608
X113750Y035418
Y034418
Y033418
Y032418
Y031418
X148022Y035608
X149990Y037108
X151959Y035608
X166250Y035418
Y034418
Y033418
Y032418
Y031418
X117413Y058709
Y059693
Y060678
X064913
Y059693
Y058709
X012413
Y059693
Y060678
X043022Y076858
X046959
X061250Y076668
Y075668
Y074668
Y073668
Y072668
Y071668
X095522Y076858
X099459
X113750Y076668
Y075668
Y074668
Y073668
Y072668
Y071668
X148022Y076858
X151959
X166250Y076668
Y075668
Y074668
Y073668
Y072668
Y071668
X149990Y078358
X097490
X044990
T10
X022903Y037930
X075403
X127903
Y079180
X075403
X022903
T11
X022903Y032930
Y033930
Y034930
Y035930
X023887
X023903Y036930
X022903
X023903Y037930
Y034930
Y033930
Y032930
X030330Y032808
X031330
X032330
X033330
X034330
X035330
X036330
X037330
X038330
X040410
X041410
X042410
X043410
X044410
X045410
X046410
X047410
X048410
X075403Y032930
Y033930
Y034930
Y035930
X076387
X076403Y036930
X075403
X076403Y037930
Y034930
Y033930
Y032930
X082830Y032808
X083830
X084830
X085830
X086830
X087830
X088830
X089830
X090830
X092910
X093910
X094910
X095910
X096910
X097910
X098910
X099910
X100910
X127903Y032930
Y033930
Y034930
Y035930
X128887
X128903Y036930
X127903
X128903Y037930
Y034930
Y033930
Y032930
X135330Y032808
X136330
X137330
X138330
X139330
X140330
X141330
X142330
X143330
X145410
X146410
X147410
X148410
X149410
X150410
X151410
X152410
X153410
X030330Y074058
X023903Y074180
X022903
Y075180
Y076180
Y077180
X023887
X023903Y076180
Y075180
X031330Y074058
X032330
X033330
X034330
X035330
X036330
X037330
X038330
X040410
X041410
X042410
X043410
X044410
X045410
X046410
X047410
X048410
X075403Y074180
Y075180
Y076180
Y077180
X076387
X076403Y076180
Y075180
Y074180
X082830Y074058
X083830
X084830
X085830
X086830
X087830
X088830
X089830
X090830
X092910
X093910
X094910
X095910
X096910
X097910
X098910
X099910
X100910
X127903Y074180
Y075180
Y076180
Y077180
X128887
X128903Y076180
Y075180
Y074180
X135330Y074058
X136330
X137330
X138330
X139330
X140330
X141330
X142330
X143330
X145410
X146410
X147410
X148410
X149410
X150410
X151410
X152410
X153410
X128903Y078180
X127903
X128903Y079180
X076403
Y078180
X075403
X023903
X022903
X023903Y079180
T12
X118279Y016199
X116940Y020648
X064440
X065779Y016199
X013279
X011940Y020648
X118279Y057449
X116940Y061898
X064440
X065779Y057449
X013279
X011940Y061898
T13
X036040Y036308
X038040
X088540
X090540
X141040
X143040
X038040Y077558
X036040
X088540
X090540
X141040
X143040
T14
X023295Y042408
X032115Y042416
X044615Y042408
X053435
X075795
X084615Y042416
X097115Y042408
X105935
X128295
X137115Y042416
X149615Y042408
X158435
Y083658
X149615
X137115Y083666
X128295Y083658
X105935
X097115
X084615Y083666
X075795Y083658
X053435
X044615
X032115Y083666
X023295Y083658
T15
X020146Y042408
X021720Y042015
X023984Y043786
Y045558
X028277Y045566
Y043794
X028966Y042416
X030540Y042023
X019457Y043786
Y045558
X032804Y045566
Y043794
X040777Y043786
Y045558
X041466Y042408
X043040Y042015
X045304Y043786
Y045558
X049597
Y043786
X050286Y042408
X051860Y042015
X054124Y043786
Y045558
X071957
Y043786
X072646Y042408
X074220Y042015
X076484Y043786
Y045558
X080777Y045566
Y043794
X081466Y042416
X083040Y042023
X085304Y043794
Y045566
X093277Y045558
Y043786
X093966Y042408
X095540Y042015
X097804Y043786
Y045558
X102097
Y043786
X102786Y042408
X104360Y042015
X106624Y043786
Y045558
X124457
Y043786
X125146Y042408
X126720Y042015
X128984Y043786
Y045558
X133277Y045566
Y043794
X133966Y042416
X135540Y042023
X137804Y043794
Y045566
X145777Y045558
Y043786
X146466Y042408
X148040Y042015
X150304Y043786
Y045558
X154597
Y043786
X155286Y042408
X156860Y042015
X159124Y043786
Y045558
Y047330
X158435Y048708
X156860Y049101
X155286Y048708
X154597Y047330
X150304
X149615Y048708
X148040Y049101
X146466Y048708
X145777Y047330
X137804Y047338
X137115Y048716
X135540Y049109
X133966Y048716
X133277Y047338
X128984Y047330
X128295Y048708
X126720Y049101
X125146Y048708
X124457Y047330
X106624
X105935Y048708
X104360Y049101
X102786Y048708
X102097Y047330
X097804
X097115Y048708
X095540Y049101
X093966Y048708
X093277Y047330
X085304Y047338
X084615Y048716
X083040Y049109
X081466Y048716
X080777Y047338
X076484Y047330
X075795Y048708
X074220Y049101
X072646Y048708
X071957Y047330
X054124
X053435Y048708
X051860Y049101
X050286Y048708
X049597Y047330
X045304
X044615Y048708
X043040Y049101
X041466Y048708
X040777Y047330
X032804Y047338
X032115Y048716
X030540Y049109
X028966Y048716
X028277Y047338
X023984Y047330
X023295Y048708
X021720Y049101
X020146Y048708
X019457Y047330
X156860Y083265
X159124Y085036
Y086808
Y088580
X158435Y089958
X156860Y090351
X155286Y089958
X154597Y088580
Y086808
Y085036
X155286Y083658
X150304Y085036
Y086808
Y088580
X149615Y089958
X148040Y090351
X146466Y089958
X145777Y088580
Y086808
Y085036
X146466Y083658
X148040Y083265
X137804Y085044
Y086816
Y088588
X137115Y089966
X135540Y090359
X133966Y089966
X133277Y088588
Y086816
Y085044
X133966Y083666
X135540Y083273
X128984Y085036
Y086808
Y088580
X128295Y089958
X126720Y090351
X125146Y089958
Y083658
X126720Y083265
X124457Y085036
Y086808
Y088580
X106624
Y086808
Y085036
X104360Y083265
X102786Y083658
X102097Y085036
Y086808
Y088580
X102786Y089958
X104360Y090351
X105935Y089958
X097115
X095540Y090351
X093966Y089958
X097804Y088580
Y086808
Y085036
X095540Y083265
X093966Y083658
X093277Y085036
Y086808
Y088580
X085304Y088588
Y086816
Y085044
X083040Y083273
X081466Y083666
X080777Y085044
Y086816
Y088588
X081466Y089966
X083040Y090359
X084615Y089966
X075795Y089958
X074220Y090351
X072646Y089958
X071957Y088580
Y086808
Y085036
X072646Y083658
X074220Y083265
X076484Y085036
Y086808
Y088580
X054124
Y086808
Y085036
X051860Y083265
X050286Y083658
X049597Y085036
Y086808
Y088580
X050286Y089958
X051860Y090351
X053435Y089958
X044615
X043040Y090351
X041466Y089958
X040777Y088580
Y086808
Y085036
X041466Y083658
X043040Y083265
X045304Y085036
Y086808
Y088580
X032804Y088588
Y086816
Y085044
X032115Y089966
X030540Y090359
X028966Y089966
X028277Y088588
Y086816
Y085044
X028966Y083666
X030540Y083273
X023984Y085036
Y086808
Y088580
X023295Y089958
X021720Y090351
X020146Y089958
X019457Y088580
Y086808
Y085036
X020146Y083658
X021720Y083265
T16
X015540Y033308
X012103Y040746
X061478Y040746
X058040Y032308
X068040Y033308
X064603Y040746
X113978Y040746
X117103Y040746
X120540Y033308
X110540Y032308
X163040
X166478Y040746
Y053246
X141790Y053246
X117103
X113978Y053246
X089290Y053246
X064603
X061478Y053246
X036790Y053246
X012103
X015540Y074558
X058040Y073558
X068040Y074558
X110540Y073558
X120540Y074558
X163040Y073558
X166478Y081996
X117103Y081996
X113978Y081996
X064603Y081996
X061478Y081996
X012103Y081996
Y094496
X036790
X061478Y094496
X064603Y094496
X089290
X113978Y094496
X117103Y094496
X141790
X166478Y094496
T17
X012509Y012840
X166072
X036790Y043058
X089290
X141790
Y048058
X089290
X036790
X141790Y084308
Y089308
X089290
Y084308
X036790
Y089308
X012509Y098027
X166072
M30
