%FSAX24Y24*%
%MOIN*%
G70*
G01*
G75*
G04 Layer_Color=65535*
G04:AMPARAMS|DCode=10|XSize=24mil|YSize=59.1mil|CornerRadius=0.6mil|HoleSize=0mil|Usage=FLASHONLY|Rotation=90.000|XOffset=0mil|YOffset=0mil|HoleType=Round|Shape=RoundedRectangle|*
%AMROUNDEDRECTD10*
21,1,0.0240,0.0579,0,0,90.0*
21,1,0.0228,0.0591,0,0,90.0*
1,1,0.0012,0.0289,0.0114*
1,1,0.0012,0.0289,-0.0114*
1,1,0.0012,-0.0289,-0.0114*
1,1,0.0012,-0.0289,0.0114*
%
%ADD10ROUNDEDRECTD10*%
G04:AMPARAMS|DCode=11|XSize=24mil|YSize=59.1mil|CornerRadius=0.6mil|HoleSize=0mil|Usage=FLASHONLY|Rotation=0.000|XOffset=0mil|YOffset=0mil|HoleType=Round|Shape=RoundedRectangle|*
%AMROUNDEDRECTD11*
21,1,0.0240,0.0579,0,0,0.0*
21,1,0.0228,0.0591,0,0,0.0*
1,1,0.0012,0.0114,-0.0289*
1,1,0.0012,-0.0114,-0.0289*
1,1,0.0012,-0.0114,0.0289*
1,1,0.0012,0.0114,0.0289*
%
%ADD11ROUNDEDRECTD11*%
%ADD12R,0.2362X0.1969*%
%ADD13R,0.0276X0.0512*%
G04:AMPARAMS|DCode=14|XSize=21.7mil|YSize=68.9mil|CornerRadius=0mil|HoleSize=0mil|Usage=FLASHONLY|Rotation=45.000|XOffset=0mil|YOffset=0mil|HoleType=Round|Shape=Round|*
%AMOVALD14*
21,1,0.0472,0.0217,0.0000,0.0000,135.0*
1,1,0.0217,0.0167,-0.0167*
1,1,0.0217,-0.0167,0.0167*
%
%ADD14OVALD14*%

G04:AMPARAMS|DCode=15|XSize=21.7mil|YSize=68.9mil|CornerRadius=0mil|HoleSize=0mil|Usage=FLASHONLY|Rotation=135.000|XOffset=0mil|YOffset=0mil|HoleType=Round|Shape=Round|*
%AMOVALD15*
21,1,0.0472,0.0217,0.0000,0.0000,225.0*
1,1,0.0217,0.0167,0.0167*
1,1,0.0217,-0.0167,-0.0167*
%
%ADD15OVALD15*%

G04:AMPARAMS|DCode=16|XSize=70.9mil|YSize=63mil|CornerRadius=0mil|HoleSize=0mil|Usage=FLASHONLY|Rotation=225.000|XOffset=0mil|YOffset=0mil|HoleType=Round|Shape=Rectangle|*
%AMROTATEDRECTD16*
4,1,4,0.0028,0.0473,0.0473,0.0028,-0.0028,-0.0473,-0.0473,-0.0028,0.0028,0.0473,0.0*
%
%ADD16ROTATEDRECTD16*%

%ADD17R,0.0709X0.0630*%
%ADD18R,0.0512X0.0591*%
%ADD19C,0.0079*%
%ADD20R,0.0394X0.0394*%
%ADD21C,0.0591*%
%ADD22R,0.0591X0.0591*%
%ADD23C,0.1250*%
%ADD24C,0.0961*%
%ADD25C,0.0394*%
%ADD26C,0.2559*%
%ADD27R,0.0984X0.0591*%
%ADD28C,0.0100*%
%ADD29C,0.0236*%
%ADD30C,0.0098*%
%ADD31C,0.0050*%
%ADD32R,0.1575X0.1575*%
G36*
X035440Y017294D02*
X035447D01*
X035454Y017292D01*
X035463Y017291D01*
X035471Y017289D01*
X035479Y017286D01*
X035480D01*
X035483Y017285D01*
X035487Y017284D01*
X035492Y017281D01*
X035504Y017275D01*
X035517Y017265D01*
X035517Y017265D01*
X035519Y017263D01*
X035522Y017260D01*
X035525Y017256D01*
X035528Y017251D01*
X035532Y017246D01*
X035536Y017239D01*
X035539Y017232D01*
Y017231D01*
X035541Y017228D01*
X035541Y017225D01*
X035543Y017219D01*
X035544Y017213D01*
X035545Y017206D01*
X035546Y017198D01*
Y017189D01*
Y017188D01*
Y017185D01*
X035546Y017180D01*
Y017175D01*
X035545Y017168D01*
X035544Y017161D01*
X035539Y017146D01*
X035538Y017145D01*
X035538Y017143D01*
X035536Y017139D01*
X035533Y017135D01*
X035530Y017130D01*
X035527Y017124D01*
X035522Y017118D01*
X035517Y017113D01*
X035516Y017112D01*
X035514Y017111D01*
X035511Y017108D01*
X035506Y017105D01*
X035501Y017101D01*
X035495Y017098D01*
X035487Y017094D01*
X035479Y017091D01*
X035479D01*
X035476Y017090D01*
X035471Y017089D01*
X035465Y017087D01*
X035457Y017086D01*
X035449Y017085D01*
X035440Y017084D01*
X035425D01*
X035420Y017085D01*
X035413D01*
X035406Y017085D01*
X035397Y017087D01*
X035380Y017091D01*
X035380Y017092D01*
X035377Y017093D01*
X035372Y017095D01*
X035367Y017097D01*
X035355Y017104D01*
X035344Y017113D01*
X035343Y017114D01*
X035342Y017115D01*
X035339Y017118D01*
X035335Y017122D01*
X035331Y017127D01*
X035328Y017133D01*
X035320Y017146D01*
X035320Y017147D01*
X035319Y017149D01*
X035318Y017153D01*
X035316Y017159D01*
X035315Y017165D01*
X035314Y017172D01*
X035312Y017180D01*
Y017189D01*
Y017190D01*
Y017193D01*
X035313Y017198D01*
Y017203D01*
X035315Y017211D01*
X035316Y017218D01*
X035318Y017225D01*
X035320Y017233D01*
Y017233D01*
X035322Y017236D01*
X035324Y017240D01*
X035326Y017244D01*
X035334Y017255D01*
X035344Y017266D01*
X035345Y017267D01*
X035347Y017268D01*
X035350Y017271D01*
X035354Y017274D01*
X035359Y017277D01*
X035365Y017281D01*
X035372Y017284D01*
X035380Y017287D01*
X035381D01*
X035384Y017289D01*
X035388Y017289D01*
X035395Y017291D01*
X035402Y017292D01*
X035410Y017293D01*
X035420Y017294D01*
X035434D01*
X035440Y017294D01*
D02*
G37*
G36*
X037161Y046345D02*
X037174Y046344D01*
X037189Y046342D01*
X037219Y046335D01*
X037221D01*
X037227Y046333D01*
X037234Y046330D01*
X037243Y046328D01*
X037265Y046317D01*
X037286Y046304D01*
X037288Y046303D01*
X037291Y046301D01*
X037297Y046297D01*
X037302Y046291D01*
X037316Y046275D01*
X037329Y046255D01*
Y046253D01*
X037332Y046250D01*
X037333Y046243D01*
X037336Y046236D01*
X037339Y046226D01*
X037340Y046214D01*
X037343Y046188D01*
Y046186D01*
Y046180D01*
X037342Y046172D01*
X037340Y046161D01*
X037337Y046148D01*
X037334Y046137D01*
X037329Y046123D01*
X037321Y046110D01*
X037320Y046109D01*
X037317Y046105D01*
X037313Y046099D01*
X037305Y046091D01*
X037295Y046083D01*
X037283Y046074D01*
X037270Y046065D01*
X037254Y046056D01*
X037256D01*
X037260Y046055D01*
X037265Y046053D01*
X037272Y046051D01*
X037289Y046045D01*
X037307Y046035D01*
X037308D01*
X037311Y046032D01*
X037320Y046024D01*
X037333Y046014D01*
X037345Y046000D01*
Y045998D01*
X037348Y045997D01*
X037353Y045988D01*
X037361Y045973D01*
X037367Y045957D01*
Y045956D01*
X037368Y045953D01*
X037369Y045949D01*
X037371Y045943D01*
X037372Y045927D01*
X037374Y045908D01*
Y045906D01*
Y045903D01*
Y045899D01*
X037372Y045893D01*
X037371Y045877D01*
X037367Y045858D01*
X037359Y045836D01*
X037349Y045814D01*
X037334Y045792D01*
X037316Y045774D01*
X037313Y045772D01*
X037305Y045766D01*
X037291Y045759D01*
X037272Y045752D01*
X037248Y045743D01*
X037218Y045736D01*
X037183Y045730D01*
X037144Y045728D01*
X036912D01*
Y046347D01*
X037149D01*
X037161Y046345D01*
D02*
G37*
G36*
X035541Y017339D02*
X035232D01*
Y017378D01*
X035541D01*
Y017339D01*
D02*
G37*
G36*
X035448Y017046D02*
X035452Y017045D01*
X035458Y017044D01*
X035466Y017043D01*
X035473Y017041D01*
X035481Y017038D01*
X035488Y017034D01*
X035489Y017034D01*
X035491Y017032D01*
X035495Y017030D01*
X035499Y017027D01*
X035504Y017023D01*
X035509Y017019D01*
X035520Y017007D01*
X035521Y017007D01*
X035522Y017004D01*
X035525Y017001D01*
X035527Y016996D01*
X035530Y016991D01*
X035534Y016985D01*
X035537Y016977D01*
X035540Y016969D01*
Y016969D01*
X035541Y016966D01*
X035542Y016961D01*
X035543Y016956D01*
X035544Y016948D01*
X035546Y016940D01*
X035546Y016931D01*
Y016921D01*
Y016920D01*
Y016915D01*
X035546Y016910D01*
X035545Y016902D01*
X035544Y016892D01*
X035542Y016882D01*
X035539Y016872D01*
X035536Y016861D01*
X035535Y016860D01*
X035533Y016857D01*
X035531Y016852D01*
X035527Y016845D01*
X035523Y016838D01*
X035517Y016831D01*
X035511Y016823D01*
X035504Y016816D01*
X035503Y016815D01*
X035501Y016813D01*
X035496Y016809D01*
X035490Y016805D01*
X035482Y016801D01*
X035474Y016796D01*
X035464Y016791D01*
X035453Y016787D01*
X035452Y016786D01*
X035448Y016786D01*
X035441Y016784D01*
X035433Y016782D01*
X035424Y016780D01*
X035412Y016778D01*
X035400Y016778D01*
X035387Y016777D01*
X035381D01*
X035374Y016778D01*
X035365Y016778D01*
X035355Y016779D01*
X035344Y016781D01*
X035332Y016783D01*
X035321Y016787D01*
X035320Y016788D01*
X035316Y016789D01*
X035310Y016791D01*
X035304Y016794D01*
X035296Y016799D01*
X035287Y016804D01*
X035278Y016810D01*
X035270Y016816D01*
X035269Y016817D01*
X035267Y016820D01*
X035263Y016824D01*
X035258Y016829D01*
X035253Y016836D01*
X035248Y016843D01*
X035242Y016852D01*
X035238Y016861D01*
X035237Y016863D01*
X035236Y016867D01*
X035234Y016872D01*
X035232Y016879D01*
X035230Y016888D01*
X035228Y016898D01*
X035227Y016910D01*
X035226Y016921D01*
Y016923D01*
Y016926D01*
Y016930D01*
X035227Y016937D01*
X035228Y016944D01*
X035229Y016951D01*
X035234Y016968D01*
Y016969D01*
X035235Y016972D01*
X035237Y016976D01*
X035239Y016981D01*
X035242Y016987D01*
X035245Y016993D01*
X035254Y017007D01*
X035255Y017007D01*
X035256Y017009D01*
X035259Y017012D01*
X035263Y017016D01*
X035267Y017020D01*
X035272Y017025D01*
X035279Y017029D01*
X035285Y017034D01*
X035286Y017034D01*
X035288Y017035D01*
X035293Y017037D01*
X035297Y017039D01*
X035304Y017042D01*
X035310Y017044D01*
X035318Y017045D01*
X035326Y017047D01*
Y017004D01*
X035324D01*
X035321Y017004D01*
X035318Y017003D01*
X035309Y017001D01*
X035300Y016997D01*
X035299D01*
X035298Y016996D01*
X035296Y016994D01*
X035293Y016993D01*
X035286Y016987D01*
X035280Y016979D01*
X035279Y016978D01*
X035278Y016977D01*
X035277Y016974D01*
X035275Y016972D01*
X035270Y016964D01*
X035267Y016953D01*
Y016953D01*
X035266Y016951D01*
X035265Y016947D01*
X035264Y016944D01*
X035264Y016939D01*
X035263Y016934D01*
X035262Y016922D01*
Y016921D01*
Y016918D01*
X035263Y016914D01*
Y016908D01*
X035264Y016902D01*
X035266Y016894D01*
X035267Y016887D01*
X035270Y016880D01*
Y016879D01*
X035272Y016877D01*
X035274Y016873D01*
X035276Y016869D01*
X035280Y016864D01*
X035284Y016858D01*
X035288Y016852D01*
X035294Y016847D01*
X035295Y016846D01*
X035297Y016845D01*
X035301Y016843D01*
X035305Y016840D01*
X035311Y016836D01*
X035318Y016833D01*
X035325Y016829D01*
X035334Y016826D01*
X035334D01*
X035338Y016826D01*
X035342Y016824D01*
X035349Y016824D01*
X035357Y016822D01*
X035366Y016821D01*
X035376Y016820D01*
X035392D01*
X035398Y016821D01*
X035404D01*
X035413Y016821D01*
X035422Y016823D01*
X035440Y016826D01*
X035441D01*
X035444Y016828D01*
X035448Y016829D01*
X035454Y016832D01*
X035460Y016834D01*
X035466Y016838D01*
X035479Y016847D01*
X035480Y016848D01*
X035482Y016849D01*
X035485Y016852D01*
X035488Y016856D01*
X035492Y016861D01*
X035497Y016867D01*
X035504Y016879D01*
Y016880D01*
X035506Y016882D01*
X035506Y016886D01*
X035508Y016891D01*
X035509Y016897D01*
X035511Y016904D01*
X035511Y016912D01*
X035512Y016921D01*
Y016921D01*
Y016923D01*
Y016927D01*
X035511Y016931D01*
X035510Y016942D01*
X035508Y016953D01*
Y016954D01*
X035507Y016956D01*
X035506Y016958D01*
X035504Y016962D01*
X035501Y016971D01*
X035495Y016980D01*
X035494Y016980D01*
X035493Y016982D01*
X035491Y016983D01*
X035488Y016986D01*
X035482Y016991D01*
X035473Y016996D01*
X035472D01*
X035471Y016997D01*
X035468Y016999D01*
X035465Y017000D01*
X035460Y017001D01*
X035455Y017002D01*
X035444Y017004D01*
Y017047D01*
X035444D01*
X035448Y017046D01*
D02*
G37*
G36*
X036191Y046347D02*
X036207Y046344D01*
X036225Y046338D01*
X036245Y046330D01*
X036264Y046319D01*
X036283Y046303D01*
X036285Y046301D01*
X036291Y046294D01*
X036299Y046284D01*
X036308Y046269D01*
X036317Y046253D01*
X036326Y046233D01*
X036331Y046209D01*
X036333Y046183D01*
Y046182D01*
Y046180D01*
Y046176D01*
X036331Y046170D01*
X036330Y046154D01*
X036326Y046135D01*
X036318Y046115D01*
X036307Y046093D01*
X036291Y046071D01*
X036282Y046061D01*
X036270Y046052D01*
X036272D01*
X036275Y046051D01*
X036279Y046048D01*
X036286Y046043D01*
X036301Y046032D01*
X036320Y046014D01*
X036337Y045992D01*
X036345Y045978D01*
X036353Y045963D01*
X036359Y045947D01*
X036363Y045930D01*
X036366Y045909D01*
X036368Y045889D01*
Y045886D01*
X036366Y045879D01*
X036365Y045865D01*
X036362Y045851D01*
X036355Y045833D01*
X036346Y045813D01*
X036334Y045792D01*
X036317Y045772D01*
X036314Y045769D01*
X036307Y045762D01*
X036293Y045753D01*
X036276Y045741D01*
X036253Y045730D01*
X036226Y045721D01*
X036197Y045714D01*
X036164Y045711D01*
X036155D01*
X036149Y045712D01*
X036132Y045714D01*
X036111Y045717D01*
X036086Y045723D01*
X036059Y045731D01*
X036031Y045743D01*
X036003Y045759D01*
Y045838D01*
X036005D01*
X036008Y045836D01*
X036012Y045833D01*
X036018Y045830D01*
X036034Y045822D01*
X036054Y045813D01*
X036079Y045803D01*
X036105Y045795D01*
X036135Y045790D01*
X036164Y045787D01*
X036172D01*
X036183Y045788D01*
X036196Y045791D01*
X036209Y045795D01*
X036225Y045803D01*
X036240Y045811D01*
X036254Y045823D01*
X036256Y045825D01*
X036260Y045829D01*
X036264Y045835D01*
X036272Y045844D01*
X036277Y045854D01*
X036282Y045865D01*
X036286Y045879D01*
X036288Y045892D01*
Y045895D01*
Y045900D01*
X036286Y045911D01*
X036283Y045924D01*
X036279Y045937D01*
X036273Y045951D01*
X036266Y045965D01*
X036254Y045978D01*
X036253Y045979D01*
X036248Y045982D01*
X036241Y045988D01*
X036229Y045994D01*
X036216Y045998D01*
X036200Y046004D01*
X036183Y046007D01*
X036161Y046008D01*
X036113D01*
Y046086D01*
X036165D01*
X036172Y046087D01*
X036181Y046088D01*
X036193Y046091D01*
X036205Y046097D01*
X036216Y046103D01*
X036226Y046112D01*
X036228Y046113D01*
X036231Y046116D01*
X036235Y046123D01*
X036241Y046131D01*
X036245Y046141D01*
X036250Y046153D01*
X036253Y046166D01*
X036254Y046180D01*
Y046182D01*
Y046188D01*
X036253Y046195D01*
X036251Y046205D01*
X036248Y046215D01*
X036244Y046227D01*
X036238Y046237D01*
X036229Y046247D01*
X036228Y046249D01*
X036225Y046252D01*
X036219Y046256D01*
X036212Y046261D01*
X036203Y046265D01*
X036191Y046269D01*
X036180Y046272D01*
X036165Y046274D01*
X036155D01*
X036149Y046272D01*
X036140Y046271D01*
X036130Y046269D01*
X036105Y046263D01*
X036104D01*
X036100Y046262D01*
X036094Y046259D01*
X036086Y046258D01*
X036070Y046250D01*
X036062Y046246D01*
X036054Y046242D01*
Y046319D01*
X036057Y046320D01*
X036065Y046323D01*
X036075Y046329D01*
X036089Y046335D01*
X036107Y046339D01*
X036126Y046345D01*
X036146Y046348D01*
X036167Y046349D01*
X036178D01*
X036191Y046347D01*
D02*
G37*
G36*
X031441Y017618D02*
Y017580D01*
X031277Y017532D01*
X031441Y017483D01*
Y017444D01*
X031218Y017377D01*
Y017422D01*
X031388Y017463D01*
X031218Y017514D01*
Y017550D01*
X031388Y017600D01*
X031218Y017641D01*
Y017685D01*
X031441Y017618D01*
D02*
G37*
G36*
X031221Y017909D02*
X031228Y017908D01*
X031238Y017905D01*
X031248Y017901D01*
X031260Y017895D01*
X031271Y017886D01*
X031277Y017880D01*
X031283Y017875D01*
X031284Y017873D01*
X031288Y017869D01*
X031292Y017862D01*
X031298Y017854D01*
X031305Y017845D01*
X031313Y017834D01*
X031331Y017810D01*
Y017809D01*
X031332Y017808D01*
X031336Y017805D01*
X031342Y017799D01*
X031351Y017792D01*
X031362Y017786D01*
X031374Y017781D01*
X031388Y017776D01*
X031395Y017775D01*
X031403Y017775D01*
Y017907D01*
X031441D01*
Y017734D01*
X031435D01*
X031429Y017733D01*
X031416D01*
X031411Y017734D01*
X031406D01*
X031399Y017735D01*
X031392Y017736D01*
X031384Y017738D01*
X031368Y017742D01*
X031351Y017748D01*
X031333Y017756D01*
X031325Y017762D01*
X031317Y017768D01*
X031317Y017769D01*
X031314Y017771D01*
X031311Y017775D01*
X031305Y017781D01*
X031298Y017790D01*
X031293Y017795D01*
X031289Y017802D01*
X031284Y017808D01*
X031278Y017816D01*
X031271Y017824D01*
X031265Y017834D01*
Y017835D01*
X031263Y017835D01*
X031261Y017840D01*
X031255Y017845D01*
X031249Y017851D01*
X031242Y017858D01*
X031233Y017864D01*
X031224Y017867D01*
X031219Y017868D01*
X031215Y017869D01*
X031210D01*
X031207Y017868D01*
X031200Y017867D01*
X031192Y017863D01*
X031184Y017857D01*
X031180Y017853D01*
X031177Y017849D01*
X031174Y017843D01*
X031172Y017837D01*
X031170Y017829D01*
X031169Y017821D01*
Y017821D01*
Y017819D01*
Y017817D01*
X031170Y017814D01*
X031172Y017806D01*
X031174Y017797D01*
X031178Y017786D01*
X031185Y017775D01*
X031189Y017769D01*
X031194Y017764D01*
X031200Y017759D01*
X031207Y017754D01*
X031181Y017729D01*
X031180Y017730D01*
X031177Y017732D01*
X031172Y017736D01*
X031166Y017741D01*
X031159Y017748D01*
X031152Y017756D01*
X031146Y017765D01*
X031140Y017776D01*
X031140Y017777D01*
X031139Y017780D01*
X031137Y017784D01*
X031135Y017790D01*
X031134Y017797D01*
X031132Y017805D01*
X031132Y017813D01*
X031131Y017821D01*
Y017822D01*
Y017823D01*
Y017825D01*
Y017828D01*
X031132Y017835D01*
X031134Y017843D01*
X031136Y017853D01*
X031140Y017864D01*
X031145Y017875D01*
X031153Y017884D01*
X031153Y017886D01*
X031157Y017888D01*
X031162Y017892D01*
X031169Y017897D01*
X031178Y017902D01*
X031188Y017906D01*
X031201Y017909D01*
X031215Y017910D01*
X031218D01*
X031221Y017909D01*
D02*
G37*
G36*
X034169Y046345D02*
X034178D01*
X034184Y046344D01*
X034197Y046342D01*
X034213Y046339D01*
X034214D01*
X034216Y046338D01*
X034226Y046336D01*
X034238Y046332D01*
X034251Y046326D01*
X034252D01*
X034254Y046325D01*
X034262Y046320D01*
X034274Y046314D01*
X034286Y046306D01*
X034287Y046304D01*
X034290Y046301D01*
X034296Y046296D01*
X034302Y046290D01*
X034308Y046281D01*
X034315Y046271D01*
X034328Y046246D01*
Y046244D01*
X034331Y046240D01*
X034332Y046233D01*
X034335Y046224D01*
X034338Y046212D01*
X034340Y046201D01*
X034343Y046173D01*
Y046172D01*
Y046167D01*
Y046161D01*
X034341Y046154D01*
X034338Y046134D01*
X034332Y046113D01*
Y046112D01*
X034331Y046109D01*
X034328Y046105D01*
X034325Y046097D01*
X034316Y046083D01*
X034305Y046065D01*
X034303Y046064D01*
X034302Y046062D01*
X034293Y046053D01*
X034279Y046042D01*
X034261Y046030D01*
X034260D01*
X034257Y046027D01*
X034251Y046026D01*
X034245Y046023D01*
X034236Y046018D01*
X034226Y046016D01*
X034204Y046010D01*
Y046008D01*
X034206D01*
X034207Y046007D01*
X034214Y046004D01*
X034226Y045997D01*
X034241Y045986D01*
X034257Y045972D01*
X034273Y045953D01*
X034281Y045941D01*
X034289Y045927D01*
X034296Y045912D01*
X034303Y045896D01*
X034365Y045728D01*
X034276D01*
X034217Y045893D01*
Y045895D01*
X034216Y045897D01*
X034211Y045906D01*
X034204Y045919D01*
X034195Y045932D01*
Y045934D01*
X034194Y045935D01*
X034187Y045944D01*
X034178Y045954D01*
X034165Y045965D01*
X034163D01*
X034162Y045967D01*
X034153Y045972D01*
X034141Y045979D01*
X034125Y045985D01*
X034124D01*
X034123Y045986D01*
X034118Y045988D01*
X034112Y045989D01*
X034098Y045991D01*
X034082Y045992D01*
X033930D01*
Y045728D01*
X033848D01*
Y046347D01*
X034153D01*
X034169Y046345D01*
D02*
G37*
G36*
X032391Y017568D02*
Y017530D01*
X032227Y017482D01*
X032391Y017433D01*
Y017394D01*
X032168Y017327D01*
Y017372D01*
X032338Y017413D01*
X032168Y017464D01*
Y017500D01*
X032338Y017550D01*
X032168Y017591D01*
Y017635D01*
X032391Y017568D01*
D02*
G37*
G36*
X032316Y017860D02*
X032323Y017859D01*
X032330Y017857D01*
X032339Y017854D01*
X032349Y017849D01*
X032359Y017844D01*
X032369Y017835D01*
X032371Y017833D01*
X032375Y017830D01*
X032379Y017823D01*
X032385Y017814D01*
X032391Y017803D01*
X032395Y017790D01*
X032399Y017775D01*
X032400Y017758D01*
Y017758D01*
Y017756D01*
Y017754D01*
X032399Y017751D01*
X032399Y017742D01*
X032397Y017732D01*
X032394Y017720D01*
X032390Y017706D01*
X032384Y017692D01*
X032376Y017678D01*
X032337D01*
Y017679D01*
X032337Y017680D01*
X032339Y017682D01*
X032340Y017685D01*
X032345Y017693D01*
X032349Y017704D01*
X032354Y017716D01*
X032358Y017729D01*
X032361Y017744D01*
X032362Y017758D01*
Y017760D01*
Y017763D01*
X032361Y017768D01*
X032360Y017774D01*
X032358Y017781D01*
X032354Y017789D01*
X032350Y017796D01*
X032344Y017803D01*
X032343Y017804D01*
X032341Y017806D01*
X032338Y017809D01*
X032334Y017812D01*
X032329Y017815D01*
X032323Y017817D01*
X032316Y017819D01*
X032310Y017820D01*
X032305D01*
X032300Y017819D01*
X032294Y017818D01*
X032287Y017816D01*
X032280Y017813D01*
X032273Y017809D01*
X032267Y017803D01*
X032266Y017803D01*
X032264Y017801D01*
X032262Y017797D01*
X032259Y017791D01*
X032256Y017785D01*
X032254Y017776D01*
X032252Y017768D01*
X032251Y017757D01*
Y017733D01*
X032213D01*
Y017755D01*
Y017756D01*
Y017759D01*
X032212Y017763D01*
X032211Y017767D01*
X032210Y017773D01*
X032207Y017779D01*
X032204Y017785D01*
X032200Y017790D01*
X032199Y017790D01*
X032197Y017792D01*
X032194Y017794D01*
X032190Y017797D01*
X032185Y017799D01*
X032179Y017801D01*
X032173Y017803D01*
X032165Y017803D01*
X032162D01*
X032158Y017803D01*
X032153Y017802D01*
X032148Y017801D01*
X032142Y017798D01*
X032137Y017795D01*
X032132Y017791D01*
X032131Y017790D01*
X032130Y017789D01*
X032127Y017786D01*
X032125Y017782D01*
X032123Y017778D01*
X032121Y017772D01*
X032119Y017766D01*
X032119Y017759D01*
Y017758D01*
Y017757D01*
Y017754D01*
X032119Y017751D01*
X032120Y017747D01*
X032121Y017741D01*
X032124Y017729D01*
Y017728D01*
X032125Y017726D01*
X032126Y017723D01*
X032127Y017720D01*
X032130Y017712D01*
X032133Y017707D01*
X032135Y017704D01*
X032096D01*
X032095Y017705D01*
X032094Y017709D01*
X032091Y017714D01*
X032088Y017721D01*
X032086Y017730D01*
X032083Y017739D01*
X032082Y017750D01*
X032081Y017760D01*
Y017760D01*
Y017761D01*
Y017766D01*
X032082Y017772D01*
X032084Y017780D01*
X032087Y017789D01*
X032090Y017799D01*
X032096Y017809D01*
X032104Y017818D01*
X032105Y017819D01*
X032108Y017822D01*
X032114Y017826D01*
X032121Y017830D01*
X032129Y017835D01*
X032139Y017839D01*
X032151Y017842D01*
X032164Y017843D01*
X032168D01*
X032170Y017842D01*
X032178Y017841D01*
X032188Y017839D01*
X032198Y017836D01*
X032209Y017830D01*
X032220Y017822D01*
X032225Y017817D01*
X032229Y017811D01*
Y017812D01*
X032230Y017814D01*
X032232Y017816D01*
X032234Y017819D01*
X032240Y017827D01*
X032248Y017836D01*
X032259Y017845D01*
X032267Y017849D01*
X032274Y017853D01*
X032282Y017856D01*
X032291Y017858D01*
X032301Y017860D01*
X032311Y017860D01*
X032313D01*
X032316Y017860D01*
D02*
G37*
G36*
X032290Y017310D02*
X032297D01*
X032304Y017308D01*
X032313Y017307D01*
X032321Y017306D01*
X032329Y017303D01*
X032330D01*
X032333Y017301D01*
X032337Y017300D01*
X032342Y017298D01*
X032354Y017291D01*
X032367Y017281D01*
X032367Y017281D01*
X032369Y017279D01*
X032372Y017276D01*
X032375Y017272D01*
X032378Y017267D01*
X032382Y017262D01*
X032386Y017255D01*
X032389Y017248D01*
Y017247D01*
X032391Y017244D01*
X032391Y017241D01*
X032393Y017236D01*
X032394Y017229D01*
X032395Y017222D01*
X032396Y017214D01*
Y017205D01*
Y017204D01*
Y017201D01*
X032396Y017196D01*
Y017191D01*
X032395Y017185D01*
X032394Y017177D01*
X032389Y017162D01*
X032388Y017161D01*
X032388Y017159D01*
X032386Y017155D01*
X032383Y017151D01*
X032380Y017146D01*
X032377Y017140D01*
X032372Y017134D01*
X032367Y017129D01*
X032366Y017128D01*
X032364Y017127D01*
X032361Y017124D01*
X032356Y017121D01*
X032351Y017117D01*
X032345Y017114D01*
X032337Y017110D01*
X032329Y017107D01*
X032329D01*
X032326Y017106D01*
X032321Y017105D01*
X032315Y017104D01*
X032308Y017102D01*
X032299Y017101D01*
X032290Y017100D01*
X032275D01*
X032270Y017101D01*
X032263D01*
X032256Y017101D01*
X032247Y017103D01*
X032230Y017107D01*
X032229Y017108D01*
X032227Y017109D01*
X032222Y017111D01*
X032217Y017113D01*
X032205Y017120D01*
X032194Y017129D01*
X032193Y017130D01*
X032192Y017131D01*
X032189Y017134D01*
X032185Y017139D01*
X032181Y017143D01*
X032178Y017149D01*
X032170Y017162D01*
X032170Y017163D01*
X032169Y017166D01*
X032168Y017169D01*
X032166Y017175D01*
X032165Y017181D01*
X032164Y017188D01*
X032162Y017196D01*
Y017205D01*
Y017206D01*
Y017209D01*
X032163Y017214D01*
Y017220D01*
X032165Y017227D01*
X032166Y017234D01*
X032168Y017241D01*
X032170Y017249D01*
Y017249D01*
X032172Y017252D01*
X032174Y017256D01*
X032176Y017260D01*
X032184Y017271D01*
X032194Y017282D01*
X032195Y017283D01*
X032197Y017284D01*
X032200Y017287D01*
X032204Y017290D01*
X032209Y017293D01*
X032215Y017297D01*
X032222Y017300D01*
X032230Y017303D01*
X032231D01*
X032234Y017305D01*
X032238Y017306D01*
X032245Y017307D01*
X032252Y017308D01*
X032260Y017309D01*
X032270Y017311D01*
X032284D01*
X032290Y017310D01*
D02*
G37*
G36*
X035321Y017629D02*
X035328Y017628D01*
X035338Y017625D01*
X035348Y017621D01*
X035360Y017615D01*
X035371Y017607D01*
X035377Y017601D01*
X035383Y017595D01*
X035384Y017593D01*
X035388Y017589D01*
X035392Y017582D01*
X035398Y017574D01*
X035405Y017565D01*
X035413Y017554D01*
X035431Y017530D01*
Y017529D01*
X035432Y017529D01*
X035436Y017525D01*
X035442Y017519D01*
X035451Y017512D01*
X035462Y017506D01*
X035474Y017501D01*
X035488Y017496D01*
X035495Y017496D01*
X035503Y017495D01*
Y017628D01*
X035541D01*
Y017454D01*
X035535D01*
X035529Y017453D01*
X035516D01*
X035511Y017454D01*
X035506D01*
X035499Y017456D01*
X035492Y017456D01*
X035484Y017458D01*
X035468Y017462D01*
X035451Y017468D01*
X035433Y017477D01*
X035425Y017483D01*
X035417Y017488D01*
X035417Y017489D01*
X035414Y017491D01*
X035411Y017496D01*
X035405Y017502D01*
X035398Y017510D01*
X035393Y017515D01*
X035389Y017522D01*
X035384Y017529D01*
X035378Y017536D01*
X035371Y017545D01*
X035365Y017554D01*
Y017555D01*
X035363Y017555D01*
X035361Y017560D01*
X035355Y017565D01*
X035349Y017572D01*
X035342Y017578D01*
X035333Y017584D01*
X035324Y017588D01*
X035319Y017588D01*
X035315Y017589D01*
X035310D01*
X035307Y017588D01*
X035300Y017587D01*
X035292Y017583D01*
X035284Y017577D01*
X035280Y017574D01*
X035277Y017569D01*
X035274Y017564D01*
X035272Y017557D01*
X035270Y017550D01*
X035269Y017542D01*
Y017541D01*
Y017539D01*
Y017537D01*
X035270Y017534D01*
X035272Y017526D01*
X035274Y017517D01*
X035278Y017506D01*
X035285Y017495D01*
X035289Y017489D01*
X035294Y017484D01*
X035300Y017479D01*
X035307Y017475D01*
X035281Y017449D01*
X035280Y017450D01*
X035277Y017452D01*
X035272Y017456D01*
X035266Y017461D01*
X035259Y017468D01*
X035252Y017476D01*
X035246Y017486D01*
X035240Y017496D01*
X035240Y017497D01*
X035239Y017500D01*
X035237Y017504D01*
X035235Y017510D01*
X035234Y017518D01*
X035232Y017525D01*
X035232Y017533D01*
X035231Y017542D01*
Y017542D01*
Y017543D01*
Y017545D01*
Y017548D01*
X035232Y017555D01*
X035234Y017564D01*
X035236Y017574D01*
X035240Y017584D01*
X035245Y017595D01*
X035253Y017604D01*
X035253Y017606D01*
X035257Y017609D01*
X035262Y017612D01*
X035269Y017617D01*
X035278Y017622D01*
X035288Y017626D01*
X035301Y017629D01*
X035315Y017630D01*
X035318D01*
X035321Y017629D01*
D02*
G37*
G36*
X034920Y046272D02*
X034554D01*
Y046084D01*
X034895D01*
Y046011D01*
X034554D01*
Y045801D01*
X034933D01*
Y045728D01*
X034472D01*
Y046347D01*
X034920D01*
Y046272D01*
D02*
G37*
G36*
X032391Y017021D02*
X032309Y016992D01*
X032308D01*
X032307Y016991D01*
X032302Y016989D01*
X032296Y016986D01*
X032289Y016981D01*
X032289D01*
X032288Y016980D01*
X032283Y016977D01*
X032278Y016972D01*
X032273Y016966D01*
Y016965D01*
X032272Y016964D01*
X032270Y016960D01*
X032266Y016954D01*
X032263Y016946D01*
Y016945D01*
X032262Y016945D01*
X032262Y016942D01*
X032261Y016940D01*
X032260Y016932D01*
X032259Y016924D01*
Y016848D01*
X032391D01*
Y016808D01*
X032082D01*
Y016945D01*
Y016945D01*
Y016947D01*
Y016949D01*
Y016952D01*
Y016960D01*
X032083Y016968D01*
Y016969D01*
Y016970D01*
Y016972D01*
X032084Y016975D01*
X032084Y016982D01*
X032086Y016990D01*
Y016991D01*
X032087Y016991D01*
X032087Y016996D01*
X032090Y017002D01*
X032092Y017009D01*
Y017010D01*
X032093Y017010D01*
X032095Y017015D01*
X032098Y017021D01*
X032103Y017026D01*
X032103Y017027D01*
X032105Y017029D01*
X032108Y017031D01*
X032111Y017034D01*
X032115Y017037D01*
X032120Y017041D01*
X032133Y017047D01*
X032133D01*
X032135Y017049D01*
X032139Y017050D01*
X032143Y017051D01*
X032149Y017053D01*
X032155Y017053D01*
X032169Y017055D01*
X032175D01*
X032178Y017054D01*
X032189Y017053D01*
X032199Y017050D01*
X032200D01*
X032201Y017049D01*
X032203Y017047D01*
X032207Y017046D01*
X032214Y017042D01*
X032223Y017036D01*
X032224Y017035D01*
X032224Y017034D01*
X032229Y017030D01*
X032235Y017023D01*
X032240Y017014D01*
Y017013D01*
X032242Y017012D01*
X032243Y017009D01*
X032244Y017006D01*
X032246Y017002D01*
X032248Y016996D01*
X032251Y016986D01*
X032251D01*
Y016986D01*
X032252Y016987D01*
X032254Y016991D01*
X032257Y016996D01*
X032262Y017004D01*
X032270Y017012D01*
X032279Y017020D01*
X032285Y017024D01*
X032292Y017028D01*
X032299Y017031D01*
X032308Y017035D01*
X032391Y017066D01*
Y017021D01*
D02*
G37*
G36*
X031340Y017360D02*
X031347D01*
X031354Y017358D01*
X031363Y017357D01*
X031371Y017356D01*
X031379Y017353D01*
X031380D01*
X031383Y017351D01*
X031387Y017350D01*
X031392Y017348D01*
X031404Y017341D01*
X031417Y017331D01*
X031417Y017331D01*
X031419Y017329D01*
X031422Y017326D01*
X031425Y017322D01*
X031428Y017317D01*
X031432Y017312D01*
X031436Y017305D01*
X031439Y017298D01*
Y017297D01*
X031441Y017294D01*
X031441Y017291D01*
X031443Y017286D01*
X031444Y017279D01*
X031445Y017272D01*
X031446Y017264D01*
Y017255D01*
Y017254D01*
Y017251D01*
X031446Y017246D01*
Y017241D01*
X031445Y017235D01*
X031444Y017227D01*
X031439Y017212D01*
X031438Y017211D01*
X031438Y017209D01*
X031436Y017205D01*
X031433Y017201D01*
X031430Y017196D01*
X031427Y017190D01*
X031422Y017184D01*
X031417Y017179D01*
X031416Y017178D01*
X031414Y017177D01*
X031411Y017174D01*
X031406Y017171D01*
X031401Y017167D01*
X031395Y017164D01*
X031387Y017160D01*
X031379Y017157D01*
X031379D01*
X031376Y017156D01*
X031371Y017155D01*
X031365Y017154D01*
X031358Y017152D01*
X031349Y017151D01*
X031340Y017150D01*
X031325D01*
X031320Y017151D01*
X031313D01*
X031306Y017151D01*
X031297Y017153D01*
X031280Y017157D01*
X031279Y017158D01*
X031277Y017159D01*
X031272Y017161D01*
X031267Y017163D01*
X031255Y017170D01*
X031244Y017179D01*
X031243Y017180D01*
X031242Y017181D01*
X031239Y017184D01*
X031235Y017189D01*
X031231Y017193D01*
X031228Y017199D01*
X031220Y017212D01*
X031220Y017213D01*
X031219Y017216D01*
X031218Y017219D01*
X031216Y017225D01*
X031215Y017231D01*
X031214Y017238D01*
X031212Y017246D01*
Y017255D01*
Y017256D01*
Y017259D01*
X031213Y017264D01*
Y017270D01*
X031215Y017277D01*
X031216Y017284D01*
X031218Y017291D01*
X031220Y017299D01*
Y017299D01*
X031222Y017302D01*
X031224Y017306D01*
X031226Y017310D01*
X031234Y017321D01*
X031244Y017332D01*
X031245Y017333D01*
X031247Y017334D01*
X031250Y017337D01*
X031254Y017340D01*
X031259Y017343D01*
X031265Y017347D01*
X031272Y017350D01*
X031280Y017353D01*
X031281D01*
X031284Y017355D01*
X031288Y017356D01*
X031295Y017357D01*
X031302Y017358D01*
X031310Y017359D01*
X031320Y017361D01*
X031334D01*
X031340Y017360D01*
D02*
G37*
G36*
X030350Y017330D02*
X030357D01*
X030364Y017328D01*
X030373Y017327D01*
X030381Y017326D01*
X030389Y017323D01*
X030390D01*
X030393Y017321D01*
X030397Y017320D01*
X030402Y017318D01*
X030414Y017311D01*
X030427Y017301D01*
X030427Y017301D01*
X030429Y017299D01*
X030432Y017296D01*
X030435Y017292D01*
X030438Y017287D01*
X030442Y017282D01*
X030446Y017275D01*
X030449Y017268D01*
Y017267D01*
X030451Y017264D01*
X030451Y017261D01*
X030453Y017256D01*
X030454Y017249D01*
X030455Y017242D01*
X030456Y017234D01*
Y017225D01*
Y017224D01*
Y017221D01*
X030456Y017216D01*
Y017211D01*
X030455Y017205D01*
X030454Y017197D01*
X030449Y017182D01*
X030448Y017181D01*
X030448Y017179D01*
X030446Y017175D01*
X030443Y017171D01*
X030440Y017166D01*
X030437Y017160D01*
X030432Y017154D01*
X030427Y017149D01*
X030426Y017148D01*
X030424Y017147D01*
X030421Y017144D01*
X030416Y017141D01*
X030411Y017137D01*
X030405Y017134D01*
X030397Y017130D01*
X030389Y017127D01*
X030389D01*
X030386Y017126D01*
X030381Y017125D01*
X030375Y017124D01*
X030368Y017122D01*
X030359Y017121D01*
X030350Y017120D01*
X030335D01*
X030330Y017121D01*
X030323D01*
X030316Y017121D01*
X030307Y017123D01*
X030290Y017127D01*
X030289Y017128D01*
X030287Y017129D01*
X030282Y017131D01*
X030277Y017133D01*
X030265Y017140D01*
X030254Y017149D01*
X030253Y017150D01*
X030252Y017151D01*
X030249Y017154D01*
X030245Y017159D01*
X030241Y017163D01*
X030238Y017169D01*
X030230Y017182D01*
X030230Y017183D01*
X030229Y017186D01*
X030228Y017189D01*
X030226Y017195D01*
X030225Y017201D01*
X030224Y017208D01*
X030222Y017216D01*
Y017225D01*
Y017226D01*
Y017229D01*
X030223Y017234D01*
Y017240D01*
X030225Y017247D01*
X030226Y017254D01*
X030228Y017261D01*
X030230Y017269D01*
Y017269D01*
X030232Y017272D01*
X030234Y017276D01*
X030236Y017280D01*
X030244Y017291D01*
X030254Y017302D01*
X030255Y017303D01*
X030257Y017304D01*
X030260Y017307D01*
X030264Y017310D01*
X030269Y017313D01*
X030275Y017317D01*
X030282Y017320D01*
X030290Y017323D01*
X030291D01*
X030294Y017325D01*
X030298Y017326D01*
X030305Y017327D01*
X030312Y017328D01*
X030320Y017329D01*
X030330Y017331D01*
X030344D01*
X030350Y017330D01*
D02*
G37*
G36*
X036780Y045984D02*
X036522D01*
Y046058D01*
X036780D01*
Y045984D01*
D02*
G37*
G36*
X030451Y017588D02*
Y017550D01*
X030287Y017502D01*
X030451Y017453D01*
Y017414D01*
X030228Y017347D01*
Y017392D01*
X030398Y017433D01*
X030228Y017484D01*
Y017520D01*
X030398Y017570D01*
X030228Y017611D01*
Y017655D01*
X030451Y017588D01*
D02*
G37*
G36*
Y017041D02*
X030369Y017012D01*
X030368D01*
X030367Y017011D01*
X030362Y017009D01*
X030356Y017006D01*
X030349Y017001D01*
X030349D01*
X030348Y017000D01*
X030343Y016997D01*
X030338Y016992D01*
X030333Y016986D01*
Y016985D01*
X030332Y016984D01*
X030330Y016980D01*
X030326Y016974D01*
X030323Y016966D01*
Y016965D01*
X030322Y016965D01*
X030322Y016962D01*
X030321Y016960D01*
X030320Y016952D01*
X030319Y016944D01*
Y016868D01*
X030451D01*
Y016828D01*
X030142D01*
Y016965D01*
Y016965D01*
Y016967D01*
Y016969D01*
Y016972D01*
Y016980D01*
X030143Y016988D01*
Y016989D01*
Y016990D01*
Y016992D01*
X030144Y016995D01*
X030144Y017002D01*
X030146Y017010D01*
Y017011D01*
X030147Y017011D01*
X030147Y017016D01*
X030150Y017022D01*
X030152Y017029D01*
Y017030D01*
X030153Y017030D01*
X030155Y017035D01*
X030158Y017041D01*
X030163Y017046D01*
X030163Y017047D01*
X030165Y017049D01*
X030168Y017051D01*
X030171Y017054D01*
X030175Y017057D01*
X030180Y017061D01*
X030193Y017067D01*
X030193D01*
X030195Y017069D01*
X030199Y017070D01*
X030203Y017071D01*
X030209Y017073D01*
X030215Y017073D01*
X030229Y017075D01*
X030235D01*
X030238Y017074D01*
X030249Y017073D01*
X030259Y017070D01*
X030260D01*
X030261Y017069D01*
X030263Y017067D01*
X030267Y017066D01*
X030274Y017062D01*
X030283Y017056D01*
X030284Y017055D01*
X030284Y017054D01*
X030289Y017050D01*
X030295Y017043D01*
X030300Y017034D01*
Y017033D01*
X030302Y017032D01*
X030303Y017029D01*
X030304Y017026D01*
X030306Y017022D01*
X030308Y017016D01*
X030311Y017006D01*
X030311D01*
Y017006D01*
X030312Y017007D01*
X030314Y017011D01*
X030317Y017016D01*
X030322Y017024D01*
X030330Y017032D01*
X030339Y017040D01*
X030345Y017044D01*
X030352Y017048D01*
X030359Y017051D01*
X030368Y017055D01*
X030451Y017086D01*
Y017041D01*
D02*
G37*
G36*
X023967Y032774D02*
X023967Y032775D01*
X023969Y032777D01*
X023972Y032780D01*
X023976Y032784D01*
X023981Y032787D01*
X023986Y032792D01*
X023993Y032795D01*
X023999Y032799D01*
X023999Y032800D01*
X024002Y032800D01*
X024005Y032802D01*
X024010Y032803D01*
X024015Y032805D01*
X024020Y032806D01*
X024027Y032808D01*
X024037D01*
X024041Y032807D01*
X024045Y032806D01*
X024051Y032805D01*
X024058Y032803D01*
X024064Y032800D01*
X024072Y032797D01*
X024079Y032793D01*
X024085Y032787D01*
X024092Y032781D01*
X024098Y032773D01*
X024102Y032763D01*
X024107Y032752D01*
X024109Y032739D01*
X024109Y032725D01*
Y032579D01*
X024069D01*
Y032723D01*
Y032725D01*
Y032727D01*
X024069Y032733D01*
X024068Y032738D01*
X024065Y032752D01*
X024063Y032757D01*
X024059Y032762D01*
X024058Y032763D01*
X024058Y032765D01*
X024055Y032766D01*
X024052Y032768D01*
X024047Y032770D01*
X024042Y032773D01*
X024035Y032773D01*
X024028Y032774D01*
X024026D01*
X024023Y032773D01*
X024017Y032773D01*
X024009Y032770D01*
X023999Y032765D01*
X023989Y032760D01*
X023978Y032751D01*
X023972Y032745D01*
X023967Y032739D01*
Y032579D01*
X023927D01*
Y032888D01*
X023967D01*
Y032774D01*
D02*
G37*
G36*
X024207Y032579D02*
X024168D01*
Y032802D01*
X024207D01*
Y032579D01*
D02*
G37*
G36*
Y032844D02*
X024168D01*
Y032888D01*
X024207D01*
Y032844D01*
D02*
G37*
G36*
X034421Y017379D02*
X034112D01*
Y017418D01*
X034421D01*
Y017379D01*
D02*
G37*
G36*
Y017537D02*
X034176D01*
X034202Y017511D01*
X034176Y017487D01*
X034120Y017542D01*
Y017578D01*
X034421D01*
Y017537D01*
D02*
G37*
G36*
X031441Y017071D02*
X031359Y017042D01*
X031358D01*
X031357Y017041D01*
X031352Y017039D01*
X031346Y017036D01*
X031339Y017031D01*
X031339D01*
X031338Y017030D01*
X031333Y017027D01*
X031328Y017022D01*
X031323Y017016D01*
Y017015D01*
X031322Y017014D01*
X031320Y017010D01*
X031316Y017004D01*
X031313Y016996D01*
Y016995D01*
X031312Y016995D01*
X031312Y016992D01*
X031311Y016990D01*
X031310Y016982D01*
X031309Y016974D01*
Y016898D01*
X031441D01*
Y016858D01*
X031132D01*
Y016995D01*
Y016995D01*
Y016997D01*
Y016999D01*
Y017002D01*
Y017010D01*
X031133Y017018D01*
Y017019D01*
Y017020D01*
Y017022D01*
X031134Y017025D01*
X031134Y017032D01*
X031136Y017040D01*
Y017041D01*
X031137Y017041D01*
X031137Y017046D01*
X031140Y017052D01*
X031142Y017059D01*
Y017060D01*
X031143Y017060D01*
X031145Y017065D01*
X031148Y017071D01*
X031153Y017076D01*
X031153Y017077D01*
X031155Y017079D01*
X031158Y017081D01*
X031161Y017084D01*
X031165Y017087D01*
X031170Y017091D01*
X031183Y017097D01*
X031183D01*
X031185Y017099D01*
X031189Y017100D01*
X031193Y017101D01*
X031199Y017103D01*
X031205Y017103D01*
X031219Y017105D01*
X031225D01*
X031228Y017104D01*
X031239Y017103D01*
X031249Y017100D01*
X031250D01*
X031251Y017099D01*
X031253Y017097D01*
X031257Y017096D01*
X031264Y017092D01*
X031273Y017086D01*
X031274Y017085D01*
X031274Y017084D01*
X031279Y017080D01*
X031285Y017073D01*
X031290Y017064D01*
Y017063D01*
X031292Y017062D01*
X031293Y017059D01*
X031294Y017056D01*
X031296Y017052D01*
X031298Y017046D01*
X031301Y017036D01*
X031301D01*
Y017036D01*
X031302Y017037D01*
X031304Y017041D01*
X031307Y017046D01*
X031312Y017054D01*
X031320Y017062D01*
X031329Y017070D01*
X031335Y017074D01*
X031342Y017078D01*
X031349Y017081D01*
X031358Y017085D01*
X031441Y017116D01*
Y017071D01*
D02*
G37*
G36*
X035311Y045728D02*
X035226D01*
X034986Y046347D01*
X035073D01*
X035269Y045816D01*
X035464Y046347D01*
X035551D01*
X035311Y045728D01*
D02*
G37*
G36*
X030451Y017747D02*
X030206D01*
X030232Y017721D01*
X030206Y017697D01*
X030150Y017752D01*
Y017788D01*
X030451D01*
Y017747D01*
D02*
G37*
G36*
X034328Y017086D02*
X034332Y017085D01*
X034338Y017084D01*
X034346Y017083D01*
X034353Y017081D01*
X034361Y017078D01*
X034368Y017074D01*
X034369Y017074D01*
X034371Y017072D01*
X034375Y017070D01*
X034379Y017067D01*
X034384Y017063D01*
X034389Y017059D01*
X034400Y017047D01*
X034401Y017047D01*
X034402Y017044D01*
X034405Y017041D01*
X034407Y017036D01*
X034410Y017031D01*
X034414Y017025D01*
X034417Y017017D01*
X034420Y017009D01*
Y017009D01*
X034421Y017006D01*
X034422Y017001D01*
X034423Y016996D01*
X034424Y016988D01*
X034426Y016980D01*
X034426Y016971D01*
Y016961D01*
Y016960D01*
Y016955D01*
X034426Y016950D01*
X034425Y016942D01*
X034424Y016932D01*
X034422Y016922D01*
X034419Y016912D01*
X034416Y016901D01*
X034415Y016900D01*
X034413Y016897D01*
X034411Y016892D01*
X034407Y016885D01*
X034403Y016878D01*
X034397Y016871D01*
X034391Y016863D01*
X034384Y016856D01*
X034383Y016855D01*
X034381Y016853D01*
X034376Y016849D01*
X034370Y016845D01*
X034362Y016841D01*
X034354Y016836D01*
X034344Y016831D01*
X034333Y016827D01*
X034332Y016826D01*
X034328Y016826D01*
X034321Y016824D01*
X034313Y016822D01*
X034304Y016820D01*
X034292Y016818D01*
X034280Y016818D01*
X034267Y016817D01*
X034261D01*
X034254Y016818D01*
X034245Y016818D01*
X034235Y016819D01*
X034224Y016821D01*
X034212Y016823D01*
X034201Y016827D01*
X034200Y016828D01*
X034196Y016829D01*
X034190Y016831D01*
X034184Y016834D01*
X034176Y016839D01*
X034167Y016844D01*
X034158Y016850D01*
X034150Y016856D01*
X034149Y016857D01*
X034147Y016860D01*
X034143Y016864D01*
X034138Y016869D01*
X034133Y016876D01*
X034128Y016883D01*
X034122Y016892D01*
X034118Y016901D01*
X034117Y016903D01*
X034116Y016907D01*
X034114Y016912D01*
X034112Y016919D01*
X034110Y016928D01*
X034108Y016938D01*
X034107Y016950D01*
X034106Y016961D01*
Y016963D01*
Y016966D01*
Y016970D01*
X034107Y016977D01*
X034108Y016984D01*
X034109Y016991D01*
X034114Y017008D01*
Y017009D01*
X034115Y017012D01*
X034117Y017016D01*
X034119Y017021D01*
X034122Y017027D01*
X034125Y017033D01*
X034134Y017047D01*
X034135Y017047D01*
X034136Y017049D01*
X034139Y017052D01*
X034143Y017056D01*
X034147Y017060D01*
X034152Y017065D01*
X034159Y017069D01*
X034165Y017074D01*
X034166Y017074D01*
X034168Y017075D01*
X034173Y017077D01*
X034177Y017079D01*
X034184Y017082D01*
X034190Y017084D01*
X034198Y017085D01*
X034206Y017087D01*
Y017044D01*
X034204D01*
X034201Y017044D01*
X034198Y017043D01*
X034189Y017041D01*
X034180Y017037D01*
X034179D01*
X034178Y017036D01*
X034176Y017034D01*
X034173Y017033D01*
X034166Y017027D01*
X034160Y017019D01*
X034159Y017018D01*
X034158Y017017D01*
X034157Y017014D01*
X034155Y017012D01*
X034150Y017004D01*
X034147Y016993D01*
Y016993D01*
X034146Y016991D01*
X034145Y016987D01*
X034144Y016984D01*
X034144Y016979D01*
X034143Y016974D01*
X034142Y016962D01*
Y016961D01*
Y016958D01*
X034143Y016954D01*
Y016948D01*
X034144Y016942D01*
X034146Y016934D01*
X034147Y016927D01*
X034150Y016920D01*
Y016919D01*
X034152Y016917D01*
X034154Y016913D01*
X034156Y016909D01*
X034160Y016904D01*
X034164Y016898D01*
X034168Y016892D01*
X034174Y016887D01*
X034175Y016886D01*
X034177Y016885D01*
X034181Y016883D01*
X034185Y016880D01*
X034191Y016876D01*
X034198Y016873D01*
X034205Y016869D01*
X034214Y016866D01*
X034214D01*
X034218Y016866D01*
X034222Y016864D01*
X034229Y016864D01*
X034237Y016862D01*
X034246Y016861D01*
X034256Y016860D01*
X034272D01*
X034278Y016861D01*
X034284D01*
X034293Y016861D01*
X034302Y016863D01*
X034320Y016866D01*
X034321D01*
X034324Y016868D01*
X034328Y016869D01*
X034334Y016872D01*
X034340Y016875D01*
X034346Y016878D01*
X034359Y016887D01*
X034360Y016888D01*
X034362Y016889D01*
X034365Y016892D01*
X034368Y016896D01*
X034372Y016901D01*
X034377Y016907D01*
X034384Y016919D01*
Y016920D01*
X034386Y016922D01*
X034386Y016926D01*
X034388Y016931D01*
X034389Y016937D01*
X034391Y016944D01*
X034391Y016952D01*
X034392Y016961D01*
Y016961D01*
Y016963D01*
Y016967D01*
X034391Y016971D01*
X034390Y016982D01*
X034388Y016993D01*
Y016994D01*
X034387Y016996D01*
X034386Y016998D01*
X034384Y017002D01*
X034381Y017011D01*
X034375Y017020D01*
X034374Y017020D01*
X034373Y017022D01*
X034371Y017023D01*
X034368Y017026D01*
X034362Y017031D01*
X034353Y017036D01*
X034352D01*
X034351Y017037D01*
X034348Y017039D01*
X034345Y017040D01*
X034340Y017041D01*
X034335Y017042D01*
X034324Y017044D01*
Y017087D01*
X034324D01*
X034328Y017086D01*
D02*
G37*
G36*
X034320Y017334D02*
X034327D01*
X034334Y017332D01*
X034343Y017331D01*
X034351Y017329D01*
X034359Y017326D01*
X034360D01*
X034363Y017325D01*
X034367Y017324D01*
X034372Y017321D01*
X034384Y017315D01*
X034397Y017305D01*
X034397Y017305D01*
X034399Y017303D01*
X034402Y017300D01*
X034405Y017296D01*
X034408Y017291D01*
X034412Y017286D01*
X034416Y017279D01*
X034419Y017272D01*
Y017271D01*
X034421Y017268D01*
X034421Y017265D01*
X034423Y017259D01*
X034424Y017253D01*
X034425Y017246D01*
X034426Y017238D01*
Y017229D01*
Y017228D01*
Y017225D01*
X034426Y017220D01*
Y017215D01*
X034425Y017208D01*
X034424Y017201D01*
X034419Y017186D01*
X034418Y017185D01*
X034418Y017183D01*
X034416Y017179D01*
X034413Y017175D01*
X034410Y017170D01*
X034407Y017164D01*
X034402Y017158D01*
X034397Y017153D01*
X034396Y017152D01*
X034394Y017151D01*
X034391Y017148D01*
X034386Y017145D01*
X034381Y017141D01*
X034375Y017138D01*
X034367Y017134D01*
X034359Y017131D01*
X034359D01*
X034356Y017130D01*
X034351Y017129D01*
X034345Y017127D01*
X034337Y017126D01*
X034329Y017125D01*
X034320Y017124D01*
X034305D01*
X034300Y017125D01*
X034293D01*
X034286Y017125D01*
X034277Y017127D01*
X034260Y017131D01*
X034260Y017132D01*
X034257Y017133D01*
X034252Y017135D01*
X034247Y017137D01*
X034235Y017143D01*
X034224Y017153D01*
X034223Y017154D01*
X034222Y017155D01*
X034219Y017158D01*
X034215Y017162D01*
X034211Y017167D01*
X034208Y017173D01*
X034200Y017186D01*
X034200Y017187D01*
X034199Y017189D01*
X034198Y017193D01*
X034196Y017199D01*
X034195Y017205D01*
X034194Y017212D01*
X034192Y017220D01*
Y017229D01*
Y017230D01*
Y017233D01*
X034193Y017238D01*
Y017243D01*
X034195Y017251D01*
X034196Y017258D01*
X034198Y017265D01*
X034200Y017273D01*
Y017273D01*
X034202Y017276D01*
X034204Y017280D01*
X034206Y017284D01*
X034214Y017295D01*
X034224Y017306D01*
X034225Y017307D01*
X034227Y017308D01*
X034230Y017311D01*
X034234Y017314D01*
X034239Y017317D01*
X034245Y017321D01*
X034252Y017324D01*
X034260Y017327D01*
X034261D01*
X034264Y017329D01*
X034268Y017329D01*
X034275Y017331D01*
X034282Y017332D01*
X034290Y017333D01*
X034300Y017335D01*
X034314D01*
X034320Y017334D01*
D02*
G37*
G36*
X033368Y017076D02*
X033372Y017075D01*
X033378Y017074D01*
X033386Y017073D01*
X033393Y017071D01*
X033401Y017068D01*
X033408Y017064D01*
X033409Y017064D01*
X033411Y017062D01*
X033415Y017060D01*
X033419Y017057D01*
X033424Y017053D01*
X033429Y017049D01*
X033440Y017037D01*
X033441Y017037D01*
X033442Y017034D01*
X033445Y017031D01*
X033447Y017026D01*
X033450Y017021D01*
X033454Y017015D01*
X033457Y017007D01*
X033460Y016999D01*
Y016999D01*
X033461Y016996D01*
X033462Y016991D01*
X033463Y016986D01*
X033464Y016978D01*
X033466Y016970D01*
X033466Y016961D01*
Y016951D01*
Y016950D01*
Y016945D01*
X033466Y016940D01*
X033465Y016932D01*
X033464Y016922D01*
X033462Y016912D01*
X033459Y016902D01*
X033456Y016891D01*
X033455Y016890D01*
X033453Y016887D01*
X033451Y016882D01*
X033447Y016875D01*
X033443Y016868D01*
X033437Y016861D01*
X033431Y016853D01*
X033424Y016846D01*
X033423Y016845D01*
X033421Y016843D01*
X033416Y016839D01*
X033410Y016835D01*
X033402Y016831D01*
X033394Y016826D01*
X033384Y016821D01*
X033373Y016817D01*
X033372Y016816D01*
X033368Y016816D01*
X033361Y016814D01*
X033353Y016812D01*
X033344Y016810D01*
X033332Y016808D01*
X033320Y016808D01*
X033307Y016807D01*
X033301D01*
X033294Y016808D01*
X033285Y016808D01*
X033275Y016809D01*
X033264Y016811D01*
X033252Y016813D01*
X033241Y016817D01*
X033240Y016818D01*
X033236Y016819D01*
X033230Y016821D01*
X033224Y016824D01*
X033216Y016829D01*
X033207Y016834D01*
X033198Y016840D01*
X033190Y016846D01*
X033189Y016847D01*
X033187Y016850D01*
X033183Y016854D01*
X033178Y016859D01*
X033173Y016866D01*
X033168Y016873D01*
X033162Y016882D01*
X033158Y016891D01*
X033157Y016893D01*
X033156Y016897D01*
X033154Y016902D01*
X033152Y016909D01*
X033150Y016918D01*
X033148Y016928D01*
X033147Y016940D01*
X033146Y016951D01*
Y016953D01*
Y016956D01*
Y016960D01*
X033147Y016967D01*
X033148Y016974D01*
X033149Y016981D01*
X033154Y016998D01*
Y016999D01*
X033155Y017002D01*
X033157Y017006D01*
X033159Y017011D01*
X033162Y017017D01*
X033165Y017023D01*
X033174Y017037D01*
X033175Y017037D01*
X033176Y017039D01*
X033179Y017042D01*
X033183Y017046D01*
X033187Y017050D01*
X033192Y017055D01*
X033199Y017059D01*
X033205Y017064D01*
X033206Y017064D01*
X033208Y017065D01*
X033213Y017067D01*
X033217Y017069D01*
X033224Y017072D01*
X033230Y017074D01*
X033238Y017075D01*
X033246Y017077D01*
Y017034D01*
X033244D01*
X033241Y017034D01*
X033238Y017033D01*
X033229Y017031D01*
X033220Y017027D01*
X033219D01*
X033218Y017026D01*
X033216Y017024D01*
X033213Y017023D01*
X033206Y017017D01*
X033200Y017009D01*
X033199Y017008D01*
X033198Y017007D01*
X033197Y017004D01*
X033195Y017002D01*
X033190Y016994D01*
X033187Y016983D01*
Y016983D01*
X033186Y016981D01*
X033185Y016977D01*
X033184Y016974D01*
X033184Y016969D01*
X033183Y016964D01*
X033182Y016952D01*
Y016951D01*
Y016948D01*
X033183Y016944D01*
Y016938D01*
X033184Y016932D01*
X033186Y016924D01*
X033187Y016917D01*
X033190Y016910D01*
Y016909D01*
X033192Y016907D01*
X033194Y016903D01*
X033196Y016899D01*
X033200Y016894D01*
X033204Y016888D01*
X033208Y016882D01*
X033214Y016877D01*
X033215Y016876D01*
X033217Y016875D01*
X033221Y016873D01*
X033225Y016870D01*
X033231Y016866D01*
X033238Y016863D01*
X033245Y016859D01*
X033254Y016856D01*
X033254D01*
X033258Y016856D01*
X033262Y016854D01*
X033269Y016854D01*
X033277Y016852D01*
X033286Y016851D01*
X033296Y016850D01*
X033312D01*
X033318Y016851D01*
X033324D01*
X033333Y016851D01*
X033342Y016853D01*
X033360Y016856D01*
X033361D01*
X033364Y016858D01*
X033368Y016859D01*
X033374Y016862D01*
X033380Y016865D01*
X033386Y016868D01*
X033399Y016877D01*
X033400Y016878D01*
X033402Y016879D01*
X033405Y016882D01*
X033408Y016886D01*
X033412Y016891D01*
X033417Y016897D01*
X033424Y016909D01*
Y016910D01*
X033426Y016912D01*
X033426Y016916D01*
X033428Y016921D01*
X033429Y016927D01*
X033431Y016934D01*
X033431Y016942D01*
X033432Y016951D01*
Y016951D01*
Y016953D01*
Y016957D01*
X033431Y016961D01*
X033430Y016972D01*
X033428Y016983D01*
Y016984D01*
X033427Y016986D01*
X033426Y016988D01*
X033424Y016992D01*
X033421Y017001D01*
X033415Y017010D01*
X033414Y017010D01*
X033413Y017012D01*
X033411Y017013D01*
X033408Y017016D01*
X033402Y017021D01*
X033393Y017026D01*
X033392D01*
X033391Y017027D01*
X033388Y017029D01*
X033385Y017030D01*
X033380Y017031D01*
X033375Y017032D01*
X033364Y017034D01*
Y017077D01*
X033364D01*
X033368Y017076D01*
D02*
G37*
G36*
X035746Y044369D02*
X035754Y044369D01*
X035764Y044367D01*
X035774Y044365D01*
X035785Y044362D01*
X035795Y044358D01*
X035797Y044357D01*
X035800Y044355D01*
X035805Y044353D01*
X035811Y044350D01*
X035818Y044345D01*
X035824Y044339D01*
X035831Y044334D01*
X035837Y044326D01*
X035837Y044326D01*
X035839Y044323D01*
X035841Y044319D01*
X035845Y044314D01*
X035848Y044307D01*
X035851Y044299D01*
X035854Y044291D01*
X035856Y044281D01*
Y044280D01*
X035857Y044277D01*
X035858Y044273D01*
X035859Y044267D01*
Y044258D01*
X035859Y044248D01*
X035860Y044236D01*
Y044221D01*
Y043996D01*
X035798D01*
Y044218D01*
Y044218D01*
Y044219D01*
Y044224D01*
Y044231D01*
X035797Y044239D01*
X035797Y044248D01*
X035795Y044258D01*
X035793Y044267D01*
X035791Y044275D01*
Y044275D01*
X035789Y044277D01*
X035787Y044281D01*
X035785Y044285D01*
X035781Y044290D01*
X035777Y044295D01*
X035771Y044300D01*
X035765Y044304D01*
X035764Y044305D01*
X035762Y044307D01*
X035757Y044308D01*
X035752Y044310D01*
X035746Y044312D01*
X035739Y044315D01*
X035730Y044315D01*
X035722Y044316D01*
X035718D01*
X035715Y044315D01*
X035708Y044315D01*
X035698Y044313D01*
X035688Y044310D01*
X035676Y044305D01*
X035665Y044299D01*
X035654Y044291D01*
X035652Y044289D01*
X035649Y044285D01*
X035647Y044283D01*
X035645Y044279D01*
X035642Y044275D01*
X035640Y044269D01*
X035637Y044264D01*
X035634Y044256D01*
X035632Y044248D01*
X035630Y044240D01*
X035628Y044230D01*
X035627Y044220D01*
X035625Y044207D01*
Y044195D01*
Y043996D01*
X035563D01*
Y044362D01*
X035619D01*
Y044310D01*
X035620Y044310D01*
X035621Y044312D01*
X035623Y044315D01*
X035626Y044319D01*
X035630Y044323D01*
X035636Y044328D01*
X035641Y044334D01*
X035649Y044340D01*
X035656Y044345D01*
X035665Y044351D01*
X035674Y044356D01*
X035684Y044361D01*
X035696Y044364D01*
X035708Y044367D01*
X035721Y044369D01*
X035735Y044370D01*
X035741D01*
X035746Y044369D01*
D02*
G37*
G36*
X033933D02*
X033938Y044369D01*
X033949Y044367D01*
X033963Y044364D01*
X033976Y044360D01*
X033990Y044353D01*
X034004Y044345D01*
X034005D01*
X034006Y044344D01*
X034010Y044341D01*
X034016Y044335D01*
X034024Y044328D01*
X034033Y044318D01*
X034042Y044307D01*
X034051Y044293D01*
X034058Y044277D01*
Y044277D01*
X034059Y044275D01*
X034059Y044273D01*
X034061Y044270D01*
X034062Y044266D01*
X034064Y044261D01*
X034067Y044249D01*
X034071Y044234D01*
X034074Y044218D01*
X034076Y044200D01*
X034077Y044181D01*
Y044180D01*
Y044179D01*
Y044176D01*
Y044172D01*
X034076Y044167D01*
Y044161D01*
X034075Y044148D01*
X034072Y044132D01*
X034068Y044115D01*
X034063Y044097D01*
X034057Y044080D01*
Y044079D01*
X034056Y044078D01*
X034054Y044076D01*
X034053Y044073D01*
X034048Y044065D01*
X034041Y044054D01*
X034033Y044043D01*
X034023Y044033D01*
X034011Y044022D01*
X033997Y044011D01*
X033997D01*
X033996Y044011D01*
X033994Y044009D01*
X033991Y044008D01*
X033984Y044004D01*
X033973Y044000D01*
X033961Y043995D01*
X033948Y043992D01*
X033933Y043989D01*
X033917Y043988D01*
X033912D01*
X033906Y043989D01*
X033899Y043990D01*
X033890Y043991D01*
X033881Y043993D01*
X033871Y043996D01*
X033862Y044000D01*
X033861Y044001D01*
X033858Y044003D01*
X033853Y044006D01*
X033847Y044010D01*
X033841Y044014D01*
X033834Y044020D01*
X033828Y044027D01*
X033822Y044034D01*
Y043856D01*
X033760D01*
Y044362D01*
X033816D01*
Y044314D01*
X033817Y044315D01*
X033820Y044318D01*
X033823Y044323D01*
X033829Y044329D01*
X033836Y044337D01*
X033843Y044343D01*
X033852Y044350D01*
X033860Y044355D01*
X033862Y044356D01*
X033865Y044358D01*
X033871Y044360D01*
X033878Y044363D01*
X033887Y044366D01*
X033897Y044368D01*
X033909Y044369D01*
X033922Y044370D01*
X033930D01*
X033933Y044369D01*
D02*
G37*
G36*
X034838Y043996D02*
X034780D01*
Y044042D01*
X034780Y044041D01*
X034779Y044040D01*
X034777Y044037D01*
X034774Y044033D01*
X034770Y044030D01*
X034766Y044025D01*
X034761Y044020D01*
X034754Y044015D01*
X034748Y044010D01*
X034740Y044005D01*
X034732Y044000D01*
X034722Y043997D01*
X034713Y043993D01*
X034702Y043990D01*
X034690Y043989D01*
X034678Y043988D01*
X034673D01*
X034670Y043989D01*
X034662Y043990D01*
X034651Y043991D01*
X034639Y043994D01*
X034625Y043998D01*
X034611Y044004D01*
X034597Y044012D01*
X034597D01*
X034596Y044014D01*
X034592Y044016D01*
X034585Y044022D01*
X034577Y044030D01*
X034568Y044039D01*
X034558Y044051D01*
X034549Y044064D01*
X034541Y044079D01*
Y044080D01*
X034540Y044081D01*
X034539Y044084D01*
X034538Y044086D01*
X034536Y044091D01*
X034534Y044096D01*
X034533Y044101D01*
X034531Y044108D01*
X034527Y044122D01*
X034524Y044139D01*
X034522Y044158D01*
X034521Y044178D01*
Y044179D01*
Y044180D01*
Y044183D01*
Y044188D01*
X034522Y044192D01*
Y044198D01*
X034523Y044211D01*
X034525Y044226D01*
X034529Y044243D01*
X034533Y044261D01*
X034539Y044277D01*
Y044278D01*
X034540Y044280D01*
X034541Y044282D01*
X034543Y044285D01*
X034547Y044293D01*
X034553Y044303D01*
X034560Y044314D01*
X034570Y044325D01*
X034581Y044337D01*
X034594Y044346D01*
X034595D01*
X034595Y044347D01*
X034597Y044348D01*
X034600Y044350D01*
X034608Y044353D01*
X034618Y044358D01*
X034630Y044363D01*
X034643Y044366D01*
X034659Y044369D01*
X034675Y044370D01*
X034681D01*
X034686Y044369D01*
X034694Y044369D01*
X034704Y044366D01*
X034714Y044364D01*
X034724Y044361D01*
X034734Y044355D01*
X034735Y044355D01*
X034738Y044353D01*
X034743Y044350D01*
X034748Y044346D01*
X034756Y044341D01*
X034762Y044334D01*
X034770Y044328D01*
X034776Y044320D01*
Y044501D01*
X034838D01*
Y043996D01*
D02*
G37*
G36*
X035103Y044148D02*
X034912D01*
Y044210D01*
X035103D01*
Y044148D01*
D02*
G37*
G36*
X035621Y045135D02*
X035334Y044677D01*
X035287Y044707D01*
X035575Y045166D01*
X035621Y045135D01*
D02*
G37*
G36*
X034780D02*
X034492Y044677D01*
X034445Y044707D01*
X034734Y045166D01*
X034780Y045135D01*
D02*
G37*
G36*
X035466Y043996D02*
X035411D01*
Y044049D01*
X035410Y044049D01*
X035409Y044046D01*
X035407Y044043D01*
X035403Y044040D01*
X035399Y044035D01*
X035394Y044030D01*
X035388Y044024D01*
X035380Y044019D01*
X035372Y044013D01*
X035364Y044008D01*
X035354Y044003D01*
X035344Y043998D01*
X035332Y043994D01*
X035321Y043991D01*
X035308Y043989D01*
X035294Y043988D01*
X035289D01*
X035283Y043989D01*
X035275Y043990D01*
X035265Y043991D01*
X035255Y043993D01*
X035245Y043996D01*
X035234Y044000D01*
X035232Y044001D01*
X035230Y044003D01*
X035224Y044006D01*
X035219Y044009D01*
X035211Y044014D01*
X035205Y044019D01*
X035198Y044024D01*
X035192Y044031D01*
X035192Y044032D01*
X035190Y044035D01*
X035188Y044038D01*
X035185Y044044D01*
X035181Y044051D01*
X035178Y044059D01*
X035176Y044068D01*
X035173Y044077D01*
Y044078D01*
X035173Y044081D01*
X035172Y044085D01*
Y044091D01*
X035171Y044100D01*
X035170Y044109D01*
X035170Y044121D01*
Y044135D01*
Y044362D01*
X035232D01*
Y044159D01*
Y044158D01*
Y044156D01*
Y044154D01*
Y044151D01*
Y044143D01*
X035232Y044132D01*
Y044121D01*
X035233Y044111D01*
X035234Y044101D01*
X035235Y044093D01*
Y044092D01*
X035237Y044089D01*
X035238Y044085D01*
X035240Y044079D01*
X035244Y044073D01*
X035248Y044067D01*
X035254Y044061D01*
X035260Y044055D01*
X035261Y044054D01*
X035264Y044053D01*
X035267Y044051D01*
X035273Y044049D01*
X035280Y044046D01*
X035288Y044043D01*
X035297Y044042D01*
X035307Y044041D01*
X035312D01*
X035317Y044042D01*
X035324Y044043D01*
X035332Y044045D01*
X035340Y044047D01*
X035350Y044051D01*
X035359Y044055D01*
X035361Y044056D01*
X035364Y044058D01*
X035368Y044061D01*
X035373Y044065D01*
X035379Y044071D01*
X035385Y044078D01*
X035390Y044085D01*
X035394Y044094D01*
X035395Y044095D01*
X035396Y044098D01*
X035397Y044104D01*
X035399Y044112D01*
X035402Y044122D01*
X035403Y044135D01*
X035404Y044149D01*
X035404Y044166D01*
Y044362D01*
X035466D01*
Y043996D01*
D02*
G37*
G36*
X022066Y048052D02*
X022073Y048051D01*
X022079Y048050D01*
X022088Y048049D01*
X022097Y048047D01*
X022115Y048042D01*
X022135Y048035D01*
X022145Y048031D01*
X022154Y048026D01*
X022163Y048019D01*
X022172Y048012D01*
X022173Y048011D01*
X022174Y048010D01*
X022176Y048007D01*
X022179Y048004D01*
X022182Y048001D01*
X022186Y047996D01*
X022190Y047991D01*
X022194Y047985D01*
X022202Y047970D01*
X022210Y047953D01*
X022212Y047945D01*
X022214Y047934D01*
X022216Y047925D01*
X022216Y047914D01*
Y047913D01*
Y047908D01*
X022216Y047902D01*
X022214Y047894D01*
X022213Y047885D01*
X022210Y047875D01*
X022205Y047864D01*
X022200Y047853D01*
X022200Y047851D01*
X022197Y047848D01*
X022193Y047842D01*
X022187Y047834D01*
X022179Y047824D01*
X022168Y047813D01*
X022155Y047800D01*
X022140Y047786D01*
X022138Y047784D01*
X022135Y047781D01*
X022130Y047776D01*
X022123Y047770D01*
X022116Y047764D01*
X022110Y047757D01*
X022104Y047752D01*
X022100Y047746D01*
Y047745D01*
X022098Y047743D01*
X022097Y047741D01*
X022095Y047738D01*
X022092Y047733D01*
X022090Y047728D01*
X022086Y047717D01*
Y047716D01*
X022085Y047714D01*
X022084Y047709D01*
X022084Y047704D01*
X022083Y047697D01*
X022082Y047687D01*
X022081Y047676D01*
Y047664D01*
X022022D01*
Y047665D01*
Y047666D01*
Y047671D01*
X022021Y047676D01*
Y047682D01*
Y047683D01*
Y047684D01*
Y047688D01*
X022022Y047695D01*
X022022Y047704D01*
X022023Y047714D01*
X022025Y047724D01*
X022027Y047735D01*
X022031Y047745D01*
X022032Y047746D01*
X022033Y047749D01*
X022035Y047752D01*
X022037Y047757D01*
X022041Y047763D01*
X022045Y047770D01*
X022050Y047778D01*
X022056Y047785D01*
X022057Y047786D01*
X022058Y047788D01*
X022062Y047791D01*
X022066Y047796D01*
X022072Y047802D01*
X022080Y047809D01*
X022089Y047818D01*
X022100Y047828D01*
X022101D01*
X022102Y047830D01*
X022105Y047832D01*
X022111Y047838D01*
X022118Y047844D01*
X022125Y047851D01*
X022132Y047859D01*
X022138Y047867D01*
X022143Y047873D01*
X022143Y047874D01*
X022144Y047876D01*
X022146Y047880D01*
X022148Y047884D01*
X022150Y047890D01*
X022151Y047896D01*
X022152Y047903D01*
X022153Y047910D01*
Y047911D01*
Y047912D01*
X022152Y047916D01*
X022151Y047924D01*
X022149Y047932D01*
X022146Y047942D01*
X022141Y047952D01*
X022134Y047963D01*
X022124Y047974D01*
X022123Y047975D01*
X022119Y047978D01*
X022113Y047983D01*
X022105Y047988D01*
X022095Y047993D01*
X022084Y047997D01*
X022070Y048000D01*
X022055Y048002D01*
X022052D01*
X022049Y048001D01*
X022041Y048000D01*
X022032Y047999D01*
X022022Y047995D01*
X022011Y047991D01*
X022000Y047985D01*
X021989Y047976D01*
X021987Y047975D01*
X021984Y047972D01*
X021980Y047965D01*
X021975Y047957D01*
X021969Y047946D01*
X021963Y047933D01*
X021958Y047917D01*
X021955Y047899D01*
X021891Y047907D01*
Y047908D01*
X021892Y047910D01*
Y047913D01*
X021893Y047918D01*
X021894Y047924D01*
X021896Y047931D01*
X021898Y047938D01*
X021901Y047947D01*
X021907Y047964D01*
X021916Y047982D01*
X021927Y047999D01*
X021934Y048007D01*
X021941Y048015D01*
X021942Y048015D01*
X021944Y048016D01*
X021946Y048018D01*
X021949Y048021D01*
X021954Y048023D01*
X021959Y048026D01*
X021965Y048030D01*
X021971Y048034D01*
X021979Y048037D01*
X021988Y048041D01*
X021997Y048044D01*
X022007Y048047D01*
X022029Y048051D01*
X022041Y048052D01*
X022054Y048053D01*
X022061D01*
X022066Y048052D01*
D02*
G37*
G36*
X021501Y047913D02*
X021509Y047912D01*
X021519Y047910D01*
X021529Y047908D01*
X021540Y047905D01*
X021550Y047901D01*
X021551Y047900D01*
X021554Y047899D01*
X021559Y047897D01*
X021565Y047893D01*
X021573Y047889D01*
X021579Y047883D01*
X021586Y047877D01*
X021592Y047870D01*
X021592Y047869D01*
X021594Y047866D01*
X021596Y047862D01*
X021600Y047857D01*
X021602Y047850D01*
X021605Y047843D01*
X021609Y047834D01*
X021611Y047824D01*
Y047824D01*
X021612Y047821D01*
X021613Y047816D01*
X021613Y047811D01*
Y047802D01*
X021614Y047792D01*
X021615Y047779D01*
Y047764D01*
Y047539D01*
X021553D01*
Y047761D01*
Y047762D01*
Y047762D01*
Y047768D01*
Y047774D01*
X021552Y047782D01*
X021551Y047792D01*
X021550Y047801D01*
X021548Y047810D01*
X021546Y047818D01*
Y047819D01*
X021544Y047821D01*
X021542Y047824D01*
X021540Y047829D01*
X021536Y047833D01*
X021532Y047838D01*
X021526Y047843D01*
X021519Y047848D01*
X021519Y047848D01*
X021516Y047850D01*
X021512Y047851D01*
X021507Y047854D01*
X021501Y047856D01*
X021494Y047858D01*
X021485Y047859D01*
X021476Y047859D01*
X021473D01*
X021470Y047859D01*
X021462Y047858D01*
X021453Y047856D01*
X021443Y047853D01*
X021431Y047848D01*
X021419Y047843D01*
X021409Y047834D01*
X021407Y047832D01*
X021404Y047829D01*
X021402Y047826D01*
X021400Y047822D01*
X021397Y047818D01*
X021395Y047813D01*
X021392Y047807D01*
X021389Y047800D01*
X021387Y047792D01*
X021384Y047783D01*
X021383Y047773D01*
X021382Y047763D01*
X021380Y047751D01*
Y047738D01*
Y047539D01*
X021318D01*
Y047905D01*
X021374D01*
Y047853D01*
X021374Y047854D01*
X021376Y047856D01*
X021378Y047859D01*
X021381Y047862D01*
X021385Y047867D01*
X021390Y047872D01*
X021396Y047878D01*
X021403Y047883D01*
X021411Y047889D01*
X021419Y047894D01*
X021429Y047899D01*
X021439Y047904D01*
X021451Y047908D01*
X021462Y047910D01*
X021476Y047913D01*
X021489Y047913D01*
X021495D01*
X021501Y047913D01*
D02*
G37*
G36*
X021223Y047973D02*
X021161D01*
Y048044D01*
X021223D01*
Y047973D01*
D02*
G37*
G36*
X022081Y047539D02*
X022011D01*
Y047610D01*
X022081D01*
Y047539D01*
D02*
G37*
G36*
X036018Y044430D02*
X035956D01*
Y044501D01*
X036018D01*
Y044430D01*
D02*
G37*
G36*
X021783Y047905D02*
X021845D01*
Y047857D01*
X021783D01*
Y047642D01*
Y047641D01*
Y047638D01*
Y047633D01*
X021783Y047628D01*
X021784Y047617D01*
X021785Y047612D01*
X021785Y047608D01*
X021786Y047606D01*
X021788Y047604D01*
X021791Y047600D01*
X021796Y047596D01*
X021798Y047596D01*
X021801Y047594D01*
X021808Y047593D01*
X021818Y047592D01*
X021825D01*
X021828Y047593D01*
X021834D01*
X021839Y047593D01*
X021845Y047594D01*
X021853Y047539D01*
X021852D01*
X021849Y047539D01*
X021844Y047538D01*
X021837Y047537D01*
X021830Y047536D01*
X021822Y047535D01*
X021806Y047534D01*
X021800D01*
X021794Y047535D01*
X021787Y047536D01*
X021778Y047536D01*
X021769Y047539D01*
X021761Y047541D01*
X021753Y047544D01*
X021753Y047545D01*
X021750Y047547D01*
X021748Y047549D01*
X021743Y047552D01*
X021740Y047556D01*
X021735Y047561D01*
X021731Y047566D01*
X021728Y047573D01*
Y047574D01*
X021726Y047577D01*
X021726Y047582D01*
X021724Y047589D01*
X021723Y047598D01*
X021722Y047604D01*
Y047611D01*
X021721Y047619D01*
X021721Y047627D01*
Y047636D01*
Y047646D01*
Y047857D01*
X021675D01*
Y047905D01*
X021721D01*
Y047996D01*
X021783Y048033D01*
Y047905D01*
D02*
G37*
G36*
X021223Y047539D02*
X021161D01*
Y047905D01*
X021223D01*
Y047539D01*
D02*
G37*
G36*
X034198Y045179D02*
X034206Y045178D01*
X034216Y045176D01*
X034236Y045170D01*
X034247Y045167D01*
X034259Y045162D01*
X034271Y045156D01*
X034283Y045148D01*
X034294Y045140D01*
X034305Y045130D01*
X034316Y045118D01*
X034326Y045105D01*
Y045104D01*
X034328Y045101D01*
X034330Y045098D01*
X034333Y045094D01*
X034336Y045087D01*
X034339Y045080D01*
X034343Y045071D01*
X034348Y045060D01*
X034351Y045049D01*
X034356Y045037D01*
X034359Y045023D01*
X034362Y045009D01*
X034366Y044976D01*
X034369Y044940D01*
Y044939D01*
Y044935D01*
Y044930D01*
X034368Y044923D01*
Y044915D01*
X034366Y044905D01*
X034365Y044894D01*
X034363Y044882D01*
X034359Y044856D01*
X034351Y044828D01*
X034340Y044800D01*
X034326Y044775D01*
Y044774D01*
X034324Y044771D01*
X034321Y044768D01*
X034317Y044764D01*
X034312Y044757D01*
X034305Y044752D01*
X034299Y044745D01*
X034290Y044739D01*
X034280Y044731D01*
X034269Y044724D01*
X034245Y044713D01*
X034231Y044708D01*
X034216Y044705D01*
X034200Y044703D01*
X034183Y044701D01*
X034174D01*
X034168Y044703D01*
X034160Y044704D01*
X034151Y044706D01*
X034130Y044710D01*
X034107Y044719D01*
X034095Y044725D01*
X034083Y044732D01*
X034071Y044741D01*
X034060Y044751D01*
X034049Y044762D01*
X034040Y044775D01*
Y044776D01*
X034037Y044778D01*
X034035Y044781D01*
X034033Y044787D01*
X034030Y044793D01*
X034027Y044801D01*
X034022Y044810D01*
X034019Y044819D01*
X034014Y044830D01*
X034010Y044844D01*
X034007Y044857D01*
X034004Y044872D01*
X033999Y044904D01*
X033997Y044940D01*
Y044941D01*
Y044944D01*
Y044950D01*
X033998Y044956D01*
Y044965D01*
X033999Y044976D01*
X034000Y044987D01*
X034002Y044999D01*
X034008Y045025D01*
X034014Y045052D01*
X034025Y045080D01*
X034040Y045105D01*
X034041Y045106D01*
X034042Y045108D01*
X034045Y045111D01*
X034049Y045117D01*
X034054Y045122D01*
X034060Y045129D01*
X034068Y045135D01*
X034077Y045143D01*
X034096Y045156D01*
X034122Y045168D01*
X034135Y045174D01*
X034150Y045177D01*
X034166Y045179D01*
X034183Y045180D01*
X034192D01*
X034198Y045179D01*
D02*
G37*
G36*
X035868Y044715D02*
X035807D01*
Y045083D01*
X035768Y045044D01*
X035732Y045083D01*
X035815Y045166D01*
X035868D01*
Y044715D01*
D02*
G37*
G36*
X029401Y016991D02*
X029319Y016962D01*
X029318D01*
X029317Y016961D01*
X029312Y016959D01*
X029306Y016956D01*
X029299Y016951D01*
X029299D01*
X029298Y016950D01*
X029293Y016947D01*
X029288Y016942D01*
X029283Y016936D01*
Y016935D01*
X029282Y016934D01*
X029280Y016930D01*
X029276Y016924D01*
X029273Y016916D01*
Y016915D01*
X029272Y016915D01*
X029272Y016912D01*
X029271Y016910D01*
X029270Y016902D01*
X029269Y016894D01*
Y016818D01*
X029401D01*
Y016778D01*
X029092D01*
Y016915D01*
Y016915D01*
Y016917D01*
Y016919D01*
Y016922D01*
Y016930D01*
X029093Y016938D01*
Y016939D01*
Y016940D01*
Y016942D01*
X029094Y016945D01*
X029094Y016952D01*
X029096Y016960D01*
Y016961D01*
X029097Y016961D01*
X029097Y016966D01*
X029100Y016972D01*
X029102Y016979D01*
Y016980D01*
X029103Y016980D01*
X029105Y016985D01*
X029108Y016991D01*
X029113Y016996D01*
X029113Y016997D01*
X029115Y016999D01*
X029118Y017001D01*
X029121Y017004D01*
X029125Y017007D01*
X029130Y017011D01*
X029143Y017017D01*
X029143D01*
X029145Y017019D01*
X029149Y017020D01*
X029153Y017021D01*
X029159Y017023D01*
X029165Y017023D01*
X029179Y017025D01*
X029185D01*
X029188Y017024D01*
X029199Y017023D01*
X029209Y017020D01*
X029210D01*
X029211Y017019D01*
X029213Y017017D01*
X029217Y017016D01*
X029224Y017012D01*
X029233Y017006D01*
X029234Y017005D01*
X029234Y017004D01*
X029239Y017000D01*
X029245Y016993D01*
X029250Y016984D01*
Y016983D01*
X029252Y016982D01*
X029253Y016979D01*
X029254Y016976D01*
X029256Y016972D01*
X029258Y016966D01*
X029261Y016956D01*
X029261D01*
Y016956D01*
X029262Y016957D01*
X029264Y016961D01*
X029267Y016966D01*
X029272Y016974D01*
X029280Y016982D01*
X029289Y016990D01*
X029295Y016994D01*
X029302Y016998D01*
X029309Y017001D01*
X029318Y017005D01*
X029401Y017036D01*
Y016991D01*
D02*
G37*
G36*
X029300Y017280D02*
X029307D01*
X029314Y017278D01*
X029323Y017277D01*
X029331Y017276D01*
X029339Y017273D01*
X029340D01*
X029343Y017271D01*
X029347Y017270D01*
X029352Y017268D01*
X029364Y017261D01*
X029377Y017251D01*
X029377Y017251D01*
X029379Y017249D01*
X029382Y017246D01*
X029385Y017242D01*
X029388Y017237D01*
X029392Y017232D01*
X029396Y017225D01*
X029399Y017218D01*
Y017217D01*
X029401Y017214D01*
X029401Y017211D01*
X029403Y017206D01*
X029404Y017199D01*
X029405Y017192D01*
X029406Y017184D01*
Y017175D01*
Y017174D01*
Y017171D01*
X029406Y017166D01*
Y017161D01*
X029405Y017155D01*
X029404Y017147D01*
X029399Y017132D01*
X029398Y017131D01*
X029398Y017129D01*
X029396Y017125D01*
X029393Y017121D01*
X029390Y017116D01*
X029387Y017110D01*
X029382Y017104D01*
X029377Y017099D01*
X029376Y017098D01*
X029374Y017097D01*
X029371Y017094D01*
X029366Y017091D01*
X029361Y017087D01*
X029355Y017084D01*
X029347Y017080D01*
X029339Y017077D01*
X029339D01*
X029336Y017076D01*
X029331Y017075D01*
X029325Y017074D01*
X029318Y017072D01*
X029309Y017071D01*
X029300Y017070D01*
X029285D01*
X029280Y017071D01*
X029273D01*
X029266Y017071D01*
X029257Y017073D01*
X029240Y017077D01*
X029239Y017078D01*
X029237Y017079D01*
X029232Y017081D01*
X029227Y017083D01*
X029215Y017090D01*
X029204Y017099D01*
X029203Y017100D01*
X029202Y017101D01*
X029199Y017104D01*
X029195Y017109D01*
X029191Y017113D01*
X029188Y017119D01*
X029180Y017132D01*
X029180Y017133D01*
X029179Y017136D01*
X029178Y017139D01*
X029176Y017145D01*
X029175Y017151D01*
X029174Y017158D01*
X029172Y017166D01*
Y017175D01*
Y017176D01*
Y017179D01*
X029173Y017184D01*
Y017190D01*
X029175Y017197D01*
X029176Y017204D01*
X029178Y017211D01*
X029180Y017219D01*
Y017219D01*
X029182Y017222D01*
X029184Y017226D01*
X029186Y017230D01*
X029194Y017241D01*
X029204Y017252D01*
X029205Y017253D01*
X029207Y017254D01*
X029210Y017257D01*
X029214Y017260D01*
X029219Y017263D01*
X029225Y017267D01*
X029232Y017270D01*
X029240Y017273D01*
X029241D01*
X029244Y017275D01*
X029248Y017276D01*
X029255Y017277D01*
X029262Y017278D01*
X029270Y017279D01*
X029280Y017281D01*
X029294D01*
X029300Y017280D01*
D02*
G37*
G36*
X036186Y045178D02*
X036199Y045176D01*
X036215Y045173D01*
X036230Y045166D01*
X036246Y045158D01*
X036261Y045147D01*
X036263Y045146D01*
X036267Y045141D01*
X036273Y045133D01*
X036280Y045122D01*
X036287Y045109D01*
X036293Y045094D01*
X036298Y045075D01*
X036299Y045054D01*
Y045053D01*
Y045052D01*
Y045049D01*
X036298Y045045D01*
X036297Y045034D01*
X036292Y045020D01*
X036286Y045004D01*
X036277Y044987D01*
X036264Y044969D01*
X036255Y044960D01*
X036246Y044952D01*
X036244Y044951D01*
X036238Y044945D01*
X036228Y044939D01*
X036216Y044930D01*
X036202Y044919D01*
X036185Y044907D01*
X036149Y044881D01*
X036148D01*
X036147Y044879D01*
X036141Y044873D01*
X036133Y044863D01*
X036123Y044850D01*
X036113Y044834D01*
X036105Y044815D01*
X036099Y044794D01*
X036098Y044783D01*
X036097Y044771D01*
X036296D01*
Y044715D01*
X036035D01*
Y044716D01*
Y044717D01*
Y044724D01*
X036034Y044733D01*
Y044744D01*
Y044745D01*
Y044748D01*
Y044753D01*
X036035Y044760D01*
Y044768D01*
X036038Y044778D01*
X036039Y044788D01*
X036041Y044800D01*
X036047Y044824D01*
X036056Y044850D01*
X036069Y044876D01*
X036078Y044888D01*
X036087Y044900D01*
X036088Y044901D01*
X036091Y044905D01*
X036098Y044910D01*
X036107Y044919D01*
X036120Y044930D01*
X036127Y044936D01*
X036137Y044943D01*
X036147Y044951D01*
X036158Y044959D01*
X036171Y044969D01*
X036185Y044979D01*
X036186D01*
X036187Y044981D01*
X036194Y044986D01*
X036202Y044993D01*
X036211Y045003D01*
X036221Y045014D01*
X036230Y045027D01*
X036235Y045040D01*
X036237Y045048D01*
X036238Y045054D01*
Y045056D01*
Y045058D01*
Y045061D01*
X036237Y045065D01*
X036234Y045076D01*
X036229Y045088D01*
X036220Y045100D01*
X036215Y045107D01*
X036208Y045111D01*
X036199Y045116D01*
X036190Y045119D01*
X036179Y045121D01*
X036167Y045122D01*
X036160D01*
X036156Y045121D01*
X036144Y045119D01*
X036129Y045116D01*
X036113Y045109D01*
X036097Y045099D01*
X036088Y045093D01*
X036080Y045085D01*
X036073Y045076D01*
X036066Y045067D01*
X036028Y045105D01*
X036029Y045107D01*
X036032Y045111D01*
X036039Y045119D01*
X036046Y045128D01*
X036056Y045138D01*
X036068Y045148D01*
X036082Y045157D01*
X036099Y045166D01*
X036100Y045167D01*
X036104Y045168D01*
X036111Y045170D01*
X036120Y045174D01*
X036131Y045176D01*
X036141Y045178D01*
X036154Y045179D01*
X036167Y045180D01*
X036176D01*
X036186Y045178D01*
D02*
G37*
G36*
X033360Y017324D02*
X033367D01*
X033374Y017322D01*
X033383Y017321D01*
X033391Y017319D01*
X033399Y017316D01*
X033400D01*
X033403Y017315D01*
X033407Y017314D01*
X033412Y017311D01*
X033424Y017305D01*
X033437Y017295D01*
X033437Y017295D01*
X033439Y017293D01*
X033442Y017290D01*
X033445Y017286D01*
X033448Y017281D01*
X033452Y017276D01*
X033456Y017269D01*
X033459Y017262D01*
Y017261D01*
X033461Y017258D01*
X033461Y017255D01*
X033463Y017249D01*
X033464Y017243D01*
X033465Y017236D01*
X033466Y017228D01*
Y017219D01*
Y017218D01*
Y017215D01*
X033466Y017210D01*
Y017205D01*
X033465Y017198D01*
X033464Y017191D01*
X033459Y017176D01*
X033458Y017175D01*
X033458Y017173D01*
X033456Y017169D01*
X033453Y017165D01*
X033450Y017160D01*
X033447Y017154D01*
X033442Y017148D01*
X033437Y017143D01*
X033436Y017142D01*
X033434Y017141D01*
X033431Y017138D01*
X033426Y017135D01*
X033421Y017131D01*
X033415Y017128D01*
X033407Y017124D01*
X033399Y017121D01*
X033399D01*
X033396Y017120D01*
X033391Y017119D01*
X033385Y017117D01*
X033377Y017116D01*
X033369Y017115D01*
X033360Y017114D01*
X033345D01*
X033340Y017115D01*
X033333D01*
X033326Y017115D01*
X033317Y017117D01*
X033300Y017121D01*
X033300Y017122D01*
X033297Y017123D01*
X033292Y017125D01*
X033287Y017127D01*
X033275Y017134D01*
X033264Y017143D01*
X033263Y017144D01*
X033262Y017145D01*
X033259Y017148D01*
X033255Y017152D01*
X033251Y017157D01*
X033248Y017163D01*
X033240Y017176D01*
X033240Y017177D01*
X033239Y017179D01*
X033238Y017183D01*
X033236Y017189D01*
X033235Y017195D01*
X033234Y017202D01*
X033232Y017210D01*
Y017219D01*
Y017220D01*
Y017223D01*
X033233Y017228D01*
Y017233D01*
X033235Y017241D01*
X033236Y017248D01*
X033238Y017255D01*
X033240Y017263D01*
Y017263D01*
X033242Y017266D01*
X033244Y017270D01*
X033246Y017274D01*
X033254Y017285D01*
X033264Y017296D01*
X033265Y017297D01*
X033267Y017298D01*
X033270Y017301D01*
X033274Y017304D01*
X033279Y017307D01*
X033285Y017311D01*
X033292Y017314D01*
X033300Y017317D01*
X033301D01*
X033304Y017319D01*
X033308Y017319D01*
X033315Y017321D01*
X033322Y017322D01*
X033330Y017323D01*
X033340Y017325D01*
X033354D01*
X033360Y017324D01*
D02*
G37*
G36*
X033461Y017369D02*
X033152D01*
Y017408D01*
X033461D01*
Y017369D01*
D02*
G37*
G36*
X033322Y017700D02*
X033328D01*
X033334Y017699D01*
X033342Y017698D01*
X033350Y017697D01*
X033367Y017694D01*
X033386Y017689D01*
X033404Y017682D01*
X033421Y017672D01*
X033422D01*
X033423Y017671D01*
X033426Y017669D01*
X033429Y017666D01*
X033433Y017663D01*
X033437Y017658D01*
X033441Y017654D01*
X033445Y017648D01*
X033450Y017642D01*
X033455Y017634D01*
X033462Y017618D01*
X033466Y017609D01*
X033468Y017599D01*
X033469Y017588D01*
X033470Y017577D01*
Y017576D01*
Y017574D01*
Y017571D01*
X033469Y017567D01*
X033469Y017561D01*
X033467Y017556D01*
X033464Y017542D01*
X033458Y017526D01*
X033454Y017518D01*
X033450Y017510D01*
X033444Y017502D01*
X033437Y017495D01*
X033430Y017488D01*
X033421Y017481D01*
X033421D01*
X033419Y017480D01*
X033417Y017478D01*
X033413Y017477D01*
X033409Y017475D01*
X033404Y017472D01*
X033398Y017470D01*
X033391Y017467D01*
X033384Y017464D01*
X033375Y017462D01*
X033367Y017459D01*
X033356Y017457D01*
X033335Y017454D01*
X033311Y017453D01*
X033305D01*
X033300Y017454D01*
X033294D01*
X033287Y017454D01*
X033280Y017455D01*
X033272Y017456D01*
X033254Y017460D01*
X033236Y017464D01*
X033218Y017472D01*
X033201Y017481D01*
X033200Y017482D01*
X033199Y017483D01*
X033197Y017485D01*
X033193Y017488D01*
X033189Y017491D01*
X033185Y017495D01*
X033181Y017500D01*
X033176Y017506D01*
X033167Y017519D01*
X033159Y017536D01*
X033155Y017545D01*
X033153Y017555D01*
X033152Y017566D01*
X033151Y017577D01*
Y017577D01*
Y017580D01*
Y017583D01*
X033152Y017587D01*
X033152Y017592D01*
X033154Y017599D01*
X033157Y017612D01*
X033160Y017620D01*
X033163Y017628D01*
X033167Y017636D01*
X033172Y017644D01*
X033178Y017651D01*
X033184Y017658D01*
X033192Y017666D01*
X033201Y017672D01*
X033202D01*
X033203Y017674D01*
X033205Y017675D01*
X033208Y017677D01*
X033213Y017679D01*
X033218Y017681D01*
X033224Y017684D01*
X033231Y017687D01*
X033238Y017689D01*
X033246Y017692D01*
X033256Y017694D01*
X033265Y017696D01*
X033287Y017699D01*
X033311Y017701D01*
X033318D01*
X033322Y017700D01*
D02*
G37*
G36*
X033877Y044715D02*
X033816D01*
Y045083D01*
X033776Y045044D01*
X033740Y045083D01*
X033823Y045166D01*
X033877D01*
Y044715D01*
D02*
G37*
G36*
X034323Y044369D02*
X034334Y044369D01*
X034346Y044367D01*
X034358Y044365D01*
X034371Y044362D01*
X034382Y044358D01*
X034384Y044358D01*
X034388Y044356D01*
X034393Y044354D01*
X034399Y044351D01*
X034406Y044347D01*
X034414Y044342D01*
X034420Y044337D01*
X034426Y044331D01*
X034427Y044330D01*
X034428Y044328D01*
X034431Y044324D01*
X034433Y044320D01*
X034437Y044313D01*
X034440Y044307D01*
X034443Y044299D01*
X034445Y044289D01*
Y044288D01*
X034446Y044286D01*
X034447Y044282D01*
X034447Y044276D01*
Y044268D01*
X034448Y044258D01*
X034449Y044246D01*
Y044232D01*
Y044149D01*
Y044148D01*
Y044146D01*
Y044141D01*
Y044135D01*
Y044129D01*
Y044121D01*
X034449Y044103D01*
Y044085D01*
X034450Y044067D01*
X034451Y044059D01*
Y044051D01*
X034452Y044045D01*
X034452Y044040D01*
Y044039D01*
X034453Y044036D01*
X034454Y044032D01*
X034456Y044026D01*
X034457Y044019D01*
X034460Y044012D01*
X034464Y044004D01*
X034468Y043996D01*
X034403D01*
X034402Y043997D01*
X034401Y044000D01*
X034400Y044003D01*
X034398Y044009D01*
X034396Y044016D01*
X034394Y044024D01*
X034393Y044033D01*
X034391Y044042D01*
X034390D01*
X034390Y044041D01*
X034385Y044037D01*
X034379Y044032D01*
X034370Y044025D01*
X034359Y044019D01*
X034348Y044011D01*
X034336Y044005D01*
X034324Y044000D01*
X034323Y043999D01*
X034318Y043998D01*
X034312Y043996D01*
X034304Y043994D01*
X034293Y043992D01*
X034282Y043990D01*
X034269Y043989D01*
X034256Y043988D01*
X034250D01*
X034245Y043989D01*
X034240D01*
X034234Y043990D01*
X034221Y043992D01*
X034207Y043995D01*
X034191Y044000D01*
X034176Y044008D01*
X034163Y044017D01*
X034162Y044019D01*
X034158Y044022D01*
X034153Y044029D01*
X034147Y044038D01*
X034141Y044049D01*
X034136Y044061D01*
X034132Y044076D01*
X034132Y044084D01*
X034131Y044092D01*
Y044094D01*
Y044097D01*
X034132Y044102D01*
X034132Y044108D01*
X034134Y044116D01*
X034136Y044124D01*
X034139Y044133D01*
X034143Y044141D01*
X034143Y044142D01*
X034145Y044145D01*
X034148Y044149D01*
X034151Y044154D01*
X034156Y044160D01*
X034162Y044166D01*
X034167Y044172D01*
X034175Y044177D01*
X034175Y044178D01*
X034178Y044179D01*
X034182Y044182D01*
X034188Y044185D01*
X034194Y044188D01*
X034202Y044191D01*
X034210Y044194D01*
X034220Y044197D01*
X034221D01*
X034223Y044198D01*
X034228Y044199D01*
X034234Y044200D01*
X034241Y044202D01*
X034250Y044203D01*
X034261Y044205D01*
X034275Y044207D01*
X034275D01*
X034278Y044207D01*
X034282D01*
X034287Y044208D01*
X034293Y044209D01*
X034300Y044210D01*
X034308Y044211D01*
X034317Y044213D01*
X034334Y044216D01*
X034353Y044220D01*
X034370Y044224D01*
X034378Y044226D01*
X034385Y044229D01*
Y044229D01*
Y044231D01*
X034386Y044235D01*
Y044240D01*
Y044243D01*
Y044245D01*
Y044245D01*
Y044246D01*
Y044250D01*
X034385Y044258D01*
X034384Y044266D01*
X034382Y044275D01*
X034378Y044283D01*
X034374Y044291D01*
X034368Y044298D01*
X034367Y044299D01*
X034363Y044302D01*
X034358Y044304D01*
X034350Y044309D01*
X034340Y044312D01*
X034328Y044316D01*
X034314Y044318D01*
X034297Y044319D01*
X034290D01*
X034283Y044318D01*
X034272Y044317D01*
X034262Y044315D01*
X034251Y044312D01*
X034241Y044309D01*
X034232Y044304D01*
X034232Y044303D01*
X034229Y044301D01*
X034225Y044297D01*
X034221Y044291D01*
X034216Y044284D01*
X034211Y044275D01*
X034207Y044263D01*
X034202Y044250D01*
X034142Y044258D01*
Y044258D01*
X034143Y044259D01*
Y044261D01*
X034143Y044264D01*
X034145Y044271D01*
X034148Y044280D01*
X034152Y044290D01*
X034156Y044300D01*
X034162Y044310D01*
X034169Y044320D01*
X034170Y044320D01*
X034172Y044323D01*
X034177Y044328D01*
X034183Y044334D01*
X034191Y044339D01*
X034200Y044345D01*
X034211Y044352D01*
X034223Y044357D01*
X034224D01*
X034225Y044358D01*
X034227Y044358D01*
X034230Y044359D01*
X034237Y044361D01*
X034248Y044363D01*
X034259Y044366D01*
X034274Y044368D01*
X034289Y044369D01*
X034307Y044370D01*
X034315D01*
X034323Y044369D01*
D02*
G37*
G36*
X036018Y043996D02*
X035956D01*
Y044362D01*
X036018D01*
Y043996D01*
D02*
G37*
G36*
X035184Y045111D02*
Y045110D01*
X035182Y045109D01*
X035176Y045103D01*
X035168Y045092D01*
X035156Y045079D01*
X035141Y045063D01*
X035126Y045045D01*
X035110Y045026D01*
X035093Y045006D01*
X035092Y045005D01*
X035091Y045003D01*
X035088Y045000D01*
X035083Y044994D01*
X035079Y044989D01*
X035074Y044982D01*
X035061Y044965D01*
X035047Y044946D01*
X035033Y044926D01*
X035020Y044905D01*
X035008Y044884D01*
Y044883D01*
X035007Y044881D01*
X035005Y044877D01*
X035003Y044872D01*
X034999Y044865D01*
X034996Y044858D01*
X034989Y044839D01*
X034982Y044817D01*
X034976Y044793D01*
X034972Y044768D01*
X034970Y044742D01*
Y044741D01*
Y044740D01*
Y044732D01*
X034971Y044723D01*
X034972Y044715D01*
X034911D01*
Y044716D01*
Y044717D01*
X034910Y044723D01*
X034909Y044732D01*
Y044742D01*
Y044743D01*
Y044745D01*
Y044750D01*
X034910Y044755D01*
Y044762D01*
X034911Y044769D01*
X034913Y044788D01*
X034917Y044810D01*
X034924Y044834D01*
X034932Y044860D01*
X034944Y044887D01*
Y044888D01*
X034945Y044889D01*
X034947Y044893D01*
X034949Y044897D01*
X034954Y044908D01*
X034963Y044923D01*
X034974Y044941D01*
X034988Y044962D01*
X035005Y044983D01*
X035023Y045007D01*
Y045009D01*
X035026Y045010D01*
X035031Y045016D01*
X035039Y045027D01*
X035050Y045040D01*
X035063Y045056D01*
X035077Y045073D01*
X035092Y045092D01*
X035109Y045111D01*
X034905D01*
Y045166D01*
X035184D01*
Y045111D01*
D02*
G37*
G36*
X029401Y017538D02*
Y017500D01*
X029237Y017452D01*
X029401Y017403D01*
Y017364D01*
X029178Y017297D01*
Y017342D01*
X029348Y017383D01*
X029178Y017434D01*
Y017470D01*
X029348Y017520D01*
X029178Y017561D01*
Y017605D01*
X029401Y017538D01*
D02*
G37*
G36*
X029262Y017870D02*
X029268D01*
X029274Y017869D01*
X029282Y017868D01*
X029290Y017867D01*
X029307Y017864D01*
X029326Y017859D01*
X029344Y017851D01*
X029361Y017842D01*
X029362D01*
X029363Y017841D01*
X029366Y017838D01*
X029369Y017836D01*
X029373Y017832D01*
X029377Y017828D01*
X029381Y017824D01*
X029385Y017818D01*
X029390Y017811D01*
X029395Y017804D01*
X029402Y017788D01*
X029406Y017779D01*
X029408Y017768D01*
X029409Y017758D01*
X029410Y017746D01*
Y017746D01*
Y017744D01*
Y017741D01*
X029409Y017736D01*
X029409Y017731D01*
X029407Y017725D01*
X029404Y017711D01*
X029398Y017696D01*
X029394Y017688D01*
X029390Y017680D01*
X029384Y017672D01*
X029377Y017665D01*
X029370Y017658D01*
X029361Y017651D01*
X029361D01*
X029359Y017650D01*
X029357Y017648D01*
X029353Y017647D01*
X029349Y017644D01*
X029344Y017642D01*
X029338Y017639D01*
X029331Y017637D01*
X029324Y017634D01*
X029315Y017631D01*
X029307Y017629D01*
X029296Y017627D01*
X029275Y017624D01*
X029251Y017623D01*
X029245D01*
X029240Y017623D01*
X029234D01*
X029227Y017624D01*
X029220Y017625D01*
X029212Y017626D01*
X029194Y017630D01*
X029176Y017634D01*
X029158Y017642D01*
X029141Y017651D01*
X029140Y017652D01*
X029139Y017652D01*
X029137Y017655D01*
X029133Y017658D01*
X029129Y017660D01*
X029125Y017665D01*
X029121Y017670D01*
X029116Y017676D01*
X029107Y017689D01*
X029099Y017706D01*
X029095Y017714D01*
X029093Y017725D01*
X029092Y017736D01*
X029091Y017746D01*
Y017747D01*
Y017749D01*
Y017752D01*
X029092Y017757D01*
X029092Y017762D01*
X029094Y017768D01*
X029097Y017782D01*
X029100Y017789D01*
X029103Y017798D01*
X029107Y017806D01*
X029112Y017814D01*
X029118Y017821D01*
X029124Y017828D01*
X029132Y017835D01*
X029141Y017842D01*
X029142D01*
X029143Y017843D01*
X029145Y017845D01*
X029148Y017846D01*
X029153Y017849D01*
X029158Y017851D01*
X029164Y017854D01*
X029171Y017857D01*
X029178Y017859D01*
X029186Y017862D01*
X029196Y017864D01*
X029205Y017866D01*
X029227Y017869D01*
X029251Y017870D01*
X029258D01*
X029262Y017870D01*
D02*
G37*
%LPC*%
G36*
X034183Y045122D02*
X034177D01*
X034173Y045121D01*
X034162Y045119D01*
X034149Y045115D01*
X034134Y045108D01*
X034118Y045098D01*
X034111Y045092D01*
X034103Y045084D01*
X034095Y045074D01*
X034089Y045064D01*
Y045063D01*
X034088Y045062D01*
X034086Y045059D01*
X034084Y045056D01*
X034079Y045045D01*
X034074Y045029D01*
X034067Y045012D01*
X034063Y044990D01*
X034058Y044966D01*
X034057Y044940D01*
Y044939D01*
Y044936D01*
Y044933D01*
Y044928D01*
X034058Y044921D01*
X034059Y044915D01*
X034062Y044897D01*
X034065Y044877D01*
X034070Y044858D01*
X034078Y044836D01*
X034089Y044816D01*
Y044815D01*
X034091Y044814D01*
X034095Y044807D01*
X034103Y044798D01*
X034114Y044787D01*
X034127Y044776D01*
X034143Y044766D01*
X034162Y044759D01*
X034172Y044758D01*
X034183Y044757D01*
X034188D01*
X034193Y044758D01*
X034204Y044760D01*
X034217Y044765D01*
X034232Y044771D01*
X034248Y044782D01*
X034256Y044789D01*
X034264Y044797D01*
X034271Y044806D01*
X034278Y044816D01*
Y044817D01*
X034279Y044818D01*
X034281Y044822D01*
X034282Y044825D01*
X034288Y044836D01*
X034293Y044851D01*
X034299Y044869D01*
X034304Y044891D01*
X034307Y044913D01*
X034309Y044940D01*
Y044941D01*
Y044943D01*
Y044947D01*
Y044952D01*
X034307Y044958D01*
Y044966D01*
X034305Y044982D01*
X034301Y045002D01*
X034295Y045023D01*
X034288Y045045D01*
X034278Y045064D01*
Y045065D01*
X034277Y045067D01*
X034271Y045073D01*
X034264Y045083D01*
X034253Y045094D01*
X034239Y045104D01*
X034222Y045114D01*
X034204Y045120D01*
X034194Y045121D01*
X034183Y045122D01*
D02*
G37*
G36*
X034125Y046278D02*
X033930D01*
Y046065D01*
X034127D01*
X034136Y046067D01*
X034158Y046068D01*
X034179Y046071D01*
X034181D01*
X034184Y046072D01*
X034190Y046074D01*
X034195Y046075D01*
X034210Y046081D01*
X034225Y046090D01*
X034226D01*
X034228Y046093D01*
X034235Y046099D01*
X034242Y046110D01*
X034249Y046123D01*
Y046125D01*
X034251Y046128D01*
X034252Y046132D01*
X034254Y046138D01*
X034257Y046153D01*
X034258Y046173D01*
Y046176D01*
Y046182D01*
X034257Y046192D01*
X034254Y046204D01*
X034249Y046215D01*
X034244Y046228D01*
X034236Y046242D01*
X034225Y046252D01*
X034223Y046253D01*
X034219Y046256D01*
X034211Y046261D01*
X034200Y046265D01*
X034187Y046269D01*
X034169Y046274D01*
X034149Y046277D01*
X034125Y046278D01*
D02*
G37*
G36*
X037148Y046014D02*
X036993D01*
Y045801D01*
X037149D01*
X037157Y045803D01*
X037167D01*
X037177Y045804D01*
X037190Y045807D01*
X037216Y045814D01*
X037230Y045820D01*
X037243Y045827D01*
X037256Y045836D01*
X037266Y045846D01*
X037276Y045858D01*
X037283Y045873D01*
X037288Y045889D01*
X037289Y045908D01*
Y045909D01*
Y045912D01*
Y045918D01*
X037288Y045924D01*
X037286Y045940D01*
X037282Y045954D01*
Y045956D01*
X037281Y045957D01*
X037276Y045966D01*
X037267Y045978D01*
X037256Y045988D01*
X037254D01*
X037253Y045991D01*
X037248Y045992D01*
X037243Y045995D01*
X037228Y046001D01*
X037208Y046007D01*
X037206D01*
X037202Y046008D01*
X037196Y046010D01*
X037187Y046011D01*
X037176D01*
X037162Y046013D01*
X037148Y046014D01*
D02*
G37*
G36*
X037138Y046272D02*
X036993D01*
Y046087D01*
X037142D01*
X037154Y046088D01*
X037168Y046090D01*
X037186Y046093D01*
X037202Y046096D01*
X037218Y046102D01*
X037231Y046109D01*
X037232Y046110D01*
X037235Y046113D01*
X037241Y046119D01*
X037247Y046126D01*
X037253Y046137D01*
X037259Y046148D01*
X037262Y046163D01*
X037263Y046180D01*
Y046182D01*
Y046185D01*
Y046189D01*
X037262Y046195D01*
X037260Y046208D01*
X037256Y046221D01*
Y046223D01*
X037254Y046224D01*
X037250Y046231D01*
X037243Y046240D01*
X037231Y046249D01*
X037228Y046250D01*
X037219Y046256D01*
X037206Y046261D01*
X037189Y046266D01*
X037187D01*
X037184Y046268D01*
X037178D01*
X037171Y046269D01*
X037161Y046271D01*
X037149D01*
X037138Y046272D01*
D02*
G37*
G36*
X029179Y016982D02*
X029175D01*
X029170Y016982D01*
X029164Y016980D01*
X029158Y016978D01*
X029151Y016975D01*
X029145Y016972D01*
X029140Y016966D01*
X029139Y016965D01*
X029137Y016963D01*
X029135Y016959D01*
X029133Y016953D01*
X029131Y016947D01*
X029129Y016938D01*
X029127Y016928D01*
X029127Y016916D01*
Y016818D01*
X029233D01*
Y016910D01*
Y016911D01*
Y016913D01*
Y016917D01*
X029232Y016921D01*
X029231Y016932D01*
X029230Y016943D01*
Y016944D01*
X029229Y016945D01*
X029229Y016948D01*
X029228Y016951D01*
X029225Y016958D01*
X029221Y016966D01*
Y016966D01*
X029219Y016967D01*
X029216Y016971D01*
X029210Y016974D01*
X029204Y016978D01*
X029203D01*
X029202Y016979D01*
X029199Y016980D01*
X029196Y016980D01*
X029189Y016982D01*
X029179Y016982D01*
D02*
G37*
G36*
X029297Y017239D02*
X029283D01*
X029277Y017238D01*
X029272Y017238D01*
X029265Y017237D01*
X029253Y017234D01*
X029252D01*
X029250Y017233D01*
X029247Y017233D01*
X029243Y017231D01*
X029234Y017227D01*
X029226Y017221D01*
X029225D01*
X029224Y017219D01*
X029220Y017216D01*
X029214Y017209D01*
X029210Y017201D01*
Y017200D01*
X029209Y017199D01*
X029207Y017197D01*
X029207Y017194D01*
X029205Y017185D01*
X029204Y017175D01*
Y017174D01*
Y017173D01*
Y017170D01*
X029205Y017167D01*
X029206Y017158D01*
X029210Y017149D01*
Y017149D01*
X029210Y017147D01*
X029212Y017145D01*
X029213Y017143D01*
X029218Y017136D01*
X029226Y017129D01*
X029226D01*
X029228Y017128D01*
X029230Y017126D01*
X029233Y017124D01*
X029237Y017122D01*
X029242Y017120D01*
X029253Y017116D01*
X029253D01*
X029256Y017115D01*
X029258Y017114D01*
X029264Y017114D01*
X029269Y017113D01*
X029275Y017112D01*
X029282Y017112D01*
X029297D01*
X029302Y017112D01*
X029308D01*
X029315Y017114D01*
X029327Y017116D01*
X029328D01*
X029330Y017117D01*
X029333Y017118D01*
X029336Y017120D01*
X029345Y017123D01*
X029354Y017129D01*
X029355Y017130D01*
X029355Y017130D01*
X029360Y017135D01*
X029366Y017141D01*
X029371Y017149D01*
Y017150D01*
X029371Y017152D01*
X029372Y017154D01*
X029373Y017157D01*
X029375Y017165D01*
X029376Y017175D01*
Y017176D01*
Y017177D01*
Y017180D01*
X029375Y017184D01*
X029374Y017192D01*
X029371Y017201D01*
Y017202D01*
X029369Y017203D01*
X029369Y017206D01*
X029366Y017208D01*
X029361Y017214D01*
X029354Y017221D01*
X029353Y017222D01*
X029352Y017222D01*
X029350Y017224D01*
X029347Y017226D01*
X029342Y017228D01*
X029338Y017230D01*
X029327Y017234D01*
X029326D01*
X029324Y017235D01*
X029320Y017235D01*
X029316Y017237D01*
X029311Y017238D01*
X029304Y017238D01*
X029297Y017239D01*
D02*
G37*
G36*
X033357Y017283D02*
X033343D01*
X033337Y017282D01*
X033332Y017281D01*
X033325Y017281D01*
X033313Y017278D01*
X033312D01*
X033310Y017277D01*
X033307Y017276D01*
X033303Y017275D01*
X033294Y017271D01*
X033286Y017265D01*
X033285D01*
X033284Y017263D01*
X033280Y017260D01*
X033274Y017253D01*
X033270Y017245D01*
Y017244D01*
X033269Y017243D01*
X033267Y017241D01*
X033267Y017238D01*
X033265Y017229D01*
X033264Y017219D01*
Y017218D01*
Y017217D01*
Y017214D01*
X033265Y017211D01*
X033266Y017202D01*
X033270Y017193D01*
Y017193D01*
X033270Y017191D01*
X033272Y017189D01*
X033273Y017187D01*
X033278Y017179D01*
X033286Y017173D01*
X033286D01*
X033288Y017171D01*
X033290Y017170D01*
X033293Y017168D01*
X033297Y017166D01*
X033302Y017163D01*
X033313Y017160D01*
X033313D01*
X033316Y017159D01*
X033318Y017158D01*
X033324Y017158D01*
X033329Y017157D01*
X033335Y017156D01*
X033342Y017155D01*
X033357D01*
X033362Y017156D01*
X033368D01*
X033375Y017158D01*
X033387Y017160D01*
X033388D01*
X033390Y017160D01*
X033393Y017162D01*
X033396Y017163D01*
X033405Y017167D01*
X033414Y017173D01*
X033415Y017174D01*
X033415Y017174D01*
X033420Y017179D01*
X033426Y017185D01*
X033431Y017193D01*
Y017194D01*
X033431Y017195D01*
X033432Y017198D01*
X033433Y017201D01*
X033435Y017209D01*
X033436Y017219D01*
Y017220D01*
Y017221D01*
Y017224D01*
X033435Y017228D01*
X033434Y017236D01*
X033431Y017245D01*
Y017246D01*
X033429Y017247D01*
X033429Y017249D01*
X033426Y017252D01*
X033421Y017258D01*
X033414Y017265D01*
X033413Y017265D01*
X033412Y017266D01*
X033410Y017268D01*
X033407Y017270D01*
X033402Y017272D01*
X033398Y017274D01*
X033387Y017278D01*
X033386D01*
X033384Y017279D01*
X033380Y017279D01*
X033376Y017281D01*
X033371Y017281D01*
X033364Y017282D01*
X033357Y017283D01*
D02*
G37*
G36*
X033311Y017661D02*
X033303D01*
X033299Y017660D01*
X033294D01*
X033283Y017658D01*
X033270Y017655D01*
X033256Y017652D01*
X033241Y017647D01*
X033228Y017640D01*
X033227D01*
X033227Y017639D01*
X033222Y017636D01*
X033216Y017631D01*
X033208Y017623D01*
X033202Y017614D01*
X033195Y017603D01*
X033191Y017591D01*
X033190Y017584D01*
X033189Y017577D01*
Y017576D01*
Y017575D01*
Y017573D01*
X033190Y017570D01*
X033192Y017563D01*
X033195Y017554D01*
X033199Y017544D01*
X033205Y017534D01*
X033210Y017529D01*
X033215Y017524D01*
X033221Y017518D01*
X033228Y017514D01*
X033229D01*
X033230Y017513D01*
X033232Y017512D01*
X033234Y017511D01*
X033241Y017507D01*
X033251Y017504D01*
X033263Y017499D01*
X033278Y017497D01*
X033294Y017494D01*
X033311Y017493D01*
X033319D01*
X033324Y017494D01*
X033328Y017494D01*
X033340Y017496D01*
X033353Y017498D01*
X033366Y017502D01*
X033380Y017507D01*
X033394Y017514D01*
X033394D01*
X033395Y017515D01*
X033399Y017518D01*
X033406Y017524D01*
X033413Y017531D01*
X033421Y017540D01*
X033427Y017550D01*
X033431Y017563D01*
X033432Y017569D01*
X033433Y017577D01*
Y017577D01*
Y017578D01*
Y017580D01*
X033432Y017583D01*
X033431Y017591D01*
X033428Y017599D01*
X033423Y017610D01*
X033416Y017620D01*
X033412Y017626D01*
X033407Y017631D01*
X033400Y017636D01*
X033394Y017640D01*
X033393D01*
X033392Y017641D01*
X033390Y017642D01*
X033388Y017643D01*
X033380Y017647D01*
X033370Y017650D01*
X033359Y017654D01*
X033344Y017658D01*
X033329Y017660D01*
X033311Y017661D01*
D02*
G37*
G36*
X033916Y044321D02*
X033912D01*
X033909Y044320D01*
X033902Y044319D01*
X033893Y044317D01*
X033882Y044312D01*
X033870Y044306D01*
X033863Y044302D01*
X033858Y044296D01*
X033852Y044291D01*
X033846Y044284D01*
Y044283D01*
X033844Y044283D01*
X033843Y044280D01*
X033841Y044277D01*
X033839Y044273D01*
X033836Y044269D01*
X033833Y044263D01*
X033831Y044257D01*
X033828Y044250D01*
X033825Y044242D01*
X033823Y044233D01*
X033820Y044224D01*
X033819Y044213D01*
X033817Y044202D01*
X033816Y044190D01*
Y044177D01*
Y044176D01*
Y044174D01*
Y044170D01*
X033817Y044165D01*
Y044159D01*
X033817Y044153D01*
X033820Y044137D01*
X033823Y044120D01*
X033828Y044103D01*
X033835Y044086D01*
X033839Y044079D01*
X033844Y044073D01*
X033846Y044071D01*
X033850Y044068D01*
X033855Y044062D01*
X033863Y044056D01*
X033874Y044050D01*
X033885Y044044D01*
X033898Y044041D01*
X033906Y044040D01*
X033913Y044039D01*
X033917D01*
X033920Y044040D01*
X033928Y044041D01*
X033938Y044043D01*
X033949Y044048D01*
X033960Y044054D01*
X033972Y044062D01*
X033978Y044068D01*
X033984Y044073D01*
Y044074D01*
X033985Y044075D01*
X033987Y044077D01*
X033988Y044080D01*
X033991Y044084D01*
X033993Y044089D01*
X033996Y044094D01*
X033999Y044100D01*
X034001Y044107D01*
X034004Y044116D01*
X034007Y044124D01*
X034009Y044134D01*
X034011Y044145D01*
X034012Y044156D01*
X034014Y044169D01*
Y044182D01*
Y044183D01*
Y044185D01*
Y044189D01*
X034013Y044194D01*
Y044199D01*
X034012Y044206D01*
X034010Y044221D01*
X034006Y044238D01*
X034001Y044255D01*
X033994Y044272D01*
X033989Y044280D01*
X033984Y044286D01*
Y044287D01*
X033983Y044288D01*
X033979Y044292D01*
X033973Y044297D01*
X033965Y044304D01*
X033955Y044310D01*
X033944Y044316D01*
X033930Y044320D01*
X033923Y044320D01*
X033916Y044321D01*
D02*
G37*
G36*
X034681Y044319D02*
X034678D01*
X034675Y044318D01*
X034667Y044318D01*
X034657Y044315D01*
X034646Y044311D01*
X034635Y044304D01*
X034623Y044296D01*
X034617Y044291D01*
X034612Y044285D01*
Y044284D01*
X034611Y044283D01*
X034610Y044281D01*
X034608Y044278D01*
X034605Y044275D01*
X034603Y044270D01*
X034601Y044265D01*
X034598Y044259D01*
X034595Y044252D01*
X034593Y044244D01*
X034591Y044235D01*
X034589Y044226D01*
X034587Y044215D01*
X034586Y044204D01*
X034584Y044191D01*
Y044178D01*
Y044178D01*
Y044175D01*
Y044172D01*
X034585Y044167D01*
Y044161D01*
X034586Y044154D01*
X034588Y044139D01*
X034592Y044122D01*
X034597Y044105D01*
X034604Y044088D01*
X034608Y044081D01*
X034613Y044073D01*
X034614D01*
X034615Y044072D01*
X034619Y044068D01*
X034625Y044062D01*
X034633Y044057D01*
X034643Y044050D01*
X034656Y044044D01*
X034669Y044041D01*
X034676Y044040D01*
X034683Y044039D01*
X034687D01*
X034690Y044040D01*
X034698Y044041D01*
X034708Y044043D01*
X034718Y044047D01*
X034730Y044053D01*
X034742Y044061D01*
X034748Y044066D01*
X034753Y044072D01*
Y044073D01*
X034754Y044073D01*
X034756Y044076D01*
X034757Y044078D01*
X034759Y044082D01*
X034762Y044086D01*
X034764Y044092D01*
X034767Y044097D01*
X034770Y044104D01*
X034772Y044111D01*
X034775Y044120D01*
X034778Y044129D01*
X034779Y044139D01*
X034780Y044149D01*
X034782Y044161D01*
Y044173D01*
Y044174D01*
Y044177D01*
Y044180D01*
X034781Y044186D01*
Y044191D01*
X034780Y044199D01*
X034780Y044207D01*
X034778Y044215D01*
X034775Y044233D01*
X034770Y044251D01*
X034762Y044269D01*
X034758Y044276D01*
X034753Y044283D01*
Y044284D01*
X034751Y044285D01*
X034748Y044289D01*
X034741Y044295D01*
X034733Y044302D01*
X034723Y044308D01*
X034710Y044313D01*
X034697Y044318D01*
X034689Y044318D01*
X034681Y044319D01*
D02*
G37*
G36*
X029251Y017830D02*
X029243D01*
X029239Y017830D01*
X029234D01*
X029223Y017828D01*
X029210Y017825D01*
X029196Y017822D01*
X029181Y017816D01*
X029168Y017810D01*
X029167D01*
X029167Y017809D01*
X029162Y017806D01*
X029156Y017800D01*
X029148Y017793D01*
X029142Y017784D01*
X029135Y017773D01*
X029131Y017760D01*
X029130Y017754D01*
X029129Y017746D01*
Y017746D01*
Y017745D01*
Y017743D01*
X029130Y017740D01*
X029132Y017733D01*
X029135Y017724D01*
X029139Y017714D01*
X029145Y017703D01*
X029150Y017698D01*
X029155Y017693D01*
X029162Y017688D01*
X029168Y017684D01*
X029169D01*
X029170Y017683D01*
X029172Y017682D01*
X029174Y017681D01*
X029181Y017677D01*
X029191Y017674D01*
X029203Y017669D01*
X029218Y017666D01*
X029234Y017663D01*
X029251Y017663D01*
X029259D01*
X029264Y017663D01*
X029268Y017664D01*
X029280Y017666D01*
X029293Y017668D01*
X029306Y017671D01*
X029320Y017676D01*
X029334Y017684D01*
X029334D01*
X029335Y017685D01*
X029339Y017688D01*
X029346Y017693D01*
X029353Y017701D01*
X029361Y017709D01*
X029367Y017720D01*
X029371Y017733D01*
X029372Y017739D01*
X029373Y017746D01*
Y017747D01*
Y017748D01*
Y017750D01*
X029372Y017753D01*
X029371Y017760D01*
X029368Y017769D01*
X029363Y017779D01*
X029356Y017790D01*
X029352Y017795D01*
X029347Y017800D01*
X029340Y017806D01*
X029334Y017810D01*
X029333D01*
X029332Y017811D01*
X029330Y017812D01*
X029328Y017813D01*
X029320Y017816D01*
X029310Y017820D01*
X029299Y017824D01*
X029284Y017827D01*
X029269Y017830D01*
X029251Y017830D01*
D02*
G37*
G36*
X034386Y044180D02*
X034385D01*
X034385Y044179D01*
X034382Y044178D01*
X034379Y044178D01*
X034376Y044176D01*
X034371Y044175D01*
X034366Y044173D01*
X034361Y044172D01*
X034354Y044170D01*
X034346Y044168D01*
X034338Y044166D01*
X034328Y044164D01*
X034318Y044162D01*
X034308Y044159D01*
X034296Y044158D01*
X034284Y044156D01*
X034283D01*
X034278Y044155D01*
X034271Y044154D01*
X034263Y044152D01*
X034254Y044151D01*
X034245Y044148D01*
X034237Y044146D01*
X034230Y044143D01*
X034229D01*
X034227Y044142D01*
X034224Y044140D01*
X034221Y044138D01*
X034213Y044132D01*
X034205Y044124D01*
Y044123D01*
X034204Y044121D01*
X034203Y044119D01*
X034202Y044115D01*
X034200Y044111D01*
X034199Y044106D01*
X034198Y044100D01*
X034197Y044094D01*
Y044094D01*
Y044090D01*
X034198Y044086D01*
X034199Y044080D01*
X034202Y044073D01*
X034205Y044067D01*
X034210Y044059D01*
X034215Y044053D01*
X034216Y044052D01*
X034219Y044051D01*
X034223Y044048D01*
X034229Y044045D01*
X034237Y044042D01*
X034247Y044039D01*
X034258Y044038D01*
X034271Y044037D01*
X034277D01*
X034284Y044038D01*
X034292Y044039D01*
X034302Y044041D01*
X034312Y044043D01*
X034323Y044047D01*
X034334Y044052D01*
X034336Y044053D01*
X034339Y044055D01*
X034344Y044059D01*
X034350Y044064D01*
X034356Y044070D01*
X034363Y044077D01*
X034369Y044086D01*
X034375Y044095D01*
X034376Y044096D01*
X034377Y044099D01*
X034378Y044104D01*
X034380Y044111D01*
X034382Y044119D01*
X034384Y044129D01*
X034385Y044142D01*
X034385Y044156D01*
X034386Y044180D01*
D02*
G37*
G36*
X034317Y017293D02*
X034303D01*
X034297Y017292D01*
X034292Y017291D01*
X034285Y017291D01*
X034273Y017288D01*
X034272D01*
X034270Y017287D01*
X034267Y017286D01*
X034263Y017285D01*
X034254Y017281D01*
X034246Y017275D01*
X034245D01*
X034244Y017273D01*
X034240Y017270D01*
X034234Y017263D01*
X034230Y017255D01*
Y017254D01*
X034229Y017253D01*
X034227Y017251D01*
X034227Y017248D01*
X034225Y017239D01*
X034224Y017229D01*
Y017228D01*
Y017227D01*
Y017224D01*
X034225Y017221D01*
X034226Y017212D01*
X034230Y017203D01*
Y017203D01*
X034230Y017201D01*
X034232Y017199D01*
X034233Y017197D01*
X034238Y017189D01*
X034246Y017183D01*
X034246D01*
X034248Y017181D01*
X034250Y017180D01*
X034253Y017178D01*
X034257Y017176D01*
X034262Y017173D01*
X034273Y017170D01*
X034273D01*
X034276Y017169D01*
X034278Y017168D01*
X034284Y017168D01*
X034289Y017167D01*
X034295Y017166D01*
X034302Y017165D01*
X034317D01*
X034322Y017166D01*
X034328D01*
X034335Y017168D01*
X034347Y017170D01*
X034348D01*
X034350Y017170D01*
X034353Y017172D01*
X034356Y017173D01*
X034365Y017177D01*
X034374Y017183D01*
X034375Y017184D01*
X034375Y017184D01*
X034380Y017189D01*
X034386Y017195D01*
X034391Y017203D01*
Y017204D01*
X034391Y017205D01*
X034392Y017208D01*
X034393Y017211D01*
X034395Y017219D01*
X034396Y017229D01*
Y017230D01*
Y017231D01*
Y017234D01*
X034395Y017238D01*
X034394Y017246D01*
X034391Y017255D01*
Y017256D01*
X034389Y017257D01*
X034389Y017259D01*
X034386Y017262D01*
X034381Y017268D01*
X034374Y017275D01*
X034373Y017275D01*
X034372Y017276D01*
X034370Y017278D01*
X034367Y017280D01*
X034362Y017282D01*
X034358Y017284D01*
X034347Y017288D01*
X034346D01*
X034344Y017289D01*
X034340Y017289D01*
X034336Y017291D01*
X034331Y017291D01*
X034324Y017292D01*
X034317Y017293D01*
D02*
G37*
G36*
X031219Y017062D02*
X031215D01*
X031210Y017062D01*
X031204Y017060D01*
X031198Y017058D01*
X031191Y017055D01*
X031185Y017052D01*
X031180Y017046D01*
X031179Y017045D01*
X031177Y017043D01*
X031175Y017039D01*
X031173Y017033D01*
X031171Y017027D01*
X031169Y017018D01*
X031167Y017008D01*
X031167Y016996D01*
Y016898D01*
X031273D01*
Y016990D01*
Y016991D01*
Y016993D01*
Y016997D01*
X031272Y017001D01*
X031271Y017012D01*
X031270Y017023D01*
Y017024D01*
X031269Y017025D01*
X031269Y017028D01*
X031268Y017031D01*
X031265Y017038D01*
X031261Y017046D01*
Y017046D01*
X031259Y017047D01*
X031256Y017051D01*
X031250Y017054D01*
X031244Y017058D01*
X031243D01*
X031242Y017059D01*
X031239Y017060D01*
X031236Y017060D01*
X031229Y017062D01*
X031219Y017062D01*
D02*
G37*
G36*
X030229Y017032D02*
X030225D01*
X030220Y017032D01*
X030214Y017030D01*
X030208Y017028D01*
X030201Y017025D01*
X030195Y017022D01*
X030190Y017016D01*
X030189Y017015D01*
X030187Y017013D01*
X030185Y017009D01*
X030183Y017003D01*
X030181Y016997D01*
X030179Y016988D01*
X030177Y016978D01*
X030177Y016966D01*
Y016868D01*
X030283D01*
Y016960D01*
Y016961D01*
Y016963D01*
Y016967D01*
X030282Y016971D01*
X030281Y016982D01*
X030280Y016993D01*
Y016994D01*
X030279Y016995D01*
X030279Y016998D01*
X030278Y017001D01*
X030275Y017008D01*
X030271Y017016D01*
Y017016D01*
X030269Y017017D01*
X030266Y017021D01*
X030260Y017024D01*
X030254Y017028D01*
X030253D01*
X030252Y017029D01*
X030249Y017030D01*
X030246Y017030D01*
X030239Y017032D01*
X030229Y017032D01*
D02*
G37*
G36*
X030347Y017289D02*
X030333D01*
X030327Y017288D01*
X030322Y017288D01*
X030315Y017287D01*
X030303Y017284D01*
X030302D01*
X030300Y017283D01*
X030297Y017283D01*
X030293Y017281D01*
X030284Y017277D01*
X030276Y017271D01*
X030275D01*
X030274Y017269D01*
X030270Y017266D01*
X030264Y017259D01*
X030260Y017251D01*
Y017250D01*
X030259Y017249D01*
X030257Y017247D01*
X030257Y017244D01*
X030255Y017235D01*
X030254Y017225D01*
Y017224D01*
Y017223D01*
Y017220D01*
X030255Y017217D01*
X030256Y017208D01*
X030260Y017199D01*
Y017199D01*
X030260Y017197D01*
X030262Y017195D01*
X030263Y017193D01*
X030268Y017186D01*
X030276Y017179D01*
X030276D01*
X030278Y017178D01*
X030280Y017176D01*
X030283Y017174D01*
X030287Y017172D01*
X030292Y017170D01*
X030303Y017166D01*
X030303D01*
X030306Y017165D01*
X030308Y017164D01*
X030314Y017164D01*
X030319Y017163D01*
X030325Y017162D01*
X030332Y017162D01*
X030347D01*
X030352Y017162D01*
X030358D01*
X030365Y017164D01*
X030377Y017166D01*
X030378D01*
X030380Y017167D01*
X030383Y017168D01*
X030386Y017170D01*
X030395Y017173D01*
X030404Y017179D01*
X030405Y017180D01*
X030405Y017180D01*
X030410Y017185D01*
X030416Y017191D01*
X030421Y017199D01*
Y017200D01*
X030421Y017202D01*
X030422Y017204D01*
X030423Y017207D01*
X030425Y017215D01*
X030426Y017225D01*
Y017226D01*
Y017227D01*
Y017230D01*
X030425Y017234D01*
X030424Y017242D01*
X030421Y017251D01*
Y017252D01*
X030419Y017253D01*
X030419Y017256D01*
X030416Y017258D01*
X030411Y017264D01*
X030404Y017271D01*
X030403Y017272D01*
X030402Y017272D01*
X030400Y017274D01*
X030397Y017276D01*
X030392Y017278D01*
X030388Y017280D01*
X030377Y017284D01*
X030376D01*
X030374Y017285D01*
X030370Y017285D01*
X030366Y017287D01*
X030361Y017288D01*
X030354Y017288D01*
X030347Y017289D01*
D02*
G37*
G36*
X032169Y017012D02*
X032165D01*
X032160Y017012D01*
X032154Y017010D01*
X032148Y017008D01*
X032141Y017005D01*
X032135Y017002D01*
X032130Y016996D01*
X032129Y016995D01*
X032127Y016993D01*
X032125Y016989D01*
X032123Y016983D01*
X032121Y016977D01*
X032119Y016968D01*
X032117Y016958D01*
X032117Y016946D01*
Y016848D01*
X032223D01*
Y016940D01*
Y016941D01*
Y016943D01*
Y016947D01*
X032222Y016951D01*
X032221Y016962D01*
X032220Y016973D01*
Y016974D01*
X032219Y016975D01*
X032219Y016978D01*
X032218Y016981D01*
X032215Y016988D01*
X032211Y016996D01*
Y016996D01*
X032209Y016997D01*
X032206Y017001D01*
X032200Y017004D01*
X032194Y017008D01*
X032193D01*
X032192Y017009D01*
X032189Y017010D01*
X032186Y017010D01*
X032179Y017012D01*
X032169Y017012D01*
D02*
G37*
G36*
X032287Y017269D02*
X032273D01*
X032267Y017268D01*
X032262Y017268D01*
X032255Y017267D01*
X032243Y017264D01*
X032242D01*
X032240Y017263D01*
X032237Y017263D01*
X032233Y017261D01*
X032224Y017257D01*
X032216Y017251D01*
X032215D01*
X032214Y017249D01*
X032210Y017246D01*
X032204Y017239D01*
X032200Y017231D01*
Y017230D01*
X032199Y017229D01*
X032197Y017227D01*
X032197Y017224D01*
X032195Y017215D01*
X032194Y017205D01*
Y017204D01*
Y017203D01*
Y017200D01*
X032195Y017197D01*
X032196Y017188D01*
X032200Y017179D01*
Y017179D01*
X032200Y017177D01*
X032202Y017175D01*
X032203Y017173D01*
X032208Y017166D01*
X032216Y017159D01*
X032216D01*
X032218Y017158D01*
X032220Y017156D01*
X032223Y017154D01*
X032227Y017152D01*
X032232Y017150D01*
X032243Y017146D01*
X032243D01*
X032246Y017145D01*
X032248Y017144D01*
X032254Y017144D01*
X032259Y017143D01*
X032265Y017142D01*
X032272Y017142D01*
X032287D01*
X032292Y017142D01*
X032298D01*
X032305Y017144D01*
X032317Y017146D01*
X032318D01*
X032320Y017147D01*
X032323Y017148D01*
X032326Y017150D01*
X032335Y017153D01*
X032344Y017159D01*
X032345Y017160D01*
X032345Y017160D01*
X032350Y017165D01*
X032356Y017171D01*
X032361Y017179D01*
Y017180D01*
X032361Y017182D01*
X032362Y017184D01*
X032363Y017187D01*
X032365Y017195D01*
X032366Y017205D01*
Y017206D01*
Y017207D01*
Y017210D01*
X032365Y017214D01*
X032364Y017222D01*
X032361Y017231D01*
Y017232D01*
X032359Y017233D01*
X032359Y017236D01*
X032356Y017238D01*
X032351Y017244D01*
X032344Y017251D01*
X032343Y017252D01*
X032342Y017252D01*
X032340Y017254D01*
X032337Y017256D01*
X032332Y017258D01*
X032328Y017260D01*
X032317Y017264D01*
X032316D01*
X032314Y017265D01*
X032310Y017265D01*
X032306Y017267D01*
X032301Y017268D01*
X032294Y017268D01*
X032287Y017269D01*
D02*
G37*
G36*
X031337Y017319D02*
X031323D01*
X031317Y017318D01*
X031312Y017318D01*
X031305Y017317D01*
X031293Y017314D01*
X031292D01*
X031290Y017313D01*
X031287Y017313D01*
X031283Y017311D01*
X031274Y017307D01*
X031266Y017301D01*
X031265D01*
X031264Y017299D01*
X031260Y017296D01*
X031254Y017289D01*
X031250Y017281D01*
Y017280D01*
X031249Y017279D01*
X031247Y017277D01*
X031247Y017274D01*
X031245Y017265D01*
X031244Y017255D01*
Y017254D01*
Y017253D01*
Y017250D01*
X031245Y017247D01*
X031246Y017238D01*
X031250Y017229D01*
Y017229D01*
X031250Y017227D01*
X031252Y017225D01*
X031253Y017223D01*
X031258Y017216D01*
X031266Y017209D01*
X031266D01*
X031268Y017208D01*
X031270Y017206D01*
X031273Y017204D01*
X031277Y017202D01*
X031282Y017200D01*
X031293Y017196D01*
X031293D01*
X031296Y017195D01*
X031298Y017194D01*
X031304Y017194D01*
X031309Y017193D01*
X031315Y017192D01*
X031322Y017192D01*
X031337D01*
X031342Y017192D01*
X031348D01*
X031355Y017194D01*
X031367Y017196D01*
X031368D01*
X031370Y017197D01*
X031373Y017198D01*
X031376Y017200D01*
X031385Y017203D01*
X031394Y017209D01*
X031395Y017210D01*
X031395Y017210D01*
X031400Y017215D01*
X031406Y017221D01*
X031411Y017229D01*
Y017230D01*
X031411Y017232D01*
X031412Y017234D01*
X031413Y017237D01*
X031415Y017245D01*
X031416Y017255D01*
Y017256D01*
Y017257D01*
Y017260D01*
X031415Y017264D01*
X031414Y017272D01*
X031411Y017281D01*
Y017282D01*
X031409Y017283D01*
X031409Y017286D01*
X031406Y017288D01*
X031401Y017294D01*
X031394Y017301D01*
X031393Y017302D01*
X031392Y017302D01*
X031390Y017304D01*
X031387Y017306D01*
X031382Y017308D01*
X031378Y017310D01*
X031367Y017314D01*
X031366D01*
X031364Y017315D01*
X031360Y017315D01*
X031356Y017317D01*
X031351Y017318D01*
X031344Y017318D01*
X031337Y017319D01*
D02*
G37*
G36*
X035437Y017253D02*
X035423D01*
X035417Y017252D01*
X035412Y017251D01*
X035405Y017251D01*
X035393Y017248D01*
X035392D01*
X035390Y017247D01*
X035387Y017246D01*
X035383Y017245D01*
X035374Y017241D01*
X035366Y017235D01*
X035365D01*
X035364Y017233D01*
X035360Y017230D01*
X035354Y017223D01*
X035350Y017215D01*
Y017214D01*
X035349Y017213D01*
X035347Y017211D01*
X035347Y017208D01*
X035345Y017199D01*
X035344Y017189D01*
Y017188D01*
Y017187D01*
Y017184D01*
X035345Y017181D01*
X035346Y017172D01*
X035350Y017163D01*
Y017163D01*
X035350Y017161D01*
X035352Y017159D01*
X035353Y017157D01*
X035358Y017149D01*
X035366Y017143D01*
X035366D01*
X035368Y017141D01*
X035370Y017140D01*
X035373Y017138D01*
X035377Y017136D01*
X035382Y017133D01*
X035393Y017130D01*
X035393D01*
X035396Y017129D01*
X035398Y017128D01*
X035404Y017128D01*
X035409Y017127D01*
X035415Y017126D01*
X035422Y017125D01*
X035437D01*
X035442Y017126D01*
X035448D01*
X035455Y017128D01*
X035467Y017130D01*
X035468D01*
X035470Y017130D01*
X035473Y017132D01*
X035476Y017133D01*
X035485Y017137D01*
X035494Y017143D01*
X035495Y017144D01*
X035495Y017144D01*
X035500Y017149D01*
X035506Y017155D01*
X035511Y017163D01*
Y017164D01*
X035511Y017165D01*
X035512Y017168D01*
X035513Y017171D01*
X035515Y017179D01*
X035516Y017189D01*
Y017190D01*
Y017191D01*
Y017194D01*
X035515Y017198D01*
X035514Y017206D01*
X035511Y017215D01*
Y017216D01*
X035509Y017217D01*
X035509Y017219D01*
X035506Y017222D01*
X035501Y017228D01*
X035494Y017235D01*
X035493Y017235D01*
X035492Y017236D01*
X035490Y017238D01*
X035487Y017240D01*
X035482Y017242D01*
X035478Y017244D01*
X035467Y017248D01*
X035466D01*
X035464Y017249D01*
X035460Y017249D01*
X035456Y017251D01*
X035451Y017251D01*
X035444Y017252D01*
X035437Y017253D01*
D02*
G37*
%LPD*%
D19*
X030778Y047943D02*
X031152Y047510D01*
X030778Y049872D02*
X032815D01*
Y047510D02*
Y049872D01*
X030778Y047510D02*
X032815D01*
X030778D02*
Y049872D01*
X031850Y019350D02*
X034272Y021772D01*
X029428D02*
X031850Y024194D01*
X034272Y021772D01*
X029428D02*
X031850Y019350D01*
X034173Y025278D02*
X034618Y025723D01*
X034226Y025225D02*
X034671Y025670D01*
X034504Y025837D02*
X034671Y025670D01*
X034059Y025392D02*
X034226Y025225D01*
X028198Y019152D02*
X028643Y019598D01*
X028251Y019099D02*
X028696Y019545D01*
X028529Y019712D02*
X028696Y019545D01*
X028084Y019266D02*
X028251Y019099D01*
X029646Y044335D02*
X030276D01*
X029646Y044409D02*
X030276D01*
X029646Y044173D02*
Y044409D01*
X030276Y044173D02*
Y044409D01*
X028791Y015543D02*
X035791D01*
Y016543D01*
X028791D02*
X035791D01*
X028791Y015543D02*
Y016543D01*
X035630Y037835D02*
Y038071D01*
X035000Y037835D02*
Y038071D01*
D28*
X029134Y048444D02*
Y047944D01*
X029234Y047844D01*
X029434D01*
X029534Y047944D01*
Y048444D01*
X030134Y047844D02*
X029734D01*
X030134Y048244D01*
Y048344D01*
X030034Y048444D01*
X029834D01*
X029734Y048344D01*
X028434Y024125D02*
X028788Y023771D01*
X028929D01*
X029070Y023913D01*
Y024054D01*
X028717Y024408D01*
X029282Y024125D02*
X029424Y024266D01*
X029353Y024196D01*
X028929Y024620D01*
Y024478D01*
X034941Y019291D02*
Y019891D01*
X035241D01*
X035341Y019791D01*
Y019591D01*
X035241Y019491D01*
X034941D01*
X035141D02*
X035341Y019291D01*
X035941D02*
X035541D01*
X035941Y019691D01*
Y019791D01*
X035841Y019891D01*
X035641D01*
X035541Y019791D01*
X030990Y043886D02*
X030890Y043986D01*
X030691D01*
X030591Y043886D01*
Y043486D01*
X030691Y043386D01*
X030890D01*
X030990Y043486D01*
X031190Y043886D02*
X031290Y043986D01*
X031490D01*
X031590Y043886D01*
Y043786D01*
X031490Y043686D01*
X031390D01*
X031490D01*
X031590Y043586D01*
Y043486D01*
X031490Y043386D01*
X031290D01*
X031190Y043486D01*
X035552Y024578D02*
Y024719D01*
X035411Y024861D01*
X035270D01*
X034987Y024578D01*
Y024437D01*
X035128Y024295D01*
X035270D01*
X035623Y023801D02*
X035340Y024083D01*
X035906D01*
X035977Y024154D01*
Y024295D01*
X035835Y024437D01*
X035694D01*
X027103Y020888D02*
Y021029D01*
X026961Y021170D01*
X026820D01*
X026537Y020888D01*
Y020746D01*
X026679Y020605D01*
X026820D01*
X026891Y020393D02*
X027032Y020251D01*
X026961Y020322D01*
X027385Y020746D01*
X027244D01*
X036130Y015787D02*
Y016387D01*
X036430D01*
X036530Y016287D01*
Y016087D01*
X036430Y015987D01*
X036130D01*
X037130Y015787D02*
X036730D01*
X037130Y016187D01*
Y016287D01*
X037030Y016387D01*
X036830D01*
X036730Y016287D01*
X025571Y031663D02*
Y031063D01*
X025871D01*
X025971Y031163D01*
Y031263D01*
X025871Y031363D01*
X025571D01*
X025871D01*
X025971Y031463D01*
Y031563D01*
X025871Y031663D01*
X025571D01*
X026171Y031063D02*
X026371D01*
X026271D01*
Y031663D01*
X026171Y031563D01*
X026671Y031363D02*
X027070D01*
X026870Y031563D02*
Y031163D01*
X025866Y019212D02*
Y018612D01*
X026166D01*
X026266Y018712D01*
Y018812D01*
X026166Y018912D01*
X025866D01*
X026166D01*
X026266Y019012D01*
Y019112D01*
X026166Y019212D01*
X025866D01*
X026466Y018612D02*
X026666D01*
X026566D01*
Y019212D01*
X026466Y019112D01*
X026966Y018912D02*
X027366D01*
X036545Y031673D02*
Y031073D01*
X036845D01*
X036945Y031173D01*
Y031273D01*
X036845Y031373D01*
X036545D01*
X036845D01*
X036945Y031473D01*
Y031573D01*
X036845Y031673D01*
X036545D01*
X037545Y031073D02*
X037145D01*
X037545Y031473D01*
Y031573D01*
X037445Y031673D01*
X037245D01*
X037145Y031573D01*
X037745Y031373D02*
X038145D01*
X037945Y031573D02*
Y031173D01*
X036614Y019212D02*
Y018612D01*
X036914D01*
X037014Y018712D01*
Y018812D01*
X036914Y018912D01*
X036614D01*
X036914D01*
X037014Y019012D01*
Y019112D01*
X036914Y019212D01*
X036614D01*
X037614Y018612D02*
X037214D01*
X037614Y019012D01*
Y019112D01*
X037514Y019212D01*
X037314D01*
X037214Y019112D01*
X037814Y018912D02*
X038214D01*
X033140Y048868D02*
Y048268D01*
X033440D01*
X033540Y048368D01*
Y048768D01*
X033440Y048868D01*
X033140D01*
X033740Y048268D02*
X033939D01*
X033840D01*
Y048868D01*
X033740Y048768D01*
X035974Y037047D02*
Y037647D01*
X036274D01*
X036374Y037547D01*
Y037347D01*
X036274Y037247D01*
X035974D01*
X036174D02*
X036374Y037047D01*
X036574D02*
X036774D01*
X036674D01*
Y037647D01*
X036574Y037547D01*
D29*
X030103Y021772D02*
G03*
X030103Y021772I-000118J000000D01*
G01*
D30*
X028983Y021542D02*
G03*
X028983Y021542I-000049J000000D01*
G01*
D31*
X024093Y042884D02*
Y049616D01*
X024388Y049911D01*
X028620D01*
X024093Y042884D02*
X028915D01*
Y049616D01*
X028620Y049911D02*
X028915Y049616D01*
D32*
X021718Y046358D02*
D03*
M02*
