%FSAX24Y24*%
%MOIN*%
G70*
G01*
G75*
G04 Layer_Color=32896*
G04:AMPARAMS|DCode=10|XSize=24mil|YSize=59.1mil|CornerRadius=0.6mil|HoleSize=0mil|Usage=FLASHONLY|Rotation=90.000|XOffset=0mil|YOffset=0mil|HoleType=Round|Shape=RoundedRectangle|*
%AMROUNDEDRECTD10*
21,1,0.0240,0.0579,0,0,90.0*
21,1,0.0228,0.0591,0,0,90.0*
1,1,0.0012,0.0289,0.0114*
1,1,0.0012,0.0289,-0.0114*
1,1,0.0012,-0.0289,-0.0114*
1,1,0.0012,-0.0289,0.0114*
%
%ADD10ROUNDEDRECTD10*%
G04:AMPARAMS|DCode=11|XSize=24mil|YSize=59.1mil|CornerRadius=0.6mil|HoleSize=0mil|Usage=FLASHONLY|Rotation=0.000|XOffset=0mil|YOffset=0mil|HoleType=Round|Shape=RoundedRectangle|*
%AMROUNDEDRECTD11*
21,1,0.0240,0.0579,0,0,0.0*
21,1,0.0228,0.0591,0,0,0.0*
1,1,0.0012,0.0114,-0.0289*
1,1,0.0012,-0.0114,-0.0289*
1,1,0.0012,-0.0114,0.0289*
1,1,0.0012,0.0114,0.0289*
%
%ADD11ROUNDEDRECTD11*%
%ADD12R,0.2362X0.1969*%
%ADD13R,0.0276X0.0512*%
G04:AMPARAMS|DCode=14|XSize=21.7mil|YSize=68.9mil|CornerRadius=0mil|HoleSize=0mil|Usage=FLASHONLY|Rotation=45.000|XOffset=0mil|YOffset=0mil|HoleType=Round|Shape=Round|*
%AMOVALD14*
21,1,0.0472,0.0217,0.0000,0.0000,135.0*
1,1,0.0217,0.0167,-0.0167*
1,1,0.0217,-0.0167,0.0167*
%
%ADD14OVALD14*%

G04:AMPARAMS|DCode=15|XSize=21.7mil|YSize=68.9mil|CornerRadius=0mil|HoleSize=0mil|Usage=FLASHONLY|Rotation=135.000|XOffset=0mil|YOffset=0mil|HoleType=Round|Shape=Round|*
%AMOVALD15*
21,1,0.0472,0.0217,0.0000,0.0000,225.0*
1,1,0.0217,0.0167,0.0167*
1,1,0.0217,-0.0167,-0.0167*
%
%ADD15OVALD15*%

G04:AMPARAMS|DCode=16|XSize=70.9mil|YSize=63mil|CornerRadius=0mil|HoleSize=0mil|Usage=FLASHONLY|Rotation=225.000|XOffset=0mil|YOffset=0mil|HoleType=Round|Shape=Rectangle|*
%AMROTATEDRECTD16*
4,1,4,0.0028,0.0473,0.0473,0.0028,-0.0028,-0.0473,-0.0473,-0.0028,0.0028,0.0473,0.0*
%
%ADD16ROTATEDRECTD16*%

%ADD17R,0.0709X0.0630*%
%ADD18R,0.0512X0.0591*%
%ADD19C,0.0079*%
%ADD20R,0.0394X0.0394*%
%ADD21C,0.0591*%
%ADD22R,0.0591X0.0591*%
%ADD23C,0.1250*%
%ADD24C,0.0961*%
%ADD25C,0.0394*%
%ADD26C,0.2559*%
%ADD27R,0.0984X0.0591*%
%ADD28C,0.0100*%
%ADD29C,0.0236*%
%ADD30C,0.0098*%
%ADD31C,0.0050*%
%ADD32R,0.1575X0.1575*%
G04:AMPARAMS|DCode=33|XSize=32mil|YSize=67.1mil|CornerRadius=4.6mil|HoleSize=0mil|Usage=FLASHONLY|Rotation=90.000|XOffset=0mil|YOffset=0mil|HoleType=Round|Shape=RoundedRectangle|*
%AMROUNDEDRECTD33*
21,1,0.0320,0.0579,0,0,90.0*
21,1,0.0228,0.0671,0,0,90.0*
1,1,0.0092,0.0289,0.0114*
1,1,0.0092,0.0289,-0.0114*
1,1,0.0092,-0.0289,-0.0114*
1,1,0.0092,-0.0289,0.0114*
%
%ADD33ROUNDEDRECTD33*%
G04:AMPARAMS|DCode=34|XSize=32mil|YSize=67.1mil|CornerRadius=4.6mil|HoleSize=0mil|Usage=FLASHONLY|Rotation=0.000|XOffset=0mil|YOffset=0mil|HoleType=Round|Shape=RoundedRectangle|*
%AMROUNDEDRECTD34*
21,1,0.0320,0.0579,0,0,0.0*
21,1,0.0228,0.0671,0,0,0.0*
1,1,0.0092,0.0114,-0.0289*
1,1,0.0092,-0.0114,-0.0289*
1,1,0.0092,-0.0114,0.0289*
1,1,0.0092,0.0114,0.0289*
%
%ADD34ROUNDEDRECTD34*%
%ADD35R,0.2442X0.2049*%
%ADD36R,0.0356X0.0592*%
G04:AMPARAMS|DCode=37|XSize=37.4mil|YSize=84.6mil|CornerRadius=0mil|HoleSize=0mil|Usage=FLASHONLY|Rotation=45.000|XOffset=0mil|YOffset=0mil|HoleType=Round|Shape=Round|*
%AMOVALD37*
21,1,0.0472,0.0374,0.0000,0.0000,135.0*
1,1,0.0374,0.0167,-0.0167*
1,1,0.0374,-0.0167,0.0167*
%
%ADD37OVALD37*%

G04:AMPARAMS|DCode=38|XSize=37.4mil|YSize=84.6mil|CornerRadius=0mil|HoleSize=0mil|Usage=FLASHONLY|Rotation=135.000|XOffset=0mil|YOffset=0mil|HoleType=Round|Shape=Round|*
%AMOVALD38*
21,1,0.0472,0.0374,0.0000,0.0000,225.0*
1,1,0.0374,0.0167,0.0167*
1,1,0.0374,-0.0167,-0.0167*
%
%ADD38OVALD38*%

G04:AMPARAMS|DCode=39|XSize=78.9mil|YSize=71mil|CornerRadius=0mil|HoleSize=0mil|Usage=FLASHONLY|Rotation=225.000|XOffset=0mil|YOffset=0mil|HoleType=Round|Shape=Rectangle|*
%AMROTATEDRECTD39*
4,1,4,0.0028,0.0530,0.0530,0.0028,-0.0028,-0.0530,-0.0530,-0.0028,0.0028,0.0530,0.0*
%
%ADD39ROTATEDRECTD39*%

%ADD40R,0.0789X0.0710*%
%ADD41R,0.0592X0.0671*%
%ADD42C,0.0671*%
%ADD43R,0.0671X0.0671*%
%ADD44C,0.1330*%
%ADD45C,0.1041*%
%ADD46C,0.2639*%
%ADD47R,0.1064X0.0671*%
%ADD48R,0.1604X0.1870*%
%ADD49R,0.1634X0.1624*%
G36*
X033750Y014823D02*
X033568D01*
X033552Y014824D01*
X033536Y014824D01*
X033523Y014826D01*
X033511Y014827D01*
X033501Y014829D01*
X033493Y014829D01*
X033491Y014830D01*
X033489Y014831D01*
X033488D01*
X033474Y014835D01*
X033463Y014839D01*
X033453Y014843D01*
X033444Y014847D01*
X033437Y014851D01*
X033431Y014853D01*
X033429Y014856D01*
X033427Y014856D01*
X033418Y014863D01*
X033410Y014871D01*
X033402Y014878D01*
X033395Y014886D01*
X033389Y014892D01*
X033385Y014897D01*
X033382Y014901D01*
X033381Y014902D01*
X033374Y014914D01*
X033367Y014926D01*
X033361Y014938D01*
X033356Y014950D01*
X033352Y014960D01*
X033349Y014968D01*
X033348Y014971D01*
X033348Y014973D01*
X033347Y014974D01*
Y014975D01*
X033342Y014993D01*
X033339Y015010D01*
X033337Y015027D01*
X033334Y015043D01*
X033334Y015057D01*
Y015063D01*
X033333Y015068D01*
Y015071D01*
Y015075D01*
Y015077D01*
Y015077D01*
X033334Y015102D01*
X033336Y015125D01*
X033340Y015145D01*
X033341Y015155D01*
X033343Y015163D01*
X033345Y015171D01*
X033347Y015177D01*
X033348Y015183D01*
X033351Y015188D01*
X033351Y015192D01*
X033353Y015195D01*
X033353Y015197D01*
Y015198D01*
X033361Y015216D01*
X033371Y015233D01*
X033381Y015248D01*
X033391Y015260D01*
X033399Y015270D01*
X033407Y015278D01*
X033410Y015280D01*
X033412Y015282D01*
X033412Y015283D01*
X033413Y015284D01*
X033425Y015293D01*
X033437Y015300D01*
X033450Y015307D01*
X033461Y015312D01*
X033472Y015316D01*
X033480Y015318D01*
X033482Y015319D01*
X033485D01*
X033486Y015320D01*
X033487D01*
X033499Y015322D01*
X033514Y015324D01*
X033528Y015326D01*
X033543Y015327D01*
X033556Y015327D01*
X033750D01*
Y014823D01*
D02*
G37*
G36*
X032756Y015335D02*
X032768Y015334D01*
X032779Y015331D01*
X032788Y015329D01*
X032795Y015326D01*
X032800Y015323D01*
X032804Y015321D01*
X032804Y015321D01*
X032813Y015315D01*
X032819Y015308D01*
X032824Y015302D01*
X032829Y015296D01*
X032832Y015291D01*
X032834Y015286D01*
X032835Y015283D01*
X032836Y015282D01*
X032838Y015275D01*
X032839Y015266D01*
X032841Y015257D01*
X032842Y015248D01*
Y015240D01*
X032842Y015233D01*
Y015229D01*
Y015228D01*
Y015227D01*
Y015189D01*
X032897D01*
Y015141D01*
X032842D01*
Y014823D01*
X032780D01*
Y015141D01*
X032710D01*
Y015189D01*
X032780D01*
Y015222D01*
X032780Y015234D01*
X032778Y015243D01*
X032777Y015251D01*
X032775Y015257D01*
X032772Y015262D01*
X032770Y015265D01*
X032769Y015266D01*
X032769Y015267D01*
X032764Y015271D01*
X032758Y015274D01*
X032751Y015276D01*
X032745Y015278D01*
X032739Y015278D01*
X032734Y015279D01*
X032729D01*
X032716Y015278D01*
X032710Y015278D01*
X032705D01*
X032700Y015277D01*
X032696Y015276D01*
X032694Y015276D01*
X032693D01*
X032683Y015329D01*
X032695Y015332D01*
X032705Y015333D01*
X032716Y015335D01*
X032724Y015335D01*
X032731Y015336D01*
X032741D01*
X032756Y015335D01*
D02*
G37*
G36*
X031780Y015196D02*
X031793Y015195D01*
X031806Y015192D01*
X031817Y015189D01*
X031828Y015185D01*
X031839Y015181D01*
X031848Y015176D01*
X031856Y015171D01*
X031864Y015167D01*
X031871Y015162D01*
X031876Y015157D01*
X031881Y015154D01*
X031884Y015150D01*
X031887Y015148D01*
X031889Y015147D01*
X031890Y015146D01*
X031898Y015136D01*
X031905Y015125D01*
X031911Y015114D01*
X031917Y015102D01*
X031922Y015090D01*
X031925Y015078D01*
X031931Y015055D01*
X031933Y015044D01*
X031935Y015034D01*
X031936Y015026D01*
X031936Y015017D01*
X031937Y015011D01*
Y015007D01*
Y015003D01*
Y015002D01*
X031936Y014986D01*
X031935Y014971D01*
X031933Y014956D01*
X031930Y014943D01*
X031926Y014931D01*
X031922Y014919D01*
X031918Y014909D01*
X031914Y014899D01*
X031909Y014891D01*
X031905Y014884D01*
X031901Y014878D01*
X031898Y014873D01*
X031895Y014869D01*
X031893Y014866D01*
X031891Y014864D01*
X031890Y014864D01*
X031881Y014855D01*
X031871Y014848D01*
X031861Y014841D01*
X031850Y014835D01*
X031840Y014831D01*
X031829Y014826D01*
X031809Y014821D01*
X031799Y014819D01*
X031790Y014818D01*
X031782Y014816D01*
X031776Y014816D01*
X031771Y014815D01*
X031763D01*
X031740Y014816D01*
X031720Y014820D01*
X031702Y014824D01*
X031694Y014827D01*
X031687Y014830D01*
X031680Y014833D01*
X031675Y014836D01*
X031670Y014838D01*
X031666Y014840D01*
X031663Y014843D01*
X031661Y014844D01*
X031659Y014845D01*
X031658D01*
X031644Y014859D01*
X031632Y014872D01*
X031622Y014887D01*
X031615Y014901D01*
X031609Y014913D01*
X031607Y014919D01*
X031605Y014923D01*
X031603Y014928D01*
X031602Y014931D01*
X031602Y014932D01*
Y014933D01*
X031666Y014941D01*
X031672Y014927D01*
X031678Y014915D01*
X031685Y014905D01*
X031691Y014897D01*
X031696Y014891D01*
X031700Y014887D01*
X031704Y014884D01*
X031704Y014883D01*
X031714Y014878D01*
X031723Y014873D01*
X031734Y014870D01*
X031742Y014868D01*
X031750Y014867D01*
X031757Y014866D01*
X031763D01*
X031771Y014867D01*
X031780Y014867D01*
X031794Y014871D01*
X031807Y014876D01*
X031819Y014882D01*
X031828Y014887D01*
X031834Y014892D01*
X031839Y014896D01*
X031839Y014897D01*
X031840D01*
X031850Y014910D01*
X031858Y014925D01*
X031864Y014941D01*
X031868Y014956D01*
X031871Y014969D01*
X031872Y014974D01*
X031873Y014980D01*
Y014984D01*
X031874Y014987D01*
Y014989D01*
Y014990D01*
X031600D01*
X031599Y014997D01*
Y015002D01*
Y015005D01*
Y015006D01*
X031600Y015023D01*
X031602Y015038D01*
X031604Y015052D01*
X031607Y015066D01*
X031610Y015079D01*
X031614Y015090D01*
X031618Y015101D01*
X031623Y015110D01*
X031627Y015119D01*
X031632Y015126D01*
X031635Y015132D01*
X031639Y015137D01*
X031642Y015141D01*
X031644Y015144D01*
X031645Y015146D01*
X031646Y015147D01*
X031655Y015155D01*
X031664Y015163D01*
X031675Y015170D01*
X031685Y015176D01*
X031695Y015181D01*
X031704Y015184D01*
X031715Y015188D01*
X031723Y015190D01*
X031733Y015192D01*
X031741Y015194D01*
X031748Y015195D01*
X031754Y015196D01*
X031759Y015197D01*
X031766D01*
X031780Y015196D01*
D02*
G37*
G36*
X030133D02*
X030147Y015195D01*
X030159Y015192D01*
X030171Y015189D01*
X030182Y015185D01*
X030192Y015181D01*
X030201Y015176D01*
X030209Y015171D01*
X030217Y015167D01*
X030224Y015162D01*
X030230Y015157D01*
X030234Y015154D01*
X030238Y015150D01*
X030241Y015148D01*
X030242Y015147D01*
X030243Y015146D01*
X030251Y015136D01*
X030258Y015125D01*
X030265Y015114D01*
X030270Y015102D01*
X030275Y015090D01*
X030278Y015078D01*
X030284Y015055D01*
X030287Y015044D01*
X030288Y015034D01*
X030289Y015026D01*
X030289Y015017D01*
X030290Y015011D01*
Y015007D01*
Y015003D01*
Y015002D01*
X030289Y014986D01*
X030288Y014971D01*
X030286Y014956D01*
X030283Y014943D01*
X030279Y014931D01*
X030276Y014919D01*
X030271Y014909D01*
X030267Y014899D01*
X030262Y014891D01*
X030258Y014884D01*
X030254Y014878D01*
X030251Y014873D01*
X030248Y014869D01*
X030246Y014866D01*
X030244Y014864D01*
X030244Y014864D01*
X030234Y014855D01*
X030225Y014848D01*
X030214Y014841D01*
X030203Y014835D01*
X030193Y014831D01*
X030182Y014826D01*
X030162Y014821D01*
X030152Y014819D01*
X030144Y014818D01*
X030136Y014816D01*
X030129Y014816D01*
X030124Y014815D01*
X030116D01*
X030093Y014816D01*
X030073Y014820D01*
X030055Y014824D01*
X030047Y014827D01*
X030040Y014830D01*
X030034Y014833D01*
X030028Y014836D01*
X030023Y014838D01*
X030019Y014840D01*
X030016Y014843D01*
X030014Y014844D01*
X030012Y014845D01*
X030012D01*
X029997Y014859D01*
X029985Y014872D01*
X029975Y014887D01*
X029968Y014901D01*
X029962Y014913D01*
X029960Y014919D01*
X029958Y014923D01*
X029956Y014928D01*
X029956Y014931D01*
X029955Y014932D01*
Y014933D01*
X030019Y014941D01*
X030025Y014927D01*
X030031Y014915D01*
X030038Y014905D01*
X030044Y014897D01*
X030049Y014891D01*
X030053Y014887D01*
X030057Y014884D01*
X030058Y014883D01*
X030067Y014878D01*
X030077Y014873D01*
X030087Y014870D01*
X030096Y014868D01*
X030104Y014867D01*
X030110Y014866D01*
X030116D01*
X030125Y014867D01*
X030133Y014867D01*
X030147Y014871D01*
X030160Y014876D01*
X030172Y014882D01*
X030181Y014887D01*
X030187Y014892D01*
X030192Y014896D01*
X030192Y014897D01*
X030193D01*
X030203Y014910D01*
X030211Y014925D01*
X030217Y014941D01*
X030222Y014956D01*
X030224Y014969D01*
X030225Y014974D01*
X030226Y014980D01*
Y014984D01*
X030227Y014987D01*
Y014989D01*
Y014990D01*
X029953D01*
X029953Y014997D01*
Y015002D01*
Y015005D01*
Y015006D01*
X029953Y015023D01*
X029955Y015038D01*
X029957Y015052D01*
X029960Y015066D01*
X029964Y015079D01*
X029967Y015090D01*
X029972Y015101D01*
X029976Y015110D01*
X029980Y015119D01*
X029985Y015126D01*
X029988Y015132D01*
X029992Y015137D01*
X029995Y015141D01*
X029997Y015144D01*
X029999Y015146D01*
X029999Y015147D01*
X030008Y015155D01*
X030018Y015163D01*
X030028Y015170D01*
X030038Y015176D01*
X030048Y015181D01*
X030058Y015184D01*
X030068Y015188D01*
X030077Y015190D01*
X030086Y015192D01*
X030094Y015194D01*
X030101Y015195D01*
X030107Y015196D01*
X030112Y015197D01*
X030120D01*
X030133Y015196D01*
D02*
G37*
G36*
X029878Y014823D02*
X029816D01*
Y015327D01*
X029878D01*
Y014823D01*
D02*
G37*
G36*
X032170Y015195D02*
X032178Y015195D01*
X032186Y015193D01*
X032193Y015192D01*
X032198Y015190D01*
X032201Y015190D01*
X032202Y015189D01*
X032211Y015186D01*
X032219Y015183D01*
X032226Y015180D01*
X032231Y015177D01*
X032236Y015175D01*
X032239Y015173D01*
X032241Y015172D01*
X032242Y015171D01*
X032249Y015166D01*
X032255Y015160D01*
X032260Y015154D01*
X032264Y015149D01*
X032268Y015144D01*
X032270Y015140D01*
X032272Y015137D01*
X032272Y015136D01*
X032276Y015128D01*
X032279Y015121D01*
X032280Y015113D01*
X032282Y015106D01*
X032283Y015100D01*
X032283Y015095D01*
Y015093D01*
Y015091D01*
X032283Y015081D01*
X032281Y015072D01*
X032279Y015063D01*
X032277Y015056D01*
X032274Y015050D01*
X032272Y015045D01*
X032271Y015042D01*
X032270Y015042D01*
X032264Y015034D01*
X032258Y015027D01*
X032251Y015021D01*
X032245Y015016D01*
X032239Y015012D01*
X032234Y015009D01*
X032231Y015008D01*
X032230Y015007D01*
X032225Y015005D01*
X032218Y015002D01*
X032204Y014997D01*
X032188Y014993D01*
X032172Y014988D01*
X032159Y014984D01*
X032152Y014982D01*
X032146Y014980D01*
X032142Y014979D01*
X032138Y014978D01*
X032136Y014977D01*
X032135D01*
X032126Y014975D01*
X032118Y014973D01*
X032110Y014971D01*
X032104Y014969D01*
X032098Y014967D01*
X032093Y014965D01*
X032084Y014962D01*
X032078Y014960D01*
X032075Y014958D01*
X032073Y014957D01*
X032072Y014956D01*
X032065Y014952D01*
X032061Y014946D01*
X032057Y014941D01*
X032055Y014936D01*
X032054Y014931D01*
X032053Y014927D01*
Y014924D01*
Y014923D01*
X032054Y014915D01*
X032056Y014907D01*
X032059Y014900D01*
X032063Y014894D01*
X032067Y014889D01*
X032070Y014886D01*
X032073Y014883D01*
X032074Y014883D01*
X032083Y014877D01*
X032092Y014873D01*
X032103Y014870D01*
X032113Y014868D01*
X032123Y014867D01*
X032130Y014866D01*
X032137D01*
X032153Y014867D01*
X032166Y014869D01*
X032177Y014872D01*
X032186Y014875D01*
X032194Y014879D01*
X032199Y014882D01*
X032202Y014884D01*
X032204Y014885D01*
X032212Y014893D01*
X032218Y014902D01*
X032223Y014912D01*
X032226Y014921D01*
X032229Y014929D01*
X032231Y014936D01*
X032232Y014940D01*
Y014941D01*
Y014942D01*
X032293Y014932D01*
X032288Y014912D01*
X032282Y014894D01*
X032274Y014879D01*
X032266Y014867D01*
X032258Y014856D01*
X032252Y014850D01*
X032248Y014845D01*
X032247Y014845D01*
X032246Y014844D01*
X032239Y014839D01*
X032231Y014835D01*
X032213Y014827D01*
X032195Y014822D01*
X032178Y014818D01*
X032170Y014817D01*
X032162Y014816D01*
X032155Y014816D01*
X032149D01*
X032144Y014815D01*
X032137D01*
X032121Y014816D01*
X032108Y014817D01*
X032094Y014819D01*
X032083Y014822D01*
X032073Y014825D01*
X032066Y014827D01*
X032062Y014829D01*
X032061Y014829D01*
X032060D01*
X032048Y014836D01*
X032038Y014843D01*
X032029Y014850D01*
X032021Y014856D01*
X032015Y014862D01*
X032011Y014867D01*
X032008Y014870D01*
X032008Y014872D01*
X032002Y014882D01*
X031997Y014893D01*
X031994Y014902D01*
X031992Y014911D01*
X031990Y014919D01*
X031989Y014925D01*
Y014929D01*
Y014930D01*
X031990Y014942D01*
X031992Y014952D01*
X031995Y014961D01*
X031997Y014969D01*
X032000Y014975D01*
X032003Y014980D01*
X032004Y014982D01*
X032005Y014983D01*
X032011Y014991D01*
X032017Y014997D01*
X032024Y015003D01*
X032030Y015007D01*
X032037Y015011D01*
X032041Y015013D01*
X032044Y015015D01*
X032046Y015015D01*
X032051Y015017D01*
X032057Y015020D01*
X032070Y015025D01*
X032086Y015030D01*
X032101Y015034D01*
X032115Y015039D01*
X032121Y015040D01*
X032127Y015042D01*
X032131Y015043D01*
X032135Y015044D01*
X032137Y015044D01*
X032137D01*
X032145Y015047D01*
X032153Y015049D01*
X032159Y015050D01*
X032165Y015052D01*
X032175Y015055D01*
X032182Y015057D01*
X032187Y015059D01*
X032190Y015060D01*
X032191Y015060D01*
X032192D01*
X032198Y015063D01*
X032203Y015066D01*
X032207Y015069D01*
X032210Y015071D01*
X032213Y015073D01*
X032215Y015075D01*
X032215Y015076D01*
X032216Y015077D01*
X032221Y015084D01*
X032223Y015091D01*
Y015094D01*
X032223Y015096D01*
Y015098D01*
Y015098D01*
X032223Y015105D01*
X032221Y015112D01*
X032218Y015117D01*
X032214Y015122D01*
X032211Y015126D01*
X032208Y015129D01*
X032206Y015130D01*
X032205Y015131D01*
X032197Y015136D01*
X032188Y015140D01*
X032178Y015142D01*
X032168Y015144D01*
X032159Y015145D01*
X032151Y015146D01*
X032144D01*
X032132Y015145D01*
X032120Y015144D01*
X032110Y015141D01*
X032103Y015138D01*
X032097Y015135D01*
X032092Y015132D01*
X032089Y015130D01*
X032089Y015130D01*
X032081Y015123D01*
X032076Y015116D01*
X032072Y015109D01*
X032068Y015102D01*
X032066Y015095D01*
X032065Y015090D01*
X032064Y015087D01*
Y015086D01*
X032003Y015094D01*
X032006Y015106D01*
X032009Y015117D01*
X032013Y015127D01*
X032016Y015136D01*
X032020Y015141D01*
X032023Y015147D01*
X032024Y015149D01*
X032025Y015150D01*
X032032Y015157D01*
X032039Y015164D01*
X032047Y015170D01*
X032055Y015175D01*
X032062Y015179D01*
X032068Y015181D01*
X032072Y015183D01*
X032073Y015184D01*
X032073D01*
X032086Y015188D01*
X032099Y015191D01*
X032111Y015194D01*
X032123Y015195D01*
X032134Y015196D01*
X032142Y015197D01*
X032159D01*
X032170Y015195D01*
D02*
G37*
G36*
X031516Y014823D02*
X031449D01*
Y015028D01*
X031320D01*
X031301Y015028D01*
X031282Y015030D01*
X031266Y015032D01*
X031252Y015035D01*
X031238Y015038D01*
X031226Y015042D01*
X031215Y015046D01*
X031206Y015050D01*
X031198Y015054D01*
X031190Y015058D01*
X031185Y015062D01*
X031180Y015066D01*
X031177Y015068D01*
X031174Y015070D01*
X031173Y015071D01*
X031172Y015072D01*
X031165Y015081D01*
X031158Y015090D01*
X031153Y015098D01*
X031148Y015108D01*
X031144Y015117D01*
X031141Y015126D01*
X031136Y015143D01*
X031134Y015151D01*
X031133Y015158D01*
X031132Y015165D01*
X031131Y015170D01*
X031131Y015175D01*
Y015178D01*
Y015180D01*
Y015181D01*
X031131Y015195D01*
X031133Y015208D01*
X031136Y015219D01*
X031138Y015230D01*
X031141Y015238D01*
X031144Y015245D01*
X031145Y015249D01*
X031146Y015250D01*
X031152Y015261D01*
X031159Y015270D01*
X031166Y015279D01*
X031172Y015286D01*
X031178Y015291D01*
X031182Y015295D01*
X031185Y015297D01*
X031187Y015298D01*
X031196Y015304D01*
X031207Y015309D01*
X031217Y015313D01*
X031227Y015317D01*
X031236Y015319D01*
X031242Y015321D01*
X031247Y015322D01*
X031249D01*
X031260Y015324D01*
X031272Y015325D01*
X031285Y015326D01*
X031298Y015327D01*
X031309Y015327D01*
X031516D01*
Y014823D01*
D02*
G37*
G36*
X030504Y015196D02*
X030517Y015194D01*
X030529Y015191D01*
X030540Y015187D01*
X030550Y015183D01*
X030560Y015178D01*
X030569Y015172D01*
X030576Y015167D01*
X030583Y015161D01*
X030589Y015155D01*
X030594Y015150D01*
X030599Y015146D01*
X030601Y015142D01*
X030604Y015139D01*
X030605Y015137D01*
X030606Y015136D01*
Y015189D01*
X030661D01*
Y014823D01*
X030599D01*
Y015022D01*
Y015034D01*
X030598Y015047D01*
X030596Y015057D01*
X030595Y015066D01*
X030593Y015075D01*
X030591Y015083D01*
X030588Y015090D01*
X030585Y015096D01*
X030582Y015101D01*
X030580Y015106D01*
X030577Y015109D01*
X030575Y015112D01*
X030572Y015116D01*
X030571Y015117D01*
X030560Y015126D01*
X030548Y015132D01*
X030537Y015136D01*
X030526Y015140D01*
X030517Y015141D01*
X030510Y015142D01*
X030507Y015143D01*
X030503D01*
X030494Y015142D01*
X030486Y015141D01*
X030478Y015139D01*
X030472Y015137D01*
X030467Y015135D01*
X030463Y015133D01*
X030461Y015132D01*
X030460Y015131D01*
X030453Y015127D01*
X030448Y015122D01*
X030443Y015117D01*
X030440Y015112D01*
X030437Y015108D01*
X030435Y015104D01*
X030434Y015102D01*
Y015101D01*
X030432Y015093D01*
X030429Y015085D01*
X030428Y015075D01*
X030427Y015066D01*
X030426Y015058D01*
Y015051D01*
Y015046D01*
Y015045D01*
Y015044D01*
Y014823D01*
X030365D01*
Y015047D01*
Y015063D01*
X030365Y015075D01*
X030366Y015085D01*
Y015094D01*
X030367Y015100D01*
X030367Y015104D01*
X030368Y015107D01*
Y015108D01*
X030370Y015117D01*
X030374Y015126D01*
X030377Y015133D01*
X030380Y015141D01*
X030383Y015146D01*
X030386Y015149D01*
X030387Y015152D01*
X030388Y015153D01*
X030394Y015160D01*
X030400Y015166D01*
X030407Y015172D01*
X030414Y015176D01*
X030420Y015180D01*
X030425Y015182D01*
X030428Y015184D01*
X030429Y015184D01*
X030440Y015189D01*
X030451Y015192D01*
X030461Y015194D01*
X030470Y015195D01*
X030478Y015196D01*
X030484Y015197D01*
X030490D01*
X030504Y015196D01*
D02*
G37*
G36*
X033114D02*
X033127Y015195D01*
X033139Y015192D01*
X033151Y015189D01*
X033162Y015185D01*
X033172Y015181D01*
X033181Y015176D01*
X033189Y015171D01*
X033197Y015167D01*
X033204Y015162D01*
X033210Y015157D01*
X033214Y015154D01*
X033218Y015150D01*
X033221Y015148D01*
X033222Y015147D01*
X033223Y015146D01*
X033231Y015136D01*
X033238Y015125D01*
X033245Y015114D01*
X033251Y015102D01*
X033255Y015090D01*
X033259Y015078D01*
X033264Y015055D01*
X033267Y015044D01*
X033268Y015034D01*
X033269Y015026D01*
X033270Y015017D01*
X033270Y015011D01*
Y015007D01*
Y015003D01*
Y015002D01*
X033270Y014986D01*
X033268Y014971D01*
X033266Y014956D01*
X033263Y014943D01*
X033259Y014931D01*
X033256Y014919D01*
X033251Y014909D01*
X033247Y014899D01*
X033243Y014891D01*
X033238Y014884D01*
X033235Y014878D01*
X033231Y014873D01*
X033228Y014869D01*
X033226Y014866D01*
X033224Y014864D01*
X033224Y014864D01*
X033214Y014855D01*
X033205Y014848D01*
X033194Y014841D01*
X033184Y014835D01*
X033173Y014831D01*
X033162Y014826D01*
X033142Y014821D01*
X033133Y014819D01*
X033124Y014818D01*
X033116Y014816D01*
X033109Y014816D01*
X033104Y014815D01*
X033096D01*
X033073Y014816D01*
X033053Y014820D01*
X033035Y014824D01*
X033028Y014827D01*
X033020Y014830D01*
X033014Y014833D01*
X033008Y014836D01*
X033003Y014838D01*
X032999Y014840D01*
X032996Y014843D01*
X032994Y014844D01*
X032993Y014845D01*
X032992D01*
X032977Y014859D01*
X032966Y014872D01*
X032955Y014887D01*
X032948Y014901D01*
X032942Y014913D01*
X032940Y014919D01*
X032938Y014923D01*
X032936Y014928D01*
X032936Y014931D01*
X032935Y014932D01*
Y014933D01*
X032999Y014941D01*
X033005Y014927D01*
X033012Y014915D01*
X033018Y014905D01*
X033024Y014897D01*
X033029Y014891D01*
X033033Y014887D01*
X033037Y014884D01*
X033038Y014883D01*
X033047Y014878D01*
X033057Y014873D01*
X033067Y014870D01*
X033076Y014868D01*
X033084Y014867D01*
X033090Y014866D01*
X033096D01*
X033105Y014867D01*
X033113Y014867D01*
X033127Y014871D01*
X033141Y014876D01*
X033152Y014882D01*
X033161Y014887D01*
X033168Y014892D01*
X033172Y014896D01*
X033173Y014897D01*
X033173D01*
X033184Y014910D01*
X033192Y014925D01*
X033197Y014941D01*
X033202Y014956D01*
X033204Y014969D01*
X033205Y014974D01*
X033206Y014980D01*
Y014984D01*
X033207Y014987D01*
Y014989D01*
Y014990D01*
X032934D01*
X032933Y014997D01*
Y015002D01*
Y015005D01*
Y015006D01*
X032934Y015023D01*
X032935Y015038D01*
X032937Y015052D01*
X032940Y015066D01*
X032944Y015079D01*
X032947Y015090D01*
X032952Y015101D01*
X032956Y015110D01*
X032960Y015119D01*
X032965Y015126D01*
X032969Y015132D01*
X032972Y015137D01*
X032975Y015141D01*
X032977Y015144D01*
X032979Y015146D01*
X032979Y015147D01*
X032988Y015155D01*
X032998Y015163D01*
X033008Y015170D01*
X033018Y015176D01*
X033028Y015181D01*
X033038Y015184D01*
X033048Y015188D01*
X033057Y015190D01*
X033066Y015192D01*
X033074Y015194D01*
X033082Y015195D01*
X033087Y015196D01*
X033092Y015197D01*
X033100D01*
X033114Y015196D01*
D02*
G37*
G36*
X030916D02*
X030932Y015195D01*
X030946Y015192D01*
X030958Y015190D01*
X030968Y015188D01*
X030975Y015186D01*
X030978Y015185D01*
X030981Y015184D01*
X030981Y015184D01*
X030982D01*
X030994Y015179D01*
X031005Y015172D01*
X031015Y015166D01*
X031023Y015160D01*
X031029Y015155D01*
X031033Y015150D01*
X031036Y015147D01*
X031037Y015147D01*
X031043Y015137D01*
X031049Y015127D01*
X031053Y015117D01*
X031057Y015107D01*
X031060Y015098D01*
X031062Y015091D01*
X031063Y015088D01*
Y015086D01*
X031064Y015085D01*
Y015085D01*
X031003Y015077D01*
X030999Y015090D01*
X030994Y015101D01*
X030989Y015111D01*
X030985Y015118D01*
X030981Y015124D01*
X030977Y015128D01*
X030974Y015130D01*
X030973Y015130D01*
X030964Y015136D01*
X030954Y015139D01*
X030943Y015142D01*
X030933Y015144D01*
X030923Y015145D01*
X030916Y015146D01*
X030908D01*
X030892Y015145D01*
X030877Y015143D01*
X030865Y015139D01*
X030855Y015136D01*
X030848Y015131D01*
X030842Y015128D01*
X030838Y015125D01*
X030838Y015125D01*
X030832Y015118D01*
X030827Y015110D01*
X030824Y015101D01*
X030822Y015093D01*
X030820Y015085D01*
X030819Y015077D01*
Y015073D01*
Y015072D01*
Y015071D01*
Y015070D01*
Y015067D01*
Y015062D01*
X030820Y015058D01*
Y015056D01*
Y015055D01*
X030827Y015053D01*
X030835Y015051D01*
X030852Y015047D01*
X030871Y015043D01*
X030889Y015039D01*
X030897Y015038D01*
X030905Y015037D01*
X030913Y015036D01*
X030919Y015035D01*
X030924Y015034D01*
X030927D01*
X030930Y015034D01*
X030931D01*
X030944Y015032D01*
X030955Y015030D01*
X030964Y015028D01*
X030972Y015027D01*
X030978Y015026D01*
X030982Y015025D01*
X030985Y015024D01*
X030986D01*
X030995Y015021D01*
X031003Y015018D01*
X031011Y015015D01*
X031018Y015012D01*
X031024Y015009D01*
X031027Y015006D01*
X031030Y015004D01*
X031031Y015004D01*
X031038Y014999D01*
X031044Y014993D01*
X031050Y014987D01*
X031054Y014981D01*
X031058Y014976D01*
X031061Y014972D01*
X031062Y014969D01*
X031063Y014968D01*
X031067Y014960D01*
X031069Y014951D01*
X031072Y014943D01*
X031073Y014935D01*
X031074Y014929D01*
X031075Y014923D01*
Y014921D01*
Y014919D01*
X031074Y014910D01*
X031073Y014903D01*
X031069Y014888D01*
X031064Y014875D01*
X031059Y014864D01*
X031053Y014856D01*
X031048Y014849D01*
X031044Y014845D01*
X031042Y014844D01*
X031029Y014835D01*
X031015Y014827D01*
X030999Y014822D01*
X030984Y014818D01*
X030971Y014816D01*
X030965Y014816D01*
X030960D01*
X030956Y014815D01*
X030950D01*
X030937Y014816D01*
X030924Y014817D01*
X030912Y014818D01*
X030902Y014821D01*
X030894Y014823D01*
X030887Y014825D01*
X030883Y014826D01*
X030881Y014826D01*
X030869Y014832D01*
X030857Y014838D01*
X030846Y014845D01*
X030835Y014852D01*
X030827Y014859D01*
X030820Y014864D01*
X030816Y014867D01*
X030815Y014869D01*
X030814D01*
X030813Y014859D01*
X030811Y014851D01*
X030810Y014843D01*
X030808Y014836D01*
X030806Y014830D01*
X030804Y014826D01*
X030803Y014824D01*
X030803Y014823D01*
X030738D01*
X030741Y014831D01*
X030745Y014839D01*
X030748Y014846D01*
X030749Y014853D01*
X030752Y014859D01*
X030752Y014863D01*
X030753Y014866D01*
Y014867D01*
X030754Y014872D01*
X030755Y014878D01*
Y014886D01*
X030755Y014894D01*
X030756Y014912D01*
Y014930D01*
X030757Y014947D01*
Y014956D01*
Y014962D01*
Y014968D01*
Y014972D01*
Y014975D01*
Y014976D01*
Y015059D01*
Y015073D01*
X030757Y015085D01*
X030758Y015095D01*
Y015103D01*
X030759Y015109D01*
X030760Y015113D01*
X030760Y015115D01*
Y015116D01*
X030763Y015125D01*
X030765Y015133D01*
X030768Y015140D01*
X030772Y015147D01*
X030775Y015151D01*
X030777Y015155D01*
X030779Y015157D01*
X030779Y015157D01*
X030785Y015163D01*
X030792Y015169D01*
X030799Y015173D01*
X030806Y015178D01*
X030813Y015181D01*
X030818Y015183D01*
X030822Y015184D01*
X030823Y015185D01*
X030835Y015189D01*
X030847Y015192D01*
X030860Y015194D01*
X030872Y015195D01*
X030883Y015196D01*
X030891Y015197D01*
X030899D01*
X030916Y015196D01*
D02*
G37*
G36*
X024245Y036289D02*
X039685D01*
Y036796D01*
X041009Y035472D01*
X039685Y034149D01*
Y034699D01*
X024245D01*
Y034181D01*
X023726Y034699D01*
X023695D01*
Y034730D01*
X022921Y035504D01*
X023695Y036279D01*
Y036289D01*
X023705D01*
X024245Y036828D01*
Y036289D01*
D02*
G37*
G36*
X032662Y014962D02*
Y014948D01*
X032662Y014936D01*
X032661Y014926D01*
X032660Y014918D01*
Y014912D01*
X032659Y014907D01*
X032659Y014904D01*
Y014904D01*
X032657Y014894D01*
X032654Y014886D01*
X032651Y014878D01*
X032647Y014871D01*
X032644Y014865D01*
X032642Y014861D01*
X032640Y014859D01*
X032640Y014858D01*
X032634Y014851D01*
X032627Y014845D01*
X032621Y014840D01*
X032613Y014836D01*
X032608Y014832D01*
X032603Y014829D01*
X032600Y014828D01*
X032598Y014827D01*
X032587Y014823D01*
X032577Y014820D01*
X032567Y014818D01*
X032557Y014816D01*
X032549Y014816D01*
X032543Y014815D01*
X032538D01*
X032525Y014816D01*
X032511Y014818D01*
X032500Y014821D01*
X032488Y014824D01*
X032478Y014829D01*
X032468Y014835D01*
X032460Y014840D01*
X032452Y014845D01*
X032444Y014851D01*
X032439Y014856D01*
X032433Y014862D01*
X032429Y014867D01*
X032425Y014870D01*
X032423Y014873D01*
X032422Y014875D01*
X032421Y014876D01*
Y014823D01*
X032366D01*
Y015189D01*
X032428D01*
Y014993D01*
X032428Y014976D01*
X032429Y014961D01*
X032431Y014949D01*
X032433Y014939D01*
X032435Y014931D01*
X032436Y014925D01*
X032437Y014922D01*
X032438Y014921D01*
X032442Y014912D01*
X032447Y014904D01*
X032453Y014898D01*
X032459Y014892D01*
X032464Y014888D01*
X032468Y014885D01*
X032471Y014883D01*
X032473Y014882D01*
X032482Y014878D01*
X032492Y014874D01*
X032500Y014872D01*
X032509Y014869D01*
X032515Y014869D01*
X032520Y014868D01*
X032525D01*
X032535Y014869D01*
X032544Y014870D01*
X032552Y014872D01*
X032559Y014875D01*
X032565Y014878D01*
X032568Y014880D01*
X032571Y014881D01*
X032572Y014882D01*
X032578Y014888D01*
X032584Y014894D01*
X032588Y014900D01*
X032592Y014906D01*
X032594Y014912D01*
X032595Y014916D01*
X032597Y014919D01*
Y014920D01*
X032598Y014928D01*
X032599Y014937D01*
X032600Y014948D01*
Y014959D01*
X032600Y014969D01*
Y014977D01*
Y014981D01*
Y014983D01*
Y014985D01*
Y014985D01*
Y015189D01*
X032662D01*
Y014962D01*
D02*
G37*
G36*
X032838Y013688D02*
X033852D01*
Y012799D01*
X029916D01*
Y013688D01*
X030924D01*
Y014594D01*
X032838D01*
Y013688D01*
D02*
G37*
%LPC*%
G36*
X033103Y015146D02*
X033099D01*
X033090Y015145D01*
X033082Y015144D01*
X033067Y015140D01*
X033054Y015134D01*
X033043Y015128D01*
X033034Y015121D01*
X033028Y015115D01*
X033024Y015111D01*
X033022Y015110D01*
Y015109D01*
X033016Y015100D01*
X033010Y015089D01*
X033006Y015078D01*
X033003Y015066D01*
X033001Y015057D01*
X032999Y015048D01*
Y015045D01*
X032998Y015043D01*
Y015042D01*
Y015041D01*
X033203D01*
X033201Y015058D01*
X033197Y015073D01*
X033192Y015086D01*
X033186Y015096D01*
X033181Y015105D01*
X033176Y015112D01*
X033173Y015115D01*
X033171Y015117D01*
X033160Y015126D01*
X033148Y015133D01*
X033135Y015138D01*
X033124Y015142D01*
X033114Y015144D01*
X033106Y015145D01*
X033103Y015146D01*
D02*
G37*
G36*
X030820Y015007D02*
X030819D01*
X030820Y014983D01*
X030821Y014969D01*
X030822Y014956D01*
X030823Y014946D01*
X030825Y014937D01*
X030827Y014931D01*
X030829Y014926D01*
X030830Y014923D01*
X030830Y014922D01*
X030836Y014913D01*
X030842Y014904D01*
X030849Y014896D01*
X030856Y014891D01*
X030862Y014886D01*
X030867Y014882D01*
X030870Y014880D01*
X030871Y014879D01*
X030882Y014874D01*
X030893Y014870D01*
X030903Y014867D01*
X030913Y014866D01*
X030921Y014864D01*
X030929Y014864D01*
X030935D01*
X030948Y014864D01*
X030959Y014866D01*
X030968Y014869D01*
X030976Y014872D01*
X030982Y014875D01*
X030986Y014878D01*
X030989Y014879D01*
X030990Y014880D01*
X030996Y014886D01*
X031000Y014894D01*
X031004Y014900D01*
X031006Y014907D01*
X031007Y014913D01*
X031008Y014917D01*
Y014921D01*
Y014921D01*
X031007Y014927D01*
X031007Y014933D01*
X031005Y014937D01*
X031004Y014942D01*
X031002Y014945D01*
X031002Y014948D01*
X031000Y014950D01*
Y014950D01*
X030993Y014959D01*
X030984Y014965D01*
X030981Y014967D01*
X030978Y014969D01*
X030976Y014970D01*
X030975D01*
X030968Y014973D01*
X030960Y014975D01*
X030951Y014977D01*
X030943Y014979D01*
X030935Y014980D01*
X030927Y014982D01*
X030923Y014982D01*
X030921D01*
X030909Y014985D01*
X030897Y014986D01*
X030887Y014988D01*
X030877Y014991D01*
X030868Y014993D01*
X030860Y014995D01*
X030852Y014996D01*
X030845Y014999D01*
X030839Y015000D01*
X030834Y015001D01*
X030830Y015003D01*
X030826Y015004D01*
X030823Y015005D01*
X030821Y015006D01*
X030820Y015007D01*
D02*
G37*
G36*
X033683Y015268D02*
X033566D01*
X033557Y015267D01*
X033547D01*
X033539Y015266D01*
X033524Y015264D01*
X033512Y015262D01*
X033503Y015260D01*
X033496Y015258D01*
X033493Y015257D01*
X033491Y015257D01*
X033478Y015250D01*
X033466Y015242D01*
X033455Y015233D01*
X033445Y015223D01*
X033438Y015214D01*
X033432Y015207D01*
X033431Y015204D01*
X033429Y015202D01*
X033428Y015200D01*
Y015200D01*
X033423Y015192D01*
X033419Y015182D01*
X033412Y015163D01*
X033408Y015143D01*
X033404Y015123D01*
X033404Y015114D01*
X033403Y015106D01*
X033402Y015098D01*
Y015092D01*
X033402Y015086D01*
Y015082D01*
Y015079D01*
Y015079D01*
X033402Y015058D01*
X033404Y015039D01*
X033406Y015023D01*
X033408Y015008D01*
X033410Y015002D01*
X033411Y014997D01*
X033412Y014992D01*
X033413Y014988D01*
X033414Y014985D01*
X033415Y014983D01*
X033415Y014982D01*
Y014981D01*
X033420Y014967D01*
X033426Y014955D01*
X033433Y014944D01*
X033439Y014934D01*
X033444Y014927D01*
X033448Y014922D01*
X033451Y014919D01*
X033452Y014918D01*
X033459Y014912D01*
X033466Y014907D01*
X033474Y014902D01*
X033481Y014898D01*
X033488Y014895D01*
X033493Y014893D01*
X033496Y014892D01*
X033498Y014891D01*
X033509Y014888D01*
X033522Y014886D01*
X033535Y014885D01*
X033547Y014884D01*
X033558Y014883D01*
X033563Y014883D01*
X033683D01*
Y015268D01*
D02*
G37*
G36*
X031770Y015146D02*
X031766D01*
X031757Y015145D01*
X031749Y015144D01*
X031734Y015140D01*
X031720Y015134D01*
X031710Y015128D01*
X031701Y015121D01*
X031694Y015115D01*
X031691Y015111D01*
X031689Y015110D01*
Y015109D01*
X031683Y015100D01*
X031677Y015089D01*
X031673Y015078D01*
X031669Y015066D01*
X031667Y015057D01*
X031666Y015048D01*
Y015045D01*
X031665Y015043D01*
Y015042D01*
Y015041D01*
X031870D01*
X031868Y015058D01*
X031863Y015073D01*
X031858Y015086D01*
X031852Y015096D01*
X031847Y015105D01*
X031842Y015112D01*
X031839Y015115D01*
X031838Y015117D01*
X031826Y015126D01*
X031814Y015133D01*
X031802Y015138D01*
X031790Y015142D01*
X031781Y015144D01*
X031773Y015145D01*
X031770Y015146D01*
D02*
G37*
G36*
X030123D02*
X030119D01*
X030110Y015145D01*
X030102Y015144D01*
X030087Y015140D01*
X030074Y015134D01*
X030063Y015128D01*
X030054Y015121D01*
X030047Y015115D01*
X030044Y015111D01*
X030042Y015110D01*
Y015109D01*
X030036Y015100D01*
X030030Y015089D01*
X030026Y015078D01*
X030023Y015066D01*
X030020Y015057D01*
X030019Y015048D01*
Y015045D01*
X030018Y015043D01*
Y015042D01*
Y015041D01*
X030223D01*
X030221Y015058D01*
X030217Y015073D01*
X030211Y015086D01*
X030206Y015096D01*
X030201Y015105D01*
X030195Y015112D01*
X030192Y015115D01*
X030191Y015117D01*
X030179Y015126D01*
X030168Y015133D01*
X030155Y015138D01*
X030144Y015142D01*
X030134Y015144D01*
X030126Y015145D01*
X030123Y015146D01*
D02*
G37*
G36*
X032008Y014394D02*
X031990D01*
X031982Y014394D01*
X031972Y014392D01*
X031961Y014390D01*
X031947Y014386D01*
X031934Y014382D01*
X031921Y014376D01*
X031920D01*
X031920Y014375D01*
X031915Y014373D01*
X031909Y014369D01*
X031902Y014364D01*
X031893Y014357D01*
X031884Y014349D01*
X031875Y014339D01*
X031868Y014328D01*
X031867Y014327D01*
X031865Y014323D01*
X031862Y014316D01*
X031858Y014308D01*
X031855Y014299D01*
X031852Y014288D01*
X031850Y014276D01*
X031849Y014263D01*
Y014262D01*
Y014257D01*
X031850Y014252D01*
X031851Y014244D01*
X031853Y014234D01*
X031857Y014224D01*
X031861Y014214D01*
X031867Y014203D01*
X031868Y014202D01*
X031870Y014199D01*
X031875Y014194D01*
X031880Y014188D01*
X031888Y014182D01*
X031896Y014174D01*
X031907Y014168D01*
X031919Y014161D01*
X031918D01*
X031917Y014160D01*
X031915Y014160D01*
X031912Y014159D01*
X031904Y014156D01*
X031893Y014152D01*
X031882Y014146D01*
X031870Y014139D01*
X031859Y014129D01*
X031849Y014118D01*
X031848Y014117D01*
X031845Y014112D01*
X031841Y014105D01*
X031837Y014096D01*
X031832Y014084D01*
X031828Y014070D01*
X031825Y014054D01*
X031824Y014037D01*
Y014036D01*
Y014034D01*
Y014030D01*
X031825Y014026D01*
X031826Y014020D01*
X031827Y014013D01*
X031829Y014006D01*
X031830Y013998D01*
X031836Y013980D01*
X031840Y013971D01*
X031845Y013962D01*
X031850Y013953D01*
X031857Y013943D01*
X031864Y013934D01*
X031873Y013925D01*
X031874Y013924D01*
X031875Y013923D01*
X031878Y013921D01*
X031882Y013918D01*
X031886Y013914D01*
X031892Y013910D01*
X031899Y013906D01*
X031907Y013902D01*
X031915Y013898D01*
X031924Y013894D01*
X031934Y013890D01*
X031945Y013886D01*
X031956Y013883D01*
X031969Y013881D01*
X031981Y013880D01*
X031995Y013879D01*
X032001D01*
X032006Y013880D01*
X032012Y013881D01*
X032018Y013881D01*
X032025Y013883D01*
X032033Y013884D01*
X032051Y013889D01*
X032069Y013896D01*
X032079Y013900D01*
X032087Y013905D01*
X032096Y013912D01*
X032105Y013918D01*
X032106Y013919D01*
X032107Y013921D01*
X032109Y013923D01*
X032111Y013926D01*
X032115Y013929D01*
X032119Y013934D01*
X032123Y013940D01*
X032127Y013946D01*
X032132Y013953D01*
X032136Y013961D01*
X032144Y013978D01*
X032151Y013999D01*
X032153Y014010D01*
X032154Y014021D01*
X032092Y014029D01*
Y014028D01*
X032092Y014027D01*
X032091Y014024D01*
X032090Y014020D01*
X032090Y014016D01*
X032088Y014011D01*
X032084Y014000D01*
X032079Y013987D01*
X032073Y013975D01*
X032066Y013963D01*
X032057Y013953D01*
X032055Y013952D01*
X032052Y013949D01*
X032047Y013945D01*
X032039Y013942D01*
X032031Y013937D01*
X032020Y013934D01*
X032007Y013931D01*
X031994Y013930D01*
X031990D01*
X031987Y013931D01*
X031979Y013932D01*
X031969Y013934D01*
X031957Y013937D01*
X031945Y013942D01*
X031932Y013950D01*
X031920Y013960D01*
X031919Y013961D01*
X031915Y013966D01*
X031911Y013972D01*
X031905Y013981D01*
X031899Y013992D01*
X031895Y014004D01*
X031891Y014019D01*
X031890Y014035D01*
Y014036D01*
Y014037D01*
Y014039D01*
X031891Y014042D01*
X031891Y014050D01*
X031893Y014060D01*
X031896Y014072D01*
X031902Y014083D01*
X031909Y014095D01*
X031918Y014106D01*
X031920Y014107D01*
X031923Y014110D01*
X031929Y014115D01*
X031937Y014120D01*
X031947Y014125D01*
X031960Y014129D01*
X031974Y014132D01*
X031989Y014133D01*
X031996D01*
X032001Y014133D01*
X032007Y014132D01*
X032015Y014131D01*
X032023Y014129D01*
X032033Y014127D01*
X032025Y014182D01*
X032022D01*
X032019Y014181D01*
X032009D01*
X032001Y014182D01*
X031992Y014184D01*
X031981Y014186D01*
X031969Y014190D01*
X031957Y014195D01*
X031945Y014201D01*
X031944D01*
X031943Y014202D01*
X031939Y014205D01*
X031934Y014210D01*
X031928Y014217D01*
X031923Y014226D01*
X031918Y014237D01*
X031914Y014249D01*
X031912Y014257D01*
Y014265D01*
Y014265D01*
Y014266D01*
Y014271D01*
X031914Y014276D01*
X031915Y014284D01*
X031918Y014293D01*
X031922Y014303D01*
X031928Y014312D01*
X031936Y014321D01*
X031937Y014322D01*
X031940Y014324D01*
X031945Y014328D01*
X031952Y014332D01*
X031961Y014336D01*
X031971Y014340D01*
X031982Y014343D01*
X031996Y014343D01*
X032001D01*
X032008Y014342D01*
X032017Y014341D01*
X032026Y014338D01*
X032036Y014334D01*
X032046Y014328D01*
X032055Y014321D01*
X032056Y014320D01*
X032059Y014316D01*
X032063Y014311D01*
X032068Y014304D01*
X032074Y014295D01*
X032079Y014283D01*
X032083Y014269D01*
X032086Y014253D01*
X032148Y014264D01*
Y014265D01*
X032147Y014267D01*
X032146Y014270D01*
X032146Y014274D01*
X032144Y014279D01*
X032142Y014285D01*
X032138Y014299D01*
X032130Y014315D01*
X032122Y014331D01*
X032111Y014346D01*
X032097Y014360D01*
X032096Y014361D01*
X032095Y014362D01*
X032092Y014363D01*
X032090Y014365D01*
X032086Y014368D01*
X032081Y014371D01*
X032076Y014374D01*
X032069Y014378D01*
X032055Y014384D01*
X032038Y014389D01*
X032018Y014393D01*
X032008Y014394D01*
D02*
G37*
G36*
X032443Y013390D02*
X032438D01*
X032434Y013390D01*
X032428Y013389D01*
X032421Y013388D01*
X032413Y013387D01*
X032405Y013384D01*
X032397Y013381D01*
X032396Y013381D01*
X032394Y013379D01*
X032390Y013378D01*
X032386Y013375D01*
X032380Y013372D01*
X032376Y013367D01*
X032371Y013363D01*
X032366Y013358D01*
X032366Y013357D01*
X032365Y013355D01*
X032363Y013352D01*
X032360Y013348D01*
X032358Y013343D01*
X032356Y013337D01*
X032353Y013331D01*
X032352Y013324D01*
Y013323D01*
X032351Y013321D01*
X032350Y013318D01*
X032350Y013313D01*
Y013307D01*
X032349Y013299D01*
X032349Y013290D01*
Y013278D01*
Y013110D01*
X032395D01*
Y013276D01*
Y013277D01*
Y013277D01*
Y013281D01*
Y013286D01*
X032396Y013292D01*
X032396Y013299D01*
X032397Y013306D01*
X032399Y013313D01*
X032401Y013319D01*
Y013319D01*
X032402Y013321D01*
X032403Y013324D01*
X032405Y013327D01*
X032408Y013330D01*
X032411Y013334D01*
X032415Y013338D01*
X032420Y013341D01*
X032421Y013342D01*
X032423Y013343D01*
X032426Y013344D01*
X032430Y013346D01*
X032434Y013347D01*
X032439Y013349D01*
X032446Y013349D01*
X032453Y013350D01*
X032455D01*
X032457Y013349D01*
X032463Y013349D01*
X032470Y013348D01*
X032478Y013345D01*
X032486Y013342D01*
X032495Y013337D01*
X032503Y013331D01*
X032504Y013330D01*
X032507Y013327D01*
X032508Y013325D01*
X032510Y013322D01*
X032512Y013319D01*
X032514Y013315D01*
X032516Y013311D01*
X032518Y013305D01*
X032520Y013299D01*
X032521Y013293D01*
X032522Y013285D01*
X032524Y013278D01*
X032525Y013269D01*
Y013259D01*
Y013110D01*
X032571D01*
Y013384D01*
X032530D01*
Y013345D01*
X032529Y013346D01*
X032528Y013347D01*
X032526Y013349D01*
X032524Y013352D01*
X032521Y013355D01*
X032517Y013359D01*
X032513Y013364D01*
X032507Y013368D01*
X032502Y013372D01*
X032495Y013376D01*
X032488Y013380D01*
X032480Y013383D01*
X032472Y013386D01*
X032463Y013388D01*
X032453Y013390D01*
X032443Y013390D01*
D02*
G37*
G36*
X031978Y013488D02*
X031822D01*
X031814Y013488D01*
X031805Y013487D01*
X031795Y013486D01*
X031786Y013485D01*
X031778Y013484D01*
X031777D01*
X031773Y013483D01*
X031768Y013482D01*
X031761Y013480D01*
X031754Y013478D01*
X031747Y013474D01*
X031738Y013471D01*
X031731Y013466D01*
X031730Y013466D01*
X031728Y013464D01*
X031725Y013461D01*
X031720Y013457D01*
X031715Y013452D01*
X031711Y013445D01*
X031705Y013438D01*
X031701Y013430D01*
X031700Y013429D01*
X031699Y013426D01*
X031697Y013421D01*
X031695Y013415D01*
X031693Y013407D01*
X031691Y013399D01*
X031690Y013389D01*
X031689Y013378D01*
Y013378D01*
Y013376D01*
Y013374D01*
X031690Y013370D01*
X031690Y013366D01*
X031691Y013361D01*
X031692Y013356D01*
X031693Y013350D01*
X031697Y013337D01*
X031699Y013331D01*
X031702Y013324D01*
X031706Y013317D01*
X031710Y013310D01*
X031715Y013304D01*
X031720Y013297D01*
X031721Y013296D01*
X031722Y013295D01*
X031724Y013294D01*
X031726Y013292D01*
X031730Y013289D01*
X031734Y013287D01*
X031739Y013283D01*
X031745Y013281D01*
X031753Y013277D01*
X031761Y013274D01*
X031770Y013271D01*
X031780Y013269D01*
X031791Y013267D01*
X031803Y013265D01*
X031816Y013264D01*
X031831Y013264D01*
X031927D01*
Y013110D01*
X031978D01*
Y013488D01*
D02*
G37*
G36*
X031519Y013390D02*
X031514D01*
X031510Y013390D01*
X031506Y013389D01*
X031500Y013388D01*
X031494Y013387D01*
X031487Y013385D01*
X031481Y013384D01*
X031473Y013381D01*
X031466Y013378D01*
X031458Y013375D01*
X031451Y013370D01*
X031443Y013365D01*
X031436Y013359D01*
X031429Y013353D01*
X031429Y013352D01*
X031428Y013351D01*
X031426Y013349D01*
X031424Y013346D01*
X031421Y013342D01*
X031418Y013337D01*
X031415Y013332D01*
X031412Y013325D01*
X031409Y013318D01*
X031405Y013311D01*
X031403Y013302D01*
X031400Y013293D01*
X031398Y013282D01*
X031396Y013271D01*
X031395Y013260D01*
X031394Y013247D01*
Y013247D01*
Y013245D01*
Y013241D01*
X031395Y013235D01*
X031600D01*
Y013235D01*
Y013233D01*
X031599Y013231D01*
Y013228D01*
X031599Y013224D01*
X031598Y013219D01*
X031596Y013210D01*
X031593Y013199D01*
X031588Y013187D01*
X031582Y013176D01*
X031575Y013166D01*
X031574D01*
X031574Y013165D01*
X031570Y013162D01*
X031565Y013158D01*
X031559Y013154D01*
X031550Y013150D01*
X031540Y013146D01*
X031529Y013144D01*
X031523Y013143D01*
X031517Y013142D01*
X031512D01*
X031507Y013143D01*
X031501Y013144D01*
X031495Y013146D01*
X031487Y013148D01*
X031480Y013151D01*
X031473Y013156D01*
X031472Y013156D01*
X031470Y013158D01*
X031466Y013162D01*
X031463Y013166D01*
X031458Y013172D01*
X031453Y013180D01*
X031448Y013188D01*
X031444Y013199D01*
X031396Y013193D01*
Y013192D01*
X031397Y013191D01*
X031397Y013189D01*
X031398Y013186D01*
X031400Y013182D01*
X031402Y013178D01*
X031406Y013169D01*
X031411Y013158D01*
X031419Y013147D01*
X031428Y013137D01*
X031439Y013127D01*
X031439D01*
X031440Y013126D01*
X031442Y013125D01*
X031444Y013123D01*
X031447Y013122D01*
X031451Y013120D01*
X031455Y013118D01*
X031460Y013116D01*
X031465Y013114D01*
X031471Y013111D01*
X031484Y013108D01*
X031500Y013105D01*
X031517Y013104D01*
X031523D01*
X031527Y013105D01*
X031531Y013105D01*
X031537Y013106D01*
X031544Y013108D01*
X031551Y013109D01*
X031566Y013113D01*
X031575Y013116D01*
X031582Y013120D01*
X031590Y013124D01*
X031598Y013129D01*
X031605Y013134D01*
X031612Y013141D01*
X031613Y013141D01*
X031614Y013142D01*
X031616Y013145D01*
X031618Y013148D01*
X031620Y013152D01*
X031623Y013156D01*
X031626Y013162D01*
X031630Y013168D01*
X031633Y013175D01*
X031636Y013182D01*
X031639Y013191D01*
X031642Y013200D01*
X031644Y013210D01*
X031646Y013221D01*
X031647Y013233D01*
X031647Y013245D01*
Y013245D01*
Y013248D01*
Y013251D01*
X031647Y013256D01*
X031646Y013262D01*
X031646Y013269D01*
X031644Y013276D01*
X031643Y013284D01*
X031638Y013301D01*
X031636Y013310D01*
X031632Y013319D01*
X031628Y013328D01*
X031623Y013336D01*
X031618Y013344D01*
X031612Y013352D01*
X031611Y013353D01*
X031610Y013354D01*
X031608Y013355D01*
X031605Y013358D01*
X031602Y013361D01*
X031598Y013364D01*
X031593Y013368D01*
X031587Y013371D01*
X031581Y013375D01*
X031574Y013378D01*
X031566Y013382D01*
X031558Y013384D01*
X031549Y013387D01*
X031540Y013389D01*
X031530Y013390D01*
X031519Y013390D01*
D02*
G37*
G36*
X033652Y013488D02*
X033497D01*
X033488Y013488D01*
X033479Y013487D01*
X033469Y013486D01*
X033460Y013485D01*
X033452Y013484D01*
X033451D01*
X033447Y013483D01*
X033442Y013482D01*
X033435Y013480D01*
X033428Y013478D01*
X033421Y013474D01*
X033412Y013471D01*
X033405Y013466D01*
X033404Y013466D01*
X033402Y013464D01*
X033399Y013461D01*
X033394Y013457D01*
X033389Y013452D01*
X033385Y013445D01*
X033379Y013438D01*
X033375Y013430D01*
X033374Y013429D01*
X033373Y013426D01*
X033371Y013421D01*
X033369Y013415D01*
X033367Y013407D01*
X033365Y013399D01*
X033364Y013389D01*
X033363Y013378D01*
Y013378D01*
Y013376D01*
Y013374D01*
X033364Y013370D01*
X033364Y013366D01*
X033365Y013361D01*
X033366Y013356D01*
X033367Y013350D01*
X033371Y013337D01*
X033373Y013331D01*
X033376Y013324D01*
X033380Y013317D01*
X033384Y013310D01*
X033389Y013304D01*
X033394Y013297D01*
X033395Y013296D01*
X033396Y013295D01*
X033398Y013294D01*
X033400Y013292D01*
X033404Y013289D01*
X033408Y013287D01*
X033414Y013283D01*
X033420Y013281D01*
X033427Y013277D01*
X033435Y013274D01*
X033444Y013271D01*
X033454Y013269D01*
X033465Y013267D01*
X033477Y013265D01*
X033491Y013264D01*
X033505Y013264D01*
X033601D01*
Y013110D01*
X033652D01*
Y013488D01*
D02*
G37*
G36*
X030504Y013390D02*
X030500D01*
X030496Y013390D01*
X030490Y013389D01*
X030483Y013388D01*
X030475Y013387D01*
X030467Y013384D01*
X030459Y013381D01*
X030458Y013381D01*
X030456Y013379D01*
X030452Y013378D01*
X030448Y013375D01*
X030442Y013372D01*
X030437Y013367D01*
X030432Y013363D01*
X030428Y013358D01*
X030427Y013357D01*
X030426Y013355D01*
X030425Y013352D01*
X030422Y013348D01*
X030420Y013343D01*
X030418Y013337D01*
X030415Y013331D01*
X030413Y013324D01*
Y013323D01*
X030413Y013321D01*
X030412Y013318D01*
X030412Y013313D01*
Y013307D01*
X030411Y013299D01*
X030411Y013290D01*
Y013278D01*
Y013110D01*
X030457D01*
Y013276D01*
Y013277D01*
Y013277D01*
Y013281D01*
Y013286D01*
X030457Y013292D01*
X030458Y013299D01*
X030459Y013306D01*
X030461Y013313D01*
X030462Y013319D01*
Y013319D01*
X030463Y013321D01*
X030465Y013324D01*
X030467Y013327D01*
X030469Y013330D01*
X030473Y013334D01*
X030477Y013338D01*
X030482Y013341D01*
X030483Y013342D01*
X030484Y013343D01*
X030487Y013344D01*
X030491Y013346D01*
X030496Y013347D01*
X030501Y013349D01*
X030508Y013349D01*
X030514Y013350D01*
X030517D01*
X030519Y013349D01*
X030525Y013349D01*
X030532Y013348D01*
X030539Y013345D01*
X030548Y013342D01*
X030557Y013337D01*
X030565Y013331D01*
X030566Y013330D01*
X030568Y013327D01*
X030570Y013325D01*
X030572Y013322D01*
X030574Y013319D01*
X030575Y013315D01*
X030578Y013311D01*
X030580Y013305D01*
X030581Y013299D01*
X030583Y013293D01*
X030584Y013285D01*
X030585Y013278D01*
X030586Y013269D01*
Y013259D01*
Y013110D01*
X030633D01*
Y013384D01*
X030591D01*
Y013345D01*
X030591Y013346D01*
X030590Y013347D01*
X030588Y013349D01*
X030586Y013352D01*
X030583Y013355D01*
X030579Y013359D01*
X030574Y013364D01*
X030569Y013368D01*
X030563Y013372D01*
X030557Y013376D01*
X030550Y013380D01*
X030542Y013383D01*
X030533Y013386D01*
X030525Y013388D01*
X030515Y013390D01*
X030504Y013390D01*
D02*
G37*
G36*
X030870Y013488D02*
X030824D01*
Y013110D01*
X030867D01*
Y013145D01*
X030868Y013144D01*
X030868Y013143D01*
X030870Y013141D01*
X030872Y013138D01*
X030875Y013135D01*
X030878Y013132D01*
X030882Y013128D01*
X030887Y013124D01*
X030892Y013121D01*
X030897Y013117D01*
X030904Y013114D01*
X030911Y013111D01*
X030918Y013108D01*
X030926Y013106D01*
X030935Y013105D01*
X030944Y013104D01*
X030947D01*
X030949Y013105D01*
X030956Y013105D01*
X030964Y013106D01*
X030973Y013109D01*
X030983Y013112D01*
X030994Y013116D01*
X031004Y013122D01*
X031005D01*
X031005Y013123D01*
X031008Y013126D01*
X031013Y013130D01*
X031019Y013135D01*
X031026Y013142D01*
X031033Y013151D01*
X031041Y013161D01*
X031047Y013172D01*
Y013173D01*
X031047Y013174D01*
X031048Y013176D01*
X031049Y013178D01*
X031050Y013181D01*
X031052Y013185D01*
X031053Y013189D01*
X031054Y013194D01*
X031056Y013205D01*
X031059Y013217D01*
X031061Y013231D01*
X031061Y013247D01*
Y013247D01*
Y013248D01*
Y013251D01*
Y013254D01*
X031061Y013257D01*
Y013261D01*
X031060Y013271D01*
X031058Y013283D01*
X031055Y013295D01*
X031052Y013308D01*
X031048Y013321D01*
Y013322D01*
X031047Y013323D01*
X031046Y013324D01*
X031045Y013326D01*
X031042Y013332D01*
X031037Y013340D01*
X031032Y013348D01*
X031025Y013356D01*
X031017Y013365D01*
X031007Y013372D01*
X031006D01*
X031006Y013373D01*
X031004Y013374D01*
X031002Y013375D01*
X030996Y013378D01*
X030989Y013382D01*
X030980Y013385D01*
X030970Y013388D01*
X030958Y013390D01*
X030946Y013390D01*
X030942D01*
X030937Y013390D01*
X030931Y013389D01*
X030924Y013388D01*
X030917Y013386D01*
X030909Y013383D01*
X030902Y013379D01*
X030901Y013379D01*
X030899Y013378D01*
X030895Y013375D01*
X030891Y013372D01*
X030886Y013369D01*
X030881Y013364D01*
X030875Y013359D01*
X030870Y013353D01*
Y013488D01*
D02*
G37*
G36*
X031209Y013390D02*
X031205D01*
X031201Y013390D01*
X031195Y013389D01*
X031187Y013388D01*
X031180Y013387D01*
X031172Y013384D01*
X031164Y013381D01*
X031163Y013381D01*
X031161Y013379D01*
X031157Y013378D01*
X031153Y013375D01*
X031147Y013372D01*
X031142Y013367D01*
X031137Y013363D01*
X031133Y013358D01*
X031132Y013357D01*
X031131Y013355D01*
X031130Y013352D01*
X031127Y013348D01*
X031125Y013343D01*
X031123Y013337D01*
X031120Y013331D01*
X031118Y013324D01*
Y013323D01*
X031118Y013321D01*
X031117Y013318D01*
X031116Y013313D01*
Y013307D01*
X031116Y013299D01*
X031115Y013290D01*
Y013278D01*
Y013110D01*
X031162D01*
Y013276D01*
Y013277D01*
Y013277D01*
Y013281D01*
Y013286D01*
X031162Y013292D01*
X031163Y013299D01*
X031164Y013306D01*
X031166Y013313D01*
X031167Y013319D01*
Y013319D01*
X031168Y013321D01*
X031170Y013324D01*
X031172Y013327D01*
X031174Y013330D01*
X031178Y013334D01*
X031182Y013338D01*
X031187Y013341D01*
X031187Y013342D01*
X031189Y013343D01*
X031192Y013344D01*
X031196Y013346D01*
X031201Y013347D01*
X031206Y013349D01*
X031213Y013349D01*
X031219Y013350D01*
X031222D01*
X031224Y013349D01*
X031230Y013349D01*
X031237Y013348D01*
X031244Y013345D01*
X031253Y013342D01*
X031262Y013337D01*
X031270Y013331D01*
X031271Y013330D01*
X031273Y013327D01*
X031275Y013325D01*
X031276Y013322D01*
X031279Y013319D01*
X031280Y013315D01*
X031282Y013311D01*
X031285Y013305D01*
X031286Y013299D01*
X031288Y013293D01*
X031289Y013285D01*
X031290Y013278D01*
X031291Y013269D01*
Y013259D01*
Y013110D01*
X031338D01*
Y013384D01*
X031296D01*
Y013345D01*
X031296Y013346D01*
X031294Y013347D01*
X031293Y013349D01*
X031291Y013352D01*
X031287Y013355D01*
X031284Y013359D01*
X031279Y013364D01*
X031274Y013368D01*
X031268Y013372D01*
X031262Y013376D01*
X031255Y013380D01*
X031247Y013383D01*
X031238Y013386D01*
X031230Y013388D01*
X031220Y013390D01*
X031209Y013390D01*
D02*
G37*
G36*
X030750Y013384D02*
X030704D01*
Y013110D01*
X030750D01*
Y013384D01*
D02*
G37*
G36*
X032753Y013390D02*
X032747D01*
X032744Y013390D01*
X032739Y013389D01*
X032734Y013388D01*
X032728Y013387D01*
X032721Y013385D01*
X032714Y013384D01*
X032706Y013381D01*
X032699Y013378D01*
X032692Y013375D01*
X032684Y013370D01*
X032676Y013365D01*
X032669Y013359D01*
X032663Y013353D01*
X032662Y013352D01*
X032661Y013351D01*
X032659Y013349D01*
X032657Y013346D01*
X032655Y013342D01*
X032652Y013337D01*
X032649Y013332D01*
X032645Y013325D01*
X032642Y013318D01*
X032639Y013311D01*
X032636Y013302D01*
X032633Y013293D01*
X032631Y013282D01*
X032629Y013271D01*
X032628Y013260D01*
X032628Y013247D01*
Y013247D01*
Y013245D01*
Y013241D01*
X032628Y013235D01*
X032833D01*
Y013235D01*
Y013233D01*
X032833Y013231D01*
Y013228D01*
X032832Y013224D01*
X032831Y013219D01*
X032829Y013210D01*
X032826Y013199D01*
X032822Y013187D01*
X032816Y013176D01*
X032808Y013166D01*
X032807D01*
X032807Y013165D01*
X032804Y013162D01*
X032799Y013158D01*
X032792Y013154D01*
X032783Y013150D01*
X032774Y013146D01*
X032763Y013144D01*
X032757Y013143D01*
X032750Y013142D01*
X032746D01*
X032741Y013143D01*
X032735Y013144D01*
X032728Y013146D01*
X032721Y013148D01*
X032714Y013151D01*
X032706Y013156D01*
X032706Y013156D01*
X032703Y013158D01*
X032700Y013162D01*
X032696Y013166D01*
X032692Y013172D01*
X032687Y013180D01*
X032682Y013188D01*
X032678Y013199D01*
X032629Y013193D01*
Y013192D01*
X032630Y013191D01*
X032631Y013189D01*
X032632Y013186D01*
X032633Y013182D01*
X032635Y013178D01*
X032639Y013169D01*
X032645Y013158D01*
X032652Y013147D01*
X032661Y013137D01*
X032672Y013127D01*
X032673D01*
X032674Y013126D01*
X032675Y013125D01*
X032678Y013123D01*
X032681Y013122D01*
X032684Y013120D01*
X032688Y013118D01*
X032693Y013116D01*
X032699Y013114D01*
X032704Y013111D01*
X032718Y013108D01*
X032733Y013105D01*
X032750Y013104D01*
X032756D01*
X032760Y013105D01*
X032765Y013105D01*
X032771Y013106D01*
X032777Y013108D01*
X032785Y013109D01*
X032800Y013113D01*
X032808Y013116D01*
X032816Y013120D01*
X032824Y013124D01*
X032831Y013129D01*
X032839Y013134D01*
X032846Y013141D01*
X032846Y013141D01*
X032847Y013142D01*
X032849Y013145D01*
X032851Y013148D01*
X032854Y013152D01*
X032857Y013156D01*
X032860Y013162D01*
X032863Y013168D01*
X032866Y013175D01*
X032870Y013182D01*
X032872Y013191D01*
X032875Y013200D01*
X032877Y013210D01*
X032879Y013221D01*
X032880Y013233D01*
X032881Y013245D01*
Y013245D01*
Y013248D01*
Y013251D01*
X032880Y013256D01*
X032880Y013262D01*
X032879Y013269D01*
X032878Y013276D01*
X032876Y013284D01*
X032872Y013301D01*
X032869Y013310D01*
X032866Y013319D01*
X032862Y013328D01*
X032857Y013336D01*
X032851Y013344D01*
X032845Y013352D01*
X032845Y013353D01*
X032843Y013354D01*
X032841Y013355D01*
X032839Y013358D01*
X032835Y013361D01*
X032831Y013364D01*
X032826Y013368D01*
X032820Y013371D01*
X032814Y013375D01*
X032807Y013378D01*
X032799Y013382D01*
X032791Y013384D01*
X032782Y013387D01*
X032773Y013389D01*
X032763Y013390D01*
X032753Y013390D01*
D02*
G37*
G36*
X031506Y014392D02*
X031307D01*
X031302Y014392D01*
X031296D01*
X031283Y014390D01*
X031269Y014389D01*
X031253Y014386D01*
X031238Y014382D01*
X031224Y014377D01*
X031224D01*
X031223Y014376D01*
X031218Y014374D01*
X031212Y014370D01*
X031205Y014365D01*
X031196Y014359D01*
X031186Y014351D01*
X031178Y014341D01*
X031170Y014330D01*
X031169Y014328D01*
X031167Y014324D01*
X031163Y014318D01*
X031159Y014309D01*
X031156Y014299D01*
X031152Y014288D01*
X031150Y014276D01*
X031149Y014263D01*
Y014262D01*
Y014258D01*
X031150Y014252D01*
X031151Y014244D01*
X031154Y014234D01*
X031157Y014224D01*
X031162Y014214D01*
X031167Y014203D01*
X031168Y014201D01*
X031170Y014198D01*
X031175Y014193D01*
X031181Y014187D01*
X031188Y014179D01*
X031197Y014171D01*
X031207Y014164D01*
X031220Y014157D01*
X031219D01*
X031218Y014156D01*
X031216Y014155D01*
X031213Y014154D01*
X031204Y014151D01*
X031194Y014146D01*
X031183Y014139D01*
X031170Y014131D01*
X031159Y014122D01*
X031149Y014110D01*
X031148Y014109D01*
X031146Y014104D01*
X031141Y014098D01*
X031137Y014089D01*
X031132Y014077D01*
X031128Y014065D01*
X031125Y014050D01*
X031124Y014034D01*
Y014034D01*
Y014033D01*
Y014028D01*
X031125Y014021D01*
X031127Y014012D01*
X031128Y014002D01*
X031131Y013991D01*
X031135Y013980D01*
X031140Y013968D01*
X031140Y013967D01*
X031143Y013963D01*
X031146Y013958D01*
X031150Y013950D01*
X031156Y013943D01*
X031162Y013935D01*
X031169Y013927D01*
X031177Y013921D01*
X031178Y013920D01*
X031181Y013918D01*
X031186Y013915D01*
X031192Y013912D01*
X031200Y013907D01*
X031210Y013903D01*
X031220Y013899D01*
X031232Y013896D01*
X031234D01*
X031238Y013894D01*
X031245Y013894D01*
X031255Y013892D01*
X031267Y013891D01*
X031280Y013889D01*
X031296Y013889D01*
X031313Y013888D01*
X031506D01*
Y014392D01*
D02*
G37*
G36*
X030750Y013488D02*
X030704D01*
Y013435D01*
X030750D01*
Y013488D01*
D02*
G37*
G36*
X031770Y014101D02*
X031579D01*
Y014039D01*
X031770D01*
Y014101D01*
D02*
G37*
G36*
X032638Y014392D02*
X032404D01*
X032398Y014392D01*
X032391D01*
X032376Y014391D01*
X032360Y014389D01*
X032343Y014386D01*
X032327Y014383D01*
X032318Y014381D01*
X032312Y014378D01*
X032311D01*
X032310Y014378D01*
X032306Y014375D01*
X032300Y014373D01*
X032292Y014367D01*
X032283Y014361D01*
X032273Y014352D01*
X032265Y014342D01*
X032256Y014330D01*
Y014330D01*
X032255Y014329D01*
X032252Y014324D01*
X032249Y014317D01*
X032245Y014308D01*
X032241Y014297D01*
X032238Y014284D01*
X032235Y014270D01*
X032235Y014254D01*
Y014254D01*
Y014252D01*
Y014249D01*
X032235Y014246D01*
Y014241D01*
X032236Y014236D01*
X032239Y014223D01*
X032243Y014209D01*
X032249Y014193D01*
X032258Y014178D01*
X032264Y014171D01*
X032270Y014163D01*
X032270Y014163D01*
X032271Y014162D01*
X032273Y014160D01*
X032276Y014158D01*
X032280Y014155D01*
X032284Y014152D01*
X032290Y014148D01*
X032296Y014144D01*
X032303Y014140D01*
X032311Y014136D01*
X032320Y014132D01*
X032329Y014128D01*
X032340Y014125D01*
X032351Y014122D01*
X032364Y014120D01*
X032377Y014117D01*
X032375Y014117D01*
X032372Y014115D01*
X032368Y014112D01*
X032362Y014109D01*
X032349Y014101D01*
X032343Y014096D01*
X032337Y014092D01*
X032335Y014090D01*
X032332Y014087D01*
X032326Y014081D01*
X032318Y014074D01*
X032310Y014063D01*
X032301Y014053D01*
X032292Y014039D01*
X032281Y014025D01*
X032195Y013888D01*
X032278D01*
X032344Y013993D01*
Y013994D01*
X032345Y013995D01*
X032347Y013997D01*
X032349Y014000D01*
X032354Y014008D01*
X032361Y014018D01*
X032369Y014029D01*
X032377Y014041D01*
X032385Y014052D01*
X032392Y014062D01*
X032393Y014063D01*
X032395Y014066D01*
X032399Y014070D01*
X032404Y014075D01*
X032415Y014086D01*
X032421Y014091D01*
X032426Y014096D01*
X032427Y014096D01*
X032429Y014097D01*
X032431Y014098D01*
X032436Y014101D01*
X032440Y014103D01*
X032445Y014105D01*
X032457Y014109D01*
X032458D01*
X032459Y014109D01*
X032462D01*
X032466Y014110D01*
X032471Y014111D01*
X032477D01*
X032485Y014112D01*
X032571D01*
Y013888D01*
X032638D01*
Y014392D01*
D02*
G37*
G36*
X032958Y013480D02*
Y013384D01*
X032911D01*
Y013348D01*
X032958D01*
Y013187D01*
Y013186D01*
Y013184D01*
Y013181D01*
X032957Y013177D01*
X032957Y013168D01*
X032956Y013164D01*
X032955Y013162D01*
X032955Y013160D01*
X032953Y013158D01*
X032951Y013156D01*
X032947Y013153D01*
X032946Y013152D01*
X032943Y013151D01*
X032938Y013150D01*
X032931Y013150D01*
X032926D01*
X032923Y013150D01*
X032919D01*
X032915Y013151D01*
X032911Y013151D01*
X032905Y013110D01*
X032906D01*
X032908Y013110D01*
X032912Y013109D01*
X032917Y013109D01*
X032922Y013108D01*
X032928Y013107D01*
X032940Y013106D01*
X032945D01*
X032949Y013107D01*
X032954Y013108D01*
X032961Y013108D01*
X032967Y013110D01*
X032973Y013111D01*
X032979Y013114D01*
X032980Y013115D01*
X032982Y013116D01*
X032984Y013117D01*
X032987Y013120D01*
X032990Y013123D01*
X032993Y013127D01*
X032996Y013130D01*
X032999Y013135D01*
Y013136D01*
X033000Y013138D01*
X033000Y013142D01*
X033001Y013147D01*
X033002Y013154D01*
X033003Y013159D01*
Y013164D01*
X033003Y013170D01*
X033004Y013176D01*
Y013182D01*
Y013190D01*
Y013348D01*
X033038D01*
Y013384D01*
X033004D01*
Y013452D01*
X032958Y013480D01*
D02*
G37*
G36*
X032223D02*
Y013384D01*
X032176D01*
Y013348D01*
X032223D01*
Y013187D01*
Y013186D01*
Y013184D01*
Y013181D01*
X032223Y013177D01*
X032222Y013168D01*
X032222Y013164D01*
X032221Y013162D01*
X032221Y013160D01*
X032219Y013158D01*
X032217Y013156D01*
X032213Y013153D01*
X032212Y013152D01*
X032209Y013151D01*
X032204Y013150D01*
X032197Y013150D01*
X032192D01*
X032189Y013150D01*
X032185D01*
X032181Y013151D01*
X032176Y013151D01*
X032170Y013110D01*
X032171D01*
X032174Y013110D01*
X032177Y013109D01*
X032182Y013109D01*
X032188Y013108D01*
X032194Y013107D01*
X032206Y013106D01*
X032210D01*
X032215Y013107D01*
X032220Y013108D01*
X032227Y013108D01*
X032233Y013110D01*
X032239Y013111D01*
X032245Y013114D01*
X032246Y013115D01*
X032247Y013116D01*
X032249Y013117D01*
X032253Y013120D01*
X032255Y013123D01*
X032259Y013127D01*
X032262Y013130D01*
X032264Y013135D01*
Y013136D01*
X032265Y013138D01*
X032266Y013142D01*
X032267Y013147D01*
X032268Y013154D01*
X032269Y013159D01*
Y013164D01*
X032269Y013170D01*
X032270Y013176D01*
Y013182D01*
Y013190D01*
Y013348D01*
X032304D01*
Y013384D01*
X032270D01*
Y013452D01*
X032223Y013480D01*
D02*
G37*
G36*
X030239Y013390D02*
X030234D01*
X030230Y013390D01*
X030227Y013389D01*
X030222Y013388D01*
X030216Y013387D01*
X030210Y013385D01*
X030204Y013383D01*
X030198Y013381D01*
X030191Y013377D01*
X030184Y013373D01*
X030177Y013369D01*
X030171Y013364D01*
X030164Y013358D01*
X030158Y013350D01*
Y013384D01*
X030116D01*
Y013147D01*
Y013147D01*
Y013145D01*
Y013141D01*
Y013137D01*
X030116Y013132D01*
Y013126D01*
X030117Y013120D01*
X030117Y013112D01*
X030119Y013098D01*
X030121Y013082D01*
X030123Y013075D01*
X030124Y013069D01*
X030127Y013063D01*
X030129Y013057D01*
Y013057D01*
X030129Y013056D01*
X030132Y013053D01*
X030134Y013048D01*
X030139Y013042D01*
X030145Y013035D01*
X030152Y013028D01*
X030160Y013021D01*
X030170Y013015D01*
X030171D01*
X030171Y013015D01*
X030173Y013014D01*
X030175Y013013D01*
X030178Y013011D01*
X030181Y013010D01*
X030189Y013008D01*
X030199Y013004D01*
X030211Y013002D01*
X030225Y013000D01*
X030240Y012999D01*
X030245D01*
X030248Y013000D01*
X030252D01*
X030257Y013000D01*
X030262Y013001D01*
X030268Y013002D01*
X030281Y013005D01*
X030294Y013009D01*
X030307Y013014D01*
X030319Y013022D01*
X030319Y013022D01*
X030320Y013023D01*
X030324Y013026D01*
X030328Y013031D01*
X030334Y013038D01*
X030339Y013047D01*
X030344Y013059D01*
X030346Y013065D01*
X030347Y013073D01*
X030348Y013080D01*
Y013088D01*
X030302Y013082D01*
Y013081D01*
X030302Y013079D01*
X030301Y013075D01*
X030300Y013070D01*
X030298Y013065D01*
X030295Y013060D01*
X030291Y013055D01*
X030287Y013051D01*
X030286Y013051D01*
X030284Y013049D01*
X030280Y013047D01*
X030275Y013045D01*
X030268Y013042D01*
X030260Y013040D01*
X030250Y013038D01*
X030240Y013038D01*
X030234D01*
X030229Y013038D01*
X030221Y013039D01*
X030213Y013041D01*
X030205Y013043D01*
X030197Y013046D01*
X030190Y013051D01*
X030189Y013051D01*
X030187Y013053D01*
X030184Y013056D01*
X030180Y013060D01*
X030176Y013065D01*
X030172Y013071D01*
X030169Y013079D01*
X030166Y013087D01*
Y013087D01*
X030165Y013089D01*
X030165Y013094D01*
X030164Y013099D01*
X030164Y013103D01*
Y013108D01*
X030163Y013112D01*
Y013118D01*
Y013124D01*
X030163Y013131D01*
Y013138D01*
Y013146D01*
X030163Y013146D01*
X030164Y013145D01*
X030166Y013143D01*
X030168Y013141D01*
X030171Y013138D01*
X030175Y013135D01*
X030179Y013132D01*
X030183Y013128D01*
X030195Y013122D01*
X030207Y013116D01*
X030215Y013114D01*
X030222Y013112D01*
X030230Y013111D01*
X030239Y013110D01*
X030241D01*
X030244Y013111D01*
X030248D01*
X030253Y013111D01*
X030258Y013112D01*
X030264Y013114D01*
X030271Y013115D01*
X030278Y013117D01*
X030285Y013120D01*
X030292Y013123D01*
X030300Y013127D01*
X030307Y013132D01*
X030314Y013138D01*
X030320Y013144D01*
X030326Y013151D01*
X030327Y013151D01*
X030328Y013152D01*
X030329Y013155D01*
X030331Y013158D01*
X030334Y013162D01*
X030336Y013166D01*
X030339Y013172D01*
X030342Y013178D01*
X030344Y013185D01*
X030347Y013193D01*
X030350Y013200D01*
X030352Y013209D01*
X030356Y013228D01*
X030356Y013238D01*
X030357Y013248D01*
Y013249D01*
Y013250D01*
Y013252D01*
Y013255D01*
X030356Y013259D01*
Y013263D01*
X030355Y013272D01*
X030354Y013283D01*
X030351Y013295D01*
X030348Y013308D01*
X030343Y013320D01*
Y013321D01*
X030342Y013322D01*
X030341Y013324D01*
X030340Y013326D01*
X030337Y013332D01*
X030332Y013340D01*
X030326Y013348D01*
X030319Y013356D01*
X030311Y013365D01*
X030302Y013372D01*
X030301D01*
X030301Y013372D01*
X030299Y013373D01*
X030297Y013375D01*
X030291Y013378D01*
X030284Y013381D01*
X030275Y013384D01*
X030264Y013388D01*
X030252Y013390D01*
X030239Y013390D01*
D02*
G37*
G36*
X033190D02*
X033184D01*
X033178Y013390D01*
X033169Y013389D01*
X033160Y013388D01*
X033151Y013387D01*
X033142Y013384D01*
X033133Y013382D01*
X033132Y013381D01*
X033129Y013380D01*
X033125Y013378D01*
X033120Y013376D01*
X033115Y013373D01*
X033109Y013370D01*
X033104Y013365D01*
X033100Y013361D01*
X033100Y013360D01*
X033098Y013359D01*
X033097Y013356D01*
X033095Y013353D01*
X033092Y013348D01*
X033090Y013343D01*
X033088Y013337D01*
X033086Y013330D01*
Y013329D01*
X033085Y013328D01*
X033085Y013324D01*
X033084Y013320D01*
Y013314D01*
X033084Y013307D01*
X033083Y013298D01*
Y013287D01*
Y013225D01*
Y013224D01*
Y013222D01*
Y013219D01*
Y013215D01*
Y013210D01*
Y013204D01*
X033083Y013190D01*
Y013177D01*
X033082Y013163D01*
X033082Y013157D01*
Y013152D01*
X033081Y013147D01*
X033080Y013143D01*
Y013142D01*
X033080Y013140D01*
X033079Y013137D01*
X033078Y013133D01*
X033077Y013128D01*
X033074Y013122D01*
X033072Y013116D01*
X033069Y013110D01*
X033118D01*
X033118Y013111D01*
X033119Y013113D01*
X033120Y013116D01*
X033121Y013120D01*
X033123Y013125D01*
X033124Y013131D01*
X033125Y013138D01*
X033126Y013145D01*
X033127D01*
X033127Y013144D01*
X033131Y013141D01*
X033136Y013137D01*
X033142Y013132D01*
X033150Y013127D01*
X033159Y013122D01*
X033167Y013117D01*
X033177Y013113D01*
X033178Y013112D01*
X033181Y013112D01*
X033186Y013110D01*
X033192Y013109D01*
X033199Y013107D01*
X033208Y013106D01*
X033218Y013105D01*
X033228Y013104D01*
X033232D01*
X033236Y013105D01*
X033239D01*
X033244Y013105D01*
X033254Y013107D01*
X033264Y013110D01*
X033276Y013114D01*
X033287Y013119D01*
X033297Y013126D01*
X033298Y013127D01*
X033301Y013130D01*
X033305Y013135D01*
X033309Y013141D01*
X033314Y013150D01*
X033317Y013159D01*
X033320Y013170D01*
X033321Y013176D01*
X033321Y013182D01*
Y013183D01*
Y013186D01*
X033321Y013189D01*
X033320Y013194D01*
X033319Y013200D01*
X033317Y013206D01*
X033315Y013213D01*
X033313Y013219D01*
X033312Y013219D01*
X033311Y013222D01*
X033309Y013225D01*
X033306Y013229D01*
X033303Y013233D01*
X033298Y013237D01*
X033294Y013242D01*
X033288Y013246D01*
X033288Y013246D01*
X033286Y013247D01*
X033283Y013249D01*
X033279Y013252D01*
X033274Y013254D01*
X033268Y013257D01*
X033262Y013259D01*
X033255Y013261D01*
X033254D01*
X033252Y013261D01*
X033249Y013263D01*
X033244Y013263D01*
X033239Y013264D01*
X033232Y013265D01*
X033224Y013267D01*
X033214Y013268D01*
X033213D01*
X033211Y013269D01*
X033208D01*
X033204Y013269D01*
X033200Y013270D01*
X033195Y013271D01*
X033189Y013271D01*
X033182Y013272D01*
X033169Y013275D01*
X033155Y013278D01*
X033142Y013281D01*
X033136Y013283D01*
X033131Y013284D01*
Y013285D01*
Y013286D01*
X033130Y013289D01*
Y013293D01*
Y013295D01*
Y013296D01*
Y013297D01*
Y013298D01*
Y013301D01*
X033131Y013306D01*
X033132Y013312D01*
X033133Y013319D01*
X033136Y013325D01*
X033139Y013331D01*
X033144Y013336D01*
X033144Y013337D01*
X033147Y013339D01*
X033151Y013341D01*
X033157Y013344D01*
X033165Y013347D01*
X033173Y013350D01*
X033184Y013352D01*
X033197Y013352D01*
X033202D01*
X033208Y013352D01*
X033215Y013350D01*
X033223Y013349D01*
X033231Y013347D01*
X033239Y013344D01*
X033245Y013341D01*
X033246Y013340D01*
X033248Y013338D01*
X033251Y013336D01*
X033254Y013331D01*
X033257Y013326D01*
X033261Y013319D01*
X033264Y013310D01*
X033268Y013300D01*
X033313Y013306D01*
Y013307D01*
X033313Y013307D01*
Y013309D01*
X033312Y013311D01*
X033310Y013316D01*
X033308Y013323D01*
X033305Y013330D01*
X033302Y013338D01*
X033298Y013346D01*
X033293Y013353D01*
X033292Y013353D01*
X033290Y013355D01*
X033287Y013359D01*
X033282Y013363D01*
X033276Y013367D01*
X033269Y013372D01*
X033261Y013377D01*
X033252Y013381D01*
X033251D01*
X033251Y013381D01*
X033249Y013382D01*
X033247Y013382D01*
X033242Y013384D01*
X033234Y013385D01*
X033225Y013387D01*
X033214Y013389D01*
X033203Y013390D01*
X033190Y013390D01*
D02*
G37*
G36*
X034430Y035844D02*
X034388D01*
X034375Y035842D01*
X034357D01*
X034336Y035838D01*
X034314Y035833D01*
X034290Y035829D01*
X034268Y035820D01*
X034266D01*
X034257Y035816D01*
X034246Y035811D01*
X034233Y035803D01*
X034215Y035794D01*
X034198Y035783D01*
X034180Y035768D01*
X034165Y035752D01*
X034163Y035750D01*
X034158Y035744D01*
X034150Y035735D01*
X034141Y035722D01*
X034130Y035706D01*
X034119Y035689D01*
X034108Y035667D01*
X034099Y035643D01*
X034097Y035641D01*
X034095Y035632D01*
X034091Y035619D01*
X034086Y035601D01*
X034082Y035580D01*
X034080Y035553D01*
X034075Y035525D01*
Y035494D01*
Y035459D01*
X034574D01*
Y035457D01*
Y035451D01*
X034572Y035440D01*
X034570Y035426D01*
X034565Y035396D01*
X034557Y035363D01*
Y035361D01*
X034554Y035357D01*
X034550Y035350D01*
X034546Y035341D01*
X034532Y035319D01*
X034517Y035297D01*
X034515D01*
X034513Y035293D01*
X034500Y035282D01*
X034482Y035269D01*
X034460Y035258D01*
X034458D01*
X034454Y035256D01*
X034447Y035254D01*
X034438D01*
X034417Y035249D01*
X034390Y035247D01*
X034373D01*
X034355Y035249D01*
X034336Y035252D01*
X034333D01*
X034331Y035254D01*
X034320Y035256D01*
X034305Y035262D01*
X034290Y035271D01*
X034285Y035273D01*
X034277Y035280D01*
X034266Y035291D01*
X034255Y035306D01*
X034253Y035311D01*
X034248Y035322D01*
X034242Y035337D01*
X034237Y035357D01*
X034088D01*
Y035354D01*
X034091Y035348D01*
X034093Y035339D01*
X034095Y035326D01*
X034106Y035297D01*
X034123Y035265D01*
X034126Y035262D01*
X034128Y035258D01*
X034134Y035252D01*
X034141Y035241D01*
X034163Y035219D01*
X034189Y035197D01*
X034191Y035195D01*
X034196Y035192D01*
X034204Y035188D01*
X034215Y035182D01*
X034228Y035175D01*
X034244Y035168D01*
X034281Y035155D01*
X034283D01*
X034290Y035153D01*
X034301Y035151D01*
X034314Y035149D01*
X034329Y035147D01*
X034349Y035144D01*
X034390Y035142D01*
X034403D01*
X034419Y035144D01*
X034438D01*
X034460Y035149D01*
X034484Y035153D01*
X034511Y035157D01*
X034535Y035166D01*
X034537Y035168D01*
X034546Y035171D01*
X034557Y035177D01*
X034572Y035184D01*
X034607Y035206D01*
X034642Y035234D01*
X034644Y035236D01*
X034648Y035243D01*
X034657Y035252D01*
X034666Y035265D01*
X034677Y035282D01*
X034688Y035300D01*
X034699Y035322D01*
X034707Y035346D01*
Y035348D01*
X034712Y035357D01*
X034714Y035372D01*
X034718Y035389D01*
X034723Y035411D01*
X034725Y035435D01*
X034729Y035464D01*
Y035494D01*
Y035499D01*
Y035507D01*
X034727Y035523D01*
Y035542D01*
X034725Y035566D01*
X034721Y035591D01*
X034707Y035641D01*
X034705Y035643D01*
X034703Y035652D01*
X034696Y035665D01*
X034690Y035680D01*
X034670Y035715D01*
X034642Y035750D01*
X034640Y035752D01*
X034633Y035757D01*
X034624Y035765D01*
X034613Y035776D01*
X034598Y035787D01*
X034581Y035798D01*
X034539Y035820D01*
X034537Y035822D01*
X034528Y035825D01*
X034515Y035829D01*
X034500Y035833D01*
X034478Y035838D01*
X034456Y035840D01*
X034430Y035844D01*
D02*
G37*
G36*
X035823D02*
X035799D01*
X035783Y035842D01*
X035764D01*
X035744Y035840D01*
X035705Y035833D01*
X035702D01*
X035696Y035831D01*
X035685Y035829D01*
X035674Y035825D01*
X035643Y035811D01*
X035611Y035794D01*
X035608Y035792D01*
X035604Y035790D01*
X035598Y035783D01*
X035589Y035774D01*
X035580Y035763D01*
X035569Y035752D01*
X035554Y035720D01*
Y035717D01*
X035552Y035711D01*
X035547Y035700D01*
X035543Y035687D01*
X035541Y035669D01*
X035536Y035647D01*
X035534Y035621D01*
Y035593D01*
Y035157D01*
X035683D01*
Y035221D01*
X035687Y035217D01*
X035698Y035208D01*
X035718Y035197D01*
X035746Y035182D01*
X035779Y035166D01*
X035818Y035155D01*
X035864Y035147D01*
X035915Y035142D01*
X035932D01*
X035943Y035144D01*
X035971Y035149D01*
X036004Y035155D01*
X036006D01*
X036011Y035157D01*
X036020Y035160D01*
X036028Y035164D01*
X036052Y035175D01*
X036079Y035190D01*
X036081Y035192D01*
X036083Y035195D01*
X036096Y035208D01*
X036114Y035225D01*
X036129Y035252D01*
Y035254D01*
X036131Y035258D01*
X036133Y035267D01*
X036138Y035276D01*
X036140Y035289D01*
X036144Y035304D01*
X036146Y035337D01*
Y035339D01*
Y035341D01*
Y035348D01*
X036144Y035357D01*
X036142Y035376D01*
X036133Y035402D01*
X036122Y035431D01*
X036105Y035461D01*
X036079Y035488D01*
X036063Y035501D01*
X036046Y035512D01*
X036044D01*
X036041Y035514D01*
X036035Y035518D01*
X036026Y035521D01*
X036015Y035525D01*
X036004Y035531D01*
X035987Y035536D01*
X035969Y035542D01*
X035950Y035547D01*
X035928Y035551D01*
X035902Y035558D01*
X035875Y035562D01*
X035845Y035566D01*
X035814Y035569D01*
X035779Y035571D01*
X035685D01*
Y035573D01*
Y035575D01*
Y035588D01*
Y035606D01*
X035687Y035623D01*
Y035626D01*
Y035628D01*
Y035636D01*
Y035650D01*
X035689Y035660D01*
Y035663D01*
X035692Y035667D01*
X035696Y035680D01*
X035707Y035698D01*
X035722Y035715D01*
X035724Y035717D01*
X035729Y035720D01*
X035737Y035724D01*
X035748Y035730D01*
X035764Y035735D01*
X035781Y035739D01*
X035803Y035741D01*
X035829Y035744D01*
X035840D01*
X035853Y035741D01*
X035871D01*
X035906Y035733D01*
X035926Y035726D01*
X035941Y035717D01*
X035943Y035715D01*
X035947Y035713D01*
X035952Y035706D01*
X035958Y035698D01*
X035967Y035687D01*
X035971Y035671D01*
X035976Y035656D01*
X035978Y035636D01*
X036122D01*
Y035639D01*
X036120Y035645D01*
Y035656D01*
X036116Y035669D01*
X036111Y035685D01*
X036103Y035702D01*
X036094Y035722D01*
X036081Y035741D01*
X036063Y035759D01*
X036044Y035779D01*
X036020Y035796D01*
X035991Y035811D01*
X035956Y035825D01*
X035917Y035835D01*
X035873Y035842D01*
X035823Y035844D01*
D02*
G37*
G36*
X026633Y036089D02*
X026484D01*
Y035949D01*
X026633D01*
Y036089D01*
D02*
G37*
G36*
X026053Y035844D02*
X026012D01*
X025999Y035842D01*
X025981D01*
X025959Y035838D01*
X025938Y035833D01*
X025913Y035829D01*
X025892Y035820D01*
X025889D01*
X025881Y035816D01*
X025870Y035811D01*
X025857Y035803D01*
X025839Y035794D01*
X025822Y035783D01*
X025804Y035768D01*
X025789Y035752D01*
X025787Y035750D01*
X025782Y035744D01*
X025774Y035735D01*
X025765Y035722D01*
X025754Y035706D01*
X025743Y035689D01*
X025732Y035667D01*
X025723Y035643D01*
X025721Y035641D01*
X025719Y035632D01*
X025714Y035619D01*
X025710Y035601D01*
X025706Y035580D01*
X025704Y035553D01*
X025699Y035525D01*
Y035494D01*
Y035459D01*
X026198D01*
Y035457D01*
Y035451D01*
X026196Y035440D01*
X026193Y035426D01*
X026189Y035396D01*
X026180Y035363D01*
Y035361D01*
X026178Y035357D01*
X026174Y035350D01*
X026169Y035341D01*
X026156Y035319D01*
X026141Y035297D01*
X026139D01*
X026137Y035293D01*
X026123Y035282D01*
X026106Y035269D01*
X026084Y035258D01*
X026082D01*
X026078Y035256D01*
X026071Y035254D01*
X026062D01*
X026040Y035249D01*
X026014Y035247D01*
X025997D01*
X025979Y035249D01*
X025959Y035252D01*
X025957D01*
X025955Y035254D01*
X025944Y035256D01*
X025929Y035262D01*
X025913Y035271D01*
X025909Y035273D01*
X025900Y035280D01*
X025889Y035291D01*
X025878Y035306D01*
X025876Y035311D01*
X025872Y035322D01*
X025865Y035337D01*
X025861Y035357D01*
X025712D01*
Y035354D01*
X025714Y035348D01*
X025717Y035339D01*
X025719Y035326D01*
X025730Y035297D01*
X025747Y035265D01*
X025749Y035262D01*
X025752Y035258D01*
X025758Y035252D01*
X025765Y035241D01*
X025787Y035219D01*
X025813Y035197D01*
X025815Y035195D01*
X025819Y035192D01*
X025828Y035188D01*
X025839Y035182D01*
X025852Y035175D01*
X025868Y035168D01*
X025905Y035155D01*
X025907D01*
X025913Y035153D01*
X025924Y035151D01*
X025938Y035149D01*
X025953Y035147D01*
X025973Y035144D01*
X026014Y035142D01*
X026027D01*
X026043Y035144D01*
X026062D01*
X026084Y035149D01*
X026108Y035153D01*
X026134Y035157D01*
X026158Y035166D01*
X026161Y035168D01*
X026169Y035171D01*
X026180Y035177D01*
X026196Y035184D01*
X026231Y035206D01*
X026266Y035234D01*
X026268Y035236D01*
X026272Y035243D01*
X026281Y035252D01*
X026290Y035265D01*
X026301Y035282D01*
X026312Y035300D01*
X026322Y035322D01*
X026331Y035346D01*
Y035348D01*
X026336Y035357D01*
X026338Y035372D01*
X026342Y035389D01*
X026347Y035411D01*
X026349Y035435D01*
X026353Y035464D01*
Y035494D01*
Y035499D01*
Y035507D01*
X026351Y035523D01*
Y035542D01*
X026349Y035566D01*
X026344Y035591D01*
X026331Y035641D01*
X026329Y035643D01*
X026327Y035652D01*
X026320Y035665D01*
X026314Y035680D01*
X026294Y035715D01*
X026266Y035750D01*
X026263Y035752D01*
X026257Y035757D01*
X026248Y035765D01*
X026237Y035776D01*
X026222Y035787D01*
X026204Y035798D01*
X026163Y035820D01*
X026161Y035822D01*
X026152Y035825D01*
X026139Y035829D01*
X026123Y035833D01*
X026102Y035838D01*
X026080Y035840D01*
X026053Y035844D01*
D02*
G37*
G36*
X027595D02*
X027554D01*
X027541Y035842D01*
X027523D01*
X027501Y035838D01*
X027479Y035833D01*
X027455Y035829D01*
X027433Y035820D01*
X027431D01*
X027423Y035816D01*
X027412Y035811D01*
X027398Y035803D01*
X027381Y035794D01*
X027363Y035783D01*
X027346Y035768D01*
X027331Y035752D01*
X027328Y035750D01*
X027324Y035744D01*
X027315Y035735D01*
X027307Y035722D01*
X027296Y035706D01*
X027285Y035689D01*
X027274Y035667D01*
X027265Y035643D01*
X027263Y035641D01*
X027261Y035632D01*
X027256Y035619D01*
X027252Y035601D01*
X027248Y035580D01*
X027245Y035553D01*
X027241Y035525D01*
Y035494D01*
Y035459D01*
X027740D01*
Y035457D01*
Y035451D01*
X027737Y035440D01*
X027735Y035426D01*
X027731Y035396D01*
X027722Y035363D01*
Y035361D01*
X027720Y035357D01*
X027716Y035350D01*
X027711Y035341D01*
X027698Y035319D01*
X027683Y035297D01*
X027681D01*
X027678Y035293D01*
X027665Y035282D01*
X027648Y035269D01*
X027626Y035258D01*
X027624D01*
X027619Y035256D01*
X027613Y035254D01*
X027604D01*
X027582Y035249D01*
X027556Y035247D01*
X027538D01*
X027521Y035249D01*
X027501Y035252D01*
X027499D01*
X027497Y035254D01*
X027486Y035256D01*
X027471Y035262D01*
X027455Y035271D01*
X027451Y035273D01*
X027442Y035280D01*
X027431Y035291D01*
X027420Y035306D01*
X027418Y035311D01*
X027414Y035322D01*
X027407Y035337D01*
X027403Y035357D01*
X027254D01*
Y035354D01*
X027256Y035348D01*
X027258Y035339D01*
X027261Y035326D01*
X027272Y035297D01*
X027289Y035265D01*
X027291Y035262D01*
X027293Y035258D01*
X027300Y035252D01*
X027307Y035241D01*
X027328Y035219D01*
X027355Y035197D01*
X027357Y035195D01*
X027361Y035192D01*
X027370Y035188D01*
X027381Y035182D01*
X027394Y035175D01*
X027409Y035168D01*
X027447Y035155D01*
X027449D01*
X027455Y035153D01*
X027466Y035151D01*
X027479Y035149D01*
X027495Y035147D01*
X027514Y035144D01*
X027556Y035142D01*
X027569D01*
X027584Y035144D01*
X027604D01*
X027626Y035149D01*
X027650Y035153D01*
X027676Y035157D01*
X027700Y035166D01*
X027702Y035168D01*
X027711Y035171D01*
X027722Y035177D01*
X027737Y035184D01*
X027772Y035206D01*
X027807Y035234D01*
X027810Y035236D01*
X027814Y035243D01*
X027823Y035252D01*
X027831Y035265D01*
X027842Y035282D01*
X027853Y035300D01*
X027864Y035322D01*
X027873Y035346D01*
Y035348D01*
X027877Y035357D01*
X027880Y035372D01*
X027884Y035389D01*
X027888Y035411D01*
X027891Y035435D01*
X027895Y035464D01*
Y035494D01*
Y035499D01*
Y035507D01*
X027893Y035523D01*
Y035542D01*
X027891Y035566D01*
X027886Y035591D01*
X027873Y035641D01*
X027871Y035643D01*
X027869Y035652D01*
X027862Y035665D01*
X027856Y035680D01*
X027836Y035715D01*
X027807Y035750D01*
X027805Y035752D01*
X027799Y035757D01*
X027790Y035765D01*
X027779Y035776D01*
X027764Y035787D01*
X027746Y035798D01*
X027705Y035820D01*
X027702Y035822D01*
X027694Y035825D01*
X027681Y035829D01*
X027665Y035833D01*
X027643Y035838D01*
X027622Y035840D01*
X027595Y035844D01*
D02*
G37*
G36*
X028223Y035997D02*
X028072D01*
Y035829D01*
X027963D01*
Y035717D01*
X028072D01*
Y035363D01*
Y035361D01*
Y035359D01*
Y035343D01*
X028070Y035328D01*
X028068Y035311D01*
Y035308D01*
X028065Y035300D01*
X028061Y035289D01*
X028057Y035278D01*
X028055Y035276D01*
X028050Y035271D01*
X028044Y035267D01*
X028037Y035262D01*
X028028D01*
X028020Y035260D01*
X027971D01*
X027961Y035262D01*
X027950Y035265D01*
Y035157D01*
X027954D01*
X027963Y035155D01*
X027978Y035153D01*
X027993Y035151D01*
X028006D01*
X028022Y035149D01*
X028061D01*
X028074Y035151D01*
X028103Y035153D01*
X028133Y035160D01*
X028135D01*
X028140Y035162D01*
X028153Y035168D01*
X028170Y035179D01*
X028188Y035195D01*
Y035197D01*
X028190Y035199D01*
X028199Y035212D01*
X028208Y035232D01*
X028216Y035258D01*
Y035260D01*
Y035265D01*
X028219Y035273D01*
Y035282D01*
X028221Y035295D01*
Y035311D01*
X028223Y035346D01*
Y035717D01*
X028308D01*
Y035829D01*
X028223D01*
Y035997D01*
D02*
G37*
G36*
X028610D02*
X028459D01*
Y035829D01*
X028350D01*
Y035717D01*
X028459D01*
Y035363D01*
Y035361D01*
Y035359D01*
Y035343D01*
X028457Y035328D01*
X028455Y035311D01*
Y035308D01*
X028453Y035300D01*
X028448Y035289D01*
X028444Y035278D01*
X028442Y035276D01*
X028437Y035271D01*
X028431Y035267D01*
X028424Y035262D01*
X028415D01*
X028407Y035260D01*
X028359D01*
X028348Y035262D01*
X028337Y035265D01*
Y035157D01*
X028341D01*
X028350Y035155D01*
X028365Y035153D01*
X028380Y035151D01*
X028394D01*
X028409Y035149D01*
X028448D01*
X028461Y035151D01*
X028490Y035153D01*
X028520Y035160D01*
X028523D01*
X028527Y035162D01*
X028540Y035168D01*
X028558Y035179D01*
X028575Y035195D01*
Y035197D01*
X028577Y035199D01*
X028586Y035212D01*
X028595Y035232D01*
X028603Y035258D01*
Y035260D01*
Y035265D01*
X028606Y035273D01*
Y035282D01*
X028608Y035295D01*
Y035311D01*
X028610Y035346D01*
Y035717D01*
X028695D01*
Y035829D01*
X028610D01*
Y035997D01*
D02*
G37*
G36*
X035103Y035844D02*
X035055D01*
X035040Y035842D01*
X035025Y035840D01*
X035007Y035838D01*
X034970Y035829D01*
X034968D01*
X034961Y035827D01*
X034952Y035822D01*
X034939Y035818D01*
X034911Y035805D01*
X034882Y035785D01*
X034880Y035783D01*
X034876Y035781D01*
X034869Y035774D01*
X034860Y035765D01*
X034841Y035744D01*
X034823Y035715D01*
X034821Y035713D01*
X034819Y035709D01*
X034815Y035700D01*
X034810Y035687D01*
X034806Y035674D01*
X034799Y035656D01*
X034793Y035617D01*
X034939D01*
Y035619D01*
Y035621D01*
X034941Y035632D01*
X034946Y035647D01*
X034952Y035665D01*
X034955Y035669D01*
X034959Y035678D01*
X034970Y035689D01*
X034981Y035702D01*
X034983Y035704D01*
X034992Y035711D01*
X035007Y035717D01*
X035025Y035724D01*
X035029Y035726D01*
X035040Y035728D01*
X035055Y035730D01*
X035075Y035733D01*
X035088D01*
X035099Y035730D01*
X035121Y035726D01*
X035147Y035717D01*
X035149D01*
X035151Y035715D01*
X035164Y035706D01*
X035182Y035691D01*
X035202Y035671D01*
Y035669D01*
X035206Y035667D01*
X035208Y035660D01*
X035215Y035652D01*
X035226Y035628D01*
X035237Y035597D01*
Y035595D01*
X035239Y035588D01*
X035241Y035580D01*
Y035569D01*
X035243Y035553D01*
X035245Y035536D01*
X035248Y035494D01*
Y035492D01*
Y035483D01*
Y035472D01*
X035245Y035457D01*
X035243Y035424D01*
X035237Y035387D01*
Y035385D01*
X035234Y035381D01*
X035232Y035372D01*
X035228Y035361D01*
X035217Y035337D01*
X035202Y035313D01*
X035199Y035311D01*
X035197Y035308D01*
X035186Y035295D01*
X035169Y035280D01*
X035147Y035267D01*
X035145D01*
X035140Y035265D01*
X035134Y035262D01*
X035125Y035260D01*
X035103Y035256D01*
X035075Y035254D01*
X035060D01*
X035042Y035256D01*
X035025Y035260D01*
X035022D01*
X035020Y035262D01*
X035009Y035267D01*
X034996Y035273D01*
X034983Y035284D01*
X034979Y035287D01*
X034972Y035295D01*
X034961Y035306D01*
X034952Y035319D01*
X034950Y035324D01*
X034946Y035335D01*
X034941Y035350D01*
X034939Y035367D01*
X034793D01*
Y035365D01*
X034795Y035359D01*
X034797Y035348D01*
X034799Y035335D01*
X034810Y035304D01*
X034825Y035269D01*
Y035267D01*
X034830Y035262D01*
X034834Y035254D01*
X034841Y035245D01*
X034860Y035223D01*
X034885Y035199D01*
X034887Y035197D01*
X034891Y035195D01*
X034898Y035190D01*
X034909Y035184D01*
X034922Y035177D01*
X034935Y035171D01*
X034970Y035157D01*
X034972D01*
X034979Y035155D01*
X034987Y035153D01*
X035000Y035151D01*
X035016Y035147D01*
X035033Y035144D01*
X035075Y035142D01*
X035088D01*
X035103Y035144D01*
X035121D01*
X035143Y035147D01*
X035164Y035151D01*
X035213Y035164D01*
X035215Y035166D01*
X035221Y035168D01*
X035234Y035175D01*
X035248Y035182D01*
X035280Y035203D01*
X035315Y035232D01*
X035318Y035234D01*
X035322Y035241D01*
X035331Y035249D01*
X035339Y035262D01*
X035350Y035280D01*
X035361Y035297D01*
X035372Y035319D01*
X035381Y035343D01*
Y035346D01*
X035385Y035354D01*
X035388Y035370D01*
X035392Y035387D01*
X035396Y035409D01*
X035398Y035435D01*
X035403Y035464D01*
Y035494D01*
Y035499D01*
Y035507D01*
X035401Y035525D01*
Y035545D01*
X035398Y035566D01*
X035394Y035593D01*
X035381Y035643D01*
X035379Y035645D01*
X035377Y035654D01*
X035370Y035667D01*
X035364Y035682D01*
X035344Y035717D01*
X035315Y035752D01*
X035313Y035755D01*
X035307Y035759D01*
X035298Y035768D01*
X035287Y035779D01*
X035272Y035790D01*
X035254Y035800D01*
X035234Y035811D01*
X035213Y035820D01*
X035210Y035822D01*
X035202Y035825D01*
X035189Y035829D01*
X035173Y035833D01*
X035151Y035838D01*
X035129Y035840D01*
X035103Y035844D01*
D02*
G37*
G36*
X037662D02*
X037620D01*
X037607Y035842D01*
X037590D01*
X037568Y035838D01*
X037546Y035833D01*
X037522Y035829D01*
X037500Y035820D01*
X037498D01*
X037489Y035816D01*
X037478Y035811D01*
X037465Y035803D01*
X037448Y035794D01*
X037430Y035783D01*
X037413Y035768D01*
X037397Y035752D01*
X037395Y035750D01*
X037391Y035744D01*
X037382Y035735D01*
X037373Y035722D01*
X037362Y035706D01*
X037351Y035689D01*
X037341Y035667D01*
X037332Y035643D01*
X037330Y035641D01*
X037327Y035632D01*
X037323Y035619D01*
X037319Y035601D01*
X037314Y035580D01*
X037312Y035553D01*
X037308Y035525D01*
Y035494D01*
Y035459D01*
X037806D01*
Y035457D01*
Y035451D01*
X037804Y035440D01*
X037802Y035426D01*
X037798Y035396D01*
X037789Y035363D01*
Y035361D01*
X037787Y035357D01*
X037782Y035350D01*
X037778Y035341D01*
X037765Y035319D01*
X037750Y035297D01*
X037747D01*
X037745Y035293D01*
X037732Y035282D01*
X037715Y035269D01*
X037693Y035258D01*
X037690D01*
X037686Y035256D01*
X037680Y035254D01*
X037671D01*
X037649Y035249D01*
X037623Y035247D01*
X037605D01*
X037588Y035249D01*
X037568Y035252D01*
X037566D01*
X037564Y035254D01*
X037553Y035256D01*
X037537Y035262D01*
X037522Y035271D01*
X037518Y035273D01*
X037509Y035280D01*
X037498Y035291D01*
X037487Y035306D01*
X037485Y035311D01*
X037481Y035322D01*
X037474Y035337D01*
X037470Y035357D01*
X037321D01*
Y035354D01*
X037323Y035348D01*
X037325Y035339D01*
X037327Y035326D01*
X037338Y035297D01*
X037356Y035265D01*
X037358Y035262D01*
X037360Y035258D01*
X037367Y035252D01*
X037373Y035241D01*
X037395Y035219D01*
X037421Y035197D01*
X037424Y035195D01*
X037428Y035192D01*
X037437Y035188D01*
X037448Y035182D01*
X037461Y035175D01*
X037476Y035168D01*
X037513Y035155D01*
X037516D01*
X037522Y035153D01*
X037533Y035151D01*
X037546Y035149D01*
X037561Y035147D01*
X037581Y035144D01*
X037623Y035142D01*
X037636D01*
X037651Y035144D01*
X037671D01*
X037693Y035149D01*
X037717Y035153D01*
X037743Y035157D01*
X037767Y035166D01*
X037769Y035168D01*
X037778Y035171D01*
X037789Y035177D01*
X037804Y035184D01*
X037839Y035206D01*
X037874Y035234D01*
X037876Y035236D01*
X037881Y035243D01*
X037889Y035252D01*
X037898Y035265D01*
X037909Y035282D01*
X037920Y035300D01*
X037931Y035322D01*
X037940Y035346D01*
Y035348D01*
X037944Y035357D01*
X037946Y035372D01*
X037951Y035389D01*
X037955Y035411D01*
X037957Y035435D01*
X037962Y035464D01*
Y035494D01*
Y035499D01*
Y035507D01*
X037959Y035523D01*
Y035542D01*
X037957Y035566D01*
X037953Y035591D01*
X037940Y035641D01*
X037938Y035643D01*
X037935Y035652D01*
X037929Y035665D01*
X037922Y035680D01*
X037903Y035715D01*
X037874Y035750D01*
X037872Y035752D01*
X037865Y035757D01*
X037857Y035765D01*
X037846Y035776D01*
X037830Y035787D01*
X037813Y035798D01*
X037771Y035820D01*
X037769Y035822D01*
X037760Y035825D01*
X037747Y035829D01*
X037732Y035833D01*
X037710Y035838D01*
X037688Y035840D01*
X037662Y035844D01*
D02*
G37*
G36*
X029089D02*
X029065D01*
X029050Y035842D01*
X029030D01*
X029010Y035840D01*
X028971Y035833D01*
X028969D01*
X028962Y035831D01*
X028951Y035829D01*
X028940Y035825D01*
X028910Y035811D01*
X028877Y035794D01*
X028875Y035792D01*
X028870Y035790D01*
X028864Y035783D01*
X028855Y035774D01*
X028846Y035763D01*
X028835Y035752D01*
X028820Y035720D01*
Y035717D01*
X028818Y035711D01*
X028813Y035700D01*
X028809Y035687D01*
X028807Y035669D01*
X028803Y035647D01*
X028800Y035621D01*
Y035593D01*
Y035157D01*
X028949D01*
Y035221D01*
X028953Y035217D01*
X028964Y035208D01*
X028984Y035197D01*
X029012Y035182D01*
X029045Y035166D01*
X029085Y035155D01*
X029131Y035147D01*
X029181Y035142D01*
X029198D01*
X029209Y035144D01*
X029238Y035149D01*
X029271Y035155D01*
X029273D01*
X029277Y035157D01*
X029286Y035160D01*
X029295Y035164D01*
X029319Y035175D01*
X029345Y035190D01*
X029347Y035192D01*
X029349Y035195D01*
X029362Y035208D01*
X029380Y035225D01*
X029395Y035252D01*
Y035254D01*
X029397Y035258D01*
X029400Y035267D01*
X029404Y035276D01*
X029406Y035289D01*
X029410Y035304D01*
X029413Y035337D01*
Y035339D01*
Y035341D01*
Y035348D01*
X029410Y035357D01*
X029408Y035376D01*
X029400Y035402D01*
X029389Y035431D01*
X029371Y035461D01*
X029345Y035488D01*
X029330Y035501D01*
X029312Y035512D01*
X029310D01*
X029308Y035514D01*
X029301Y035518D01*
X029292Y035521D01*
X029281Y035525D01*
X029271Y035531D01*
X029253Y035536D01*
X029236Y035542D01*
X029216Y035547D01*
X029194Y035551D01*
X029168Y035558D01*
X029141Y035562D01*
X029111Y035566D01*
X029080Y035569D01*
X029045Y035571D01*
X028951D01*
Y035573D01*
Y035575D01*
Y035588D01*
Y035606D01*
X028953Y035623D01*
Y035626D01*
Y035628D01*
Y035636D01*
Y035650D01*
X028956Y035660D01*
Y035663D01*
X028958Y035667D01*
X028962Y035680D01*
X028973Y035698D01*
X028988Y035715D01*
X028991Y035717D01*
X028995Y035720D01*
X029004Y035724D01*
X029015Y035730D01*
X029030Y035735D01*
X029047Y035739D01*
X029069Y035741D01*
X029096Y035744D01*
X029107D01*
X029120Y035741D01*
X029137D01*
X029172Y035733D01*
X029192Y035726D01*
X029207Y035717D01*
X029209Y035715D01*
X029214Y035713D01*
X029218Y035706D01*
X029225Y035698D01*
X029233Y035687D01*
X029238Y035671D01*
X029242Y035656D01*
X029244Y035636D01*
X029389D01*
Y035639D01*
X029386Y035645D01*
Y035656D01*
X029382Y035669D01*
X029378Y035685D01*
X029369Y035702D01*
X029360Y035722D01*
X029347Y035741D01*
X029330Y035759D01*
X029310Y035779D01*
X029286Y035796D01*
X029257Y035811D01*
X029222Y035825D01*
X029183Y035835D01*
X029139Y035842D01*
X029089Y035844D01*
D02*
G37*
G36*
X038845Y036087D02*
X038406D01*
X038386Y036085D01*
X038366D01*
X038342Y036083D01*
X038296Y036074D01*
X038294D01*
X038285Y036072D01*
X038274Y036067D01*
X038259Y036063D01*
X038224Y036050D01*
X038189Y036030D01*
X038187Y036028D01*
X038183Y036024D01*
X038174Y036017D01*
X038163Y036008D01*
X038152Y035997D01*
X038141Y035984D01*
X038119Y035949D01*
X038117Y035947D01*
X038115Y035940D01*
X038110Y035929D01*
X038106Y035914D01*
X038102Y035897D01*
X038097Y035875D01*
X038093Y035851D01*
Y035825D01*
Y035820D01*
Y035809D01*
X038095Y035790D01*
X038099Y035768D01*
X038106Y035741D01*
X038117Y035715D01*
X038130Y035689D01*
X038148Y035663D01*
X038150Y035660D01*
X038156Y035654D01*
X038169Y035643D01*
X038185Y035630D01*
X038207Y035617D01*
X038233Y035604D01*
X038261Y035593D01*
X038296Y035584D01*
X038294D01*
X038288Y035580D01*
X038279Y035575D01*
X038266Y035569D01*
X038253Y035560D01*
X038239Y035549D01*
X038224Y035534D01*
X038211Y035518D01*
X038209Y035516D01*
X038204Y035510D01*
X038198Y035501D01*
X038189Y035488D01*
X038180Y035472D01*
X038169Y035453D01*
X038161Y035429D01*
X038150Y035405D01*
X038056Y035157D01*
X038224D01*
X038307Y035394D01*
X038309Y035396D01*
X038312Y035405D01*
X038318Y035418D01*
X038325Y035433D01*
X038349Y035468D01*
X038362Y035483D01*
X038377Y035499D01*
X038379Y035501D01*
X038386Y035505D01*
X038395Y035510D01*
X038408Y035518D01*
X038425Y035525D01*
X038445Y035529D01*
X038467Y035534D01*
X038493Y035536D01*
X038690D01*
Y035157D01*
X038845D01*
Y036087D01*
D02*
G37*
G36*
X026633Y035829D02*
X026484D01*
Y035157D01*
X026633D01*
Y035829D01*
D02*
G37*
G36*
X026780Y035844D02*
X026764D01*
X026755Y035842D01*
X026736D01*
X026725Y035840D01*
Y035700D01*
X026727D01*
X026736Y035702D01*
X026747Y035704D01*
X026764D01*
X026773Y035706D01*
X026819D01*
X026830Y035704D01*
X026858Y035698D01*
X026889Y035685D01*
X026891D01*
X026895Y035680D01*
X026902Y035676D01*
X026913Y035667D01*
X026924Y035658D01*
X026935Y035647D01*
X026948Y035632D01*
X026961Y035617D01*
Y035157D01*
X027110D01*
Y035829D01*
X026963D01*
Y035730D01*
X026961Y035733D01*
X026957Y035739D01*
X026948Y035750D01*
X026937Y035763D01*
X026911Y035790D01*
X026895Y035805D01*
X026878Y035816D01*
X026876Y035818D01*
X026869Y035820D01*
X026860Y035825D01*
X026847Y035831D01*
X026834Y035835D01*
X026817Y035840D01*
X026799Y035842D01*
X026780Y035844D01*
D02*
G37*
G36*
X030226Y036087D02*
X029857D01*
X029839Y036085D01*
X029817Y036083D01*
X029795Y036080D01*
X029749Y036069D01*
X029747D01*
X029739Y036067D01*
X029728Y036063D01*
X029714Y036059D01*
X029682Y036043D01*
X029649Y036024D01*
X029647Y036021D01*
X029642Y036019D01*
X029634Y036013D01*
X029625Y036004D01*
X029605Y035980D01*
X029585Y035949D01*
Y035947D01*
X029581Y035943D01*
X029579Y035932D01*
X029575Y035921D01*
X029570Y035905D01*
X029568Y035888D01*
X029564Y035849D01*
Y035846D01*
Y035838D01*
X029566Y035825D01*
X029568Y035809D01*
X029572Y035790D01*
X029577Y035770D01*
X029585Y035750D01*
X029596Y035730D01*
X029599Y035728D01*
X029603Y035722D01*
X029610Y035713D01*
X029620Y035702D01*
X029636Y035689D01*
X029653Y035676D01*
X029675Y035663D01*
X029699Y035650D01*
X029697D01*
X029693Y035647D01*
X029684Y035645D01*
X029673Y035641D01*
X029649Y035630D01*
X029623Y035615D01*
X029620D01*
X029616Y035610D01*
X029603Y035601D01*
X029583Y035586D01*
X029566Y035566D01*
Y035564D01*
X029561Y035562D01*
X029553Y035549D01*
X029542Y035527D01*
X029533Y035503D01*
Y035501D01*
X029531Y035496D01*
X029529Y035490D01*
X029526Y035481D01*
X029524Y035457D01*
X029522Y035429D01*
Y035426D01*
Y035422D01*
Y035416D01*
X029524Y035407D01*
X029526Y035383D01*
X029533Y035354D01*
X029544Y035322D01*
X029559Y035287D01*
X029581Y035254D01*
X029610Y035225D01*
X029614Y035223D01*
X029625Y035214D01*
X029647Y035203D01*
X029675Y035192D01*
X029712Y035179D01*
X029756Y035168D01*
X029809Y035160D01*
X029870Y035157D01*
X030226D01*
Y036087D01*
D02*
G37*
G36*
X031449Y015268D02*
X031304D01*
X031291Y015267D01*
X031280Y015266D01*
X031271Y015265D01*
X031266Y015264D01*
X031261Y015263D01*
X031258Y015262D01*
X031258D01*
X031248Y015259D01*
X031240Y015254D01*
X031233Y015250D01*
X031226Y015245D01*
X031222Y015240D01*
X031218Y015236D01*
X031216Y015233D01*
X031215Y015233D01*
X031210Y015224D01*
X031206Y015215D01*
X031203Y015206D01*
X031201Y015198D01*
X031200Y015190D01*
X031199Y015184D01*
Y015180D01*
Y015179D01*
Y015179D01*
X031201Y015163D01*
X031204Y015150D01*
X031208Y015138D01*
X031213Y015129D01*
X031218Y015122D01*
X031223Y015116D01*
X031225Y015113D01*
X031227Y015112D01*
X031232Y015107D01*
X031239Y015103D01*
X031252Y015098D01*
X031268Y015093D01*
X031283Y015090D01*
X031297Y015089D01*
X031303Y015088D01*
X031308D01*
X031313Y015087D01*
X031449D01*
Y015268D01*
D02*
G37*
G36*
X036855Y035844D02*
X036822D01*
X036809Y035842D01*
X036794D01*
X036776Y035838D01*
X036757Y035833D01*
X036737Y035829D01*
X036717Y035820D01*
X036715D01*
X036709Y035816D01*
X036700Y035809D01*
X036687Y035803D01*
X036660Y035781D01*
X036632Y035750D01*
X036630Y035748D01*
X036625Y035741D01*
X036619Y035733D01*
X036612Y035720D01*
X036604Y035702D01*
X036595Y035685D01*
X036586Y035663D01*
X036579Y035639D01*
Y035636D01*
X036577Y035628D01*
X036573Y035615D01*
X036569Y035597D01*
X036566Y035577D01*
X036562Y035553D01*
X036560Y035527D01*
Y035499D01*
Y035494D01*
Y035486D01*
Y035470D01*
X036562Y035453D01*
X036564Y035431D01*
X036569Y035407D01*
X036579Y035357D01*
Y035354D01*
X036582Y035346D01*
X036586Y035335D01*
X036593Y035319D01*
X036601Y035302D01*
X036610Y035282D01*
X036634Y035243D01*
X036636Y035241D01*
X036641Y035234D01*
X036647Y035225D01*
X036658Y035217D01*
X036671Y035203D01*
X036687Y035190D01*
X036722Y035168D01*
X036724D01*
X036730Y035164D01*
X036741Y035160D01*
X036757Y035155D01*
X036774Y035151D01*
X036796Y035147D01*
X036818Y035144D01*
X036844Y035142D01*
X036864D01*
X036879Y035144D01*
X036912Y035149D01*
X036947Y035157D01*
X036949D01*
X036953Y035160D01*
X036962Y035164D01*
X036973Y035171D01*
X036999Y035186D01*
X037028Y035208D01*
Y035206D01*
Y035203D01*
Y035188D01*
Y035168D01*
Y035149D01*
Y035147D01*
Y035144D01*
Y035131D01*
Y035114D01*
Y035092D01*
Y034899D01*
X037177D01*
Y035829D01*
X037030D01*
Y035748D01*
X037028Y035750D01*
X037023Y035755D01*
X037015Y035763D01*
X037004Y035774D01*
X036991Y035785D01*
X036975Y035796D01*
X036940Y035818D01*
X036938Y035820D01*
X036932Y035822D01*
X036921Y035827D01*
X036908Y035831D01*
X036892Y035835D01*
X036875Y035840D01*
X036855Y035844D01*
D02*
G37*
G36*
X025336D02*
X025314D01*
X025288Y035842D01*
X025260Y035838D01*
X025225Y035833D01*
X025192Y035825D01*
X025159Y035811D01*
X025131Y035796D01*
X025128Y035794D01*
X025120Y035787D01*
X025109Y035776D01*
X025096Y035761D01*
X025082Y035739D01*
X025071Y035715D01*
X025063Y035687D01*
X025058Y035652D01*
X025201D01*
Y035656D01*
X025203Y035667D01*
X025209Y035680D01*
X025218Y035698D01*
X025233Y035715D01*
X025257Y035728D01*
X025271Y035735D01*
X025288Y035739D01*
X025308Y035744D01*
X025345D01*
X025362Y035741D01*
X025380Y035737D01*
X025384D01*
X025393Y035733D01*
X025406Y035728D01*
X025419Y035722D01*
X025421Y035720D01*
X025428Y035715D01*
X025437Y035706D01*
X025445Y035695D01*
X025448Y035693D01*
X025450Y035687D01*
X025452Y035676D01*
X025454Y035663D01*
Y035660D01*
Y035652D01*
X025452Y035643D01*
X025450Y035632D01*
Y035630D01*
X025445Y035623D01*
X025439Y035617D01*
X025428Y035608D01*
X025424Y035606D01*
X025415Y035601D01*
X025400Y035597D01*
X025378Y035588D01*
X025375D01*
X025371Y035586D01*
X025365Y035584D01*
X025354Y035582D01*
X025340Y035577D01*
X025323Y035573D01*
X025305Y035569D01*
X025286Y035564D01*
X025284D01*
X025275Y035562D01*
X025262Y035558D01*
X025246Y035553D01*
X025211Y035542D01*
X025174Y035529D01*
X025172D01*
X025166Y035527D01*
X025157Y035523D01*
X025146Y035518D01*
X025122Y035505D01*
X025098Y035490D01*
X025096D01*
X025093Y035486D01*
X025080Y035475D01*
X025067Y035457D01*
X025054Y035435D01*
Y035433D01*
X025052Y035429D01*
X025050Y035422D01*
X025045Y035413D01*
X025041Y035389D01*
X025039Y035357D01*
Y035354D01*
Y035348D01*
Y035339D01*
X025041Y035328D01*
X025045Y035300D01*
X025056Y035269D01*
Y035267D01*
X025058Y035262D01*
X025063Y035256D01*
X025069Y035245D01*
X025085Y035223D01*
X025109Y035201D01*
X025111Y035199D01*
X025115Y035197D01*
X025122Y035192D01*
X025133Y035186D01*
X025146Y035177D01*
X025161Y035171D01*
X025196Y035157D01*
X025198D01*
X025205Y035155D01*
X025216Y035153D01*
X025231Y035151D01*
X025249Y035147D01*
X025271Y035144D01*
X025292Y035142D01*
X025343D01*
X025369Y035144D01*
X025400Y035149D01*
X025435Y035155D01*
X025472Y035164D01*
X025507Y035177D01*
X025537Y035195D01*
X025540Y035197D01*
X025548Y035206D01*
X025561Y035219D01*
X025575Y035236D01*
X025588Y035258D01*
X025601Y035287D01*
X025612Y035319D01*
X025616Y035357D01*
X025472D01*
Y035354D01*
Y035352D01*
X025470Y035339D01*
X025463Y035322D01*
X025452Y035300D01*
X025435Y035278D01*
X025421Y035269D01*
X025406Y035260D01*
X025391Y035254D01*
X025369Y035247D01*
X025347Y035245D01*
X025321Y035243D01*
X025310D01*
X025297Y035245D01*
X025281Y035247D01*
X025249Y035254D01*
X025233Y035260D01*
X025218Y035269D01*
X025216Y035271D01*
X025211Y035273D01*
X025207Y035280D01*
X025201Y035287D01*
X025187Y035308D01*
X025185Y035322D01*
X025183Y035337D01*
Y035339D01*
Y035341D01*
X025185Y035352D01*
X025190Y035367D01*
X025201Y035381D01*
X025203Y035383D01*
X025214Y035391D01*
X025229Y035400D01*
X025249Y035409D01*
X025251D01*
X025253Y035411D01*
X025260Y035413D01*
X025268Y035418D01*
X025288Y035424D01*
X025314Y035431D01*
X025316D01*
X025321Y035433D01*
X025327Y035435D01*
X025338Y035437D01*
X025362Y035442D01*
X025391Y035448D01*
X025393D01*
X025397Y035451D01*
X025406Y035453D01*
X025415Y035455D01*
X025439Y035464D01*
X025467Y035472D01*
X025470D01*
X025474Y035475D01*
X025480Y035479D01*
X025489Y035483D01*
X025511Y035494D01*
X025535Y035510D01*
X025537D01*
X025540Y035514D01*
X025550Y035525D01*
X025566Y035542D01*
X025581Y035564D01*
Y035566D01*
X025583Y035571D01*
X025585Y035577D01*
X025590Y035586D01*
X025592Y035599D01*
X025596Y035612D01*
X025599Y035645D01*
Y035647D01*
Y035652D01*
Y035660D01*
X025596Y035671D01*
X025592Y035698D01*
X025581Y035726D01*
Y035728D01*
X025577Y035733D01*
X025575Y035739D01*
X025568Y035748D01*
X025553Y035768D01*
X025531Y035790D01*
X025529Y035792D01*
X025524Y035794D01*
X025518Y035798D01*
X025507Y035805D01*
X025496Y035811D01*
X025480Y035818D01*
X025448Y035829D01*
X025445D01*
X025439Y035831D01*
X025428Y035833D01*
X025415Y035838D01*
X025397Y035840D01*
X025380Y035842D01*
X025336Y035844D01*
D02*
G37*
G36*
X032271Y036087D02*
X032101D01*
X031742Y035157D01*
X031904D01*
X032000Y035413D01*
X032367D01*
X032457Y035157D01*
X032612D01*
X032271Y036087D01*
D02*
G37*
G36*
X036429D02*
X036280D01*
Y035157D01*
X036429D01*
Y036087D01*
D02*
G37*
G36*
X033142D02*
X032971D01*
X032612Y035157D01*
X032774D01*
X032870Y035413D01*
X033238D01*
X033327Y035157D01*
X033483D01*
X033142Y036087D01*
D02*
G37*
G36*
X031401D02*
X031230D01*
X030871Y035157D01*
X031033D01*
X031129Y035413D01*
X031497D01*
X031587Y035157D01*
X031742D01*
X031401Y036087D01*
D02*
G37*
%LPD*%
G36*
X033131Y013247D02*
X033133Y013247D01*
X033135Y013246D01*
X033138Y013245D01*
X033141Y013244D01*
X033145Y013243D01*
X033149Y013242D01*
X033154Y013240D01*
X033160Y013239D01*
X033166Y013237D01*
X033173Y013236D01*
X033181Y013234D01*
X033189Y013233D01*
X033197Y013231D01*
X033207Y013230D01*
X033208D01*
X033211Y013229D01*
X033216Y013228D01*
X033222Y013227D01*
X033229Y013226D01*
X033236Y013224D01*
X033242Y013223D01*
X033247Y013221D01*
X033248D01*
X033249Y013219D01*
X033251Y013218D01*
X033254Y013217D01*
X033260Y013212D01*
X033266Y013206D01*
Y013205D01*
X033267Y013204D01*
X033267Y013202D01*
X033268Y013199D01*
X033269Y013196D01*
X033270Y013193D01*
X033271Y013188D01*
X033272Y013184D01*
Y013183D01*
Y013181D01*
X033271Y013177D01*
X033270Y013173D01*
X033268Y013168D01*
X033266Y013163D01*
X033262Y013158D01*
X033258Y013153D01*
X033257Y013152D01*
X033255Y013151D01*
X033252Y013149D01*
X033248Y013147D01*
X033242Y013145D01*
X033234Y013142D01*
X033226Y013141D01*
X033216Y013141D01*
X033212D01*
X033207Y013141D01*
X033201Y013142D01*
X033193Y013144D01*
X033185Y013146D01*
X033177Y013148D01*
X033169Y013152D01*
X033168Y013153D01*
X033166Y013154D01*
X033162Y013157D01*
X033157Y013161D01*
X033153Y013165D01*
X033147Y013171D01*
X033143Y013177D01*
X033138Y013184D01*
X033138Y013185D01*
X033137Y013187D01*
X033136Y013191D01*
X033135Y013196D01*
X033133Y013203D01*
X033132Y013210D01*
X033131Y013219D01*
X033131Y013230D01*
X033130Y013248D01*
X033131D01*
X033131Y013247D01*
D02*
G37*
G36*
X030946Y013352D02*
X030952Y013351D01*
X030959Y013349D01*
X030967Y013346D01*
X030976Y013341D01*
X030985Y013335D01*
X030989Y013331D01*
X030993Y013326D01*
Y013326D01*
X030994Y013325D01*
X030995Y013324D01*
X030996Y013322D01*
X030998Y013319D01*
X031000Y013316D01*
X031001Y013312D01*
X031003Y013307D01*
X031006Y013302D01*
X031007Y013296D01*
X031009Y013289D01*
X031011Y013282D01*
X031012Y013275D01*
X031013Y013266D01*
X031014Y013257D01*
Y013247D01*
Y013246D01*
Y013245D01*
Y013242D01*
X031013Y013238D01*
Y013234D01*
X031013Y013229D01*
X031011Y013217D01*
X031008Y013205D01*
X031005Y013192D01*
X030999Y013179D01*
X030996Y013174D01*
X030992Y013168D01*
X030991D01*
X030991Y013167D01*
X030988Y013164D01*
X030983Y013160D01*
X030977Y013156D01*
X030970Y013151D01*
X030960Y013146D01*
X030951Y013144D01*
X030945Y013143D01*
X030940Y013142D01*
X030937D01*
X030935Y013143D01*
X030929Y013144D01*
X030922Y013146D01*
X030913Y013148D01*
X030905Y013153D01*
X030896Y013159D01*
X030892Y013163D01*
X030888Y013167D01*
Y013168D01*
X030887Y013168D01*
X030886Y013170D01*
X030884Y013172D01*
X030883Y013175D01*
X030881Y013177D01*
X030879Y013182D01*
X030877Y013186D01*
X030875Y013191D01*
X030873Y013197D01*
X030871Y013203D01*
X030869Y013210D01*
X030868Y013217D01*
X030867Y013225D01*
X030866Y013234D01*
Y013243D01*
Y013243D01*
Y013246D01*
Y013248D01*
X030866Y013252D01*
Y013257D01*
X030867Y013262D01*
X030868Y013268D01*
X030869Y013275D01*
X030871Y013288D01*
X030875Y013301D01*
X030881Y013314D01*
X030884Y013320D01*
X030888Y013325D01*
Y013326D01*
X030889Y013326D01*
X030892Y013330D01*
X030896Y013334D01*
X030902Y013339D01*
X030910Y013344D01*
X030919Y013348D01*
X030930Y013351D01*
X030935Y013352D01*
X030941Y013352D01*
X030944D01*
X030946Y013352D01*
D02*
G37*
G36*
X033194Y035536D02*
X032910D01*
X033050Y035921D01*
X033063D01*
X033194Y035536D01*
D02*
G37*
G36*
X030240Y013352D02*
X030246Y013351D01*
X030253Y013349D01*
X030262Y013346D01*
X030271Y013341D01*
X030279Y013335D01*
X030284Y013331D01*
X030288Y013326D01*
Y013326D01*
X030289Y013325D01*
X030290Y013324D01*
X030291Y013322D01*
X030293Y013319D01*
X030295Y013316D01*
X030297Y013312D01*
X030299Y013308D01*
X030301Y013303D01*
X030303Y013297D01*
X030305Y013291D01*
X030306Y013284D01*
X030307Y013277D01*
X030308Y013269D01*
X030310Y013261D01*
Y013252D01*
Y013251D01*
Y013249D01*
Y013247D01*
X030309Y013243D01*
Y013239D01*
X030308Y013233D01*
X030307Y013222D01*
X030304Y013209D01*
X030301Y013196D01*
X030295Y013183D01*
X030292Y013178D01*
X030288Y013173D01*
X030287Y013172D01*
X030284Y013169D01*
X030280Y013165D01*
X030273Y013161D01*
X030266Y013156D01*
X030257Y013152D01*
X030246Y013150D01*
X030241Y013149D01*
X030235Y013148D01*
X030231D01*
X030229Y013149D01*
X030223Y013150D01*
X030216Y013152D01*
X030207Y013154D01*
X030198Y013159D01*
X030189Y013165D01*
X030185Y013169D01*
X030181Y013173D01*
Y013174D01*
X030180Y013174D01*
X030178Y013176D01*
X030177Y013178D01*
X030176Y013180D01*
X030174Y013183D01*
X030172Y013187D01*
X030170Y013192D01*
X030168Y013197D01*
X030166Y013203D01*
X030164Y013209D01*
X030162Y013216D01*
X030161Y013223D01*
X030160Y013231D01*
X030159Y013241D01*
Y013250D01*
Y013251D01*
Y013252D01*
Y013255D01*
X030159Y013258D01*
Y013263D01*
X030160Y013267D01*
X030162Y013278D01*
X030164Y013291D01*
X030168Y013304D01*
X030174Y013316D01*
X030177Y013322D01*
X030181Y013326D01*
Y013327D01*
X030182Y013328D01*
X030185Y013330D01*
X030190Y013335D01*
X030196Y013340D01*
X030204Y013344D01*
X030213Y013348D01*
X030224Y013351D01*
X030229Y013352D01*
X030238D01*
X030240Y013352D01*
D02*
G37*
G36*
X026049Y035741D02*
X026064Y035737D01*
X026082Y035733D01*
X026099Y035724D01*
X026119Y035713D01*
X026137Y035698D01*
X026139Y035695D01*
X026143Y035689D01*
X026152Y035678D01*
X026161Y035663D01*
X026172Y035643D01*
X026180Y035621D01*
X026187Y035593D01*
X026193Y035560D01*
X025852D01*
Y035562D01*
X025854Y035569D01*
Y035577D01*
X025857Y035588D01*
X025863Y035615D01*
X025874Y035643D01*
Y035645D01*
X025876Y035650D01*
X025885Y035663D01*
X025896Y035682D01*
X025911Y035700D01*
X025916Y035704D01*
X025927Y035713D01*
X025942Y035724D01*
X025964Y035733D01*
X025966D01*
X025968Y035735D01*
X025981Y035739D01*
X026001Y035741D01*
X026025Y035744D01*
X026036D01*
X026049Y035741D01*
D02*
G37*
G36*
X038690Y035667D02*
X038430D01*
X038417Y035669D01*
X038388Y035671D01*
X038360Y035676D01*
X038358D01*
X038353Y035678D01*
X038347Y035680D01*
X038338Y035682D01*
X038318Y035691D01*
X038298Y035702D01*
X038296D01*
X038294Y035704D01*
X038285Y035715D01*
X038274Y035728D01*
X038263Y035748D01*
Y035750D01*
X038261Y035752D01*
X038259Y035759D01*
X038257Y035768D01*
X038255Y035790D01*
X038253Y035816D01*
Y035820D01*
Y035829D01*
X038255Y035842D01*
X038257Y035857D01*
X038263Y035875D01*
X038270Y035892D01*
X038281Y035910D01*
X038296Y035925D01*
X038298Y035927D01*
X038305Y035932D01*
X038316Y035936D01*
X038329Y035945D01*
X038349Y035951D01*
X038373Y035956D01*
X038399Y035960D01*
X038432Y035962D01*
X038690D01*
Y035667D01*
D02*
G37*
G36*
X030073Y035702D02*
X029872D01*
X029857Y035704D01*
X029839Y035706D01*
X029795Y035715D01*
X029776Y035722D01*
X029758Y035730D01*
X029756Y035733D01*
X029752Y035737D01*
X029745Y035744D01*
X029736Y035755D01*
X029728Y035768D01*
X029721Y035785D01*
X029717Y035807D01*
X029714Y035831D01*
Y035833D01*
Y035835D01*
X029717Y035849D01*
X029719Y035866D01*
X029725Y035886D01*
Y035888D01*
X029728Y035890D01*
X029732Y035899D01*
X029743Y035912D01*
X029756Y035925D01*
X029760Y035927D01*
X029771Y035934D01*
X029789Y035940D01*
X029813Y035947D01*
X029815D01*
X029819Y035949D01*
X029826D01*
X029837Y035951D01*
X029850Y035954D01*
X029863D01*
X029898Y035956D01*
X030073D01*
Y035702D01*
D02*
G37*
G36*
X037658Y035741D02*
X037673Y035737D01*
X037690Y035733D01*
X037708Y035724D01*
X037728Y035713D01*
X037745Y035698D01*
X037747Y035695D01*
X037752Y035689D01*
X037760Y035678D01*
X037769Y035663D01*
X037780Y035643D01*
X037789Y035621D01*
X037795Y035593D01*
X037802Y035560D01*
X037461D01*
Y035562D01*
X037463Y035569D01*
Y035577D01*
X037465Y035588D01*
X037472Y035615D01*
X037483Y035643D01*
Y035645D01*
X037485Y035650D01*
X037494Y035663D01*
X037505Y035682D01*
X037520Y035700D01*
X037524Y035704D01*
X037535Y035713D01*
X037551Y035724D01*
X037572Y035733D01*
X037575D01*
X037577Y035735D01*
X037590Y035739D01*
X037610Y035741D01*
X037634Y035744D01*
X037645D01*
X037658Y035741D01*
D02*
G37*
G36*
X027591D02*
X027606Y035737D01*
X027624Y035733D01*
X027641Y035724D01*
X027661Y035713D01*
X027678Y035698D01*
X027681Y035695D01*
X027685Y035689D01*
X027694Y035678D01*
X027702Y035663D01*
X027713Y035643D01*
X027722Y035621D01*
X027729Y035593D01*
X027735Y035560D01*
X027394D01*
Y035562D01*
X027396Y035569D01*
Y035577D01*
X027398Y035588D01*
X027405Y035615D01*
X027416Y035643D01*
Y035645D01*
X027418Y035650D01*
X027427Y035663D01*
X027438Y035682D01*
X027453Y035700D01*
X027457Y035704D01*
X027468Y035713D01*
X027484Y035724D01*
X027506Y035733D01*
X027508D01*
X027510Y035735D01*
X027523Y035739D01*
X027543Y035741D01*
X027567Y035744D01*
X027578D01*
X027591Y035741D01*
D02*
G37*
G36*
X034425D02*
X034441Y035737D01*
X034458Y035733D01*
X034476Y035724D01*
X034495Y035713D01*
X034513Y035698D01*
X034515Y035695D01*
X034519Y035689D01*
X034528Y035678D01*
X034537Y035663D01*
X034548Y035643D01*
X034557Y035621D01*
X034563Y035593D01*
X034570Y035560D01*
X034228D01*
Y035562D01*
X034231Y035569D01*
Y035577D01*
X034233Y035588D01*
X034239Y035615D01*
X034250Y035643D01*
Y035645D01*
X034253Y035650D01*
X034261Y035663D01*
X034272Y035682D01*
X034288Y035700D01*
X034292Y035704D01*
X034303Y035713D01*
X034318Y035724D01*
X034340Y035733D01*
X034342D01*
X034344Y035735D01*
X034357Y035739D01*
X034377Y035741D01*
X034401Y035744D01*
X034412D01*
X034425Y035741D01*
D02*
G37*
G36*
X032571Y014169D02*
X032421D01*
X032412Y014170D01*
X032402Y014171D01*
X032390Y014171D01*
X032378Y014173D01*
X032367Y014175D01*
X032356Y014178D01*
X032355Y014179D01*
X032352Y014180D01*
X032348Y014182D01*
X032342Y014185D01*
X032335Y014190D01*
X032329Y014195D01*
X032322Y014201D01*
X032317Y014209D01*
X032316Y014209D01*
X032315Y014212D01*
X032313Y014217D01*
X032310Y014222D01*
X032308Y014229D01*
X032305Y014236D01*
X032304Y014245D01*
X032303Y014254D01*
Y014254D01*
Y014255D01*
X032304Y014260D01*
X032305Y014266D01*
X032306Y014275D01*
X032310Y014284D01*
X032314Y014294D01*
X032321Y014303D01*
X032329Y014313D01*
X032331Y014314D01*
X032335Y014316D01*
X032340Y014320D01*
X032350Y014324D01*
X032361Y014329D01*
X032375Y014332D01*
X032392Y014335D01*
X032412Y014336D01*
X032571D01*
Y014169D01*
D02*
G37*
G36*
X031439Y013948D02*
X031295D01*
X031280Y013948D01*
X031273Y013949D01*
X031267Y013950D01*
X031267D01*
X031264Y013950D01*
X031259Y013951D01*
X031254Y013953D01*
X031242Y013957D01*
X031229Y013963D01*
X031229Y013964D01*
X031226Y013965D01*
X031224Y013967D01*
X031220Y013970D01*
X031216Y013975D01*
X031211Y013979D01*
X031207Y013985D01*
X031203Y013991D01*
X031202Y013992D01*
X031202Y013994D01*
X031200Y013999D01*
X031198Y014004D01*
X031196Y014010D01*
X031194Y014017D01*
X031194Y014026D01*
X031193Y014034D01*
Y014036D01*
Y014039D01*
X031194Y014045D01*
X031195Y014051D01*
X031197Y014058D01*
X031199Y014066D01*
X031203Y014074D01*
X031208Y014082D01*
X031209Y014083D01*
X031211Y014086D01*
X031214Y014090D01*
X031218Y014094D01*
X031224Y014099D01*
X031232Y014104D01*
X031240Y014109D01*
X031249Y014112D01*
X031251Y014113D01*
X031253Y014114D01*
X031260Y014115D01*
X031268Y014117D01*
X031278Y014118D01*
X031291Y014120D01*
X031306Y014121D01*
X031439D01*
Y013948D01*
D02*
G37*
G36*
X036879Y035728D02*
X036890Y035726D01*
X036918Y035720D01*
X036934Y035711D01*
X036949Y035702D01*
X036951Y035700D01*
X036956Y035698D01*
X036964Y035691D01*
X036975Y035682D01*
X036986Y035671D01*
X036999Y035658D01*
X037015Y035643D01*
X037028Y035626D01*
Y035324D01*
X037026Y035322D01*
X037021Y035317D01*
X037015Y035313D01*
X037006Y035304D01*
X036982Y035287D01*
X036953Y035271D01*
X036951D01*
X036947Y035269D01*
X036938Y035267D01*
X036927Y035262D01*
X036901Y035256D01*
X036870Y035254D01*
X036857D01*
X036844Y035256D01*
X036829Y035260D01*
X036809Y035269D01*
X036792Y035278D01*
X036772Y035293D01*
X036757Y035313D01*
X036754Y035315D01*
X036750Y035324D01*
X036744Y035339D01*
X036735Y035359D01*
X036728Y035385D01*
X036722Y035416D01*
X036717Y035453D01*
X036715Y035496D01*
Y035499D01*
Y035501D01*
Y035507D01*
Y035516D01*
X036717Y035536D01*
X036719Y035562D01*
X036724Y035591D01*
X036733Y035619D01*
X036741Y035647D01*
X036754Y035671D01*
X036757Y035674D01*
X036761Y035680D01*
X036770Y035691D01*
X036781Y035702D01*
X036796Y035711D01*
X036816Y035722D01*
X036838Y035728D01*
X036862Y035730D01*
X036870D01*
X036879Y035728D01*
D02*
G37*
G36*
X029063Y035472D02*
X029089Y035470D01*
X029117Y035466D01*
X029146Y035461D01*
X029174Y035453D01*
X029201Y035442D01*
X029203Y035440D01*
X029209Y035435D01*
X029220Y035429D01*
X029229Y035418D01*
X029240Y035405D01*
X029251Y035387D01*
X029257Y035367D01*
X029260Y035343D01*
Y035341D01*
Y035335D01*
X029257Y035326D01*
X029255Y035317D01*
X029251Y035304D01*
X029244Y035293D01*
X029236Y035282D01*
X029225Y035271D01*
X029222D01*
X029218Y035267D01*
X029209Y035265D01*
X029201Y035260D01*
X029185Y035256D01*
X029170Y035252D01*
X029152Y035249D01*
X029131Y035247D01*
X029113D01*
X029096Y035249D01*
X029076Y035252D01*
X029074D01*
X029072Y035254D01*
X029061Y035256D01*
X029045Y035262D01*
X029028Y035269D01*
X029026D01*
X029023Y035271D01*
X029012Y035278D01*
X028999Y035287D01*
X028984Y035297D01*
X028980Y035300D01*
X028973Y035308D01*
X028962Y035319D01*
X028951Y035332D01*
Y035475D01*
X029043D01*
X029063Y035472D01*
D02*
G37*
G36*
X035797D02*
X035823Y035470D01*
X035851Y035466D01*
X035880Y035461D01*
X035908Y035453D01*
X035934Y035442D01*
X035937Y035440D01*
X035943Y035435D01*
X035954Y035429D01*
X035963Y035418D01*
X035974Y035405D01*
X035985Y035387D01*
X035991Y035367D01*
X035993Y035343D01*
Y035341D01*
Y035335D01*
X035991Y035326D01*
X035989Y035317D01*
X035985Y035304D01*
X035978Y035293D01*
X035969Y035282D01*
X035958Y035271D01*
X035956D01*
X035952Y035267D01*
X035943Y035265D01*
X035934Y035260D01*
X035919Y035256D01*
X035904Y035252D01*
X035886Y035249D01*
X035864Y035247D01*
X035847D01*
X035829Y035249D01*
X035810Y035252D01*
X035807D01*
X035805Y035254D01*
X035794Y035256D01*
X035779Y035262D01*
X035762Y035269D01*
X035759D01*
X035757Y035271D01*
X035746Y035278D01*
X035733Y035287D01*
X035718Y035297D01*
X035713Y035300D01*
X035707Y035308D01*
X035696Y035319D01*
X035685Y035332D01*
Y035475D01*
X035777D01*
X035797Y035472D01*
D02*
G37*
G36*
X031439Y014181D02*
X031315D01*
X031305Y014182D01*
X031295Y014182D01*
X031285Y014183D01*
X031275Y014184D01*
X031267Y014186D01*
X031265Y014187D01*
X031262Y014187D01*
X031258Y014190D01*
X031252Y014193D01*
X031246Y014195D01*
X031240Y014200D01*
X031233Y014206D01*
X031228Y014211D01*
X031227Y014212D01*
X031226Y014214D01*
X031224Y014219D01*
X031221Y014224D01*
X031219Y014230D01*
X031217Y014237D01*
X031216Y014246D01*
X031215Y014255D01*
Y014257D01*
Y014260D01*
X031216Y014264D01*
X031216Y014270D01*
X031218Y014277D01*
X031220Y014284D01*
X031223Y014292D01*
X031227Y014299D01*
X031228Y014300D01*
X031229Y014302D01*
X031232Y014306D01*
X031236Y014309D01*
X031241Y014314D01*
X031247Y014318D01*
X031254Y014322D01*
X031262Y014325D01*
X031263D01*
X031267Y014327D01*
X031272Y014327D01*
X031280Y014329D01*
X031291Y014330D01*
X031303Y014331D01*
X031319Y014332D01*
X031439D01*
Y014181D01*
D02*
G37*
G36*
X033601Y013308D02*
X033500D01*
X033496Y013309D01*
X033492D01*
X033488Y013310D01*
X033477Y013311D01*
X033466Y013313D01*
X033454Y013316D01*
X033444Y013320D01*
X033439Y013323D01*
X033435Y013326D01*
X033434Y013328D01*
X033432Y013330D01*
X033429Y013334D01*
X033425Y013340D01*
X033421Y013347D01*
X033418Y013355D01*
X033416Y013365D01*
X033415Y013377D01*
Y013377D01*
Y013378D01*
Y013381D01*
X033415Y013385D01*
X033416Y013391D01*
X033417Y013397D01*
X033420Y013404D01*
X033423Y013411D01*
X033427Y013417D01*
X033427Y013418D01*
X033429Y013420D01*
X033432Y013423D01*
X033435Y013426D01*
X033440Y013430D01*
X033445Y013433D01*
X033451Y013437D01*
X033458Y013439D01*
X033459D01*
X033461Y013440D01*
X033464Y013441D01*
X033469Y013442D01*
X033475Y013442D01*
X033483Y013443D01*
X033493Y013443D01*
X033601D01*
Y013308D01*
D02*
G37*
G36*
X031524Y013352D02*
X031530Y013351D01*
X031537Y013349D01*
X031546Y013347D01*
X031555Y013343D01*
X031564Y013337D01*
X031573Y013330D01*
X031574Y013329D01*
X031576Y013326D01*
X031580Y013322D01*
X031584Y013315D01*
X031588Y013307D01*
X031592Y013298D01*
X031595Y013286D01*
X031597Y013273D01*
X031444D01*
Y013274D01*
Y013275D01*
X031444Y013277D01*
Y013279D01*
X031445Y013285D01*
X031447Y013293D01*
X031450Y013301D01*
X031452Y013310D01*
X031457Y013318D01*
X031462Y013325D01*
Y013325D01*
X031463Y013326D01*
X031465Y013329D01*
X031470Y013334D01*
X031477Y013338D01*
X031485Y013343D01*
X031495Y013348D01*
X031506Y013351D01*
X031512Y013352D01*
X031519Y013352D01*
X031522D01*
X031524Y013352D01*
D02*
G37*
G36*
X031453Y035536D02*
X031169D01*
X031309Y035921D01*
X031322D01*
X031453Y035536D01*
D02*
G37*
G36*
X032324D02*
X032039D01*
X032179Y035921D01*
X032192D01*
X032324Y035536D01*
D02*
G37*
G36*
X031927Y013308D02*
X031826D01*
X031822Y013309D01*
X031818D01*
X031814Y013310D01*
X031803Y013311D01*
X031792Y013313D01*
X031780Y013316D01*
X031770Y013320D01*
X031765Y013323D01*
X031761Y013326D01*
X031760Y013328D01*
X031758Y013330D01*
X031755Y013334D01*
X031751Y013340D01*
X031747Y013347D01*
X031744Y013355D01*
X031742Y013365D01*
X031741Y013377D01*
Y013377D01*
Y013378D01*
Y013381D01*
X031741Y013385D01*
X031742Y013391D01*
X031743Y013397D01*
X031745Y013404D01*
X031749Y013411D01*
X031753Y013417D01*
X031753Y013418D01*
X031755Y013420D01*
X031758Y013423D01*
X031761Y013426D01*
X031766Y013430D01*
X031771Y013433D01*
X031777Y013437D01*
X031784Y013439D01*
X031785D01*
X031787Y013440D01*
X031790Y013441D01*
X031795Y013442D01*
X031801Y013442D01*
X031809Y013443D01*
X031819Y013443D01*
X031927D01*
Y013308D01*
D02*
G37*
G36*
X030073Y035287D02*
X029859D01*
X029846Y035289D01*
X029830Y035291D01*
X029815Y035293D01*
X029778Y035304D01*
X029743Y035322D01*
X029728Y035332D01*
X029712Y035346D01*
X029699Y035363D01*
X029690Y035383D01*
X029684Y035405D01*
X029682Y035429D01*
Y035431D01*
Y035435D01*
Y035442D01*
X029684Y035451D01*
X029686Y035470D01*
X029693Y035492D01*
Y035494D01*
X029695Y035496D01*
X029701Y035510D01*
X029712Y035523D01*
X029728Y035538D01*
X029732Y035540D01*
X029745Y035547D01*
X029765Y035556D01*
X029791Y035562D01*
X029793D01*
X029798Y035564D01*
X029806D01*
X029817Y035566D01*
X029833Y035569D01*
X029850D01*
X029868Y035571D01*
X030073D01*
Y035287D01*
D02*
G37*
G36*
X032758Y013352D02*
X032764Y013351D01*
X032771Y013349D01*
X032780Y013347D01*
X032789Y013343D01*
X032798Y013337D01*
X032806Y013330D01*
X032807Y013329D01*
X032810Y013326D01*
X032813Y013322D01*
X032817Y013315D01*
X032822Y013307D01*
X032825Y013298D01*
X032829Y013286D01*
X032830Y013273D01*
X032677D01*
Y013274D01*
Y013275D01*
X032678Y013277D01*
Y013279D01*
X032679Y013285D01*
X032680Y013293D01*
X032683Y013301D01*
X032686Y013310D01*
X032690Y013318D01*
X032695Y013325D01*
Y013325D01*
X032696Y013326D01*
X032699Y013329D01*
X032704Y013334D01*
X032710Y013338D01*
X032718Y013343D01*
X032728Y013348D01*
X032740Y013351D01*
X032746Y013352D01*
X032752Y013352D01*
X032756D01*
X032758Y013352D01*
D02*
G37*
D19*
X031529Y046513D02*
G03*
X032024Y046308I000495J000495D01*
G01*
D02*
G03*
X032383Y046457I000000J000507D01*
G01*
X032424Y046728D02*
G03*
X032114Y047038I-000310J000000D01*
G01*
X031654Y046888D02*
G03*
X031464Y046698I000000J-000190D01*
G01*
X031654Y046888D02*
G03*
X031884Y047118I000000J000230D01*
G01*
X032244Y047648D02*
G03*
X031884Y047288I000000J-000360D01*
G01*
X032174Y046028D02*
G03*
X031904Y046298I-000270J000000D01*
G01*
X032174Y045908D02*
G03*
X031794Y046288I-000380J000000D01*
G01*
D02*
G03*
X031714Y046368I-000080J000000D01*
G01*
X031504Y046538D02*
G03*
X031464Y046578I-000040J000000D01*
G01*
Y046558D02*
G03*
X031604Y046418I000140J000000D01*
G01*
D02*
G03*
X031734Y046288I000130J000000D01*
G01*
X031774D02*
G03*
X031694Y046368I-000080J000000D01*
G01*
X031504D02*
G03*
X031574Y046298I000070J000000D01*
G01*
Y046288D02*
G03*
X031584Y046298I000000J000010D01*
G01*
X031464Y046558D02*
G03*
X031434Y046528I000000J-000030D01*
G01*
X031794Y045768D02*
G03*
X032518Y046127I000020J000870D01*
G01*
X031084Y046136D02*
G03*
X031794Y045768I000711J000502D01*
G01*
X032144Y046518D02*
G03*
X032114Y046548I-000030J000000D01*
G01*
X031994Y046288D02*
G03*
X032004Y046278I000010J000000D01*
G01*
Y046288D02*
G03*
X032074Y046358I000000J000070D01*
G01*
X031884D02*
G03*
X031804Y046278I000000J-000080D01*
G01*
X031844D02*
G03*
X031974Y046408I000000J000130D01*
G01*
D02*
G03*
X032114Y046548I000000J000140D01*
G01*
Y046568D02*
G03*
X032074Y046528I000000J-000040D01*
G01*
X031864Y046358D02*
G03*
X031784Y046278I000000J-000080D01*
G01*
D02*
G03*
X031404Y045898I000000J-000380D01*
G01*
X031674Y046288D02*
G03*
X031404Y046018I000000J-000270D01*
G01*
X031694Y047278D02*
G03*
X031334Y047638I-000360J000000D01*
G01*
X031694Y047108D02*
G03*
X031924Y046878I000230J000000D01*
G01*
X032114Y046688D02*
G03*
X031924Y046878I-000190J000000D01*
G01*
X031464Y047028D02*
G03*
X031154Y046718I000000J-000310D01*
G01*
X031196Y046447D02*
G03*
X031554Y046298I000358J000358D01*
G01*
D02*
G03*
X032049Y046503I000000J000700D01*
G01*
X031464Y046578D02*
X031529Y046513D01*
X032383Y046457D02*
X032424Y046498D01*
Y046728D01*
X031464Y046578D02*
Y046698D01*
X031884Y047118D02*
Y047268D01*
Y047358D01*
Y047268D02*
Y047288D01*
X031434Y046288D02*
X031794D01*
X031434D02*
X031794D01*
X031504Y046368D02*
X031714D01*
X031504D02*
Y046538D01*
X031464Y046558D02*
Y046578D01*
X031734Y046288D02*
X031774D01*
X031504Y046368D02*
X031694D01*
X031574Y046298D02*
X031584D01*
X031434Y046288D02*
X031574D01*
X031434D02*
Y046528D01*
X032144Y046278D02*
Y046518D01*
X032004Y046278D02*
X032144D01*
X031994Y046288D02*
X032004D01*
X031884Y046358D02*
X032074D01*
X031804Y046278D02*
X031844D01*
X032114Y046548D02*
Y046568D01*
X032074Y046358D02*
Y046528D01*
X031864Y046358D02*
X032074D01*
X031784Y046278D02*
X032144D01*
X031784D02*
X032144D01*
X031694Y047258D02*
Y047278D01*
Y047258D02*
Y047348D01*
Y047108D02*
Y047258D01*
X032114Y046568D02*
Y046688D01*
X031154Y046488D02*
Y046718D01*
Y046488D02*
X031196Y046447D01*
X032049Y046503D02*
X032114Y046568D01*
X031944Y046698D02*
Y046708D01*
X031634Y046698D02*
Y046708D01*
D30*
X035974Y027726D02*
G03*
X036114Y027726I000070J-000109D01*
G01*
X033341Y031398D02*
G03*
X033341Y031398I-001550J000000D01*
G01*
X028612Y021142D02*
X029715Y022618D01*
X028612Y019518D02*
Y021142D01*
Y019518D02*
X030246D01*
X031319Y020748D01*
Y022618D01*
X029715D02*
X031319D01*
D48*
X030517Y021683D02*
D03*
D49*
X029429Y020330D02*
D03*
M02*
