M48
;Layer_Color=9474304
;FILE_FORMAT=2:4
INCH
;TYPE=PLATED
T1F00S00C0.0157
T2F00S00C0.0354
T3F00S00C0.0961
T4F00S00C0.1250
T5F00S00C0.2130
%
T01
X031791Y017588
X033011Y016878
X033651Y018498
X033730Y019360
X034222Y018948
X034347Y019717
X033010Y021057
X032230Y021110
X032580Y023090
X031390Y023500
X033543Y024380
X033711Y024911
X035237Y025965
X036919Y026417
X037096Y025551
X037244Y024724
X037980Y030600
X031201Y025551
X027640Y024990
X027652Y022502
X028661Y023297
X030020Y022150
X030680Y020970
X029801Y017968
X025910Y036140
X026565Y039539
X026320Y040250
X026878Y040188
X026398Y042018
X025443Y042657
X028150Y042126
X030866Y043730
X034154Y043307
X036614
X037106Y035630
T02
X031291Y016043
X032291
X033291
X034291
X035291
X030291
X029291
T03
X041831Y024803
X021752
Y037992
X041831
T04
X021555Y013681
X042028
Y049114
X021555
T05
X031791Y031398
M30
