%FSAX24Y24*%
%MOIN*%
G70*
G01*
G75*
G04 Layer_Physical_Order=1*
G04 Layer_Color=255*
G04:AMPARAMS|DCode=10|XSize=24mil|YSize=59.1mil|CornerRadius=0.6mil|HoleSize=0mil|Usage=FLASHONLY|Rotation=90.000|XOffset=0mil|YOffset=0mil|HoleType=Round|Shape=RoundedRectangle|*
%AMROUNDEDRECTD10*
21,1,0.0240,0.0579,0,0,90.0*
21,1,0.0228,0.0591,0,0,90.0*
1,1,0.0012,0.0289,0.0114*
1,1,0.0012,0.0289,-0.0114*
1,1,0.0012,-0.0289,-0.0114*
1,1,0.0012,-0.0289,0.0114*
%
%ADD10ROUNDEDRECTD10*%
G04:AMPARAMS|DCode=11|XSize=24mil|YSize=59.1mil|CornerRadius=0.6mil|HoleSize=0mil|Usage=FLASHONLY|Rotation=0.000|XOffset=0mil|YOffset=0mil|HoleType=Round|Shape=RoundedRectangle|*
%AMROUNDEDRECTD11*
21,1,0.0240,0.0579,0,0,0.0*
21,1,0.0228,0.0591,0,0,0.0*
1,1,0.0012,0.0114,-0.0289*
1,1,0.0012,-0.0114,-0.0289*
1,1,0.0012,-0.0114,0.0289*
1,1,0.0012,0.0114,0.0289*
%
%ADD11ROUNDEDRECTD11*%
%ADD12R,0.2362X0.1969*%
%ADD13R,0.0276X0.0512*%
G04:AMPARAMS|DCode=14|XSize=21.7mil|YSize=68.9mil|CornerRadius=0mil|HoleSize=0mil|Usage=FLASHONLY|Rotation=45.000|XOffset=0mil|YOffset=0mil|HoleType=Round|Shape=Round|*
%AMOVALD14*
21,1,0.0472,0.0217,0.0000,0.0000,135.0*
1,1,0.0217,0.0167,-0.0167*
1,1,0.0217,-0.0167,0.0167*
%
%ADD14OVALD14*%

G04:AMPARAMS|DCode=15|XSize=21.7mil|YSize=68.9mil|CornerRadius=0mil|HoleSize=0mil|Usage=FLASHONLY|Rotation=135.000|XOffset=0mil|YOffset=0mil|HoleType=Round|Shape=Round|*
%AMOVALD15*
21,1,0.0472,0.0217,0.0000,0.0000,225.0*
1,1,0.0217,0.0167,0.0167*
1,1,0.0217,-0.0167,-0.0167*
%
%ADD15OVALD15*%

G04:AMPARAMS|DCode=16|XSize=70.9mil|YSize=63mil|CornerRadius=0mil|HoleSize=0mil|Usage=FLASHONLY|Rotation=225.000|XOffset=0mil|YOffset=0mil|HoleType=Round|Shape=Rectangle|*
%AMROTATEDRECTD16*
4,1,4,0.0028,0.0473,0.0473,0.0028,-0.0028,-0.0473,-0.0473,-0.0028,0.0028,0.0473,0.0*
%
%ADD16ROTATEDRECTD16*%

%ADD17R,0.0709X0.0630*%
%ADD18R,0.0512X0.0591*%
%ADD19C,0.0079*%
%ADD20R,0.0394X0.0394*%
%ADD21C,0.0591*%
%ADD22R,0.0591X0.0591*%
%ADD23C,0.1250*%
%ADD24C,0.0961*%
%ADD25C,0.0394*%
%ADD26C,0.2559*%
D10*
X024781Y046959D02*
D03*
Y046565D02*
D03*
Y046171D02*
D03*
Y045778D02*
D03*
Y045384D02*
D03*
Y044990D02*
D03*
Y044596D02*
D03*
Y044203D02*
D03*
X028010D02*
D03*
Y044596D02*
D03*
Y044990D02*
D03*
Y045384D02*
D03*
Y045778D02*
D03*
Y046171D02*
D03*
Y046565D02*
D03*
Y046959D02*
D03*
D11*
X025022Y043573D02*
D03*
X025415D02*
D03*
X025809D02*
D03*
X026203D02*
D03*
X026596D02*
D03*
X026990D02*
D03*
X027384D02*
D03*
X027778D02*
D03*
D12*
X039606Y019134D02*
D03*
X039843Y031378D02*
D03*
X024291Y019213D02*
D03*
X024016Y031339D02*
D03*
D13*
X031348Y049282D02*
D03*
Y048120D02*
D03*
X031781Y049282D02*
D03*
Y048120D02*
D03*
X032215Y049282D02*
D03*
Y048120D02*
D03*
D14*
X029164Y022231D02*
D03*
X029387Y022454D02*
D03*
X029609Y022676D02*
D03*
X029832Y022899D02*
D03*
X030055Y023122D02*
D03*
X030278Y023345D02*
D03*
X030500Y023567D02*
D03*
X030723Y023790D02*
D03*
X030946Y024013D02*
D03*
X031168Y024235D02*
D03*
X031391Y024458D02*
D03*
X034537Y021312D02*
D03*
X034314Y021090D02*
D03*
X034091Y020867D02*
D03*
X033869Y020644D02*
D03*
X033646Y020421D02*
D03*
X033423Y020199D02*
D03*
X033201Y019976D02*
D03*
X032978Y019753D02*
D03*
X032755Y019531D02*
D03*
X032532Y019308D02*
D03*
X032310Y019085D02*
D03*
D15*
Y024458D02*
D03*
X032532Y024235D02*
D03*
X032755Y024013D02*
D03*
X032978Y023790D02*
D03*
X033201Y023567D02*
D03*
X033423Y023345D02*
D03*
X033646Y023122D02*
D03*
X033869Y022899D02*
D03*
X034091Y022676D02*
D03*
X034314Y022454D02*
D03*
X034537Y022231D02*
D03*
X031391Y019085D02*
D03*
X031168Y019308D02*
D03*
X030946Y019531D02*
D03*
X030723Y019753D02*
D03*
X030500Y019976D02*
D03*
X030278Y020199D02*
D03*
X030055Y020421D02*
D03*
X029832Y020644D02*
D03*
X029609Y020867D02*
D03*
X029387Y021090D02*
D03*
X029164Y021312D02*
D03*
D16*
X033975Y025921D02*
D03*
X034755Y025141D02*
D03*
X028000Y019795D02*
D03*
X028780Y019016D02*
D03*
D17*
X029961Y043740D02*
D03*
Y044843D02*
D03*
X035315Y038504D02*
D03*
Y037402D02*
D03*
D18*
X035787Y018750D02*
D03*
X035039D02*
D03*
D19*
X026634Y040630D02*
X027127D01*
X028563Y042066D01*
X028740Y041993D02*
Y042347D01*
X026935Y040188D02*
X028740Y041993D01*
X028449Y042638D02*
X028740Y042347D01*
X026878Y040188D02*
X026935D01*
X026320Y040316D02*
X026634Y040630D01*
X026320Y040250D02*
Y040316D01*
X033156Y018002D02*
X033651Y018498D01*
X031693Y018002D02*
X033156D01*
X031291Y017600D02*
X031693Y018002D01*
X031291Y016043D02*
Y017600D01*
X034020Y025965D02*
X037085Y029031D01*
X033975Y025921D02*
X034020Y025965D01*
X035237D01*
X034154Y037461D02*
Y043307D01*
Y037461D02*
X037085Y034529D01*
Y029031D02*
Y034529D01*
X037569Y026594D02*
Y035167D01*
X037392Y027013D02*
Y034729D01*
X035315Y036806D02*
X037392Y034729D01*
X037106Y035630D02*
X037569Y035167D01*
X035315Y036806D02*
Y037402D01*
X035520Y025141D02*
X037392Y027013D01*
X036538Y025562D02*
X037569Y026594D01*
X026821Y036624D02*
X029245Y039049D01*
X026821Y035826D02*
Y036624D01*
X026644Y036697D02*
X026673Y036727D01*
X026644Y035899D02*
Y036697D01*
X026467Y036771D02*
X026486Y036790D01*
X025846Y039334D02*
X026289Y038891D01*
Y036046D02*
Y038891D01*
X026427Y035432D02*
X026821Y035826D01*
X026250Y035506D02*
X026644Y035899D01*
X026073Y035579D02*
X026467Y035973D01*
Y036771D01*
X025896Y035652D02*
X026289Y036046D01*
X026486Y036811D02*
X031585Y041909D01*
X026486Y036790D02*
Y036811D01*
X026673Y036732D02*
X029167Y039226D01*
X026673Y036727D02*
Y036732D01*
X029311Y043740D02*
X029961D01*
X028848Y044203D02*
X029311Y043740D01*
X028010Y044203D02*
X028848D01*
X024781D02*
X028010D01*
X037010Y024490D02*
X037244Y024724D01*
X037010Y021553D02*
Y024490D01*
X030752Y026000D02*
X031201Y025551D01*
X028020Y026000D02*
X030752D01*
X031346Y025140D02*
X031850Y024636D01*
X028291Y025140D02*
X031346D01*
X026673Y026758D02*
X028291Y025140D01*
X033204Y023567D02*
X034045Y024409D01*
X036538Y022631D02*
Y025562D01*
X025719Y031644D02*
Y035726D01*
X025413Y031339D02*
X025719Y031644D01*
X025896Y027373D02*
Y035652D01*
X026073Y027446D02*
Y035579D01*
X026250Y027519D02*
Y035506D01*
X026427Y027593D02*
Y035432D01*
X025719Y035726D02*
X025915Y035923D01*
X025896Y027373D02*
X026191Y027077D01*
X026073Y027446D02*
X026486Y027033D01*
X026250Y027519D02*
X026673Y027096D01*
X026427Y027593D02*
X028020Y026000D01*
X025915Y035923D02*
Y036135D01*
X026191Y025966D02*
Y027077D01*
X026486Y026144D02*
Y027033D01*
X026673Y026758D02*
Y027096D01*
X026191Y025966D02*
X027501Y024655D01*
X026486Y026144D02*
X027640Y024990D01*
X032755Y024065D02*
X033602Y024911D01*
X032755Y024013D02*
Y024065D01*
X033602Y024911D02*
X033711D01*
X032978Y023790D02*
X033543Y024355D01*
Y024380D01*
X034045Y024409D02*
Y025851D01*
X033975Y025921D02*
X034045Y025851D01*
X033429Y023345D02*
X034590Y024506D01*
X033201Y023567D02*
X033204D01*
X032488Y022709D02*
X033776D01*
X031850Y023347D02*
X032488Y022709D01*
X033776D02*
X033869Y022802D01*
X031850Y023347D02*
Y024636D01*
X032404Y022486D02*
X033901D01*
X031390Y023500D02*
X032404Y022486D01*
X033901D02*
X034091Y022676D01*
X033460Y022890D02*
X033646Y023076D01*
X032780Y022890D02*
X033460D01*
X029387Y022454D02*
X029655Y022185D01*
X029985D01*
X030020Y022150D01*
X028989Y023297D02*
X029609Y022676D01*
X028661Y023297D02*
X028989D01*
X032978Y023790D02*
X033342Y024154D01*
X033423Y023345D02*
X033429D01*
X027501Y024655D02*
X029858D01*
X030723Y023790D01*
X031279Y021569D02*
X033389D01*
X034091Y020867D01*
X030680Y020970D02*
X031279Y021569D01*
X033149Y021392D02*
X033869Y020672D01*
X032512Y021392D02*
X033149D01*
X032230Y021110D02*
X032512Y021392D01*
X033869Y020644D02*
Y020672D01*
X033482Y019695D02*
X033869D01*
X033371Y019360D02*
X033730D01*
X032978Y019753D02*
X033371Y019360D01*
X033201Y019976D02*
X033482Y019695D01*
X031781Y047933D02*
X031949Y047766D01*
Y042008D02*
Y047766D01*
X031781Y047933D02*
Y048120D01*
X031348D02*
X031348Y048120D01*
Y047965D02*
Y048120D01*
Y047965D02*
X031585Y047728D01*
X029167Y039226D02*
X031949Y042008D01*
X031585Y041909D02*
Y047728D01*
X029021Y039596D02*
X031201Y041776D01*
X030317Y044843D02*
X031201Y043959D01*
X029961Y043740D02*
X030856D01*
X030866Y043730D01*
X031201Y041776D02*
Y043959D01*
X025809Y042606D02*
Y043573D01*
Y042606D02*
X026398Y042018D01*
X027579Y042638D02*
X028449D01*
X026990Y043226D02*
X027579Y042638D01*
X026990Y043226D02*
Y043573D01*
X026596Y043310D02*
X027446Y042461D01*
X026596Y043310D02*
Y043573D01*
X027446Y042461D02*
X028376D01*
X026203Y043360D02*
X027437Y042126D01*
X026203Y043360D02*
Y043573D01*
X027437Y042126D02*
X028150D01*
X026623Y039596D02*
X029021D01*
X026565Y039539D02*
X026623Y039596D01*
X028563Y042066D02*
Y042274D01*
X028376Y042461D02*
X028563Y042274D01*
X025415Y043573D02*
X025443Y043545D01*
Y042657D02*
Y043545D01*
X029167Y039226D02*
Y039226D01*
X029245Y039049D02*
X032215Y042018D01*
X029245Y039049D02*
Y039049D01*
X032215Y042018D02*
Y048120D01*
X024016Y031339D02*
X025413D01*
X025910Y036140D02*
X025915Y036135D01*
X031781Y049282D02*
Y049600D01*
X031992Y049810D01*
X033000D01*
X035810Y047000D01*
Y037512D02*
Y047000D01*
X029961Y044843D02*
Y048801D01*
X030400Y049240D01*
X031348D02*
Y049282D01*
X029961Y044843D02*
X030317D01*
X028010Y044596D02*
X028860D01*
X029106Y044843D02*
X029961D01*
X025846Y039334D02*
Y041614D01*
X025022Y042439D02*
X025846Y041614D01*
X025022Y042439D02*
Y043573D01*
X024291Y019213D02*
Y020226D01*
X026567Y022502D02*
X027652D01*
X024291Y020226D02*
X026567Y022502D01*
X039429Y019134D02*
X039606D01*
X037010Y021553D02*
X039429Y019134D01*
X035315Y038504D02*
Y045887D01*
X036290Y018310D02*
X036715Y018735D01*
X034806Y020899D02*
X036538Y022631D01*
X034505Y020899D02*
X034806D01*
X034314Y021090D02*
X034505Y020899D01*
X024772Y044193D02*
X024781Y044203D01*
X034590Y025141D02*
X034755D01*
X033646Y023076D02*
Y023122D01*
X032580Y023090D02*
X032780Y022890D01*
X033869Y022802D02*
Y022899D01*
X032215Y048987D02*
Y049282D01*
Y048987D02*
X035315Y045887D01*
X038400Y031378D02*
X039843D01*
X037980Y030958D02*
X038400Y031378D01*
X037980Y030600D02*
Y030958D01*
X035039Y018310D02*
Y018370D01*
X034755Y025141D02*
X035520D01*
X039606Y017953D02*
Y019134D01*
X029874Y019795D02*
X030278Y020199D01*
X028000Y019795D02*
X029874D01*
X033010Y021057D02*
X033646Y020421D01*
X035315Y037402D02*
X035700D01*
X035810Y037512D01*
X028780Y019016D02*
Y019030D01*
X030723Y019753D02*
X030820D01*
X028780Y018820D02*
Y019016D01*
X035039Y018370D02*
Y018750D01*
X031348Y049282D02*
X031781D01*
X028860Y044596D02*
X029106Y044843D01*
X036715Y018735D02*
Y025169D01*
X037096Y025551D01*
X033869Y019695D02*
X034222Y019341D01*
Y018948D02*
Y019341D01*
X033423Y020199D02*
X033673Y019949D01*
X034115D01*
X034347Y019717D01*
X033920Y020148D02*
X034390D01*
X035787Y018750D01*
X033646Y020421D02*
X033920Y020148D01*
X028000Y015504D02*
Y019795D01*
X028311Y018352D02*
X028780Y018820D01*
X031391Y019077D02*
Y019085D01*
X029291Y016978D02*
X031391Y019077D01*
X029291Y016043D02*
Y016978D01*
X030499Y019976D02*
X030500D01*
X029553Y019030D02*
X030499Y019976D01*
X030723Y019729D02*
Y019753D01*
X033291Y015857D02*
Y016043D01*
X030654Y019340D02*
X030658D01*
X030848Y019531D01*
X030946D01*
X036122Y014468D02*
X039606Y017953D01*
X028000Y015504D02*
X029035Y014468D01*
X036122D01*
X036041Y016008D02*
Y017368D01*
X034896Y014862D02*
X036041Y016008D01*
X035099Y018310D02*
X036041Y017368D01*
X035039Y018370D02*
X035099Y018310D01*
X035039D02*
X035099D01*
X036290D01*
X028780Y019030D02*
X029553D01*
X030400Y049240D02*
X031348D01*
X034590Y024506D02*
Y025141D01*
X033858Y016476D02*
X034291Y016043D01*
X031791Y017588D02*
X032291Y017088D01*
Y016043D02*
Y017088D01*
X034457Y016878D02*
X035291Y016043D01*
X033011Y016878D02*
X034457D01*
X031142Y019308D02*
X031168D01*
X029801Y017968D02*
X031142Y019308D01*
X032755Y019531D02*
X032946Y019340D01*
Y018934D02*
Y019340D01*
X028311Y015558D02*
Y018352D01*
Y015558D02*
X029007Y014862D01*
X034896D01*
X028858Y015864D02*
Y017545D01*
X030654Y019340D01*
X028591Y015658D02*
Y017598D01*
X030723Y019729D01*
X028591Y015658D02*
X029101Y015148D01*
X032582D01*
X033291Y015857D01*
X028858Y015864D02*
X029305Y015418D01*
X032441D01*
X032841Y015818D01*
Y016258D01*
X033060Y016476D01*
X033858D01*
X030291Y016043D02*
Y016998D01*
X031621Y018328D01*
X032339D01*
X032946Y018934D01*
D20*
X027941Y047746D02*
D03*
X027939Y049321D02*
D03*
X024860D02*
D03*
X026006Y046470D02*
D03*
X024860Y047746D02*
D03*
X026793Y046461D02*
D03*
D21*
X029291Y016043D02*
D03*
X030291D02*
D03*
X031291D02*
D03*
X032291D02*
D03*
X034291D02*
D03*
X033291D02*
D03*
D22*
X035291D02*
D03*
D23*
X021555Y013681D02*
D03*
X042028D02*
D03*
Y049114D02*
D03*
X021555D02*
D03*
D24*
X041831Y037992D02*
D03*
Y024803D02*
D03*
X021752Y037992D02*
D03*
Y024803D02*
D03*
D25*
X035237Y025965D02*
D03*
X031201Y025551D02*
D03*
X033711Y024911D02*
D03*
X033543Y024380D02*
D03*
X027652Y022502D02*
D03*
X030020Y022150D02*
D03*
X028661Y023297D02*
D03*
X036919Y026417D02*
D03*
X037096Y025551D02*
D03*
X037244Y024724D02*
D03*
X027640Y024990D02*
D03*
X032230Y021110D02*
D03*
X034222Y018948D02*
D03*
X030866Y043730D02*
D03*
X026398Y042018D02*
D03*
X026565Y039539D02*
D03*
X026878Y040188D02*
D03*
X025443Y042657D02*
D03*
X025910Y036140D02*
D03*
X034154Y043307D02*
D03*
X036614D02*
D03*
X026320Y040250D02*
D03*
X037106Y035630D02*
D03*
X028150Y042126D02*
D03*
X032580Y023090D02*
D03*
X031390Y023500D02*
D03*
X037980Y030600D02*
D03*
X033010Y021057D02*
D03*
X030680Y020970D02*
D03*
X033730Y019360D02*
D03*
X034347Y019717D02*
D03*
X033651Y018498D02*
D03*
X031791Y017588D02*
D03*
X033011Y016878D02*
D03*
X029801Y017968D02*
D03*
D26*
X031791Y031398D02*
D03*
M02*
